<svg xmlns="http://www.w3.org/2000/svg" xmlns:xlink="http://www.w3.org/1999/xlink" viewBox="0 0 1196.84 550.67"><defs><style>.a{isolation:isolate;}.b{fill:#1a1a1a;}.c,.h{fill:#fff;}.d,.m{fill:none;}.d{stroke:#000;stroke-linecap:round;stroke-linejoin:round;stroke-width:3px;}.e,.k{fill:#ff5547;}.e,.f,.g,.m{stroke:#1a1a1a;}.e,.f,.g,.h,.m{stroke-miterlimit:10;}.e{stroke-width:0.66px;mix-blend-mode:hard-light;}.f,.g{stroke-width:0.57px;}.f{mix-blend-mode:color-burn;fill:url(#a);}.g{fill:url(#b);}.h{stroke:#fff;stroke-width:1.48px;opacity:0.26;}.i{fill:#dbe7fb;}.j{fill:#e5e5e5;}.l{fill:#0d6ae5;}.m{stroke-width:2.07px;stroke-dasharray:12.4 16.54 22.74 18.61 10.34 5.17;}</style><linearGradient id="a" x1="737.8" y1="314.36" x2="1175.56" y2="314.36" gradientUnits="userSpaceOnUse"><stop offset="0" stop-color="#00376a"/><stop offset="1" stop-color="#2853ac"/></linearGradient><linearGradient id="b" x1="1114.43" y1="461.74" x2="859.91" y2="177.94" xlink:href="#a"/></defs><g class="a"><path class="b" d="M667.85,241.3a4.06,4.06,0,1,1-5.1,2.63A4.06,4.06,0,0,1,667.85,241.3Z"/><path class="b" d="M598.94,472.74a4.06,4.06,0,1,1-4.07,4.06A4.06,4.06,0,0,1,598.94,472.74Z"/><path class="b" d="M556.44,218.28a4.06,4.06,0,1,1-4.07,4.06A4.06,4.06,0,0,1,556.44,218.28Z"/><path class="b" d="M460.27,83.92A4.07,4.07,0,1,1,456.21,88,4.06,4.06,0,0,1,460.27,83.92Z"/><path class="b" d="M359.85,53.93a4.07,4.07,0,1,1-5.35-2.11A4.07,4.07,0,0,1,359.85,53.93Z"/><path class="b" d="M327.88,131a12.55,12.55,0,0,0,2.73,2.46A4.07,4.07,0,0,1,327.88,131Z"/><path class="b" d="M317.25,464.07a4.54,4.54,0,1,1-5.87-2.62A4.54,4.54,0,0,1,317.25,464.07Z"/><path class="c" d="M277.3,525.44l2.45,12.27-12.12-9.43-5.91-10.13a5.38,5.38,0,0,0,1.73-3.28c3.77-4.55-.45-6.58-6.28-7.85L242.9,481.57l-3.17-5.66-5.43-9.69-6.49-11.59a4.09,4.09,0,0,1,1.44-4.24c3-2.36,6.06.67,8.08,4,.28.47,1.28,2.23,2.79,4.9.71,1.24,1.53,2.69,2.44,4.3.25.45.51.91.77,1.39.15.25.3.51.44.77l5.91,10.49h0l13.24,23.56Z"/><path class="c" d="M277.06,524.24l.24,1.2-14.37-25.6-13.24-23.56h0l-5.91-10.49c-.14-.26-.29-.52-.44-.77-.26-.48-.52-.94-.77-1.39-.91-1.61-1.73-3.06-2.44-4.3-1.51-2.67-2.51-4.43-2.79-4.9-2-3.37-5.05-6.4-8.08-4a4.09,4.09,0,0,0-1.44,4.24l-.23-.4s-2.36-4,.67-6.39,6.06.67,8.08,4c.28.47,1.28,2.23,2.79,4.9h0c.71,1.24,1.53,2.68,2.44,4.29.25.45.51.91.77,1.39.15.25.3.51.44.77l5.91,10.49h0l13,23.16.23.4Z"/><path class="c" d="M262.55,515.85a13,13,0,0,0,.9-1,5.38,5.38,0,0,1-1.73,3.28l-1.16-2v-.41C261.2,515.76,261.86,515.79,262.55,515.85Z"/><path class="b" d="M177.93,403a4.54,4.54,0,1,1-4.55,4.54A4.54,4.54,0,0,1,177.93,403Z"/><path class="b" d="M170.94,168.33a3.66,3.66,0,1,1-3.65,3.67A3.66,3.66,0,0,1,170.94,168.33Z"/><circle class="b" cx="116.61" cy="301.69" r="4.54"/><path class="d" d="M331.54,230.25c1.58,1.8,5.83,7.65,7,19.88,1.48,15.93-.45,19.5-4.57,19.5-1.91,0-2.82-1.11-3.21-2.88-.63-2.86.08-7.42.08-11.74,0-7-1.87-20.38-8.87-22.38"/><path class="d" d="M331.51,230.22l-.43-.44a1.59,1.59,0,0,1-.13-.13l0,0"/><path class="d" d="M331.51,230.22s0,0,0,0"/><path class="d" d="M198.68,260.7c20.85,10.45,46.21,1.31,79.55-19.24,12.36-7.62,25.42-17.19,39.86-20.35,5.22-1.14,10.74-1.07,15.54,1.51,5.78,3.09,9.51,8.94,12.16,14.74a64.12,64.12,0,0,1,5.52,20.14c.56,5.79,1.36,12.79-1.58,18.09-.68,1.23-3,1.16-4,1-2.81-.57-1.72-5.22-1.5-10.21.34-7.68-.12-15.24-2.85-22.51-2-5.4-5.95-9.51-9.89-13.57"/><path class="d" d="M330.37,266.83a4.16,4.16,0,0,1-4.34,2.49c-3.14-.43-3.36-5.31-3.36-5.31s2.06-9.87-.32-17.46c-2.32-7.37-6.94-9.75-8.46-9.75"/><path class="d" d="M625.11,114a92.94,92.94,0,0,1,14.42,3.4"/><path class="d" d="M627.26,106a91.29,91.29,0,0,1,14.18,3.44"/><path class="d" d="M629,98.32a92.67,92.67,0,0,1,14.37,3.51"/><path class="d" d="M369.52,313l2.19-6.45,20.67-60.77a5.44,5.44,0,0,1,3.63-3.46l7.76-2.26,19.38-5.63,35.1-10.21,40.88-11.89a.93.93,0,0,1,1.15,1.2l-4.74,13.93-17.67,52a4.66,4.66,0,0,1-3.1,3Z"/><path class="d" d="M369.52,313c-.67-1.32-66.2-32.31-66.2-32.31l1.19-6.75.33-1.88,12.74-5.84"/><line class="d" x1="305.35" y1="274.04" x2="370.38" y2="306.05"/><path class="d" d="M529.77,104.72a43.15,43.15,0,0,0-13.11-3c-27.43-2.54-36.07-3.56-44.2-19.31a60.94,60.94,0,0,1-6.66-30.78"/><path class="d" d="M167.59,311.22c8.21-6.16,17.12-11.61,27.4-12.05a38.33,38.33,0,0,1,18.25,4.1,47.76,47.76,0,0,1,8.13,5c2.31,1.77,5.35,4,6.84,6.55.18.35-5.71,4-6.28,4.41-4.09,2.74-8.07,5.73-12.79,7.33-6.92,2.34-14.85,3.53-22,1.66a29.39,29.39,0,0,1-15.79-11.07,39.18,39.18,0,0,1-3.3-5.32"/><path class="d" d="M229.58,148.22s-.12-19.59,0-32.25a40.24,40.24,0,0,1,16.78-32.63c.5-.35,1-.7,1.53-1A42.14,42.14,0,0,1,267,76c1.11-.11,2.25-.17,3.4-.2,11.84-.28,23.18,1.49,32.14,6.36C312.84,87.77,320,97.52,321.2,113c.31,4.1.59,7.67.88,10.82a128.09,128.09,0,0,0,2.35,17.31c1.34,5.71,3.22,9.27,6.47,15,6.53,11.48,1.19,15.24-5.35,16.43-3.76.68-4,18.18-3.33,30.22a7.21,7.21,0,0,0,7.22,6.82l66.23-.16a7.64,7.64,0,0,1,7.65,7.64v21.37"/><line class="d" x1="319.04" y1="140.83" x2="306.27" y2="141"/><path class="d" d="M268.24,169.82a10.88,10.88,0,0,1,0-21.76"/><path class="d" d="M258.2,509.63l0-.06L243.9,484.12l-1.36-2.43-1.81-3.23-5.43-9.69-1.76-3.14-5-8.85a7.53,7.53,0,0,1-.77-2.15,4.09,4.09,0,0,1,1.44-4.24c3-2.36,6.06.67,8.08,4,.28.47,1.28,2.23,2.79,4.9.71,1.24,1.53,2.69,2.44,4.3.25.45.51.91.77,1.39.15.25.3.51.44.77l5.91,10.49h0l13.24,23.56,14.37,25.6.76,1.35,2.69,13.47-12.12-9.43-7.07-12.12"/><path class="d" d="M248.73,473.7a15.52,15.52,0,0,1,14.61,15.5l-.79,6.65c.07.16.13.31.2.45s.13.28.21.42c2.52,4.59,7.59,1.13,7.59,1.13.34-1.57.63-3.2,1.12-4.72l.67-5c0-.56,0-1.11-.06-1.66a25.28,25.28,0,0,0-25.23-23.63,25,25,0,0,0-4.26.36"/><path class="d" d="M248.11,456.39a11.73,11.73,0,0,1,15.75-5.2l3.7,2.45.52.34c4.76.41,4.06-4.72,4.06-4.72-.94-.76-1.94-1.51-2.8-2.36l-3.13-2.14a19.1,19.1,0,0,0-25.65,8.48,27.38,27.38,0,0,0-1.44,3.54"/><path class="d" d="M272.33,486.5c4.23,4.7,7.88-1,7.88-1-.22-1.59-.51-3.22-.58-4.83l-.85-3.84-.23-1a25.3,25.3,0,0,0-32.48-15,23.62,23.62,0,0,0-3.69,1.64"/><path class="d" d="M278.85,476.83c2.7-.5,3.91-3.88,3.91-3.88-.62-1.43-1.32-2.88-1.8-4.36l-2.31-4.29a24.5,24.5,0,0,0-11.25-8.61l-1-.34a24.6,24.6,0,0,0-18.26,1.16,24.26,24.26,0,0,0-3.84,2.28,23.19,23.19,0,0,0-2.67,2.23"/><path class="d" d="M233.43,494.9a1.32,1.32,0,0,0,.07.3s0,0,0,0"/><path class="d" d="M242.76,481.65l-.22,0a11.54,11.54,0,0,0-3.55,1.1,10.82,10.82,0,0,0-3.78,3.06,9.62,9.62,0,0,0-1.88,4.43,29.8,29.8,0,0,0,.1,4.58"/><path class="d" d="M231.4,466.83a26.07,26.07,0,0,0-7.78,7.52l-9.55,13c-10.83,10.2-24.9,21.12-50.56,20.52a87.4,87.4,0,0,1-79.18-54.32q-.92-2.29-1.64-4.45c-8.29-24.56,1-36.16,6.25-37.9,4.13-1.38,9.82-2.24,15.9,7.87A71.73,71.73,0,0,1,111,433.34c8.29,24.86,16.58,30.38,28.55,25.78s18.41-14.73,23.93-15.65,8.29,5.51,11.05,4.6c3.6-1.19,4.25-6.93,5-10,1-4.2,1.88-8.42,2.61-12.68a69.43,69.43,0,0,1,2.41-11.26c1.83-5.26,5.33-8.5,9.8-11.55q2.05-1.39,4-2.94a37.8,37.8,0,0,0,10.35-11.84c4.36-8.37,3-17.77.3-26.43-1.3-4.16-3.09-8.16-4.35-12.32"/><path class="d" d="M83.37,200.84c.51-12.16-1.48-25.94-1.48-37.19,0-24,17.4-55.52,51.38-55.52,15.87,0,27.23,4.53,34.91,11.64s11.76,17,12.86,27.48c.15,1.31.24,2.64.29,4,.83,22.38,0,29,5.8,35.63s5,8.29,5,8.29H180.5c-.29.51-.61,12.43-.61,12.43H167.76s-1.31,9.84,3.44,9.84,8.69.33,8.69.33-.59,8.86-.59,8.92c-1.63,24.36-34,13-48.91,20.11-8.3,3.94-16.2,9.14-20.63,17.46-4.18,7.84-2.4,15.38-3.32,23.76-.82,7.46-2,15.74-5.61,22.4A17.42,17.42,0,0,1,94,317.45c-1.51.84-3.57,1.33-4.73,2.66-3.17,3.61-.91,7.68,4.06,8.13s8.07-.34,8.51,4.5c.11,1.23.24,2.43.42,6.24l14.8.82s-.72,9-14.25,9.44l1.4,7.63a15.71,15.71,0,0,1-1.39,5.71s-1,6.53,7.88,9.32a8,8,0,0,1,5.67,7.57v3.7a8.45,8.45,0,0,1-8.45,8.45H72.74A25.83,25.83,0,0,0,46.9,417.45v51.21"/><path class="d" d="M240.22,481.85a15.41,15.41,0,0,0-1.23.94A15.18,15.18,0,0,0,233.44,494a6.6,6.6,0,0,0,0,.82,0,0,0,0,0,0,0,13.7,13.7,0,0,0,.95,4.73,13.19,13.19,0,0,0,.83,1.76c2.86,5,6.76,6.14,6.76,6.14,2.62,1.32,9.2,1.79,14.38,2.92,4,.87,7.16,2.12,7.1,4.42a5.38,5.38,0,0,1-1.73,3.28l-.42.43c-.63-.06-1.24-.09-1.82-.1-10.46-.25-13.44,4.8-23,6.54-5.83,1.06-9.52,0-11.6-1.11a7.12,7.12,0,0,0-5.7-.38c-47.81,17.06-151,28.58-192.59-45.06a117.67,117.67,0,0,1-7.37-15.65,139.88,139.88,0,0,1-5.7-18.5C-3.95,370.58,57.14,335.68,46.81,306.26a25.88,25.88,0,0,0-1.16-2.81c-11.09-22.91-7.46-52.93,7-66.61"/><path class="d" d="M322.67,264s-1.73,3.47-5.09,2.16-2.93-3.57-2.82-7.58,1.19-11.93-2.93-13.23a12.58,12.58,0,0,0-11.49,2.6c-2.27,2.28-21.25,24.83-48,39.57-7.72,4.25-15,7-21.65,7.82-15.61,2-27.48-6.23-32.35-28.82-.23-1.06-.44-2.15-.64-3.28-.14-.78-.26-1.56-.36-2.36v0c-4.72-35.47,19.3-92.74,22.8-99.52,1.45-2.81,2.92-5.88,5.91-8.73a23.41,23.41,0,0,1,4-3.06c4.07-2.49,10-4.66,19-6.1,1.48-.24,3-.45,4.68-.65,26.34-3.14,28.46-21.91,26.28-33.17-1.31-6.79-4-13.47-6.91-20-1.92-4.3-4-8.55-5.79-12.76L267,76c-3.37-7.8-6-15.44-6-22.92,0-29.16,23.78-48.54,51.41-51.23C337-.56,353.2,10.13,360.16,17.16a48.39,48.39,0,0,1,6,7.66c3.91,6.08,6.55,12.35,6.63,13.67.32,5.21-2.51,9.46-.33,14.63s6.71,8.79,9.34,13.6a11.25,11.25,0,0,1,1,8.94A7.17,7.17,0,0,1,380,79.21c-1.78,1.19-3.67,1-5.61,1.67-2.94,1-2.41,3.55-2.1,6,.19,1.55.32,3.11.42,4.67L361.51,93s-2.57,7,11.68,6.81c.58,6.15.92,10.19-1.56,13.92a11.49,11.49,0,0,1-6,4.43c-4.43,1.52-9,1.45-13.64,1.25-4.23-.18-10.08-2.74-12.19,2.28-1.26,3-1.74,8.45,0,11.36s6.26,2.72,9.21,2.48c18.43-1.48,45,52.85,63.49,52.78l8.61,0c12.17-.08,24.34-.17,36.5.15,8.08.22,25.91,3.65,28.42-7.66,0,0,5.64-16.3-.51-24s-18.46-.91-28.71-8c-3.11-2.14-5-6.44-6.18-11.41l-.93-5.1c6.76.2,9.05-5.83,9.8-9.27a1.92,1.92,0,0,0-1.89-2.31H449l.3-9.73s-8.89,1.82-10.49-.46,2.74-5.47,5.93-10.48,7.06-8.89,6.83-15.5-.91-7.52,1.37-14.12c1.29-3.75,4.27-12.54,12.75-18.92h0c6.48-4.87,16.16-8.33,30.76-7,33.73,3,38.74,27.12,36.46,46.71a105.25,105.25,0,0,1-2.74,13.73C525.44,123,517,144,517.17,151c.09,3.75,0,6.6,1.41,8.73,1.88,2.94,6.48,4.51,18,5.17"/><path class="d" d="M652.4,87.8c1-2.32,2-4.63,3-7"/><path class="d" d="M656.81,92.74l8-1.71"/><path class="d" d="M656.79,99.23q5.28.81,10.53,1.75"/><path class="d" d="M433.64,454.35c11.26.41,21-7.12,29.89-14.08,5.48-4.31,11.24-8.57,17.81-11a33.7,33.7,0,0,1,10-1.92,13.7,13.7,0,0,0,3.29-.77,20.42,20.42,0,0,1,3.1-.59c4.6-.64,9.19-1.32,13.76-2.1,14.49-2.48,17.53-5.64,24.39-3.22s13.16,4.1,13.16,4.1,2.81,2.28.77,5.22-7.08-.94-15.82-2.85-14.68,4.26-14.68,4.26c4,5.31-1.2,18.64-13.49,22.4-7.53,2.31-15.8.39-22.78-2.79-1.11-.5-2.41-1.38-3.68-1.31s-2.32,1.32-3.24,2.23c-1.09,1.09-2.22,2.15-3.39,3.16a67.35,67.35,0,0,1-40,16.31A65.28,65.28,0,0,1,415.37,470a68,68,0,0,1-20.8-8.21q-2.4-1.45-4.68-3.1c-1.47-1.07-2.85-2.55-4.4-3.48-.66-.39-1.2-.6-1.71.06l-.1.14a3.78,3.78,0,0,0-.21,2.1c0,2.57.12,5.14.23,7.71.41,10,1.15,20,1.19,30,.06,13-.36,27.55-8.09,36.85-7.22,8.69-18.52,10-28.81,10.39q-14.64.62-29.28.37-18.75-.32-37.47-2"/><path class="d" d="M545,416.45a13.11,13.11,0,1,1-.62,23"/><path class="d" d="M538.41,412.43a20.09,20.09,0,1,1,2.44,33"/><path class="d" d="M456.14,354.34h16.15a28.92,28.92,0,1,1,0,57.84H418.21V383.26a28.92,28.92,0,0,1,28.92-28.92Z"/><path class="d" d="M456.14,354.34v-3.6A24.19,24.19,0,0,0,432,326.55H397.33a24.19,24.19,0,0,0-24.19,24.19v9.46a24.19,24.19,0,0,0,24.19,24.19h21.26"/><line class="d" x1="432.94" y1="369.77" x2="487.03" y2="369.77"/><line class="d" x1="432.94" y1="383.29" x2="486.28" y2="383.29"/><line class="d" x1="433.67" y1="396.39" x2="467.91" y2="396.39"/><line class="d" x1="386.75" y1="347.61" x2="440.83" y2="347.61"/><line class="d" x1="386.75" y1="361.13" x2="409.2" y2="361.13"/><path class="d" d="M59.68,239.09a10.66,10.66,0,1,1,0-21.32,10.86,10.86,0,0,1,2.93.41,18,18,0,0,1,17.87-16,18.18,18.18,0,0,1,2.68.2,18,18,0,0,1,14.3,11.91,12.74,12.74,0,1,1,4,24.84"/><line class="d" x1="80.78" y1="242.56" x2="80.78" y2="267.15"/><line class="d" x1="70.27" y1="238.89" x2="70.27" y2="265.44"/><line class="d" x1="90.88" y1="237.04" x2="90.88" y2="266.31"/><path class="d" d="M635.92,314.81c14-7.5,29.12,6.43,42.51,9.17,17.39,3.56,28.8-16,40.31-25.28,6.49-5.25,26.45-20.58,14.55-29.49-4.72-3.53-11.41,0-15.8,3.88s-9.43,8.71-15.22,7.6c-3.37-.65-6-3.2-8.29-5.75s-4.59-5.3-7.77-6.58a7.78,7.78,0,0,0-7.14.63c-3,2-6.92,5.94-10.48,2.72l-.32-.3c-7.39-7.2-11.69-16.83-16.63-25.71-4.49-8.07-13.28-15.61-15.31-24.7-2.23-10,2.76-20.47,10.13-27.07,6.65-6-8.66-3.55-15.36-13.05-4.7-6.66-25.87,3.06-25.9-6.65,0-7.08,8.42-8.53,13.49-10.93,14.87-7,20.24-13.08,24.57-24.37.76-2,4.36-12.59,0-12.73.51,0-3.57,3.44-3.83,3.57-8.35,4.14-18.95,3.22-27.8,6.55l.06-.43c.46-3.28.91-6.55,1.36-9.84-4.13,2-5.94,6.61-7.18,10.74-2.21,7.3-5.84,14-9.38,20.75-7.4,14-30.24,2.3-37.05,16.59-10.83,22.73-25.9,44.41-52.82,51.36a70.7,70.7,0,0,1-10.41,1.86l-.63.06c-15.25,1.53-27.5,0-37.29-3.24-30.19-9.91-37.16-35.6-37.16-35.6"/><path class="d" d="M454.93,313.89a51.13,51.13,0,0,1,50.88,52.29"/><path class="d" d="M229.41,73.64c-8.53-4.36-19.65-7-32.36-7.53a125.57,125.57,0,0,0-22,1.15q-5.72.8-11.23,2c-2.94.66-5.83,1.41-8.65,2.24C132.69,78.16,114,90,104.53,103.41"/><path class="d" d="M104.81,419.13c-3.76,10.08-11.54,20.56-22.12,30A127.44,127.44,0,0,1,64,462.9q-3.77,2.3-7.78,4.38T48,471.21c-.71.32-1.42.62-2.13.92a122.77,122.77,0,0,1-19.31,6.34l-1.64.39A92.91,92.91,0,0,1,5.36,481.2a3.79,3.79,0,0,1-1.88-7.11c5.85-3.19,12.35-7.3,15.64-11.24"/><line class="d" x1="518.29" y1="159.93" x2="486.01" y2="180.76"/><path class="d" d="M314.15,346.53a17.83,17.83,0,0,0-.72-6.6c-.8-2.09-2.65-3.93-4.87-4-3.39-.15-5.59,3.42-7,6.51s-3.69,6.64-7.08,6.42c-2.91-.18-4.77-3.1-6-5.73s-2.87-5.61-5.74-6.17c-2.58-.49-5.08,1.31-6.6,3.44s-2.39,4.68-3.91,6.82-4,3.92-6.61,3.4c-2.78-.57-4.36-3.47-5.4-6.11s-2.09-5.61-4.64-6.89c-2.86-1.43-6.49.08-8.49,2.58s-2.76,5.75-3.46,8.88"/><path class="d" d="M315.61,367.8a17.27,17.27,0,0,0-.71-6.61c-.79-2.08-2.64-3.92-4.87-4-3.39-.15-5.59,3.43-7,6.51s-3.68,6.64-7.08,6.42c-2.91-.17-4.77-3.09-6.05-5.72s-2.87-5.62-5.73-6.16c-2.57-.51-5.09,1.29-6.6,3.43s-2.39,4.69-3.91,6.82-4.05,3.91-6.61,3.39c-2.78-.56-4.36-3.45-5.39-6.11s-2.11-5.61-4.65-6.87c-2.86-1.44-6.5.07-8.49,2.58s-2.76,5.74-3.47,8.87"/><path class="d" d="M372.18,508.28a8.7,8.7,0,0,0-.36-3.3,3,3,0,0,0-2.43-2c-1.7-.08-2.79,1.71-3.52,3.25s-1.84,3.32-3.53,3.21c-1.46-.09-2.39-1.55-3-2.86s-1.43-2.8-2.86-3.08a3.52,3.52,0,0,0-3.3,1.72c-.76,1.07-1.19,2.33-1.95,3.4a3.5,3.5,0,0,1-3.31,1.7c-1.39-.28-2.18-1.73-2.69-3.05s-1.05-2.81-2.32-3.44a3.65,3.65,0,0,0-4.25,1.29,10.63,10.63,0,0,0-1.73,4.43"/><path class="d" d="M372.91,518.91a8.9,8.9,0,0,0-.35-3.3,3,3,0,0,0-2.44-2c-1.69-.08-2.79,1.71-3.51,3.25s-1.84,3.32-3.54,3.21c-1.45-.09-2.38-1.55-3-2.86s-1.44-2.81-2.87-3.08a3.5,3.5,0,0,0-3.29,1.71c-.76,1.07-1.2,2.34-2,3.41a3.5,3.5,0,0,1-3.3,1.7c-1.39-.28-2.19-1.73-2.7-3.05s-1.05-2.81-2.32-3.44a3.63,3.63,0,0,0-4.25,1.29,10.77,10.77,0,0,0-1.73,4.43"/><path class="d" d="M197.88,309.7a7.28,7.28,0,1,1-8.6-5.67A7.28,7.28,0,0,1,197.88,309.7Z"/><path class="d" d="M160.69,322.73l-8.13,4.44"/><path class="d" d="M156.15,309.19l-8.82-.48"/><path class="d" d="M161.82,298.64a37.44,37.44,0,0,0-7-4.87l.54.19"/><path class="d" d="M318.72,542c1.55-7.16,3.28-14,4-21.29a34.52,34.52,0,0,1-5.38,0c-2.5-.42-5.42-2.31-5-5.22.8-5.6,9.41-3.73,13.1-3.32.67-2.22-.15-5.09-.45-7.31-.43-3.22-1.92-7.27,1.48-9.37,2.07-1.28,5.07.37,7-.9,6.49-4.28,1.26-14.85-1.1-20-4.41-9.67-7.13-19.85-9.91-30.07-.83-3.06-.5-6.46-.59-9.61l-.3-11.19,14.1-1.17a207.68,207.68,0,0,1,40.66.51,7.89,7.89,0,0,1,4.05,1.26c1.63,1.33,1,3.43,1.05,5.31A92.36,92.36,0,0,0,382.3,442c.62,4,1.49,8.19.9,12.27,0,.16,0,.31-.07.47"/><path class="d" d="M603.81,533.3c-12.13.79-24.29.69-36.44.5-6.08-.09-12.16-.21-18.24-.26-3.41,0-7,.24-10.46.05"/><path class="d" d="M610.24,414.1c-2.57,33.41-3.34,66.83,2.33,69.66,4.32,2.16,4.85,3.29,5.36,6.88a1.71,1.71,0,0,1-1.42,1.95,23.88,23.88,0,0,1-4.72.27c-.12,13.48,5.77,19.56,5.71,26-.1,9.18-4.2,13.87-13.69,14.48"/><path class="d" d="M612.26,323.09a20.21,20.21,0,0,1,3.39,5.49c2,4.64.92,9.71.55,14.54-.59,7.83-.21,15.77-1.18,23.56-1.08,8.62-1.91,17.27-2.7,25.91"/><path class="d" d="M506.6,225.56c8.81,5.23,17.54,10.79,24.26,18.47a53,53,0,0,1,10.33,18.22,54.71,54.71,0,0,1,2.64,21.44c-.2,2.46-.37,5-.75,7.56a33.31,33.31,0,0,1-1,4.74c-1.25,4.23-2.72,8.39-4.16,12.56l-.62,1.79c-.83,2.38-1.64,4.76-2.39,7.17-.54,1.72-2,4.6-1.28,6.44,1.07,2.65,6.17,1.78,9.6,1a1.66,1.66,0,0,1,2,1.91c-1.68,9.58-3.15,19.22-4.73,28.82l-.12.75a13.09,13.09,0,0,0,5.2,12.64c4.94,3.58,34.43,3.24,40.25,2.58,2.51-.28,1.61-11.38,1.59-12.87-.13-8.13-.65-16.24-.91-24.37a131,131,0,0,1,0-13.44c.19-2.74,2.6-3.4,4.93-3.3,3.11.14,6.53-.12,9.5,1"/><polyline class="d" points="643.22 126.2 651.33 95.72 626.58 89.7 611.83 135.91"/><path class="d" d="M344.19,436.68a18.61,18.61,0,0,1,25.68,25.47"/><path class="d" d="M362.88,468.86a18.62,18.62,0,0,1-26.62-22.17"/><polyline class="d" points="329.76 447.82 336.38 445.98 340.46 450.2"/><polyline class="d" points="375.19 465.05 368.39 464.1 366.32 458.6"/><path class="d" d="M500.23,104.81a4.89,4.89,0,1,1-4.89-4.89A4.89,4.89,0,0,1,500.23,104.81Z"/><path class="d" d="M418.18,263.9a10.62,10.62,0,0,0-.49,4.64,5.24,5.24,0,0,0,2.35,3.82,4.08,4.08,0,0,0,3.19.3,5.93,5.93,0,0,0,3.08-2.24c1.43-2,1.79-4.66,1.82-7.18,0-2.12-.15-4.25-2.53-4.57a7.14,7.14,0,0,0-5.44,2.08A7.27,7.27,0,0,0,418.18,263.9Z"/><path class="d" d="M437.66,257.07q-1.73,6.75-3.46,13.51"/><path class="d" d="M446.1,252.83a15.17,15.17,0,0,1-7.87,3.7"/><path class="d" d="M433.89,271.2l8.82-3.63"/><path class="d" d="M436.6,263.69l4.46-1.68"/><path class="d" d="M453.46,249.94l-2.25,9.42-1.44,6.05"/><path class="d" d="M453.06,249.57l.24-.08,6.61-2.32c1.41,2.67.62,6.22-1.33,8.47a10.05,10.05,0,0,1-1.72,1.55,13.25,13.25,0,0,1-5.65,2.17l-.32.05"/><path class="d" d="M456.83,257.14l0,.05a8.62,8.62,0,0,1,1.32,6.49"/><path class="d" d="M376.5,15.45a26.15,26.15,0,0,1-10.36,9.37,26,26,0,0,1-11.61,2.73,25.94,25.94,0,0,1-21.67-11.64c-.1-.14-.19-.28-.28-.42"/><path class="d" d="M332.76,15.44c0,.16.07.31.1.47A60.9,60.9,0,0,1,273.28,89.6h-.18a60.82,60.82,0,0,1-36.59-12.34"/><path class="d" d="M381.17,9.52l3.69-5.45"/><path class="d" d="M635.67,314.29c-.24-.24-.49-.47-.74-.7a21.06,21.06,0,0,0-12.73-5.44c-.5,0-1-.06-1.51-.06A21.18,21.18,0,0,0,602,339.22c.72,1.34,2.24,1.23,3.76,1.2a4.21,4.21,0,0,0,3.66-2.33c1.39-2.86-.78-6.14-.79-9.32,0-3.44,2.71-6.47,5.94-7.67s6.84-.83,10.15.11a17.42,17.42,0,0,1,7.82,4.22,9.43,9.43,0,0,1,2.81,8.16c-.58,2.94-3.31,5.47-6.3,5.32-1.66-.09-3.31-.94-4.93-.55a3.34,3.34,0,0,0-.27,6.43"/><path class="d" d="M635.7,313.33l.21-.45a18.52,18.52,0,0,0-30.41-20.3c-.91,1-.38,2.21.07,3.46a3.62,3.62,0,0,0,1.16,1.59"/><path class="d" d="M635.92,313.55c0-.22,0-.44,0-.67a18.53,18.53,0,0,0-28.85-14.78,19,19,0,0,0-2.71,2.23A18.32,18.32,0,0,0,599.7,308c-.4,1.27.61,2.15,1.57,3.08a3.7,3.7,0,0,0,3.7.84,3.9,3.9,0,0,0,.47-.2c2.25-1.12,3-4.2,4.83-6,2.14-2.12,5.69-2.31,8.42-1a11.68,11.68,0,0,1,3.57,2.68"/><path class="d" d="M645.15,327.21a14.07,14.07,0,0,1-22.37,16.56"/><path class="d" d="M606.85,399.86c-.15-.77.65-1.49,1.45-1.52a3.55,3.55,0,0,1,2.16.9,6.39,6.39,0,0,0,2,1.22,2.76,2.76,0,0,0,3.3-2.07"/><path class="d" d="M606.82,406.51c-.16-.78.65-1.49,1.44-1.52a3.6,3.6,0,0,1,2.17.89,6.31,6.31,0,0,0,2,1.23,2.77,2.77,0,0,0,3.31-2.07"/><path class="d" d="M536.54,164.92c10.14.59,18.32.38,22.86,9.21,2.2,4.29,3.55,10.73,3.83,20.43.13,4.56.34,9.13.77,13.67a51.7,51.7,0,0,0,1,7.65,31.26,31.26,0,0,0,1.88,5.19,38.18,38.18,0,0,0,5.86,9.33c.53.62,1.07,1.22,1.64,1.81,1.56,1.61,3.29,3.13,4.32,5.13s1.14,4.68-.42,6.3-4.52,1.63-6.51,3c-3.67,2.5-3.3,13.39-3.32,15.45,0,.45,0,.89,0,1.34h-7.73a3,3,0,1,0,0,5.9h7.84c.14.72.46,5.77.46,7.13,0,5.14.22,11.05-5.1,13.61-3.61,1.74-7.67,1.18-11.56,1.18H537.91s-9,.54-9,9,8.17,8.17,8.17,8.17"/><path class="e" d="M1162.45,412.52c-16.72,37.51-44.83,67.48-78.79,88.78a240.09,240.09,0,0,1-26.52,14.36c-35.6,18.25-75.53,25.38-115.46,23.24-87.71-5-172.57-63.46-199.22-149a233,233,0,0,1-9.87-35.56,219.09,219.09,0,0,1-1.71-74.3,258.38,258.38,0,0,1,6.87-36.3c9.48-35.72,26.6-69.1,51.15-96.25a229,229,0,0,1,33.77-28.27c131.27-89.7,320.52-7.42,358.33,131.3a190.31,190.31,0,0,1,6.4,39.14c1,33.9-4,68.84-16.18,100.9Q1167.37,401.44,1162.45,412.52Z"/><path class="f" d="M823.87,143c49.9-39.21,116.62-50.16,178.15-26.69q12,4.76,23.19,10.54T1047,139.33c9.49,6.8,18.77,14,27.72,21.6,7.52,6.1,15,12.59,22.2,19.42,36.16,32.94,65.2,73.11,75.07,121.28a178.21,178.21,0,0,1,3.52,29.87c2.67,73.52-51.72,133.52-113.93,166.68-58.9,31.65-129.44,34.81-190.82,10.35a235.92,235.92,0,0,1-25.39-12.44c-40.72-23.12-73-57.86-89.43-100.74a208.75,208.75,0,0,1-10.64-29.51c-16.84-60.65-6.55-129.65,45.38-190.13q7.22-8.4,15.51-16.56T823.87,143Z"/><path class="g" d="M1172.62,321c.35,68.17-33,138.68-95.8,168.8-58.53,28.79-136.32,12.1-191.11-18.14C820.56,435.67,770.1,366.17,770.84,289.81a155.66,155.66,0,0,1,3.44-27.6c8.33-39.1,37.17-67.94,70.72-86.54a241.91,241.91,0,0,1,33-15.27c11.39-4.33,23.11-8,34.91-11.32a268.07,268.07,0,0,1,32-7A275.69,275.69,0,0,1,980.67,139c55.38-6.35,110.9,14.75,146.92,53.05a152.76,152.76,0,0,1,19.12,25c10.76,18.25,20.07,38,23.57,58.69a102.58,102.58,0,0,1,1.4,21A232.74,232.74,0,0,1,1172.62,321Z"/><rect class="h" x="772.61" y="413.41" width="365.3" height="65.03"/><path class="c" d="M790.76,439.37a6.52,6.52,0,0,1-6.81-6.75v0a6.64,6.64,0,0,1,1.93-4.8,6.45,6.45,0,0,1,4.84-2,7.78,7.78,0,0,1,2.81.44,7.53,7.53,0,0,1,2.23,1.34l-1.46,1.74a6.25,6.25,0,0,0-1.66-1.06,5.25,5.25,0,0,0-2-.34,3.94,3.94,0,0,0-3,1.35,4.72,4.72,0,0,0-1.23,3.28v0a4.72,4.72,0,0,0,1.24,3.37,4.21,4.21,0,0,0,3.22,1.32,5.1,5.1,0,0,0,3.17-1v-2.45h-3.36v-2h5.59v5.51A8.13,8.13,0,0,1,790.76,439.37Z"/><path class="c" d="M799.1,439.14V425.46h2.27v13.68Z"/><path class="c" d="M809,439.37a5.12,5.12,0,0,1-3.75-1.49,4.94,4.94,0,0,1-1.5-3.63v0a5,5,0,0,1,1.52-3.66,5.46,5.46,0,0,1,7.53,0,5,5,0,0,1,1.51,3.64v0a5,5,0,0,1-1.52,3.65A5.19,5.19,0,0,1,809,439.37Zm0-2a2.78,2.78,0,0,0,2.17-.92,3.21,3.21,0,0,0,.83-2.23v0a3.19,3.19,0,0,0-.86-2.25A2.85,2.85,0,0,0,809,431a2.75,2.75,0,0,0-2.15.91,3.2,3.2,0,0,0-.83,2.24v0a3.21,3.21,0,0,0,.86,2.25A2.81,2.81,0,0,0,809.07,437.4Z"/><path class="c" d="M822.27,439.35a4,4,0,0,1-3.36-1.74v1.53h-2.27V425.46h2.27v5.44a4,4,0,0,1,3.36-1.86,4.4,4.4,0,0,1,3.24,1.4,5.11,5.11,0,0,1,1.37,3.74v0a5.11,5.11,0,0,1-1.37,3.74A4.4,4.4,0,0,1,822.27,439.35Zm-.53-2a2.64,2.64,0,0,0,2-.87,3.21,3.21,0,0,0,.82-2.3v0a3.22,3.22,0,0,0-.82-2.29,2.64,2.64,0,0,0-2-.88,2.67,2.67,0,0,0-2,.89,3.15,3.15,0,0,0-.86,2.28v0a3.15,3.15,0,0,0,.86,2.28A2.71,2.71,0,0,0,821.74,437.38Z"/><path class="c" d="M837.5,439.14h-2.25v-1.22a4,4,0,0,1-3.2,1.43,3.84,3.84,0,0,1-2.5-.82,2.69,2.69,0,0,1-1-2.24v0a2.82,2.82,0,0,1,1.11-2.42,4.76,4.76,0,0,1,2.91-.83,8.76,8.76,0,0,1,2.73.42v-.19a2,2,0,0,0-.63-1.58,2.67,2.67,0,0,0-1.8-.54,7.36,7.36,0,0,0-2.83.62l-.62-1.82a9.08,9.08,0,0,1,3.76-.82,4.47,4.47,0,0,1,3.26,1.08,4.19,4.19,0,0,1,1.09,3.1Zm-2.19-3.58V435a6.25,6.25,0,0,0-2.27-.39,2.89,2.89,0,0,0-1.67.41,1.29,1.29,0,0,0-.6,1.12v0a1.24,1.24,0,0,0,.55,1.07,2.29,2.29,0,0,0,1.37.39,2.93,2.93,0,0,0,1.88-.58A1.84,1.84,0,0,0,835.31,435.56Z"/><path class="c" d="M840.33,439.14V425.46h2.27v13.68Z"/><path class="c" d="M857.54,439.37a6.39,6.39,0,0,1-4.76-1.95,6.57,6.57,0,0,1-1.91-4.8v0a6.61,6.61,0,0,1,1.91-4.81,6.44,6.44,0,0,1,4.85-2,7.2,7.2,0,0,1,2.9.52,8,8,0,0,1,2.24,1.52l-1.48,1.71a5.38,5.38,0,0,0-3.68-1.63,4,4,0,0,0-3.09,1.34,4.69,4.69,0,0,0-1.24,3.29v0a4.77,4.77,0,0,0,1.24,3.31,4,4,0,0,0,3.09,1.36,4.48,4.48,0,0,0,2-.42,7.16,7.16,0,0,0,1.78-1.29l1.48,1.5a8,8,0,0,1-2.34,1.75A7.1,7.1,0,0,1,857.54,439.37Z"/><path class="c" d="M869.53,439.37a5.08,5.08,0,0,1-3.74-1.49,4.94,4.94,0,0,1-1.5-3.63v0a5,5,0,0,1,1.51-3.66,5.46,5.46,0,0,1,7.53,0,5,5,0,0,1,1.51,3.64v0a5,5,0,0,1-1.52,3.65A5.17,5.17,0,0,1,869.53,439.37Zm0-2a2.8,2.8,0,0,0,2.18-.92,3.2,3.2,0,0,0,.82-2.23v0a3.19,3.19,0,0,0-.86-2.25,2.85,2.85,0,0,0-2.18-.93,2.76,2.76,0,0,0-2.15.91,3.2,3.2,0,0,0-.83,2.24v0a3.17,3.17,0,0,0,.87,2.25A2.78,2.78,0,0,0,869.57,437.4Z"/><path class="c" d="M877.14,439.14v-9.89h2.27v1.53A3.59,3.59,0,0,1,882.5,429a3.31,3.31,0,0,1,2.59,1,3.94,3.94,0,0,1,.94,2.77v6.3h-2.27v-5.62a2.63,2.63,0,0,0-.55-1.79,2,2,0,0,0-1.57-.63,2.1,2.1,0,0,0-1.61.66,2.54,2.54,0,0,0-.62,1.8v5.58Z"/><path class="c" d="M893.17,442.18a8.33,8.33,0,0,1-4.42-1.18l.84-1.71a6.56,6.56,0,0,0,3.52,1,3.22,3.22,0,0,0,2.33-.78,3,3,0,0,0,.8-2.25v-.77a4.25,4.25,0,0,1-3.48,1.82,4.46,4.46,0,0,1-3.17-1.27,4.4,4.4,0,0,1-1.33-3.36v0a4.46,4.46,0,0,1,4.5-4.65,4.32,4.32,0,0,1,3.46,1.69v-1.48h2.27v7.87a5.09,5.09,0,0,1-1.25,3.73A5.54,5.54,0,0,1,893.17,442.18Zm.19-5.74a2.92,2.92,0,0,0,2-.77,2.49,2.49,0,0,0,.85-1.94v0a2.52,2.52,0,0,0-.85-2,3,3,0,0,0-2-.77,2.85,2.85,0,0,0-2,.76,2.56,2.56,0,0,0-.8,2v0a2.57,2.57,0,0,0,.81,2A2.77,2.77,0,0,0,893.36,436.44Z"/><path class="c" d="M901.32,439.14v-9.89h2.27v2.23a3.41,3.41,0,0,1,3.51-2.42v2.4H907a3.15,3.15,0,0,0-2.45,1,4.19,4.19,0,0,0-.92,2.92v3.76Z"/><path class="c" d="M913.26,439.37a4.91,4.91,0,0,1-3.62-1.44,5,5,0,0,1-1.46-3.7v0a5.24,5.24,0,0,1,1.37-3.65A4.49,4.49,0,0,1,913,429a4.24,4.24,0,0,1,3.49,1.53,5.81,5.81,0,0,1,1.25,3.79c0,.13,0,.34,0,.64h-7.27a2.92,2.92,0,0,0,1,1.85,2.79,2.79,0,0,0,1.89.66,3.77,3.77,0,0,0,2.68-1.18l1.33,1.18A5,5,0,0,1,913.26,439.37Zm-2.83-5.87h5.08a3.12,3.12,0,0,0-.77-1.87,2.21,2.21,0,0,0-1.74-.73,2.32,2.32,0,0,0-1.73.72A3.24,3.24,0,0,0,910.43,433.5Z"/><path class="c" d="M923.44,439.33a6.59,6.59,0,0,1-4.2-1.48l1-1.54a5.33,5.33,0,0,0,3.24,1.22,2,2,0,0,0,1.14-.29.9.9,0,0,0,.4-.78v0c0-.47-.66-.91-2-1.31l-.23-.07a9.61,9.61,0,0,1-1.12-.38,5.66,5.66,0,0,1-1-.51,2.11,2.11,0,0,1-.76-.84,2.57,2.57,0,0,1-.25-1.18v0a2.69,2.69,0,0,1,1-2.19,3.84,3.84,0,0,1,2.52-.82,6.49,6.49,0,0,1,3.64,1.12l-.9,1.61a5.54,5.54,0,0,0-2.8-.93,1.71,1.71,0,0,0-1,.27.86.86,0,0,0-.36.72v0a.8.8,0,0,0,.49.72,10.58,10.58,0,0,0,1.55.61h.06l.05,0a.13.13,0,0,1,.08,0,9.49,9.49,0,0,1,1.1.4,6.16,6.16,0,0,1,1,.53,2.4,2.4,0,0,1,.76.83,2.37,2.37,0,0,1,.26,1.12v0a2.73,2.73,0,0,1-1,2.3A4.16,4.16,0,0,1,923.44,439.33Z"/><path class="c" d="M932.62,439.33a6.59,6.59,0,0,1-4.2-1.48l1-1.54a5.29,5.29,0,0,0,3.24,1.22,1.92,1.92,0,0,0,1.13-.29.91.91,0,0,0,.41-.78v0c0-.47-.67-.91-2-1.31L932,435a10.3,10.3,0,0,1-1.12-.38,5.66,5.66,0,0,1-1-.51,2.18,2.18,0,0,1-.76-.84,2.7,2.7,0,0,1-.25-1.18v0a2.72,2.72,0,0,1,1-2.19,3.85,3.85,0,0,1,2.53-.82,6.46,6.46,0,0,1,3.63,1.12l-.9,1.61a5.48,5.48,0,0,0-2.79-.93,1.67,1.67,0,0,0-1,.27.84.84,0,0,0-.37.72v0a.81.81,0,0,0,.5.72,10.14,10.14,0,0,0,1.55.61h.05l.06,0a.11.11,0,0,1,.07,0,9.72,9.72,0,0,1,1.11.4,6.09,6.09,0,0,1,.94.53,2.22,2.22,0,0,1,.76.83,2.26,2.26,0,0,1,.27,1.12v0a2.75,2.75,0,0,1-1,2.3A4.17,4.17,0,0,1,932.62,439.33Z"/><path class="c" d="M944.73,439.14V431.2h-1.25v-1.9h1.25v-.71a3.35,3.35,0,0,1,.81-2.46,3,3,0,0,1,2.23-.78,6.53,6.53,0,0,1,1.83.26v1.91a4.26,4.26,0,0,0-1.33-.24c-.87,0-1.31.5-1.31,1.5v.54h2.63v1.88H947v7.94Z"/><path class="c" d="M955.79,439.37a5.12,5.12,0,0,1-3.75-1.49,4.94,4.94,0,0,1-1.5-3.63v0a5,5,0,0,1,1.52-3.66,5.46,5.46,0,0,1,7.53,0,5,5,0,0,1,1.5,3.64v0a5,5,0,0,1-1.51,3.65A5.2,5.2,0,0,1,955.79,439.37Zm0-2a2.78,2.78,0,0,0,2.17-.92,3.21,3.21,0,0,0,.83-2.23v0A3.16,3.16,0,0,0,958,432a2.83,2.83,0,0,0-2.17-.93,2.77,2.77,0,0,0-2.16.91,3.19,3.19,0,0,0-.82,2.24v0a3.21,3.21,0,0,0,.86,2.25A2.81,2.81,0,0,0,955.83,437.4Z"/><path class="c" d="M963.4,439.14v-9.89h2.27v2.23a3.4,3.4,0,0,1,3.5-2.42v2.4H969a3.19,3.19,0,0,0-2.46,1,4.19,4.19,0,0,0-.91,2.92v3.76Z"/><path class="c" d="M977.16,439.14V426h2.3v13.12Z"/><path class="c" d="M982.7,439.14v-9.89H985v1.5a3.64,3.64,0,0,1,3-1.71,3,3,0,0,1,2.94,1.74,4.07,4.07,0,0,1,3.36-1.74,3.33,3.33,0,0,1,2.55,1,4,4,0,0,1,.92,2.8v6.31h-2.27v-5.62a2.7,2.7,0,0,0-.53-1.8,1.84,1.84,0,0,0-1.48-.62,2,2,0,0,0-1.54.65,2.64,2.64,0,0,0-.58,1.81v5.58H989.1V433.5a2.69,2.69,0,0,0-.53-1.77,1.82,1.82,0,0,0-1.48-.63,1.93,1.93,0,0,0-1.54.67,2.67,2.67,0,0,0-.58,1.81v5.56Z"/><path class="c" d="M1000.51,442.14V429.25h2.27v1.65a4,4,0,0,1,3.35-1.86,4.42,4.42,0,0,1,3.25,1.4,5.1,5.1,0,0,1,1.36,3.74v0a5.1,5.1,0,0,1-1.36,3.74,4.42,4.42,0,0,1-3.25,1.4,4,4,0,0,1-3.35-1.74v4.53Zm5.1-4.76a2.64,2.64,0,0,0,2-.87,3.21,3.21,0,0,0,.82-2.3v0a3.22,3.22,0,0,0-.83-2.29,2.63,2.63,0,0,0-2-.88,2.71,2.71,0,0,0-2,.89,3.18,3.18,0,0,0-.85,2.28v0a3.18,3.18,0,0,0,.85,2.28A2.74,2.74,0,0,0,1005.61,437.38Z"/><path class="c" d="M1013.2,439.14V425.46h2.27v13.68Z"/><path class="c" d="M1023,439.37a5,5,0,0,1-5.08-5.14v0a5.24,5.24,0,0,1,1.37-3.65,4.49,4.49,0,0,1,3.47-1.5,4.28,4.28,0,0,1,3.5,1.53,5.8,5.8,0,0,1,1.24,3.79c0,.13,0,.34,0,.64h-7.27a3,3,0,0,0,1,1.85,2.79,2.79,0,0,0,1.89.66,3.75,3.75,0,0,0,2.68-1.18l1.33,1.18A5,5,0,0,1,1023,439.37Zm-2.83-5.87h5.08a3.12,3.12,0,0,0-.77-1.87,2.19,2.19,0,0,0-1.74-.73,2.28,2.28,0,0,0-1.72.72A3.19,3.19,0,0,0,1020.13,433.5Z"/><path class="c" d="M1029.75,439.14v-9.89H1032v1.5a3.63,3.63,0,0,1,3-1.71,3.05,3.05,0,0,1,3,1.74,4,4,0,0,1,3.35-1.74,3.3,3.3,0,0,1,2.55,1,4,4,0,0,1,.92,2.8v6.31h-2.27v-5.62a2.7,2.7,0,0,0-.52-1.8,1.85,1.85,0,0,0-1.48-.62,2,2,0,0,0-1.54.65,2.59,2.59,0,0,0-.58,1.81v5.58h-2.27V433.5a2.69,2.69,0,0,0-.53-1.77,1.8,1.8,0,0,0-1.48-.63,1.91,1.91,0,0,0-1.53.67,2.63,2.63,0,0,0-.58,1.81v5.56Z"/><path class="c" d="M1052.09,439.37a4.94,4.94,0,0,1-5.08-5.14v0a5.24,5.24,0,0,1,1.37-3.65,4.49,4.49,0,0,1,3.47-1.5,4.24,4.24,0,0,1,3.49,1.53,5.81,5.81,0,0,1,1.25,3.79c0,.13,0,.34,0,.64h-7.27a3,3,0,0,0,1,1.85,2.84,2.84,0,0,0,1.9.66,3.77,3.77,0,0,0,2.68-1.18l1.33,1.18A5,5,0,0,1,1052.09,439.37Zm-2.83-5.87h5.08a3.12,3.12,0,0,0-.77-1.87,2.22,2.22,0,0,0-1.74-.73,2.32,2.32,0,0,0-1.73.72A3.24,3.24,0,0,0,1049.26,433.5Z"/><path class="c" d="M1058.88,439.14v-9.89h2.26v1.53a3.6,3.6,0,0,1,3.1-1.74,3.29,3.29,0,0,1,2.58,1,3.94,3.94,0,0,1,.94,2.77v6.3h-2.27v-5.62a2.63,2.63,0,0,0-.55-1.79,2,2,0,0,0-1.57-.63,2.1,2.1,0,0,0-1.61.66,2.54,2.54,0,0,0-.62,1.8v5.58Z"/><path class="c" d="M1073.81,439.31c-1.9,0-2.85-1-2.85-2.9V431.2h-1.25v-1.95H1071v-2.72h2.27v2.72h2.66v1.95h-2.66v4.85a1.09,1.09,0,0,0,1.22,1.24,3.18,3.18,0,0,0,1.41-.34v1.86A4.2,4.2,0,0,1,1073.81,439.31Z"/><path class="c" d="M1086.48,439.14h-2.25v-1.22a4,4,0,0,1-3.2,1.43,3.84,3.84,0,0,1-2.5-.82,2.71,2.71,0,0,1-1-2.24v0a2.81,2.81,0,0,1,1.1-2.42,4.76,4.76,0,0,1,2.91-.83,8.76,8.76,0,0,1,2.73.42v-.19a2,2,0,0,0-.63-1.58,2.67,2.67,0,0,0-1.8-.54,7.36,7.36,0,0,0-2.83.62l-.62-1.82a9.08,9.08,0,0,1,3.76-.82,4.47,4.47,0,0,1,3.26,1.08,4.19,4.19,0,0,1,1.09,3.1Zm-2.19-3.58V435a6.25,6.25,0,0,0-2.27-.39,2.89,2.89,0,0,0-1.67.41,1.29,1.29,0,0,0-.6,1.12v0a1.26,1.26,0,0,0,.55,1.07,2.29,2.29,0,0,0,1.37.39,2.93,2.93,0,0,0,1.88-.58A1.84,1.84,0,0,0,1084.29,435.56Z"/><path class="c" d="M1092.41,439.31c-1.9,0-2.85-1-2.85-2.9V431.2h-1.26v-1.95h1.26v-2.72h2.27v2.72h2.66v1.95h-2.66v4.85a1.08,1.08,0,0,0,1.21,1.24,3.18,3.18,0,0,0,1.41-.34v1.86A4.16,4.16,0,0,1,1092.41,439.31Z"/><path class="c" d="M1096.81,427.73v-2.16h2.44v2.16Zm.09,11.41v-9.89h2.27v9.89Z"/><path class="c" d="M1106.84,439.37a5.12,5.12,0,0,1-3.75-1.49,4.94,4.94,0,0,1-1.5-3.63v0a5,5,0,0,1,1.52-3.66,5.45,5.45,0,0,1,7.52,0,4.92,4.92,0,0,1,1.51,3.64v0a4.93,4.93,0,0,1-1.52,3.65A5.16,5.16,0,0,1,1106.84,439.37Zm0-2a2.78,2.78,0,0,0,2.17-.92,3.2,3.2,0,0,0,.82-2.23v0A3.15,3.15,0,0,0,1109,432a2.83,2.83,0,0,0-2.17-.93,2.77,2.77,0,0,0-2.16.91,3.19,3.19,0,0,0-.82,2.24v0a3.21,3.21,0,0,0,.86,2.25A2.8,2.8,0,0,0,1106.88,437.4Z"/><path class="c" d="M1114.45,439.14v-9.89h2.27v1.53a3.57,3.57,0,0,1,3.09-1.74,3.29,3.29,0,0,1,2.58,1,3.94,3.94,0,0,1,.94,2.77v6.3h-2.27v-5.62a2.63,2.63,0,0,0-.55-1.79,2,2,0,0,0-1.56-.63,2.13,2.13,0,0,0-1.62.66,2.53,2.53,0,0,0-.61,1.8v5.58Z"/><path class="c" d="M788.41,462.87a4.51,4.51,0,0,1-3.33-1.28,4.41,4.41,0,0,1-1.27-3.27,5.84,5.84,0,0,1,1.77-4.2,5.61,5.61,0,0,1,4.18-1.82,4.49,4.49,0,0,1,3.34,1.27,4.4,4.4,0,0,1,1.28,3.25,5.83,5.83,0,0,1-1.79,4.23A5.71,5.71,0,0,1,788.41,462.87Zm.09-1.36a4,4,0,0,0,3-1.41,4.64,4.64,0,0,0,1.31-3.22,3.2,3.2,0,0,0-.87-2.39,3.11,3.11,0,0,0-2.3-.86,4,4,0,0,0-3,1.44,4.66,4.66,0,0,0-1.31,3.22,3.16,3.16,0,0,0,.87,2.36A3.12,3.12,0,0,0,788.5,461.51Z"/><path class="c" d="M796.16,462.63l2.37-8.79h-1.39l.35-1.33h1.39l.33-1.21q.78-3,3.47-3a4.39,4.39,0,0,1,2,.43l-.35,1.3a3.88,3.88,0,0,0-1.66-.42q-1.53,0-2,1.92l-.25,1h3.3l-.37,1.33H800l-2.37,8.79Z"/><path class="c" d="M815.4,462.88a6.58,6.58,0,0,1-4.68-1.56,6.16,6.16,0,0,1-1.66-4.7v-7.69h3.85v7.61a3.14,3.14,0,0,0,.68,2.19,2.37,2.37,0,0,0,1.85.73,2.48,2.48,0,0,0,1.85-.7,3,3,0,0,0,.67-2.12v-7.71h3.86v7.59a6.24,6.24,0,0,1-1.7,4.79A6.66,6.66,0,0,1,815.4,462.88Z"/><path class="c" d="M824.07,462.63v-13.7h3.54l5.64,7.24v-7.24H837v13.7h-3.33l-5.85-7.52v7.52Z"/><path class="c" d="M839.43,462.63v-13.7h11v3.23h-7.26v2.07h6.58v3h-6.58v2.17h7.36v3.23Z"/><path class="c" d="M857.87,462.87a9.26,9.26,0,0,1-6.42-2.28l2.11-2.52a7,7,0,0,0,4.45,1.64c1,0,1.56-.31,1.56-.94v0a.82.82,0,0,0-.47-.72,7,7,0,0,0-1.84-.6,19.52,19.52,0,0,1-2.06-.57,8.3,8.3,0,0,1-1.59-.77,3,3,0,0,1-1.14-1.21,3.8,3.8,0,0,1-.37-1.75v0a3.94,3.94,0,0,1,1.43-3.16,5.76,5.76,0,0,1,3.87-1.23,8.77,8.77,0,0,1,5.64,1.82l-1.9,2.69a6.64,6.64,0,0,0-3.84-1.35,1.83,1.83,0,0,0-1,.24.76.76,0,0,0-.35.64v0a.83.83,0,0,0,.48.74,8,8,0,0,0,1.89.59,10.31,10.31,0,0,1,3.84,1.5,3.24,3.24,0,0,1,1.27,2.76v0a3.92,3.92,0,0,1-1.51,3.27A6.28,6.28,0,0,1,857.87,462.87Z"/><path class="c" d="M871.84,462.9a7,7,0,0,1-7.06-7.08v0a6.89,6.89,0,0,1,2.06-5.07,7,7,0,0,1,5.16-2,6.73,6.73,0,0,1,5.81,2.85L875,453.72a3.79,3.79,0,0,0-3-1.6,3,3,0,0,0-2.34,1.05,3.71,3.71,0,0,0-.93,2.57v0a3.83,3.83,0,0,0,.92,2.61,3,3,0,0,0,2.35,1.05,3.25,3.25,0,0,0,1.7-.42,5.59,5.59,0,0,0,1.39-1.24l2.86,2a8,8,0,0,1-2.5,2.28A7.17,7.17,0,0,1,871.84,462.9Z"/><path class="c" d="M891.31,460.83a7.76,7.76,0,0,1-10.53,0,6.77,6.77,0,0,1-2.1-5v0a6.78,6.78,0,0,1,2.12-5,7.76,7.76,0,0,1,10.53,0,6.77,6.77,0,0,1,2.1,5v0A6.78,6.78,0,0,1,891.31,460.83Zm-7.75-2.44a3.46,3.46,0,0,0,5,0,3.7,3.7,0,0,0,1-2.59v0a3.73,3.73,0,0,0-1-2.61,3.28,3.28,0,0,0-2.53-1.09,3.23,3.23,0,0,0-2.49,1.07,3.69,3.69,0,0,0-1,2.59v0A3.73,3.73,0,0,0,883.56,458.39Z"/><path class="c" d="M913,460.83a7.76,7.76,0,0,1-10.53,0,6.77,6.77,0,0,1-2.1-5v0a6.81,6.81,0,0,1,2.12-5,7.28,7.28,0,0,1,5.28-2.07,7.2,7.2,0,0,1,5.25,2,6.74,6.74,0,0,1,2.11,5v0A6.78,6.78,0,0,1,913,460.83Zm-7.75-2.44a3.46,3.46,0,0,0,5,0,3.65,3.65,0,0,0,1-2.59v0a3.69,3.69,0,0,0-1-2.61,3.46,3.46,0,0,0-5,0,3.72,3.72,0,0,0-1,2.59v0A3.72,3.72,0,0,0,905.24,458.39Z"/><path class="c" d="M917.1,462.63v-13.7h11v3.23h-7.26v2.07h6.58v3h-6.58v2.17h7.36v3.23Z"/><path class="c" d="M930.15,462.63v-13.7h6.48a6,6,0,0,1,4.46,1.49,4.21,4.21,0,0,1,1.21,3.19v0a4.23,4.23,0,0,1-2.81,4.2l3.26,4.78h-4.38l-2.76-4.15H934v4.15Zm3.8-7.12h2.5a2.39,2.39,0,0,0,1.5-.43,1.46,1.46,0,0,0,.54-1.2v0a1.42,1.42,0,0,0-.54-1.21,2.43,2.43,0,0,0-1.52-.41H934Z"/><path class="c" d="M949.64,462.63v-13.7h6.48a5.93,5.93,0,0,1,4.46,1.49,4.22,4.22,0,0,1,1.22,3.19v0a4.23,4.23,0,0,1-2.82,4.2l3.27,4.78h-4.39l-2.76-4.15h-1.66v4.15Zm3.8-7.12H956a2.36,2.36,0,0,0,1.49-.43,1.46,1.46,0,0,0,.54-1.2v0a1.42,1.42,0,0,0-.54-1.21,2.4,2.4,0,0,0-1.51-.41h-2.49Z"/><path class="c" d="M968.55,462.88a5.64,5.64,0,0,1-4.09-1.52,5.26,5.26,0,0,1-1.59-4v0a5.56,5.56,0,0,1,1.51-4,5.08,5.08,0,0,1,3.84-1.59,4.86,4.86,0,0,1,4,1.64,6.29,6.29,0,0,1,1.37,4.15c0,.34,0,.59,0,.76h-7.08a2.14,2.14,0,0,0,2.29,1.75A3.34,3.34,0,0,0,971.1,459l2,1.7A5.54,5.54,0,0,1,968.55,462.88Zm-2.15-6.41h3.68a2.34,2.34,0,0,0-.59-1.4,1.63,1.63,0,0,0-1.25-.52,1.56,1.56,0,0,0-1.21.52A2.64,2.64,0,0,0,966.4,456.47Z"/><path class="c" d="M980.26,462.88a5.45,5.45,0,0,1-5.54-5.5v0a5.34,5.34,0,0,1,1.6-3.91,5.49,5.49,0,0,1,4.07-1.61,5,5,0,0,1,4.52,2.36l-2.52,1.88a2.39,2.39,0,0,0-2-1.11,1.9,1.9,0,0,0-1.48.68,2.49,2.49,0,0,0-.59,1.67v0a2.56,2.56,0,0,0,.58,1.72,2,2,0,0,0,1.53.68,2.69,2.69,0,0,0,2-1.09l2.48,1.8A5.34,5.34,0,0,1,980.26,462.88Z"/><path class="c" d="M991.39,462.88a5.77,5.77,0,0,1-4.17-1.6,5.21,5.21,0,0,1-1.66-3.9v0a5.28,5.28,0,0,1,1.67-3.92,6.24,6.24,0,0,1,8.37,0,5.21,5.21,0,0,1,1.66,3.9v0a5.24,5.24,0,0,1-1.67,3.91A5.81,5.81,0,0,1,991.39,462.88Zm0-3.15a2.06,2.06,0,0,0,1.6-.68,2.41,2.41,0,0,0,.61-1.67v0a2.41,2.41,0,0,0-.64-1.69,2.09,2.09,0,0,0-1.61-.7,2.06,2.06,0,0,0-1.59.68,2.41,2.41,0,0,0-.62,1.67v0a2.41,2.41,0,0,0,.65,1.68A2.07,2.07,0,0,0,991.43,459.73Z"/><path class="c" d="M998.83,462.63V452h3.72v1.45a3.88,3.88,0,0,1,3.15-1.68,3.16,3.16,0,0,1,3,1.72,4.58,4.58,0,0,1,3.54-1.72,3.52,3.52,0,0,1,2.67,1,4,4,0,0,1,1,2.86v6.95h-3.72v-5.75a2,2,0,0,0-.39-1.31,1.36,1.36,0,0,0-1.06-.46,1.45,1.45,0,0,0-1.11.46,1.87,1.87,0,0,0-.42,1.31v5.75h-3.72v-5.75a2,2,0,0,0-.39-1.31,1.33,1.33,0,0,0-1.06-.46,1.41,1.41,0,0,0-1.09.46,1.87,1.87,0,0,0-.41,1.31v5.75Z"/><path class="c" d="M1017.83,462.63V452h3.72v1.45a3.91,3.91,0,0,1,3.15-1.68,3.17,3.17,0,0,1,3.06,1.72,4.55,4.55,0,0,1,3.54-1.72,3.5,3.5,0,0,1,2.66,1,4,4,0,0,1,1,2.86v6.95h-3.72v-5.75a2,2,0,0,0-.39-1.31,1.33,1.33,0,0,0-1.06-.46,1.45,1.45,0,0,0-1.1.46,1.87,1.87,0,0,0-.42,1.31v5.75h-3.72v-5.75a2,2,0,0,0-.39-1.31,1.36,1.36,0,0,0-1.06-.46,1.43,1.43,0,0,0-1.1.46,1.92,1.92,0,0,0-.41,1.31v5.75Z"/><path class="c" d="M1042.08,462.88a5.64,5.64,0,0,1-4.09-1.52,5.29,5.29,0,0,1-1.58-4v0a5.56,5.56,0,0,1,1.5-4,5.08,5.08,0,0,1,3.84-1.59,4.85,4.85,0,0,1,4,1.64,6.24,6.24,0,0,1,1.37,4.15c0,.34,0,.59,0,.76H1040a2.14,2.14,0,0,0,2.29,1.75,3.32,3.32,0,0,0,2.35-1.08l2,1.7A5.52,5.52,0,0,1,1042.08,462.88Zm-2.15-6.41h3.68a2.28,2.28,0,0,0-.59-1.4,1.62,1.62,0,0,0-1.25-.52,1.55,1.55,0,0,0-1.2.52A2.72,2.72,0,0,0,1039.93,456.47Z"/><path class="c" d="M1048.68,462.63V452h3.72v1.49a3.91,3.91,0,0,1,3.17-1.72,3.43,3.43,0,0,1,2.64,1,4.06,4.06,0,0,1,1,2.85v6.93h-3.72V456.9a2,2,0,0,0-.4-1.32,1.36,1.36,0,0,0-1.08-.47,1.49,1.49,0,0,0-1.14.47,1.87,1.87,0,0,0-.43,1.32v5.73Z"/><path class="c" d="M1065.37,462.87a4.3,4.3,0,0,1-3.31-1.51,5.71,5.71,0,0,1-1.36-4v0a5.84,5.84,0,0,1,1.35-4,4.25,4.25,0,0,1,3.3-1.51,4.16,4.16,0,0,1,3.25,1.52v-5h3.72v14.29h-3.72v-1.41A4,4,0,0,1,1065.37,462.87Zm-.4-3.8a2.06,2.06,0,0,0,1.54.68,2,2,0,0,0,1.53-.68,2.49,2.49,0,0,0,.62-1.72v0a2.45,2.45,0,0,0-.62-1.72,2,2,0,0,0-1.53-.67,2,2,0,0,0-1.55.67,2.45,2.45,0,0,0-.62,1.72v0A2.45,2.45,0,0,0,1065,459.07Z"/><path class="c" d="M1077.35,462.87a3.77,3.77,0,0,1-2.56-.87,3,3,0,0,1-1-2.4v0a2.93,2.93,0,0,1,1.12-2.47,4.85,4.85,0,0,1,3-.86,7.56,7.56,0,0,1,2.54.41v-.17c0-1.15-.7-1.73-2.11-1.73a7.92,7.92,0,0,0-2.91.59l-.77-2.62a11.12,11.12,0,0,1,4.29-.83,5.5,5.5,0,0,1,4,1.3,4.49,4.49,0,0,1,1.13,3.36v6.09h-3.67v-1.1A4,4,0,0,1,1077.35,462.87Zm1.34-2.33a1.87,1.87,0,0,0,1.33-.48,1.69,1.69,0,0,0,.5-1.27v-.49a3.7,3.7,0,0,0-1.44-.27,2,2,0,0,0-1.26.36,1.16,1.16,0,0,0-.45.95v0a1,1,0,0,0,.37.84A1.38,1.38,0,0,0,1078.69,460.54Z"/><path class="c" d="M1090.15,462.84c-2.37,0-3.56-1.16-3.56-3.5V455h-1.25v-3h1.25v-2.68h3.72V452h2.47v3h-2.47v3.58a.92.92,0,0,0,1,1.05,3.25,3.25,0,0,0,1.41-.35v2.92A5.25,5.25,0,0,1,1090.15,462.84Z"/><path class="c" d="M1094.38,451.08v-2.74h3.88v2.74Zm.08,11.55V452h3.72v10.59Z"/><path class="c" d="M1105.66,462.88a5.75,5.75,0,0,1-4.17-1.6,5.22,5.22,0,0,1-1.67-3.9v0a5.25,5.25,0,0,1,1.68-3.92,6.23,6.23,0,0,1,8.36,0,5.22,5.22,0,0,1,1.67,3.9v0a5.24,5.24,0,0,1-1.68,3.91A5.77,5.77,0,0,1,1105.66,462.88Zm0-3.15a2,2,0,0,0,1.6-.68,2.41,2.41,0,0,0,.62-1.67v0a2.42,2.42,0,0,0-.65-1.69,2.09,2.09,0,0,0-1.6-.7,2.06,2.06,0,0,0-1.6.68,2.41,2.41,0,0,0-.62,1.67v0a2.41,2.41,0,0,0,.65,1.68A2.09,2.09,0,0,0,1105.69,459.73Z"/><path class="c" d="M1113.09,462.63V452h3.72v1.49a3.92,3.92,0,0,1,3.17-1.72,3.43,3.43,0,0,1,2.64,1,4.06,4.06,0,0,1,1,2.85v6.93h-3.72V456.9a2,2,0,0,0-.4-1.32,1.35,1.35,0,0,0-1.08-.47,1.49,1.49,0,0,0-1.14.47,1.87,1.87,0,0,0-.43,1.32v5.73Z"/><path class="i" d="M919.61,223a9.78,9.78,0,0,1-16.83-6.8v-.05a9.81,9.81,0,1,1,19.61-.06v.06A9.43,9.43,0,0,1,919.61,223Zm-11.56-2.12a6.34,6.34,0,0,0,9.11,0,6.68,6.68,0,0,0,1.78-4.7v-.05a6.7,6.7,0,0,0-1.81-4.73,6.35,6.35,0,0,0-9.11,0,6.65,6.65,0,0,0-1.78,4.7v.06A6.69,6.69,0,0,0,908.05,220.86Z"/><path class="i" d="M927.07,225.5V206.75H941v2.95H930.37v4.87h9.4v3h-9.4v5h10.74v2.94Z"/><path class="i" d="M956.65,225.88a10.25,10.25,0,0,1-7.3-2.73,9.16,9.16,0,0,1-2.91-7v-.05a9.31,9.31,0,0,1,2.88-6.94,9.91,9.91,0,0,1,7.22-2.82,11.24,11.24,0,0,1,7.61,2.74l-3,3.67a6.94,6.94,0,0,0-4.53-1.77,4.46,4.46,0,0,0-3.42,1.5,5.21,5.21,0,0,0-1.37,3.64v.06a5.07,5.07,0,0,0,1.43,3.73,4.87,4.87,0,0,0,3.66,1.46,5.35,5.35,0,0,0,3-.77v-2.28h-3.7v-3.8h8.63V223A12.44,12.44,0,0,1,956.65,225.88Z"/><path class="i" d="M968.49,225.5V206.75h5.2V221h9.08v4.55Z"/><path class="i" d="M1002.45,223a10.6,10.6,0,0,1-14.41,0,9.26,9.26,0,0,1-2.88-6.89v-.05a9.34,9.34,0,0,1,2.9-6.92,10.6,10.6,0,0,1,14.42,0,9.24,9.24,0,0,1,2.88,6.88v.06A9.29,9.29,0,0,1,1002.45,223Zm-10.61-3.34a4.74,4.74,0,0,0,6.87,0,5,5,0,0,0,1.34-3.55v-.05a5.09,5.09,0,0,0-1.36-3.58,4.51,4.51,0,0,0-3.46-1.49,4.4,4.4,0,0,0-3.41,1.46,5.08,5.08,0,0,0-1.33,3.55v.06A5.12,5.12,0,0,0,991.84,219.7Z"/><path class="i" d="M1008.87,225.5V206.75h9.62a6.92,6.92,0,0,1,5.11,1.69,4.07,4.07,0,0,1,1.21,3v.06a4.29,4.29,0,0,1-2.89,4.18,6.12,6.12,0,0,1,2.77,1.67,4.28,4.28,0,0,1,1,2.91v.05a4.45,4.45,0,0,1-1.88,3.79,8.66,8.66,0,0,1-5.22,1.38Zm5.06-11.28h3.27c1.64,0,2.47-.54,2.47-1.63v-.05c0-1.08-.79-1.61-2.36-1.61h-3.38Zm0,7.1h4a3.23,3.23,0,0,0,1.84-.44,1.45,1.45,0,0,0,.65-1.27v-.05c0-1.13-.85-1.69-2.54-1.69h-4Z"/><path class="i" d="M1027.33,225.5l8-18.89h5l8,18.89h-5.58l-1.36-3.35h-7.24l-1.34,3.35Zm8.33-7.39h4.21l-2.09-5.33Z"/><path class="i" d="M1050.93,225.5V206.75h5.2V221h9.08v4.55Z"/><path class="i" d="M912,251.38a7.49,7.49,0,0,1-5.57-2.28,7.7,7.7,0,0,1-2.23-5.61v0a7.77,7.77,0,0,1,2.23-5.64,7.57,7.57,0,0,1,5.68-2.3,8.39,8.39,0,0,1,3.39.61,9.15,9.15,0,0,1,2.62,1.78l-1.73,2A6.3,6.3,0,0,0,912,238a4.75,4.75,0,0,0-3.62,1.57A5.49,5.49,0,0,0,907,243.4v0a5.56,5.56,0,0,0,1.44,3.87,4.7,4.7,0,0,0,3.62,1.59,5.25,5.25,0,0,0,2.33-.5,8.9,8.9,0,0,0,2.08-1.5l1.73,1.76a9.14,9.14,0,0,1-2.74,2A8,8,0,0,1,912,251.38Z"/><path class="i" d="M934,249.06a8,8,0,0,1-13.77-5.57v0a8,8,0,1,1,16.06,0v0A7.69,7.69,0,0,1,934,249.06Zm-9.46-1.74a5.19,5.19,0,0,0,7.46,0,5.46,5.46,0,0,0,1.46-3.85v0a5.47,5.47,0,0,0-1.48-3.87,5.18,5.18,0,0,0-7.46,0,5.46,5.46,0,0,0-1.46,3.85v0A5.46,5.46,0,0,0,924.58,247.32Z"/><path class="i" d="M940.13,251.12V235.77h2.5l8.22,10.61V235.77h2.66v15.35h-2.26l-8.47-10.92v10.92Z"/><path class="i" d="M958.1,251.12V235.77h11.43v2.46H960.8v4.19h7.74v2.45H960.8v6.25Z"/><path class="i" d="M972.81,251.12V235.77h11.38v2.41h-8.68v4h7.7v2.42h-7.7v4.12h8.79v2.41Z"/><path class="i" d="M988.12,251.12V235.77H995a6.12,6.12,0,0,1,4.43,1.53,4.63,4.63,0,0,1,1.27,3.32v0a4.47,4.47,0,0,1-1,3,5.25,5.25,0,0,1-2.67,1.66l4.14,5.81H998l-3.77-5.35h-3.38v5.35Zm2.7-7.74h3.95a3.51,3.51,0,0,0,2.3-.7,2.3,2.3,0,0,0,.86-1.87v0a2.26,2.26,0,0,0-.84-1.89,3.68,3.68,0,0,0-2.34-.65h-3.93Z"/><path class="i" d="M1004.54,251.12V235.77h11.38v2.41h-8.68v4h7.7v2.42h-7.7v4.12H1016v2.41Z"/><path class="i" d="M1019.85,251.12V235.77h2.5l8.23,10.61V235.77h2.65v15.35H1031l-8.46-10.92v10.92Z"/><path class="i" d="M1044.85,251.38a7.49,7.49,0,0,1-5.57-2.28,7.7,7.7,0,0,1-2.23-5.61v0a7.77,7.77,0,0,1,2.23-5.64,7.57,7.57,0,0,1,5.68-2.3,8.39,8.39,0,0,1,3.39.61,9.15,9.15,0,0,1,2.62,1.78l-1.73,2a6.3,6.3,0,0,0-4.3-1.91,4.75,4.75,0,0,0-3.62,1.57,5.49,5.49,0,0,0-1.44,3.85v0a5.56,5.56,0,0,0,1.44,3.87,4.7,4.7,0,0,0,3.62,1.59,5.25,5.25,0,0,0,2.33-.5,8.9,8.9,0,0,0,2.08-1.5l1.73,1.76a9.14,9.14,0,0,1-2.74,2A8,8,0,0,1,1044.85,251.38Z"/><path class="i" d="M1054.31,251.12V235.77h11.38v2.41H1057v4h7.7v2.42H1057v4.12h8.79v2.41Z"/><rect class="j" x="824.29" y="194.88" width="67.92" height="68.08" rx="1.12"/><path class="k" d="M824.29,253.41h67.92a0,0,0,0,1,0,0v8.5a1,1,0,0,1-1,1H825.33a1,1,0,0,1-1-1v-8.5A0,0,0,0,1,824.29,253.41Z"/><path class="l" d="M859.15,259.91c-5.13,0-9.83-3.4-13.23-9.57-3.11-5.66-4.83-13.12-4.83-21s1.72-15.37,4.83-21c3.4-6.17,8.1-9.57,13.23-9.57a2.71,2.71,0,1,1,0,5.42c-3.07,0-6.08,2.41-8.48,6.77-2.68,4.87-4.15,11.41-4.15,18.41s1.47,13.54,4.15,18.41c2.4,4.36,5.41,6.76,8.48,6.76s6.07-2.4,8.47-6.76c2.68-4.87,4.16-11.41,4.16-18.41a2.71,2.71,0,0,1,5.42,0c0,7.9-1.71,15.36-4.83,21C869,256.51,864.28,259.91,859.15,259.91Z"/><path class="l" d="M824.29,241.8a148.32,148.32,0,0,1,25.85-3.89c3-.18,6.07-.28,9.09-.28a149.81,149.81,0,0,1,23.08,1.79l2.68.42-.84,5.36-2.68-.42a145.16,145.16,0,0,0-22.24-1.72c-2.91,0-5.86.09-8.76.26a143.77,143.77,0,0,0-26.18,4.06"/><path class="l" d="M824.29,228.67a148.2,148.2,0,0,1,25.92-3.83c2.85-.17,5.75-.25,8.62-.25,4.08,0,8.24.17,12.34.5l.51,0,1.19.1H873c2.58.24,5.25.56,7.93,1l1.64.23v0l1.86.3h0c1,.16,1.94.34,2.87.52l2.18.32a.44.44,0,0,1,.35.47l-.38,5.13-3.17-.59c-.91-.18-1.87-.35-2.92-.53l-1.81-.29-2.84-.41c-.94-.13-1.76-.24-2.53-.33l-1.82-.2a143.39,143.39,0,0,0-50.05,3.41"/><path class="l" d="M824.29,222a143.65,143.65,0,0,1,26.18-4c2.76-.16,5.57-.24,8.35-.24,1.28,0,4.47.06,6.17.1a.55.55,0,0,0,.56-.49l.53-4.65a.2.2,0,0,0-.19-.22c-2.35-.11-4.73-.17-7.07-.17-2.88,0-5.8.09-8.67.25a149.56,149.56,0,0,0-25.86,3.82"/><path class="l" d="M861.68,260a30.74,30.74,0,1,1,23.07-47.55.32.32,0,0,1-.09.45l-4.17,2.69a.33.33,0,0,1-.45-.1,25.16,25.16,0,0,0-42.41.77,23.31,23.31,0,0,0-3,7.2A25.19,25.19,0,0,0,865,253.78a23.21,23.21,0,0,0,7.2-3,25.17,25.17,0,0,0,12-21.47v-1.67l4.12-.22,1.37.2a.14.14,0,0,1,.12.14v1.55A30.71,30.71,0,0,1,861.68,260Z"/><path class="c" d="M850.27,317V279.25H860l15.51,19.93V279.25h10.35V317h-9.16l-16.11-20.69V317Z"/><path class="c" d="M901.12,317.6a10.43,10.43,0,0,1-7.06-2.37,8.28,8.28,0,0,1-2.74-6.62v-.11a8.05,8.05,0,0,1,3.07-6.79c2-1.58,4.83-2.37,8.34-2.37a20.91,20.91,0,0,1,7,1.13V300q0-4.74-5.82-4.74a21.93,21.93,0,0,0-8,1.61l-2.1-7.21a30.7,30.7,0,0,1,11.8-2.27c5,0,8.72,1.19,11.1,3.56q3.12,3.07,3.12,9.26V317H909.68v-3A11,11,0,0,1,901.12,317.6Zm3.66-6.41a5.11,5.11,0,0,0,3.66-1.32,4.51,4.51,0,0,0,1.4-3.47v-1.35a10.12,10.12,0,0,0-4-.75,5.41,5.41,0,0,0-3.45,1,3.23,3.23,0,0,0-1.24,2.62v.1a2.89,2.89,0,0,0,1,2.32A3.85,3.85,0,0,0,904.78,311.19Z"/><path class="c" d="M925.84,317V287.82h10.24v4.09q3.66-4.74,8.72-4.74a9.37,9.37,0,0,1,7.27,2.88,11.15,11.15,0,0,1,2.64,7.84V317H944.48V301.17a5.39,5.39,0,0,0-1.11-3.61,3.72,3.72,0,0,0-3-1.29,4,4,0,0,0-3.12,1.29,5.17,5.17,0,0,0-1.18,3.61V317Z"/><path class="c" d="M972.38,317.55q-9.81,0-9.8-9.64V296.06h-3.45v-8.24h3.45v-7.38h10.23v7.38h6.79v8.24h-6.79v9.85c0,1.94.93,2.91,2.8,2.91a9.06,9.06,0,0,0,3.88-1v8A14.32,14.32,0,0,1,972.38,317.55Z"/><path class="c" d="M998.45,317.66a15.53,15.53,0,0,1-11.26-4.21,14.48,14.48,0,0,1-4.36-10.93v-.11A15.18,15.18,0,0,1,987,291.56a13.86,13.86,0,0,1,10.55-4.39q7.17,0,10.94,4.52a17.27,17.27,0,0,1,3.77,11.42q0,1.41-.06,2.1H992.69q1.23,4.8,6.3,4.8a9.12,9.12,0,0,0,6.46-3l5.66,4.69A15.31,15.31,0,0,1,998.45,317.66ZM992.52,300h10.13a6.45,6.45,0,0,0-1.62-3.85,4.51,4.51,0,0,0-3.44-1.43,4.34,4.34,0,0,0-3.32,1.43A7.44,7.44,0,0,0,992.52,300Z"/><path class="c" d="M1029,317.6a22.93,22.93,0,0,1-13.79-4.31l3.82-6.19a18.13,18.13,0,0,0,10,3.34c1.73,0,2.59-.52,2.59-1.56v-.11c0-.5-.34-.92-1-1.24a27.06,27.06,0,0,0-3.66-1.24,37.52,37.52,0,0,1-4.12-1.29,16.32,16.32,0,0,1-3.18-1.7,6.67,6.67,0,0,1-2.29-2.64,8.56,8.56,0,0,1-.75-3.69v-.11a8.52,8.52,0,0,1,3.26-7.08,13.27,13.27,0,0,1,8.43-2.56,21.66,21.66,0,0,1,12,3.4l-3.5,6.46a18.18,18.18,0,0,0-8.62-2.69c-1.58,0-2.37.46-2.37,1.4v.1c0,.51.34.93,1,1.27a27.19,27.19,0,0,0,3.72,1.32,24,24,0,0,1,7.73,3.42,6.85,6.85,0,0,1,2.61,5.84v.11a8.64,8.64,0,0,1-3.23,7.22C1035.51,316.76,1032.61,317.6,1029,317.6Z"/><path class="c" d="M848.48,381.84V369.63L870.4,352.9a32.11,32.11,0,0,0,5.81-5.6,8.25,8.25,0,0,0,1.72-4.93,5.51,5.51,0,0,0-1.8-4.35,6.89,6.89,0,0,0-4.73-1.59,10,10,0,0,0-5.48,1.71,31.46,31.46,0,0,0-6.14,5.82l-11-9.12a35.4,35.4,0,0,1,10.37-9.54q5.35-3,13.47-3,9.62,0,15.6,5.19a17,17,0,0,1,6,13.46v.17a18.07,18.07,0,0,1-3.17,11q-3.18,4.35-10.37,9.53l-10,7h24.17v13.21Z"/><path class="c" d="M947,374.19q-7.49,8.82-19.7,8.82t-19.61-8.74q-7.41-8.73-7.4-21.53v-.17q0-12.79,7.52-21.62t19.66-8.82q12.12,0,19.57,8.74t7.45,21.53v.17Q954.46,365.37,947,374.19Zm-27.39-10a9.11,9.11,0,0,0,7.86,4.48,9,9,0,0,0,7.78-4.43q2.92-4.44,2.93-11.46v-.17q0-7-3.06-11.54t-7.82-4.52a9,9,0,0,0-7.73,4.43q-3,4.44-3,11.46v.17Q916.57,359.68,919.58,364.15Z"/><path class="c" d="M958.72,381.84V369.63l21.92-16.73a32.46,32.46,0,0,0,5.81-5.6,8.24,8.24,0,0,0,1.71-4.93,5.51,5.51,0,0,0-1.8-4.35,6.86,6.86,0,0,0-4.72-1.59,9.93,9.93,0,0,0-5.48,1.71A31.18,31.18,0,0,0,970,344l-11-9.12a35.4,35.4,0,0,1,10.37-9.54q5.36-3,13.46-3,9.63,0,15.6,5.19a17,17,0,0,1,6,13.46v.17a18.08,18.08,0,0,1-3.18,11q-3.18,4.35-10.37,9.53l-10,7h24.17v13.21Z"/><path class="c" d="M1020.7,381.84V338l-9.87,2.25-3.1-12.54,17.15-4.85h11.79v59Z"/><circle class="m" cx="954.08" cy="307.91" r="241.73"/></g></svg>