<svg xmlns="http://www.w3.org/2000/svg" xmlns:xlink="http://www.w3.org/1999/xlink" viewBox="0 0 419.33 456.19"><defs><style>.a{isolation:isolate;}.b{fill:#1a1a1a;}.c,.g{fill:#ff5547;}.d,.j{fill:#fff;}.e{fill:url(#a);}.f,.n{fill:none;}.f{stroke:#000;stroke-linecap:round;stroke-linejoin:round;stroke-width:1.7px;}.g,.h,.i,.n{stroke:#1a1a1a;}.g,.h,.i,.j,.n{stroke-miterlimit:10;}.g{stroke-width:0.36px;mix-blend-mode:hard-light;}.h,.i{stroke-width:0.31px;}.h{mix-blend-mode:color-burn;fill:url(#b);}.i{fill:url(#c);}.j{stroke:#fff;stroke-width:0.8px;opacity:0.26;}.k{fill:#dbe7fb;}.l{fill:#e5e5e5;}.m{fill:#0d6ae5;}.n{stroke-width:1.12px;stroke-dasharray:6.74 8.98 12.35 10.11 5.62 2.81;}</style><linearGradient id="a" x1="104.17" y1="176.68" x2="112.44" y2="176.68" gradientUnits="userSpaceOnUse"><stop offset="0" stop-color="#00376a"/><stop offset="1" stop-color="#2853ac"/></linearGradient><linearGradient id="b" x1="90.84" y1="327.82" x2="328.65" y2="327.82" xlink:href="#a"/><linearGradient id="c" x1="295.44" y1="407.88" x2="157.17" y2="253.71" xlink:href="#a"/></defs><g class="a"><path class="b" d="M379.22,137a2.31,2.31,0,1,1-2.9,1.5A2.31,2.31,0,0,1,379.22,137Z"/><path class="c" d="M353.33,174.5l0,.47c-.28,0-.56,0-.85,0a11.93,11.93,0,0,0-7.2,2.39l-1.46-.33c1.28-.64,1.69-2.39,2.74-3.43a4.34,4.34,0,0,1,4.78-.59A6.68,6.68,0,0,1,353.33,174.5Z"/><path class="b" d="M340.09,268.43a2.31,2.31,0,1,1-2.31,2.3A2.3,2.3,0,0,1,340.09,268.43Z"/><path class="b" d="M316,123.94a2.31,2.31,0,1,1-2.31,2.31A2.31,2.31,0,0,1,316,123.94Z"/><path class="b" d="M261.35,47.65A2.31,2.31,0,1,1,259,50,2.3,2.3,0,0,1,261.35,47.65Z"/><path class="b" d="M204.33,30.62a2.31,2.31,0,1,1-3-1.2A2.32,2.32,0,0,1,204.33,30.62Z"/><path class="b" d="M186.17,74.39a7.32,7.32,0,0,0,1.55,1.39A2.3,2.3,0,0,1,186.17,74.39Z"/><path class="b" d="M180.14,263.51A2.58,2.58,0,1,1,176.8,262,2.58,2.58,0,0,1,180.14,263.51Z"/><path class="d" d="M157.45,298.35l1.39,7L152,300l-3.35-5.76a3,3,0,0,0,1-1.86c2.14-2.58-.26-3.74-3.57-4.46l-8.1-14.45-1.8-3.21-3.08-5.5-3.69-6.58a2.32,2.32,0,0,1,.82-2.41c1.72-1.34,3.44.38,4.59,2.29.16.27.72,1.27,1.58,2.78.41.71.87,1.53,1.39,2.45.14.25.29.51.43.79a3.7,3.7,0,0,1,.25.43c1,1.76,2.14,3.79,3.36,6h0l7.51,13.38Z"/><path class="d" d="M157.32,297.67l.13.68-8.16-14.53-7.51-13.38h0c-1.22-2.17-2.36-4.2-3.36-6a3.7,3.7,0,0,0-.25-.43c-.14-.28-.29-.54-.43-.79-.52-.92-1-1.74-1.39-2.45-.86-1.51-1.42-2.51-1.58-2.78-1.15-1.91-2.87-3.63-4.59-2.29a2.32,2.32,0,0,0-.82,2.41l-.13-.23s-1.34-2.3.38-3.63,3.44.38,4.59,2.29c.16.27.73,1.27,1.58,2.79h0l1.39,2.44c.14.25.29.51.44.79l.25.43,3.35,6h0l7.39,13.15.13.23Z"/><path class="d" d="M149.08,292.91c.19-.2.36-.38.51-.56a3,3,0,0,1-1,1.86l-.66-1.13v-.23C148.31,292.86,148.69,292.87,149.08,292.91Z"/><path class="e" d="M112.36,175.85a4.14,4.14,0,1,1-4.89-3.22A4.13,4.13,0,0,1,112.36,175.85Z"/><path class="b" d="M101,228.82a2.58,2.58,0,1,1-2.58,2.58A2.59,2.59,0,0,1,101,228.82Z"/><path class="b" d="M97.06,95.58A2.08,2.08,0,1,1,95,97.66,2.08,2.08,0,0,1,97.06,95.58Z"/><circle class="b" cx="66.21" cy="171.3" r="2.58"/><path class="f" d="M188.25,130.74c.9,1,3.31,4.34,3.95,11.29.84,9-.25,11.07-2.59,11.07-1.09,0-1.6-.63-1.82-1.64-.36-1.62,0-4.21,0-6.66,0-4-1.06-11.57-5-12.71"/><path class="f" d="M188.23,130.72l-.24-.25-.07-.07h0"/><path class="f" d="M188.23,130.72l0,0"/><path class="f" d="M112.81,148c11.84,5.93,26.24.74,45.17-10.93,7-4.32,14.44-9.76,22.63-11.55a12.7,12.7,0,0,1,8.83.86c3.28,1.75,5.4,5.07,6.9,8.37a36.3,36.3,0,0,1,3.14,11.43c.32,3.29.77,7.26-.9,10.27-.39.7-1.67.66-2.24.54-1.6-.32-1-3-.85-5.79a31.87,31.87,0,0,0-1.62-12.79c-1.15-3.06-3.38-5.4-5.62-7.7"/><path class="f" d="M187.59,151.51a2.36,2.36,0,0,1-2.47,1.41c-1.78-.24-1.9-3-1.9-3s1.17-5.61-.19-9.92-3.94-5.53-4.8-5.53"/><path class="f" d="M355,64.72a52.27,52.27,0,0,1,8.18,1.93"/><path class="f" d="M356.17,60.2a52.19,52.19,0,0,1,8.05,2"/><path class="f" d="M357.13,55.83a50.85,50.85,0,0,1,8.16,2"/><path class="f" d="M209.82,177.7l1.24-3.67,11.74-34.5a3.08,3.08,0,0,1,2.06-2l4.41-1.28,11-3.2,19.93-5.79,23.21-6.76a.54.54,0,0,1,.66.69l-2.7,7.91-10,29.51a2.66,2.66,0,0,1-1.76,1.68Z"/><path class="f" d="M209.82,177.7c-.38-.75-37.59-18.35-37.59-18.35l.67-3.83.19-1.07,7.24-3.32"/><line class="f" x1="173.38" y1="155.6" x2="210.31" y2="173.78"/><path class="f" d="M300.81,59.46a24.11,24.11,0,0,0-7.44-1.71c-15.58-1.45-20.48-2-25.1-11a34.55,34.55,0,0,1-3.78-17.48"/><path class="f" d="M95.16,176.71c4.66-3.49,9.72-6.59,15.56-6.84a21.72,21.72,0,0,1,10.36,2.33,27.08,27.08,0,0,1,4.62,2.85,15.22,15.22,0,0,1,3.88,3.71c.1.2-3.24,2.29-3.57,2.51-2.32,1.55-4.58,3.25-7.26,4.16-3.93,1.33-8.43,2-12.51.94a16.67,16.67,0,0,1-9-6.28,22.57,22.57,0,0,1-1.87-3"/><path class="f" d="M130.36,84.16s-.07-11.12,0-18.31a22.83,22.83,0,0,1,9.53-18.53c.28-.2.57-.4.86-.58a23.94,23.94,0,0,1,10.83-3.59c.63-.06,1.27-.09,1.93-.11,6.72-.16,13.16.84,18.25,3.61,5.87,3.19,10,8.72,10.62,17.51.18,2.33.34,4.36.5,6.15a72.09,72.09,0,0,0,1.33,9.82,29.11,29.11,0,0,0,3.68,8.52c3.71,6.52.67,8.66-3,9.33-2.13.39-2.25,10.32-1.89,17.16a4.08,4.08,0,0,0,4.1,3.87l37.61-.09a4.34,4.34,0,0,1,4.34,4.34v12.13"/><line class="f" x1="181.15" y1="79.96" x2="173.9" y2="80.06"/><path class="f" d="M152.31,96.43a6.18,6.18,0,0,1,0-12.36"/><path class="f" d="M146.61,289.38l0,0-8.1-14.45-.77-1.38-1-1.83-3.08-5.51-1-1.78-2.82-5a4.24,4.24,0,0,1-.44-1.22,2.32,2.32,0,0,1,.82-2.41c1.72-1.34,3.44.38,4.59,2.29.16.27.72,1.27,1.58,2.78.41.71.87,1.53,1.39,2.45.14.25.29.51.43.79a3.7,3.7,0,0,1,.25.43c1,1.76,2.14,3.79,3.36,6h0l7.51,13.38,8.16,14.53.44.77,1.52,7.65-6.88-5.36-4-6.88"/><path class="f" d="M141.23,269a8.82,8.82,0,0,1,8.3,8.81l-.45,3.77c0,.09.07.18.11.26l.12.24c1.43,2.6,4.31.64,4.31.64a26.8,26.8,0,0,1,.64-2.68l.38-2.83c0-.31,0-.63,0-.94a14.35,14.35,0,0,0-14.32-13.42,13.79,13.79,0,0,0-2.42.21"/><path class="f" d="M140.88,259.14a6.66,6.66,0,0,1,8.94-2.95l2.1,1.39.3.2c2.7.23,2.3-2.68,2.3-2.68-.53-.44-1.1-.86-1.59-1.34l-1.77-1.22a10.85,10.85,0,0,0-14.57,4.82,15.13,15.13,0,0,0-.82,2"/><path class="f" d="M154.63,276.24c2.4,2.67,4.48-.56,4.48-.56-.13-.9-.29-1.83-.33-2.74l-.49-2.18-.13-.6a14.36,14.36,0,0,0-18.44-8.51,13.14,13.14,0,0,0-2.09.93"/><path class="f" d="M158.33,270.75c1.54-.28,2.22-2.2,2.22-2.2-.35-.81-.75-1.64-1-2.48l-1.31-2.43a13.83,13.83,0,0,0-6.39-4.89l-.55-.2a13.91,13.91,0,0,0-12.55,2,13.26,13.26,0,0,0-1.51,1.26"/><path class="f" d="M132.54,281a.7.7,0,0,0,0,.17l0,0"/><path class="f" d="M137.84,273.49l-.12,0a6.43,6.43,0,0,0-2,.63,6.1,6.1,0,0,0-2.15,1.73,5.43,5.43,0,0,0-1.06,2.52,16.4,16.4,0,0,0,0,2.6"/><path class="f" d="M131.39,265.07a15,15,0,0,0-4.42,4.27l-5.42,7.41c-6.15,5.79-14.14,12-28.71,11.65a49.63,49.63,0,0,1-45-30.84c-.34-.87-.66-1.71-.93-2.53-4.71-13.95.59-20.53,3.55-21.52,2.34-.79,5.58-1.27,9,4.47A40.44,40.44,0,0,1,63,246.06c4.71,14.11,9.42,17.25,16.21,14.64s10.46-8.37,13.59-8.89,4.71,3.13,6.28,2.61c2-.67,2.41-3.93,2.82-5.67.57-2.39,1.07-4.78,1.49-7.2a39.82,39.82,0,0,1,1.36-6.4c1-3,3-4.82,5.57-6.55.78-.53,1.53-1.09,2.27-1.67a21.58,21.58,0,0,0,5.88-6.73c2.47-4.75,1.7-10.09.17-15-.74-2.37-1.76-4.64-2.47-7"/><path class="f" d="M47.34,114c.29-6.91-.84-14.73-.84-21.12,0-13.64,9.88-31.52,29.17-31.52,9,0,15.46,2.57,19.82,6.61s6.68,9.66,7.31,15.6c.08.74.13,1.5.16,2.25.47,12.71,0,16.47,3.29,20.24s2.83,4.7,2.83,4.7h-6.59c-.17.29-.35,7.06-.35,7.06H95.25s-.74,5.59,2,5.59,4.93.19,4.93.19-.33,5-.33,5.06c-.93,13.83-19.31,7.4-27.77,11.42-4.72,2.24-9.2,5.19-11.72,9.91-2.37,4.45-1.36,8.74-1.88,13.49-.47,4.24-1.12,8.94-3.19,12.72a9.85,9.85,0,0,1-3.85,4,9.58,9.58,0,0,0-2.69,1.51c-1.8,2.05-.52,4.36,2.3,4.62s4.59-.19,4.84,2.55c.06.7.13,1.38.24,3.55l8.4.46s-.41,5.11-8.09,5.36l.79,4.34a8.8,8.8,0,0,1-.79,3.24s-.55,3.71,4.48,5.29a4.54,4.54,0,0,1,3.22,4.3v2.1a4.8,4.8,0,0,1-4.8,4.8h-20A14.66,14.66,0,0,0,26.63,237v29.08"/><path class="f" d="M136.4,273.6a8.73,8.73,0,0,0-.7.54,8.61,8.61,0,0,0-3.15,6.38,3.47,3.47,0,0,0,0,.47v0a8.09,8.09,0,0,0,.54,2.69,8.89,8.89,0,0,0,.47,1,7.23,7.23,0,0,0,3.84,3.48c1.49.75,5.23,1,8.17,1.66,2.26.5,4.06,1.21,4,2.51a3,3,0,0,1-1,1.86l-.24.25c-.36,0-.71,0-1-.06-5.93-.14-7.63,2.73-13.07,3.71a9.94,9.94,0,0,1-6.59-.63,4.06,4.06,0,0,0-3.24-.21C97.29,307,38.69,313.5,15.08,271.68a66.75,66.75,0,0,1-4.19-8.88,79.5,79.5,0,0,1-3.23-10.51c-9.91-41.87,24.78-61.69,18.92-78.39a16.25,16.25,0,0,0-.66-1.6c-6.3-13-4.24-30.05,4-37.82"/><path class="f" d="M183.22,149.91a2.35,2.35,0,0,1-2.89,1.22c-1.91-.73-1.67-2-1.61-4.3s.68-6.77-1.66-7.51a7.15,7.15,0,0,0-6.52,1.47c-1.29,1.3-12.07,14.1-27.27,22.47A35.39,35.39,0,0,1,131,167.7c-8.87,1.15-15.61-3.53-18.37-16.36-.13-.6-.25-1.22-.37-1.86-.08-.45-.14-.89-.2-1.34h0C109.36,128,123,95.47,125,91.62a16.7,16.7,0,0,1,3.35-5,13.91,13.91,0,0,1,2.27-1.74c2.31-1.41,5.68-2.64,10.8-3.46.84-.14,1.72-.26,2.66-.37,15-1.78,16.16-12.44,14.92-18.84a53.48,53.48,0,0,0-3.92-11.38c-1.09-2.44-2.24-4.85-3.29-7.24l-.2-.48c-1.92-4.43-3.43-8.76-3.42-13,0-16.56,13.5-27.56,29.19-29.09,14-1.37,23.2,4.7,27.15,8.69a27.37,27.37,0,0,1,3.4,4.35c2.22,3.45,3.72,7,3.76,7.76.18,3-1.42,5.38-.18,8.31s3.81,5,5.3,7.72a6.42,6.42,0,0,1,.56,5.08,4,4,0,0,1-1.55,2c-1,.67-2.08.57-3.18.94-1.67.57-1.37,2-1.2,3.43.11.88.19,1.76.24,2.65l-6.38.81s-1.46,4,6.63,3.86c.33,3.49.52,5.79-.88,7.91a6.57,6.57,0,0,1-3.43,2.51,20.63,20.63,0,0,1-7.74.71c-2.41-.1-5.73-1.55-6.92,1.3-.72,1.69-1,4.79,0,6.45s3.56,1.54,5.23,1.4c10.47-.84,25.56,30,36.05,30l4.89,0c6.91,0,13.82-.1,20.73.09,4.58.12,14.71,2.07,16.13-4.35,0,0,3.21-9.26-.29-13.65s-10.48-.52-16.3-4.53c-1.76-1.22-2.85-3.66-3.51-6.48l-.53-2.9c3.84.11,5.14-3.31,5.57-5.26a1.09,1.09,0,0,0-1.07-1.31h-4.9L255.1,63s-5,1-6-.26,1.56-3.11,3.37-5.95,4-5.05,3.88-8.8-.52-4.27.78-8a21.47,21.47,0,0,1,7.24-10.74h0c3.68-2.76,9.18-4.73,17.47-4,19.15,1.68,22,15.4,20.7,26.52a60.22,60.22,0,0,1-1.55,7.8c-2.68,10.32-7.48,22.25-7.37,26.23,0,2.13,0,3.75.8,5,1.06,1.67,3.68,2.56,10.19,2.93"/><path class="f" d="M370.44,49.85l1.71-3.94"/><path class="f" d="M373,52.66l4.53-1"/><path class="f" d="M372.94,56.34c2,.31,4,.64,6,1"/><path class="f" d="M246.23,258c6.39.23,11.94-4.05,17-8a39.2,39.2,0,0,1,10.11-6.27,18.82,18.82,0,0,1,5.7-1.09,7.88,7.88,0,0,0,1.86-.44,11.88,11.88,0,0,1,1.76-.34c2.62-.36,5.22-.74,7.82-1.19,8.23-1.41,9.95-3.2,13.85-1.83s7.47,2.33,7.47,2.33a2.2,2.2,0,0,1,.44,3c-1.16,1.67-4-.54-9-1.62a9.41,9.41,0,0,0-8.33,2.42c2.3,3-.68,10.58-7.66,12.72-4.28,1.31-9,.22-12.94-1.59a5,5,0,0,0-2.09-.74c-.8,0-1.31.75-1.84,1.26s-1.26,1.22-1.92,1.8a38.29,38.29,0,0,1-22.7,9.26,37.33,37.33,0,0,1-9.89-.78A38.61,38.61,0,0,1,224,262.19c-.91-.55-1.79-1.13-2.66-1.76s-1.61-1.44-2.49-2c-.38-.22-.69-.34-1,0l0,.08a2.12,2.12,0,0,0-.12,1.19c0,1.46.07,2.92.13,4.38.23,5.69.65,11.36.68,17.05,0,7.4-.21,15.64-4.6,20.92-4.1,4.94-10.51,5.65-16.36,5.9q-8.31.35-16.62.21-10.65-.18-21.28-1.14"/><path class="f" d="M309.45,236.47a7.44,7.44,0,1,1-.35,13.05"/><path class="f" d="M305.72,234.18a11.41,11.41,0,1,1,1.38,18.76"/><path class="f" d="M259,201.2h9.17a16.42,16.42,0,0,1,0,32.84H237.46V217.62a16.43,16.43,0,0,1,16.43-16.42Z"/><path class="f" d="M259,201.2v-2a13.73,13.73,0,0,0-13.73-13.73H225.61a13.74,13.74,0,0,0-13.74,13.73v5.38a13.74,13.74,0,0,0,13.74,13.73h12.07"/><line class="f" x1="245.83" y1="209.96" x2="276.54" y2="209.96"/><line class="f" x1="245.83" y1="217.64" x2="276.12" y2="217.64"/><line class="f" x1="246.24" y1="225.08" x2="265.69" y2="225.08"/><line class="f" x1="219.6" y1="197.38" x2="250.31" y2="197.38"/><line class="f" x1="219.6" y1="205.05" x2="232.35" y2="205.05"/><path class="f" d="M33.88,135.76a6.06,6.06,0,0,1,0-12.11,6.54,6.54,0,0,1,1.67.23,10.21,10.21,0,0,1,10.15-9.1,11,11,0,0,1,1.52.11,10.23,10.23,0,0,1,8.12,6.76,7.24,7.24,0,1,1,2.25,14.11"/><line class="f" x1="45.87" y1="137.73" x2="45.87" y2="151.69"/><line class="f" x1="39.9" y1="135.64" x2="39.9" y2="150.72"/><line class="f" x1="51.6" y1="134.59" x2="51.6" y2="151.21"/><path class="f" d="M361.08,178.75c7.94-4.26,16.54,3.65,24.14,5.21,9.88,2,16.36-9.06,22.89-14.35,3.69-3,15-11.69,8.26-16.75-2.68-2-6.48,0-9,2.2s-5.35,4.95-8.64,4.32c-1.91-.37-3.41-1.82-4.71-3.27s-2.6-3-4.41-3.73a4.4,4.4,0,0,0-4.05.36c-1.71,1.14-3.93,3.37-5.95,1.54l-.19-.17c-4.19-4.09-6.63-9.56-9.44-14.6-2.55-4.58-7.54-8.86-8.69-14-1.27-5.68,1.56-11.63,5.75-15.37,3.78-3.39-4.92-2-8.72-7.41-2.67-3.79-14.69,1.73-14.71-3.78,0-4,4.78-4.84,7.66-6.21,8.44-4,11.49-7.42,13.95-13.83.43-1.12,2.48-7.15,0-7.23.29,0-2,2-2.18,2-4.74,2.35-10.76,1.83-15.78,3.72l0-.24.78-5.59c-2.35,1.14-3.38,3.76-4.08,6.1a67.83,67.83,0,0,1-5.33,11.78c-4.2,8-17.17,1.31-21,9.42-6.15,12.91-14.71,25.22-30,29.17a39.73,39.73,0,0,1-5.91,1.05l-.36,0c-8.65.86-15.61,0-21.17-1.84-17.14-5.63-21.1-20.22-21.1-20.22"/><path class="f" d="M258.32,178.23a29,29,0,0,1,28.89,29.69"/><path class="f" d="M130.26,41.81a44.84,44.84,0,0,0-18.37-4.27,70.75,70.75,0,0,0-12.48.65q-3.25.45-6.38,1.16c-1.67.37-3.31.8-4.91,1.27-12.78,3.76-23.39,10.5-28.77,18.1"/><path class="f" d="M59.51,238C57.38,243.71,53,249.66,47,255a72.29,72.29,0,0,1-10.62,7.81c-1.42.87-2.9,1.7-4.42,2.49s-3.07,1.53-4.66,2.23l-1.21.52a68.65,68.65,0,0,1-11,3.6c-.31.08-.63.16-.93.22A52.22,52.22,0,0,1,3,273.23a2.15,2.15,0,0,1-1.07-4c3.33-1.82,7-4.15,8.88-6.39"/><line class="f" x1="294.29" y1="90.81" x2="275.96" y2="102.64"/><path class="f" d="M178.38,196.76A10.21,10.21,0,0,0,178,193a3.38,3.38,0,0,0-2.77-2.29c-1.92-.08-3.17,2-4,3.7s-2.09,3.77-4,3.65c-1.65-.11-2.71-1.76-3.43-3.26s-1.63-3.18-3.26-3.5c-1.46-.28-2.88.74-3.74,2s-1.36,2.66-2.23,3.87a4,4,0,0,1-3.75,1.94c-1.58-.33-2.47-2-3.06-3.47s-1.19-3.19-2.64-3.92c-1.62-.81-3.68.05-4.82,1.47a11.91,11.91,0,0,0-2,5"/><path class="f" d="M179.21,208.84a9.66,9.66,0,0,0-.41-3.75,3.34,3.34,0,0,0-2.76-2.28c-1.93-.09-3.18,1.94-4,3.69s-2.09,3.77-4,3.65c-1.66-.1-2.71-1.76-3.44-3.25s-1.63-3.19-3.25-3.5c-1.46-.29-2.89.73-3.75,1.95s-1.36,2.66-2.22,3.87a4,4,0,0,1-3.75,1.93c-1.58-.32-2.48-2-3.06-3.47s-1.2-3.19-2.64-3.9c-1.63-.82-3.7,0-4.83,1.46a12.32,12.32,0,0,0-2,5"/><path class="f" d="M211.33,288.61a4.88,4.88,0,0,0-.21-1.87,1.67,1.67,0,0,0-1.38-1.15c-1,0-1.58,1-2,1.85s-1.05,1.88-2,1.82-1.36-.88-1.72-1.62-.81-1.59-1.62-1.75a2,2,0,0,0-1.88,1c-.43.6-.67,1.32-1.1,1.93a2,2,0,0,1-1.88,1c-.79-.16-1.24-1-1.53-1.73a3.34,3.34,0,0,0-1.32-1.95,2.06,2.06,0,0,0-2.41.73,5.9,5.9,0,0,0-1,2.51"/><path class="f" d="M211.74,294.65a4.93,4.93,0,0,0-.2-1.88,1.66,1.66,0,0,0-1.38-1.14c-1-.05-1.59,1-2,1.85s-1,1.88-2,1.82-1.36-.88-1.72-1.63-.82-1.59-1.63-1.74a2,2,0,0,0-1.87,1c-.43.6-.68,1.32-1.11,1.93a2,2,0,0,1-1.87,1c-.79-.16-1.25-1-1.54-1.73a3.33,3.33,0,0,0-1.31-2,2.07,2.07,0,0,0-2.42.74,5.93,5.93,0,0,0-1,2.51"/><path class="f" d="M112.36,175.85a4.14,4.14,0,1,1-4.89-3.22A4.13,4.13,0,0,1,112.36,175.85Z"/><path class="f" d="M91.24,183.25l-4.62,2.52"/><path class="f" d="M88.66,175.56l-5-.27"/><path class="f" d="M91.88,169.57a20.78,20.78,0,0,0-4-2.76l.31.1"/><path class="f" d="M181,307.73a103,103,0,0,0,2.27-12.09,19.41,19.41,0,0,1-3.05,0c-1.42-.24-3.08-1.31-2.84-3,.45-3.18,5.34-2.12,7.44-1.89.38-1.26-.09-2.89-.26-4.15-.24-1.83-1.09-4.12.84-5.32,1.18-.72,2.88.21,4-.51,3.69-2.43.72-8.43-.62-11.38-2.51-5.49-4-11.27-5.63-17.08a23.65,23.65,0,0,1-.33-5.45l-.17-6.36,8-.66a118,118,0,0,1,23.09.29,4.42,4.42,0,0,1,2.3.71c.93.76.58,1.95.6,3a51.46,51.46,0,0,0,.48,7.08,23.72,23.72,0,0,1,.52,7,2.34,2.34,0,0,0,0,.26"/><path class="f" d="M342.85,302.82c-6.89.44-13.79.39-20.69.28-3.45-.05-6.9-.12-10.36-.15-1.93,0-3.95.14-5.94,0"/><path class="f" d="M346.5,235.13c-1.46,19-1.89,37.95,1.33,39.56,2.45,1.22,2.75,1.86,3,3.9a1,1,0,0,1-.81,1.11,12.92,12.92,0,0,1-2.68.15c-.06,7.66,3.28,11.11,3.25,14.74-.06,5.22-2.39,7.88-7.78,8.23"/><path class="f" d="M347.65,183.45a11.42,11.42,0,0,1,1.92,3.12c1.12,2.64.53,5.52.32,8.26-.34,4.44-.12,8.95-.67,13.38-.62,4.89-1.09,9.8-1.54,14.71"/><path class="f" d="M287.65,128.08c5,3,10,6.12,13.78,10.48a30.23,30.23,0,0,1,5.87,10.35,31,31,0,0,1,1.49,12.17c-.11,1.4-.21,2.85-.42,4.3a17.92,17.92,0,0,1-.58,2.69c-.7,2.4-1.54,4.76-2.36,7.13l-.35,1c-.47,1.35-.93,2.7-1.36,4.07-.3,1-1.14,2.61-.72,3.65.6,1.51,3.5,1,5.45.59a1,1,0,0,1,1.12,1.09c-1,5.44-1.79,10.91-2.69,16.36l-.07.43a7.43,7.43,0,0,0,3,7.18c2.8,2,19.55,1.84,22.85,1.46,1.43-.16.91-6.46.9-7.31-.07-4.61-.37-9.22-.51-13.83a74.89,74.89,0,0,1,0-7.64c.11-1.55,1.48-1.93,2.8-1.87,1.76.08,3.71-.07,5.39.54"/><polyline class="f" points="365.23 71.66 369.83 54.35 355.78 50.93 347.41 77.17"/><path class="f" d="M195.43,248A10.58,10.58,0,0,1,210,262.42"/><path class="f" d="M206.05,266.23a10.58,10.58,0,0,1-15.12-12.59"/><polyline class="f" points="187.25 254.28 191 253.23 193.32 255.63"/><polyline class="f" points="213.04 264.06 209.18 263.52 208.01 260.4"/><path class="f" d="M284,59.51a2.78,2.78,0,1,1-2.78-2.78A2.79,2.79,0,0,1,284,59.51Z"/><path class="f" d="M237.45,149.85a5.89,5.89,0,0,0-.28,2.63,3,3,0,0,0,1.33,2.17,2.31,2.31,0,0,0,1.82.17,3.34,3.34,0,0,0,1.74-1.27,7.14,7.14,0,0,0,1-4.08c0-1.2-.09-2.41-1.44-2.59a4.05,4.05,0,0,0-3.09,1.18A4.13,4.13,0,0,0,237.45,149.85Z"/><path class="f" d="M248.51,146q-1,3.83-2,7.67"/><path class="f" d="M253.3,143.56a8.59,8.59,0,0,1-4.47,2.1"/><path class="f" d="M246.37,154l5-2.06"/><path class="f" d="M247.91,149.73l2.53-1"/><path class="f" d="M257.48,141.92l-1.28,5.35-.81,3.43"/><path class="f" d="M257.25,141.71l.14-.05,3.75-1.31a4.49,4.49,0,0,1-.75,4.81,6.24,6.24,0,0,1-1,.88,7.54,7.54,0,0,1-3.21,1.23l-.18,0"/><path class="f" d="M259.39,146s0,0,0,0a4.86,4.86,0,0,1,.75,3.68"/><path class="f" d="M213.78,8.77a14.86,14.86,0,0,1-5.88,5.32A14.77,14.77,0,0,1,189,9c-.06-.08-.11-.16-.16-.24"/><path class="f" d="M188.94,8.77,189,9a34.56,34.56,0,0,1-33.83,41.84h-.1a34.6,34.6,0,0,1-20.78-7"/><path class="f" d="M216.43,5.4l2.1-3.09"/><path class="f" d="M360.94,178.46c-.13-.14-.28-.27-.42-.4a11.92,11.92,0,0,0-7.23-3.09c-.28,0-.56,0-.85,0a11.93,11.93,0,0,0-7.2,2.39,12.16,12.16,0,0,0-3.37,3.9,11.92,11.92,0,0,0-1.45,5.73,12.06,12.06,0,0,0,1.4,5.65c.41.76,1.28.7,2.14.69A2.42,2.42,0,0,0,346,192c.79-1.62-.45-3.48-.45-5.29a5,5,0,0,1,3.37-4.36,9.4,9.4,0,0,1,5.77.07,10,10,0,0,1,4.44,2.39,5.38,5.38,0,0,1,1.59,4.64,3.71,3.71,0,0,1-3.58,3c-.94-.05-1.88-.54-2.8-.31a1.92,1.92,0,0,0-1.45,1.76,2,2,0,0,0,1.3,1.89"/><path class="f" d="M361,177.91l.12-.25a10.52,10.52,0,0,0-17.27-11.53c-.52.56-.21,1.26,0,2a2,2,0,0,0,.66.9"/><path class="f" d="M361.08,178v-.38a10.53,10.53,0,0,0-16.38-8.4,10.29,10.29,0,0,0-1.54,1.27,10.42,10.42,0,0,0-2.64,4.36c-.23.72.34,1.22.89,1.75a2.11,2.11,0,0,0,2.1.47l.27-.11c1.28-.64,1.69-2.39,2.74-3.43a4.34,4.34,0,0,1,4.78-.59,6.68,6.68,0,0,1,2,1.52"/><path class="f" d="M366.33,185.79a8,8,0,0,1-12.71,9.41"/><path class="f" d="M344.58,227.05c-.09-.44.37-.85.82-.87a2.1,2.1,0,0,1,1.23.51,3.59,3.59,0,0,0,1.15.7,1.56,1.56,0,0,0,1.87-1.18"/><path class="f" d="M344.56,230.82c-.09-.44.37-.84.82-.86a2.06,2.06,0,0,1,1.23.5,3.52,3.52,0,0,0,1.15.7,1.57,1.57,0,0,0,1.88-1.17"/><path class="f" d="M304.65,93.64c5.76.34,10.41.22,13,5.23,1.24,2.44,2,6.1,2.17,11.6.07,2.59.19,5.19.44,7.77a28.82,28.82,0,0,0,.58,4.34,18.55,18.55,0,0,0,1.06,3,21.75,21.75,0,0,0,3.33,5.29c.3.36.61.7.93,1a13.34,13.34,0,0,1,2.46,2.91,3.21,3.21,0,0,1-.24,3.58c-.95,1-2.57.93-3.7,1.7-2.08,1.42-1.87,7.6-1.88,8.77,0,.26,0,.51,0,.76h-4.39a1.68,1.68,0,1,0,0,3.35h4.45c.08.41.26,3.28.26,4,0,2.92.13,6.27-2.89,7.73-2,1-4.36.67-6.57.67h-8.21s-5.1.3-5.1,5.1,4.64,4.64,4.64,4.64"/><path class="g" d="M321.53,381.14c-9.09,20.38-24.35,36.66-42.81,48.23a127.16,127.16,0,0,1-14.4,7.8c-19.34,9.92-41,13.79-62.73,12.63-47.64-2.71-93.74-34.48-108.22-80.95A126.25,126.25,0,0,1,88,349.53a119,119,0,0,1-.93-40.36,140.19,140.19,0,0,1,3.73-19.72C96,270,105.26,251.91,118.6,237.16a124.73,124.73,0,0,1,18.34-15.36c71.32-48.73,174.13-4,194.67,71.33a103.72,103.72,0,0,1,3.47,21.26,143.13,143.13,0,0,1-8.79,54.82Q324.2,375.12,321.53,381.14Z"/><path class="h" d="M137.6,234.71a98.71,98.71,0,0,1,96.78-14.51q6.5,2.6,12.59,5.73t11.81,6.81c5.16,3.69,10.2,7.6,15.06,11.73,4.09,3.31,8.13,6.84,12.06,10.54,19.64,17.9,35.42,39.73,40.78,65.89a96.42,96.42,0,0,1,1.92,16.23c1.44,39.94-28.1,72.53-61.9,90.55A123.47,123.47,0,0,1,163,433.3a127.63,127.63,0,0,1-13.79-6.76c-22.12-12.56-39.64-31.43-48.58-54.72a113,113,0,0,1-5.78-16c-9.15-33-3.56-70.44,24.65-103.29,2.61-3,5.42-6.05,8.42-9S134.18,237.61,137.6,234.71Z"/><path class="i" d="M327.05,331.4c.19,37-17.91,75.34-52,91.7-31.79,15.64-74,6.58-103.82-9.85-35.39-19.53-62.8-57.29-62.4-98.77a84.83,84.83,0,0,1,1.86-15c4.53-21.24,20.2-36.91,38.42-47a130.71,130.71,0,0,1,17.92-8.3c6.18-2.35,12.55-4.35,19-6.15a146.65,146.65,0,0,1,17.41-3.79,148.25,148.25,0,0,1,19.42-1.71c30.08-3.45,60.24,8,79.81,28.82A82.8,82.8,0,0,1,313,274.91c5.84,9.92,10.9,20.63,12.8,31.89a55.08,55.08,0,0,1,.76,11.43A122.51,122.51,0,0,1,327.05,331.4Z"/><rect class="j" x="109.75" y="381.62" width="198.45" height="35.33"/><path class="d" d="M119.61,395.73a3.54,3.54,0,0,1-3.7-3.67v0a3.6,3.6,0,0,1,1-2.6,3.53,3.53,0,0,1,2.64-1.08,4.54,4.54,0,0,1,1.52.23,4.7,4.7,0,0,1,1.22.73l-.8.95a3.51,3.51,0,0,0-.9-.58,3,3,0,0,0-1.09-.18,2.14,2.14,0,0,0-1.65.73,2.61,2.61,0,0,0-.67,1.78v0a2.57,2.57,0,0,0,.68,1.83,2.27,2.27,0,0,0,1.75.72,2.8,2.8,0,0,0,1.72-.54v-1.34h-1.82v-1.09h3v3A4.42,4.42,0,0,1,119.61,395.73Z"/><path class="d" d="M124.14,395.61v-7.44h1.23v7.44Z"/><path class="d" d="M129.53,395.73a2.76,2.76,0,0,1-2-.81,2.66,2.66,0,0,1-.82-2v0a2.7,2.7,0,0,1,.83-2,2.77,2.77,0,0,1,2-.82,2.8,2.8,0,0,1,2,.81,2.7,2.7,0,0,1,.82,2v0a2.71,2.71,0,0,1-.83,2A2.82,2.82,0,0,1,129.53,395.73Zm0-1.07a1.54,1.54,0,0,0,1.19-.5,1.78,1.78,0,0,0,.44-1.21v0a1.76,1.76,0,0,0-.46-1.23,1.55,1.55,0,0,0-1.19-.5,1.5,1.5,0,0,0-1.17.49,1.74,1.74,0,0,0-.44,1.22v0a1.75,1.75,0,0,0,.46,1.22A1.55,1.55,0,0,0,129.55,394.66Z"/><path class="d" d="M136.72,395.72a2.2,2.2,0,0,1-1.82-1v.84h-1.23v-7.44h1.23v3a2.14,2.14,0,0,1,1.82-1,2.36,2.36,0,0,1,1.76.76,2.75,2.75,0,0,1,.75,2v0a2.76,2.76,0,0,1-.75,2A2.36,2.36,0,0,1,136.72,395.72Zm-.28-1.07a1.44,1.44,0,0,0,1.09-.47,1.76,1.76,0,0,0,.45-1.25v0a1.72,1.72,0,0,0-.45-1.24,1.43,1.43,0,0,0-1.09-.48,1.49,1.49,0,0,0-1.11.48,1.71,1.71,0,0,0-.46,1.24v0a1.73,1.73,0,0,0,.46,1.24A1.49,1.49,0,0,0,136.44,394.65Z"/><path class="d" d="M145,395.61h-1.22v-.67a2.17,2.17,0,0,1-1.74.78,2.08,2.08,0,0,1-1.36-.45,1.46,1.46,0,0,1-.56-1.21v0a1.55,1.55,0,0,1,.6-1.32,2.64,2.64,0,0,1,1.58-.44,4.84,4.84,0,0,1,1.49.22v-.1a1.07,1.07,0,0,0-.34-.86,1.51,1.51,0,0,0-1-.29,4,4,0,0,0-1.54.33l-.34-1a5,5,0,0,1,2-.45,2.36,2.36,0,0,1,1.76.59,2.24,2.24,0,0,1,.6,1.68Zm-1.19-1.95v-.3a3.24,3.24,0,0,0-1.23-.22,1.59,1.59,0,0,0-.91.23.68.68,0,0,0-.32.61v0a.68.68,0,0,0,.29.58,1.27,1.27,0,0,0,.74.21,1.62,1.62,0,0,0,1-.31A1,1,0,0,0,143.81,393.66Z"/><path class="d" d="M146.54,395.61v-7.44h1.23v7.44Z"/><path class="d" d="M155.89,395.73a3.45,3.45,0,0,1-2.59-1.06,3.61,3.61,0,0,1-1-2.61v0a3.61,3.61,0,0,1,1-2.61,3.49,3.49,0,0,1,2.64-1.07,3.9,3.9,0,0,1,1.57.28,4.33,4.33,0,0,1,1.22.83l-.81.92a2.91,2.91,0,0,0-2-.88,2.18,2.18,0,0,0-1.68.72,2.56,2.56,0,0,0-.68,1.79v0a2.57,2.57,0,0,0,.68,1.8,2.16,2.16,0,0,0,1.68.74,2.52,2.52,0,0,0,1.08-.23,4,4,0,0,0,1-.7l.81.82a4.26,4.26,0,0,1-1.28.94A3.73,3.73,0,0,1,155.89,395.73Z"/><path class="d" d="M162.4,395.73a2.76,2.76,0,0,1-2-.81,2.66,2.66,0,0,1-.82-2v0a2.7,2.7,0,0,1,.83-2,3,3,0,0,1,4.08,0,2.66,2.66,0,0,1,.82,2v0a2.7,2.7,0,0,1-.82,2A2.84,2.84,0,0,1,162.4,395.73Zm0-1.07a1.5,1.5,0,0,0,1.18-.5,1.75,1.75,0,0,0,.45-1.21v0a1.72,1.72,0,0,0-.47-1.23,1.64,1.64,0,0,0-2.35,0,1.75,1.75,0,0,0-.45,1.22v0a1.76,1.76,0,0,0,.47,1.22A1.52,1.52,0,0,0,162.42,394.66Z"/><path class="d" d="M166.54,395.61v-5.38h1.23v.83a2,2,0,0,1,1.68-.94,1.77,1.77,0,0,1,1.4.56,2.13,2.13,0,0,1,.51,1.5v3.43h-1.23v-3.06a1.43,1.43,0,0,0-.3-1,1.06,1.06,0,0,0-.85-.34,1.19,1.19,0,0,0-.88.35,1.4,1.4,0,0,0-.33,1v3Z"/><path class="d" d="M175.24,397.26a4.52,4.52,0,0,1-2.4-.65l.46-.92a3.57,3.57,0,0,0,1.91.57,1.74,1.74,0,0,0,1.26-.42,1.63,1.63,0,0,0,.44-1.23v-.42a2.31,2.31,0,0,1-1.89,1,2.43,2.43,0,0,1-2.45-2.52v0a2.43,2.43,0,0,1,2.45-2.52,2.36,2.36,0,0,1,1.88.91v-.8h1.23v4.28a2.71,2.71,0,0,1-.68,2A3,3,0,0,1,175.24,397.26Zm.1-3.12a1.61,1.61,0,0,0,1.12-.42,1.36,1.36,0,0,0,.46-1.06v0a1.38,1.38,0,0,0-.46-1.07,1.65,1.65,0,0,0-1.12-.41,1.53,1.53,0,0,0-1.09.41,1.39,1.39,0,0,0-.43,1.06v0a1.38,1.38,0,0,0,.44,1.07A1.51,1.51,0,0,0,175.34,394.14Z"/><path class="d" d="M179.67,395.61v-5.38h1.23v1.21a1.86,1.86,0,0,1,1.91-1.31v1.3h-.07a1.71,1.71,0,0,0-1.34.55,2.27,2.27,0,0,0-.5,1.58v2.05Z"/><path class="d" d="M186.16,395.73a2.69,2.69,0,0,1-2.76-2.79v0a2.87,2.87,0,0,1,.74-2,2.46,2.46,0,0,1,1.88-.81,2.29,2.29,0,0,1,1.9.83,3.1,3.1,0,0,1,.68,2.06c0,.07,0,.18,0,.35h-4a1.62,1.62,0,0,0,.52,1,1.52,1.52,0,0,0,1,.36,2,2,0,0,0,1.45-.64l.73.64A2.73,2.73,0,0,1,186.16,395.73Zm-1.54-3.19h2.76a1.75,1.75,0,0,0-.42-1,1.21,1.21,0,0,0-.94-.39,1.24,1.24,0,0,0-.94.39A1.73,1.73,0,0,0,184.62,392.54Z"/><path class="d" d="M191.69,395.71a3.58,3.58,0,0,1-2.29-.81l.55-.83a3,3,0,0,0,1.77.66,1,1,0,0,0,.61-.16.47.47,0,0,0,.22-.42v0c0-.26-.36-.5-1.08-.71l-.12,0a5.29,5.29,0,0,1-.61-.21,3.36,3.36,0,0,1-.52-.28,1.17,1.17,0,0,1-.41-.45,1.44,1.44,0,0,1-.14-.64v0a1.45,1.45,0,0,1,.54-1.19,2.09,2.09,0,0,1,1.37-.45,3.52,3.52,0,0,1,2,.61l-.49.87a3.05,3.05,0,0,0-1.52-.5.9.9,0,0,0-.55.14.48.48,0,0,0-.2.4v0a.44.44,0,0,0,.27.39,4.86,4.86,0,0,0,.84.33H192l0,0a4.91,4.91,0,0,1,.6.22,3.48,3.48,0,0,1,.52.29,1.26,1.26,0,0,1,.41.45,1.31,1.31,0,0,1,.14.61v0a1.5,1.5,0,0,1-.56,1.25A2.26,2.26,0,0,1,191.69,395.71Z"/><path class="d" d="M196.68,395.71a3.58,3.58,0,0,1-2.29-.81l.55-.83a2.93,2.93,0,0,0,1.77.66,1,1,0,0,0,.61-.16.47.47,0,0,0,.22-.42v0c0-.26-.36-.5-1.08-.71l-.12,0a4.69,4.69,0,0,1-.61-.21,3,3,0,0,1-.52-.28,1.17,1.17,0,0,1-.41-.45,1.31,1.31,0,0,1-.14-.64v0a1.45,1.45,0,0,1,.54-1.19,2.09,2.09,0,0,1,1.37-.45,3.52,3.52,0,0,1,2,.61l-.49.87a3.05,3.05,0,0,0-1.52-.5.9.9,0,0,0-.55.14.48.48,0,0,0-.2.4v0a.44.44,0,0,0,.27.39,4.86,4.86,0,0,0,.84.33H197l0,0a4.91,4.91,0,0,1,.6.22,3.48,3.48,0,0,1,.52.29,1.26,1.26,0,0,1,.41.45,1.31,1.31,0,0,1,.14.61v0a1.5,1.5,0,0,1-.56,1.25A2.26,2.26,0,0,1,196.68,395.71Z"/><path class="d" d="M203.25,395.61v-4.32h-.68v-1h.68v-.39a1.82,1.82,0,0,1,.44-1.33,1.63,1.63,0,0,1,1.21-.43,3.66,3.66,0,0,1,1,.14v1a2.24,2.24,0,0,0-.72-.13q-.72,0-.72.81v.3h1.43v1h-1.41v4.32Z"/><path class="d" d="M209.26,395.73a2.78,2.78,0,0,1-2-.81,2.69,2.69,0,0,1-.81-2v0a2.69,2.69,0,0,1,.82-2,3,3,0,0,1,4.09,0,2.66,2.66,0,0,1,.82,2v0a2.7,2.7,0,0,1-.82,2A2.84,2.84,0,0,1,209.26,395.73Zm0-1.07a1.52,1.52,0,0,0,1.18-.5,1.75,1.75,0,0,0,.45-1.21v0a1.77,1.77,0,0,0-.47-1.23,1.53,1.53,0,0,0-1.18-.5,1.5,1.5,0,0,0-1.17.49,1.75,1.75,0,0,0-.45,1.22v0a1.76,1.76,0,0,0,.47,1.22A1.52,1.52,0,0,0,209.28,394.66Z"/><path class="d" d="M213.39,395.61v-5.38h1.24v1.21a1.84,1.84,0,0,1,1.9-1.31v1.3h-.07a1.69,1.69,0,0,0-1.33.55,2.22,2.22,0,0,0-.5,1.58v2.05Z"/><path class="d" d="M220.87,395.61v-7.13h1.25v7.13Z"/><path class="d" d="M223.88,395.61v-5.38h1.23V391a2,2,0,0,1,1.64-.92,1.65,1.65,0,0,1,1.6.94,2.2,2.2,0,0,1,1.82-.94,1.79,1.79,0,0,1,1.39.54,2.15,2.15,0,0,1,.5,1.51v3.44h-1.23v-3.06a1.49,1.49,0,0,0-.29-1,1,1,0,0,0-.8-.33,1.05,1.05,0,0,0-.84.35,1.41,1.41,0,0,0-.31,1v3h-1.24v-3.07a1.46,1.46,0,0,0-.28-1,1,1,0,0,0-.81-.34,1.05,1.05,0,0,0-.83.36,1.44,1.44,0,0,0-.32,1v3Z"/><path class="d" d="M233.55,397.23v-7h1.24v.9a2.12,2.12,0,0,1,1.82-1,2.36,2.36,0,0,1,1.76.76,2.74,2.74,0,0,1,.74,2v0a2.76,2.76,0,0,1-.74,2,2.36,2.36,0,0,1-1.76.76,2.18,2.18,0,0,1-1.82-1v2.46Zm2.77-2.58a1.47,1.47,0,0,0,1.1-.47,1.8,1.8,0,0,0,.44-1.25v0a1.72,1.72,0,0,0-.45-1.24,1.43,1.43,0,0,0-1.09-.48,1.49,1.49,0,0,0-1.1.48,1.71,1.71,0,0,0-.46,1.24v0a1.73,1.73,0,0,0,.46,1.24A1.49,1.49,0,0,0,236.32,394.65Z"/><path class="d" d="M240.45,395.61v-7.44h1.23v7.44Z"/><path class="d" d="M245.75,395.73a2.69,2.69,0,0,1-2-.78,2.73,2.73,0,0,1-.79-2v0a2.83,2.83,0,0,1,.75-2,2.43,2.43,0,0,1,1.88-.81,2.3,2.3,0,0,1,1.9.83,3.16,3.16,0,0,1,.68,2.06c0,.07,0,.18,0,.35h-4a1.61,1.61,0,0,0,.51,1,1.52,1.52,0,0,0,1,.36,2,2,0,0,0,1.46-.64l.72.64A2.72,2.72,0,0,1,245.75,395.73Zm-1.54-3.19H247a1.8,1.8,0,0,0-.41-1,1.24,1.24,0,0,0-.95-.39,1.26,1.26,0,0,0-.94.39A1.79,1.79,0,0,0,244.21,392.54Z"/><path class="d" d="M249.44,395.61v-5.38h1.23V391a2,2,0,0,1,1.64-.92,1.65,1.65,0,0,1,1.6.94,2.2,2.2,0,0,1,1.82-.94,1.82,1.82,0,0,1,1.39.54,2.15,2.15,0,0,1,.49,1.51v3.44h-1.23v-3.06a1.49,1.49,0,0,0-.28-1,1,1,0,0,0-.81-.33,1,1,0,0,0-.83.35,1.41,1.41,0,0,0-.32,1v3h-1.23v-3.07a1.52,1.52,0,0,0-.28-1,1,1,0,0,0-.81-.34,1.05,1.05,0,0,0-.83.36,1.44,1.44,0,0,0-.32,1v3Z"/><path class="d" d="M261.58,395.73a2.69,2.69,0,0,1-2.76-2.79v0a2.82,2.82,0,0,1,.74-2,2.43,2.43,0,0,1,1.88-.81,2.29,2.29,0,0,1,1.9.83A3.16,3.16,0,0,1,264,393c0,.07,0,.18,0,.35h-3.95a1.62,1.62,0,0,0,.52,1,1.52,1.52,0,0,0,1,.36,2,2,0,0,0,1.45-.64l.72.64A2.71,2.71,0,0,1,261.58,395.73ZM260,392.54h2.76a1.75,1.75,0,0,0-.42-1,1.22,1.22,0,0,0-.95-.39,1.24,1.24,0,0,0-.93.39A1.67,1.67,0,0,0,260,392.54Z"/><path class="d" d="M265.26,395.61v-5.38h1.23v.83a2,2,0,0,1,1.68-.94,1.79,1.79,0,0,1,1.41.56,2.13,2.13,0,0,1,.51,1.5v3.43h-1.23v-3.06a1.43,1.43,0,0,0-.3-1,1.07,1.07,0,0,0-.85-.34,1.17,1.17,0,0,0-.88.35,1.41,1.41,0,0,0-.34,1v3Z"/><path class="d" d="M273.38,395.7a1.38,1.38,0,0,1-1.55-1.58v-2.83h-.68v-1.06h.68v-1.48h1.23v1.48h1.45v1.06h-1.45v2.64a.59.59,0,0,0,.66.67,1.62,1.62,0,0,0,.77-.19v1A2.18,2.18,0,0,1,273.38,395.7Z"/><path class="d" d="M280.26,395.61H279v-.67a2.17,2.17,0,0,1-1.74.78,2.08,2.08,0,0,1-1.36-.45,1.46,1.46,0,0,1-.56-1.21v0a1.55,1.55,0,0,1,.6-1.32,2.64,2.64,0,0,1,1.58-.44,4.89,4.89,0,0,1,1.49.22v-.1a1.1,1.1,0,0,0-.34-.86,1.52,1.52,0,0,0-1-.29,4,4,0,0,0-1.53.33l-.34-1a5,5,0,0,1,2-.45,2.36,2.36,0,0,1,1.76.59,2.24,2.24,0,0,1,.6,1.68Zm-1.19-1.95v-.3a3.24,3.24,0,0,0-1.23-.22,1.59,1.59,0,0,0-.91.23.69.69,0,0,0-.33.61v0a.69.69,0,0,0,.3.58,1.24,1.24,0,0,0,.74.21,1.62,1.62,0,0,0,1-.31A1,1,0,0,0,279.07,393.66Z"/><path class="d" d="M283.48,395.7a1.38,1.38,0,0,1-1.55-1.58v-2.83h-.68v-1.06h.68v-1.48h1.23v1.48h1.45v1.06h-1.45v2.64a.59.59,0,0,0,.66.67,1.62,1.62,0,0,0,.77-.19v1A2.18,2.18,0,0,1,283.48,395.7Z"/><path class="d" d="M285.87,389.4v-1.17h1.32v1.17Zm.05,6.21v-5.38h1.23v5.38Z"/><path class="d" d="M291.32,395.73a2.77,2.77,0,0,1-2-.81,2.69,2.69,0,0,1-.81-2v0a2.69,2.69,0,0,1,.82-2,3,3,0,0,1,4.09,0,2.66,2.66,0,0,1,.82,2v0a2.71,2.71,0,0,1-.83,2A2.81,2.81,0,0,1,291.32,395.73Zm0-1.07a1.52,1.52,0,0,0,1.18-.5A1.75,1.75,0,0,0,293,393v0a1.77,1.77,0,0,0-.47-1.23,1.53,1.53,0,0,0-1.18-.5,1.49,1.49,0,0,0-1.17.49,1.75,1.75,0,0,0-.45,1.22v0a1.71,1.71,0,0,0,.47,1.22A1.52,1.52,0,0,0,291.34,394.66Z"/><path class="d" d="M295.45,395.61v-5.38h1.23v.83a2,2,0,0,1,1.68-.94,1.79,1.79,0,0,1,1.41.56,2.13,2.13,0,0,1,.51,1.5v3.43h-1.23v-3.06a1.43,1.43,0,0,0-.31-1,1.05,1.05,0,0,0-.84-.34,1.16,1.16,0,0,0-.88.35,1.41,1.41,0,0,0-.34,1v3Z"/><path class="d" d="M118.33,408.49a2.46,2.46,0,0,1-1.81-.69,2.4,2.4,0,0,1-.69-1.77,3.19,3.19,0,0,1,1-2.29,3.08,3.08,0,0,1,2.27-1,2.47,2.47,0,0,1,1.82.69,2.4,2.4,0,0,1,.69,1.77,3.16,3.16,0,0,1-1,2.3A3.08,3.08,0,0,1,118.33,408.49Zm0-.73A2.18,2.18,0,0,0,120,407a2.5,2.5,0,0,0,.71-1.75,1.77,1.77,0,0,0-.47-1.3,1.71,1.71,0,0,0-1.25-.47,2.13,2.13,0,0,0-1.64.79,2.54,2.54,0,0,0-.71,1.75,1.62,1.62,0,0,0,1.72,1.75Z"/><path class="d" d="M122.54,408.37l1.29-4.78h-.76l.19-.72H124l.18-.66a1.85,1.85,0,0,1,1.88-1.63,2.32,2.32,0,0,1,1.1.24l-.2.7a2.09,2.09,0,0,0-.9-.22c-.55,0-.92.34-1.1,1l-.14.53h1.79l-.2.72h-1.78l-1.29,4.78Z"/><path class="d" d="M133,408.5a3.55,3.55,0,0,1-2.54-.85,3.33,3.33,0,0,1-.9-2.55v-4.18h2.09v4.14a1.65,1.65,0,0,0,.37,1.18,1.27,1.27,0,0,0,1,.4,1.36,1.36,0,0,0,1-.38,1.62,1.62,0,0,0,.37-1.15v-4.19h2.09v4.13a3.4,3.4,0,0,1-.92,2.6A3.62,3.62,0,0,1,133,408.5Z"/><path class="d" d="M137.7,408.37v-7.45h1.93l3.06,3.94v-3.94h2v7.45h-1.81l-3.18-4.09v4.09Z"/><path class="d" d="M146.05,408.37v-7.45h6v1.76h-3.95v1.12h3.57v1.63h-3.57v1.18h4v1.76Z"/><path class="d" d="M156.06,408.49a5,5,0,0,1-3.48-1.23l1.15-1.37a3.79,3.79,0,0,0,2.41.89c.57,0,.85-.17.85-.51v0a.45.45,0,0,0-.26-.39,3.88,3.88,0,0,0-1-.32,10.45,10.45,0,0,1-1.13-.32,4.49,4.49,0,0,1-.86-.41,1.7,1.7,0,0,1-.62-.66,2.15,2.15,0,0,1-.2-.95v0a2.14,2.14,0,0,1,.78-1.72,3.14,3.14,0,0,1,2.1-.66,4.72,4.72,0,0,1,3.06,1l-1,1.46a3.58,3.58,0,0,0-2.08-.73,1,1,0,0,0-.56.13.42.42,0,0,0-.19.35v0a.45.45,0,0,0,.26.4,4.19,4.19,0,0,0,1,.32,5.47,5.47,0,0,1,2.08.82,1.75,1.75,0,0,1,.69,1.5v0a2.14,2.14,0,0,1-.81,1.77A3.41,3.41,0,0,1,156.06,408.49Z"/><path class="d" d="M163.66,408.51a3.79,3.79,0,0,1-3.84-3.84v0a3.71,3.71,0,0,1,1.12-2.75,3.83,3.83,0,0,1,2.8-1.12,3.65,3.65,0,0,1,3.16,1.56l-1.55,1.2a2.06,2.06,0,0,0-1.63-.87,1.62,1.62,0,0,0-1.27.56,2,2,0,0,0-.51,1.4v0a2.09,2.09,0,0,0,.5,1.42,1.64,1.64,0,0,0,1.28.57,1.74,1.74,0,0,0,.93-.23,3,3,0,0,0,.75-.67l1.55,1.1a4.19,4.19,0,0,1-1.36,1.24A3.8,3.8,0,0,1,163.66,408.51Z"/><path class="d" d="M174.23,407.39a4.23,4.23,0,0,1-5.72,0,3.69,3.69,0,0,1-1.14-2.73v0a3.69,3.69,0,0,1,1.15-2.74,4.2,4.2,0,0,1,5.72,0,3.68,3.68,0,0,1,1.14,2.73v0A3.69,3.69,0,0,1,174.23,407.39ZM170,406.06a1.74,1.74,0,0,0,1.37.59,1.76,1.76,0,0,0,1.36-.58,2,2,0,0,0,.53-1.4v0a2,2,0,0,0-.54-1.42,1.79,1.79,0,0,0-1.37-.59,1.77,1.77,0,0,0-1.36.58,2,2,0,0,0-.53,1.41v0A2,2,0,0,0,170,406.06Z"/><path class="d" d="M186,407.39a4.23,4.23,0,0,1-5.72,0,3.69,3.69,0,0,1-1.14-2.73v0a3.69,3.69,0,0,1,1.15-2.74,4.2,4.2,0,0,1,5.72,0,3.69,3.69,0,0,1,1.15,2.73v0A3.7,3.7,0,0,1,186,407.39Zm-4.21-1.33a1.74,1.74,0,0,0,1.37.59,1.76,1.76,0,0,0,1.36-.58,2,2,0,0,0,.53-1.4v0a2,2,0,0,0-.54-1.42,1.79,1.79,0,0,0-1.37-.59,1.77,1.77,0,0,0-1.36.58,2,2,0,0,0-.53,1.41v0A2,2,0,0,0,181.8,406.06Z"/><path class="d" d="M188.24,408.37v-7.45h6v1.76h-3.95v1.12h3.57v1.63h-3.57v1.18h4v1.76Z"/><path class="d" d="M195.33,408.37v-7.45h3.52a3.23,3.23,0,0,1,2.42.81,2.3,2.3,0,0,1,.66,1.73v0a2.3,2.3,0,0,1-1.53,2.29l1.78,2.6H199.8l-1.5-2.26h-.91v2.26Zm2.06-3.87h1.37a1.26,1.26,0,0,0,.81-.24.79.79,0,0,0,.29-.65v0a.79.79,0,0,0-.29-.66,1.34,1.34,0,0,0-.83-.22h-1.35Z"/><path class="d" d="M205.92,408.37v-7.45h3.52a3.23,3.23,0,0,1,2.42.81,2.3,2.3,0,0,1,.66,1.73v0a2.3,2.3,0,0,1-1.53,2.29l1.78,2.6h-2.38l-1.5-2.26H208v2.26ZM208,404.5h1.37a1.26,1.26,0,0,0,.81-.24.79.79,0,0,0,.29-.65v0a.79.79,0,0,0-.29-.66,1.34,1.34,0,0,0-.83-.22H208Z"/><path class="d" d="M216.19,408.5a3,3,0,0,1-2.22-.83,2.86,2.86,0,0,1-.86-2.15v0a3,3,0,0,1,.82-2.14,2.72,2.72,0,0,1,2.08-.86,2.65,2.65,0,0,1,2.16.89,3.37,3.37,0,0,1,.74,2.25c0,.19,0,.33,0,.42h-3.85a1.16,1.16,0,0,0,1.25.94,1.78,1.78,0,0,0,1.27-.58l1.12.92A3,3,0,0,1,216.19,408.5ZM215,405h2a1.21,1.21,0,0,0-.32-.76A.89.89,0,0,0,216,404a.84.84,0,0,0-.65.29A1.42,1.42,0,0,0,215,405Z"/><path class="d" d="M222.55,408.5a3,3,0,0,1-3-3v0a2.92,2.92,0,0,1,.87-2.12,3,3,0,0,1,2.22-.87,2.71,2.71,0,0,1,2.45,1.28l-1.37,1a1.29,1.29,0,0,0-1.07-.6,1,1,0,0,0-.81.37,1.36,1.36,0,0,0-.32.9v0a1.41,1.41,0,0,0,.32.94,1,1,0,0,0,.83.37,1.47,1.47,0,0,0,1.1-.59l1.35,1A2.9,2.9,0,0,1,222.55,408.5Z"/><path class="d" d="M228.6,408.5a3.12,3.12,0,0,1-2.26-.87,2.81,2.81,0,0,1-.91-2.11v0a2.85,2.85,0,0,1,.91-2.12,3.4,3.4,0,0,1,4.55,0,2.82,2.82,0,0,1,.9,2.11v0a2.85,2.85,0,0,1-.91,2.13A3.13,3.13,0,0,1,228.6,408.5Zm0-1.71a1.1,1.1,0,0,0,.87-.37,1.32,1.32,0,0,0,.33-.9v0a1.28,1.28,0,0,0-.35-.91,1.2,1.2,0,0,0-1.74,0,1.32,1.32,0,0,0-.33.9v0a1.34,1.34,0,0,0,.35.92A1.14,1.14,0,0,0,228.62,406.79Z"/><path class="d" d="M232.64,408.37v-5.76h2v.79a2.12,2.12,0,0,1,1.71-.91,1.72,1.72,0,0,1,1.66.93,2.5,2.5,0,0,1,1.93-.93,1.87,1.87,0,0,1,1.44.55,2.17,2.17,0,0,1,.52,1.55v3.78h-2v-3.13a1.07,1.07,0,0,0-.21-.71.73.73,0,0,0-.57-.25.79.79,0,0,0-.6.25,1,1,0,0,0-.23.71v3.13h-2v-3.13a1,1,0,0,0-.22-.71.73.73,0,0,0-.57-.25.75.75,0,0,0-.59.25,1,1,0,0,0-.23.71v3.13Z"/><path class="d" d="M243,408.37v-5.76h2v.79a2.09,2.09,0,0,1,1.71-.91,1.73,1.73,0,0,1,1.66.93,2.47,2.47,0,0,1,1.92-.93,1.89,1.89,0,0,1,1.45.55,2.22,2.22,0,0,1,.52,1.55v3.78h-2v-3.13a1.07,1.07,0,0,0-.21-.71.76.76,0,0,0-.58-.25.79.79,0,0,0-.6.25,1,1,0,0,0-.23.71v3.13h-2v-3.13a1.07,1.07,0,0,0-.21-.71.73.73,0,0,0-.58-.25.78.78,0,0,0-.59.25,1,1,0,0,0-.22.71v3.13Z"/><path class="d" d="M256.14,408.5a3,3,0,0,1-2.22-.83,2.83,2.83,0,0,1-.86-2.15v0a3,3,0,0,1,.81-2.14,2.74,2.74,0,0,1,2.09-.86,2.65,2.65,0,0,1,2.16.89,3.42,3.42,0,0,1,.74,2.25c0,.19,0,.33,0,.42H255a1.16,1.16,0,0,0,1.25.94,1.79,1.79,0,0,0,1.27-.58l1.12.92A3,3,0,0,1,256.14,408.5ZM255,405h2a1.27,1.27,0,0,0-.32-.76A.89.89,0,0,0,256,404a.88.88,0,0,0-.66.29A1.49,1.49,0,0,0,255,405Z"/><path class="d" d="M259.72,408.37v-5.76h2v.81a2.15,2.15,0,0,1,1.73-.93,1.88,1.88,0,0,1,1.43.56,2.2,2.2,0,0,1,.52,1.55v3.77h-2v-3.12a1,1,0,0,0-.22-.71.73.73,0,0,0-.59-.26.79.79,0,0,0-.61.26,1,1,0,0,0-.24.71v3.12Z"/><path class="d" d="M268.79,408.49a2.31,2.31,0,0,1-1.8-.82,3.08,3.08,0,0,1-.74-2.15v0a3.21,3.21,0,0,1,.73-2.18,2.31,2.31,0,0,1,1.8-.82,2.27,2.27,0,0,1,1.77.82V400.6h2v7.77h-2v-.77A2.2,2.2,0,0,1,268.79,408.49Zm-.22-2.06a1.13,1.13,0,0,0,1.67,0,1.33,1.33,0,0,0,.34-.94v0a1.32,1.32,0,0,0-.34-.93,1.15,1.15,0,0,0-1.67,0,1.32,1.32,0,0,0-.34.93v0A1.33,1.33,0,0,0,268.57,406.43Z"/><path class="d" d="M275.3,408.49a2,2,0,0,1-1.39-.46,1.63,1.63,0,0,1-.55-1.31v0a1.59,1.59,0,0,1,.61-1.34,2.57,2.57,0,0,1,1.65-.47,4.08,4.08,0,0,1,1.38.22V405c0-.63-.38-.94-1.15-.94a4.33,4.33,0,0,0-1.58.32l-.42-1.43a6.23,6.23,0,0,1,2.33-.44,3,3,0,0,1,2.19.7,2.45,2.45,0,0,1,.62,1.83v3.31h-2v-.6A2.17,2.17,0,0,1,275.3,408.49Zm.72-1.26a1.05,1.05,0,0,0,.73-.26.93.93,0,0,0,.27-.69V406a2,2,0,0,0-.79-.15,1.08,1.08,0,0,0-.68.19.64.64,0,0,0-.24.52v0a.6.6,0,0,0,.2.46A.77.77,0,0,0,276,407.23Z"/><path class="d" d="M282.25,408.48a1.69,1.69,0,0,1-1.93-1.9v-2.34h-.68v-1.63h.68v-1.45h2v1.45h1.34v1.63h-1.34v1.95c0,.38.18.57.55.57a1.78,1.78,0,0,0,.77-.19v1.58A2.83,2.83,0,0,1,282.25,408.48Z"/><path class="d" d="M284.55,402.09V400.6h2.1v1.49Zm0,6.28v-5.76h2v5.76Z"/><path class="d" d="M290.67,408.5a3.13,3.13,0,0,1-2.26-.87,2.84,2.84,0,0,1-.9-2.11v0a2.85,2.85,0,0,1,.91-2.12,3.38,3.38,0,0,1,4.54,0,2.82,2.82,0,0,1,.9,2.11v0a2.88,2.88,0,0,1-.9,2.13A3.15,3.15,0,0,1,290.67,408.5Zm0-1.71a1.09,1.09,0,0,0,.86-.37,1.28,1.28,0,0,0,.34-.9v0a1.33,1.33,0,0,0-.35-.91,1.17,1.17,0,0,0-.88-.38,1.09,1.09,0,0,0-.86.37,1.28,1.28,0,0,0-.34.9v0a1.34,1.34,0,0,0,.35.92A1.17,1.17,0,0,0,290.7,406.79Z"/><path class="d" d="M294.71,408.37v-5.76h2v.81a2.15,2.15,0,0,1,1.73-.93,1.85,1.85,0,0,1,1.43.56,2.2,2.2,0,0,1,.52,1.55v3.77h-2v-3.12a1.09,1.09,0,0,0-.21-.71.76.76,0,0,0-.59-.26.79.79,0,0,0-.62.26,1,1,0,0,0-.24.71v3.12Z"/><path class="k" d="M189.6,278.18a5.32,5.32,0,0,1-9.14-3.7v0a5.33,5.33,0,1,1,10.66,0v0A5.13,5.13,0,0,1,189.6,278.18ZM183.32,277a3.29,3.29,0,0,0,2.49,1.06,3.21,3.21,0,0,0,2.46-1,3.61,3.61,0,0,0,1-2.56v0a3.66,3.66,0,0,0-1-2.57,3.45,3.45,0,0,0-4.95,0,3.57,3.57,0,0,0-1,2.55v0A3.65,3.65,0,0,0,183.32,277Z"/><path class="k" d="M193.66,279.55V269.36h7.55V271h-5.76v2.65h5.11v1.6h-5.11V278h5.84v1.6Z"/><path class="k" d="M209.73,279.75a5.58,5.58,0,0,1-4-1.48,5,5,0,0,1-1.58-3.79v0a5.09,5.09,0,0,1,1.57-3.77,5.38,5.38,0,0,1,3.92-1.53,6.09,6.09,0,0,1,4.13,1.49l-1.65,2a3.79,3.79,0,0,0-2.46-1,2.41,2.41,0,0,0-1.86.82,2.81,2.81,0,0,0-.75,2v0a2.78,2.78,0,0,0,.78,2,2.66,2.66,0,0,0,2,.79,2.92,2.92,0,0,0,1.63-.42v-1.24h-2v-2.07h4.68v4.59A6.72,6.72,0,0,1,209.73,279.75Z"/><path class="k" d="M216.16,279.55V269.36H219v7.71h4.93v2.48Z"/><path class="k" d="M234.61,278.21a5.76,5.76,0,0,1-7.83,0,5,5,0,0,1-1.56-3.74v0a5.05,5.05,0,0,1,1.57-3.75,5.41,5.41,0,0,1,3.93-1.55,5.35,5.35,0,0,1,3.9,1.53,5,5,0,0,1,1.57,3.74v0A5.07,5.07,0,0,1,234.61,278.21Zm-5.76-1.81a2.59,2.59,0,0,0,3.73,0,2.73,2.73,0,0,0,.73-1.93v0a2.8,2.8,0,0,0-.74-1.94,2.46,2.46,0,0,0-1.88-.81,2.42,2.42,0,0,0-1.86.79,2.78,2.78,0,0,0-.72,1.93v0A2.8,2.8,0,0,0,228.85,276.4Z"/><path class="k" d="M238.1,279.55V269.36h5.22a3.75,3.75,0,0,1,2.78.92,2.2,2.2,0,0,1,.66,1.64v0a2.34,2.34,0,0,1-1.58,2.27,3.29,3.29,0,0,1,1.51.91,2.33,2.33,0,0,1,.52,1.58v0a2.42,2.42,0,0,1-1,2.06,4.72,4.72,0,0,1-2.84.75Zm2.75-6.13h1.77c.9,0,1.34-.3,1.34-.89v0c0-.58-.43-.87-1.28-.87h-1.83Zm0,3.86H243a1.78,1.78,0,0,0,1-.24.8.8,0,0,0,.35-.7v0c0-.62-.46-.92-1.38-.92h-2.15Z"/><path class="k" d="M248.12,279.55l4.34-10.26h2.72l4.34,10.26h-3l-.74-1.82h-3.93l-.73,1.82Zm4.53-4h2.29l-1.14-2.9Z"/><path class="k" d="M261,279.55V269.36h2.82v7.71h4.93v2.48Z"/><path class="k" d="M185.45,293.61a4.09,4.09,0,0,1-3-1.24,4.2,4.2,0,0,1-1.21-3.05v0a4.24,4.24,0,0,1,1.21-3.06,4.14,4.14,0,0,1,3.09-1.25,4.62,4.62,0,0,1,1.84.33,5.2,5.2,0,0,1,1.42,1l-.94,1.08a3.41,3.41,0,0,0-2.34-1,2.55,2.55,0,0,0-2,.85,2.94,2.94,0,0,0-.79,2.09v0a3,3,0,0,0,.79,2.11,2.56,2.56,0,0,0,2,.86,2.86,2.86,0,0,0,1.27-.27,5,5,0,0,0,1.13-.81l.94.95a5.08,5.08,0,0,1-1.49,1.11A4.48,4.48,0,0,1,185.45,293.61Z"/><path class="k" d="M197.45,292.34a4.34,4.34,0,0,1-7.48-3v0a4.36,4.36,0,1,1,8.72,0v0A4.22,4.22,0,0,1,197.45,292.34Zm-5.14-.94a2.66,2.66,0,0,0,2,.86,2.63,2.63,0,0,0,2-.85,3,3,0,0,0,.79-2.09v0a3,3,0,0,0-.8-2.1,2.66,2.66,0,0,0-2-.86,2.61,2.61,0,0,0-2,.85,3,3,0,0,0-.8,2.09v0A3,3,0,0,0,192.31,291.4Z"/><path class="k" d="M200.75,293.46v-8.34h1.36l4.47,5.77v-5.77H208v8.34h-1.23l-4.6-5.93v5.93Z"/><path class="k" d="M210.52,293.46v-8.34h6.21v1.34H212v2.27h4.21v1.34H212v3.39Z"/><path class="k" d="M218.51,293.46v-8.34h6.18v1.31H220v2.17h4.19v1.31H220v2.24h4.78v1.31Z"/><path class="k" d="M226.83,293.46v-8.34h3.71A3.29,3.29,0,0,1,233,286a2.47,2.47,0,0,1,.69,1.8v0a2.45,2.45,0,0,1-.54,1.63,2.91,2.91,0,0,1-1.45.9l2.25,3.15h-1.72l-2.05-2.9h-1.84v2.9Zm1.46-4.2h2.15a1.94,1.94,0,0,0,1.25-.38,1.26,1.26,0,0,0,.46-1v0a1.22,1.22,0,0,0-.45-1,2,2,0,0,0-1.28-.36h-2.13Z"/><path class="k" d="M235.75,293.46v-8.34h6.18v1.31h-4.72v2.17h4.18v1.31h-4.18v2.24H242v1.31Z"/><path class="k" d="M244.06,293.46v-8.34h1.36l4.47,5.77v-5.77h1.44v8.34H250.1l-4.6-5.93v5.93Z"/><path class="k" d="M257.64,293.61a4.09,4.09,0,0,1-3-1.24,4.21,4.21,0,0,1-1.22-3.05v0a4.25,4.25,0,0,1,1.22-3.06A4.13,4.13,0,0,1,257.7,285a4.55,4.55,0,0,1,1.84.33,5.25,5.25,0,0,1,1.43,1l-.94,1.08a3.43,3.43,0,0,0-2.34-1,2.55,2.55,0,0,0-2,.85,2.94,2.94,0,0,0-.79,2.09v0a3,3,0,0,0,.79,2.11,2.56,2.56,0,0,0,2,.86A2.86,2.86,0,0,0,259,292a5,5,0,0,0,1.13-.81l.94.95a5.21,5.21,0,0,1-1.49,1.11A4.53,4.53,0,0,1,257.64,293.61Z"/><path class="k" d="M262.78,293.46v-8.34H269v1.31h-4.72v2.17h4.18v1.31h-4.18v2.24H269v1.31Z"/><rect class="l" x="137.82" y="262.91" width="36.9" height="36.98" rx="0.61"/><path class="c" d="M137.82,294.7h36.9a0,0,0,0,1,0,0v4.62a.57.57,0,0,1-.57.57H138.39a.57.57,0,0,1-.57-.57V294.7A0,0,0,0,1,137.82,294.7Z"/><path class="m" d="M156.76,298.24c-2.79,0-5.34-1.85-7.18-5.2a26.11,26.11,0,0,1,0-22.84c1.84-3.36,4.39-5.2,7.18-5.2a1.47,1.47,0,0,1,0,2.94c-1.66,0-3.3,1.31-4.6,3.68a23.25,23.25,0,0,0,0,20c1.3,2.37,2.94,3.67,4.6,3.67s3.3-1.3,4.6-3.67a21.13,21.13,0,0,0,2.26-10,1.48,1.48,0,0,1,2.95,0A24,24,0,0,1,163.94,293C162.1,296.39,159.55,298.24,156.76,298.24Z"/><path class="m" d="M137.82,288.4a80.25,80.25,0,0,1,14.05-2.11c1.63-.1,3.29-.15,4.94-.15a80.88,80.88,0,0,1,12.53,1l1.46.22-.46,2.91-1.45-.22a78.79,78.79,0,0,0-12.08-.94c-1.59,0-3.19.05-4.76.15a77.73,77.73,0,0,0-14.23,2.2"/><path class="m" d="M137.82,281.27a80.8,80.8,0,0,1,14.09-2.09c1.54-.09,3.12-.13,4.68-.13,2.22,0,4.47.09,6.7.27l.28,0,.64,0h0c1.4.13,2.85.31,4.31.52l.89.13h0l1,.16h0c.53.09,1.06.18,1.56.28l1.19.18a.24.24,0,0,1,.19.25l-.21,2.79-1.72-.32-1.59-.29-1-.16-1.54-.22-1.38-.18-1-.11a78.14,78.14,0,0,0-8.38-.45,79.88,79.88,0,0,0-8.48.46,79,79,0,0,0-10.33,1.84"/><path class="m" d="M137.82,277.62a78.66,78.66,0,0,1,14.23-2.16c1.5-.09,3-.13,4.53-.13.7,0,2.43,0,3.36.05a.3.3,0,0,0,.3-.26l.28-2.53a.1.1,0,0,0-.1-.12q-1.92-.09-3.84-.09c-1.56,0-3.15.05-4.71.14a80.32,80.32,0,0,0-14.05,2.07"/><path class="m" d="M158.13,298.27A16.7,16.7,0,1,1,164.85,267a16.91,16.91,0,0,1,5.82,5.4.19.19,0,0,1,0,.25l-2.26,1.46a.19.19,0,0,1-.25-.05,13.66,13.66,0,0,0-23,.42,12.55,12.55,0,0,0-1.62,3.91A13.68,13.68,0,0,0,160,294.91a12.65,12.65,0,0,0,3.91-1.62,13.67,13.67,0,0,0,6.52-11.66v-.91l2.24-.12.74.11a.07.07,0,0,1,.07.07v.85a16.7,16.7,0,0,1-15.3,16.64Z"/><path class="d" d="M151.94,329.23V308.74h5.29l8.43,10.83V308.74h5.62v20.49h-5L157.56,318v11.24Z"/><path class="d" d="M179.56,329.58a5.64,5.64,0,0,1-3.83-1.29,4.49,4.49,0,0,1-1.5-3.6v-.06A4.38,4.38,0,0,1,175.9,321a7.27,7.27,0,0,1,4.54-1.29,11.26,11.26,0,0,1,3.8.61V320c0-1.72-1.05-2.57-3.16-2.57a11.92,11.92,0,0,0-4.36.87l-1.14-3.92a16.67,16.67,0,0,1,6.41-1.23c2.73,0,4.74.65,6,1.93a6.79,6.79,0,0,1,1.69,5v9.1h-5.5v-1.64A5.94,5.94,0,0,1,179.56,329.58Zm2-3.48a2.78,2.78,0,0,0,2-.72,2.47,2.47,0,0,0,.76-1.89v-.73a5.51,5.51,0,0,0-2.16-.41,2.94,2.94,0,0,0-1.88.54,1.73,1.73,0,0,0-.67,1.42v.06a1.58,1.58,0,0,0,.54,1.26A2.11,2.11,0,0,0,181.55,326.1Z"/><path class="d" d="M193,329.23V313.4h5.56v2.22a5.88,5.88,0,0,1,4.74-2.57,5.09,5.09,0,0,1,4,1.56,6.05,6.05,0,0,1,1.44,4.26v10.36h-5.56v-8.58a2.94,2.94,0,0,0-.6-2,2.07,2.07,0,0,0-1.63-.7,2.23,2.23,0,0,0-1.7.7,2.85,2.85,0,0,0-.64,2v8.58Z"/><path class="d" d="M218.27,329.55q-5.33,0-5.32-5.24v-6.44h-1.88V313.4H213v-4h5.56v4h3.68v4.47h-3.68v5.36c0,1,.5,1.58,1.52,1.58a4.93,4.93,0,0,0,2.1-.53v4.36A7.68,7.68,0,0,1,218.27,329.55Z"/><path class="d" d="M232.43,329.61a8.42,8.42,0,0,1-6.11-2.29,7.86,7.86,0,0,1-2.37-5.93v-.06a8.27,8.27,0,0,1,2.25-5.9,7.54,7.54,0,0,1,5.74-2.38,7.3,7.3,0,0,1,5.94,2.45,9.41,9.41,0,0,1,2.05,6.21c0,.5,0,.89,0,1.14H229.3a3.2,3.2,0,0,0,3.43,2.6,4.92,4.92,0,0,0,3.51-1.61l3.07,2.55A8.33,8.33,0,0,1,232.43,329.61Zm-3.21-9.6h5.5a3.52,3.52,0,0,0-.88-2.09,2.45,2.45,0,0,0-1.87-.78,2.32,2.32,0,0,0-1.8.78A4,4,0,0,0,229.22,320Z"/><path class="d" d="M249,329.58a12.47,12.47,0,0,1-7.49-2.34l2.07-3.37a9.88,9.88,0,0,0,5.45,1.82c.93,0,1.4-.29,1.4-.85v-.06c0-.27-.19-.5-.56-.67a14.67,14.67,0,0,0-2-.68,18.19,18.19,0,0,1-2.23-.7,8.49,8.49,0,0,1-1.73-.92,3.54,3.54,0,0,1-1.24-1.43,4.57,4.57,0,0,1-.41-2v-.06a4.59,4.59,0,0,1,1.77-3.84,7.17,7.17,0,0,1,4.58-1.4,11.8,11.8,0,0,1,6.52,1.85l-1.9,3.51a9.86,9.86,0,0,0-4.68-1.46c-.86,0-1.29.25-1.29.76v.06c0,.27.18.5.56.68a13.45,13.45,0,0,0,2,.72,13,13,0,0,1,4.2,1.86,3.71,3.71,0,0,1,1.42,3.17v.06a4.67,4.67,0,0,1-1.75,3.92A7.41,7.41,0,0,1,249,329.58Z"/><path class="d" d="M151,364.48v-6.64l11.9-9.08a17.23,17.23,0,0,0,3.16-3.05A4.47,4.47,0,0,0,167,343a3,3,0,0,0-1-2.36,3.69,3.69,0,0,0-2.56-.86,5.41,5.41,0,0,0-3,.93,16.87,16.87,0,0,0-3.34,3.16l-5.95-5a19.29,19.29,0,0,1,5.63-5.18,14.79,14.79,0,0,1,7.32-1.63,12.49,12.49,0,0,1,8.47,2.81,9.23,9.23,0,0,1,3.25,7.32v.09a9.82,9.82,0,0,1-1.73,5.95,25.39,25.39,0,0,1-5.63,5.18L163,357.3h13.13v7.18Z"/><path class="d" d="M204.47,360.32a14.35,14.35,0,0,1-21.36.05,17.5,17.5,0,0,1-4-11.7v-.1a17.46,17.46,0,0,1,4.09-11.74,14.3,14.3,0,0,1,21.31-.05,17.42,17.42,0,0,1,4,11.7v.09A17.54,17.54,0,0,1,204.47,360.32Zm-14.88-5.45a5,5,0,0,0,4.27,2.43,4.83,4.83,0,0,0,4.22-2.41,11,11,0,0,0,1.6-6.22v-.1A11,11,0,0,0,198,342.3a5,5,0,0,0-4.25-2.45,4.88,4.88,0,0,0-4.21,2.41,11,11,0,0,0-1.61,6.22v.09A11.08,11.08,0,0,0,189.59,354.87Z"/><path class="d" d="M210.85,364.48v-6.64l11.91-9.08a17.44,17.44,0,0,0,3.15-3.05,4.42,4.42,0,0,0,.94-2.68,3,3,0,0,0-1-2.36,3.72,3.72,0,0,0-2.57-.86,5.36,5.36,0,0,0-3,.93A16.6,16.6,0,0,0,217,343.9l-6-5a19.31,19.31,0,0,1,5.64-5.18,14.78,14.78,0,0,1,7.31-1.63,12.52,12.52,0,0,1,8.48,2.81,9.26,9.26,0,0,1,3.25,7.32v.09A9.82,9.82,0,0,1,234,348.3a25.39,25.39,0,0,1-5.63,5.18l-5.46,3.82H236v7.18Z"/><path class="d" d="M244.52,364.48V340.67l-5.36,1.23-1.68-6.82,9.31-2.63h6.41v32Z"/><circle class="n" cx="208.33" cy="324.31" r="131.32"/></g></svg>