<svg xmlns="http://www.w3.org/2000/svg" viewBox="0 0 1665.31 296.85"><defs><style>.a,.b,.c,.d,.f,.g,.h,.i,.j,.k,.l,.m{fill:none;}.a,.b,.c,.d,.f,.g,.h,.i,.j,.k,.l,.m,.n{stroke:#fff;}.a,.b,.c{stroke-linejoin:round;}.a,.b,.d,.f,.g{stroke-width:3px;}.b,.c,.d,.f,.m{stroke-linecap:round;}.c,.l,.m{stroke-width:2px;}.d,.g,.h,.i,.j,.k,.l,.m,.n{stroke-miterlimit:10;}.e{fill:#fff;}.f{stroke-linejoin:bevel;}.h{stroke-width:2.8px;}.i{stroke-width:2.75px;}.j{stroke-width:2.5px;}.k{stroke-width:2.25px;}.n{fill:#ff5547;stroke-width:4px;}</style></defs><path class="a" d="M817.7,237.34q-150-.15-300.11,0l-6-135.26a1261.94,1261.94,0,0,1,312.17,0Z"/><path class="a" d="M513.72,150.62a1902,1902,0,0,1,307.33,0"/><path class="a" d="M514.79,174.62a2581.14,2581.14,0,0,1,305.71,0"/><path class="a" d="M516.5,200.78c100.73-2.83,201.72-1.91,302.32,2.14"/><path class="a" d="M518.25,228.05c100-.25,200,.67,299.89,2.16"/><path class="a" d="M637.93,144.26c.14.64.38,1.26.51,1.9q.34,40.86.68,81.72"/><path class="a" d="M616.36,144.72c.14.64.38,1.25.52,1.89l1.17,81.32"/><path class="a" d="M578.71,146.11c.15.63.4,1.22.54,1.85q1,40.06,2,80.13"/><path class="a" d="M564.83,146.81c.15.62.4,1.21.55,1.84q1.17,39.75,2.33,79.51"/><path class="a" d="M551.69,147.57c.15.62.4,1.2.56,1.82l2.61,78.86"/><path class="a" d="M541.84,148.2c.15.61.41,1.19.56,1.8l2.82,78.32"/><path class="a" d="M534.54,148.7c.15.61.41,1.18.57,1.79l3,77.88"/><path class="a" d="M529.07,149.09c.16.61.41,1.18.57,1.78l3.09,77.55"/><path class="a" d="M524.33,149.45c.16.6.41,1.17.57,1.77q1.59,38.61,3.19,77.24"/><path class="a" d="M520.69,149.73c.15.6.41,1.16.57,1.76q1.62,38.5,3.26,77"/><path class="a" d="M516.77,150c.15.59.41,1.16.57,1.75q1.67,38.37,3.34,76.73"/><path class="a" d="M597,145.34c.15.63.39,1.24.53,1.87L599.13,228"/><path class="a" d="M680.21,144.06c-.13.65-.36,1.27-.5,1.92q-.13,40.94-.28,81.88"/><path class="a" d="M659.37,144c-.13.65-.36,1.27-.49,1.92q.09,40.95.2,81.9"/><path class="a" d="M701.06,144.32c-.14.64-.37,1.26-.51,1.9q-.37,40.83-.76,81.67"/><path class="a" d="M721.89,145.57c-.14.64-.38,1.25-.52,1.89q-.61,40.62-1.24,81.25"/><path class="a" d="M756.62,146.11c-.14.63-.39,1.23-.54,1.85q-1,40.06-2,80.13"/><path class="a" d="M770.47,147.85c-.14.63-.4,1.22-.55,1.84q-1.15,39.75-2.33,79.51"/><path class="a" d="M783.61,148.61c-.15.61-.4,1.2-.55,1.81q-1.3,39.44-2.62,78.86"/><path class="a" d="M793.46,149.23c-.15.61-.4,1.19-.56,1.8l-2.82,78.31"/><path class="a" d="M800.76,149.72c-.16.61-.41,1.19-.57,1.79q-1.49,38.94-3,77.88"/><path class="a" d="M806.22,150.11c-.15.61-.41,1.18-.56,1.78l-3.09,77.54"/><path class="a" d="M811,150.46c-.15.6-.41,1.17-.56,1.77q-1.6,38.63-3.19,77.24"/><path class="a" d="M814.61,150.74c-.16.6-.42,1.16-.57,1.76l-3.27,77"/><path class="a" d="M818.53,151c-.16.6-.42,1.17-.58,1.76q-1.66,38.37-3.34,76.73"/><path class="a" d="M739.78,146.93c-.14.63-.39,1.24-.53,1.87l-1.65,80.74"/><polyline class="a" points="772.67 96.21 772.67 63.88 569.61 63.88 569.61 95.86"/><line class="a" x1="912.96" y1="145.66" x2="871.22" y2="140.79"/><line class="a" x1="965.97" y1="152.9" x2="957.3" y2="150.84"/><line class="a" x1="962.69" y1="219.96" x2="968.21" y2="157.07"/><polyline class="a" points="864.15 139.97 823.43 135.22 817.71 237.34"/><polyline class="a" points="476.93 164.26 513.25 157.36 516.7 237.34 387.36 237.34 381.33 194.55"/><path class="a" d="M418.64,126.33A15.58,15.58,0,0,0,405,135.7c-4,.4-8.32,1.35-10.62,4.6s-.34,9.16,3.63,8.82l-2.47,1.77a4,4,0,0,1-1.07.63,2.67,2.67,0,0,0-.91.45,5,5,0,0,0-1.43,1.86c-.09.21-.74,2.14-.43,2.24a6.81,6.81,0,0,0-2.15-.34,2.56,2.56,0,0,0-1,.11,10.25,10.25,0,0,0-1.49,1.08l-2.1,1.5c-1.37,1-2.82,2.07-3.39,3.66a3.45,3.45,0,0,0,.13,2.45,6.37,6.37,0,0,1,.66,1.78c.19,1.39-1.22,2.41-2,3.37-.43.53-.81,1.13-1.28,1.62-.29.29-.66.47-.95.75a3.71,3.71,0,0,0-.8,2.95,4.7,4.7,0,0,0,.44,1.61c.09.2.66,1.34.92,1.3a4.7,4.7,0,0,0-3.07,1.88c-1.39,1.87-1.27,4.18-.63,6.34a14.29,14.29,0,0,0,2.14,4.23,29.82,29.82,0,0,0,2.45,2.94,14.6,14.6,0,0,0,1.29,1.32c.39.33.66.75,1,1.12a6.87,6.87,0,0,0,2.83,1.74,6.53,6.53,0,0,0,1.64.32c.15,0,1.58,0,1.6-.1a9,9,0,0,0,.62,5,2.13,2.13,0,0,0,1,.8,35.14,35.14,0,0,0,3.2,1.72,17.54,17.54,0,0,0,3,.93c.52.11,1,.19,1.56.25a5.37,5.37,0,0,1,.77.07c1.49,1.54,2.79,3.39,4.54,4.63.78.55,1.36,1.32,2.15,1.86a6.9,6.9,0,0,0,2.69,1.13,7.11,7.11,0,0,0,5.61-1.39c-.86,2.18.49,4.73,2.46,6a11.4,11.4,0,0,0,4.31,1.52,17.47,17.47,0,0,0,10.47-1.33c2.66-1.26,5.19-3.23,8.14-3.17,1.83,0,3.56.88,5.38,1.07a7.94,7.94,0,0,0,8.28-6c-1.55,2.84,2,6.15,5.2,6.13s6.14-1.89,9.26-2.73c2.66-.71,5.42-.66,8.12-1.09s4.51-1.58,6.77-2.94a43.13,43.13,0,0,0,3.94-2,8.1,8.1,0,0,0,2.24-2.53,5.56,5.56,0,0,0-.26-5.44c-.25-.39-2.74-2.61-3.23-1.55,4.18-8.93.76-20.71-7.55-26,3.09-5.13,0-12.81-5.72-14.43,1.6-7.29,2.54-16.44-3.55-20.77-2.75-2-6.32-2.34-9.32-3.92-2.27-1.19-4.12-3-6.19-4.55a50.53,50.53,0,0,0-10.22-5.3c-1.59-.68-3.2-1.58-5-1.45a4.32,4.32,0,0,0-2.08.74c-.42.28-1.4,1-1.42,1.61a4.48,4.48,0,0,0-1.84-3.81,1.33,1.33,0,0,0-.65-.16,5,5,0,0,1-1.51-.29c-3.1-1-6.66-2.16-9.19.66C419.65,121.3,417.46,126.36,418.64,126.33Z"/><path class="a" d="M432.69,217.67c.61,7.93,1.66,11.92.35,19.35.27-.5-.05-.53-.56-.79"/><path class="a" d="M445,216.63a71,71,0,0,0-1.61,20.71"/><path class="b" d="M470.32,180.65a11.83,11.83,0,0,1-9.49,15.9"/><path class="b" d="M462.36,190.67a10,10,0,0,1-8.25,10.62"/><path class="b" d="M457.61,146.8A15.82,15.82,0,0,1,461,165.57l.46-.44"/><path class="b" d="M455.33,151.4a11.4,11.4,0,0,0,1.72-11.14"/><path class="b" d="M398.83,182.68a14.95,14.95,0,0,0,13.86,10.6"/><path class="b" d="M920.37,133c-9.24-6.84-20.2-13.35-36.64-7.53-16.24,5.75-28.07,24-38.69,44.51-12.91,25-17.12,67.46-17.12,67.46h15.75s1.46-49.82,11.16-68.67c9.54-18.53,17.81-38.07,37.32-39.78s25.14,6.41,25.14,6.41"/><path class="c" d="M914.24,135.92a1.58,1.58,0,0,0-.84,2.69l-.86,4.29.87,4.84,2.05,4,2-2.73,1.86,4a2.49,2.49,0,1,1,4.74.62l2.73-1.46,3.31,5.11a2.33,2.33,0,0,1,2.91,2.48l1.59-.44,3.85,4.8.14-1.9,3.38,2.32.54-1.71,3,3,.74-2.64a4.68,4.68,0,0,0,5.45,2.9l3.73,2.76-2.62-10.08,7.29,1-1.43-1.55,4-1.41-5.67-5.2,1.67-1a2.24,2.24,0,0,1-.9-3.5,20.11,20.11,0,0,0-13.52-5.2l3.16-.67L946.07,140l6.41-.79a11.59,11.59,0,0,0-8.79-4.17l1.61-1.34-6.23-.31.2-1.32-4.55-.31,1.54-2.83-5.33,1.33,1-1.5-4.3,1.84.64-2.77-8.4,5.15"/><path class="c" d="M920.68,135.56l29.11,19.67"/><path class="c" d="M933.84,146.19,937,156.3"/><path class="c" d="M921.84,138.57l3,9.52"/><path class="c" d="M926.75,137.66l7.13-.43-.29.28"/><path class="c" d="M942.83,147.28h6.54"/><path class="b" d="M988.11,155.27a32.38,32.38,0,0,1,12.84,2.59,34.33,34.33,0,0,1,10.83,7.56,53.38,53.38,0,0,1,7.74,10.44c1.1,1.86,2,3.78,3,5.7s1.72,3.9,2.45,5.88a135.39,135.39,0,0,1,6.48,24.34q1.1,6.16,1.76,12.41c.22,2.07.42,4.16.57,6.25s.29,4.63.35,6.9H1022c.09-1.79.23-4.54.24-6.48s0-3.93-.08-5.9c-.12-3.94-.36-7.89-.74-11.81a127.51,127.51,0,0,0-4.24-23.09c-.53-1.88-1.18-3.69-1.81-5.53s-1.4-3.58-2.25-5.29a46.74,46.74,0,0,0-6-9.6,28.64,28.64,0,0,0-8.49-7,27.71,27.71,0,0,0-10.66-3"/><path class="c" d="M991.09,165.68l1.79,11.71-2.55,9.82a8.15,8.15,0,0,0-2.15-6.23l-1.7-3.45-3.89,9.59a1.05,1.05,0,1,0-1.77.74l-.58-12.18-1.54,3-.42-3.09-5,7.76a26.75,26.75,0,0,1,1.51-20.66l-.69-.64,1.56-2.3-7.53-2.12-2.54-5.07,7.91-.19-2.12-2.23,4.11-.43-4.57-4.41a13.9,13.9,0,0,1,13.23,8l.48-3a11.48,11.48,0,0,1,4.15,7.17"/><path class="c" d="M982.61,164.47a14.43,14.43,0,0,0-8.46,8.74c.17.09.39-.16.28-.32"/><path class="c" d="M984,168.81l-1.74,7.06"/><path class="c" d="M983.46,157.76,975,155.53"/><path class="c" d="M945.85,230.13l9.27-10.08,12.42-.09L951.59,237.8Z"/><polyline class="c" points="945.86 230.13 934.68 229.86 938.5 237.22 951.59 237.8"/><path class="c" d="M964.78,223.09l3.83,13.42"/><path class="c" d="M955.93,232.86c.46,1.81.91,1.83,1.37,3.65"/><polygon class="c" points="900.61 237.39 890.52 220.3 903.87 221.11 909.86 230.1 924.3 230.65 914.59 237.47 900.61 237.39"/><path class="c" d="M900.24,237.57c3-2.61,6.84-4.68,9.8-7.28"/><path class="c" d="M884.91,238.26a141.79,141.79,0,0,1,7.17-13.3l-.38.42c.68-.9.38-.76,1.06-1.65"/><path class="c" d="M897.77,233.86l-2.48,4.66"/><path class="b" d="M1017.55,168.43a7.42,7.42,0,0,0-.8-5.73,22.41,22.41,0,0,0-3.74-4.62l-4.2-4.32a24.74,24.74,0,0,0-5-4.32,8.23,8.23,0,0,0-6.39-1.05,5,5,0,0,0-3.7,4.92"/><polyline class="d" points="1007.99 162.29 1007.99 154.28 1078.28 128.49"/><line class="d" x1="1007.99" y1="237.34" x2="1007.99" y2="170.79"/><path class="d" d="M1046.15,140l-1.87-8.62-.21-1c-1.88-.42-3.49-.75-5.37-1.17l-1,.51L1024.77,136l.15.86.08,10.61"/><path class="d" d="M1038.73,134.32l-.06,8.18"/><line class="d" x1="1078.28" y1="114.68" x2="1078.28" y2="236.84"/><line class="d" x1="1146.41" y1="114.68" x2="1146.41" y2="236.84"/><path class="e" d="M1126.11,196.38l-.61,40.46a.9.9,0,0,1-1.79,0l-.6-40.46a1.5,1.5,0,1,1,3,0Z"/><path class="d" d="M1102.67,236.84v-41a11.6,11.6,0,0,1,10.14-9.3,11.41,11.41,0,0,1,7.29,2c2.77,1.9,4.51,4.41,4.51,7.84"/><path class="d" d="M1102.67,172.7V156.86a11.6,11.6,0,0,1,10.14-9.3,11.41,11.41,0,0,1,7.29,2c2.77,1.9,4.51,4.41,4.51,7.84v14.29"/><path class="d" d="M1102.63,172.33a191.56,191.56,0,0,1,20.89-.27"/><line class="d" x1="1097.11" y1="156.43" x2="1097.11" y2="173.15"/><path class="d" d="M1136.26,172.33v0Z"/><path class="d" d="M1129.49,155.71c.07,2.24.18,4.48.26,6.72v8.9"/><line class="d" x1="1090.81" y1="156.58" x2="1090.81" y2="173.68"/><polyline class="d" points="1207.75 144.55 1228.85 151.01 1228.85 236.84"/><line class="d" x1="1146.41" y1="125.76" x2="1188.77" y2="138.73"/><path class="b" d="M1182.7,153.49l.06-12.11v-4.26h-36"/><line class="b" x1="1182.76" y1="236.25" x2="1182.76" y2="159.07"/><path class="d" d="M1149.47,114.68a214.12,214.12,0,0,0-73.53,0V89.62a213.62,213.62,0,0,1,73.53,0Z"/><path class="d" d="M1078.33,89.62c1-26.13,15.87-46.85,34-46.85s33,20.72,34,46.85"/><path class="d" d="M1121.1,30.77V13.56c-.27-6.72-4.09-12.06-8.76-12.06s-8.49,5.34-8.75,12.06V30.77"/><path class="d" d="M1089.36,88.17c1-25.44,10.92-45.4,23-45.4s21.87,19.77,23,45"/><path class="d" d="M1097.4,86.89c0-28.15,14.94-37.59,14.94-37.59s14.92,6.35,14.92,37.29"/><polyline class="d" points="1100.07 46.1 1100.07 30.77 1124.05 30.77 1124.05 45.79"/><path class="d" d="M1110.29,13.72a2.51,2.51,0,0,1,2.81-2,2.56,2.56,0,0,1,2,2.84V31"/><polyline class="b" points="1055.39 236.59 1055.39 138.38 1078.28 136.88"/><path class="d" d="M1116.78,140a7.7,7.7,0,0,0,2.7-.82,3,3,0,0,0,1.54-2.25,1.9,1.9,0,0,0-1.56-2l4.72-3.2a2.47,2.47,0,0,0,1-1,2.05,2.05,0,0,0-.39-1.83c-1.24-1.85-3.48-2.71-5.3-4a24.42,24.42,0,0,1-5.53-6.34l-6.58,7"/><path class="d" d="M1079.68,109l.42-13.82a31.22,31.22,0,0,0,10.16-2.39,8.79,8.79,0,0,0,10.35,11.59l-.38-4.77H1109l1.18,4.44a6.67,6.67,0,0,0,9.71-8.84c4.71,2.25,11.37-1.88,15.14,1.74,2.7,2.59,1.58,7,.28,10.55l5.32-.44.8-11.26a6,6,0,0,1,5,.55"/><polygon class="d" points="6.63 237.27 373.15 237.27 342.63 220.92 34.96 220.92 6.63 237.27"/><path class="f" d="M374.5,249.74a17.4,17.4,0,0,1-31.09-1.92,17.39,17.39,0,0,1-31.08,1.92,17.39,17.39,0,0,1-31.08-1.92,17.4,17.4,0,0,1-31.09,1.92,17.39,17.39,0,0,1-31.08-1.92,17.39,17.39,0,0,1-16,10.62,17,17,0,0,1-15.06-8.7,17.4,17.4,0,0,1-31.09-1.92,17.37,17.37,0,0,1-16,10.62,16.63,16.63,0,0,1-15.06-8.7,17.38,17.38,0,0,1-15.06,8.7c-7.2,0-13.07-4.39-16-10.62a17.39,17.39,0,0,1-16,10.62,17.08,17.08,0,0,1-15.06-8.7,17.4,17.4,0,0,1-31.09-1.92A17.39,17.39,0,0,1,1.5,249.74"/><path class="g" d="M36.41,221.34A158.89,158.89,0,0,1,32,199.4a198.75,198.75,0,0,1-1.61-24.73,201.25,201.25,0,0,1,1.47-24.76,157,157,0,0,1,5-24.43,90,90,0,0,1,10-23.33A41.43,41.43,0,0,1,55.68,92a22.25,22.25,0,0,1,13.71-5.28A22.41,22.41,0,0,1,83.25,91.8a41.73,41.73,0,0,1,9,10.09A91.6,91.6,0,0,1,103,125.17a166.47,166.47,0,0,1,7.06,49.5,166.64,166.64,0,0,1-6.55,46.88m-9.89-.15c1-3.77,1.86-7.6,2.56-11.46s1.2-7.76,1.64-11.67a211.25,211.25,0,0,0,1.24-23.6,210.9,210.9,0,0,0-1.36-23.59c-.47-3.9-1-7.79-1.72-11.65s-1.58-7.66-2.62-11.42c-2.06-7.48-4.77-14.83-8.7-21.16a33,33,0,0,0-6.86-8.16,13.83,13.83,0,0,0-8.4-3.52,13.84,13.84,0,0,0-8.54,3.33,33.37,33.37,0,0,0-7.13,8.09,82,82,0,0,0-9.34,21.11,148.2,148.2,0,0,0-4.81,23.19A194.56,194.56,0,0,0,38,174.67a190.94,190.94,0,0,0,1.4,23.79,149.11,149.11,0,0,0,4.67,23.25"/><path class="g" d="M98.62,113c.57-1,1.18-2.05,1.82-3.05a39.29,39.29,0,0,1,8.33-9.62,19.68,19.68,0,0,1,26-.17,39.89,39.89,0,0,1,8.56,9.55,86.86,86.86,0,0,1,10.11,22.08,158.17,158.17,0,0,1,6.68,47,160.08,160.08,0,0,1-5.61,42.53m-64.44.16a152.29,152.29,0,0,1-3.7-19.2,188.56,188.56,0,0,1-1.53-23.49,190.66,190.66,0,0,1,1.4-23.51,148.25,148.25,0,0,1,4.7-23.19c.54-1.86,1.12-3.7,1.75-5.54M96,140.71a151.77,151.77,0,0,0-2.81,15.49,184.83,184.83,0,0,0-.12,45.25,144.36,144.36,0,0,0,3.76,19.65m48.58.25q1.11-4.44,1.93-9c.66-3.68,1.15-7.39,1.58-11.11a200.41,200.41,0,0,0,1.18-22.46,195.57,195.57,0,0,0-1.3-22.45c-.44-3.71-1-7.42-1.64-11.08s-1.51-7.3-2.5-10.87a76.74,76.74,0,0,0-8.31-20.16,31.66,31.66,0,0,0-6.57-7.8,13.29,13.29,0,0,0-8.09-3.37,13.36,13.36,0,0,0-8.23,3.2,31.73,31.73,0,0,0-6.8,7.73,63.07,63.07,0,0,0-4.54,8.34"/><path class="h" d="M149,119.72q.57-1,1.17-1.92a36.91,36.91,0,0,1,7.93-9.15,19.93,19.93,0,0,1,12.35-4.76A20.21,20.21,0,0,1,183,108.47a37.92,37.92,0,0,1,8.16,9.09,82.23,82.23,0,0,1,9.62,21,149.12,149.12,0,0,1,6.36,44.54,152.32,152.32,0,0,1-4.67,37.79m-62.72.14a147.24,147.24,0,0,1-2.88-15.67,179,179,0,0,1-.12-44.53,140,140,0,0,1,4.45-22c.69-2.36,1.44-4.71,2.29-7m3.47,13a138.11,138.11,0,0,0-3.24,16.95,175.65,175.65,0,0,0-1.38,21.39,173.89,173.89,0,0,0,1.26,21.41,137.52,137.52,0,0,0,3.12,16.91m46.42.22q.8-3.37,1.42-6.81c.61-3.47,1.07-7,1.47-10.5a190.22,190.22,0,0,0,1.11-21.23,187.72,187.72,0,0,0-1.22-21.21c-.42-3.51-.9-7-1.54-10.48s-1.43-6.89-2.36-10.27a72.86,72.86,0,0,0-7.81-19,29.89,29.89,0,0,0-6.17-7.33,10.92,10.92,0,0,0-15.19-.17,29.91,29.91,0,0,0-6.4,7.26,58.75,58.75,0,0,0-4,7.23"/><path class="i" d="M196.81,128.29l.62-1a34.74,34.74,0,0,1,7.4-8.54,17.61,17.61,0,0,1,23.22-.16,35.35,35.35,0,0,1,7.62,8.48,77,77,0,0,1,9,19.55,139.57,139.57,0,0,1,5.94,41.55,143.57,143.57,0,0,1-3.81,33m-59.62.22c-.93-4.13-1.64-8.29-2.19-12.47a167.12,167.12,0,0,1-.11-41.53,129.32,129.32,0,0,1,4.15-20.5c.73-2.51,1.54-5,2.47-7.48m2.92,13.23a131.48,131.48,0,0,0-3,15.59,161.77,161.77,0,0,0-1.28,19.94,160.14,160.14,0,0,0,1.17,20,134.15,134.15,0,0,0,2.29,13.24M238.1,221c.23-1.1.44-2.19.64-3.3.57-3.24,1-6.51,1.37-9.78a176.47,176.47,0,0,0,1-19.78A173.65,173.65,0,0,0,240,168.4c-.39-3.28-.84-6.54-1.43-9.77s-1.33-6.42-2.19-9.57a67.58,67.58,0,0,0-7.28-17.73,28,28,0,0,0-5.74-6.83,10.14,10.14,0,0,0-14.1-.16,28,28,0,0,0-6,6.76,55.34,55.34,0,0,0-3,5.27"/><path class="j" d="M241,137.5c.32-.56.65-1.11,1-1.66a34,34,0,0,1,6.92-8.28,16.38,16.38,0,0,1,22.18-.15,34.15,34.15,0,0,1,7.12,8.22,75.21,75.21,0,0,1,8.36,18.76,137,137,0,0,1,5.51,39.69,143.64,143.64,0,0,1-2.57,27m-58-.11c-.42-2.35-.77-4.72-1.07-7.09a163.85,163.85,0,0,1-.11-39.67,129.55,129.55,0,0,1,3.84-19.6c.58-2,1.21-4.08,1.91-6.1m3,12.69a145.11,145.11,0,0,0-3.67,32.85,151.71,151.71,0,0,0,2.31,27.28m43.36-.37c.43-2.65.77-5.31,1.05-8a175.67,175.67,0,0,0,.95-18.93,170.53,170.53,0,0,0-1.06-18.91,123.69,123.69,0,0,0-3.36-18.52,66.36,66.36,0,0,0-6.77-17.06,27.11,27.11,0,0,0-5.38-6.63,9.25,9.25,0,0,0-13.27-.15,27.31,27.31,0,0,0-5.59,6.57,51.68,51.68,0,0,0-3.47,6.5"/><path class="k" d="M282.43,143.38c.33-.59.67-1.18,1-1.76a31.89,31.89,0,0,1,6.56-7.85,15.4,15.4,0,0,1,20.88-.14,32.35,32.35,0,0,1,6.75,7.8,71.48,71.48,0,0,1,7.92,17.86,131.15,131.15,0,0,1,5.24,37.83,139,139,0,0,1-2.07,23.81m-55.5.6a152.63,152.63,0,0,1-2-24.41A139,139,0,0,1,276,159.51c.51-1.83,1.07-3.65,1.7-5.45m2.7,11.13a137.78,137.78,0,0,0-3.63,31.93,146.88,146.88,0,0,0,1.84,23.9m42.51.19q.44-3,.75-6a168.18,168.18,0,0,0,.93-18.11,165.67,165.67,0,0,0-1-18.1,118.38,118.38,0,0,0-3.24-17.72A63.65,63.65,0,0,0,312,145a26.1,26.1,0,0,0-5.19-6.38,9.08,9.08,0,0,0-13-.14,26.36,26.36,0,0,0-5.38,6.34,50.14,50.14,0,0,0-3.12,5.79"/><path class="l" d="M322.4,151c.59-1.16,1.23-2.31,1.93-3.44a30.6,30.6,0,0,1,6.26-7.49,15.76,15.76,0,0,1,10-4A15.92,15.92,0,0,1,350.62,140a30.65,30.65,0,0,1,6.44,7.44,67.66,67.66,0,0,1,7.56,17,124.36,124.36,0,0,1,5,36,133.82,133.82,0,0,1-1.69,20.95c-.73,4.44-1.11,7.69-2.82,11.85m-50.88-12a149.2,149.2,0,0,1-1.52-20.78,132.24,132.24,0,0,1,4.53-35.76c.39-1.37.8-2.74,1.25-4.11m6.81-1.77a51.26,51.26,0,0,1,4.05-8,24.6,24.6,0,0,1,5.08-6,8.46,8.46,0,0,1,12.12.13,24.53,24.53,0,0,1,4.9,6,60.67,60.67,0,0,1,6.15,15.48,111.5,111.5,0,0,1,3,16.81,158.33,158.33,0,0,1,1,17.16,161.16,161.16,0,0,1-.87,17.17,35.66,35.66,0,0,1-.95,5.62c-.5,1.8-1.48,3.39-2,5.17m-38.08-7a141.73,141.73,0,0,1-1.48-21,134.66,134.66,0,0,1,2.7-27"/><line class="m" x1="33.4" y1="226.61" x2="33.4" y2="236.81"/><polyline class="l" points="19.57 229.41 19.57 211.35 25.63 211.35 25.3 226.14"/><polyline class="l" points="350.7 225.16 350.7 212.81 355.08 212.81 355.06 227.34"/><line class="m" x1="50.66" y1="223.52" x2="50.66" y2="238.15"/><path class="m" d="M68.82,226.25v10.24"/><line class="m" x1="87.35" y1="224.25" x2="87.35" y2="237.72"/><line class="m" x1="104.96" y1="228.06" x2="104.96" y2="238.07"/><line class="m" x1="122.94" y1="224.43" x2="122.94" y2="237.54"/><line class="m" x1="141.47" y1="225.34" x2="141.47" y2="236.96"/><line class="m" x1="159.09" y1="225.88" x2="159.09" y2="237.73"/><line class="m" x1="176.52" y1="227.34" x2="176.52" y2="237.61"/><line class="m" x1="193.96" y1="226.97" x2="193.96" y2="237.33"/><line class="m" x1="212.3" y1="226.25" x2="212.3" y2="237.2"/><line class="m" x1="231.19" y1="225.52" x2="231.19" y2="238.05"/><line class="m" x1="248.63" y1="226.43" x2="248.63" y2="237.69"/><line class="m" x1="266.79" y1="224.07" x2="266.79" y2="236.78"/><line class="m" x1="285.14" y1="228.25" x2="285.14" y2="237.15"/><line class="m" x1="302.93" y1="225.88" x2="302.93" y2="237.69"/><line class="m" x1="321.28" y1="229.7" x2="321.28" y2="237.36"/><line class="m" x1="338.9" y1="225.52" x2="338.9" y2="237.16"/><path class="b" d="M1223.19,130c-15.52,17.12-36.57,28.75-58.07,33.89a.85.85,0,0,1-1-.57h0a.83.83,0,0,1,.48-1,107,107,0,0,0,48.92-39.57Z"/><path class="b" d="M1183.92,157.4c-.24,2.27-.48,4.53-.82,6.79-.1.71-.29,1.42-.37,2.14a3.48,3.48,0,0,0,.17,1.57,2.14,2.14,0,0,0,.37.64,15.83,15.83,0,0,1,1.37,2.28c3.09,5.46,6,11,9.18,16.43a12,12,0,0,1,9.85-8.91L1195,168.2a11.72,11.72,0,0,1-2.34-3.51,46.35,46.35,0,0,1,2-12.79"/><path class="b" d="M1188.88,137.85a372.32,372.32,0,0,1,22.16-33c3.07-4.08,3.58-9.29,7-13.08a74.74,74.74,0,0,1,11.69-9.88,24,24,0,0,1,7.23-4.06c4.31-1.25,8.91,0,13.24,1.19"/><path class="b" d="M1184.64,151.33c.7-4.77,1.8-9.39,4.24-13.48"/><path class="b" d="M1249.71,79.47c2.16-3.62,6.77-5.17,11-4.86s8.11,2.13,11.91,3.93c3.48,1.65,7.13,3.43,9.27,6.63a21.68,21.68,0,0,1,2.61,7l2.89,11.84c.49,2,.89,4.32-.47,5.84s-4.28,1.68-5,3.67c-.57,1.57.66,3.25.59,4.93s-1.54,3.12-2.91,4.26l-11.93,9.94-4.51,3.75-15.25,12.71q-2.26-8.94-5.41-17.63l-.87-2.14c-.45-1.11-.54-2.08-2.75-2.77l-.14,0a7.51,7.51,0,0,0-4.48,1.1,26.88,26.88,0,0,0-6.87,5.21,1.77,1.77,0,0,1-2.9-.47l-1.31-2.74"/><path class="b" d="M1228.24,100.11a4,4,0,0,0,1.88,5.89"/><path class="b" d="M1228.12,103.85a5.42,5.42,0,0,0,5-2.14"/><path class="b" d="M1228.41,101.37l4.36.64"/><path class="b" d="M1225.61,98.59a19.7,19.7,0,0,1,7.52,3.74"/><ellipse class="c" cx="1277.07" cy="63.17" rx="10.72" ry="3.1"/><path class="b" d="M1404.61,46.51a182.93,182.93,0,0,1-60.11,7.38,182.93,182.93,0,0,1-59.07-13.37,176.54,176.54,0,0,1,119.18,6Z"/><ellipse class="c" cx="1343.44" cy="78.86" rx="42.95" ry="6.24"/><path class="b" d="M1298.24,93.39c0-3.45,21.12-6.24,47.17-6.24s47.17,2.79,47.17,6.24c0,.43-.33.86-1,1.26"/><path class="c" d="M1386.52,80.2A42.1,42.1,0,0,1,1398,78.83c8.57,0,15.51,1.89,15.51,4.23s-6.94,4.23-15.51,4.23a52.34,52.34,0,0,1-6.5-.39"/><path class="b" d="M1394,96.84a42.56,42.56,0,0,1,11.44-1.37c8.57,0,15.52,1.9,15.52,4.23s-7,4.23-15.52,4.23c-1.29,0-2.55,0-3.75-.12"/><path class="c" d="M1413.73,82.11c-.42,1.21.47,2.52,1.53,3.26a20.87,20.87,0,0,1,3.23,2.11,7.09,7.09,0,0,1,1.55,4.94,20.31,20.31,0,0,0,.27,5.29l.43-.48"/><path class="b" d="M1298.76,92.53a4.1,4.1,0,0,1-4.12-.67,20.72,20.72,0,0,1-3-3.18,18.71,18.71,0,0,0-11.6-6"/><path class="c" d="M1266.65,64.41l1.75,10.88.36-.41"/><path class="c" d="M1288,62.88a109.91,109.91,0,0,0,12,16.72"/><path class="c" d="M1336,80.84c-.88.32-2.13.39-2.51-.47a1.41,1.41,0,0,1,.57-1.63,3.89,3.89,0,0,1,1.76-.57,73.3,73.3,0,0,1,22.76.14c.94.16,2.16.76,1.87,1.66-.19.6-.93.78-1.54.88L1346,82.79l-.75,1.82"/><path class="b" d="M1306.59,41.51c1.17,14.91,2.64,32.58,3.81,47.49"/><path class="b" d="M1383.19,44.53a235.14,235.14,0,0,0-1.55,44.85"/><path class="b" d="M1392.54,95q14.09,12.65,27.31,26.22c2.21,2.27,4.44,4.61,5.77,7.48,1.49,3.21,1.73,6.84,2,10.37.41,6.46.77,13.21-1.87,19.12a12.58,12.58,0,0,1-5.27-4.77l.11,1.44a59.16,59.16,0,0,1-2.77,18.44c-.77,2.44-1.72,4.89-1.66,7.45.08,2.95,1.48,5.68,2.84,8.29l12.43,23.72c2.71,5.18,4.54,10,7.25,15.16-7.43,2.89-16,5.91-24.44,7.07A12.08,12.08,0,0,1,1417,224"/><path class="b" d="M1404,173.42c-1.11,6.6-2.27,9.8-2.38,16.49a62.35,62.35,0,0,0,1.79,13.56c1.84,8.82,3.68,17.64,5.79,26.4a203.19,203.19,0,0,1-25.54,6,15.3,15.3,0,0,1,3.37-11.5,119.17,119.17,0,0,0-6.8-16.31"/><path class="b" d="M1406.66,164.12c.35-.64.72-1.27,1.08-1.91a10.23,10.23,0,0,0,1.44-4.09c.11-1.45.08-3.82-1.35-4.12-10.2-2.18-30.72-3.66-54.38-3.66-23.22,0-43.43,1.43-53.81,3.54-2.43.49-1.9,4-1,6.33a14,14,0,0,0,2.84,3.39"/><path class="b" d="M1383.46,237.31a258.68,258.68,0,0,1-61.43,0q5-41,9.94-82a176.15,176.15,0,0,0,41.56,0Z"/><path class="b" d="M1331.16,164.93a185.6,185.6,0,0,0,43.18,0"/><path class="b" d="M1330.09,174a195.16,195.16,0,0,0,45.32,0"/><path class="b" d="M1329,183a203.79,203.79,0,0,0,47.48,0"/><path class="b" d="M1327.93,192a212.42,212.42,0,0,0,49.64,0"/><path class="b" d="M1326.86,201.08a222,222,0,0,0,51.78,0"/><path class="b" d="M1325.78,210.12a231.7,231.7,0,0,0,53.94,0"/><path class="b" d="M1324.7,219.15a240.33,240.33,0,0,0,56.1,0"/><path class="b" d="M1323.63,228.19a249.89,249.89,0,0,0,58.24,0"/><path class="b" d="M1268.69,131.76c4.86,11,8.51,22.09,13.37,33a18.83,18.83,0,0,1,2,6.84c.1,3-1.22,5.82-2.27,8.63a50.93,50.93,0,0,0-.56,33.68c.9,2.68,2,5.57,1.12,8.24-.7,2-2.45,3.48-4,5a15.15,15.15,0,0,0-2.78,4,3.47,3.47,0,0,0-.19,1.78,10.38,10.38,0,0,0,1.18,4.29l16.88-4.5"/><path class="b" d="M1293.7,173.69c-.08.61-1.72,5.29-1.77,5.92a84.56,84.56,0,0,0,0,15.91c1,10.07,4.82,20.23,12.31,27a17.52,17.52,0,0,0-2.83,10.46c.07,1.22.42,2.64,1.55,3.09s2.25-.27,3.2-.93c1.72-1.21,3.63-2.2,5.47-3.25l5.42-3.09"/><path class="b" d="M1323.7,220.57l-10.2-16.2a15.12,15.12,0,0,1-2.21-4.64c-.52-2.42.18-4.92.89-7.3l4.36-14.77c.4-1.35-.17,1.92,1.14,1.4a9.23,9.23,0,0,1,4.19-.29l6.64.57-.27.31"/><path class="b" d="M1241.93,127.12c-2.3-6.71-4.61-13.91-2.73-20.75,2.09-7.58,9-13.33,10.22-21.11"/><path class="m" d="M1317,116.07l7.81-10.17a3.49,3.49,0,0,1,5.4-.17l9,10.34v34.27"/><path class="m" d="M1370.07,118.89l8.06-9.28a2.62,2.62,0,0,1,3.95,0l8.06,9.28v32.78"/><rect class="b" x="1448.83" y="96.03" width="158.1" height="141.46"/><rect class="b" x="1456.84" y="54.23" width="49.06" height="183.26"/><rect class="b" x="1550.48" y="54.23" width="49.06" height="183.26"/><path class="b" d="M1505.89,96.18c0-.15,23.4-28.25,23.4-28.25l21.19,28.25"/><path class="c" d="M1505.89,203.71c.17-7.57,5.1-14.89,12.32-18.28a24.09,24.09,0,0,1,23,1.71,20.83,20.83,0,0,1,9.1,19.87"/><path class="b" d="M1527.7,151.65l-21.48,43.66"/><path class="c" d="M1527.84,151.18c7.44,15.71,15.2,31.21,22.64,46.91"/><path class="c" d="M1466.86,208.28a14.72,14.72,0,0,1,29.38,1.12"/><line class="b" x1="1466.87" y1="208.28" x2="1466.87" y2="238.13"/><line class="b" x1="1496.24" y1="207.42" x2="1496.24" y2="237.21"/><path class="b" d="M1481.74,175.36c-4,9.12-12.69,21.31-14.37,30.2"/><path class="c" d="M1482,174.88c4.47,9.52,11.37,20.43,14.23,32.54"/><path class="c" d="M1559.32,208.28a14.72,14.72,0,0,1,29.38,1.12"/><line class="b" x1="1559.34" y1="208.28" x2="1559.34" y2="238.13"/><line class="b" x1="1588.7" y1="207.42" x2="1588.7" y2="237.21"/><path class="b" d="M1574.21,175.36c-4,9.12-12.38,20.88-14.37,30.2"/><path class="c" d="M1574.46,175c4.56,9.25,10.81,20.32,14.24,32.41"/><path class="b" d="M1472.8,69.91a20.73,20.73,0,0,1,1.81-6.61,7,7,0,0,1,5.31-3.93c2.51-.2,4.86,1.48,6.19,3.61a20.81,20.81,0,0,1,2.31,7.13"/><line class="b" x1="1472.52" y1="70.56" x2="1472.52" y2="95.15"/><line class="b" x1="1488.42" y1="70.13" x2="1488.42" y2="95.48"/><path class="b" d="M1566.88,72.27a14,14,0,0,1,2-7.84,7.24,7.24,0,0,1,7-3.37c2.5.46,4.44,2.59,5.39,5a22.64,22.64,0,0,1,1.16,7.51"/><line class="b" x1="1566.73" y1="72.06" x2="1566.73" y2="95.76"/><path class="b" d="M1582.23,72.7c.07.43.1.86.17,1.29V96.12"/><path class="c" d="M1457.11,54a66.65,66.65,0,0,1,4.13-37.18,6.31,6.31,0,0,0,.28,1c.14.5.27,1,.41,1.5.26,1,.52,2,.76,3,2.35,9.56,5,20.4,3.19,30.38-.08.44-.17.89-.26,1.33"/><path class="c" d="M1496.88,54A66.47,66.47,0,0,1,1501,16.83a5.38,5.38,0,0,0,.27,1c.14.5.28,1,.41,1.5.26,1,.52,2,.76,3,2.35,9.56,5,20.4,3.19,30.38-.08.44-.16.89-.26,1.33"/><path class="c" d="M1558.91,54a66.47,66.47,0,0,0-4.13-37.18,5.38,5.38,0,0,1-.27,1c-.14.5-.28,1-.41,1.5-.26,1-.52,2-.76,3-2.35,9.56-5,20.4-3.19,30.38.08.44.16.89.26,1.33"/><path class="c" d="M1598.52,54a66.47,66.47,0,0,0-4.13-37.18,6.32,6.32,0,0,1-.27,1c-.14.5-.28,1-.41,1.5-.27,1-.52,2-.77,3-2.34,9.56-5,20.4-3.18,30.38.08.44.16.89.25,1.33"/><line class="b" x1="1464.79" y1="54.88" x2="1464.79" y2="96.33"/><line class="b" x1="1497" y1="54.67" x2="1497" y2="95.99"/><line class="b" x1="1559.07" y1="54.45" x2="1559.07" y2="95.5"/><path class="b" d="M1590.42,54.67V95.91"/><path class="c" d="M1511.65,126.82a17.5,17.5,0,0,1,8.24-14.66,16.44,16.44,0,0,1,16.45-.11,17.45,17.45,0,0,1,8.42,14.54"/><path class="b" d="M1528.2,98.12c-8.54,2.52-15.24,9.73-18.37,18.06s-1.12,17.67,1,26.33h34"/><path class="b" d="M1528.49,98.12c8.54,2.52,15.24,9.73,18.37,18.06s1.12,17.67-.95,26.33h-34"/><line class="c" x1="1550.26" y1="147.44" x2="1507.05" y2="147.44"/><line class="c" x1="1466.51" y1="50.8" x2="1495.93" y2="50.8"/><path class="c" d="M1559.5,50.8h29.85"/><line class="b" x1="1466.94" y1="208.86" x2="1466.94" y2="130.9"/><line class="b" x1="1496.58" y1="208.43" x2="1496.58" y2="151.95"/><line class="b" x1="1559.5" y1="210.57" x2="1559.5" y2="112.43"/><line class="b" x1="1589.13" y1="210.36" x2="1589.13" y2="123.39"/><line class="b" x1="1516.96" y1="214.58" x2="1516.96" y2="236.92"/><line class="c" x1="1524.98" y1="214.87" x2="1524.98" y2="237.21"/><line class="c" x1="1517.11" y1="214.15" x2="1524.99" y2="214.15"/><line class="b" x1="1532" y1="214.58" x2="1532" y2="236.92"/><line class="c" x1="1540.01" y1="214.87" x2="1540.01" y2="237.21"/><line class="c" x1="1532.14" y1="214.15" x2="1540.03" y2="214.15"/><line class="g" x1="33.27" y1="237.34" x2="1665.31" y2="237.34"/><line class="g" x1="401.76" y1="250.17" x2="678.6" y2="250.17"/><line class="g" x1="1180.94" y1="263.8" x2="1504.61" y2="263.8"/><line class="g" x1="701.45" y1="252.35" x2="1013.77" y2="252.35"/><line class="g" x1="1292.64" y1="250.72" x2="1642.51" y2="250.72"/><line class="g" x1="1076.32" y1="250.72" x2="1234.47" y2="250.72"/><line class="g" x1="601.52" y1="263.8" x2="503.39" y2="263.8"/><path class="b" d="M875.65,128.19c-.58-3.27,2.28-6.23,5.35-7.5s6.5-1.51,9.54-2.86c2.37-1,4.52-2.79,7.09-3.1,3.64-.44,6.92,2,9.74,4.39a16.54,16.54,0,0,1,3.28,3.3,5.53,5.53,0,0,1,1,4.43"/><line class="g" x1="968.41" y1="265.48" x2="877.93" y2="265.48"/><line class="g" x1="860.53" y1="265.48" x2="824.56" y2="265.48"/><path class="n" d="M637.52,283v-87H660l35.81,46v-46h23.88v87H698.58L661.4,235.21V283Z"/><path class="n" d="M753.05,284.46q-9.94,0-16.29-5.48t-6.34-15.29v-.25q0-10.2,7.08-15.67t19.28-5.47A48,48,0,0,1,773,244.91v-1.12q0-10.95-13.43-10.94A50.16,50.16,0,0,0,741,236.58l-4.85-16.67a70.81,70.81,0,0,1,27.23-5.22q17.42,0,25.62,8.21,7.21,7.08,7.21,21.39V283H772.82v-7Q765.23,284.46,753.05,284.46Zm8.46-14.8a11.81,11.81,0,0,0,8.45-3.05,10.49,10.49,0,0,0,3.24-8v-3.11a23.41,23.41,0,0,0-9.21-1.74q-5.1,0-8,2.3a7.38,7.38,0,0,0-2.86,6v.25a6.73,6.73,0,0,0,2.3,5.35A9,9,0,0,0,761.51,269.66Z"/><path class="n" d="M808.27,283V215.68h23.62v9.45q8.46-10.94,20.15-10.94,10.69,0,16.79,6.65t6.09,18.1v44H851.29V246.53q0-5.35-2.54-8.34a8.62,8.62,0,0,0-6.91-3,9.31,9.31,0,0,0-7.21,3c-1.82,2-2.74,4.77-2.74,8.34V283Z"/><path class="n" d="M913.85,284.33q-22.64,0-22.64-22.26V234.71h-8v-19h8v-17h23.63v17h15.67v19H914.84v22.76q0,6.72,6.47,6.71a21,21,0,0,0,9-2.23v18.53A33,33,0,0,1,913.85,284.33Z"/><path class="n" d="M972.17,284.58q-15.92,0-26-9.7t-10.07-25.25v-.24q0-14.92,9.57-25.06t24.38-10.14q16.53,0,25.24,10.45T1004,251c0,2.16,0,3.78-.12,4.85h-45q2.85,11.07,14.55,11.07,8,0,14.92-6.84l13.06,10.82Q990.59,284.58,972.17,284.58Zm-13.68-40.79h23.38a14.94,14.94,0,0,0-3.73-8.89,10.44,10.44,0,0,0-8-3.3,10,10,0,0,0-7.64,3.3A17.2,17.2,0,0,0,958.49,243.79Z"/><path class="n" d="M1040.82,284.46a53.09,53.09,0,0,1-31.84-9.95l8.83-14.31q11.7,7.73,23.14,7.72c4,0,6-1.21,6-3.61v-.25c0-1.16-.78-2.11-2.36-2.86a61.73,61.73,0,0,0-8.46-2.86,85.63,85.63,0,0,1-9.51-3,37.15,37.15,0,0,1-7.34-3.91,15.23,15.23,0,0,1-5.28-6.1,19.64,19.64,0,0,1-1.74-8.52v-.24q0-10.46,7.52-16.36t19.46-5.9a50.21,50.21,0,0,1,27.74,7.83l-8.09,14.92q-11.19-6.21-19.89-6.21c-3.65,0-5.48,1.07-5.48,3.23v.25c0,1.16.79,2.13,2.37,2.92a61.35,61.35,0,0,0,8.58,3.05q11.8,3.36,17.84,7.89t6,13.5V262q0,10.82-7.46,16.66T1040.82,284.46Z"/><line class="g" x1="1131.6" y1="283.72" x2="972.15" y2="283.72"/><line class="g" x1="739.86" y1="288.89" x2="547.22" y2="288.89"/><line class="g" x1="863.98" y1="295.35" x2="973.94" y2="295.35"/><line class="g" x1="944.14" y1="286.3" x2="798.02" y2="286.3"/><line class="g" x1="997.14" y1="294.06" x2="1029.49" y2="294.06"/></svg>