<?xml version="1.0" encoding="UTF-8"?>
<svg width="119px" height="1001px" viewBox="0 0 119 1001" version="1.1" xmlns="http://www.w3.org/2000/svg" xmlns:xlink="http://www.w3.org/1999/xlink">
    <!-- Generator: Sketch 52.5 (67469) - http://www.bohemiancoding.com/sketch -->
    <title>bg-left-sm</title>
    <desc>Created with Sketch.</desc>
    <g id="Symbols" stroke="none" stroke-width="1" fill="none" fill-rule="evenodd" opacity="0.1">
        <g id="Background-sm" fill-rule="nonzero">
            <g id="background-sm">
                <g id="bg-left-sm">
                    <rect id="Rectangle" fill="#FFFFFF" x="0" y="0" width="118" height="1001"></rect>
                    <path d="M36.0495121,452.471157 L32.282606,451.143497 L34.9334717,443.597022 L38.7003778,444.924683 C44.4418582,446.94829 50.0108997,449.409557 55.3612467,452.283067 L58.8805844,454.173198 L55.1066656,461.223703 L51.5873278,459.333573 C46.597431,456.653649 41.4037986,454.358296 36.0495121,452.471157 Z" id="Stroke-1" fill="#ED3E24"></path>
                    <path d="M97.2048288,609.682649 L99.0849404,606.153727 L106.130942,609.92027 L104.25083,613.449191 C92.2752068,635.927133 73.341009,654.070752 50.3761752,665.043425 L46.7719281,666.765546 L43.3334651,659.544936 L46.9377121,657.822815 C68.3615319,647.586444 86.0319735,630.653814 97.2048288,609.682649 Z" id="Stroke-9" fill="#ED3E24"></path>
                    <path d="M77.4354866,478.505333 L74.6024348,475.686323 L80.2309945,470.010697 L83.0640463,472.829707 C105.406262,495.061183 118.201981,525.219384 118.201981,557.40032 C118.201981,571.04514 115.910484,584.382446 111.477402,596.992884 L110.151068,600.765803 L102.61789,598.108675 L103.944225,594.335756 C108.078235,582.576063 110.215404,570.137002 110.215404,557.40032 C110.215404,527.372341 98.2834628,499.249976 77.4354866,478.505333 Z" id="Stroke-11" fill="#ED3E24"></path>
                    <path d="M0,660.21967 L0,652.219413 C51.9137602,651.789522 93.8643248,609.502313 93.8643248,557.40032 L93.8643248,553.40032 L101.850902,553.40032 L101.850902,557.40032 C101.850902,613.920592 56.3246984,659.789574 0,660.21967 Z M0,454.580946 C41.2998146,454.899223 77.9469607,479.870159 93.7821315,517.375032 L95.3376055,521.0591 L87.9818311,524.175277 L86.4263571,520.491208 C71.8304288,485.921425 38.0629656,462.899275 7.79774654e-08,462.581257 L0,454.580946 Z" id="Shape" fill="#231F20"></path>
                    <path d="M18.2981908,487.100471 L14.4443573,486.052615 L16.5365528,478.331993 L20.3903864,479.379849 C47.8805605,486.854417 69.5373897,508.508545 77.0512211,536.029794 L78.1046165,539.888113 L70.400926,541.998445 L69.3475306,538.140126 C62.5800215,513.352465 43.0576906,493.832569 18.2981908,487.100471 Z" id="Stroke-15" fill="#0068B4"></path>
                    <polygon id="Path" fill="#0068B4" points="0 630.23632 3.19495034 630.23632 3.19495034 638.23632 0 638.23632"></polygon>
                    <path d="M71.915294,557.40032 L71.915294,553.40032 L79.9018711,553.40032 L79.9018711,557.40032 C79.9018711,594.468552 54.7847778,626.52006 19.4557811,635.668214 L15.5895848,636.669334 L13.5907046,628.923946 L17.4569008,627.922826 C49.2815477,619.682094 71.915294,590.799545 71.915294,557.40032 Z" id="Stroke-23" fill="#0068B4"></path>
                    <path d="M0,615.74773 L0,607.746884 C13.2160288,607.539867 25.5624519,602.203972 34.7462957,593.004693 L37.5699772,590.176266 L43.2173401,595.83312 L40.3936586,598.661547 C29.7268832,609.34625 15.3567863,615.539835 0,615.74773 Z M0,499.052909 C15.2120065,499.258773 29.4562578,505.336094 40.0957185,515.843993 L42.9392664,518.652379 L37.3319179,524.349033 L34.4883701,521.540647 C25.3286806,512.494221 13.091236,507.258731 9.18186328e-08,507.053773 L0,499.052909 Z" id="Shape" fill="#FFDC00"></path>
                    <path d="M11.3870951,525.150739 L7.65239283,523.734732 L10.479655,516.252774 L14.2143573,517.668781 C24.5984948,521.605912 32.8428671,529.325933 37.5086012,539.169345 L39.2213374,542.782746 L32.0066611,546.213976 L30.2939249,542.600575 C26.5047953,534.606556 19.8220487,528.34884 11.3870951,525.150739 Z" id="Stroke-27" fill="#0068B4"></path>
                    <path d="M31.3973436,569.606475 L32.8115319,565.865707 L40.2805145,568.698837 L38.8663262,572.439605 C34.8299093,583.116612 26.8157607,591.529444 16.6327133,596.128697 L12.9923747,597.772884 L9.70951717,590.479971 L13.3498558,588.835783 C21.6214173,585.099868 28.1185001,578.279572 31.3973436,569.606475 Z" id="Stroke-33" fill="#0068B4"></path>
                    <path d="M0,541.655489 L0,533.648747 C12.7334173,534.070873 22.9257893,544.543353 22.9257893,557.40032 C22.9257893,570.257287 12.7334173,580.729767 0,581.151893 L0,573.145151 C8.32107897,572.728334 14.9392121,565.838549 14.9392121,557.40032 C14.9392121,548.962091 8.32107897,542.072306 3.13887618e-14,541.655489 Z" id="Path" fill="#ED3E24"></path>
                </g>
            </g>
        </g>
    </g>
</svg>