<?xml version="1.0" encoding="UTF-8"?>
<svg width="147px" height="1238px" viewBox="0 0 147 1238" version="1.1" xmlns="http://www.w3.org/2000/svg" xmlns:xlink="http://www.w3.org/1999/xlink">
    <!-- Generator: Sketch 52.5 (67469) - http://www.bohemiancoding.com/sketch -->
    <title>bg-left</title>
    <desc>Created with Sketch.</desc>
    <g id="Symbols" stroke="none" stroke-width="1" fill="none" fill-rule="evenodd" opacity="0.1">
        <g id="Background" fill-rule="nonzero">
            <g id="background" transform="translate(-3.000000, 0.000000)">
                <g id="bg-left">
                    <rect id="Rectangle" fill="#FFFFFF" x="0" y="0" width="150" height="1238"></rect>
                    <path d="M47.1376244,501.838946 L42.4210781,500.179371 L45.7402293,490.746278 L50.4567756,492.405854 C57.645688,494.935362 64.6186895,498.011946 71.3178635,501.603834 L75.7244292,503.966498 L70.9991023,512.779629 L66.5925365,510.416966 C60.3446826,507.067061 53.841731,504.19787 47.1376244,501.838946 Z" id="Stroke-1" fill="#ED3E24"></path>
                    <path d="M123.710248,698.353311 L126.064337,693.942159 L134.886641,698.650337 L132.532552,703.061489 C117.537864,731.158916 93.830339,753.83844 65.0760512,767.554281 L60.5631705,769.706932 L56.257868,760.681171 L60.7707488,758.528519 C87.5955315,745.733055 109.720706,724.567268 123.710248,698.353311 Z" id="Stroke-9" fill="#ED3E24"></path>
                    <path d="M98.9570378,534.381667 L95.4097713,530.857904 L102.457296,523.763371 L106.004562,527.287133 C133.97927,555.076479 150.0008,592.77423 150.0008,633.0004 C150.0008,650.056425 147.131614,666.728057 141.580949,682.491105 L139.920244,687.207253 L130.487947,683.885844 L132.148651,679.169695 C137.324849,664.470078 140.0008,648.921253 140.0008,633.0004 C140.0008,595.465426 125.060806,560.31247 98.9570378,534.381667 Z" id="Stroke-11" fill="#ED3E24"></path>
                    <path d="M2,761.524588 L2,751.524266 C67.0012627,750.986902 119.5276,698.127892 119.5276,633.0004 L119.5276,628.0004 L129.5276,628.0004 L129.5276,633.0004 C129.5276,703.65074 72.5242022,760.986968 2,761.524588 Z M2,504.476182 C53.7115326,504.874028 99.5974549,536.087699 119.424686,582.96879 L121.372296,587.573875 L112.162125,591.469096 L110.214514,586.86401 C91.9389403,543.651781 49.6586712,514.874093 2.0000001,514.476571 L2,504.476182 Z" id="Shape" fill="#231F20"></path>
                    <path d="M24.9111801,545.125588 L20.0857919,543.815768 L22.7054316,534.164992 L27.5308199,535.474812 C61.9512901,544.818022 89.0678241,571.885682 98.4758987,606.287243 L99.794856,611.110141 L90.1490586,613.748056 L88.8301013,608.925157 C80.3564975,577.940581 55.9125706,553.540712 24.9111801,545.125588 Z" id="Stroke-15" fill="#0068B4"></path>
                    <polygon id="Path" fill="#0068B4" points="2 531.9536 6.0012 531.9536 6.0012 541.9536 2 541.9536"></polygon>
                    <polygon id="Path" fill="#0068B4" points="2 724.0454 6.0004 724.0454 6.0004 734.0454 2 734.0454"></polygon>
                    <path d="M92.0452,633.0004 L92.0452,628.0004 L102.0452,628.0004 L102.0452,633.0004 C102.0452,679.33569 70.5960663,719.400074 26.3605998,730.835268 L21.5197323,732.086667 L19.0169326,722.404932 L23.8578002,721.153532 C63.7054672,710.852618 92.0452,674.749431 92.0452,633.0004 Z" id="Stroke-23" fill="#0068B4"></path>
                    <path d="M2,705.934663 L2,695.933605 C18.5478008,695.674834 34.0067675,689.004965 45.5058661,677.505866 L49.0414,673.970332 L56.1124678,681.0414 L52.5769339,684.576934 C39.2210555,697.932812 21.228245,705.674794 2,705.934663 Z M2,560.066136 C21.0469661,560.323466 38.8822052,567.920117 52.2038829,581.054991 L55.7642916,584.565474 L48.7433258,591.686292 L45.1829171,588.175809 C33.7140623,576.867776 18.3915477,570.323414 2.00000011,570.067216 L2,560.066136 Z" id="Shape" fill="#FFDC00"></path>
                    <path d="M16.2577913,592.688424 L11.5815675,590.918415 L15.1215849,581.565967 L19.7978087,583.335976 C32.799796,588.25739 43.1225814,597.907416 48.9645511,610.211682 L51.1090695,614.728433 L42.0755673,619.01747 L39.9310489,614.500718 C35.1866764,604.508195 26.8192039,596.686049 16.2577913,592.688424 Z" id="Stroke-27" fill="#0068B4"></path>
                    <path d="M41.3126403,648.258094 L43.0833467,643.582134 L52.435266,647.123547 L50.6645597,651.799506 C45.6105586,665.145765 35.5760365,675.661805 22.8258343,681.410871 L18.2677633,683.466105 L14.1572946,674.349963 L18.7153657,672.294729 C29.0721948,667.624835 37.2071976,659.099465 41.3126403,648.258094 Z" id="Stroke-33" fill="#0068B4"></path>
                    <path d="M1,612.319361 L1,602.310934 C16.9435224,602.838591 29.7054,615.929191 29.7054,632.0004 C29.7054,648.071609 16.9435224,661.162209 1,661.689866 L1,651.681439 C11.41883,651.160418 19.7054,642.548186 19.7054,632.0004 C19.7054,621.452614 11.41883,612.840382 1,612.319361 Z" id="Path" fill="#ED3E24"></path>
                </g>
            </g>
        </g>
    </g>
</svg>