<?xml version="1.0" encoding="UTF-8"?>
<svg width="112px" height="1001px" viewBox="0 0 112 1001" version="1.1" xmlns="http://www.w3.org/2000/svg" xmlns:xlink="http://www.w3.org/1999/xlink">
    <!-- Generator: Sketch 52.6 (67491) - http://www.bohemiancoding.com/sketch -->
    <title>right-bg</title>
    <desc>Created with Sketch.</desc>
    <g id="Symbols" stroke="none" stroke-width="1" fill="none" fill-rule="evenodd" opacity="0.1">
        <g id="Background-sm" transform="translate(-263.000000, 0.000000)" fill-rule="nonzero">
            <g id="background-sm">
                <g id="right-bg" transform="translate(263.000000, 0.000000)">
                    <rect id="Rectangle" fill="#FFFFFF" x="0" y="0" width="112" height="1001"></rect>
                    <path d="M112.625698,-1.13686838e-13 L112.625698,7.51677852 L111.875161,7.51677852 C83.6924765,7.51677852 57.2983018,18.7468408 37.8284692,38.3684655 L35.1826947,41.0348672 L29.8558497,35.7373992 L32.5016242,33.0709975 C53.3669207,12.0430295 81.6718239,-1.13686838e-13 111.875161,-1.13686838e-13 L112.625698,-1.13686838e-13 Z" id="Path" fill="#ED3E24"></path>
                    <path d="M17.6306991,156.947978 L19.2478067,160.339821 L12.4717,163.577653 L10.8545925,160.18581 C3.74205573,145.26744 0.000750837989,128.896611 0.000750837989,112.000451 C0.000750837989,93.1786722 4.64575187,75.0212326 13.3921835,58.8197656 L15.1771543,55.5133721 L21.7825526,59.0873068 L19.9975818,62.3937002 C11.8402032,77.5040339 7.50913073,94.4343179 7.50913073,112.000451 C7.50913073,127.770327 10.9977725,143.035578 17.6306991,156.947978 Z" id="Path" fill="#ED3E24"></path>
                    <path d="M112.625698,216.483522 L112.625698,224.000301 L111.875161,224.000301 C81.6718239,224.000301 53.3669207,211.957271 32.5016242,190.929303 L29.8558497,188.262901 L35.1826947,182.965433 L37.8284692,185.631835 C57.2983018,205.25346 83.6924765,216.483522 111.875161,216.483522 L112.625698,216.483522 Z" id="Path" fill="#ED3E24"></path>
                    <path d="M112.625698,208.609086 C112.375544,208.610995 112.125164,208.611952 111.87456,208.611952 C58.5775089,208.611952 15.370855,165.356968 15.370855,112.000301 C15.370855,58.6436332 58.5775089,15.3886497 111.87456,15.3886497 C112.125118,15.3886497 112.375499,15.3896146 112.625698,15.3915413 L112.625698,22.9085109 C112.375515,22.9064745 112.125134,22.9054282 111.87456,22.9054282 C62.7242726,22.9054282 22.8792349,62.7950353 22.8792349,112.000301 C22.8792349,161.205566 62.7242726,201.095173 111.87456,201.095173 C112.125183,201.095173 112.375564,201.094136 112.625698,201.092066 L112.625698,208.609086 Z" id="Path" fill="#231F20"></path>
                    <path d="M112.625698,36.0456591 L112.625698,43.5624376 L111.875761,43.5624376 C80.8275427,43.5624376 53.910557,64.4645411 45.8962006,94.0268136 L44.9128709,97.6539871 L37.6666292,95.6851278 L38.6499589,92.0579542 C47.5466215,59.24115 77.41695,36.0456591 111.875761,36.0456591 L112.625698,36.0456591 Z" id="Path" fill="#0068B4"></path>
                    <path d="M63.2923986,160.145642 L65.933772,162.816414 L60.5981977,168.10507 L57.9568242,165.434298 C48.6703319,156.04445 41.9535888,144.388288 38.5498761,131.571828 L37.5852584,127.939622 L44.8415535,126.008229 L45.8061712,129.640435 C48.8711264,141.181325 54.9221923,151.682278 63.2923986,160.145642 Z" id="Path" fill="#0068B4"></path>
                    <path d="M112.625698,180.436811 L112.625698,187.953589 L111.875161,187.953589 C105.209959,187.953589 98.6531415,187.091662 92.3242333,185.406986 L88.6961033,184.441223 L90.6254709,177.176846 L94.2536009,178.142609 C99.9545559,179.660132 105.862874,180.436811 111.875161,180.436811 L112.625698,180.436811 Z" id="Path" fill="#0068B4"></path>
                    <path d="M112.625698,166.823355 C112.375543,166.826739 112.125109,166.828435 111.87441,166.828435 C81.6278357,166.828435 57.1082869,142.28096 57.1082869,111.999549 C57.1082869,81.7193915 81.628085,57.1721664 111.87441,57.1721664 C112.125109,57.1721664 112.375543,57.1738617 112.625698,57.1772448 L112.625698,64.6948023 C112.375595,64.6909065 112.125159,64.688945 111.87441,64.688945 C85.7748487,64.688945 64.6166668,85.8707937 64.6166668,111.999549 C64.6166668,138.129592 85.7746336,159.311656 111.87441,159.311656 C112.125159,159.311656 112.375594,159.309694 112.625698,159.305779 L112.625698,166.823371 L112.625698,166.823355 Z" id="Path" fill="#FFDC00"></path>
                    <path d="M81.6073724,100.529823 L80.278713,104.044962 L73.25629,101.384671 L74.5849494,97.8695323 C78.3280253,87.9667443 85.7194458,80.1340142 95.1298389,75.774597 L98.5369342,74.196241 L101.690119,81.0180538 L98.2830237,82.5964097 C90.6390836,86.1375078 84.6474702,92.4868542 81.6073724,100.529823 Z" id="Path" fill="#0068B4"></path>
                    <path d="M100.417859,142.30133 L103.928935,143.631836 L101.270896,150.661841 L97.759821,149.331336 C87.7385226,145.533811 79.8424994,137.99091 75.5258861,128.405166 L73.9829666,124.978862 L80.8279185,121.889571 L82.370838,125.315875 C85.877106,133.102115 92.2780287,139.216779 100.417859,142.30133 Z" id="Path" fill="#0068B4"></path>
                    <path d="M112.625702,134.317215 C112.376287,134.325479 112.125834,134.329643 111.87441,134.329643 C99.5567869,134.329643 89.5715182,124.332087 89.5715182,112.000301 C89.5715182,99.6685143 99.5567869,89.6709584 111.87441,89.6709584 C112.125834,89.6709584 112.376287,89.6751228 112.625702,89.6833866 L112.625698,97.2064995 C112.376839,97.1940408 112.12636,97.1877369 111.87441,97.1877369 C103.703739,97.1877369 97.0798981,103.819728 97.0798981,112.000301 C97.0798981,120.180873 103.703739,126.812864 111.87441,126.812864 C112.12636,126.812864 112.376839,126.806561 112.625698,126.794102 L112.625698,134.317215 L112.625702,134.317215 Z" id="Path" fill="#ED3E24"></path>
                </g>
            </g>
        </g>
    </g>
</svg>