<?xml version="1.0" encoding="UTF-8"?>
<svg width="151px" height="1238px" viewBox="0 0 151 1238" version="1.1" xmlns="http://www.w3.org/2000/svg" xmlns:xlink="http://www.w3.org/1999/xlink">
    <!-- Generator: Sketch 52.5 (67469) - http://www.bohemiancoding.com/sketch -->
    <title>bg-right</title>
    <desc>Created with Sketch.</desc>
    <g id="Symbols" stroke="none" stroke-width="1" fill="none" fill-rule="evenodd" opacity="0.1">
        <g id="Background" transform="translate(-873.000000, 0.000000)" fill-rule="nonzero">
            <g id="background" transform="translate(-3.000000, 0.000000)">
                <g id="bg-right" transform="translate(876.000000, 0.000000)">
                    <rect id="Rectangle" fill="#FFFFFF" x="0" y="0" width="155" height="1238"></rect>
                    <path d="M150,-1.13686838e-13 L150,10 L149.0004,10 C111.465426,10 76.3124704,24.9399936 50.3816666,51.0437622 L46.8579044,54.5910287 L39.7633713,47.5435044 L43.2871334,43.9962378 C71.0764792,16.0215304 108.77423,-1.13686838e-13 149.0004,-1.13686838e-13 L150,-1.13686838e-13 Z" id="Path" fill="#ED3E24"></path>
                    <path d="M23.4813627,208.796863 L25.6350997,213.309226 L16.6103743,217.6167 L14.4566373,213.104337 C4.9838391,193.257577 0.001,171.478527 0.001,149.0006 C0.001,123.960912 6.18742251,99.8050326 17.8363159,78.2512952 L20.2136206,73.8526111 L29.0109889,78.6072206 L26.6336841,83.0059048 C15.7693182,103.108045 10.001,125.631369 10.001,149.0006 C10.001,169.980167 14.6473309,190.288402 23.4813627,208.796863 Z" id="Path" fill="#ED3E24"></path>
                    <path d="M150,288.0004 L150,298.0004 L149.0004,298.0004 C108.77423,298.0004 71.0764792,281.97887 43.2871334,254.004162 L39.7633713,250.456896 L46.8579044,243.409371 L50.3816666,246.956638 C76.3124704,273.060406 111.465426,288.0004 149.0004,288.0004 L150,288.0004 Z" id="Path" fill="#ED3E24"></path>
                    <path d="M150,277.524588 C149.666834,277.527128 149.333365,277.5284 148.9996,277.5284 C78.0161763,277.5284 20.4716,219.983824 20.4716,149.0004 C20.4716,78.0169763 78.0161763,20.4724 148.9996,20.4724 C149.333305,20.4724 149.666773,20.4736837 150,20.476247 L150,30.4765012 C149.666794,30.473792 149.333325,30.4724 148.9996,30.4724 C83.5390237,30.4724 30.4716,83.5398237 30.4716,149.0004 C30.4716,214.460976 83.5390237,267.5284 148.9996,267.5284 C149.333391,267.5284 149.666859,267.52702 150,267.524266 L150,277.524588 Z" id="Path" fill="#231F20"></path>
                    <path d="M150,47.9536 L150,57.9536 L149.0012,57.9536 C107.649778,57.9536 71.8005187,85.7608627 61.1266363,125.089243 L59.8169932,129.914679 L50.1661207,127.295393 L51.4757637,122.469957 C63.3247415,78.8118871 103.107396,47.9536 149.0012,47.9536 L150,47.9536 Z" id="Path" fill="#0068B4"></path>
                    <path d="M84.2956797,213.050899 L87.8135803,216.603979 L80.707421,223.63978 L77.1895203,220.086701 C64.8213498,207.594848 55.8756874,192.087991 51.342469,175.037522 L50.0577474,170.205391 L59.7220095,167.635947 L61.006731,172.468078 C65.0887769,187.821585 73.1478602,201.791602 84.2956797,213.050899 Z" id="Path" fill="#0068B4"></path>
                    <path d="M150,240.0454 L150,250.0454 L149.0004,250.0454 C140.123383,250.0454 131.390717,248.898729 122.96159,246.657508 L118.129483,245.372698 L120.699102,235.708483 L125.53121,236.993292 C133.123999,239.01214 140.992965,240.0454 149.0004,240.0454 L150,240.0454 Z" id="Path" fill="#0068B4"></path>
                    <path d="M150,221.934642 C149.666832,221.939144 149.333292,221.9414 148.9994,221.9414 C108.715644,221.9414 76.0594,189.284492 76.0594,148.9994 C76.0594,108.715976 108.715976,76.0594 148.9994,76.0594 C149.333292,76.0594 149.666832,76.0616552 150,76.0661561 L150,86.0671923 C149.6669,86.0620096 149.333359,86.0594 148.9994,86.0594 C114.238824,86.0594 86.0594,114.238824 86.0594,148.9994 C86.0594,183.76169 114.238537,211.9414 148.9994,211.9414 C149.333359,211.9414 149.6669,211.938789 150,211.933581 L150,221.934663 L150,221.934642 Z" id="Path" fill="#FFDC00"></path>
                    <path d="M108.68839,133.740569 L106.918822,138.416959 L97.566041,134.877822 L99.3356097,130.201431 C104.320807,117.027187 114.165036,106.606858 126.698223,100.807276 L131.235947,98.7074992 L135.435501,107.782947 L130.897777,109.882724 C120.717232,114.593649 112.73733,123.040547 108.68839,133.740569 Z" id="Path" fill="#0068B4"></path>
                    <path d="M133.741048,189.311591 L138.417257,191.081639 L134.877161,200.434057 L130.200952,198.664009 C116.854134,193.611945 106.337853,183.577192 100.588792,170.82473 L98.5338617,166.266522 L107.650278,162.156662 L109.705208,166.71487 C114.375015,177.07335 122.900053,185.208036 133.741048,189.311591 Z" id="Path" fill="#0068B4"></path>
                    <path d="M150.000005,178.689866 C149.667823,178.70086 149.334258,178.7064 148.9994,178.7064 C132.594233,178.7064 119.2954,165.40608 119.2954,149.0004 C119.2954,132.59472 132.594233,119.2944 148.9994,119.2944 C149.334258,119.2944 149.667823,119.29994 150.000005,119.310934 L150,129.319361 C149.668558,129.302786 149.334959,129.2944 148.9994,129.2944 C138.11733,129.2944 129.2954,138.117317 129.2954,149.0004 C129.2954,159.883483 138.11733,168.7064 148.9994,168.7064 C149.334959,168.7064 149.668558,168.698014 150,168.681439 L150,178.689866 L150.000005,178.689866 Z" id="Path" fill="#ED3E24"></path>
                </g>
            </g>
        </g>
    </g>
</svg>