<?xml version="1.0" encoding="UTF-8"?>
<svg width="90px" height="1001px" viewBox="0 0 90 1001" version="1.1" xmlns="http://www.w3.org/2000/svg" xmlns:xlink="http://www.w3.org/1999/xlink">
    <!-- Generator: Sketch 52.5 (67469) - http://www.bohemiancoding.com/sketch -->
    <title>right-bg</title>
    <desc>Created with Sketch.</desc>
    <g id="Symbols" stroke="none" stroke-width="1" fill="none" fill-rule="evenodd" opacity="0.1">
        <g id="Background-sm" transform="translate(-285.000000, 0.000000)" fill-rule="nonzero">
            <g id="background-sm">
                <g id="right-bg" transform="translate(285.000000, 0.000000)">
                    <rect id="Rectangle" fill="#FFFFFF" x="0" y="0" width="90" height="1001"></rect>
                    <path d="M90,-8.17124146e-14 L90,6.00671141 L89.40024,6.00671141 C66.8792558,6.00671141 45.7874822,14.9807344 30.2289999,30.6605149 L28.1147426,32.7912555 L23.8580228,28.558011 L25.9722801,26.4272704 C42.6458875,9.62367092 65.2645378,-8.17124146e-14 89.40024,-8.17124146e-14 L90,-8.17124146e-14 Z" id="Path" fill="#ED3E24"></path>
                    <path d="M14.0888176,125.41825 L15.3810598,128.128696 L9.96622456,130.716071 L8.67398238,128.005625 C2.99030346,116.084249 0.0006,103.002202 0.0006,89.5003604 C0.0006,74.4597425 3.71245351,59.9500028 10.7017895,47.0032948 L12.1281724,44.3611322 L17.4065933,47.2170889 L15.9802105,49.8592515 C9.46159093,61.9340271 6.0006,75.4631379 6.0006,89.5003604 C6.0006,102.102181 8.78839853,114.300752 14.0888176,125.41825 Z" id="Path" fill="#ED3E24"></path>
                    <path d="M90,172.993529 L90,179.00024 L89.40024,179.00024 C65.2645378,179.00024 42.6458875,169.376569 25.9722801,152.57297 L23.8580228,150.442229 L28.1147426,146.208985 L30.2289999,148.339725 C45.7874822,164.019506 66.8792558,172.993529 89.40024,172.993529 L90,172.993529 Z" id="Path" fill="#ED3E24"></path>
                    <path d="M90,166.701011 C89.8001001,166.702537 89.6000192,166.703301 89.39976,166.703301 C46.8097058,166.703301 12.28296,132.137934 12.28296,89.5002403 C12.28296,46.8625461 46.8097058,12.2971799 89.39976,12.2971799 C89.599983,12.2971799 89.8000641,12.2979509 90,12.2994906 L90,18.3063547 C89.8000765,18.3047274 89.5999952,18.3038913 89.39976,18.3038913 C50.1234142,18.3038913 18.28296,50.1799612 18.28296,89.5002403 C18.28296,128.820519 50.1234142,160.696589 89.39976,160.696589 C89.6000345,160.696589 89.8001155,160.69576 90,160.694106 L90,166.701011 Z" id="Path" fill="#231F20"></path>
                    <path d="M90,28.8043436 L90,34.811055 L89.40072,34.811055 C64.5898667,34.811055 43.0803112,51.5140753 36.6759818,75.1374983 L35.8901959,78.0359986 L30.0996724,76.4626691 L30.8854582,73.5641688 C37.9948449,47.3400262 61.8644378,28.8043436 89.40072,28.8043436 L90,28.8043436 Z" id="Path" fill="#0068B4"></path>
                    <path d="M50.5774078,127.973527 L52.6881482,130.107759 L48.4244526,134.333962 L46.3137122,132.19973 C38.8928099,124.696234 33.5254125,115.381713 30.8054814,105.139988 L30.0346484,102.237466 L35.8332057,100.694076 L36.6040386,103.596597 C39.0532662,112.819006 43.8887161,121.210392 50.5774078,127.973527 Z" id="Path" fill="#0068B4"></path>
                    <path d="M90,144.188344 L90,150.195056 L89.40024,150.195056 C84.0740301,150.195056 78.8344301,149.506283 73.7769543,148.160047 L70.8776897,147.388299 L72.4194612,141.583283 L75.3187257,142.355031 C79.8743996,143.567695 84.5957789,144.188344 89.40024,144.188344 L90,144.188344 Z" id="Path" fill="#0068B4"></path>
                    <path d="M90,133.309734 C89.800099,133.312439 89.5999755,133.313794 89.39964,133.313794 C65.2293865,133.313794 45.63564,113.697732 45.63564,89.4996396 C45.63564,65.3025495 65.2295858,45.6866866 89.39964,45.6866866 C89.5999754,45.6866866 89.8000989,45.6880412 90,45.6907448 L90,51.6980786 C89.8001403,51.6949655 89.6000156,51.693398 89.39964,51.693398 C68.5432942,51.693398 51.63564,68.6199646 51.63564,89.4996396 C51.63564,110.380344 68.5431224,127.307083 89.39964,127.307083 C89.6000154,127.307083 89.8001401,127.305514 90.0000001,127.302386 L90,133.309747 L90,133.309734 Z" id="Path" fill="#FFDC00"></path>
                    <path d="M65.2130342,80.3341 L64.151293,83.1430727 L58.5396246,81.017215 L59.6013658,78.2082423 C62.5924845,70.2948537 68.4990214,64.0356631 76.0189337,60.5520217 L78.7415679,59.2907462 L81.2613005,64.7421055 L78.5386663,66.003381 C72.4303391,68.8330977 67.6423981,73.9069058 65.2130342,80.3341 Z" id="Path" fill="#0068B4"></path>
                    <path d="M80.2446287,113.714009 L83.0503541,114.777226 L80.9262967,120.394954 L78.1205713,119.331737 C70.1124801,116.297108 63.8027116,110.269522 60.353275,102.609485 L59.120317,99.8715013 L64.590167,97.402827 L65.823125,100.140811 C68.6250088,106.362851 73.7400319,111.249122 80.2446287,113.714009 Z" id="Path" fill="#0068B4"></path>
                    <path d="M90.0000032,107.333846 C89.8006935,107.340449 89.6005551,107.343777 89.39964,107.343777 C79.5565395,107.343777 71.57724,99.3546588 71.57724,89.5002403 C71.57724,79.6458217 79.5565395,71.6567034 89.39964,71.6567034 C89.6005551,71.6567034 89.8006935,71.6600312 90.0000032,71.6666348 L90,77.6784081 C89.8011351,77.6684522 89.6009754,77.6634148 89.39964,77.6634148 C82.8703982,77.6634148 77.57724,82.9630864 77.57724,89.5002403 C77.57724,96.0373941 82.8703982,101.337066 89.39964,101.337066 C89.6009754,101.337066 89.8011351,101.332028 90,101.322072 L90,107.333846 L90.0000032,107.333846 Z" id="Path" fill="#ED3E24"></path>
                </g>
            </g>
        </g>
    </g>
</svg>