<?xml version="1.0" encoding="UTF-8"?>
<svg width="282px" height="133px" viewBox="0 0 282 133" version="1.1" xmlns="http://www.w3.org/2000/svg" xmlns:xlink="http://www.w3.org/1999/xlink">
    <!-- Generator: Sketch 63.1 (92452) - https://sketch.com -->
    <title>logos/taipei20</title>
    <desc>Created with Sketch.</desc>
    <defs>
        <polygon id="path-1" points="0 132.736 281.169205 132.736 281.169205 0.041344 0 0.041344"></polygon>
    </defs>
    <g id="Page-1" stroke="none" stroke-width="1" fill="none" fill-rule="evenodd">
        <g id="Home---Tablet-Landscape" transform="translate(-55.000000, -279.000000)">
            <g id="logos/taipei20" transform="translate(48.000000, 278.000000)">
                <g id="Group-31" transform="translate(7.845283, 0.000000)">
                    <polygon id="Fill-1" fill="#333333" points="41.5282122 70.7976832 41.5282122 22.4121472 22.5693461 22.4121472 22.5693461 6.8929152 78.0009778 6.8929152 78.0009778 22.4121472 59.0421116 22.4121472 59.0421116 70.7976832"></polygon>
                    <g id="Group-30" transform="translate(0.000000, 1.046656)">
                        <path d="M98.2958194,61.1841152 C100.691903,61.1841152 102.628567,60.4780032 104.113343,59.0646912 C105.594891,57.6513792 106.337279,55.7919872 106.337279,53.4843392 L106.337279,51.3224832 C104.455487,50.5151872 102.345599,50.1104512 100.006539,50.1104512 C97.6674794,50.1104512 95.8437874,50.6446592 94.5322354,51.7108992 C93.2185315,52.7793152 92.5643694,54.1763072 92.5643694,55.9062272 L92.5643694,56.0803072 C92.5643694,57.6372352 93.0904965,58.8775552 94.1470544,59.8001792 C95.2014604,60.7228032 96.5850994,61.1841152 98.2958194,61.1841152 M92.4793714,71.4776832 C87.9152995,71.4776832 84.1807655,70.2101632 81.2725415,67.6718592 C78.3632415,65.1346432 76.9085916,61.5877632 76.9085916,57.0312192 L76.9085916,56.8582272 C76.9085916,52.1308672 78.5343135,48.4969472 81.7846815,45.9586432 C85.0361255,43.4214272 89.4549475,42.1517312 95.0454514,42.1517312 C99.0941554,42.1517312 102.800715,42.7577472 106.166207,43.9686912 L106.166207,43.1896832 C106.166207,38.1152512 103.086911,35.5769472 96.9272434,35.5769472 C92.7634154,35.5769472 88.5135135,36.4429952 84.1807655,38.1729152 L80.8443235,26.5802752 C86.6618474,24.1583872 92.9065134,22.9474432 99.5783214,22.9474432 C107.562757,22.9474432 113.437305,24.8503552 117.201965,28.6572672 C120.509357,31.9441152 122.164129,36.9053952 122.164129,43.5356672 L122.164129,70.4397312 L106.080133,70.4397312 L106.080133,65.5959552 C102.601669,69.5181952 98.0677234,71.4776832 92.4793714,71.4776832" id="Fill-2" fill="#333333"></path>
                        <mask id="mask-2" fill="white">
                            <use xlink:href="#path-1"></use>
                        </mask>
                        <g id="Clip-5"></g>
                        <path d="M130.33427,70.440384 L146.587186,70.440384 L146.587186,23.640064 L130.33427,23.640064 L130.33427,70.440384 Z M129.99105,13.345408 L129.99105,13.345408 C129.99105,10.000896 132.672254,7.2896 135.979646,7.2896 L140.940734,7.2896 C144.248126,7.2896 146.930405,10.000896 146.930405,13.345408 C146.930405,16.688832 144.248126,19.400128 140.940734,19.400128 L135.979646,19.400128 C132.672254,19.400128 129.99105,16.688832 129.99105,13.345408 L129.99105,13.345408 Z" id="Fill-4" fill="#333333" mask="url(#mask-2)"></path>
                        <path d="M180.514744,57.7235136 C183.193796,57.7235136 185.447858,56.7279936 187.272626,54.7391296 C189.09847,52.7491776 190.010854,50.1978176 190.010854,47.0828736 L190.010854,46.9098816 C190.010854,43.8536896 189.09847,41.3306176 187.272626,39.3406656 C185.447858,37.3507136 183.193796,36.3562816 180.514744,36.3562816 C177.89164,36.3562816 175.666628,37.3507136 173.84186,39.3406656 C172.016016,41.3306176 171.104708,43.8536896 171.104708,46.9098816 L171.104708,47.0828736 C171.104708,50.1401536 172.016016,52.6773696 173.84186,54.6956096 C175.666628,56.7149376 177.89164,57.7235136 180.514744,57.7235136 L180.514744,57.7235136 Z M155.19286,80.2494656 L155.19286,23.6397376 L171.445776,23.6397376 L171.445776,29.8674496 C175.381508,25.0236736 180.057476,22.6017856 185.476908,22.6017856 C191.178232,22.6017856 196.026348,24.8223936 200.019104,29.2625216 C204.010784,33.7037376 206.0077,39.5571776 206.0077,46.8239296 L206.0077,46.9969216 C206.0077,54.3790016 204.025847,60.3053376 200.062141,64.7737536 C196.097359,69.2432576 191.264306,71.4780096 185.561906,71.4780096 C179.971402,71.4780096 175.266384,69.2291136 171.445776,64.7302336 L171.445776,80.2494656 L155.19286,80.2494656 Z" id="Fill-6" fill="#333333" mask="url(#mask-2)"></path>
                        <path d="M225.572204,43.1901184 L241.655124,43.1901184 C241.368928,40.5952384 240.513568,38.5334784 239.089044,37.0048384 C237.662368,35.4772864 235.8376,34.7124224 233.613664,34.7124224 C231.5027,34.7124224 229.748943,35.4772864 228.352393,37.0048384 C226.953691,38.5334784 226.028396,40.5952384 225.572204,43.1901184 M234.98224,71.5651584 C227.681016,71.5651584 221.722546,69.3151744 217.102526,64.8173824 C212.483582,60.3185024 210.172496,54.4661504 210.172496,47.2559744 L210.172496,47.0829824 C210.172496,40.1622144 212.368458,34.3522944 216.761458,29.6521344 C221.152306,24.9519744 226.740658,22.6018944 233.528666,22.6018944 C241.111782,22.6018944 246.901332,25.0237824 250.894088,29.8675584 C254.884692,34.7124224 256.882684,40.8258944 256.882684,48.2079744 C256.882684,49.7083264 256.852558,50.8322304 256.79661,51.5807744 L225.828274,51.5807744 C227.139826,56.7150464 230.476268,59.2805504 235.8376,59.2805504 C239.487136,59.2805504 242.908576,57.6953344 246.102996,54.5227264 L255.08589,62.0484224 C250.123726,68.3936384 243.421792,71.5651584 234.98224,71.5651584" id="Fill-7" fill="#333333" mask="url(#mask-2)"></path>
                        <path d="M112.367944,123.256909 L112.367944,115.605005 L126.898305,105.122125 C128.709086,103.759949 129.994815,102.589261 130.752266,101.610061 C131.509717,100.633037 131.890594,99.6016128 131.890594,98.5179648 C131.890594,97.3657728 131.491426,96.4572928 130.697394,95.7925248 C129.902286,95.1288448 128.857563,94.7970048 127.564302,94.7970048 C126.306546,94.7970048 125.096131,95.1560448 123.930905,95.8719488 C122.766754,96.5878528 121.407862,97.8020608 119.855303,99.5145728 L112.589584,93.8014848 C114.808141,91.0760448 117.09986,89.0839168 119.466894,87.8261888 C121.832852,86.5684608 124.808859,85.9395968 128.394916,85.9395968 C132.646969,85.9395968 136.095307,87.0221568 138.738854,89.1894528 C141.382401,91.3556608 142.703636,94.1681408 142.703636,97.6268928 L142.703636,97.7324288 C142.703636,100.492685 142.001057,102.781837 140.5959,104.597709 C139.191818,106.415757 136.899023,108.406797 133.719666,110.573005 L127.063997,114.976141 L143.093121,114.976141 L143.093121,123.256909 L112.367944,123.256909 Z" id="Fill-8" fill="#FF5547" mask="url(#mask-2)"></path>
                        <path d="M167.729748,112.171821 C169.059591,114.041005 170.798285,114.975597 172.942602,114.975597 C175.085844,114.975597 176.806247,114.050797 178.100585,112.197933 C179.393846,110.346157 180.040476,107.952557 180.040476,105.017133 L180.040476,104.912685 C180.040476,101.977261 179.365872,99.5662528 178.017738,97.6796608 C176.667453,95.7930688 174.938442,94.8497728 172.831782,94.8497728 C170.724046,94.8497728 169.013326,95.7756608 167.701774,97.6274368 C166.389146,99.4792128 165.732832,101.872813 165.732832,104.807149 L165.732832,104.912685 C165.732832,107.882925 166.398829,110.302637 167.729748,112.171821 M185.89243,118.461549 C182.582886,122.147693 178.229696,123.990765 172.831782,123.990765 C167.432793,123.990765 163.097893,122.165101 159.826006,118.513773 C156.55412,114.862445 154.918715,110.363565 154.918715,105.017133 L154.918715,104.912685 C154.918715,99.5662528 156.582094,95.0510528 159.908853,91.3638208 C163.236687,87.6776768 167.58127,85.8346048 172.942602,85.8346048 C178.302858,85.8346048 182.629151,87.6602688 185.919328,91.3115968 C189.210581,94.9629248 190.85567,99.4618048 190.85567,104.807149 L190.85567,104.912685 C190.85567,110.259117 189.200898,114.775405 185.89243,118.461549" id="Fill-9" fill="#FFBB00" mask="url(#mask-2)"></path>
                        <path d="M202.681479,123.256909 L202.681479,115.605005 L217.21184,105.122125 C219.022621,103.759949 220.308351,102.589261 221.066877,101.610061 C221.823252,100.633037 222.20413,99.6016128 222.20413,98.5179648 C222.20413,97.3657728 221.804962,96.4572928 221.010929,95.7925248 C220.215821,95.1288448 219.171098,94.7970048 217.877837,94.7970048 C216.620081,94.7970048 215.409666,95.1560448 214.24444,95.8719488 C213.08029,96.5878528 211.721397,97.8020608 210.168838,99.5145728 L202.90312,93.8014848 C205.121676,91.0760448 207.413395,89.0839168 209.780429,87.8261888 C212.146387,86.5684608 215.122394,85.9395968 218.708451,85.9395968 C222.960505,85.9395968 226.408843,87.0221568 229.052389,89.1894528 C231.695936,91.3556608 233.017171,94.1681408 233.017171,97.6268928 L233.017171,97.7324288 C233.017171,100.492685 232.314592,102.781837 230.910511,104.597709 C229.505354,106.415757 227.212558,108.406797 224.034277,110.573005 L217.378608,114.976141 L233.406656,114.976141 L233.406656,123.256909 L202.681479,123.256909 Z" id="Fill-10" fill="#007F00" mask="url(#mask-2)"></path>
                        <path d="M258.043283,112.171821 C259.373126,114.041005 261.11182,114.975597 263.256138,114.975597 C265.399379,114.975597 267.119783,114.050797 268.41412,112.197933 C269.707381,110.346157 270.354012,107.952557 270.354012,105.017133 L270.354012,104.912685 C270.354012,101.977261 269.679407,99.5662528 268.331274,97.6796608 C266.980988,95.7930688 265.251978,94.8497728 263.145317,94.8497728 C261.037581,94.8497728 259.326861,95.7756608 258.015309,97.6274368 C256.702681,99.4792128 256.046367,101.872813 256.046367,104.807149 L256.046367,104.912685 C256.046367,107.882925 256.712365,110.302637 258.043283,112.171821 M276.205965,118.461549 C272.896421,122.147693 268.543231,123.990765 263.145317,123.990765 C257.746328,123.990765 253.411428,122.165101 250.139542,118.513773 C246.867655,114.862445 245.23225,110.363565 245.23225,105.017133 L245.23225,104.912685 C245.23225,99.5662528 246.895629,95.0510528 250.222388,91.3638208 C253.550222,87.6776768 257.89373,85.8346048 263.256138,85.8346048 C268.616394,85.8346048 272.942686,87.6602688 276.232863,91.3115968 C279.524117,94.9629248 281.169205,99.4618048 281.169205,104.807149 L281.169205,104.912685 C281.169205,110.259117 279.514433,114.775405 276.205965,118.461549" id="Fill-11" fill="#0000C8" mask="url(#mask-2)"></path>
                        <path d="M19.9749692,5.9989056 L18.3782972,1.3335616 C18.3782972,1.3335616 23.4469777,6.3198656 37.0541952,6.3198656 C50.6614127,6.3198656 63.1582761,6.6419136 69.8236286,5.7573696 C76.4879051,4.8728256 81.6996835,1.3683776 81.6996835,1.3683776 L80.3806,5.8378816 L80.0287727,6.6821696 L81.6996835,21.7379136 L18.3782972,21.7379136 L19.9749692,5.9989056 Z" id="Fill-12" fill="#333333" mask="url(#mask-2)"></path>
                        <path d="M40.6666118,1.2750272 L40.1781421,0.0412352 C40.1781421,0.0412352 41.7285493,1.3598912 45.8902254,1.3598912 C50.0540533,1.3598912 53.8757372,1.4447552 55.9146142,1.2108352 C57.9534912,0.9769152 59.5480114,0.0499392 59.5480114,0.0499392 L59.1445397,1.2325952 L59.0369472,1.4556352 L59.5480114,6.9924672 L40.1781421,6.9924672 L40.6666118,1.2750272 Z" id="Fill-13" fill="#333333" mask="url(#mask-2)"></path>
                        <path d="M32.2430911,3.9301824 L31.3124164,1.7715904 C31.3124164,1.7715904 34.2669051,4.0792384 42.2018485,4.0792384 C50.135716,4.0792384 57.4218769,4.2282944 61.3081163,3.8181184 C65.1943557,3.4090304 68.2327666,1.7868224 68.2327666,1.7868224 L67.4634805,3.8561984 L67.2579789,4.2467904 L68.2327666,13.9343424 L31.3124164,13.9343424 L32.2430911,3.9301824 Z" id="Fill-14" fill="#333333" mask="url(#mask-2)"></path>
                        <path d="M266.348022,52.2138816 C269.628516,52.2138816 270.836779,54.6847296 270.836779,54.6847296 C270.836779,54.6847296 272.158014,52.2138816 275.21364,52.2138816 C276.407916,52.2138816 277.446183,52.3161536 278.271418,52.4412736 L280.324282,42.9963456 C280.324282,42.9963456 278.26819,42.3261376 275.21364,42.3261376 C272.158014,42.3261376 270.836779,45.5422656 270.836779,45.5422656 C270.836779,45.5422656 269.628516,42.3261376 266.348022,42.3261376 C262.805003,42.3261376 261.349277,42.9963456 261.349277,42.9963456 L263.392457,52.3999296 C264.144529,52.2954816 265.11824,52.2138816 266.348022,52.2138816" id="Fill-15" fill="#333333" mask="url(#mask-2)"></path>
                        <path d="M266.348022,43.52 C269.628516,43.52 270.836779,45.990848 270.836779,45.990848 C270.836779,45.990848 272.158014,43.52 275.21364,43.52 C276.407916,43.52 277.446183,43.622272 278.271418,43.747392 L280.324282,34.302464 C280.324282,34.302464 278.26819,33.632256 275.21364,33.632256 C272.158014,33.632256 270.836779,36.848384 270.836779,36.848384 C270.836779,36.848384 269.628516,33.632256 266.348022,33.632256 C262.805003,33.632256 261.349277,34.302464 261.349277,34.302464 L263.392457,43.706048 C264.144529,43.6016 265.11824,43.52 266.348022,43.52" id="Fill-16" fill="#333333" mask="url(#mask-2)"></path>
                        <path d="M266.348022,34.8261184 C269.628516,34.8261184 270.836779,37.2969664 270.836779,37.2969664 C270.836779,37.2969664 272.158014,34.8261184 275.21364,34.8261184 C276.407916,34.8261184 277.446183,34.9283904 278.271418,35.0535104 L280.324282,25.6085824 C280.324282,25.6085824 278.26819,24.9394624 275.21364,24.9394624 C272.158014,24.9394624 270.836779,28.1545024 270.836779,28.1545024 C270.836779,28.1545024 269.628516,24.9394624 266.348022,24.9394624 C262.805003,24.9394624 261.349277,25.6085824 261.349277,25.6085824 L263.392457,35.0121664 C264.144529,34.9077184 265.11824,34.8261184 266.348022,34.8261184" id="Fill-17" fill="#333333" mask="url(#mask-2)"></path>
                        <path d="M266.348022,26.1322368 C269.628516,26.1322368 270.836779,28.6030848 270.836779,28.6030848 C270.836779,28.6030848 272.158014,26.1322368 275.21364,26.1322368 C276.407916,26.1322368 277.446183,26.2345088 278.271418,26.3596288 L280.324282,16.9147008 C280.324282,16.9147008 278.26819,16.2455808 275.21364,16.2455808 C272.158014,16.2455808 270.836779,19.4606208 270.836779,19.4606208 C270.836779,19.4606208 269.628516,16.2455808 266.348022,16.2455808 C262.805003,16.2455808 261.349277,16.9147008 261.349277,16.9147008 L263.392457,26.3193728 C264.144529,26.2138368 265.11824,26.1322368 266.348022,26.1322368" id="Fill-18" fill="#333333" mask="url(#mask-2)"></path>
                        <polygon id="Fill-19" fill="#333333" mask="url(#mask-2)" points="269.941933 9.403584 271.731195 9.403584 271.731195 1.304512 269.941933 1.304512"></polygon>
                        <path d="M270.836672,19.5983616 C270.836672,19.5983616 271.966392,17.2363136 274.543232,16.8141696 L275.028473,8.6824576 L266.64487,8.6824576 L267.130112,16.8272256 C269.818847,17.2820096 270.836672,19.5983616 270.836672,19.5983616" id="Fill-20" fill="#333333" mask="url(#mask-2)"></path>
                        <path d="M278.152743,61.8412672 L280.325035,51.8490752 C280.325035,51.8490752 278.267867,51.1788672 275.214393,51.1788672 C272.158768,51.1788672 270.836456,54.3949952 270.836456,54.3949952 C270.836456,54.3949952 269.628193,51.1788672 266.347699,51.1788672 C262.80468,51.1788672 261.348954,51.8490752 261.348954,51.8490752 L263.519094,61.8412672 L278.152743,61.8412672 Z" id="Fill-21" fill="#333333" mask="url(#mask-2)"></path>
                        <polygon id="Fill-22" fill="#333333" mask="url(#mask-2)" points="280.604022 74.075936 261.072764 74.075936 263.519416 61.841376 278.15737 61.841376"></polygon>
                        <path d="M32.2346989,92.8539456 C32.6080447,92.5068736 32.8113944,92.1663296 33.0889829,92.0869056 C34.1186427,91.7920576 34.6081884,90.8248256 35.4205114,90.2634176 C35.8153757,89.9903296 35.8723997,89.4996416 35.5151928,89.0263616 C34.8685621,88.1679296 33.9594059,87.8208576 32.9792386,87.5978176 C32.7489908,87.5466816 32.4778578,87.5477696 32.2540655,87.6184896 C31.5547146,87.8393536 30.8671988,88.0950336 30.1807589,88.3550656 C29.5534949,88.5922496 28.9273069,88.8348736 28.312954,89.1079616 C27.6480326,89.4049856 27.0218445,89.8173376 26.3354047,90.0338496 C25.6618759,90.2470976 24.905501,90.1948736 24.2308963,90.4037696 C22.638528,90.8955456 21.0741337,91.4732736 19.416134,92.0455616 C19.2439861,91.4591296 19.0847493,90.8694336 18.8910829,90.2927936 C18.8448181,90.1524416 18.6845054,89.9685696 18.5650777,89.9587776 C18.4370427,89.9478976 18.2261615,90.0882496 18.1702134,90.2166336 C17.9776229,90.6529216 17.7947158,91.1011776 17.6849715,91.5635776 C17.4547236,92.5297216 17.4536477,93.5230656 16.9737854,94.4609216 C16.3960139,95.5935296 16.7091079,96.8458176 16.9662539,98.0295616 C17.0534038,98.4299456 17.2954868,98.9195456 17.6150364,99.1055936 C17.8893971,99.2655296 18.5102056,99.1926336 18.7404534,98.9706816 C19.1675955,98.5561536 19.587206,97.9958336 19.7098614,97.4289856 C19.8981482,96.5651136 19.8389724,95.6446656 19.8680223,94.7481536 C19.8852371,94.2139456 19.8690983,93.6797376 19.872326,93.1455296 C19.8755538,92.6809536 20.1111813,92.3795776 20.5662974,92.4122176 C21.283939,92.4633536 22.0317066,91.9269696 22.7256779,92.5144896 C22.7740945,92.5558336 22.8849147,92.5155776 22.9645331,92.5242816 C23.6778711,92.6069696 24.3944368,92.6711616 25.1023952,92.7854016 C25.6532685,92.8735296 25.8049739,93.2586816 25.4832725,93.7102016 C25.2723912,94.0050496 25.0141694,94.2650816 24.7710104,94.5349056 C24.0081799,95.3835456 24.3912091,96.4715456 25.1206859,96.6336576 C26.0083236,96.8305856 26.9346946,96.8643136 27.8481546,96.9339456 C28.3387762,96.9720256 28.840157,96.8926016 29.3275508,96.9480896 C30.5304344,97.0851776 31.7182551,97.2342336 32.7554463,96.3660096 C32.9157591,96.2310976 33.1460069,96.1375296 33.3525845,96.1146816 C34.1885778,96.0189376 34.7545141,95.4966976 34.8642584,94.6665536 C34.9406491,94.0953536 34.6748957,93.8353216 33.7345377,93.4947776 C33.2783457,93.3294016 32.8393685,93.1150656 32.2346989,92.8539456 M18.0109766,86.0865856 C17.8678786,86.4086336 17.7043381,86.6186176 17.6881992,86.8383936 C17.6214919,87.7969216 18.4703964,88.6575296 19.5742949,88.5487296 C20.8524933,88.4225216 22.111325,88.0939456 23.3755363,87.8350016 C25.0184731,87.4988096 26.6979912,87.3562816 28.311878,86.8481856 C29.4835598,86.4804416 30.6746083,86.1464256 31.8785678,85.9212096 C32.5004522,85.8047936 33.07392,85.7917376 33.5118213,85.2205376 C33.9239004,84.6819776 33.9378874,84.4078016 33.2998642,84.1542976 C32.8081666,83.9606336 32.246534,83.9454016 31.7559125,83.7495616 C30.8252377,83.3785536 30.0634832,83.9704256 29.2231861,84.1031616 C28.7605386,84.1760576 28.2871318,84.1782336 27.8191046,84.2130496 C27.8492305,83.8997056 27.8815082,83.5852736 27.9084063,83.2719296 C27.9180897,83.1696576 27.9051786,83.0641216 27.9223934,82.9640256 C28.1042246,81.9423936 28.3484595,81.7052096 29.3297026,81.5376576 C29.6600115,81.4810816 29.9838648,81.3831616 30.3141736,81.3135296 C31.3212389,81.1002816 32.3229247,80.8315456 33.3407493,80.7031616 C34.0207336,80.6172096 34.6479976,80.6128576 35.2139339,80.0895296 C35.8605645,79.4933056 36.5534599,78.9177536 36.2920103,77.9603136 C36.0456235,77.0540096 35.697024,76.0965696 34.4317368,76.2031936 C34.3413591,76.2108096 34.2380703,76.0378176 34.1380094,75.9529536 C34.000291,75.8376256 33.8744078,75.6678976 33.7162469,75.6232896 C33.3181549,75.5112256 32.8845573,75.3382336 32.5004522,75.4013376 C31.6246497,75.5449536 30.76391,75.7930176 29.9074741,76.0389056 C29.0101531,76.2978496 28.9380661,76.2815296 28.6077573,75.4056896 C28.5797832,75.3306176 28.5421259,75.2577216 28.4990889,75.1902656 C27.4683532,73.5811136 25.8329479,72.8521536 24.1652649,72.1895616 C23.9597633,72.1079616 23.6434415,72.2026176 23.4174974,72.3038016 C23.1183903,72.4398016 22.8590925,72.6628416 22.538467,72.8782656 C22.8784592,73.3330496 23.2206032,73.7530176 23.5175583,74.2034496 C24.035078,74.9846336 24.5762681,75.7560256 25.0066379,76.5850816 C25.3918189,77.3260096 25.0572063,78.2551616 24.3072869,78.6011456 C22.7407408,79.3246656 21.141917,79.9807296 19.5678394,80.6879296 C18.9556383,80.9621056 18.3692595,81.2950336 17.7731973,81.6018496 C17.7947158,81.6693056 17.8173102,81.7356736 17.8399046,81.8031296 C18.3595762,81.8031296 18.8792477,81.8020416 19.3978433,81.8031296 C21.0052746,81.8042176 22.6127058,81.8205376 24.2190611,81.7944256 C24.6300643,81.7889856 24.9754361,82.0326976 24.8172752,82.3743296 C24.3976646,83.2882496 24.3524758,84.2543936 24.3933609,85.2270656 C24.4138035,85.7406016 24.1717205,85.9788736 23.7445784,86.1039936 C22.7084631,86.4097216 21.7724088,86.9939776 20.6383843,87.0418496 C19.6571411,87.0821056 18.703872,87.2638016 18.0109766,86.0865856" id="Fill-23" fill="#333333" mask="url(#mask-2)"></path>
                        <path d="M19.8710349,132.736 C18.1474038,132.046208 16.4183931,131.373824 14.7044453,130.659008 C14.0470555,130.38592 13.9846518,129.986624 14.3590736,129.36864 C14.9981727,128.314368 15.6770811,128.205568 16.9950887,128.451456 C17.4964695,128.543936 17.9709522,128.785472 18.472333,128.865984 C18.7886549,128.91712 19.1469377,128.84096 19.4621836,128.740864 C20.0291958,128.560256 20.5477915,128.419904 21.1739795,128.622272 C22.0314914,128.898624 23.3398156,128.044544 23.6658207,127.173056 C23.9810666,126.33312 24.3447291,125.509504 24.7116194,124.689152 C24.9515506,124.152768 24.8288952,123.904704 24.2339089,123.859008 C23.9100556,123.833984 23.5130395,123.964544 23.2720324,123.817664 C22.3284466,123.238848 21.1040444,123.131136 20.3670361,121.993088 C20.5865247,121.913664 20.8200004,121.735232 21.0050594,121.776576 C22.2875614,122.05728 23.4979765,121.827712 24.7105435,121.400128 C25.2216076,121.21952 25.7961513,121.169472 25.9521604,120.537344 C26.0479176,120.151104 26.1845601,119.684352 26.057601,119.349248 C25.6509015,118.272128 26.3029118,117.706368 26.9635294,117.125376 C27.2023847,116.915392 27.4788973,116.7424 27.7597136,116.591168 C28.4472293,116.22016 29.1153785,115.796928 29.9255496,116.39968 C30.20529,116.608576 30.6356598,116.635776 31.0047019,116.692352 C31.4845643,116.767424 31.7955065,116.565056 32.0795506,116.121152 C32.4561241,115.531456 33.0016179,115.052736 33.4362914,114.49568 C33.7353984,114.11488 33.968874,113.682944 34.2722847,113.209664 C34.0463406,113.158528 33.9527352,113.104128 33.8989389,113.13024 C32.9112402,113.639424 31.8127213,113.163968 30.8078078,113.495808 C30.2988955,113.664448 29.7985906,113.857024 29.2907542,114.02784 C27.8899004,114.496768 26.4675282,114.904768 25.0935726,115.44224 C23.9885981,115.874176 22.9298884,116.43232 21.8819379,116.993728 C21.5860586,117.153664 21.4117589,117.537728 21.1599925,117.79776 C20.4864638,118.49408 19.8021758,119.17952 19.1221915,119.868224 C18.9209936,120.072768 19.0662434,120.61024 18.5734699,120.51232 C18.3034129,120.45792 18.0150651,120.32736 17.8106395,120.145664 C17.4265344,119.80512 17.0929978,119.403648 16.7433223,119.022848 C16.6776909,118.95104 16.5787059,118.84224 16.5948447,118.773696 C16.6949057,118.327616 16.9348369,117.881536 16.9133184,117.446336 C16.8842684,116.8512 17.2931198,116.72064 17.6245045,116.463872 C17.8708912,116.273472 18.1118983,116.072192 18.3270832,115.848064 C18.6347976,115.527104 18.9113102,115.177856 19.2082654,114.846016 C20.0657773,113.887488 20.9544909,112.95616 21.7743454,111.96608 C22.2423726,111.399232 22.0347192,110.9488 21.2998627,110.782336 C20.6812061,110.641984 20.0571699,110.522304 19.4320577,110.412416 C18.7649845,110.296 18.3184758,109.3712 18.6616958,108.782592 C18.7122642,108.69664 18.7768197,108.61504 18.8510585,108.547584 C19.6095853,107.852352 19.6246482,107.843648 20.1927364,108.724928 C20.4186805,109.076352 20.6521561,109.094848 21.0620834,109.0992 C23.3946878,109.122048 25.5551442,108.199424 27.8307246,107.912192 C28.694692,107.802304 29.5091669,107.335552 30.362375,107.087488 C31.0810926,106.877504 31.815949,106.703424 32.5551092,106.597888 C33.4782524,106.46624 34.4164586,106.4336 35.3449815,106.333504 C35.8571216,106.279104 36.2605933,106.409664 36.534954,106.910144 C35.8829438,108.183104 34.7198693,108.841344 33.4739487,109.435392 C32.5959943,109.853184 31.7804435,110.401536 30.9261595,110.871552 C30.6894561,111.002112 30.4161712,111.066304 30.1568734,111.152256 C29.8480831,111.255616 29.7275795,111.523264 29.9976366,111.671232 C30.3419324,111.859456 30.77553,111.926912 31.1757739,111.953024 C31.6298141,111.983488 32.1075246,111.814848 32.543274,111.899712 C33.7009688,112.122752 34.8177785,112.049856 35.9023104,111.610304 C36.7512149,111.267584 37.5786008,111.121792 38.431809,111.588544 C38.5480088,111.652736 38.7373715,111.565696 38.8901528,111.582016 C39.4141281,111.63424 39.9488626,111.656 40.4588508,111.778944 C40.8128299,111.864896 40.8816891,112.18912 40.6589727,112.490496 C40.2286029,113.07584 39.8229794,113.692736 39.3172949,114.20736 C38.6620568,114.875392 37.9315041,115.472704 37.2106346,116.07328 C36.5726114,116.604224 35.8829438,117.073152 35.2610594,117.620416 C35.0222041,117.831488 34.9081561,118.185088 34.7037305,118.527808 C35.1491632,118.585472 35.5020665,118.636608 35.8581975,118.6736 C36.3950838,118.729088 36.6705205,119.10336 36.7458352,119.566848 C36.7791889,119.77248 36.5704595,120.0608 36.4036912,120.2512 C35.5623182,121.222784 34.3475995,121.525248 33.2340176,121.99744 C32.4679593,122.322752 31.6416493,122.524032 30.9207798,122.923328 C30.5355989,123.136576 30.2558585,123.620736 30.0309902,124.03744 C29.6404296,124.76096 29.3251838,125.525824 28.9894953,126.27872 C28.9496861,126.366848 28.9453824,126.527872 28.9970268,126.58336 C29.0486712,126.63776 29.1982247,126.618176 29.2993616,126.59968 C29.9997884,126.471296 30.6980635,126.318976 31.4006422,126.20256 C32.6583979,125.993664 33.9161537,125.779328 35.180365,125.616128 C36.8996924,125.392 38.616868,125.399616 40.2791714,125.981696 C41.3712348,126.363584 41.995271,127.451584 41.8048324,128.583104 C41.7445806,128.932352 41.6283807,129.290304 41.1130129,129.184768 C40.9634594,129.154304 40.7665652,129.252224 40.6159358,129.337088 C39.0752118,130.207488 37.4849954,130.939712 35.6699107,130.87008 C35.2180224,130.85376 34.7768933,130.616576 34.3217773,130.528448 C33.7924224,130.426176 33.2533842,130.308672 32.7197256,130.318464 C31.8525305,130.334784 30.9831835,130.421824 30.1213679,130.5328 C29.4381558,130.620928 28.765703,130.798272 28.0857187,130.921216 C26.9775164,131.121408 25.857479,131.262848 24.7654156,131.523968 C24.2263774,131.652352 23.7400595,132.000512 23.2236158,132.237696 C22.8427385,132.412864 22.4521779,132.570624 22.065921,132.736 L19.8710349,132.736 Z" id="Fill-24" fill="#333333" mask="url(#mask-2)"></path>
                        <path d="M0,112.383328 C0.442204981,111.697888 0.884409962,111.012448 1.32446309,110.32592 C1.36750008,110.258464 1.43635925,110.17904 1.4299037,110.112672 C1.32553902,109.113888 2.14324166,108.6232 2.61987623,107.966048 C3.82275985,106.306848 5.06975638,104.677024 6.33719547,103.066784 C6.84395592,102.4216 7.48520694,101.885216 7.99949887,101.245472 C8.33088362,100.830944 8.78384785,100.65904 9.20453434,100.415328 C9.31965826,100.347872 9.49073026,100.380512 9.637056,100.368544 C9.63598008,100.509984 9.68009298,100.672096 9.62952453,100.792864 C8.89036438,102.540192 8.8473274,104.381088 8.90327547,106.23504 C8.91080694,106.472224 8.98827351,106.707232 9.02055125,106.945504 C9.08833449,107.451424 9.43585811,107.555872 9.8167354,107.408992 C11.9868752,106.576672 14.1301168,105.667104 16.3153195,104.88048 C18.1250246,104.22768 19.9820703,103.71088 21.8165217,103.129888 C22.1737286,103.016736 22.5825799,102.70448 22.8698518,102.79696 C23.6498971,103.046112 24.1458983,102.566304 24.7312012,102.27472 C24.9259435,102.178976 25.1508118,102.022304 25.3369467,102.050592 C26.3623028,102.212704 27.1606388,101.558816 28.069795,101.316192 C29.8332353,100.846176 31.5783849,100.308704 33.3429011,99.844128 C33.9561781,99.682016 34.6103402,99.687456 35.2322246,99.553632 C35.8810071,99.414368 36.5125748,99.193504 37.1527499,99.018336 C38.0285525,98.780064 38.8935958,98.471072 39.7855372,98.338336 C41.071267,98.146848 42.3559209,98.215392 43.5770952,98.783328 C44.4044812,99.169568 45.3147134,99.383904 45.9634958,100.108512 C46.5627858,100.77872 46.4724082,101.318368 45.6891351,101.7416 C45.3846485,101.906976 45.1361099,102.173536 44.8359269,102.346528 C44.6583994,102.449888 44.4270756,102.516256 44.2248018,102.506464 C42.7981259,102.440096 41.3746777,102.305184 39.9490777,102.2856 C39.1130844,102.27472 38.2760151,102.453152 37.4378699,102.516256 C37.0096519,102.548896 36.5782062,102.51408 36.1489123,102.512992 C35.6712018,102.510816 35.1956432,102.511904 34.5102792,102.409632 C34.941725,102.119136 35.3710189,101.82864 35.8218312,101.525088 C35.35488,100.982176 34.9471046,101.225888 34.5371774,101.316192 C33.5903638,101.524 32.6306391,101.678496 31.6892051,101.908064 C31.0468782,102.065824 30.4314494,102.331296 29.794502,102.515168 C29.2845138,102.663136 28.7551589,102.743648 28.2419429,102.884 C26.9239354,103.24304 25.6295982,103.74352 24.2900722,103.952416 C22.980672,104.158048 22.0209473,104.927264 20.9396432,105.534368 C20.5017419,105.780256 19.9562482,105.83248 19.4580951,105.967392 C18.2562874,106.292704 17.0759982,106.656096 15.9581126,107.243616 C15.3738856,107.55152 14.6713069,107.623328 14.0289799,107.825696 C13.7320248,107.918176 13.4329177,108.03568 13.1660885,108.194528 C12.2397174,108.747232 11.2079058,108.898464 10.1739423,108.91152 C8.99795683,108.926752 8.99257721,108.992032 8.80967004,110.068064 C8.54822038,111.610848 8.04145992,113.054624 7.42710702,114.467936 C7.14844257,115.110944 6.87300589,115.838816 6.38130838,116.284896 C5.67657781,116.920288 5.1805766,117.917984 3.94003562,117.830944 C1.98077706,117.693856 0.26144966,115.942176 0.233475623,113.929376 C0.230247849,113.700896 0.0817702642,113.474592 0,113.246112 L0,112.383328 Z" id="Fill-25" fill="#333333" mask="url(#mask-2)"></path>
                        <path d="M18.0111918,86.086912 C18.7040872,87.264128 19.6562804,87.082432 20.6375236,87.041088 C21.7726239,86.993216 22.7086783,86.40896 23.7447936,86.10432 C24.1719356,85.978112 24.4140187,85.740928 24.3935761,85.226304 C24.352691,84.25472 24.3978798,83.287488 24.8174904,82.373568 C24.9756513,82.031936 24.6292036,81.788224 24.2192763,81.794752 C22.6118451,81.820864 21.0054898,81.803456 19.3980585,81.802368 C18.8794629,81.802368 18.3587154,81.802368 17.8401198,81.802368 C17.8164494,81.736 17.794931,81.668544 17.7723365,81.602176 C18.3694747,81.29536 18.9558535,80.962432 19.5669787,80.688256 C21.1421322,79.981056 22.740956,79.324992 24.3075021,78.601472 C25.0574215,78.2544 25.3909581,77.326336 25.0068531,76.585408 C24.5764833,75.756352 24.0352932,74.98496 23.5177735,74.203776 C23.2208184,73.753344 22.8775984,73.333376 22.5386822,72.877504 C22.8593077,72.663168 23.1186055,72.440128 23.4166366,72.304128 C23.6425808,72.201856 23.9589026,72.1072 24.1654801,72.189888 C25.8331631,72.85248 27.4685684,73.58144 28.4993041,75.190592 C28.5423411,75.258048 28.5789225,75.330944 28.6079725,75.406016 C28.9372054,76.280768 29.0103682,76.298176 29.9076893,76.039232 C30.7641252,75.793344 31.6237889,75.54528 32.5006674,75.401664 C32.8847725,75.33856 33.3183701,75.510464 33.7164621,75.623616 C33.874623,75.668224 33.9994303,75.837952 34.1371486,75.95328 C34.2382855,76.038144 34.3415743,76.211136 34.4319519,76.20352 C35.6961633,76.095808 36.0458387,77.054336 36.2922254,77.96064 C36.5525992,78.91808 35.8607797,79.492544 35.2130731,80.089856 C34.6482128,80.612096 34.0209488,80.617536 33.3409645,80.703488 C32.3231399,80.830784 31.3214541,81.100608 30.3143888,81.312768 C29.9840799,81.3824 29.6602267,81.481408 29.3299178,81.537984 C28.3475987,81.705536 28.1044398,81.94272 27.9226085,82.964352 C27.9043178,83.064448 27.9183048,83.168896 27.9086215,83.272256 C27.8817234,83.5856 27.8494457,83.898944 27.8182439,84.213376 C28.287347,84.17856 28.7607538,84.176384 29.2234013,84.103488 C30.0636984,83.970752 30.8254529,83.377792 31.7550517,83.749888 C32.2456733,83.945728 32.8083818,83.959872 33.3000793,84.154624 C33.9381026,84.408128 33.9241156,84.682304 33.5120365,85.220864 C33.0741352,85.792064 32.5006674,85.80512 31.878783,85.921536 C30.6748235,86.146752 29.483775,86.480768 28.3110173,86.848512 C26.6971305,87.356608 25.0186882,87.498048 23.3746756,87.83424 C22.1115402,88.093184 20.8527085,88.42176 19.5745101,88.549056 C18.4706116,88.657856 17.6217071,87.79616 17.6884144,86.837632 C17.7045533,86.617856 17.8680938,86.40896 18.0111918,86.086912" id="Fill-26" fill="#333333" mask="url(#mask-2)"></path>
                        <path d="M32.2346989,92.8539456 C32.8393685,93.1150656 33.2783457,93.3294016 33.7345377,93.4947776 C34.6748957,93.8353216 34.9406491,94.0953536 34.8642584,94.6665536 C34.7545141,95.4966976 34.1885778,96.0189376 33.3525845,96.1146816 C33.1460069,96.1375296 32.9157591,96.2310976 32.7554463,96.3660096 C31.7182551,97.2342336 30.5304344,97.0851776 29.3275508,96.9480896 C28.840157,96.8926016 28.3387762,96.9720256 27.8481546,96.9339456 C26.9346946,96.8643136 26.0083236,96.8305856 25.1206859,96.6336576 C24.3912091,96.4715456 24.0081799,95.3835456 24.7710104,94.5349056 C25.0141694,94.2650816 25.2723912,94.0050496 25.4832725,93.7102016 C25.8049739,93.2586816 25.6532685,92.8735296 25.1023952,92.7854016 C24.3944368,92.6711616 23.6778711,92.6069696 22.9645331,92.5242816 C22.8849147,92.5155776 22.7740945,92.5558336 22.7256779,92.5144896 C22.0317066,91.9269696 21.283939,92.4633536 20.5662974,92.4122176 C20.1111813,92.3795776 19.8755538,92.6809536 19.872326,93.1455296 C19.8690983,93.6797376 19.8852371,94.2139456 19.8680223,94.7481536 C19.8389724,95.6446656 19.8981482,96.5651136 19.7098614,97.4289856 C19.587206,97.9958336 19.1675955,98.5561536 18.7404534,98.9706816 C18.5102056,99.1926336 17.8893971,99.2655296 17.6150364,99.1055936 C17.2954868,98.9195456 17.0534038,98.4299456 16.9662539,98.0295616 C16.7091079,96.8458176 16.3960139,95.5935296 16.9737854,94.4609216 C17.4536477,93.5230656 17.4547236,92.5297216 17.6849715,91.5635776 C17.7947158,91.1011776 17.9776229,90.6529216 18.1702134,90.2166336 C18.2261615,90.0882496 18.4370427,89.9478976 18.5650777,89.9587776 C18.6845054,89.9685696 18.8448181,90.1524416 18.8910829,90.2927936 C19.0847493,90.8694336 19.2439861,91.4591296 19.416134,92.0455616 C21.0741337,91.4732736 22.638528,90.8955456 24.2308963,90.4037696 C24.905501,90.1948736 25.6618759,90.2470976 26.3354047,90.0338496 C27.0218445,89.8173376 27.6480326,89.4049856 28.312954,89.1079616 C28.9273069,88.8348736 29.5534949,88.5922496 30.1807589,88.3550656 C30.8671988,88.0950336 31.5547146,87.8393536 32.2540655,87.6184896 C32.4778578,87.5477696 32.7489908,87.5466816 32.9792386,87.5978176 C33.9594059,87.8208576 34.8685621,88.1679296 35.5151928,89.0263616 C35.8723997,89.4996416 35.8153757,89.9903296 35.4205114,90.2634176 C34.6081884,90.8248256 34.1186427,91.7920576 33.0889829,92.0869056 C32.8113944,92.1663296 32.6080447,92.5068736 32.2346989,92.8539456" id="Fill-27" fill="#333333" mask="url(#mask-2)"></path>
                        <path d="M54.5506647,105.221459 C55.9256962,104.917907 57.3588277,104.767763 58.6606964,104.270547 C60.0647779,103.733075 61.3526596,102.881171 62.6781986,102.141331 C63.0052796,101.958547 63.3129941,101.713747 63.5755196,101.443923 C64.1113301,100.893395 64.7203033,100.963027 65.3626303,101.143635 C65.5154116,101.187155 65.666041,101.255699 65.8220501,101.270931 C67.0701225,101.393875 67.2358149,101.019603 67.2562574,99.6313152 C67.2659408,98.8588352 67.3068259,98.0863552 67.2982185,97.3138752 C67.2949907,97.0734272 67.0582873,96.7894592 67.1271465,96.6012352 C67.4219498,95.8102592 67.3713814,95.2716992 66.549375,94.7712192 C66.1308404,94.5155392 66.0996386,93.8344512 66.5106418,93.2980672 C66.7344341,93.0053952 66.8549376,92.6224192 66.9905041,92.2688192 C67.3606221,91.2983232 67.9437732,90.9392832 68.9239405,91.1971392 C69.3747528,91.3168192 69.8094264,91.5452992 70.2150499,91.7846592 C70.8918064,92.1839552 71.5943851,92.5691072 72.1861436,93.0772032 C72.7994206,93.6059712 73.0092259,94.3186112 72.764991,95.1792192 C72.6294245,95.6546752 72.7154985,96.1964992 72.7176504,96.7089472 C72.7198022,97.2159552 72.565945,97.6326592 72.1775362,97.9797312 C72.0548808,98.0896192 72.0075402,98.3278912 71.9903254,98.5128512 C71.8848848,99.6661312 71.8160256,100.821587 71.6987498,101.972691 C71.6320425,102.629843 71.4674261,103.277203 71.4071743,103.935443 C71.3878076,104.143251 71.5599556,104.374995 71.6610925,104.587155 C71.8601385,105.000595 72.1463344,105.389011 72.2474713,105.824211 C72.3109509,106.092947 72.1839918,106.615187 71.9967809,106.701139 C70.9090212,107.201619 70.7164307,108.237395 70.41302,109.203539 C70.2397962,109.751891 70.0805593,110.327443 70.056889,110.896467 C70.0041687,112.191187 70.0396742,113.490259 70.0396742,114.787155 L70.2796054,114.906835 C70.6572549,114.643539 71.0435118,114.391123 71.4104021,114.112595 C72.12374,113.570771 72.894102,113.082259 73.5181382,112.449043 C74.5639368,111.387155 75.474169,110.190355 76.5199676,109.130643 C77.0880558,108.554003 77.8175326,108.141651 78.6029575,107.740179 C78.5362502,108.002387 78.510428,108.285267 78.3931522,108.522451 C77.5388682,110.251283 76.657686,111.956179 75.4720171,113.496787 C74.8339939,114.326931 74.3842574,115.306131 73.849523,116.217875 C73.8387637,116.235283 73.8312322,116.254867 73.8183211,116.270099 C73.0909962,117.062163 72.3593675,117.849875 71.639574,118.649555 C71.3619854,118.957459 71.1155987,119.295827 70.8466176,119.614611 C70.1322037,120.462163 69.4382324,121.329299 68.6926167,122.148563 C67.7210568,123.216979 66.7161433,124.254931 65.709078,125.289619 C65.3303525,125.681299 64.9279568,126.057747 64.4922073,126.381971 C64.2770224,126.542995 63.9628525,126.570195 63.6938713,126.657235 L60.890012,126.657235 C60.6726753,126.587603 60.4564144,126.515795 60.2401536,126.447251 C58.7510741,125.979411 57.6073663,124.907731 56.2893587,124.139603 C55.9827202,123.961171 56.0870849,123.198483 56.3958753,122.958035 C56.6799193,122.736083 56.9532042,122.499987 57.2394001,122.279123 C57.8311586,121.819987 58.3540579,121.040979 59.2309364,121.818899 C59.2685938,121.853715 59.3471362,121.846099 59.407388,121.850451 C60.2874943,121.911379 61.1363987,121.738387 61.873407,121.269459 C63.1494535,120.456723 64.3867667,119.579795 65.6316114,118.718099 C66.393366,118.191507 66.4127326,117.787859 66.0748923,116.882643 C65.8597074,116.302739 65.7843927,115.623827 65.8252778,115.001491 C65.9038203,113.756819 66.1039423,112.519763 66.2534958,111.280531 C66.3148235,110.780051 66.3384938,110.271955 66.4428585,109.780179 C66.6160824,108.958739 66.1975477,108.551827 65.3819969,108.734611 C64.2608836,108.984851 63.1343906,109.212243 62.0003661,109.392851 C61.6926517,109.441811 61.3526596,109.286227 61.0288063,109.223123 C60.3606571,109.092563 59.6516229,109.064275 59.0340422,108.810771 C57.2975,108.100307 55.7255743,107.117843 54.5506647,105.591379 L54.5506647,105.221459 Z" id="Fill-28" fill="#333333" mask="url(#mask-2)"></path>
                        <path d="M83.8811205,119.485574 C84.4104754,119.005766 84.9236914,118.505286 85.4724129,118.049414 C86.3891006,117.28999 87.3488252,116.581702 88.2526018,115.808134 C88.9853064,115.181446 88.7991715,114.111942 87.922293,113.77031 C87.3316104,113.540742 86.8700388,113.304646 86.667765,112.56807 C86.5128319,112.00775 85.9156938,111.587782 85.6294978,111.043782 C85.4153889,110.634694 85.3250112,110.134214 85.2841261,109.664198 C85.2023558,108.712198 85.1313448,107.750406 85.1700781,106.798406 C85.1980521,106.124934 85.4315277,105.462342 85.5380443,104.789958 C85.7080403,103.716102 85.8855679,102.642246 85.9920844,101.560774 C86.0942972,100.533702 86.054488,100.536966 85.0452708,100.282374 C84.8623637,100.23559 84.700975,100.106118 84.528827,100.013638 C84.82901,99.2868544 85.0678652,98.6514624 85.755381,98.1836224 C86.1954341,97.8844224 86.4063154,97.1532864 86.5838429,96.5722944 C86.7344723,96.0816064 86.6914354,95.5289024 86.7344723,95.0044864 C86.7732056,94.5192384 86.810863,94.0339904 86.8560518,93.5509184 C86.9216832,92.8382784 86.7656741,92.1930944 86.3492914,91.6055744 C86.0136029,91.1322944 85.7069644,90.6383424 85.3917185,90.1585344 C86.581691,89.1042624 87.5597064,89.2087104 88.9584083,90.2869184 C89.4501058,90.6655424 89.9385756,91.0485184 90.4259694,91.4325824 C90.9424132,91.8405824 91.1457629,93.6684224 90.7519745,94.3233984 C90.5561563,94.6497984 90.3646417,94.9794624 90.1645197,95.3200064 C90.9230465,95.9336384 91.7525843,95.6387904 92.5713629,95.5669824 C93.2750175,95.5060544 93.9991147,95.4190144 94.6887824,95.5223744 C95.0965578,95.5833024 95.4914221,95.9488704 95.8238827,96.2535104 C96.4694375,96.8464704 97.1085366,97.4568384 97.6669415,98.1313984 C97.9380744,98.4588864 98.0219966,98.9441344 98.2113593,99.4119744 C97.9219356,99.5479744 97.6777007,99.6633024 97.3850492,99.8003904 C97.4323899,99.9113664 97.4797306,100.022342 97.5216917,100.12135 C96.5060189,100.842694 95.4075,100.554374 94.3014495,100.446662 C93.6289967,100.381382 92.9382532,100.508678 92.256117,100.54567 C91.529868,100.585926 90.8046948,100.660998 90.0805976,100.644678 C89.7276944,100.635974 89.5824446,100.689286 89.5318761,101.05703 C89.3457412,102.431174 89.0401786,103.797702 88.9573324,105.177286 C88.8766381,106.51879 88.9530287,107.879878 89.0896711,109.219206 C89.1316322,109.632646 89.5168132,110.139654 89.8880071,110.362694 C91.0553852,111.068806 92.285167,111.569286 93.724754,111.536646 C94.9340932,111.509446 96.1552675,111.72487 97.3613789,111.902214 C98.2468648,112.030598 98.7310308,112.805254 99.3486115,113.352518 C99.9080923,113.848646 100.168466,114.50471 100.420232,115.202118 C100.683834,115.92999 100.340614,116.366278 99.8489164,116.61543 C99.2055135,116.940742 98.471733,117.252998 97.7723821,117.260614 C95.9572974,117.280198 94.1712627,117.473862 92.385228,117.773062 C91.2845572,117.958022 90.1548364,117.983046 89.0563175,118.175622 C88.4817738,118.276806 87.9470393,118.591238 87.3929381,118.803398 C86.5580207,119.12327 85.7295588,119.462726 84.8817303,119.740166 C84.6073695,119.829382 84.2792126,119.75431 83.9768778,119.75431 C83.945676,119.665094 83.9133982,119.575878 83.8811205,119.485574" id="Fill-29" fill="#333333" mask="url(#mask-2)"></path>
                    </g>
                </g>
            </g>
        </g>
    </g>
</svg>