<?xml version="1.0" encoding="UTF-8"?>
<svg width="296px" height="203px" viewBox="0 0 296 203" version="1.1" xmlns="http://www.w3.org/2000/svg" xmlns:xlink="http://www.w3.org/1999/xlink">
    <!-- Generator: Sketch 63.1 (92452) - https://sketch.com -->
    <title>branding</title>
    <desc>Created with Sketch.</desc>
    <g id="Page-1" stroke="none" stroke-width="1" fill="none" fill-rule="evenodd">
        <g id="Home---Tablet-Landscape" transform="translate(-48.000000, -278.000000)" fill-rule="nonzero">
            <g id="branding" transform="translate(48.000000, 278.000000)">
                <path d="M97.35,72.23 C92.55,72.23 88.6166667,70.8966667 85.55,68.23 C82.4833333,65.5633333 80.9666667,61.8833333 81,57.19 L81,57 C81,52.08 82.71,48.2966667 86.13,45.65 C89.55,43.0033333 94.2166667,41.67 100.13,41.65 C104.112878,41.6032454 108.074072,42.2425842 111.84,43.54 L111.84,42.73 C111.84,37.45 108.596667,34.81 102.11,34.81 C97.5094618,34.8537274 92.9589926,35.7699293 88.7,37.51 L85.1,25.49 C91.3637307,22.9435533 98.0686311,21.6589855 104.83,21.71 C113.23,21.71 119.413333,23.69 123.38,27.65 C126.86,31.07 128.6,36.2333333 128.6,43.14 L128.6,71.14 L111.67,71.14 L111.67,66.14 C108.037161,70.1948016 102.790635,72.4260407 97.35,72.23 L97.35,72.23 Z M103.48,61.51 C105.729983,61.6103384 107.928858,60.8198931 109.6,59.31 C111.176692,57.7982431 112.0288,55.6825404 111.94,53.5 L111.94,51.25 C109.827869,50.38455 107.56231,49.9559306 105.28,49.99 C103.223356,49.8665664 101.186625,50.4525235 99.51,51.65 C98.1679938,52.688709 97.3995974,54.3034551 97.44,56 L97.44,56.18 C97.3792075,57.6568328 97.9938001,59.0810683 99.11,60.05 C100.336309,61.0597658 101.892996,61.5798488 103.48,61.51 L103.48,61.51 Z" id="Shape" fill="#333333"></path>
                <polygon id="Path" fill="#333333" points="40.59 42.38 44 22 61.42 22 64.78 42.38"></polygon>
                <polygon id="Path" fill="#333333" points="66.79 59.79 63.72 43.4 41.65 43.4 38.58 59.79"></polygon>
                <polygon id="Path" fill="#333333" points="39.79 60.68 37.16 71.15 68.21 71.15 65.58 60.68"></polygon>
                <path d="M136.84,11.71 L136.84,11.71 C136.84,8.23060608 139.660606,5.41 143.14,5.41 L148.37,5.41 C151.849394,5.41 154.67,8.23060608 154.67,11.71 L154.67,11.71 C154.67,15.1910153 151.851011,18.0144833 148.37,18.02 L143.14,18.02 C139.658989,18.0144833 136.84,15.1910153 136.84,11.71 Z M137.2,71.15 L137.2,22.43 L154.31,22.43 L154.31,71.15 L137.2,71.15 Z" id="Shape" fill="#333333"></path>
                <path d="M163.37,81.36 L163.37,22.43 L180.48,22.43 L180.48,28.91 C184.62,23.87 189.543333,21.35 195.25,21.35 C201.125076,21.2916254 206.726864,23.8272487 210.56,28.28 C214.76,32.9066667 216.86,39 216.86,46.56 L216.86,46.74 C216.86,54.4333333 214.773333,60.6033333 210.6,65.25 C206.808481,69.7379621 201.214906,72.3038224 195.34,72.25 C189.576693,72.312535 184.101825,69.7335259 180.48,65.25 L180.48,81.4 L163.37,81.36 Z M190,57.91 C192.710495,57.9616279 195.308036,56.825432 197.11,54.8 C199.079554,52.6127543 200.11348,49.740738 199.99,46.8 L199.99,46.62 C200.091452,43.7187252 199.058371,40.8921011 197.11,38.74 C195.290379,36.7635518 192.726516,35.6390091 190.04,35.6390091 C187.353484,35.6390091 184.789621,36.7635518 182.97,38.74 C181.021629,40.8921011 179.988548,43.7187252 180.09,46.62 L180.09,46.8 C179.990212,49.7160194 181.022216,52.5576135 182.97,54.73 C184.730819,56.7733712 187.302754,57.9367785 190,57.91 L190,57.91 Z" id="Shape" fill="#333333"></path>
                <path d="M247.36,72.32001 C239.68,72.32001 233.406667,69.9866667 228.54,65.32 C223.673333,60.6533333 221.243333,54.5466667 221.25,47 L221.25,46.82 C221.06731,40.0943204 223.559509,33.5707268 228.18,28.68 C232.738206,23.8150043 239.166206,21.1418303 245.83,21.34 C253.83,21.34 259.923333,23.86 264.11,28.9 C268.296667,33.94 270.4,40.3066667 270.42,48 C270.42,49.57 270.42,50.74 270.33,51.52 L237.73,51.52 C239.11,56.8533333 242.62,59.52 248.26,59.52 C252.113333,59.52 255.716667,57.8533333 259.07,54.52 L268.53,62.35 C263.303333,69.0033333 256.246667,72.3266667 247.36,72.32001 Z M237.46,42.78 L254.39,42.78 C254.225006,40.3942767 253.275728,38.130074 251.69,36.34 C250.18984,34.7706898 248.089479,33.918897 245.92,34 C243.815116,33.9500449 241.792752,34.8188583 240.38,36.38 C238.812152,38.1885854 237.798411,40.4104841 237.46,42.78 L237.46,42.78 Z" id="Shape" fill="#333333"></path>
                <path d="M118.29,126.13 L118.29,118.13 L133.58,107.21 C135.082398,106.170119 136.446646,104.94364 137.64,103.56 C138.397567,102.656121 138.821258,101.519217 138.84,100.34 C138.88936,99.2479805 138.422738,98.1962294 137.58,97.5 C136.636047,96.7881883 135.470403,96.4338892 134.29,96.5 C132.934247,96.5114351 131.608308,96.899177 130.46,97.62 C128.867637,98.6905902 127.424953,99.9684916 126.17,101.42 L118.52,95.47 C120.497627,92.9376839 122.958584,90.8234365 125.76,89.25 C128.685255,87.8322913 131.91097,87.145969 135.16,87.25 C139.64,87.25 143.27,88.38 146.05,90.64 C148.756718,92.7373508 150.304791,95.9968415 150.22,99.42 L150.22,99.53 C150.317187,102.096782 149.533865,104.619643 148,106.68 C145.915092,109.103707 143.477894,111.200439 140.77,112.9 L133.77,117.48 L150.64,117.48 L150.64,126.1 L118.29,126.13 Z" id="Path" fill="#FF5547"></path>
                <path d="M195.69,121.14 C192.196667,124.98 187.613333,126.9 181.94,126.9 C176.266667,126.9 171.703333,124.996667 168.25,121.19 C164.783554,117.346044 162.931907,112.314003 163.08,107.14 L163.08,107 C162.942904,101.793463 164.828154,96.7362647 168.34,92.89 C171.944173,89.2152358 176.87231,87.1405872 182.019529,87.1311555 C187.166748,87.121788 192.10243,89.1784238 195.72,92.84 C199.196402,96.6792405 201.055756,101.712752 200.91,106.89 L200.91,107 C201.056398,112.209774 199.186473,117.275048 195.69,121.14 Z M176.57,114.59 C177.780358,116.438001 179.851107,117.539383 182.06,117.51 C184.244788,117.54842 186.294423,116.455533 187.48,114.62 C188.931546,112.40366 189.64876,109.786704 189.53,107.14 L189.53,107 C189.642809,104.326888 188.896333,101.687937 187.4,99.47 C186.201135,97.6210102 184.143617,96.5093472 181.94,96.52 C179.76367,96.4942405 177.725773,97.5848925 176.54,99.41 C175.077638,101.62228 174.353033,104.24066 174.47,106.89 L174.47,107 C174.341779,109.68931 175.077678,112.349061 176.57,114.59 L176.57,114.59 Z" id="Shape" fill="#FFBB00"></path>
                <path d="M213.36,126.13 L213.36,118.13 L228.66,107.21 C230.160282,106.167444 231.524211,104.941252 232.72,103.56 C233.471131,102.653126 233.890858,101.517392 233.91,100.34 C233.958659,99.2502679 233.496461,98.2001542 232.66,97.5 C231.713375,96.7859118 230.543777,96.4314881 229.36,96.5 C228.004247,96.5114351 226.678308,96.899177 225.53,97.62 C223.937637,98.6905902 222.494953,99.9684916 221.24,101.42 L213.59,95.47 C215.567627,92.9376839 218.028584,90.8234365 220.83,89.25 C223.755255,87.8322913 226.98097,87.145969 230.23,87.25 C234.71,87.25 238.34,88.38 241.12,90.64 C243.829188,92.7363044 245.3808,95.9954326 245.3,99.42 L245.3,99.53 C245.397187,102.096782 244.613865,104.619643 243.08,106.68 C240.991193,109.103622 238.550718,111.200274 235.84,112.9 L228.84,117.48 L245.7,117.48 L245.7,126.1 L213.36,126.13 Z" id="Path" fill="#007F00"></path>
                <path d="M290.76,121.14 C287.28,124.98 282.696667,126.9 277.01,126.9 C271.323333,126.9 266.76,124.996667 263.32,121.19 C259.858037,117.343339 258.007074,112.313158 258.15,107.14 L258.15,107 C258.017084,101.794161 259.90177,96.7384731 263.41,92.89 C267.014173,89.2152358 271.94231,87.1405872 277.089529,87.1311555 C282.236748,87.121788 287.17243,89.1784238 290.79,92.84 C294.28337,96.6862231 296.150722,101.736316 296,106.93 L296,107 C296.140948,112.212511 294.26373,117.278134 290.76,121.14 Z M271.64,114.59 C272.850358,116.438001 274.921107,117.539383 277.13,117.51 C279.316931,117.546126 281.368517,116.454213 282.56,114.62 C283.989611,112.395896 284.688835,109.780801 284.56,107.14 L284.56,107 C284.672809,104.326888 283.926333,101.687937 282.43,99.47 C281.231135,97.6210102 279.173617,96.5093472 276.97,96.52 C274.79367,96.4942405 272.755773,97.5848925 271.57,99.41 C270.107638,101.62228 269.383033,104.24066 269.5,106.89 L269.5,107 C269.383552,109.693722 270.133574,112.353847 271.64,114.59 L271.64,114.59 Z" id="Shape" fill="#0000C8"></path>
                <path d="M21,5.65 L19.32,1.41 C19.32,1.41 24.68,5.94 39,5.94 C53.32,5.94 66.48,6.23 73.49,5.43 C77.8702961,4.87639674 82.1110942,3.52042613 86,1.43 L84.62,5.5 L84.25,6.27 L86,20 L19.35,20 L21,5.65 Z" id="Path" fill="#333333"></path>
                <path d="M42.81,1.28 L42.29,0 C42.29,0 43.93,1.38 48.29,1.38 C52.65,1.38 56.69,1.47 58.84,1.23 C60.1879895,1.05995812 61.4931105,0.642997376 62.69,0 L62.26,1.24 L62.15,1.47 L62.69,7.29 L42.29,7.29 L42.81,1.28 Z" id="Path" fill="#333333"></path>
                <path d="M33.94,4.07 L33,1.8 C33,1.8 36.11,4.23 44.46,4.23 C52.81,4.23 60.46,4.39 64.58,3.96 C67.1154758,3.67363805 69.5820498,2.94956834 71.87,1.82 L71,4 L70.78,4.42 L71.78,14.6 L33,14.6 L33.94,4.07 Z" id="Path" fill="#333333"></path>
                <path d="M280.09,63.4 C281.957993,63.3587806 283.688765,64.3771098 284.56,66.03 C285.437362,64.4356832 287.100507,63.4324559 288.92,63.4 C289.924704,63.4022359 290.927719,63.4824771 291.92,63.64 L293.92,53.64 C292.272588,53.1465462 290.559575,52.907129 288.84,52.93 C285.84,52.93 284.48,56.35 284.48,56.35 C284.48,56.35 283.28,52.93 280.01,52.93 C278.312353,52.8231701 276.610798,53.0647909 275.01,53.64 L277.01,63.64 C278.029026,63.4814164 279.058709,63.4011813 280.09,63.4 L280.09,63.4 Z" id="Path" fill="#333333"></path>
                <path d="M280.09,52 C281.955804,51.9568507 283.686024,52.9709841 284.56,54.62 C285.439947,53.0295424 287.102602,52.0304246 288.92,52 C289.924704,52.0022359 290.927719,52.0824771 291.92,52.24 L293.92,42.24 C292.272588,41.7465462 290.559575,41.507129 288.84,41.53 C285.84,41.53 284.48,44.95 284.48,44.95 C284.48,44.95 283.28,41.53 280.01,41.53 C278.312353,41.4231701 276.610798,41.6647909 275.01,42.24 L277.01,52.24 C278.029125,52.082265 279.058743,52.0020351 280.09,52 L280.09,52 Z" id="Path" fill="#333333"></path>
                <path d="M280.09,40.57 C281.957993,40.5287806 283.688765,41.5471098 284.56,43.2 C285.437362,41.6056832 287.100507,40.6024559 288.92,40.57 C289.924704,40.5722359 290.927719,40.6524771 291.92,40.81 L293.92,30.81 C292.273829,30.3099137 290.560302,30.0670516 288.84,30.09 C285.84,30.09 284.48,33.51 284.48,33.51 C284.48,33.51 283.28,30.09 280.01,30.09 C278.311481,29.9817729 276.608973,30.226934 275.01,30.81 L277.01,40.81 C278.029026,40.6514164 279.058709,40.5711813 280.09,40.57 Z" id="Path" fill="#333333"></path>
                <path d="M280.09,29.15 C281.957993,29.1087806 283.688765,30.1271098 284.56,31.78 C285.437362,30.1856832 287.100507,29.1824559 288.92,29.15 C289.925198,29.1501154 290.928648,29.2337363 291.92,29.4 L293.92,19.35 C292.272588,18.8565462 290.559575,18.617129 288.84,18.64 C285.84,18.64 284.48,22.06 284.48,22.06 C284.48,22.06 283.28,18.64 280.01,18.64 C278.312353,18.5331701 276.610798,18.7747909 275.01,19.35 L277.01,29.35 C278.030055,29.2048028 279.059733,29.1379406 280.09,29.15 L280.09,29.15 Z" id="Path" fill="#333333"></path>
                <rect id="Rectangle" fill="#333333" x="283.67" y="1.3" width="1.78" height="8.61"></rect>
                <path d="M284.56,20.76 C285.27058,19.2515115 286.628233,18.1477288 288.25,17.76 L288.73,9.11 L280.39,9.11 L280.87,17.77 C282.50627,18.1215415 283.876889,19.232152 284.56,20.76 L284.56,20.76 Z" id="Path" fill="#333333"></path>
                <path d="M291.84,75.81 L294,65.18 C292.352588,64.6865462 290.639575,64.447129 288.92,64.47 C285.92,64.47 284.56,67.89 284.56,67.89 C284.56,67.89 283.36,64.47 280.09,64.47 C278.392353,64.3631701 276.690798,64.6047909 275.09,65.18 L277.25,75.81 L291.84,75.81 Z" id="Path" fill="#333333"></path>
                <path d="M19,87.44 C18.8501835,87.6825256 18.7356989,87.9451667 18.66,88.22 C18.6422479,88.7371802 18.8556166,89.2354268 19.2421763,89.5794649 C19.6287359,89.9235029 20.1483711,90.0776299 20.66,90 C22.0051388,89.8220765 23.3402358,89.5750835 24.66,89.26 C26.406063,89.0162439 28.1383706,88.682466 29.85,88.26 C31.0825022,87.8527625 32.3380317,87.5188451 33.61,87.26 C34.26,87.13 34.87,87.12 35.33,86.53 C35.79,85.94 35.78,85.68 35.1,85.42 C34.59,85.21 34,85.2 33.48,85 C32.48,84.61 31.7,85.22 30.81,85.36 C30.33,85.44 29.81,85.44 29.33,85.48 C29.33,85.15 29.4,84.82 29.43,84.48 C29.43,84.37 29.43,84.26 29.43,84.16 C29.63,83.09 29.88,82.85 30.91,82.67 C31.26,82.61 31.6,82.51 31.91,82.44 C32.97,82.22 34.03,81.94 35.1,81.8 C35.8205892,81.8241627 36.5273071,81.598013 37.1,81.16 C37.78,80.54 38.51,79.95 38.23,78.95 C37.95,77.95 37.61,77.01 36.23,77.12 C36.13,77.12 36.02,76.95 35.92,76.86 C35.82,76.77 35.64,76.56 35.47,76.52 C35.0638178,76.3547244 34.6284659,76.2730959 34.19,76.28 C33.2675057,76.4489378 32.3558918,76.6726672 31.46,76.95 C30.52,77.22 30.46,77.2 30.09,76.29 C30.0632967,76.2089541 30.0263296,76.1316594 29.98,76.06 C28.9,74.39 27.17,73.63 25.42,72.94 C25.1507246,72.8869087 24.8713643,72.9293431 24.63,73.06 C24.3062933,73.2325691 23.9984343,73.4333467 23.71,73.66 C24.06,74.13 24.42,74.57 24.71,75.04 C25.2753693,75.8372438 25.7961663,76.6651774 26.27,77.52 C26.4604387,77.8923361 26.4901631,78.3263988 26.3522592,78.7212197 C26.2143552,79.1160407 25.9208441,79.4372028 25.54,79.61 C23.89,80.37 22.21,81.05 20.54,81.79 C19.89,82.07 19.28,82.42 18.65,82.79 L18.72,83 L20.36,83 C22.05,83 23.74,83 25.44,83 C25.87,83 26.23,83.25 26.07,83.6 C25.6734916,84.5471963 25.5188478,85.5781546 25.62,86.6 C25.6800233,87.0402506 25.3784861,87.4482128 24.94,87.52 C23.8917734,87.9864762 22.7901791,88.3223281 21.66,88.52 C20.69,88.47 19.69,88.66 19,87.44 Z M34,94.44 C34.4,94.08 34.61,93.73 34.9,93.64 C35.99,93.34 36.5,92.33 37.36,91.75 C37.5614126,91.6036327 37.6885244,91.3763168 37.7077674,91.1280827 C37.7270103,90.8798487 37.6364493,90.6356589 37.46,90.46 C36.7622155,89.6467697 35.7841737,89.1256233 34.72,89 C34.4668374,88.9400205 34.2031626,88.9400205 33.95,89 C33.22,89.23 32.49,89.5 31.77,89.77 C31.05,90.04 30.45,90.27 29.77,90.55 C29.0914918,90.9200277 28.3938464,91.2538293 27.68,91.55 C26.97,91.77 26.18,91.71 25.47,91.93 C23.79,92.44 22.14,93.05 20.4,93.64 C20.22,93.03 20.05,92.42 19.85,91.82 C19.8,91.67 19.63,91.48 19.5,91.47 C19.3267777,91.4857639 19.1729083,91.5870926 19.09,91.74 C18.8715039,92.1875454 18.7005681,92.6567808 18.58,93.14 C18.4513867,94.166491 18.1995722,95.1737487 17.83,96.14 C17.3902756,97.3410166 17.3902756,98.6589834 17.83,99.86 C17.9097593,100.304808 18.1521472,100.704035 18.51,100.98 C18.904895,101.136994 19.3523225,101.084355 19.7,100.84 C20.1739132,100.408596 20.5198913,99.8550315 20.7,99.24 C20.8391123,98.3135509 20.8926715,97.3762653 20.86,96.44 C20.86,95.89 20.86,95.33 20.86,94.78 C20.86,94.23 21.11,93.98 21.59,94.01 C22.35,94.07 23.13,93.51 23.86,94.12 C23.86,94.12 24.03,94.12 24.11,94.12 C24.87,94.21 25.62,94.27 26.37,94.39 C26.94,94.48 27.11,94.88 26.77,95.39 C26.54,95.7 26.27,95.97 26.02,96.25 C25.6709628,96.5428007 25.5022538,96.9979969 25.576153,97.4475502 C25.6500521,97.8971035 25.9555994,98.2743398 26.38,98.44 C27.3284946,98.6085442 28.287392,98.7121185 29.25,98.75 C29.77,98.75 30.3,98.75 30.81,98.75 C32.08,98.9 33.33,99.05 34.42,98.15 C34.6010366,98.0052447 34.8195647,97.9150585 35.05,97.89 C35.8789222,97.8454754 36.5527801,97.2055223 36.64,96.38 C36.72,95.78 36.44,95.51 35.45,95.16 C35,95 34.57,94.75 33.93,94.48 L34,94.44 Z" id="Shape" fill="#333333"></path>
                <path d="M20.92,136 C19.1,135.28 17.28,134.58 15.48,133.84 C14.79,133.55 14.72,133.14 15.11,132.49 C15.79,131.4 16.5,131.28 17.89,131.49 C18.42,131.59 18.89,131.84 19.45,131.92 C19.7888199,131.94986 20.1300764,131.905496 20.45,131.79 C21.0196204,131.549507 21.6534966,131.507249 22.25,131.67 C23.3590685,131.791361 24.4190135,131.180477 24.87,130.16 C25.21,129.28 25.59,128.43 25.97,127.57 C26.23,127.01 26.1,126.76 25.47,126.71 C25.13,126.71 24.71,126.82 24.47,126.71 C23.47,126.1 22.19,125.99 21.41,124.81 C21.64,124.72 21.89,124.54 22.08,124.58 C23.3908638,124.817963 24.7422153,124.682828 25.98,124.19 C26.52,124 27.12,123.95 27.29,123.29 C27.4379566,122.894181 27.4759685,122.465683 27.4,122.05 C26.97,120.93 27.66,120.34 28.35,119.74 C28.610868,119.526117 28.8922354,119.338538 29.19,119.18 C29.92,118.8 30.62,118.36 31.47,118.98 C31.8217034,119.168123 32.2114613,119.27411 32.61,119.29 C33.0820684,119.388645 33.5572905,119.136314 33.74,118.69 C34.14,118.08 34.74,117.58 35.17,117 C35.48,116.61 35.73,116.16 36.05,115.66 C35.81,115.66 35.71,115.55 35.66,115.58 C34.66,116.11 33.46,115.58 32.4,115.96 C31.87,116.14 31.34,116.34 30.8,116.51 C29.33,117 27.8,117.43 26.38,117.99 C25.2231069,118.464528 24.0945639,119.005427 23,119.61 C22.68,119.78 22.5,120.18 22.23,120.45 C21.53,121.17 20.81,121.89 20.09,122.6 C19.88,122.82 20.03,123.38 19.51,123.27 C19.2144424,123.216242 18.9384078,123.085126 18.71,122.89 C18.3115279,122.524866 17.9373941,122.134029 17.59,121.72 C17.52,121.65 17.41,121.54 17.43,121.46 C17.6010107,121.016763 17.7119939,120.552651 17.76,120.08 C17.76,119.46 18.16,119.33 18.51,119.08 C18.7723001,118.885442 19.0196587,118.67151 19.25,118.44 C19.58,118.11 19.87,117.74 20.18,117.44 C21.08,116.44 22.02,115.44 22.88,114.44 C23.37,113.85 23.16,113.38 22.38,113.21 C21.6,113.04 21.07,112.93 20.38,112.82 C20.0266573,112.730971 19.7309761,112.489855 19.5726675,112.161654 C19.4143589,111.833454 19.4097195,111.451953 19.56,111.12 C19.6186266,111.033629 19.6856165,110.953241 19.76,110.88 C20.56,110.16 20.58,110.15 21.18,111.06 C21.41,111.43 21.66,111.45 22.09,111.45 C24.55,111.45 26.82,110.52 29.22,110.22 C30.1688003,109.984774 31.0981862,109.677207 32,109.3 C32.7569929,109.075673 33.5289245,108.905247 34.31,108.79 C35.31,108.65 36.31,108.62 37.25,108.52 C37.7552626,108.407046 38.2720951,108.655125 38.5,109.12 C37.7552986,110.333622 36.6196916,111.257625 35.28,111.74 C34.35,112.18 33.49,112.74 32.6,113.24 C32.3378806,113.357406 32.067073,113.454361 31.79,113.53 C31.46,113.64 31.33,113.92 31.62,114.07 C32.0067416,114.257346 32.4302854,114.356401 32.86,114.36 C33.3388289,114.318715 33.8194608,114.302027 34.3,114.31 C35.4806574,114.557818 36.7080952,114.453503 37.83,114.01 C38.6709489,113.592122 39.6590511,113.592122 40.5,114.01 C40.62,114.07 40.82,114.01 40.98,114.01 C41.5341218,114.036572 42.0855768,114.103415 42.63,114.21 C43,114.3 43.08,114.64 42.84,114.95 C42.4147592,115.580602 41.9434745,116.1789 41.43,116.74 C40.72551,117.42621 39.984428,118.073822 39.21,118.68 C38.54,119.24 37.81,119.68 37.16,120.29 C36.9178781,120.594337 36.7193054,120.930901 36.57,121.29 L37.79,121.44 C38.2889283,121.473858 38.6861422,121.871072 38.72,122.37 C38.72,122.59 38.54,122.88 38.36,123.08 C37.392012,123.91556 36.2409939,124.511623 35,124.82 C34.1734278,125.111548 33.3623613,125.44532 32.57,125.82 C32.1571028,126.11409 31.8321325,126.515118 31.63,126.98 C31.22,127.73 30.89,128.52 30.54,129.31 C30.4899871,129.410804 30.4899871,129.529196 30.54,129.63 C30.54,129.68 30.75,129.63 30.85,129.63 C31.59,129.5 32.32,129.34 33.06,129.22 C34.39,129 35.71,128.78 37.06,128.61 C38.8550843,128.314934 40.6943556,128.445087 42.43,128.99 C43.5374912,129.386003 44.1998948,130.52095 44,131.68 C43.93,132.04 43.81,132.41 43.27,132.3 C43.0839193,132.295656 42.9014516,132.3518 42.75,132.46 C41.1970057,133.469789 39.3920735,134.024087 37.54,134.06 C37.0588971,133.973047 36.5844202,133.852757 36.12,133.7 C35.5650011,133.572775 34.9990738,133.499104 34.43,133.48 C33.5164948,133.506969 32.6051408,133.583749 31.7,133.71 C30.98,133.8 30.27,133.98 29.56,134.11 C28.39,134.32 27.21,134.47 26.06,134.74 C25.4961591,134.93073 24.9533285,135.178689 24.44,135.48 L23.22,136 L20.92,136 Z" id="Path" fill="#333333"></path>
                <path d="M0,114.81 C0.47,114.1 0.93,113.39 1.39,112.67 C1.44,112.6 1.51,112.52 1.5,112.45 C1.4,111.45 2.26,110.9 2.76,110.21 C4.02,108.49 5.34,106.79 6.67,105.11 C7.2,104.44 7.88,103.88 8.42,103.22 C8.78567205,102.853696 9.21634252,102.55867 9.69,102.35 C9.81,102.28 9.99,102.35 10.14,102.35 C10.1649884,102.498959 10.1649884,102.651041 10.14,102.8 C9.46688541,104.606248 9.20387032,106.539579 9.37,108.46 C9.37,108.71 9.46,108.95 9.49,109.2 C9.48531535,109.401886 9.5916426,109.590102 9.76697557,109.690293 C9.94230854,109.790483 10.1584462,109.786532 10.33,109.68 C12.62,108.82 14.87,107.87 17.17,107.05 C19.08,106.37 21.03,105.83 22.97,105.23 C23.34,105.11 23.77,104.79 24.07,104.88 C24.9,105.14 25.42,104.64 26.07,104.34 C26.28,104.24 26.52,104.08 26.71,104.11 C27.79,104.28 28.63,103.59 29.59,103.34 C31.44,102.85 33.28,102.34 35.14,101.81 C35.78,101.64 36.47,101.65 37.14,101.51 C37.81,101.37 38.49,101.13 39.14,100.95 C40.0486974,100.659518 40.9736109,100.422446 41.91,100.24 C43.2602861,99.9916746 44.6540527,100.155442 45.91,100.71 C46.8149917,100.968883 47.6584749,101.40763 48.39,102 C49.02,102.7 48.92,103.26 48.1,103.7 C47.78,103.88 47.51,104.15 47.2,104.33 C47.003106,104.445403 46.7781825,104.504229 46.55,104.5 C45.05,104.43 43.55,104.29 42.05,104.27 C41.17,104.27 40.29,104.45 39.41,104.51 C38.96,104.51 38.51,104.51 38.05,104.51 C37.4745963,104.521639 36.8992334,104.484842 36.33,104.4 L37.71,103.48 C37.22,102.91 36.79,103.17 36.36,103.26 C35.36,103.48 34.36,103.64 33.36,103.88 C32.68,104.04 32.04,104.32 31.36,104.51 C30.68,104.7 30.27,104.75 29.73,104.89 C28.3649646,105.336771 26.9761569,105.707342 25.57,106 C24.2851036,106.330968 23.0740083,106.900895 22,107.68 C21.5006753,107.894117 20.9766505,108.045278 20.44,108.13 C19.1691239,108.439871 17.9353361,108.885778 16.76,109.46 C16.1114931,109.718701 15.4424977,109.922744 14.76,110.07 C14.4430088,110.161097 14.1376395,110.288614 13.85,110.45 C12.8862015,110.977815 11.7982432,111.236853 10.7,111.2 C9.46,111.2 9.46,111.28 9.26,112.4 C8.97158581,113.986862 8.48791051,115.531936 7.82,117 C7.58109896,117.696166 7.20730666,118.338409 6.72,118.89 C5.98,119.56 5.45,120.59 4.15,120.5 C2.01357572,120.320848 0.343155336,118.581898 0.25,116.44 C0.202682332,116.192152 0.118409083,115.952816 0,115.73 L0,114.81 Z" id="Path" fill="#333333"></path>
                <path d="M19,87.44 C19.73,88.66 20.73,88.44 21.76,88.44 C22.8901791,88.2423281 23.9917734,87.9064762 25.04,87.44 C25.4784861,87.3682128 25.7800233,86.9602506 25.72,86.52 C25.6188478,85.4981546 25.7734916,84.4671963 26.17,83.52 C26.33,83.17 25.97,82.91 25.54,82.92 C23.84,82.92 22.15,82.92 20.46,82.92 L18.78,82.92 L18.71,82.71 C19.34,82.39 19.95,82.04 20.6,81.71 C22.26,80.97 23.94,80.29 25.6,79.53 C25.9808441,79.3572028 26.2743552,79.0360407 26.4122592,78.6412197 C26.5501631,78.2463988 26.5204387,77.8123361 26.33,77.44 C25.8561663,76.5851774 25.3353693,75.7572438 24.77,74.96 C24.45,74.49 24.09,74.05 23.77,73.58 C24.0584343,73.3533467 24.3662933,73.1525691 24.69,72.98 C24.9313643,72.8493431 25.2107246,72.8069087 25.48,72.86 C27.23,73.55 28.96,74.31 30.04,75.98 C30.0863296,76.0516594 30.1232967,76.1289541 30.15,76.21 C30.5,77.12 30.58,77.14 31.52,76.87 C32.4158918,76.5926672 33.3275057,76.3689378 34.25,76.2 C34.6884659,76.1930959 35.1238178,76.2747244 35.53,76.44 C35.7,76.44 35.83,76.66 35.98,76.78 C36.13,76.9 36.19,77.05 36.29,77.04 C37.62,76.93 37.99,77.92 38.29,78.87 C38.59,79.82 37.84,80.46 37.16,81.08 C36.5873071,81.518013 35.8805892,81.7441627 35.16,81.72 C34.09,81.86 33.03,82.14 31.97,82.36 C31.62,82.43 31.28,82.53 30.97,82.59 C29.97,82.77 29.69,83.01 29.49,84.08 C29.49,84.18 29.49,84.29 29.49,84.4 C29.49,84.72 29.43,85.05 29.39,85.4 C29.89,85.4 30.39,85.4 30.87,85.28 C31.76,85.14 32.56,84.53 33.54,84.92 C34.06,85.12 34.65,85.13 35.16,85.34 C35.84,85.6 35.82,85.89 35.39,86.45 C34.96,87.01 34.32,87.05 33.67,87.18 C32.3980317,87.4388451 31.1425022,87.7727625 29.91,88.18 C28.1983706,88.602466 26.466063,88.9362439 24.72,89.18 C23.4002358,89.4950835 22.0651388,89.7420765 20.72,89.92 C20.2083711,89.9976299 19.6887359,89.8435029 19.3021763,89.4994649 C18.9156166,89.1554268 18.7022479,88.6571802 18.72,88.14 C18.7835261,87.8958207 18.8776021,87.6606306 19,87.44 Z" id="Path" fill="#333333"></path>
                <path d="M33.93,94.48 C34.57,94.75 35.03,94.98 35.51,95.15 C36.51,95.5 36.78,95.77 36.7,96.37 C36.6127801,97.1955223 35.9389222,97.8354754 35.11,97.88 C34.8795647,97.9050585 34.6610366,97.9952447 34.48,98.14 C33.39,99.04 32.14,98.89 30.87,98.74 C30.36,98.69 29.87,98.74 29.31,98.74 C28.347392,98.7021185 27.3884946,98.5985442 26.44,98.43 C26.0155994,98.2643398 25.7100521,97.8871035 25.636153,97.4375502 C25.5622538,96.9879969 25.7309628,96.5328007 26.08,96.24 C26.33,95.96 26.6,95.69 26.83,95.38 C27.17,94.91 27,94.51 26.43,94.38 C25.68,94.26 24.93,94.2 24.17,94.11 C24.09,94.11 23.97,94.11 23.92,94.11 C23.19,93.5 22.41,94.11 21.65,94 C21.17,94 20.92,94.28 20.92,94.77 C20.92,95.26 20.92,95.88 20.92,96.43 C20.9526715,97.3662653 20.8991123,98.3035509 20.76,99.23 C20.5798913,99.8450315 20.2339132,100.398596 19.76,100.83 C19.4123225,101.074355 18.964895,101.126994 18.57,100.97 C18.2121472,100.694035 17.9697593,100.294808 17.89,99.85 C17.4502756,98.6489834 17.4502756,97.3310166 17.89,96.13 C18.2595722,95.1637487 18.5113867,94.156491 18.64,93.13 C18.7605681,92.6467808 18.9315039,92.1775454 19.15,91.73 C19.2329083,91.5770926 19.3867777,91.4757639 19.56,91.46 C19.69,91.46 19.86,91.66 19.91,91.81 C20.11,92.41 20.28,93.02 20.46,93.63 C22.2,93.04 23.85,92.43 25.53,91.92 C26.24,91.7 27.03,91.76 27.74,91.54 C28.4538464,91.2438293 29.1514918,90.9100277 29.83,90.54 C30.47,90.26 31.13,90.01 31.83,89.76 C32.53,89.51 33.28,89.22 34.01,88.99 C34.2631626,88.9300205 34.5268374,88.9300205 34.78,88.99 C35.8234088,89.1400653 36.774431,89.6707855 37.45,90.48 C37.6264493,90.6556589 37.7170103,90.8998487 37.6977674,91.1480827 C37.6785244,91.3963168 37.5514126,91.6236327 37.35,91.77 C36.49,92.35 35.98,93.36 34.89,93.66 C34.54,93.77 34.33,94.12 33.93,94.48 Z" id="Path" fill="#333333"></path>
                <path d="M57.43,107.36 C58.8919398,107.129779 60.3356013,106.795598 61.75,106.36 C63.2176765,105.725879 64.6379863,104.987318 66,104.15 C66.346366,103.956512 66.6629682,103.714008 66.94,103.43 C67.4466603,102.949622 68.193444,102.823182 68.83,103.11 C68.9844043,103.17184 69.1454917,103.215467 69.31,103.24 C70.62,103.37 70.8,102.98 70.82,101.54 C70.82,100.73 70.82,99.93 70.82,99.13 C70.82,98.87 70.57,98.58 70.64,98.38 C70.839536,98.0540827 70.8880339,97.6576858 70.7729574,97.2932766 C70.6578808,96.9288674 70.3905248,96.6322139 70.04,96.48 C69.8107297,96.2900201 69.6780439,96.0077537 69.6780439,95.71 C69.6780439,95.4122463 69.8107297,95.1299799 70.04,94.94 C70.2633885,94.6113236 70.4353642,94.2505119 70.55,93.87 C70.6423663,93.4416549 70.9150967,93.0740102 71.2982346,92.8613687 C71.6813725,92.6487272 72.1376392,92.6117784 72.55,92.76 C73.0263843,92.8990056 73.4808393,93.104352 73.9,93.37 C74.6388056,93.7565651 75.3415991,94.2083609 76,94.72 C76.6345841,95.2506008 76.877047,96.1171079 76.61,96.9 C76.539401,97.430997 76.539401,97.969003 76.61,98.5 C76.6317786,99.0040003 76.4217979,99.4902714 76.04,99.82 C75.9139232,99.9759333 75.8435333,100.169505 75.84,100.37 C75.73,101.57 75.66,102.78 75.54,103.98 C75.47,104.66 75.29,105.33 75.23,105.98 C75.23,106.2 75.39,106.44 75.5,106.66 C75.7513827,107.062062 75.9560412,107.491509 76.11,107.94 C76.18,108.22 76.05,108.77 75.85,108.86 C74.71,109.38 74.5,110.46 74.18,111.46 C73.9776049,112.030669 73.8531484,112.626042 73.81,113.23 C73.75,114.57 73.81,115.92 73.81,117.23 L74.06,117.36 C74.46,117.08 74.87,116.82 75.25,116.53 C76.0302996,116.006999 76.7721924,115.428858 77.47,114.8 C78.57,113.7 79.53,112.45 80.63,111.35 C81.2824908,110.753946 82.0249561,110.264594 82.83,109.9 C82.7805945,110.177008 82.7035426,110.448365 82.6,110.71 C81.7338248,112.576499 80.6782898,114.349127 79.45,116 C78.8247501,116.908825 78.2537548,117.853805 77.74,118.83 L77.74,118.89 C76.97,119.71 76.2,120.53 75.44,121.37 C75.15,121.69 74.89,122.04 74.61,122.37 C73.86,123.25 73.13,124.15 72.34,125.01 C71.34,126.12 70.26,127.2 69.2,128.28 C68.8046857,128.693805 68.3766304,129.075041 67.92,129.42 C67.6543775,129.551928 67.3716547,129.646169 67.08,129.7 L64.08,129.7 L63.39,129.48 C61.83,129 60.62,127.88 59.24,127.08 C58.91,126.89 59.02,126.08 59.35,125.85 C59.68,125.62 59.93,125.37 60.24,125.14 C60.86,124.67 61.41,123.86 62.33,124.67 C62.33,124.67 62.45,124.67 62.52,124.67 C63.4263709,124.749135 64.3342149,124.535319 65.11,124.06 C66.46,123.22 67.76,122.3 69.11,121.41 C69.91,120.86 69.93,120.41 69.58,119.5 C69.3501719,118.859783 69.2581638,118.178241 69.31,117.5 C69.4,116.2 69.61,114.92 69.76,113.62 C69.83,113.1 69.85,112.62 69.96,112.06 C70.15,111.21 69.71,110.78 68.85,110.97 C67.67,111.23 66.48,111.47 65.29,111.66 C64.9491906,111.653813 64.6115756,111.593042 64.29,111.48 C63.5772476,111.408131 62.8736373,111.264059 62.19,111.05 C60.3494527,110.373142 58.7233158,109.216548 57.48,107.7 L57.43,107.36 Z" id="Path" fill="#333333"></path>
                <path d="M88.3,122.21 C88.86,121.71 89.4,121.21 89.98,120.71 C90.98,119.92 91.98,119.18 92.9,118.38 C93.2554187,118.105715 93.4314769,117.65839 93.358348,117.215438 C93.2852191,116.772486 92.9747208,116.405488 92.55,116.26 C91.9149815,116.108759 91.4105968,115.627301 91.23,115 C91.07,114.42 90.44,114 90.14,113.42 C89.9293891,112.967307 89.8071991,112.478546 89.78,111.98 C89.6742742,110.983712 89.6341877,109.981549 89.66,108.98 C89.7462663,108.275879 89.8765209,107.577847 90.05,106.89 C90.22,105.77 90.41,104.65 90.52,103.53 C90.63,102.41 90.59,102.46 89.52,102.19 C89.3256254,102.124494 89.1407074,102.033716 88.97,101.92 C89.1902488,101.159031 89.6452228,100.487069 90.27,100 C90.7284246,99.5433092 91.0355956,98.9568918 91.15,98.32 C91.2562352,97.7833161 91.3065042,97.2370587 91.3,96.69 C91.3,96.19 91.38,95.69 91.43,95.18 C91.5062079,94.470771 91.3174333,93.7584141 90.9,93.18 C90.55,92.69 90.22,92.18 89.9,91.68 C91.15,90.58 92.18,90.68 93.66,91.81 L95.19,93 C95.7809648,93.8864845 95.9075878,95.0037462 95.53,96 L94.91,97 C95.71,97.64 96.59,97.33 97.45,97.26 C98.1886032,97.1535396 98.9373674,97.1367512 99.68,97.21 C100.13962,97.3477489 100.551721,97.6109396 100.87,97.97 C101.562511,98.5906147 102.21076,99.2589125 102.81,99.97 C103.067742,100.382369 103.263183,100.830536 103.39,101.3 L102.52,101.7 L102.66,102.04 C101.59,102.79 100.43,102.49 99.27,102.38 C98.5518332,102.358623 97.833082,102.392053 97.12,102.48 C96.35,102.48 95.59,102.6 94.83,102.58 C94.46,102.58 94.3,102.58 94.25,103.01 C94.05,104.44 93.73,105.86 93.64,107.3 C93.5765506,108.704835 93.6233607,110.112483 93.78,111.51 C93.887653,112.003896 94.1906704,112.43317 94.62,112.7 C95.8104607,113.47819 97.1978788,113.901353 98.62,113.92 C99.9048937,113.942001 101.185833,114.069091 102.45,114.3 C103.38,114.44 103.89,115.24 104.54,115.81 C105.078805,116.343568 105.468408,117.008996 105.67,117.74 C105.797968,118.013072 105.805935,118.32721 105.691973,118.606418 C105.578011,118.885625 105.352501,119.104467 105.07,119.21 C104.397425,119.589973 103.650045,119.818623 102.88,119.88 C100.979219,119.911256 99.0836453,120.088443 97.21,120.41 C96.05,120.61 94.87,120.63 93.71,120.83 C93.107841,120.99642 92.5220887,121.217333 91.96,121.49 C91.08,121.82 90.21,122.17 89.31,122.49 C88.9949607,122.535402 88.6750393,122.535402 88.36,122.49 L88.3,122.21 Z" id="Path" fill="#333333"></path>
                <rect id="Rectangle" fill="#FF5547" x="12.48" y="157" width="274.5" height="45.5"></rect>
                <rect id="Rectangle" fill="#FFBB00" x="7.48" y="157" width="5" height="45.5"></rect>
                <path d="M22.59,171 C22.550244,169.155546 23.284296,167.378643 24.6142215,166.100015 C25.944147,164.821387 27.7485346,164.157761 29.59,164.27 C31.3028726,164.136438 32.9643562,164.891658 33.99,166.27 L32.12,167.81 C31.5084117,166.927816 30.4816371,166.42769 29.41,166.49 C28.2665729,166.473964 27.1681601,166.935032 26.3787543,167.762389 C25.5893486,168.589747 25.1803292,169.708585 25.25,170.85 C25.25,172.54 26.37,173.66 28.39,173.66 C29.5302915,173.68817 30.626032,173.217001 31.39,172.37 L32.93,173.94 C31.7232212,175.26712 29.9805814,175.976675 28.19,175.87 C24.71,175.87 22.59,173.89 22.59,171 Z" id="Path" fill="#FFFFFF"></path>
                <path d="M33.6699984,172 C33.6689104,170.638527 34.2230595,169.335482 35.2044548,168.391833 C36.1858501,167.448184 37.5096159,166.945541 38.87,167 C41.51,167 43.2100019,168.52 43.2100019,170.86 C43.211203,172.223282 42.6556903,173.527943 41.6720845,174.471902 C40.6884787,175.415862 39.3620798,175.917258 38,175.86 C35.38,175.81 33.6699984,174.27 33.6699984,172 Z M40.67,171 C40.714163,170.465709 40.5137842,169.940193 40.1251022,169.570945 C39.7364202,169.201697 39.2013261,169.028513 38.67,169.1 C37.9488653,169.110576 37.265077,169.422511 36.7843986,169.960187 C36.3037201,170.497863 36.0700376,171.212189 36.14,171.93 C36.1033784,172.462276 36.3061049,172.983143 36.6929168,173.350614 C37.0797287,173.718085 37.6103005,173.893852 38.14,173.83 C38.880482,173.82498 39.5831099,173.502033 40.0691043,172.94333 C40.5550987,172.384628 40.7776022,171.644039 40.68,170.91 L40.67,171 Z" id="Shape" fill="#FFFFFF"></path>
                <path d="M53.83,169.87 C53.8276692,170.20622 53.7908091,170.541312 53.72,170.87 L52.72,175.64 L50.22,175.64 L51.15,171.03 C51.1927,170.836308 51.212834,170.638323 51.21,170.44 C51.21,169.56 50.73,169.06 49.74,169.06 C48.4642636,169.024373 47.3856207,169.997353 47.29,171.27 L46.43,175.64 L44,175.64 L45.71,167.03 L48.08,167.03 L47.89,167.96 C48.6639569,167.259221 49.6761105,166.88011 50.72,166.9 C52.58,166.94 53.83,168 53.83,169.87 Z" id="Path" fill="#FFFFFF"></path>
                <path d="M64.89,169.87 C64.88376,170.206523 64.8435561,170.541555 64.77,170.87 L63.77,175.64 L61.32,175.64 L62.24,171.03 C62.2856291,170.836624 62.3091134,170.638685 62.31,170.44 C62.31,169.56 61.83,169.06 60.84,169.06 C59.5623577,169.019184 58.4806549,169.994925 58.39,171.27 L57.52,175.64 L55,175.64 L56.72,167.03 L59.09,167.03 L58.89,167.96 C59.6680864,167.25946 60.6831962,166.880581 61.73,166.9 C63.64,166.94 64.89,168 64.89,169.87 Z" id="Path" fill="#FFFFFF"></path>
                <path d="M75.38,172.05 L68.79,172.05 C68.87,173.22 69.59,173.81 71.01,173.81 C71.8500153,173.822635 72.6677188,173.539448 73.32,173.01 L74.32,174.66 C73.2849502,175.440133 72.015634,175.845609 70.72,175.81 C68.03,175.81 66.31,174.29 66.31,171.95 C66.2696186,170.597882 66.7945977,169.290112 67.7586766,168.341215 C68.7227555,167.392319 70.0386936,166.888163 71.39,166.95 C73.9,166.95 75.49,168.44 75.49,170.74 C75.4961077,171.179208 75.4592659,171.617961 75.38,172.05 Z M69,170.59 L73.28,170.59 C73.301044,170.086628 73.1003323,169.599339 72.7308687,169.256816 C72.3614051,168.914292 71.860342,168.750978 71.36,168.81 C70.2555531,168.783683 69.2781975,169.520841 69,170.59 Z" id="Shape" fill="#FFFFFF"></path>
                <path d="M76.3899961,172 C76.3882857,170.629444 76.9492477,169.318268 77.9417202,168.373056 C78.9341928,167.427844 80.271157,166.931471 81.64,167 C83.2520052,166.877858 84.779056,167.738057 85.51,169.18 L83.4,170.18 C83.063615,169.429205 82.3017824,168.960996 81.48,169 C80.7576866,169.005973 80.0704147,169.312167 79.5829147,169.845192 C79.0954147,170.378218 78.8516326,171.090024 78.91,171.81 C78.8744141,172.343662 79.0766743,172.86574 79.4625066,173.236139 C79.8483389,173.606538 80.3782337,173.787329 80.91,173.73 C81.7608286,173.752858 82.5585784,173.317722 83,172.59 L84.84,173.74 C83.9212195,175.090268 82.3720188,175.872426 80.74,175.81 C78.1,175.81 76.3899961,174.27 76.3899961,172 Z" id="Path" fill="#FFFFFF"></path>
                <path d="M89.2,172.64 C89.1859654,172.756245 89.1859654,172.873755 89.2,172.99 C89.2,173.52 89.49,173.82 90.11,173.82 C90.4640153,173.810301 90.8091069,173.706773 91.11,173.52 L91.48,175.3 C90.8225926,175.661176 90.079587,175.837424 89.33,175.81 C88.6442455,175.896816 87.9544892,175.682483 87.4387061,175.222304 C86.922923,174.762126 86.6316343,174.101177 86.64,173.41 C86.6473573,173.158316 86.6741032,172.907573 86.72,172.66 L87.41,169.18 L86.07,169.18 L86.45,167.26 L87.78,167.26 L88.19,165.16 L90.69,165.16 L90.27,167.26 L92.42,167.26 L92,169.18 L89.89,169.18 L89.2,172.64 Z" id="Path" fill="#FFFFFF"></path>
                <path d="M94.48,167.07 L97,167.07 L95.29,175.68 L92.77,175.68 L94.48,167.07 Z M94.69,164.57 C94.6967703,164.148538 94.8782511,163.748811 95.1910903,163.466308 C95.5039295,163.183805 95.9200323,163.043895 96.34,163.08 C96.702764,163.041054 97.0655987,163.152843 97.3435445,163.389192 C97.6214904,163.62554 97.7901388,163.965692 97.81,164.33 C97.8143785,164.761077 97.6366933,165.173999 97.3206506,165.467195 C97.004608,165.760391 96.5795388,165.906652 96.15,165.87 C95.7811792,165.903286 95.415027,165.782458 95.1384557,165.536196 C94.8618844,165.289934 94.6995553,164.940196 94.69,164.57 L94.69,164.57 Z" id="Shape" fill="#FFFFFF"></path>
                <path d="M107.43,169.87 C107.427669,170.20622 107.390809,170.541312 107.32,170.87 L106.32,175.64 L103.82,175.64 L104.75,171.03 C104.7927,170.836308 104.812834,170.638323 104.81,170.44 C104.81,169.56 104.33,169.06 103.34,169.06 C102.062358,169.019184 100.980655,169.994925 100.89,171.27 L100.03,175.64 L97.53,175.64 L99.24,167.03 L101.61,167.03 L101.42,167.96 C102.19342,167.258341 103.205937,166.879094 104.25,166.9 C106.18,166.94 107.43,168 107.43,169.87 Z" id="Path" fill="#FFFFFF"></path>
                <path d="M119.32,167.07 L117.89,174.24 C117.24,177.55 115.36,178.91 112.39,178.91 C110.939215,178.967657 109.506402,178.572759 108.29,177.78 L109.47,175.97 C110.341536,176.599438 111.39525,176.92609 112.47,176.9 C113.14178,176.990096 113.82135,176.803564 114.353001,176.383145 C114.884652,175.962726 115.222813,175.344456 115.29,174.67 L115.35,174.3 C114.637493,174.963884 113.693596,175.32278 112.72,175.3 C111.723779,175.373352 110.742754,175.023591 110.017637,174.336538 C109.29252,173.649485 108.89042,172.688726 108.91,171.69 C108.898548,170.419871 109.404951,169.199874 110.312489,168.311204 C111.220026,167.422534 112.450392,166.94187 113.72,166.98 C114.910197,166.86767 116.053486,167.472709 116.63,168.52 L116.9,167.11 L119.32,167.07 Z M115.92,170.7 C115.92,169.7 115.22,169.01 113.99,169.01 C113.313406,168.978717 112.654666,169.232411 112.173834,169.709442 C111.693002,170.186473 111.434088,170.843179 111.46,171.52 C111.46,172.52 112.19,173.22 113.46,173.22 C114.12733,173.234551 114.770807,172.971684 115.237072,172.494046 C115.703337,172.016409 115.950625,171.366785 115.92,170.7 L115.92,170.7 Z" id="Shape" fill="#FFFFFF"></path>
                <path d="M127.84,172.64 C127.825965,172.756245 127.825965,172.873755 127.84,172.99 C127.84,173.52 128.13,173.82 128.75,173.82 C129.104015,173.810301 129.449107,173.706773 129.75,173.52 L130.12,175.3 C129.462593,175.661176 128.719587,175.837424 127.97,175.81 C127.284245,175.896816 126.594489,175.682483 126.078706,175.222304 C125.562923,174.762126 125.271634,174.101177 125.28,173.41 C125.287357,173.158316 125.314103,172.907573 125.36,172.66 L126.05,169.18 L124.7,169.18 L125.09,167.26 L126.42,167.26 L126.83,165.16 L129.33,165.16 L128.91,167.26 L131.06,167.26 L130.67,169.18 L128.53,169.18 L127.84,172.64 Z" id="Path" fill="#FFFFFF"></path>
                <path d="M141.27,169.89 C141.268911,170.226292 141.232037,170.561513 141.16,170.89 L140.16,175.66 L137.66,175.66 L138.59,171.05 C138.6327,170.856308 138.652834,170.658323 138.65,170.46 C138.65,169.58 138.17,169.08 137.18,169.08 C135.902358,169.039184 134.820655,170.014925 134.73,171.29 L133.86,175.66 L131.37,175.66 L133.74,163.78 L136.23,163.78 L135.43,167.78 C136.182965,167.174931 137.124198,166.85293 138.09,166.87 C138.934972,166.754701 139.786582,167.029367 140.40496,167.616631 C141.023338,168.203896 141.341563,169.040206 141.27,169.89 L141.27,169.89 Z" id="Path" fill="#FFFFFF"></path>
                <path d="M151.76,172.05 L145.17,172.05 C145.25,173.22 145.97,173.81 147.39,173.81 C148.230291,173.824355 149.048566,173.540969 149.7,173.01 L150.7,174.66 C149.665693,175.441567 148.39586,175.847208 147.1,175.81 C144.41,175.81 142.7,174.29 142.7,171.95 C142.659797,170.599699 143.183432,169.29359 144.145279,168.345023 C145.107126,167.396456 146.420388,166.891029 147.77,166.95 C150.28,166.95 151.87,168.44 151.87,170.74 C151.876108,171.179208 151.839266,171.617961 151.76,172.05 L151.76,172.05 Z M145.35,170.59 L149.62,170.59 C149.641044,170.086628 149.440332,169.599339 149.070869,169.256816 C148.701405,168.914292 148.200342,168.750978 147.7,168.81 C146.596845,168.780928 145.620826,169.52021 145.35,170.59 L145.35,170.59 Z" id="Shape" fill="#FFFFFF"></path>
                <path d="M167.73,167.07 L166.31,174.24 C165.65,177.55 163.78,178.91 160.8,178.91 C159.349215,178.967657 157.916402,178.572759 156.7,177.78 L157.89,175.97 C158.760529,176.601453 159.814941,176.928321 160.89,176.9 C161.56178,176.990096 162.24135,176.803564 162.773001,176.383145 C163.304652,175.962726 163.642813,175.344456 163.71,174.67 L163.77,174.3 C163.061136,174.96328 162.120531,175.322289 161.15,175.3 C160.152999,175.376524 159.170138,175.027828 158.444284,174.340077 C157.71843,173.652325 157.317295,172.689675 157.34,171.69 C157.328643,170.421658 157.833685,169.203256 158.739022,168.314895 C159.644358,167.426533 160.8721,166.944641 162.14,166.98 C163.330197,166.86767 164.473486,167.472709 165.05,168.52 L165.33,167.11 L167.73,167.07 Z M164.34,170.7 C164.34,169.7 163.63,169.01 162.4,169.01 C161.72425,168.981781 161.067312,169.236467 160.587175,169.71281 C160.107037,170.189152 159.847145,170.844048 159.87,171.52 C159.87,172.52 160.61,173.22 161.87,173.22 C162.538165,173.234386 163.182533,172.971813 163.650348,172.494528 C164.118163,172.017243 164.367771,171.367743 164.34,170.7 L164.34,170.7 Z" id="Shape" fill="#FFFFFF"></path>
                <polygon id="Path" fill="#FFFFFF" points="170.7 163.8 173.2 163.8 170.83 175.68 168.34 175.68"></polygon>
                <path d="M173.309998,172 C173.30891,170.638527 173.86306,169.335482 174.844455,168.391833 C175.82585,167.448184 177.149616,166.945541 178.51,167 C181.16,167 182.850002,168.52 182.850002,170.86 C182.85109,172.221473 182.29694,173.524518 181.315545,174.468167 C180.33415,175.411816 179.010384,175.914459 177.65,175.86 C175,175.81 173.309998,174.27 173.309998,172 Z M180.31,171 C180.355249,170.474543 180.162472,169.956488 179.784732,169.588433 C179.406991,169.220378 178.884105,169.04112 178.36,169.1 C177.638865,169.110576 176.955077,169.422511 176.474399,169.960187 C175.99372,170.497863 175.760038,171.212189 175.83,171.93 C175.789653,172.46328 175.991221,172.98644 176.378953,173.354786 C176.766686,173.723132 177.299489,173.897623 177.83,173.83 C178.562822,173.814036 179.253956,173.485918 179.729566,172.928174 C180.205176,172.370431 180.419998,171.636142 180.32,170.91 L180.31,171 Z" id="Shape" fill="#FFFFFF"></path>
                <path d="M193.89,170.8 C193.947183,172.102901 193.470642,173.372789 192.570424,174.316414 C191.670206,175.260039 190.424148,175.795809 189.12,175.8 C187.972169,175.903876 186.861923,175.360318 186.24,174.39 L185.98,175.67 L183.61,175.67 L186,163.8 L188.5,163.8 L187.7,167.8 C188.395995,167.2227 189.275882,166.91403 190.18,166.93 C191.198691,166.908355 192.179818,167.314671 192.884939,168.050201 C193.590059,168.785731 193.954612,169.78313 193.89,170.8 L193.89,170.8 Z M191.36,170.91 C191.400347,170.37672 191.198779,169.85356 190.811047,169.485214 C190.423314,169.116868 189.890511,168.942377 189.36,169.01 C188.642377,169.02608 187.963893,169.340395 187.4876,169.877412 C187.011306,170.414428 186.780265,171.125592 186.85,171.84 C186.801926,172.37531 187.001085,172.903247 187.390746,173.273425 C187.780408,173.643604 188.317857,173.815445 188.85,173.74 C189.568661,173.726919 190.249003,173.413478 190.725944,172.875731 C191.202885,172.337985 191.432836,171.62508 191.36,170.91 L191.36,170.91 Z" id="Shape" fill="#FFFFFF"></path>
                <path d="M205.11,167.07 L203.4,175.68 L201,175.68 L201.16,174.83 C200.436903,175.489713 199.488664,175.847539 198.51,175.83 C197.492239,175.854501 196.510965,175.450488 195.805494,174.716494 C195.100023,173.9825 194.7352,172.985991 194.8,171.97 C194.742882,170.668826 195.218074,169.400494 196.116111,168.457178 C197.014148,167.513861 198.257592,166.976904 199.56,166.97 C200.658806,166.870558 201.726871,167.366446 202.36,168.27 L202.58,167.1 L205.11,167.07 Z M201.84,170.91 C201.880347,170.37672 201.678779,169.85356 201.291047,169.485214 C200.903314,169.116868 200.370511,168.942377 199.84,169.01 C199.118865,169.020576 198.435077,169.332511 197.954399,169.870187 C197.47372,170.407863 197.240038,171.122189 197.31,171.84 C197.273378,172.372276 197.476105,172.893143 197.862917,173.260614 C198.249729,173.628085 198.7803,173.803852 199.31,173.74 C200.032167,173.732469 200.717837,173.421427 201.199178,172.883011 C201.680519,172.344594 201.913103,171.628497 201.84,170.91 Z" id="Shape" fill="#FFFFFF"></path>
                <polygon id="Path" fill="#FFFFFF" points="208.06 163.8 210.56 163.8 208.19 175.68 205.69 175.68"></polygon>
                <path d="M22.2399984,191 C22.2389104,189.638527 22.7930595,188.335482 23.7744548,187.391833 C24.7558501,186.448184 26.0796159,185.945541 27.44,186 C30.09,186 31.7800016,187.52 31.7800016,189.86 C31.7810896,191.221473 31.2269405,192.524518 30.2455452,193.468167 C29.2641499,194.411816 27.9403841,194.914459 26.58,194.86 C24,194.81 22.2399984,193.27 22.2399984,191 Z M29.24,190 C29.3178295,189.460225 29.1410375,188.914864 28.7613285,188.523411 C28.3816194,188.131959 27.8418943,187.938643 27.3,188 C26.5788653,188.010576 25.895077,188.322511 25.4143986,188.860187 C24.9337201,189.397863 24.7000376,190.112189 24.77,190.83 C24.7296532,191.36328 24.9312207,191.88644 25.3189533,192.254786 C25.7066859,192.623132 26.2394885,192.797623 26.77,192.73 C27.4814571,192.708481 28.1521278,192.392866 28.6221802,191.858371 C29.0922326,191.323876 29.3195649,190.618375 29.25,189.91 L29.24,190 Z" id="Shape" fill="#FFFFFF"></path>
                <path d="M42.82,189.8 C42.8800659,191.10367 42.4044853,192.375215 41.5036472,193.319489 C40.602809,194.263764 39.3550527,194.798653 38.05,194.8 C36.9611962,194.900676 35.9014136,194.412718 35.27,193.52 L34.42,197.78 L31.92,197.78 L34.26,186.06 L36.63,186.06 L36.45,186.91 C37.1700296,186.251798 38.1145943,185.894009 39.09,185.91 C40.1158418,185.882177 41.1057685,186.288673 41.8160217,187.029393 C42.526275,187.770113 42.8908593,188.77623 42.82,189.8 L42.82,189.8 Z M40.29,189.91 C40.3303468,189.37672 40.1287793,188.85356 39.7410467,188.485214 C39.3533141,188.116868 38.8205115,187.942377 38.29,188.01 C37.5723767,188.02608 36.893893,188.340395 36.4175995,188.877412 C35.9413061,189.414428 35.7102653,190.125592 35.78,190.84 C35.7384584,191.364502 35.9324135,191.880299 36.3092538,192.247476 C36.6860942,192.614654 37.2067536,192.795149 37.73,192.74 C38.4574025,192.740902 39.1511178,192.433513 39.6390923,191.894073 C40.1270668,191.354632 40.36359,190.633671 40.29,189.91 L40.29,189.91 Z" id="Shape" fill="#FFFFFF"></path>
                <path d="M52.79,191.05 L46.19,191.05 C46.27,192.22 47,192.81 48.42,192.81 C49.2600153,192.822635 50.0777188,192.539448 50.73,192.01 L51.73,193.66 C50.6918764,194.441582 49.4189208,194.847094 48.12,194.81 C45.44,194.81 43.72,193.29 43.72,190.95 C43.6796186,189.597882 44.2045977,188.290112 45.1686766,187.341215 C46.1327555,186.392319 47.4486936,185.888163 48.8,185.95 C51.31,185.95 52.89,187.44 52.89,189.74 C52.8992796,190.178878 52.8657882,190.617616 52.79,191.05 Z M46.37,189.59 L50.65,189.59 C50.6714843,189.084663 50.469456,188.595486 50.0976498,188.252576 C49.7258437,187.909667 49.2219527,187.74779 48.72,187.81 C47.6180527,187.784675 46.6441059,188.522388 46.37,189.59 Z" id="Shape" fill="#FFFFFF"></path>
                <path d="M63.49,188.87 C63.4876692,189.20622 63.4508091,189.541312 63.38,189.87 L62.38,194.64 L59.88,194.64 L60.81,190.03 C60.8556291,189.836624 60.8791134,189.638685 60.88,189.44 C60.88,188.56 60.4,188.06 59.4,188.06 C58.1289789,188.052501 57.0744323,189.041138 57,190.31 L56.14,194.68 L53.64,194.68 L55.36,186.07 L57.73,186.07 L57.53,187 C58.3080864,186.29946 59.3231962,185.920581 60.37,185.94 C62.25,185.94 63.49,187 63.49,188.87 Z" id="Path" fill="#FFFFFF"></path>
                <path d="M78.42,191.05 L71.83,191.05 C71.91,192.22 72.63,192.81 74.05,192.81 C74.8900153,192.822635 75.7077188,192.539448 76.36,192.01 L77.36,193.66 C76.3218764,194.441582 75.0489208,194.847094 73.75,194.81 C71.07,194.81 69.35,193.29 69.35,190.95 C69.3096186,189.597882 69.8345977,188.290112 70.7986766,187.341215 C71.7627555,186.392319 73.0786936,185.888163 74.43,185.95 C76.94,185.95 78.53,187.44 78.53,189.74 C78.5361077,190.179208 78.4992659,190.617961 78.42,191.05 Z M72,189.59 L76.28,189.59 C76.301044,189.086628 76.1003323,188.599339 75.7308687,188.256816 C75.3614051,187.914292 74.860342,187.750978 74.36,187.81 C73.2543562,187.779951 72.274938,188.518664 72,189.59 L72,189.59 Z" id="Shape" fill="#FFFFFF"></path>
                <path d="M90.39,182.8 L88,194.68 L85.65,194.68 L85.83,193.82 C85.1088945,194.47645 84.1650511,194.833966 83.19,194.82 C82.1778927,194.846508 81.2007038,194.449121 80.4943474,193.723777 C79.787991,192.998432 79.4166594,192.011048 79.47,191 C79.4128816,189.698826 79.888074,188.430494 80.7861108,187.487178 C81.6841477,186.543861 82.9275916,186.006904 84.23,186 C85.2998053,185.901209 86.3455212,186.358002 87,187.21 L87.88,182.8 L90.39,182.8 Z M86.48,189.91 C86.5203468,189.37672 86.3187793,188.85356 85.9310467,188.485214 C85.5433141,188.116868 85.0105115,187.942377 84.48,188.01 C83.7666195,188.031299 83.0942218,188.348288 82.6238455,188.885048 C82.1534691,189.421808 81.9274792,190.129996 82,190.84 C81.9596532,191.37328 82.1612207,191.89644 82.5489533,192.264786 C82.9366859,192.633132 83.4694885,192.807623 84,192.74 C84.7133805,192.718701 85.3857782,192.401712 85.8561545,191.864952 C86.3265309,191.328192 86.5525208,190.620004 86.48,189.91 L86.48,189.91 Z" id="Shape" fill="#FFFFFF"></path>
                <path d="M100.73,186.07 L99,194.68 L96.64,194.68 L96.82,193.75 C96.0590747,194.452472 95.0553602,194.83245 94.02,194.81 C93.2037955,194.903106 92.388204,194.630451 91.7920891,194.065203 C91.1959741,193.499955 90.8803814,192.699998 90.93,191.88 C90.9323308,191.54378 90.9691909,191.208688 91.04,190.88 L91.99,186.11 L94.48,186.11 L93.57,190.72 C93.5266684,190.92374 93.5065402,191.131731 93.51,191.34 C93.51,192.21 93.97,192.69 94.95,192.69 C96.2104273,192.708823 97.2650389,191.737701 97.35,190.48 L98.23,186.11 L100.73,186.07 Z" id="Path" fill="#FFFFFF"></path>
                <path d="M101.489996,191 C101.488286,189.629444 102.049248,188.318268 103.04172,187.373056 C104.034193,186.427844 105.371157,185.931471 106.74,186 C108.352005,185.877858 109.879056,186.738057 110.61,188.18 L108.5,189.18 C108.157492,188.437032 107.397015,187.977577 106.58,188.02 C105.858442,188.025748 105.171993,188.33225 104.686039,188.865661 C104.200084,189.399073 103.958684,190.111029 104.02,190.83 C103.98078,191.364639 104.1819,191.888939 104.568619,192.260189 C104.955337,192.631438 105.487406,192.811001 106.02,192.75 C106.879938,192.778088 107.687554,192.337918 108.13,191.6 L109.97,192.75 C109.052524,194.101753 107.502439,194.884357 105.87,194.82 C103.2,194.81 101.489996,193.27 101.489996,191 Z" id="Path" fill="#FFFFFF"></path>
                <path d="M121.13,186.07 L119.41,194.68 L117,194.68 L117.16,193.83 C116.441612,194.490866 115.495942,194.849075 114.52,194.83 C113.502239,194.854501 112.520965,194.450488 111.815494,193.716494 C111.110023,192.9825 110.7452,191.985991 110.81,190.97 C110.75294,189.67055 111.226783,188.403768 112.122641,187.460759 C113.018499,186.517751 114.259333,185.97961 115.56,185.97 C116.659174,185.868433 117.728257,186.364792 118.36,187.27 L118.59,186.1 L121.13,186.07 Z M117.86,189.91 C117.900347,189.37672 117.698779,188.85356 117.311047,188.485214 C116.923314,188.116868 116.390511,187.942377 115.86,188.01 C115.138865,188.020576 114.455077,188.332511 113.974399,188.870187 C113.49372,189.407863 113.260038,190.122189 113.33,190.84 C113.289653,191.37328 113.491221,191.89644 113.878953,192.264786 C114.266686,192.633132 114.799489,192.807623 115.33,192.74 C116.051135,192.729424 116.734923,192.417489 117.215601,191.879813 C117.69628,191.342137 117.929962,190.627811 117.86,189.91 L117.86,189.91 Z" id="Shape" fill="#FFFFFF"></path>
                <path d="M125.11,191.64 C125.091491,191.755933 125.091491,191.874067 125.11,191.99 C125.11,192.52 125.4,192.82 126.03,192.82 C126.384015,192.810301 126.729107,192.706773 127.03,192.52 L127.4,194.3 C126.746262,194.661299 126.006424,194.837616 125.26,194.81 C124.574245,194.896816 123.884489,194.682483 123.368706,194.222304 C122.852923,193.762126 122.561634,193.101177 122.57,192.41 C122.572435,192.158006 122.599226,191.906838 122.65,191.66 L123.34,188.18 L122,188.18 L122.38,186.26 L123.71,186.26 L124.13,184.16 L126.63,184.16 L126.21,186.26 L128.35,186.26 L127.97,188.18 L125.82,188.18 L125.11,191.64 Z" id="Path" fill="#FFFFFF"></path>
                <path d="M130.39,186.07 L132.87,186.07 L131.15,194.68 L128.67,194.68 L130.39,186.07 Z M130.59,183.57 C130.59677,183.148538 130.778251,182.748811 131.09109,182.466308 C131.403929,182.183805 131.820032,182.043895 132.24,182.08 C132.602764,182.041054 132.965599,182.152843 133.243545,182.389192 C133.52149,182.62554 133.690139,182.965692 133.71,183.33 C133.714379,183.761077 133.536693,184.173999 133.220651,184.467195 C132.904608,184.760391 132.479539,184.906652 132.05,184.87 C131.681179,184.903286 131.315027,184.782458 131.038456,184.536196 C130.761884,184.289934 130.599555,183.940196 130.59,183.57 Z" id="Shape" fill="#FFFFFF"></path>
                <path d="M133.629998,191 C133.62891,189.638527 134.18306,188.335482 135.164455,187.391833 C136.14585,186.448184 137.469616,185.945541 138.83,186 C141.48,186 143.170002,187.52 143.170002,189.86 C143.17109,191.221473 142.61694,192.524518 141.635545,193.468167 C140.65415,194.411816 139.330384,194.914459 137.97,194.86 C135.35,194.81 133.629998,193.27 133.629998,191 Z M140.63,190 C140.675249,189.474543 140.482472,188.956488 140.104732,188.588433 C139.726991,188.220378 139.204105,188.04112 138.68,188.1 C137.958865,188.110576 137.275077,188.422511 136.794399,188.960187 C136.31372,189.497863 136.080038,190.212189 136.15,190.93 C136.109653,191.46328 136.311221,191.98644 136.698953,192.354786 C137.086686,192.723132 137.619489,192.897623 138.15,192.83 C138.882822,192.814036 139.573956,192.485918 140.049566,191.928174 C140.525176,191.370431 140.739998,190.636142 140.64,189.91 L140.63,190 Z" id="Shape" fill="#FFFFFF"></path>
                <path d="M153.8,188.87 C153.79376,189.206523 153.753556,189.541555 153.68,189.87 L152.68,194.64 L150.19,194.64 L151.12,190.03 C151.157775,189.835549 151.177857,189.638075 151.18,189.44 C151.18,188.56 150.7,188.06 149.71,188.06 C148.432358,188.019184 147.350655,188.994925 147.26,190.27 L146.39,194.64 L143.9,194.64 L145.61,186.03 L148,186.03 L147.81,186.96 C148.58342,186.258341 149.595937,185.879094 150.64,185.9 C152.55,185.94 153.8,187 153.8,188.87 Z" id="Path" fill="#FFFFFF"></path>
                <path d="M159.679996,191 C159.678286,189.629444 160.239248,188.318268 161.23172,187.373056 C162.224193,186.427844 163.561157,185.931471 164.93,186 C166.542005,185.877858 168.069056,186.738057 168.8,188.18 L166.69,189.18 C166.347492,188.437032 165.587015,187.977577 164.77,188.02 C164.048442,188.025748 163.361993,188.33225 162.876039,188.865661 C162.390084,189.399073 162.148684,190.111029 162.21,190.83 C162.17078,191.364639 162.3719,191.888939 162.758619,192.260189 C163.145337,192.631438 163.677406,192.811001 164.21,192.75 C165.069938,192.778088 165.877554,192.337918 166.32,191.6 L168.16,192.75 C167.245739,194.100147 165.699364,194.882786 164.07,194.82 C161.39,194.81 159.679996,193.27 159.679996,191 Z" id="Path" fill="#FFFFFF"></path>
                <path d="M168.999998,191 C168.998797,189.636718 169.55431,188.332057 170.537915,187.388098 C171.521521,186.444138 172.84792,185.942742 174.21,186 C176.85,186 178.540002,187.52 178.540002,189.86 C178.54109,191.221473 177.98694,192.524518 177.005545,193.468167 C176.02415,194.411816 174.700384,194.914459 173.34,194.86 C170.74,194.81 168.999998,193.27 168.999998,191 Z M176,190 C176.045249,189.474543 175.852472,188.956488 175.474732,188.588433 C175.096991,188.220378 174.574105,188.04112 174.05,188.1 C173.328865,188.110576 172.645077,188.422511 172.164399,188.960187 C171.68372,189.497863 171.450038,190.212189 171.52,190.93 C171.479653,191.46328 171.681221,191.98644 172.068953,192.354786 C172.456686,192.723132 172.989489,192.897623 173.52,192.83 C174.251059,192.811237 174.939503,192.481918 175.412907,191.924523 C175.88631,191.367129 176.099834,190.634453 176,189.91 L176,190 Z" id="Shape" fill="#FFFFFF"></path>
                <path d="M194.92,188.85 C194.9212,189.206243 194.884324,189.561594 194.81,189.91 L193.86,194.68 L191.36,194.68 L192.28,190.09 C192.32345,189.872765 192.343564,189.651509 192.34,189.43 C192.382734,189.064019 192.254962,188.698694 191.993442,188.439126 C191.731922,188.179558 191.365651,188.054526 191,188.1 C189.85,188.1 189.05,188.77 188.74,190.26 L187.86,194.68 L185.37,194.68 L186.28,190.09 C186.322864,189.879431 186.342979,189.664867 186.34,189.45 C186.385395,189.081701 186.259282,188.712938 185.997862,188.449567 C185.736442,188.186196 185.368626,188.057344 185,188.1 C183.83,188.1 183,188.77 182.73,190.29 L181.86,194.68 L179.37,194.68 L181.08,186.07 L183.45,186.07 L183.26,186.97 C184.00004,186.305368 184.965565,185.947766 185.96,185.97 C187.03844,185.890793 188.066094,186.439654 188.6,187.38 C189.44276,186.458589 190.641558,185.944819 191.89,185.97 C192.689692,185.887026 193.485644,186.158164 194.068388,186.71206 C194.651133,187.265956 194.9623,188.047129 194.92,188.85 Z" id="Path" fill="#FFFFFF"></path>
                <path d="M211.7,188.85 C211.7012,189.206243 211.664324,189.561594 211.59,189.91 L210.65,194.68 L208.15,194.68 L209.06,190.09 C209.10345,189.872765 209.123564,189.651509 209.12,189.43 C209.164046,189.060068 209.03378,188.69066 208.767429,188.430185 C208.501079,188.16971 208.128858,188.047714 207.76,188.1 C206.61,188.1 205.81,188.77 205.51,190.26 L204.63,194.68 L202.13,194.68 L203.04,190.09 C203.085341,189.879651 203.108799,189.665176 203.11,189.45 C203.156672,189.077788 203.02807,188.704978 202.761838,188.440704 C202.495606,188.17643 202.121858,188.050582 201.75,188.1 C200.58,188.1 199.75,188.77 199.47,190.29 L198.61,194.68 L196.11,194.68 L197.82,186.07 L200.19,186.07 L200,186.97 C200.74416,186.305606 201.712644,185.948232 202.71,185.97 C203.787914,185.893268 204.81433,186.441467 205.35,187.38 C206.187332,186.456872 207.383994,185.942454 208.63,185.97 C209.436187,185.874336 210.243449,186.139779 210.835538,186.695225 C211.427628,187.250671 211.744034,188.039352 211.7,188.85 L211.7,188.85 Z" id="Path" fill="#FFFFFF"></path>
                <path d="M223.28,186.07 L221.57,194.68 L219.2,194.68 L219.38,193.75 C218.619075,194.452472 217.61536,194.83245 216.58,194.81 C215.763795,194.903106 214.948204,194.630451 214.352089,194.065203 C213.755974,193.499955 213.440381,192.699998 213.49,191.88 C213.492331,191.54378 213.529191,191.208688 213.6,190.88 L214.54,186.11 L217,186.11 L216.09,190.72 C216.046668,190.92374 216.02654,191.131731 216.03,191.34 C216.03,192.21 216.49,192.69 217.47,192.69 C218.730427,192.708823 219.785039,191.737701 219.87,190.48 L220.75,186.11 L223.28,186.07 Z" id="Path" fill="#FFFFFF"></path>
                <path d="M233.75,188.87 C233.747669,189.20622 233.710809,189.541312 233.64,189.87 L232.64,194.64 L230.14,194.64 L231.07,190.03 C231.107775,189.835549 231.127857,189.638075 231.13,189.44 C231.13,188.56 230.65,188.06 229.66,188.06 C228.382358,188.019184 227.300655,188.994925 227.21,190.27 L226.34,194.64 L223.85,194.64 L225.56,186.03 L228,186.03 L227.81,186.96 C228.58342,186.258341 229.595937,185.879094 230.64,185.9 C232.5,185.94 233.75,187 233.75,188.87 Z" id="Path" fill="#FFFFFF"></path>
                <path d="M236.66,186.07 L239.14,186.07 L237.42,194.68 L234.94,194.68 L236.66,186.07 Z M236.86,183.57 C236.86677,183.148538 237.048251,182.748811 237.36109,182.466308 C237.673929,182.183805 238.090032,182.043895 238.51,182.08 C238.872764,182.041054 239.235599,182.152843 239.513545,182.389192 C239.79149,182.62554 239.960139,182.965692 239.98,183.33 C239.984379,183.761077 239.806693,184.173999 239.490651,184.467195 C239.174608,184.760391 238.749539,184.906652 238.32,184.87 C237.951179,184.903286 237.585027,184.782458 237.308456,184.536196 C237.031884,184.289934 236.869555,183.940196 236.86,183.57 L236.86,183.57 Z" id="Shape" fill="#FFFFFF"></path>
                <path d="M243.14,191.64 C243.121491,191.755933 243.121491,191.874067 243.14,191.99 C243.14,192.52 243.43,192.82 244.06,192.82 C244.414015,192.810301 244.759107,192.706773 245.06,192.52 L245.43,194.3 C244.776262,194.661299 244.036424,194.837616 243.29,194.81 C242.604245,194.896816 241.914489,194.682483 241.398706,194.222304 C240.882923,193.762126 240.591634,193.101177 240.6,192.41 C240.602435,192.158006 240.629226,191.906838 240.68,191.66 L241.37,188.18 L240,188.18 L240.38,186.26 L241.71,186.26 L242.13,184.16 L244.63,184.16 L244.21,186.26 L246.35,186.26 L245.97,188.18 L243.82,188.18 L243.14,191.64 Z" id="Path" fill="#FFFFFF"></path>
                <path d="M256.8,186.07 L251.07,195.26 C249.81,197.26 248.78,197.91 247.14,197.91 C246.296412,197.940476 245.468697,197.675182 244.8,197.16 L245.95,195.37 C246.325433,195.716424 246.819194,195.906057 247.33,195.9 C247.98,195.9 248.4,195.59 248.88,194.84 L248.96,194.7 L246.96,186.07 L249.45,186.07 L250.73,191.93 L254.32,186.07 L256.8,186.07 Z" id="Path" fill="#FFFFFF"></path>
            </g>
        </g>
    </g>
</svg>