<?xml version="1.0" encoding="UTF-8"?>
<svg width="14px" height="19px" viewBox="0 0 14 19" version="1.1" xmlns="http://www.w3.org/2000/svg" xmlns:xlink="http://www.w3.org/1999/xlink">
    <!-- Generator: Sketch 52.5 (67469) - http://www.bohemiancoding.com/sketch -->
    <title>font-icons/pin 2</title>
    <desc>Created with Sketch.</desc>
    <g id="Symbols" stroke="none" stroke-width="1" fill="none" fill-rule="evenodd">
        <g id="font-icons/pin" fill="#FFFFFF">
            <g id="font-icons/pin-2">
                <path d="M7.0703125,0.125 C8.12500527,0.125 9.06835521,0.306638809 9.90039062,0.669921875 C10.732426,1.03320494 11.4326143,1.52831718 12.0009766,2.15527344 C12.5693388,2.7822297 13.0029282,3.51171459 13.3017578,4.34375 C13.6005874,5.17578541 13.75,6.05468287 13.75,6.98046875 C13.75,7.91797344 13.5654315,8.87597167 13.1962891,9.85449219 C12.8271466,10.8330127 12.3613309,11.7939406 11.7988281,12.7373047 C11.2363253,13.6806688 10.6269564,14.5742145 9.97070312,15.4179688 C9.31444984,16.261723 8.69922162,17.0117155 8.125,17.6679688 C8.125,17.6796876 8.03711025,17.7587883 7.86132813,17.9052734 C7.685546,18.0517585 7.48046992,18.125 7.24609375,18.125 L7.19335937,18.125 C6.94726439,18.125 6.73925866,18.0517585 6.56933594,17.9052734 C6.39941321,17.7587883 6.31445312,17.6796876 6.31445312,17.6679688 C5.70507508,16.9648402 5.04590198,16.1972698 4.33691406,15.3652344 C3.62792614,14.533199 2.97168271,13.6572312 2.36816406,12.7373047 C1.76464542,11.8173782 1.26074421,10.8710986 0.856445312,9.8984375 C0.452146416,8.92577639 0.25,7.95312986 0.25,6.98046875 C0.25,6.05468287 0.431638809,5.17578541 0.794921875,4.34375 C1.15820494,3.51171459 1.65038752,2.7822297 2.27148438,2.15527344 C2.89258123,1.52831718 3.61620681,1.03320494 4.44238281,0.669921875 C5.26855882,0.306638809 6.14452662,0.125 7.0703125,0.125 Z M7.28125,16.9121094 C8.17187945,15.892573 8.95116854,14.9199265 9.61914062,13.9941406 C10.2871127,13.0683547 10.8437478,12.1923869 11.2890625,11.3662109 C11.7343772,10.5400349 12.0683583,9.76074585 12.2910156,9.02832031 C12.513673,8.29589478 12.625,7.61328441 12.625,6.98046875 C12.625,6.26562143 12.5166026,5.56543312 12.2998047,4.87988281 C12.0830067,4.19433251 11.746096,3.58203395 11.2890625,3.04296875 C10.832029,2.50390355 10.2548863,2.07031414 9.55761719,1.7421875 C8.86034808,1.41406086 8.0312548,1.25 7.0703125,1.25 C6.29687113,1.25 5.56445658,1.40234223 4.87304688,1.70703125 C4.18163717,2.01172027 3.57812758,2.42480208 3.0625,2.94628906 C2.54687242,3.46777604 2.13672027,4.07714495 1.83203125,4.77441406 C1.52734223,5.47168317 1.375,6.20702738 1.375,6.98046875 C1.375,7.81250416 1.55077949,8.65624572 1.90234375,9.51171875 C2.25390801,10.3671918 2.69921605,11.2080037 3.23828125,12.0341797 C3.77734645,12.8603557 4.3691374,13.6572227 5.01367188,14.4248047 C5.65820635,15.1923867 6.26757525,15.9101529 6.84179688,16.578125 L7.140625,16.9121094 L7.2109375,16.9824219 C7.22265631,16.9707031 7.2373046,16.9589844 7.25488281,16.9472656 C7.27246103,16.9355468 7.28125,16.9238282 7.28125,16.9121094 Z M7.01757812,3.51757812 C7.95508281,3.51757812 8.75194984,3.8486295 9.40820312,4.51074219 C10.0644564,5.17285487 10.3925781,5.96679225 10.3925781,6.89257812 C10.3925781,7.83008281 10.0644564,8.62694984 9.40820312,9.28320312 C8.75194984,9.93945641 7.95508281,10.2675781 7.01757812,10.2675781 C6.09179225,10.2675781 5.29785487,9.93945641 4.63574219,9.28320312 C3.9736295,8.62694984 3.64257812,7.83008281 3.64257812,6.89257812 C3.64257812,5.96679225 3.9736295,5.17285487 4.63574219,4.51074219 C5.29785487,3.8486295 6.09179225,3.51757812 7.01757812,3.51757812 Z M7.01757812,9.14257812 C7.63867498,9.14257812 8.16601346,8.9199241 8.59960938,8.47460938 C9.03320529,8.02929465 9.25,7.49609686 9.25,6.875 C9.25,6.25390314 9.03027563,5.72363501 8.59082031,5.28417969 C8.15136499,4.84472437 7.62109686,4.625 7,4.625 C6.37890314,4.625 5.84863501,4.84472437 5.40917969,5.28417969 C4.96972437,5.72363501 4.75,6.25390314 4.75,6.875 C4.75,7.49609686 4.97265402,8.02929465 5.41796875,8.47460938 C5.86328348,8.9199241 6.39648127,9.14257812 7.01757812,9.14257812 Z" id="font-icons/pin"></path>
            </g>
        </g>
    </g>
</svg>