<?xml version="1.0" encoding="UTF-8"?>
<svg width="18px" height="18px" viewBox="0 0 18 18" version="1.1" xmlns="http://www.w3.org/2000/svg" xmlns:xlink="http://www.w3.org/1999/xlink">
    <!-- Generator: Sketch 52.5 (67469) - http://www.bohemiancoding.com/sketch -->
    <title>font-icons/facebook-square</title>
    <desc>Created with Sketch.</desc>
    <g id="Symbols" stroke="none" stroke-width="1" fill="none" fill-rule="evenodd">
        <g id="font-icons/facebook-square" fill="#A7A5A6" fill-rule="nonzero">
            <g id="facebook-square---FontAwesome">
                <path d="M15.1108798,9.10267035 L15.3675766,6.65847101 L13.1577525,6.65847101 L13.1577525,5.4419517 C13.1577525,4.80579023 13.2247169,4.45980767 14.1287358,4.45980767 L15.3564158,4.45980767 L15.3564158,2.01560833 L13.4032885,2.01560833 C11.0595357,2.01560833 10.2336419,3.19864545 10.2336419,5.19641569 L10.2336419,6.65847101 L8.77158655,6.65847101 L8.77158655,9.10267035 L10.2336419,9.10267035 L10.2336419,16.1897324 L13.1577525,16.1897324 L13.1577525,9.10267035 L15.1108798,9.10267035 Z M17.6666864,3.4999851 L17.6666864,14.2142836 C17.6666864,15.9888393 16.2269526,17.4285731 14.4523969,17.4285731 L3.7380984,17.4285731 C1.96354272,17.4285731 0.523808857,15.9888393 0.523808857,14.2142836 L0.523808857,3.4999851 C0.523808857,1.72542941 1.96354272,0.285695553 3.7380984,0.285695553 L14.4523969,0.285695553 C16.2269526,0.285695553 17.6666864,1.72542941 17.6666864,3.4999851 Z"></path>
            </g>
        </g>
    </g>
</svg>