<?xml version="1.0" encoding="UTF-8"?>
<svg width="18px" height="19px" viewBox="0 0 18 19" version="1.1" xmlns="http://www.w3.org/2000/svg" xmlns:xlink="http://www.w3.org/1999/xlink">
    <!-- Generator: Sketch 52.5 (67469) - http://www.bohemiancoding.com/sketch -->
    <title>font-icons/calendar</title>
    <desc>Created with Sketch.</desc>
    <g id="Symbols" stroke="none" stroke-width="1" fill="none" fill-rule="evenodd">
        <g id="font-icons/calendar" fill="#FFFFFF">
            <g id="calendar---simple-line-icons">
                <path d="M16.875,1.8125 C17.1914078,1.8125 17.4580067,1.92089735 17.6748047,2.13769531 C17.8916026,2.35449327 18,2.62109217 18,2.9375 L18,17 C18,17.304689 17.8916026,17.5683583 17.6748047,17.7910156 C17.4580067,18.013673 17.1914078,18.125 16.875,18.125 L1.125,18.125 C0.808592168,18.125 0.541993271,18.013673 0.325195312,17.7910156 C0.108397354,17.5683583 0,17.304689 0,17 L0,2.9375 C0,2.62109217 0.108397354,2.35449327 0.325195312,2.13769531 C0.541993271,1.92089735 0.808592168,1.8125 1.125,1.8125 L5.625,1.8125 L5.625,0.6875 C5.625,0.535155488 5.68066351,0.403320869 5.79199219,0.291992188 C5.90332087,0.180663506 6.03515549,0.125 6.1875,0.125 C6.33984451,0.125 6.47167913,0.180663506 6.58300781,0.291992188 C6.69433649,0.403320869 6.75,0.535155488 6.75,0.6875 L6.75,1.8125 L11.25,1.8125 L11.25,0.6875 C11.25,0.535155488 11.3056635,0.403320869 11.4169922,0.291992188 C11.5283209,0.180663506 11.6601555,0.125 11.8125,0.125 C11.9648445,0.125 12.0966791,0.180663506 12.2080078,0.291992188 C12.3193365,0.403320869 12.375,0.535155488 12.375,0.6875 L12.375,1.8125 L16.875,1.8125 Z M16.875,17 L16.875,2.9375 L12.375,2.9375 L12.375,3.5 C12.375,3.65234451 12.3193365,3.78417913 12.2080078,3.89550781 C12.0966791,4.00683649 11.9648445,4.0625 11.8125,4.0625 C11.6601555,4.0625 11.5283209,4.00683649 11.4169922,3.89550781 C11.3056635,3.78417913 11.25,3.65234451 11.25,3.5 L11.25,2.9375 L6.75,2.9375 L6.75,3.5 C6.75,3.65234451 6.69433649,3.78417913 6.58300781,3.89550781 C6.47167913,4.00683649 6.33984451,4.0625 6.1875,4.0625 C6.03515549,4.0625 5.90332087,4.00683649 5.79199219,3.89550781 C5.68066351,3.78417913 5.625,3.65234451 5.625,3.5 L5.625,2.9375 L1.125,2.9375 L1.125,17 L16.875,17 Z M12.9375,9.125 C12.7851555,9.125 12.6533209,9.06933649 12.5419922,8.95800781 C12.4306635,8.84667913 12.375,8.71484451 12.375,8.5625 L12.375,7.4375 C12.375,7.28515549 12.4306635,7.15332087 12.5419922,7.04199219 C12.6533209,6.93066351 12.7851555,6.875 12.9375,6.875 L14.0625,6.875 C14.2148445,6.875 14.3466791,6.93066351 14.4580078,7.04199219 C14.5693365,7.15332087 14.625,7.28515549 14.625,7.4375 L14.625,8.5625 C14.625,8.71484451 14.5693365,8.84667913 14.4580078,8.95800781 C14.3466791,9.06933649 14.2148445,9.125 14.0625,9.125 L12.9375,9.125 Z M12.9375,13.625 C12.7851555,13.625 12.6533209,13.5693365 12.5419922,13.4580078 C12.4306635,13.3466791 12.375,13.2148445 12.375,13.0625 L12.375,11.9375 C12.375,11.7851555 12.4306635,11.6533209 12.5419922,11.5419922 C12.6533209,11.4306635 12.7851555,11.375 12.9375,11.375 L14.0625,11.375 C14.2148445,11.375 14.3466791,11.4306635 14.4580078,11.5419922 C14.5693365,11.6533209 14.625,11.7851555 14.625,11.9375 L14.625,13.0625 C14.625,13.2148445 14.5693365,13.3466791 14.4580078,13.4580078 C14.3466791,13.5693365 14.2148445,13.625 14.0625,13.625 L12.9375,13.625 Z M9.5625,11.375 C9.71484451,11.375 9.84667913,11.4306635 9.95800781,11.5419922 C10.0693365,11.6533209 10.125,11.7851555 10.125,11.9375 L10.125,13.0625 C10.125,13.2148445 10.0693365,13.3466791 9.95800781,13.4580078 C9.84667913,13.5693365 9.71484451,13.625 9.5625,13.625 L8.4375,13.625 C8.28515549,13.625 8.15332087,13.5693365 8.04199219,13.4580078 C7.93066351,13.3466791 7.875,13.2148445 7.875,13.0625 L7.875,11.9375 C7.875,11.7851555 7.93066351,11.6533209 8.04199219,11.5419922 C8.15332087,11.4306635 8.28515549,11.375 8.4375,11.375 L9.5625,11.375 Z M9.5625,6.875 C9.71484451,6.875 9.84667913,6.93066351 9.95800781,7.04199219 C10.0693365,7.15332087 10.125,7.28515549 10.125,7.4375 L10.125,8.5625 C10.125,8.71484451 10.0693365,8.84667913 9.95800781,8.95800781 C9.84667913,9.06933649 9.71484451,9.125 9.5625,9.125 L8.4375,9.125 C8.28515549,9.125 8.15332087,9.06933649 8.04199219,8.95800781 C7.93066351,8.84667913 7.875,8.71484451 7.875,8.5625 L7.875,7.4375 C7.875,7.28515549 7.93066351,7.15332087 8.04199219,7.04199219 C8.15332087,6.93066351 8.28515549,6.875 8.4375,6.875 L9.5625,6.875 Z M5.0625,6.875 C5.21484451,6.875 5.34667913,6.93066351 5.45800781,7.04199219 C5.56933649,7.15332087 5.625,7.28515549 5.625,7.4375 L5.625,8.5625 C5.625,8.71484451 5.56933649,8.84667913 5.45800781,8.95800781 C5.34667913,9.06933649 5.21484451,9.125 5.0625,9.125 L3.9375,9.125 C3.78515549,9.125 3.65332087,9.06933649 3.54199219,8.95800781 C3.43066351,8.84667913 3.375,8.71484451 3.375,8.5625 L3.375,7.4375 C3.375,7.28515549 3.43066351,7.15332087 3.54199219,7.04199219 C3.65332087,6.93066351 3.78515549,6.875 3.9375,6.875 L5.0625,6.875 Z M5.0625,11.375 C5.21484451,11.375 5.34667913,11.4306635 5.45800781,11.5419922 C5.56933649,11.6533209 5.625,11.7851555 5.625,11.9375 L5.625,13.0625 C5.625,13.2148445 5.56933649,13.3466791 5.45800781,13.4580078 C5.34667913,13.5693365 5.21484451,13.625 5.0625,13.625 L3.9375,13.625 C3.78515549,13.625 3.65332087,13.5693365 3.54199219,13.4580078 C3.43066351,13.3466791 3.375,13.2148445 3.375,13.0625 L3.375,11.9375 C3.375,11.7851555 3.43066351,11.6533209 3.54199219,11.5419922 C3.65332087,11.4306635 3.78515549,11.375 3.9375,11.375 L5.0625,11.375 Z"></path>
            </g>
        </g>
    </g>
</svg>