<?xml version="1.0" encoding="UTF-8"?>
<svg width="74px" height="26px" viewBox="0 0 74 26" version="1.1" xmlns="http://www.w3.org/2000/svg" xmlns:xlink="http://www.w3.org/1999/xlink">
    <!-- Generator: Sketch 52.5 (67469) - http://www.bohemiancoding.com/sketch -->
    <title>font-icons/cc-by</title>
    <desc>Created with Sketch.</desc>
    <g id="Symbols" stroke="none" stroke-width="1" fill="none" fill-rule="evenodd">
        <g id="font-icons/cc-by">
            <g>
                <path d="M1.77593048,0 L72.1390285,0.122877295 C73.1216562,0.122877295 74,-0.0208891401 74,2.06495294 L73.9143382,25 L0,25 L0,1.97955322 C0.000620737671,0.951070261 0.10118024,0 1.77593048,0 Z" id="Path" fill="#AAB2AB"></path>
                <path d="M72.6137333,0 L1.38565,0 C0.621039474,0.0010222061 0.00135863076,0.622818793 0,1.39038095 L0,25.6861429 C0,25.8594762 0.1406,26 0.313266667,26 L73.6867333,26 C73.8594,26 74,25.8594762 74,25.6861429 L74,1.39038095 C73.9986406,0.622577453 73.3785846,0.000681280293 72.6137333,0 Z M1.38565,0.628333333 L72.6137333,0.628333333 C73.0330667,0.628333333 73.3740833,0.970047619 73.3740833,1.39038095 L73.3740833,18.2755238 L22.2986667,18.2755238 C20.4326333,21.6623333 16.8374667,23.9620952 12.71135,23.9620952 C8.584,23.9620952 4.99006667,21.6648095 3.12465,18.2755238 L0.625916667,18.2755238 L0.625916667,1.39038095 C0.625916667,0.970047619 0.966933333,0.628333333 1.38565,0.628333333 Z" id="Shape" fill="#000000" fill-rule="nonzero"></path>
                <g id="Group" transform="translate(43.000000, 20.000000)" fill="#FFFFFF" fill-rule="nonzero">
                    <path d="M2.344,0.466875 C2.53784615,0.466875 2.71569231,0.485 2.87630769,0.519375 C3.03630769,0.55375 3.17292308,0.610625 3.28738462,0.690625 C3.40184615,0.769375 3.49046154,0.875 3.55323077,1.005625 C3.616,1.136875 3.648,1.299375 3.648,1.493125 C3.648,1.70125 3.60123077,1.874375 3.50707692,2.01375 C3.41476923,2.153125 3.27569231,2.266875 3.09292308,2.355625 C3.34523077,2.429375 3.53292308,2.5575 3.65723077,2.74125 C3.78153846,2.925 3.84369231,3.146875 3.84369231,3.405625 C3.84369231,3.614375 3.80369231,3.795 3.72369231,3.9475 C3.64369231,4.1 3.53538462,4.225 3.40061538,4.32125 C3.26523077,4.418125 3.11015385,4.49 2.93723077,4.53625 C2.76249194,4.58288532 2.58251652,4.60620648 2.40184615,4.605625 L0.422769231,4.60563561 L0.422769231,0.466875 L2.344,0.466875 Z M2.22953846,2.14125 C2.38953846,2.14125 2.52061538,2.1025 2.624,2.025 C2.72676923,1.948125 2.77784615,1.823125 2.77784615,1.65 C2.78116841,1.56769358 2.76357865,1.48590385 2.72676923,1.4125 C2.69427112,1.35283005 2.64695932,1.30283972 2.58953846,1.2675 C2.52871642,1.23164584 2.46199548,1.20729335 2.39261538,1.195625 C2.31621098,1.18210273 2.23878628,1.17541043 2.16123077,1.175625 L1.32123077,1.17562 L1.32123077,2.14125 L2.22953846,2.14125 Z M2.28184615,3.8975 C2.36984615,3.8975 2.45353846,3.88875 2.53353846,3.87125 C2.60865926,3.85541269 2.68036419,3.82598618 2.74523077,3.784375 C2.80699719,3.74274833 2.8572138,3.68572162 2.89107692,3.61875 C2.93016955,3.53601263 2.94876017,3.44482553 2.94523077,3.353125 C2.94523077,3.140625 2.88615385,2.98875 2.768,2.898125 C2.64984615,2.8075 2.49353846,2.761875 2.29907692,2.761875 L1.32061538,2.761875 L1.32061538,3.8975 L2.28184615,3.8975 Z M4.00184615,0.466875 L5.00676923,0.466875 L5.96123077,2.101875 L6.90953846,0.466875 L7.90892308,0.466875 L6.39630769,3.016875 L6.39630769,4.605625 L5.49784615,4.605625 L5.49784615,2.994375 L4.00184615,0.466875 Z" id="Shape"></path>
                </g>
                <path d="M20.9999981,12.4996885 C21.0031152,17.1916201 17.1996396,20.9968826 12.5052991,20.9999981 C7.81095855,21.0031136 4.00187217,17.2015897 4.00000191,12.5102811 L4.00000191,12.4996885 C3.99688482,7.8077568 7.79973702,4.00311741 12.4940775,4.00000191 C17.1896649,3.99688642 20.9975044,7.79778723 20.9999981,12.4897189 L20.9999981,12.4996885 Z" id="Path" fill="#FFFFFF"></path>
                <path d="M19.2411409,5.75567419 C21.0803803,7.59177802 22,9.84029154 22,12.5 C22,15.1603158 21.0961939,17.3851416 19.2885816,19.17387 C17.3708826,21.0579567 15.1040686,22 12.4881398,22 C9.90383815,22 7.67655815,21.0658526 5.8056916,19.1975577 C3.93482506,17.3292628 3,15.0977559 3,12.5 C3,9.90345886 3.93543327,7.65555271 5.80629982,5.75567419 C7.62911745,3.9183556 9.85700567,3 12.488748,3 C15.1527258,3 17.4031179,3.9183556 19.2417491,5.75567419 L19.2411409,5.75567419 Z M7.04462371,6.99047375 C5.48942028,8.55872387 4.71273088,10.3954351 4.71273088,12.5024295 C4.71273088,14.6094239 5.48212171,16.4303433 7.02029514,17.9664024 C8.5590768,19.5030689 10.3910176,20.2707947 12.5167259,20.2707947 C14.6424341,20.2707947 16.4895803,19.4951729 18.0599891,17.943322 C19.5513301,16.5014066 20.2970005,14.6889905 20.2970005,12.5024295 C20.2970005,10.3328751 19.5391658,8.49191228 18.0241045,6.97893357 C16.5096514,5.46656224 14.6740613,4.71037657 12.5167259,4.71037657 C10.3593905,4.71037657 8.53535645,5.47020651 7.04462371,6.99047375 Z M11.1360799,11.576178 C10.8982682,11.0586919 10.5424629,10.7999489 10.068056,10.7999489 C9.22993694,10.7999489 8.81087743,11.3635957 8.81087743,12.4908893 C8.81087743,13.6175756 9.22993694,14.1812224 10.068056,14.1812224 C10.6215308,14.1812224 11.0174782,13.9066876 11.2546816,13.3570104 L12.4169788,13.9747139 C11.863504,14.9574516 11.0320753,15.4488204 9.923301,15.4488204 C9.0687602,15.4488204 8.38451935,15.1876478 7.86997023,14.6646954 C7.35542111,14.1411355 7.09814655,13.4195704 7.09814655,12.5 C7.09814655,11.5962215 7.36332789,10.878908 7.89369058,10.3480596 C8.42405327,9.8166038 9.08457377,9.55117959 9.87646852,9.55117959 C11.0478889,9.55117959 11.8866161,10.0121795 12.3938666,10.9329646 L11.1360799,11.576178 Z M16.6039246,11.576178 C16.3655047,11.0586919 16.016998,10.7999489 15.5577963,10.7999489 C14.7026473,10.7999489 14.2744646,11.3635957 14.2744646,12.4908893 C14.2744646,13.6175756 14.7026473,14.1812224 15.5577963,14.1812224 C16.1124876,14.1812224 16.5005282,13.9066876 16.7225263,13.3570104 L17.9103684,13.9747139 C17.3568936,14.9574516 16.5272896,15.4488204 15.4215564,15.4488204 C14.5676238,15.4488204 13.8845994,15.1876478 13.3706585,14.6646954 C12.857934,14.1411355 12.6006594,13.4195704 12.6006594,12.5 C12.6006594,11.5962215 12.8621915,10.878908 13.383431,10.3480596 C13.9046704,9.8166038 14.5676238,9.55117959 15.3741157,9.55117959 C16.5437114,9.55117959 17.3812222,10.0121795 17.8860399,10.9329646 L16.6039246,11.576178 Z" id="Shape" fill="#000000" fill-rule="nonzero"></path>
                <g id="Group" transform="translate(39.000000, 2.000000)">
                    <ellipse id="Oval" fill="#FFFFFF" cx="7.5306" cy="7.695625" rx="6.4842" ry="6.754375"></ellipse>
                    <path d="M9.4068,5.741875 C9.40680022,5.48185469 9.20461927,5.27096985 8.955,5.270625 L6.0912,5.270625 C5.84158073,5.27096985 5.63939978,5.48185469 5.6394,5.741875 L5.6394,8.725 L6.4374,8.725 L6.4374,12.2575 L8.6082,12.2575 L8.6082,8.725 L9.4068,8.725 L9.4068,5.741875 Z" id="Path" fill="#000000"></path>
                    <ellipse id="Oval" fill="#000000" cx="7.5234" cy="3.8575" rx="1" ry="1.020625"></ellipse>
                    <path d="M7.5144,0.254375 C5.5746,0.254375 3.933,0.959375 2.5896,2.369375 C1.2108,3.828125 0.522,5.554375 0.522,7.5475 C0.522,9.540625 1.2108,11.254375 2.5896,12.68875 C3.9684,14.123125 5.61,14.84 7.5144,14.84 C9.4422,14.84 11.1132,14.1175 12.5262,12.670625 C13.8582,11.2975 14.5242,9.589375 14.5242,7.5475 C14.5242,5.505 13.8462,3.77875 12.492,2.369375 C11.136,0.959375 9.477,0.254375 7.5144,0.254375 Z M7.5324,1.566875 C9.1212,1.566875 10.4706,2.150625 11.58,3.3175 C12.702,4.471875 13.2624,5.881875 13.2624,7.5475 C13.2624,9.224375 12.7134,10.61625 11.6154,11.7225 C10.458,12.91375 9.0978,13.509375 7.5318,13.509375 C5.9658,13.509375 4.6158,12.92 3.4836,11.740625 C2.3496,10.56125 1.7838,9.16375 1.7838,7.546875 C1.7838,5.930625 2.3562,4.520625 3.501,3.3175 C4.599,2.150625 5.943,1.566875 7.5318,1.566875 L7.5324,1.566875 Z" id="Shape" fill="#000000" fill-rule="nonzero"></path>
                </g>
            </g>
        </g>
    </g>
</svg>