<?xml version="1.0" encoding="UTF-8"?>
<svg viewBox="0 0 18 18" version="1.1" xmlns="http://www.w3.org/2000/svg" xmlns:xlink="http://www.w3.org/1999/xlink">
    <!-- Generator: Sketch 52.5 (67469) - http://www.bohemiancoding.com/sketch -->
    <title>font-icons/twitter-square</title>
    <desc>Created with Sketch.</desc>
    <g id="Symbols" stroke="none" stroke-width="1" fill="none" fill-rule="evenodd">
        <g id="inside" fill="#A7A5A6" fill-rule="nonzero">
            <g id="twitter-square---FontAwesome">
                <path d="M14.8095402,5.66516625 C14.3854325,5.85489862 13.9390034,5.97766662 13.4590921,6.04463099 C13.9501641,5.75445207 14.3184682,5.28570151 14.4970398,4.73882586 C14.03945,5.00668332 13.5372172,5.20757642 13.0015023,5.30802297 C12.5773947,4.85043314 11.9635546,4.57141495 11.293911,4.57141495 C9.99926658,4.57141495 8.95015819,5.62052334 8.95015819,6.91516774 C8.95015819,7.09373938 8.96131892,7.28347175 9.00596183,7.45088267 C7.0528345,7.35043612 5.32292172,6.42409573 4.16220605,4.9955226 C3.96131295,5.34150515 3.83854495,5.75445207 3.83854495,6.17855972 C3.83854495,6.99329283 4.21800969,7.7075794 4.85417116,8.13168705 C4.4635457,8.12052632 4.09524169,8.00891905 3.7380984,7.84150813 L3.7380984,7.86382959 C3.7380984,9.0022238 4.59747443,9.95088565 5.66890428,10.1629395 C5.46801118,10.2187431 5.31176099,10.2522253 5.09970717,10.2522253 C4.95461771,10.2522253 4.80952825,10.2299038 4.66443879,10.2075824 C4.96577844,11.1339228 5.82515446,11.8147272 6.8519414,11.8370486 C6.04836901,12.4620494 5.04390353,12.8415141 3.9389915,12.8415141 C3.74925913,12.8415141 3.55952676,12.8303534 3.38095512,12.8080319 C4.41890279,13.4665148 5.64658282,13.8571403 6.9747094,13.8571403 C11.2827503,13.8571403 13.6488245,10.2857075 13.6488245,7.1830252 C13.6488245,7.08257866 13.6488245,6.98213211 13.6376638,6.88168556 C14.0952536,6.55802446 14.4970398,6.14507754 14.8095402,5.66516625 Z M17.6666864,3.4999851 L17.6666864,14.2142836 C17.6666864,15.9888393 16.2269526,17.4285731 14.4523969,17.4285731 L3.7380984,17.4285731 C1.96354272,17.4285731 0.523808857,15.9888393 0.523808857,14.2142836 L0.523808857,3.4999851 C0.523808857,1.72542941 1.96354272,0.285695553 3.7380984,0.285695553 L14.4523969,0.285695553 C16.2269526,0.285695553 17.6666864,1.72542941 17.6666864,3.4999851 Z"></path>
            </g>
        </g>
    </g>
</svg>
