<?xml version="1.0" encoding="UTF-8"?>
<svg width="197px" height="65px" viewBox="0 0 197 65" version="1.1" xmlns="http://www.w3.org/2000/svg" xmlns:xlink="http://www.w3.org/1999/xlink">
    <!-- Generator: Sketch 63.1 (92452) - https://sketch.com -->
    <title>logos/oeglobalconf-inverted</title>
    <desc>Created with Sketch.</desc>
    <g id="Page-1" stroke="none" stroke-width="1" fill="none" fill-rule="evenodd">
        <g id="Home---Tablet-Landscape" transform="translate(-49.000000, -3964.000000)">
            <g id="footer" transform="translate(0.000000, 3921.000000)">
                <g id="logos/oeglobalconf-inverted" transform="translate(51.000000, 45.000000)">
                    <g id="oeglobal">
                        <path d="M82.992,26.7018919 C80.865839,28.8879803 77.6168964,29.5727627 74.7805873,28.4326182 C71.9442781,27.2924737 70.0885415,24.5557036 70.0903488,21.5156757 L70.0903488,21.4737838 C70.0828468,18.797768 71.5127354,16.3210351 73.8414189,14.9765465 C76.1701024,13.6320579 79.0437985,13.6240733 81.3800135,14.9556005 C83.7162286,16.2871277 85.160036,18.7558761 85.1675676,21.4318919 L85.1675676,21.4737838 C85.1920326,23.4386825 84.4058818,25.327882 82.992,26.7018919 L82.992,26.7018919 Z M74.1295135,25.0764865 C75.0445901,26.016404 76.3043923,26.5471037 77.6205405,26.5471037 C78.9366888,26.5471037 80.196491,26.016404 81.1115676,25.0764865 C82.021901,24.1049918 82.5123804,22.8174639 82.4776216,21.4905405 L82.4776216,21.4486486 C82.5068493,20.1145613 82.0106392,18.8218628 81.0947027,17.8459459 C80.1879305,16.8813968 78.9060524,16.3529954 77.5783784,16.3964865 C76.2622766,16.3584923 74.9944847,16.8904868 74.1042162,17.8543243 C73.1920288,18.8213027 72.7010713,20.1070744 72.7381622,21.4318919 L72.7381622,21.4737838 C72.7011177,22.8107722 73.2018358,24.1073092 74.1295135,25.0764865 Z" id="Shape" fill="#FFFFFF" fill-rule="nonzero"></path>
                        <polygon id="Path" fill="#FFFFFF" fill-rule="nonzero" points="88.8441081 28.6205405 88.8441081 14.3772973 99.5027027 14.3772973 99.5027027 16.6227027 91.3654054 16.6227027 91.3654054 20.3343243 98.5751351 20.3343243 98.5751351 22.5378378 91.3654054 22.5378378 91.3654054 26.3751351 99.6038919 26.3751351 99.6038919 28.6205405"></polygon>
                        <path d="M111.527351,28.9054054 C109.456338,28.96615 107.444649,28.2135922 105.928216,26.8108108 C104.462599,25.4415522 103.658208,23.5136284 103.718919,21.5156757 L103.718919,21.4737838 C103.675613,19.4814896 104.477375,17.562907 105.928216,16.187027 C107.403787,14.7583315 109.400564,13.9871209 111.459892,14.0505405 C113.597416,13.9976648 115.677994,14.7385255 117.295135,16.1283784 L114.950919,18.9267568 C113.989983,18.0795261 112.752984,17.606349 111.468324,17.5945946 C110.46909,17.5779394 109.511947,17.9938139 108.845838,18.7340541 C108.143049,19.4893323 107.764842,20.487411 107.791784,21.5156757 L107.791784,21.5575676 C107.752411,22.6156738 108.14818,23.6441268 108.888,24.4062162 C109.62849,25.1468028 110.64594,25.5475311 111.696,25.5121622 C112.502078,25.5462167 113.300231,25.3421265 113.989622,24.9256757 L113.989622,23.1662162 L111.156324,23.1662162 L111.156324,20.2756757 L117.775784,20.2756757 L117.775784,26.7018919 C116.02449,28.1539605 113.80812,28.9355649 111.527351,28.9054054 L111.527351,28.9054054 Z" id="Path" fill="#FFFFFF" fill-rule="nonzero"></path>
                        <polygon id="Path" fill="#FFFFFF" fill-rule="nonzero" points="120.583784 28.6205405 120.583784 14.3772973 124.563892 14.3772973 124.563892 25.1351351 131.545946 25.1351351 131.545946 28.6037838"></polygon>
                        <path d="M146.648432,26.7437838 C143.530629,29.6166178 138.711317,29.6166178 135.593514,26.7437838 C134.146585,25.3826247 133.344435,23.4783225 133.384216,21.4989189 L133.384216,21.457027 C133.349285,19.4702817 134.157256,17.5606095 135.610378,16.1954054 C138.731377,13.3306731 143.544299,13.3306731 146.665297,16.1954054 C148.109587,17.5583744 148.911226,19.4614641 148.874595,21.4402703 L148.874595,21.4821622 C148.906393,23.4683067 148.09893,25.3767756 146.648432,26.7437838 L146.648432,26.7437838 Z M138.511135,24.2302703 C139.197296,24.9480374 140.149939,25.3544439 141.14627,25.3544439 C142.142601,25.3544439 143.095244,24.9480374 143.781405,24.2302703 C144.46344,23.4942008 144.832133,22.524328 144.810162,21.5240541 L144.810162,21.4821622 C144.827905,20.4729636 144.449908,19.4964717 143.756108,18.7591892 C143.090313,18.0009928 142.120836,17.5745808 141.108324,17.5945946 C140.111331,17.562463 139.151157,17.970452 138.485838,18.7089189 C137.812723,19.4459316 137.450449,20.4118013 137.473946,21.4067568 L137.473946,21.4486486 C137.44727,22.4662776 137.819103,23.4544802 138.511135,24.2051351 L138.511135,24.2302703 Z" id="Shape" fill="#FFFFFF" fill-rule="nonzero"></path>
                        <path d="M151.564541,28.6205405 L151.564541,14.3772973 L158.942919,14.3772973 C160.36996,14.2657889 161.782403,14.7275489 162.864,15.6591892 C163.479129,16.2676552 163.814667,17.1011225 163.791568,17.9632432 L163.791568,18.0051351 C163.82897,19.4355753 162.927641,20.7246261 161.565405,21.1889189 C162.378456,21.4149345 163.113477,21.858337 163.690378,22.4708108 C164.204337,23.0912121 164.466039,23.8802495 164.424,24.6827027 L164.424,24.7245946 C164.471393,25.8651968 163.931181,26.9513234 162.990486,27.6067568 C161.799897,28.3745291 160.393619,28.7443929 158.976649,28.6624324 L151.564541,28.6205405 Z M155.443459,20.0243243 L157.973189,20.0243243 C159.229622,20.0243243 159.862054,19.6137838 159.862054,18.7843243 L159.862054,18.7424324 C159.862054,17.9045946 159.254919,17.5191892 158.049081,17.5191892 L155.460324,17.5191892 L155.443459,20.0243243 Z M155.443459,25.4367568 L158.52973,25.4367568 C159.021974,25.4637686 159.511435,25.3472839 159.937946,25.1016216 C160.262877,24.8859061 160.451367,24.5176912 160.435459,24.1297297 L160.435459,24.0878378 C160.435459,23.2332432 159.786162,22.8059459 158.487568,22.8059459 L155.443459,22.8059459 L155.443459,25.4367568 Z" id="Shape" fill="#FFFFFF" fill-rule="nonzero"></path>
                        <path d="M165.722595,28.6205405 L171.844541,14.2432432 L175.681297,14.2432432 L181.803243,28.6372973 L177.528,28.6372973 L176.482378,26.1237838 L170.933838,26.1237838 L169.913514,28.6372973 L165.722595,28.6205405 Z M172.105946,22.9902703 L175.335568,22.9902703 L173.708108,18.9267568 L172.105946,22.9902703 Z" id="Shape" fill="#FFFFFF" fill-rule="nonzero"></path>
                        <polygon id="Path" fill="#FFFFFF" fill-rule="nonzero" points="183.827027 28.6205405 183.827027 14.3772973 187.807135 14.3772973 187.807135 25.1351351 194.789189 25.1351351 194.789189 28.6037838"></polygon>
                        <path d="M76.5496216,47.1702703 C75.0986793,47.2061106 73.6986232,46.6381363 72.6875676,45.6035135 C71.6652101,44.5779803 71.1053259,43.184219 71.136,41.7410811 L71.136,41.7410811 C71.1055762,40.2930419 71.6650825,38.8941787 72.6875676,37.8618919 C73.7170303,36.8054183 75.146133,36.2277118 76.6255135,36.27 C77.4310869,36.2485359 78.2323258,36.3940601 78.9781622,36.6972973 C79.6487727,36.998449 80.2620858,37.4122616 80.7911351,37.9205405 L79.5937297,39.2945946 C78.8077956,38.4884335 77.7376147,38.0168477 76.6086486,37.9791892 C75.6460005,37.9498541 74.7197018,38.3456094 74.0789189,39.06 C73.4112366,39.7796511 73.05139,40.7290849 73.0754595,41.7075676 L73.0754595,41.7075676 C73.0503427,42.7058746 73.4196185,43.6742728 74.1042162,44.4054054 C74.7411309,45.126975 75.6683567,45.5292682 76.6339459,45.502973 C77.1902547,45.5130591 77.7414077,45.3955072 78.2445405,45.1594595 C78.7770615,44.8898039 79.2659415,44.5424389 79.6949189,44.1289189 L80.8923243,45.3354054 C80.352327,45.9164594 79.709146,46.3936227 78.995027,46.742973 C78.2213158,47.0619422 77.3864363,47.2078246 76.5496216,47.1702703 Z" id="Path" fill="#FFFFFF" fill-rule="nonzero"></path>
                        <path d="M91.9135135,45.57 C90.3430408,47.1906315 87.9390227,47.7005292 85.8394159,46.85833 C83.7398091,46.0161307 82.3658855,43.9908161 82.3679976,41.7410811 L82.3679976,41.7410811 C82.4197948,39.5147085 83.7951117,37.5306871 85.8701548,36.6889003 C87.9451978,35.8471134 90.3250836,36.3077542 91.9303784,37.8618919 C92.9573866,38.8781483 93.5210736,40.2677364 93.4903784,41.7075676 L93.4903784,41.7075676 C93.5173101,43.1549135 92.9476338,44.5503001 91.9135135,45.57 L91.9135135,45.57 Z M85.3868108,44.4054054 C86.0637614,45.1022033 86.9966337,45.4957589 87.9713514,45.4957589 C88.946069,45.4957589 89.8789413,45.1022033 90.5558919,44.4054054 C91.2297455,43.6889835 91.5931729,42.7380928 91.5677838,41.7578378 L91.5677838,41.7578378 C91.5894426,40.7701082 91.2200337,39.8133951 90.539027,39.0935135 C89.8620764,38.3967157 88.9292041,38.00316 87.9544865,38.00316 C86.9797688,38.00316 86.0468966,38.3967157 85.3699459,39.0935135 C84.6960924,39.8099354 84.332665,40.7608261 84.3580541,41.7410811 L84.3580541,41.7410811 C84.3363952,42.7288107 84.7058041,43.6855238 85.3868108,44.4054054 L85.3868108,44.4054054 Z" id="Shape" fill="#FFFFFF" fill-rule="nonzero"></path>
                        <polygon id="Path" fill="#FFFFFF" fill-rule="nonzero" points="96.2393514 46.9943243 96.2393514 36.4208108 97.968 36.4208108 103.668324 43.7267568 103.668324 36.4208108 105.506595 36.4208108 105.506595 46.9943243 103.946595 46.9943243 98.0438919 39.4537838 98.0438919 46.9943243"></polygon>
                        <polygon id="Path" fill="#FFFFFF" fill-rule="nonzero" points="108.778378 46.9943243 108.778378 36.4208108 116.696432 36.4208108 116.696432 38.0964865 110.650378 38.0964865 110.650378 40.9786486 116.013405 40.9786486 116.013405 42.6543243 110.650378 42.6543243 110.650378 46.9608108"></polygon>
                        <polygon id="Path" fill="#FFFFFF" fill-rule="nonzero" points="119.040649 46.9943243 119.040649 36.4208108 126.933405 36.4208108 126.933405 38.0964865 120.912649 38.0964865 120.912649 40.8445946 126.250378 40.8445946 126.250378 42.5202703 120.912649 42.5202703 120.912649 45.3605405 127.009297 45.3605405 127.009297 47.0362162"></polygon>
                        <path d="M129.724541,46.9943243 L129.724541,36.4208108 L134.472,36.4208108 C135.595971,36.3512915 136.701223,36.7314261 137.541405,37.4764865 C138.116037,38.0946511 138.419442,38.9146239 138.384649,39.7554054 L138.384649,39.7554054 C138.415852,40.5019691 138.173133,41.2343896 137.701622,41.8164865 C137.21523,42.3760517 136.567687,42.7737849 135.846486,42.9559459 L138.721946,46.9608108 L136.521081,46.9608108 L133.907027,43.2743243 L131.562811,43.2743243 L131.562811,46.9608108 L129.724541,46.9943243 Z M131.596541,41.6656757 L134.328649,41.6656757 C134.903361,41.6940094 135.470004,41.5221431 135.930811,41.1797297 C136.318696,40.8678119 136.537153,40.3933881 136.521081,39.8978378 L136.521081,39.8978378 C136.54797,39.3991113 136.335217,38.9172666 135.947676,38.5991892 C135.471683,38.2711401 134.898437,38.1117781 134.320216,38.1467568 L131.596541,38.1467568 L131.596541,41.6656757 Z" id="Shape" fill="#FFFFFF" fill-rule="nonzero"></path>
                        <polygon id="Path" fill="#FFFFFF" fill-rule="nonzero" points="141.184216 46.9943243 141.184216 36.4208108 149.068541 36.4208108 149.068541 38.0964865 143.047784 38.0964865 143.047784 40.8445946 148.410811 40.8445946 148.410811 42.5202703 143.073081 42.5202703 143.073081 45.3605405 149.16973 45.3605405 149.16973 47.0362162"></polygon>
                        <polygon id="Path" fill="#FFFFFF" fill-rule="nonzero" points="151.859676 46.9943243 151.859676 36.4208108 153.596757 36.4208108 159.297081 43.7267568 159.297081 36.4208108 161.135351 36.4208108 161.135351 46.9943243 159.566919 46.9943243 153.706378 39.4537838 153.706378 46.9943243"></polygon>
                        <path d="M169.264216,47.1702703 C167.813274,47.2061106 166.413218,46.6381363 165.402162,45.6035135 C164.382064,44.5771281 163.825146,43.1831754 163.859027,41.7410811 L163.859027,41.7410811 C163.8254,40.2940816 164.381941,38.8950296 165.402162,37.8618919 C166.432221,36.8062951 167.860917,36.2287528 169.340108,36.27 C170.145739,36.2477953 170.94713,36.3933472 171.692757,36.6972973 C172.363367,36.998449 172.97668,37.4122616 173.50573,37.9205405 L172.308324,39.2945946 C171.52239,38.4884335 170.452209,38.0168477 169.323243,37.9791892 C168.361039,37.9521689 167.435682,38.3475219 166.793514,39.06 C166.125831,39.7796511 165.765985,40.7290849 165.790054,41.7075676 L165.790054,41.7075676 C165.764937,42.7058746 166.134213,43.6742728 166.818811,44.4054054 C167.456436,45.1260093 168.383182,45.5280942 169.348541,45.502973 C169.90754,45.5128481 170.461385,45.3953372 170.967568,45.1594595 C171.496082,44.8874218 171.981842,44.540255 172.409514,44.1289189 L173.606919,45.3354054 C173.066922,45.9164594 172.423741,46.3936227 171.709622,46.742973 C170.936145,47.0627395 170.101085,47.2086535 169.264216,47.1702703 L169.264216,47.1702703 Z" id="Path" fill="#FFFFFF" fill-rule="nonzero"></path>
                        <polygon id="Path" fill="#FFFFFF" fill-rule="nonzero" points="175.900541 46.9943243 175.900541 36.4208108 183.827027 36.4208108 183.827027 38.0964865 177.814703 38.0964865 177.814703 40.8445946 183.144 40.8445946 183.144 42.5202703 177.814703 42.5202703 177.814703 45.3605405 183.827027 45.3605405 183.827027 47.0362162"></polygon>
                        <g id="Group" transform="translate(-0.000000, 0.000000)" fill-rule="nonzero">
                            <rect id="Rectangle" stroke="#F2F2F2" stroke-width="1.3" fill="#E5E5E5" x="-0.65" y="-0.65" width="62.8820541" height="62.6297297" rx="2.21"></rect>
                            <path d="M-6.92779167e-14,52.7251351 L61.5567568,52.7251351 L61.5567568,59.9975676 C61.5567568,60.7333004 60.9564795,61.3297297 60.216,61.3297297 L1.34075676,61.3297297 C0.603557855,61.3297297 0.00463647093,60.7384047 -6.92779167e-14,60.0059459 L-6.92779167e-14,52.7251351 Z" id="Path" fill="#FF5547"></path>
                            <path d="M31.6131892,58.59 C26.9584865,58.59 22.7001081,55.5318919 19.6222703,49.9686486 C16.7974054,44.8662162 15.2374054,38.1383784 15.2374054,31.0251351 C15.2374054,23.9118919 16.7974054,17.1840541 19.6222703,12.09 C22.7001081,6.52675676 26.9837838,3.46027027 31.6131892,3.46027027 C32.9148858,3.53605536 33.9314277,4.60699672 33.9314277,5.90256757 C33.9314277,7.19813842 32.9148858,8.26907978 31.6131892,8.34486486 C28.8304865,8.34486486 26.1068108,10.5148649 23.9312432,14.4443243 C21.4942703,18.8345946 20.1535135,24.7245946 20.1535135,31 C20.1535135,37.2754054 21.4942703,43.1989189 23.9312432,47.5891892 C26.1068108,51.5186486 28.8304865,53.6802703 31.6131892,53.6802703 C34.3958919,53.6802703 37.1027027,51.5437838 39.2951351,47.6143243 C41.7236757,43.2240541 43.0644324,37.3340541 43.0644324,31.0251351 C43.1407065,29.7317827 44.2185571,28.7217571 45.5224865,28.7217571 C46.8264159,28.7217571 47.9042665,29.7317827 47.9805405,31.0251351 C47.9805405,38.1383784 46.4205405,44.8662162 43.6041081,49.9686486 C40.5178378,55.5318919 36.2594595,58.59 31.6131892,58.59 Z" id="Path" fill="#0D6AE5"></path>
                            <path d="M-2.77111667e-14,42.2689189 C7.69555051,40.4206508 15.5398527,39.2487444 23.4421622,38.7667568 C26.1658378,38.5991892 28.9485405,38.5154054 31.6890811,38.5154054 C38.6938649,38.5187385 45.6880488,39.0565358 52.6099459,40.1240541 L55.0384865,40.5010811 L54.2795676,45.3354054 L51.851027,44.9583784 C45.1805249,43.9270668 38.4398566,43.4088611 31.6890811,43.4083784 C29.0412973,43.4083784 26.3682162,43.4837838 23.7372973,43.642973 C15.7280067,44.132104 7.78158506,45.3577971 -2.77111667e-14,47.3043243" id="Path" fill="#0D6AE5"></path>
                            <path d="M6.4659389e-14,30.4386486 C7.71980726,28.6068374 15.5865318,27.4517749 23.5096216,26.9867568 C26.0899459,26.8443243 28.7208649,26.7605405 31.3180541,26.7605405 C35.0283243,26.7605405 38.7891892,26.9197297 42.5078919,27.2213514 L42.9801081,27.2213514 L44.051027,27.3051351 L44.1269189,27.3051351 C46.4627027,27.522973 48.8828108,27.8078378 51.3197838,28.142973 L52.8038919,28.3524324 L52.8038919,28.3524324 L54.4903784,28.6205405 L54.4903784,28.6205405 L57.096,29.0897297 L59.0776216,29.382973 C59.2696621,29.4280532 59.3990714,29.6066362 59.3811892,29.8018919 L59.0438919,34.4267568 L56.16,33.8905405 C55.3167568,33.7313514 54.4735135,33.5805405 53.5206486,33.412973 L51.8341622,33.1532432 L49.3044324,32.7762162 L47.0108108,32.482973 L45.3243243,32.307027 C35.9719364,31.3016824 26.5376852,31.3016824 17.1852973,32.307027 C11.3910512,32.9772653 5.64937671,34.0381806 6.4659389e-14,35.4824324" id="Path" fill="#0D6AE5"></path>
                            <path d="M6.23501251e-14,24.4062162 C7.78724181,22.4855389 15.7361289,21.2823382 23.7457297,20.8118919 C26.2754595,20.6694595 28.8051892,20.5940541 31.3349189,20.5940541 C32.4985946,20.5940541 35.3909189,20.6527027 36.9340541,20.6862162 C37.1919633,20.6879655 37.4099159,20.4966749 37.44,20.2421622 L37.9206486,16.052973 C37.9253224,16.0049056 37.9099067,15.9570424 37.8780146,15.9206016 C37.8461225,15.8841608 37.8005578,15.8623461 37.752,15.8602703 C35.6185946,15.7597297 33.4598919,15.7094595 31.3349189,15.7094595 C28.7208649,15.7094595 26.0815135,15.7848649 23.4843243,15.9356757 C15.5694855,16.3894681 7.71066279,17.5390059 6.23501251e-14,19.3708108" id="Path" fill="#0D6AE5"></path>
                            <path d="M33.8983784,58.6486486 C22.2229145,59.6677625 11.1563651,53.3088893 6.22220179,42.7458328 C1.28803848,32.1827762 3.54413133,19.6802245 11.8644324,11.4783784 C20.6644126,2.74171604 34.2223462,0.848528028 45.1050811,6.83675676 C49.0132712,9.00997402 52.3412131,12.0810123 54.8108108,15.7932432 C54.8548566,15.8572253 54.8707577,15.936279 54.8548457,16.0121669 C54.8389337,16.0880549 54.792583,16.1542226 54.7264865,16.1954054 L50.9487568,18.6251351 C50.8086399,18.7106949 50.6254319,18.6698302 50.5355676,18.532973 C46.2244676,12.0895472 38.9038503,8.27546623 31.1179223,8.41627533 C23.3319943,8.55708443 16.1559216,12.6333392 12.0836757,19.2283784 C10.8206423,21.2232985 9.90552099,23.4157082 9.37686486,25.7132432 C7.52649232,33.3908962 9.82430227,41.4723401 15.4444422,47.053035 C21.0645822,52.6337299 29.19957,54.9118611 36.9256216,53.0686486 C39.2390208,52.546627 41.44611,51.6371514 43.4523243,50.3791892 C50.2210578,46.2553227 54.3444683,38.9309029 54.3385946,31.0418919 L54.3385946,29.5337838 L58.0741622,29.3243243 L59.3221622,29.5086486 C59.3853633,29.5170943 59.4318517,29.5709655 59.4318517,29.6343243 L59.4318517,31.0335135 C59.4635496,45.4431382 48.3516584,57.460978 33.8983784,58.6486486 Z" id="Path" fill="#0D6AE5"></path>
                        </g>
                    </g>
                </g>
            </g>
        </g>
    </g>
</svg>