<?xml version="1.0" encoding="UTF-8"?>
<svg width="341px" height="102px" viewBox="0 0 341 102" version="1.1" xmlns="http://www.w3.org/2000/svg" xmlns:xlink="http://www.w3.org/1999/xlink">
    <!-- Generator: Sketch 63.1 (92452) - https://sketch.com -->
    <title>logos/TMU</title>
    <desc>Created with Sketch.</desc>
    <defs>
        <polygon id="path-1" points="0.0003 0 340.158 0 340.158 101.279559 0.0003 101.279559"></polygon>
    </defs>
    <g id="Page-1" stroke="none" stroke-width="1" fill="none" fill-rule="evenodd">
        <g id="Home---Tablet-Landscape" transform="translate(-196.000000, -2801.000000)">
            <g id="home/desktop/section-left" transform="translate(48.000000, 2595.000000)">
                <g id="logos/TMU" transform="translate(148.000000, 206.000000)">
                    <g id="Group-3">
                        <mask id="mask-2" fill="white">
                            <use xlink:href="#path-1"></use>
                        </mask>
                        <g id="Clip-2"></g>
                        <path d="M128.2193,89.0469 L128.2193,79.1699 L131.7603,79.1699 L131.7603,77.1599 L122.2553,77.1599 L122.2553,79.1699 L125.8043,79.1699 L125.8043,89.0469 L128.2193,89.0469 Z M138.0753,77.1599 L135.5213,77.1599 L130.8633,89.0469 L133.4253,89.0469 L134.4123,86.3469 L139.1933,86.3469 L140.2373,89.0469 L142.8653,89.0469 L138.0753,77.1599 Z M135.1543,84.3449 L136.7703,79.9339 L138.4183,84.3449 L135.1543,84.3449 Z M144.0723,89.0469 L146.4873,89.0469 L146.4873,77.1599 L144.0723,77.1599 L144.0723,89.0469 Z M151.2033,89.0469 L151.2033,84.5639 L152.7773,84.5639 C153.8713,84.5639 154.7053,84.5069 155.2823,84.3929 C155.7073,84.3009 156.1243,84.1129 156.5353,83.8289 C156.9453,83.5459 157.2843,83.1549 157.5513,82.6569 C157.8173,82.1599 157.9503,81.5459 157.9503,80.8179 C157.9503,79.8709 157.7193,79.0989 157.2573,78.5019 C156.7953,77.9039 156.2203,77.5179 155.5353,77.3379 C155.0893,77.2199 154.1323,77.1599 152.6633,77.1599 L148.7883,77.1599 L148.7883,89.0469 L151.2033,89.0469 Z M152.3693,79.1699 C153.2403,79.1699 153.8193,79.1979 154.1073,79.2509 C154.4993,79.3219 154.8233,79.4979 155.0783,79.7789 C155.3343,80.0599 155.4623,80.4169 155.4623,80.8489 C155.4623,81.1999 155.3703,81.5089 155.1883,81.7739 C155.0063,82.0389 154.7553,82.2329 154.4333,82.3579 C154.1133,82.4819 153.4773,82.5439 152.5243,82.5439 L151.2033,82.5439 L151.2033,79.1699 L152.3693,79.1699 Z M169.0303,89.0469 L169.0303,87.0439 L162.3483,87.0439 L162.3483,83.8089 L168.3533,83.8089 L168.3533,81.8059 L162.3483,81.8059 L162.3483,79.1699 L168.8023,79.1699 L168.8023,77.1599 L159.9333,77.1599 L159.9333,89.0469 L169.0303,89.0469 Z M171.0053,89.0469 L173.4203,89.0469 L173.4203,77.1599 L171.0053,77.1599 L171.0053,89.0469 Z M173.4203,89.0469 L173.4203,77.1599 L173.4203,89.0469 Z M249.8363,83.4839 C249.8363,84.7689 249.9053,85.7399 250.0423,86.3989 C250.1363,86.8429 250.3343,87.2679 250.6323,87.6719 C250.9313,88.0759 251.3383,88.4059 251.8523,88.6589 C252.3673,88.9129 253.1223,89.0389 254.1183,89.0389 C254.9443,89.0389 255.6123,88.9229 256.1243,88.6909 C256.6363,88.4579 257.0453,88.1459 257.3513,87.7539 C257.6563,87.3619 257.8673,86.8819 257.9803,86.3129 C258.0943,85.7429 258.1523,84.7689 258.1523,83.3889 L258.1523,77.3569 L256.0463,77.3569 L256.0463,83.7109 C256.0463,84.6199 256.0153,85.2709 255.9543,85.6609 C255.8913,86.0539 255.7093,86.3839 255.4053,86.6529 C255.1023,86.9229 254.6523,87.0569 254.0543,87.0569 C253.4663,87.0569 253.0023,86.9149 252.6633,86.6299 C252.3243,86.3449 252.1093,85.9679 252.0203,85.4969 C251.9683,85.2049 251.9423,84.5659 251.9423,83.5779 L251.9423,77.3569 L249.8363,77.3569 L249.8363,83.4839 Z M262.3483,88.8439 L262.3483,81.3529 L266.5523,88.8439 L268.6653,88.8439 L268.6653,77.3569 L266.7093,77.3569 L266.7093,85.0269 L262.4413,77.3569 L260.3923,77.3569 L260.3923,88.8439 L262.3483,88.8439 Z M270.8273,88.8439 L272.9333,88.8439 L272.9333,77.3569 L270.8273,77.3569 L270.8273,88.8439 Z M279.8473,88.8439 L283.5823,77.3569 L281.3493,77.3569 L278.7943,85.8579 L276.1563,77.3569 L273.8723,77.3569 L277.5993,88.8439 L279.8473,88.8439 Z M292.5883,88.8439 L292.5883,86.9079 L286.7613,86.9079 L286.7613,83.7809 L291.9973,83.7809 L291.9973,81.8459 L286.7613,81.8459 L286.7613,79.2999 L292.3883,79.2999 L292.3883,77.3569 L284.6563,77.3569 L284.6563,88.8439 L292.5883,88.8439 Z M296.4863,88.8439 L296.4863,84.0469 L296.9133,84.0469 C297.3973,84.0469 297.7493,84.0909 297.9733,84.1769 C298.1953,84.2639 298.4063,84.4219 298.6063,84.6549 C298.8053,84.8879 299.1753,85.4499 299.7163,86.3439 L301.2373,88.8439 L303.7553,88.8439 L302.4833,86.6029 C301.9803,85.7079 301.5803,85.0879 301.2843,84.7369 C300.9873,84.3869 300.6113,84.0669 300.1563,83.7729 C301.0723,83.6269 301.7593,83.2739 302.2193,82.7109 C302.6793,82.1499 302.9093,81.4389 302.9093,80.5759 C302.9093,79.8979 302.7583,79.2939 302.4543,78.7659 C302.1513,78.2379 301.7463,77.8709 301.2413,77.6649 C300.7363,77.4599 299.9263,77.3569 298.8123,77.3569 L294.3813,77.3569 L294.3813,88.8439 L296.4863,88.8439 Z M296.4863,79.2999 L298.1293,79.2999 C298.9823,79.2999 299.4953,79.3129 299.6663,79.3389 C300.0073,79.4009 300.2713,79.5509 300.4593,79.7889 C300.6463,80.0259 300.7393,80.3389 300.7393,80.7259 C300.7393,81.0699 300.6693,81.3579 300.5263,81.5879 C300.3843,81.8179 300.1883,81.9799 299.9363,82.0729 C299.6843,82.1669 299.0543,82.2139 298.0433,82.2139 L296.4863,82.2139 L296.4863,79.2999 Z M305.6263,88.0399 C306.3343,88.7109 307.3453,89.0469 308.6643,89.0469 C309.5703,89.0469 310.3263,88.9079 310.9343,88.6279 C311.5403,88.3489 312.0103,87.9219 312.3423,87.3469 C312.6743,86.7729 312.8403,86.1549 312.8403,85.4969 C312.8403,84.7719 312.7013,84.1609 312.4243,83.6679 C312.1463,83.1739 311.7623,82.7849 311.2713,82.5009 C310.7813,82.2149 310.0233,81.9409 308.9993,81.6739 C307.9743,81.4069 307.3293,81.1509 307.0643,80.9049 C306.8553,80.7129 306.7513,80.4799 306.7513,80.2079 C306.7513,79.9099 306.8623,79.6729 307.0853,79.4949 C307.4313,79.2189 307.9103,79.0799 308.5223,79.0799 C309.1153,79.0799 309.5593,79.2089 309.8563,79.4679 C310.1523,79.7259 310.3453,80.1509 310.4363,80.7399 L312.5413,80.6399 C312.5083,79.5839 312.1603,78.7399 311.4993,78.1079 C310.8383,77.4769 309.8523,77.1599 308.5433,77.1599 C307.7413,77.1599 307.0573,77.2939 306.4903,77.5609 C305.9253,77.8259 305.4903,78.2149 305.1893,78.7239 C304.8883,79.2329 304.7373,79.7799 304.7373,80.3649 C304.7373,81.2739 305.0573,82.0449 305.6983,82.6769 C306.1533,83.1259 306.9453,83.5049 308.0733,83.8129 C308.9513,84.0539 309.5133,84.2209 309.7603,84.3139 C310.1193,84.4549 310.3723,84.6209 310.5173,84.8129 C310.6613,85.0019 310.7343,85.2339 310.7343,85.5059 C310.7343,85.9289 310.5623,86.2979 310.2183,86.6139 C309.8743,86.9299 309.3643,87.0879 308.6853,87.0879 C308.0453,87.0879 307.5373,86.9099 307.1603,86.5549 C306.7823,86.1999 306.5323,85.6439 306.4093,84.8869 L304.3613,85.1059 C304.4983,86.3909 304.9203,87.3689 305.6263,88.0399 L305.6263,88.0399 Z M314.5463,88.8439 L316.6523,88.8439 L316.6523,77.3569 L314.5463,77.3569 L314.5463,88.8439 Z M323.1123,88.8439 L323.1123,79.2999 L326.1983,79.2999 L326.1983,77.3569 L317.9113,77.3569 L317.9113,79.2999 L321.0063,79.2999 L321.0063,88.8439 L323.1123,88.8439 Z M332.3953,88.8439 L332.3953,84.0249 L336.2293,77.3569 L333.8033,77.3569 L331.3993,81.9009 L328.9453,77.3569 L326.4763,77.3569 L330.2973,84.0079 L330.2973,88.8439 L332.3953,88.8439 Z M181.7143,88.8509 L181.7143,79.8089 L183.7773,88.8509 L185.8043,88.8509 L187.8743,79.8089 L187.8743,88.8509 L189.8303,88.8509 L189.8303,77.3639 L186.6713,77.3639 L184.8013,85.1989 L182.9083,77.3639 L179.7583,77.3639 L179.7583,88.8509 L181.7143,88.8509 Z M199.8533,88.8509 L199.8533,86.9149 L194.0273,86.9149 L194.0273,83.7889 L199.2623,83.7889 L199.2623,81.8549 L194.0273,81.8549 L194.0273,79.3079 L199.6543,79.3079 L199.6543,77.3639 L191.9213,77.3639 L191.9213,88.8509 L199.8533,88.8509 Z M201.6313,88.8509 L205.5933,88.8509 C206.3713,88.8509 206.9923,88.7699 207.4573,88.6089 C208.0793,88.3889 208.5723,88.0829 208.9373,87.6919 C209.4213,87.1749 209.7933,86.4969 210.0543,85.6619 C210.2673,84.9779 210.3743,84.1629 210.3743,83.2169 C210.3743,82.1409 210.2613,81.2359 210.0323,80.5019 C209.8043,79.7679 209.4723,79.1479 209.0373,78.6409 C208.6003,78.1349 208.0763,77.7809 207.4643,77.5829 C207.0103,77.4369 206.3483,77.3639 205.4803,77.3639 L201.6313,77.3639 L201.6313,88.8509 Z M204.6833,79.3079 C205.5413,79.3079 206.1173,79.3439 206.4123,79.4169 C206.8053,79.5099 207.1303,79.6919 207.3863,79.9579 C207.6423,80.2239 207.8423,80.5949 207.9833,81.0699 C208.1263,81.5459 208.1983,82.2279 208.1983,83.1149 C208.1983,84.0039 208.1263,84.7039 207.9833,85.2189 C207.8423,85.7339 207.6573,86.1039 207.4323,86.3269 C207.2073,86.5529 206.9243,86.7119 206.5823,86.8059 C206.3223,86.8789 205.8963,86.9149 205.3093,86.9149 L203.7373,86.9149 L203.7373,79.3079 L204.6833,79.3079 Z M212.0953,88.8499 L214.2013,88.8499 L214.2013,77.3639 L212.0953,77.3639 L212.0953,88.8499 Z M222.0113,86.4779 C221.6083,86.8679 221.1273,87.0639 220.5683,87.0639 C219.8083,87.0639 219.1923,86.7569 218.7183,86.1399 C218.2433,85.5239 218.0063,84.4889 218.0063,83.0369 C218.0063,81.6679 218.2473,80.6789 218.7293,80.0679 C219.2103,79.4559 219.8373,79.1509 220.6113,79.1509 C221.1693,79.1509 221.6453,79.3229 222.0363,79.6669 C222.4273,80.0119 222.6843,80.4829 222.8083,81.0779 L224.8923,80.5289 C224.6563,79.6099 224.3003,78.9039 223.8253,78.4139 C223.0293,77.5829 221.9923,77.1679 220.7173,77.1679 C219.2563,77.1679 218.0773,77.6959 217.1823,78.7549 C216.2853,79.8129 215.8373,81.2979 215.8373,83.2089 C215.8373,85.0169 216.2823,86.4429 217.1743,87.4839 C218.0663,88.5259 219.2043,89.0469 220.5893,89.0469 C221.7083,89.0469 222.6313,88.7419 223.3603,88.1349 C224.0883,87.5259 224.6083,86.5949 224.9213,85.3409 L222.8793,84.6279 C222.7043,85.4689 222.4153,86.0849 222.0113,86.4779 L222.0113,86.4779 Z M231.9563,77.3639 L229.7293,77.3639 L225.6683,88.8509 L227.9023,88.8509 L228.7623,86.2419 L232.9313,86.2419 L233.8413,88.8509 L236.1323,88.8509 L231.9563,77.3639 Z M229.4093,84.3069 L230.8183,80.0449 L232.2553,84.3069 L229.4093,84.3069 Z M244.6463,88.8509 L244.6463,86.9149 L239.4113,86.9149 L239.4113,77.4589 L237.3053,77.4589 L237.3053,88.8509 L244.6463,88.8509 Z M339.5593,36.8269 C339.1343,36.4869 339.1343,35.7229 338.4543,35.7229 C338.4543,35.8929 338.3703,36.2329 338.2843,36.4019 C338.3703,35.8929 338.1993,35.6379 337.7743,35.2979 C337.3503,35.4669 336.7553,34.7029 336.5003,35.3829 L336.3293,35.0419 C336.0753,35.2979 335.8203,34.9579 335.5643,35.2119 C335.0553,35.1269 334.7143,35.6379 334.2053,35.4669 C333.6103,35.9779 333.3553,35.5529 332.6753,35.9779 C332.3353,35.6379 332.1653,36.1479 331.8253,36.1479 C331.2303,35.8079 330.9753,36.4869 330.3803,36.2329 C330.2103,36.4019 329.7003,36.4869 329.7853,36.9119 L329.7003,36.6569 C329.2763,36.5719 328.7653,36.7419 328.5103,36.8269 C328.1703,37.0819 327.4903,36.8269 327.4903,37.4219 L327.3213,37.2519 C327.2353,37.3369 327.1503,37.3369 326.9803,37.3369 C326.7253,37.5079 326.4703,37.5929 326.2163,37.8479 C326.0463,37.5079 325.7913,37.9329 325.5353,37.7629 C325.0263,37.6779 325.1113,38.1879 324.8563,38.5269 C324.6853,38.3579 324.7703,38.1879 324.7703,38.0169 C324.4303,38.0169 323.8363,38.5269 323.5813,38.0169 C324.1763,37.5079 324.7703,36.9969 325.4513,36.5719 C326.3013,35.8929 327.2353,35.6379 328.1703,35.1269 C328.7653,34.9579 329.1903,34.3629 329.7853,34.1079 C331.1453,33.5129 332.0803,32.5769 333.2703,31.8129 C334.2053,31.6429 334.5453,30.7929 335.3953,30.4529 C335.3953,30.0279 335.8203,29.9429 336.0753,29.6879 C336.4143,29.0929 337.0093,28.4979 336.5003,27.8179 L336.3293,27.8179 C336.1593,27.7339 336.3293,27.5639 336.3293,27.3929 C336.0753,26.7139 335.4803,26.7139 334.9703,26.4579 C334.5453,26.1179 333.6953,26.4579 333.1843,26.1179 C332.8453,26.1179 332.5903,26.5429 332.4203,26.3729 C331.6553,26.2879 331.0603,26.9679 330.2953,27.1389 C329.6153,27.1389 329.1903,27.5639 328.6803,27.7339 C328.3413,27.9879 327.7453,27.7339 327.4903,28.2429 C327.3213,28.1579 327.0653,28.0729 326.9803,27.9029 C326.7253,27.4789 326.3013,27.1389 325.9603,26.7139 C325.5353,26.1179 326.4703,25.8629 326.4703,25.2689 C327.1503,25.0139 327.0653,24.2489 327.6603,23.9929 C327.7453,23.6539 328.1703,23.5679 328.1703,23.1439 C328.7653,22.4639 329.3603,21.6989 329.6153,20.9349 C329.9553,20.1689 329.7853,19.4889 329.3603,18.8099 L329.1903,19.0649 C329.0203,18.8949 329.1053,18.7239 329.0203,18.6389 C328.9353,18.6389 328.7653,18.5539 328.7653,18.7239 C328.6803,18.2999 328.0003,18.6389 327.9153,18.7239 L327.9153,18.6389 C327.6603,18.5539 327.4063,18.6389 327.1503,18.7239 C326.4703,18.6389 325.7913,18.7239 325.1113,19.0649 C324.9413,19.4889 325.1963,19.8289 325.2813,20.1689 C325.1113,20.9349 324.1763,21.0189 324.0913,21.6989 C323.4963,22.2939 322.8163,22.8039 322.4763,23.5679 C322.0513,23.3989 322.3053,24.0779 321.9663,24.2489 C321.3713,24.3339 321.4563,24.9289 321.0313,25.2689 C320.1813,26.0329 320.0963,27.0539 319.5013,27.9029 L319.2463,27.9879 C318.8223,27.3089 319.2463,26.4579 319.3313,25.7779 C319.3313,24.6739 319.7563,23.5679 319.8413,22.4639 C319.6713,22.0389 319.6713,21.6989 319.5863,21.2739 C319.3313,20.7639 318.8223,20.6789 318.4813,20.4239 C318.1413,20.5099 317.8023,20.3389 317.5463,20.5939 C316.7813,20.0839 315.5923,20.9349 314.8273,20.2539 C314.5723,20.2539 314.6563,20.4239 314.6563,20.5939 C314.9963,20.8499 315.2523,21.3589 315.7613,21.3589 C316.3563,22.0389 316.7813,22.8889 316.7813,23.8239 C316.4423,24.5039 316.8663,25.2689 316.8663,25.9479 C316.9513,26.2029 317.2063,26.4579 317.0363,26.7139 C317.2063,27.7339 317.2063,28.6679 317.1213,29.6879 C317.5463,29.9429 317.1213,30.3679 317.2063,30.7079 C317.4613,31.2179 317.1213,31.8129 317.2063,32.4079 C317.5463,33.0029 317.1213,33.4279 317.2913,33.9379 C316.8663,34.5329 317.3773,35.2979 316.8663,35.8929 C317.0363,36.1479 316.6113,36.4019 316.8663,36.6569 C316.6963,37.1669 317.4613,37.3369 317.2063,37.8479 C316.7813,38.1029 316.4423,38.5269 315.8463,38.6969 C315.5923,39.5469 314.4873,39.3769 314.0623,40.1419 C313.1273,40.6519 312.5323,41.4159 311.5973,41.9269 C311.6823,42.1819 311.3423,42.0119 311.2573,42.1819 C310.1523,42.9459 309.3023,43.8819 308.1123,44.5619 C307.3473,45.3259 306.8373,43.9669 306.0733,44.4769 C305.0533,44.4769 304.2873,45.3259 303.9483,46.1759 C303.7783,46.7719 303.7783,47.3659 304.1183,47.9609 C304.4583,48.4719 304.9683,48.3869 305.4773,48.3869 C306.7533,48.8109 307.6023,47.4509 308.7073,47.2809 C308.8773,47.1959 309.0473,46.9419 309.3023,46.9419 C309.8123,46.4319 310.4923,46.5159 311.0023,46.0919 C311.6823,45.4959 312.4473,45.0709 313.2973,44.6469 C313.7213,44.3069 314.3173,44.4769 314.7423,43.9669 C315.6773,43.5409 316.5273,43.0309 317.5463,42.6919 C317.9713,42.0969 318.6513,41.9269 319.2463,41.7569 C319.7563,41.0769 320.7763,41.4159 321.3713,40.7369 C321.8813,41.0769 322.1353,40.3119 322.5613,40.3119 C323.1563,39.8019 324.0063,39.8869 324.5163,39.2069 C325.1113,39.2919 325.5353,38.7819 326.2163,38.7819 C326.4703,38.8669 326.8103,38.5269 327.0653,38.6119 C327.5753,38.3579 328.2553,38.3579 328.6803,38.1029 C329.5313,37.8479 330.2103,37.6779 331.0603,37.5079 C331.4853,37.0819 332.4203,37.3369 332.6753,36.6569 C332.8453,36.4019 333.0143,36.7419 333.1843,36.9119 C333.4403,36.9119 333.5253,36.6569 333.7803,36.6569 C334.0343,36.7419 333.9503,36.9119 334.0343,37.0819 C333.9503,37.4219 333.6103,37.5929 333.4403,37.7629 C333.2703,38.0169 333.3553,38.4429 333.1843,38.7819 C333.0143,38.7819 333.0143,38.6119 333.0143,38.5269 L332.8453,38.7819 C332.5053,38.6969 332.1653,39.0369 331.9103,39.2919 C331.4853,39.3769 331.1453,39.5469 330.7203,39.8869 C330.2103,39.8869 330.1253,40.3969 329.7003,40.5679 C329.7003,41.1619 329.0203,40.8219 328.9353,41.2469 C328.5103,41.3319 328.3413,41.7569 328.0853,41.8419 C327.8303,42.2669 327.3213,42.1819 326.9803,42.5219 C326.7253,43.0309 325.7913,43.2009 325.7913,43.9669 L325.6203,43.6259 C325.4513,43.7969 325.1963,43.9669 325.1963,44.2219 C325.1113,43.7109 324.7703,44.3919 324.6013,43.9669 C324.2603,44.5619 323.5813,44.0519 323.0713,44.2219 C322.3053,44.5619 321.6263,45.0709 321.0313,45.7509 C321.2013,46.2619 320.9463,46.9419 321.4563,47.2809 C321.7963,47.1109 322.2213,47.7069 322.5613,47.1959 C323.7513,46.9419 324.6013,45.7509 325.8763,46.0919 C326.1313,46.1759 326.0463,46.4319 326.0463,46.6869 C325.7053,47.3659 325.1963,47.8759 325.0263,48.6409 L324.8563,48.3869 L324.5163,48.7259 C324.1763,48.6409 324.1763,49.1509 324.0063,49.4059 L323.8363,49.2359 L323.6663,49.4059 C323.4103,49.4059 323.4963,49.8309 323.2413,49.6609 C322.9863,49.7459 322.9013,50.0009 322.9013,50.2559 L322.8163,50.1709 C322.4763,50.1709 322.3053,50.4259 322.2213,50.7659 C321.3713,51.3599 321.4563,52.2959 321.4563,53.3159 C321.5413,53.9099 322.3053,53.9959 322.7313,54.2499 C323.3263,54.1659 323.7513,54.6759 324.4303,54.5059 C324.6853,55.0159 325.3653,55.0159 325.5353,55.6099 C325.1963,56.2059 324.4303,55.9499 323.9213,56.0349 C323.6663,56.2059 323.1563,56.0349 322.8163,56.2059 C322.1353,55.8659 321.4563,56.2059 320.7763,56.2059 C320.6063,56.5449 320.1813,56.1209 320.0103,56.5449 C319.4163,56.2909 318.9913,57.0559 318.3963,56.8849 C317.8023,57.3099 316.9513,57.0559 316.4423,57.7349 C315.9323,57.6509 315.8463,58.2449 315.4223,58.3309 C314.4873,58.8409 313.3823,59.7749 313.3823,60.9649 C313.7213,61.3059 313.4673,61.8159 313.8063,62.1549 C314.2323,63.0899 315.4223,62.8339 316.1023,63.5149 C316.6113,64.0249 317.3773,64.4489 317.8863,64.8749 C318.4813,64.7049 318.9913,65.1299 319.4163,65.2989 C320.0963,65.1299 320.7763,65.6399 321.4563,65.6399 C321.9663,65.5559 322.6463,65.8949 322.9863,65.3849 C323.3263,65.5559 323.4103,65.2989 323.6663,65.2149 C324.1763,65.3849 324.6853,64.7899 325.1963,64.5339 C325.7913,64.9589 325.4513,64.0249 325.9603,63.9399 C326.4703,63.8559 326.4703,63.4309 326.8953,63.0049 C327.6603,63.0899 327.5753,62.1549 328.1703,61.8159 C328.0853,61.3059 328.6803,61.0499 328.5953,60.5399 C329.1903,59.9449 329.1903,59.1809 329.4453,58.5849 C329.4453,58.2449 329.2763,57.9899 329.4453,57.7349 C329.7003,57.5659 330.0403,57.6509 330.2953,57.6509 C330.8903,57.4809 331.5703,57.5659 332.1653,57.4809 C332.7603,57.3099 333.2703,57.9059 333.9503,57.6509 C334.1203,57.9899 334.4603,57.8199 334.7143,57.9059 C335.0553,57.3099 335.5643,58.0749 335.9893,57.5659 C336.1593,57.3959 336.4143,57.2249 336.2453,56.9709 C335.7353,56.3749 335.5643,55.5259 334.8003,55.1009 C334.5453,55.0159 334.2893,54.7609 334.2053,55.0159 C334.1203,54.7609 333.6953,54.7609 333.5253,54.5909 C333.3553,54.4209 333.1003,54.6759 332.9303,54.4209 C332.7603,54.3349 332.5053,54.4209 332.4203,54.5909 C332.0803,54.0809 331.7403,54.5909 331.3153,54.5059 C331.2303,54.2499 330.8903,54.4209 330.6353,54.4209 C330.2953,54.2499 330.0403,54.8459 329.6153,54.5909 C329.3603,54.6759 328.9353,54.5909 329.0203,54.9319 C328.9353,54.9319 329.0203,54.7609 329.0203,54.7609 C328.3413,54.5059 328.2553,53.6559 327.6603,53.3159 C327.3213,53.1459 326.8953,53.0609 326.7253,52.7209 C326.4703,52.6359 326.5553,52.8909 326.3853,52.8909 C326.3013,52.4659 325.7913,52.2959 325.4513,52.1259 C325.5353,51.7009 325.7913,51.3599 326.1313,51.1069 C326.3853,50.5109 327.0653,50.5109 327.4903,50.1709 C327.6603,49.6609 328.2553,49.6609 328.5953,49.2359 C329.1053,48.8969 329.3603,48.2159 329.7853,47.7909 C330.1253,46.4319 329.0203,45.6659 328.1703,44.8169 C328.2553,44.3919 328.7653,44.2219 329.1053,43.9669 C329.4453,43.8819 329.7003,43.8819 329.8703,43.6259 C330.4653,43.7109 330.7203,43.3719 331.2303,43.2009 C331.7403,43.0309 332.2503,42.8609 332.6753,42.6919 C332.9303,42.7759 333.1003,42.1819 333.3553,42.3519 C334.0343,42.0119 334.7143,41.7569 335.3093,41.2469 C335.7353,41.4159 335.9053,40.9069 336.2453,40.9069 C336.5843,40.9069 336.7553,40.4829 337.0093,40.6519 C338.0303,39.9729 339.3043,39.6319 340.1553,38.8669 C340.1553,38.1029 340.2393,37.3369 339.5593,36.8269 L339.5593,36.8269 Z M327.5753,30.7929 C327.5753,30.3679 327.8303,30.1129 327.7453,29.7729 C328.2553,29.2629 329.0203,29.2629 329.6153,29.0929 C329.8703,29.0929 329.7003,29.3479 329.9553,29.5179 C329.7003,30.3679 328.9353,31.0479 328.2553,31.4729 C328.0853,31.6429 328.0003,31.8979 327.8303,32.0679 C327.5753,32.0679 327.4063,31.9839 327.3213,31.7279 C327.5753,31.3879 327.2353,31.1329 327.5753,30.7929 L327.5753,30.7929 Z M323.0713,30.3679 C322.3053,30.4529 321.7113,30.7929 321.2863,31.3029 L321.2013,31.5589 C320.7763,31.0479 320.5213,31.9839 320.0963,32.0679 C319.9263,32.1529 319.8413,32.5769 319.5863,32.3229 C319.5863,32.0679 319.4163,31.8129 319.5863,31.4729 C320.0103,31.2179 319.6713,30.7929 319.8413,30.4529 C320.1813,29.6029 320.5213,28.9229 320.8613,28.0729 C321.5413,27.8179 321.3713,26.7139 322.1353,26.5429 C322.2213,27.0539 322.4763,27.4789 322.3053,27.9879 C322.3913,28.5839 323.0713,29.0079 323.6663,29.0929 C324.0063,28.7529 324.3453,29.1779 324.4303,29.4339 C324.4303,29.7729 324.1763,30.0279 323.8363,30.0279 C323.4963,29.7729 323.4103,30.3679 323.0713,30.3679 L323.0713,30.3679 Z M326.1313,57.5659 L326.1313,58.4159 C325.9603,59.5209 325.1963,60.3699 324.4303,61.1349 C324.0063,61.2199 323.6663,61.6459 323.2413,61.8999 C323.1563,62.5799 322.4763,61.8999 322.1353,62.3249 C321.8813,62.3249 321.5413,62.2399 321.3713,62.4949 C320.8613,62.4089 320.4363,62.6649 319.9263,62.5799 C319.5013,62.4089 319.1613,62.3249 318.7363,62.2399 C318.0563,61.8999 317.5463,61.4749 316.8663,61.0499 C316.9513,60.0309 318.0563,59.6909 318.8223,59.4349 C319.0763,58.9249 319.6713,59.1809 320.0103,58.7559 C320.6063,59.0099 321.1163,58.3309 321.7113,58.4159 C322.4763,58.3309 322.9863,57.7349 323.7513,57.8199 C324.1763,57.3959 324.7703,57.8199 325.1963,57.3959 C325.5353,57.3959 325.8763,57.3099 326.1313,57.5659 L326.1313,57.5659 Z M310.9173,31.8129 C311.0873,32.4079 311.5123,32.8329 311.4273,33.5979 C311.6823,33.8529 311.5973,34.1929 311.5123,34.5329 C311.6823,35.1269 311.9373,35.7229 312.3623,36.0629 C312.9573,35.8079 313.2973,36.6569 313.9773,36.2329 C314.1473,35.8079 314.3173,35.3829 314.3173,34.8729 C314.3173,34.7029 314.6563,34.5329 314.4023,34.4479 C314.8273,34.1079 314.1473,33.7679 314.4873,33.4279 C314.3173,32.4079 314.5723,31.0479 313.7213,30.2829 L313.3823,30.5379 C313.3823,29.7729 312.4473,30.1979 312.1923,29.7729 C311.9373,29.6879 311.6823,29.7729 311.4273,29.8589 C311.2573,29.5179 310.8323,29.5179 310.4923,29.5179 C309.9823,29.6879 310.0673,30.1979 309.8973,30.5379 C310.0673,31.1329 310.4073,31.5589 310.9173,31.8129 L310.9173,31.8129 Z M293.2523,38.8709 L293.4313,38.9899 L293.6113,39.0699 L293.7813,39.1199 L293.9603,39.1309 L294.1393,39.1099 L294.3093,39.0699 L294.4783,39.0209 L294.6483,38.9419 L294.8173,38.8609 L294.9873,38.7609 L295.1463,38.6719 L295.3063,38.5819 L295.4663,38.4919 L295.6153,38.4119 L295.7643,38.3529 L295.9143,38.3029 L296.2133,38.1529 L296.4033,37.9839 L296.5123,37.8039 L296.5523,37.6139 L296.5523,37.4149 L296.5223,37.2059 L296.4923,36.9959 L296.4823,36.7769 L296.3233,36.5779 L296.1443,36.3879 L295.9443,36.2189 L295.7243,36.0689 L295.4863,35.9299 L295.2363,35.8199 L294.9773,35.7209 L294.6983,35.6409 L294.4183,35.5799 L294.1393,35.5299 L293.8503,35.5109 L293.5713,35.5009 L293.2923,35.5109 L293.0133,35.5299 L292.7533,35.5799 L292.4943,35.6409 L292.3153,35.5799 L292.1353,35.5409 L291.9563,35.5209 L291.7763,35.5109 L291.6073,35.5209 L291.4273,35.5299 L291.2583,35.5609 L291.0883,35.5909 L290.9193,35.6309 L290.7593,35.6699 L290.5903,35.7099 L290.4303,35.7499 L290.2813,35.7799 L290.1213,35.8099 L289.9723,35.8199 L289.8323,35.8299 L289.6823,35.6699 L289.5333,35.5609 L289.3643,35.4709 L289.1943,35.4209 L289.0243,35.3909 L288.8553,35.3809 L288.6763,35.3909 L288.4963,35.4009 L288.3163,35.4209 L288.1473,35.4419 L287.9683,35.4509 L287.7983,35.4609 L287.6283,35.4419 L287.4683,35.4109 L287.3193,35.3519 L287.1703,35.2619 L286.9503,35.1119 L286.7313,34.9919 L286.5113,34.9229 L286.2923,34.8729 L286.0633,34.8529 L285.8433,34.8429 L285.6243,34.8529 L285.4053,34.8629 L285.1963,34.8629 L284.9963,34.8629 L284.7973,34.8429 L284.6073,34.8129 L284.4183,34.7429 L284.2483,34.6439 L284.0893,34.5039 L283.9393,34.3149 L283.9393,34.2049 L283.9293,34.0949 L283.9193,33.9759 L283.9193,33.8559 L283.9093,33.7359 L283.8993,33.6159 L283.8893,33.4959 L283.8893,33.3769 L283.8893,33.2679 L283.8993,33.1579 L283.9193,33.0479 L283.9393,32.9479 L283.9693,32.8489 L284.0093,32.7589 L284.0693,32.6799 L284.1293,32.5999 L283.9693,32.4199 L283.8593,32.2399 L283.7803,32.0509 L283.7303,31.8609 L283.7003,31.6619 L283.7003,31.4729 L283.7203,31.2739 L283.7503,31.0739 L283.7903,30.8849 L283.8303,30.6859 L283.8793,30.4949 L283.9193,30.2959 L283.9493,30.1069 L283.9593,29.9169 L283.9593,29.7369 L283.9393,29.5589 L283.8203,29.2389 L283.6803,28.9199 L283.5203,28.6109 L283.3413,28.3219 L283.1413,28.0429 L282.9323,27.7939 L282.6933,27.5649 L282.4443,27.3749 L282.1843,27.2149 L281.8953,27.0959 L281.6063,27.0159 L281.2973,26.9959 L280.9783,27.0159 L280.6493,27.1059 L280.3003,27.2549 L279.9513,27.4649 L279.8113,27.5049 L279.6723,27.5549 L279.5323,27.6039 L279.3923,27.6739 L279.2533,27.7429 L279.1233,27.8139 L278.9843,27.9029 L278.8643,27.9829 L278.7443,28.0829 L278.6253,28.1719 L278.5153,28.2729 L278.4053,28.3719 L278.3063,28.4819 L278.2163,28.5809 L278.1363,28.6909 L278.0563,28.8009 L278.1563,28.9999 L278.2963,29.1899 L278.4663,29.3489 L278.6753,29.4879 L278.8943,29.5979 L279.1233,29.6779 L279.3533,29.7279 L279.5723,29.7479 L279.6123,29.9169 L279.6623,30.0869 L279.7123,30.2459 L279.7723,30.3969 L279.8313,30.5449 L279.8913,30.6949 L279.9613,30.8449 L280.0213,30.9839 L280.0803,31.1239 L280.1403,31.2739 L280.1903,31.4229 L280.2403,31.5719 L280.2803,31.7219 L280.3103,31.8809 L280.3203,32.0509 L280.3303,32.2209 L280.1403,32.4399 L279.9813,32.6799 L279.8513,32.9289 L279.7613,33.1969 L279.6923,33.4769 L279.6423,33.7659 L279.6123,34.0559 L279.5923,34.3549 L279.5923,34.6629 L279.5923,34.9729 L279.6023,35.2809 L279.6123,35.5799 L279.6123,35.8899 L279.6123,36.1889 L279.6023,36.4879 L279.5723,36.7769 L279.4823,37.1959 L279.3533,37.5849 L279.1933,37.9639 L278.9943,38.3219 L278.7643,38.6509 L278.5153,38.9609 L278.2363,39.2599 L277.9373,39.5389 L277.6083,39.7979 L277.2683,40.0369 L276.9203,40.2679 L276.5513,40.4769 L276.1823,40.6659 L275.7933,40.8459 L275.4043,41.0049 L275.0153,41.1539 L274.8063,41.1239 L274.5873,41.1049 L274.3773,41.0949 L274.1683,41.0949 L273.9593,41.1049 L273.7493,41.1239 L273.5403,41.1449 L273.3303,41.1739 L273.1213,41.2139 L272.9213,41.2539 L272.7123,41.3039 L272.5033,41.3539 L272.3033,41.4139 L272.0943,41.4739 L271.8943,41.5429 L271.6853,41.6039 L271.4763,41.6729 L271.2763,41.7429 L271.0673,41.8129 L270.8673,41.8819 L270.6583,41.9419 L270.4483,42.0119 L270.2493,42.0809 L270.0403,42.1419 L269.8303,42.2009 L269.6213,42.2509 L269.4123,42.3119 L269.2023,42.3509 L268.9933,42.3909 L268.7833,42.4309 L268.5643,42.4609 L268.3553,42.4809 L268.4943,42.5799 L268.6443,42.6699 L268.8033,42.7499 L268.9533,42.8189 L269.1133,42.8789 L269.2823,42.9289 L269.4423,42.9689 L269.6113,43.0089 L269.7813,43.0489 L269.9603,43.0779 L270.1303,43.0989 L270.3093,43.1289 L270.4893,43.1579 L270.6583,43.1889 L270.8383,43.2179 L271.0173,43.2479 L271.1973,43.3779 L271.3763,43.4969 L271.5663,43.5979 L271.7553,43.6869 L271.9543,43.7569 L272.1443,43.8169 L272.3433,43.8659 L272.5433,43.9059 L272.7323,43.9459 L272.9313,43.9659 L273.1213,43.9849 L273.3203,43.9959 L273.5103,43.9959 L273.6993,44.0059 L273.8793,44.0059 L274.0583,44.0059 L274.2083,44.0359 L274.3573,44.0359 L274.5163,44.0259 L274.6863,44.0159 L274.8563,43.9849 L275.0263,43.9559 L275.1953,43.9369 L275.3643,43.9059 L275.5343,43.8969 L275.7033,43.8969 L275.8633,43.9159 L276.0123,43.9559 L276.1523,44.0159 L276.2923,44.1059 L276.4213,44.2259 L276.5313,44.3849 L276.5313,44.4949 L276.5413,44.6139 L276.5413,44.7439 L276.5513,44.8729 L276.5613,45.0029 L276.5613,45.1429 L276.5613,45.2919 L276.5513,45.4319 L276.5413,45.5709 L276.5213,45.7209 L276.4913,45.8599 L276.4513,45.9899 L276.4013,46.1199 L276.3323,46.2499 L276.2513,46.3689 L276.1523,46.4789 L276.0823,46.6179 L276.0223,46.7679 L275.9533,46.9069 L275.8933,47.0469 L275.8433,47.1869 L275.7833,47.3359 L275.7333,47.4759 L275.6833,47.6149 L275.6243,47.7549 L275.5743,47.9039 L275.5143,48.0439 L275.4643,48.1839 L275.4043,48.3329 L275.3343,48.4729 L275.2753,48.6219 L275.2053,48.7619 L275.0853,49.1109 L274.9663,49.4599 L274.8263,49.7989 L274.6763,50.1379 L274.5073,50.4669 L274.3373,50.7859 L274.1583,51.1059 L273.9683,51.4139 L273.7693,51.7139 L273.5603,51.9919 L273.3413,52.2719 L273.1213,52.5409 L272.8913,52.7999 L272.6523,53.0499 L272.4133,53.2779 L272.1643,53.4979 L272.1043,53.8369 L272.0043,54.1469 L271.8553,54.4259 L271.6853,54.6849 L271.4863,54.9239 L271.2763,55.1439 L271.0473,55.3619 L270.8083,55.5719 L270.5683,55.7719 L270.3293,55.9809 L270.1003,56.1909 L269.8903,56.4199 L269.7013,56.6489 L269.5313,56.9079 L269.4023,57.1879 L269.3123,57.4959 L269.1533,57.6659 L268.9733,57.7759 L268.7943,57.8459 L268.6243,57.8959 L268.4743,57.9549 L268.3753,58.0549 L268.3253,58.2039 L268.3553,58.4429 L267.9463,58.7029 L267.5473,58.9719 L267.1783,59.2509 L266.8203,59.5509 L266.4803,59.8399 L266.1413,60.1389 L265.8123,60.4379 L265.4833,60.7169 L265.1543,61.0059 L264.8153,61.2659 L264.4663,61.5249 L264.1073,61.7539 L263.7283,61.9639 L263.3303,62.1519 L262.9113,62.3129 L262.4623,62.4319 L262.3333,62.4719 L262.2333,62.5419 L262.1433,62.6109 L262.0833,62.7009 L262.0433,62.8009 L262.0133,62.9099 L261.9933,63.0209 L261.9933,63.1499 L261.9933,63.2789 L262.0043,63.4089 L262.0243,63.5389 L262.0333,63.6689 L262.0533,63.7979 L262.0733,63.9179 L262.0833,64.0369 L262.0833,64.1479 L262.1233,64.2859 L262.1933,64.4159 L262.2623,64.5359 L262.3533,64.6459 L262.4523,64.7449 L262.5723,64.8249 L262.6913,64.9039 L262.8213,64.9749 L262.9613,65.0339 L263.1003,65.0739 L263.2503,65.1139 L263.3993,65.1339 L263.5493,65.1439 L263.6983,65.1339 L263.8483,65.1239 L263.9883,65.0939 L264.2573,65.2639 L264.5063,65.3629 L264.7363,65.3939 L264.9453,65.3629 L265.1343,65.2939 L265.3143,65.1739 L265.4833,65.0249 L265.6433,64.8549 L265.8023,64.6759 L265.9623,64.4849 L266.1223,64.3069 L266.2813,64.1369 L266.4503,63.9869 L266.6303,63.8679 L266.8203,63.7979 L267.0293,63.7679 L267.4683,63.7079 L267.8663,63.5889 L268.2253,63.4289 L268.5543,63.2299 L268.8533,62.9899 L269.1233,62.7309 L269.3913,62.4519 L269.6413,62.1519 L269.8903,61.8439 L270.1403,61.5339 L270.3993,61.2259 L270.6583,60.9369 L270.9483,60.6479 L271.2563,60.3879 L271.5953,60.1579 L271.9643,59.9589 L272.1343,59.6099 L272.3333,59.2719 L272.5623,58.9429 L272.8323,58.6229 L273.1013,58.3049 L273.4003,57.9849 L273.6893,57.6659 L273.9893,57.3469 L274.2783,57.0269 L274.5573,56.6989 L274.8163,56.3589 L275.0453,56.0109 L275.2453,55.6419 L275.4043,55.2629 L275.5243,54.8739 L275.5843,54.4549 L275.7833,54.3649 L275.9723,54.2459 L276.1323,54.0969 L276.2723,53.9269 L276.3813,53.7369 L276.4613,53.5379 L276.5113,53.3279 L276.5313,53.1189 L276.6513,52.9009 L276.7703,52.6909 L276.8903,52.4709 L277.0103,52.2519 L277.1193,52.0429 L277.2293,51.8229 L277.3393,51.6039 L277.4383,51.3849 L277.5483,51.1649 L277.6483,50.9449 L277.7473,50.7269 L277.8473,50.5069 L277.9473,50.2869 L278.0473,50.0679 L278.1463,49.8489 L278.2463,49.6289 L278.3453,49.4099 L278.4453,49.1909 L278.5353,48.9819 L278.6353,48.7619 L278.7343,48.5529 L278.8443,48.3329 L278.9443,48.1239 L279.0443,47.9139 L279.1533,47.7049 L279.2533,47.4959 L279.3633,47.2959 L279.4823,47.0869 L279.5923,46.8879 L279.7123,46.6889 L279.8313,46.4879 L279.9513,46.2889 L279.9313,46.0799 L279.9313,45.8709 L279.9513,45.6609 L279.9903,45.4619 L280.0413,45.2629 L280.1113,45.0629 L280.1803,44.8629 L280.2603,44.6739 L280.3403,44.4749 L280.4203,44.2759 L280.4993,44.0759 L280.5593,43.8869 L280.6193,43.6769 L280.6693,43.4779 L280.6993,43.2689 L280.7093,43.0589 L280.7893,42.9589 L280.8783,42.8789 L280.9783,42.7989 L281.0873,42.7499 L281.2073,42.6999 L281.3273,42.6509 L281.4473,42.6099 L281.5663,42.5799 L281.6963,42.5399 L281.8153,42.4999 L281.9353,42.4609 L282.0543,42.4099 L282.1553,42.3509 L282.2543,42.2809 L282.3443,42.2009 L282.4243,42.1019 L282.7733,42.0619 L283.1213,42.0019 L283.4703,41.9219 L283.8203,41.8429 L284.1593,41.7529 L284.4973,41.6519 L284.8373,41.5429 L285.1763,41.4339 L285.5143,41.3339 L285.8533,41.2239 L286.1933,41.1239 L286.5313,41.0349 L286.8703,40.9549 L287.2193,40.8749 L287.5693,40.8159 L287.9273,40.7759 L288.2573,40.6149 L288.5863,40.4769 L288.9253,40.3569 L289.2633,40.2569 L289.6133,40.1769 L289.9623,40.1079 L290.3103,40.0369 L290.6593,39.9679 L291.0093,39.8879 L291.3473,39.8089 L291.6863,39.7089 L292.0153,39.5989 L292.3443,39.4589 L292.6543,39.2999 L292.9633,39.1009 L293.2523,38.8709 Z M297.4293,50.2679 L297.0413,50.1579 L296.6523,50.0589 L296.2533,49.9479 L295.8643,49.8489 L295.4753,49.7389 L295.0873,49.6399 L294.6883,49.5389 L294.2993,49.4409 L293.9103,49.3509 L293.5113,49.2499 L293.1223,49.1609 L292.7233,49.0809 L292.3353,48.9909 L291.9463,48.9109 L291.5473,48.8319 L291.1583,48.7619 L290.8693,48.8209 L290.5703,48.8819 L290.2703,48.9219 L289.9623,48.9619 L289.6423,49.0009 L289.3333,49.0309 L289.0143,49.0609 L288.6853,49.0909 L288.3663,49.1309 L288.0473,49.1709 L287.7283,49.2309 L287.4193,49.2909 L287.1103,49.3699 L286.8013,49.4599 L286.5023,49.5689 L286.2133,49.6989 L286.3223,49.7299 L286.3823,49.7889 L286.4023,49.8589 L286.4023,49.8889 L286.5813,49.8989 L286.7413,49.9079 L286.9013,49.9389 L287.0503,49.9789 L287.2003,50.0279 L287.3393,50.0779 L287.4683,50.1379 L287.5983,50.1969 L287.7183,50.2579 L287.8383,50.3269 L287.9483,50.3879 L288.0673,50.4469 L288.1773,50.5069 L288.2863,50.5569 L288.3863,50.6069 L288.4963,50.6469 L288.7753,50.6269 L289.0543,50.6369 L289.3333,50.6659 L289.6033,50.7159 L289.8723,50.7759 L290.1413,50.8559 L290.4003,50.9359 L290.6593,51.0259 L290.9193,51.1149 L291.1783,51.2049 L291.4273,51.2749 L291.6773,51.3449 L291.9363,51.3949 L292.1853,51.4239 L292.4343,51.4239 L292.6833,51.4039 L292.9333,51.5239 L293.1723,51.6439 L293.4113,51.7829 L293.6413,51.9329 L293.8703,52.1029 L294.0993,52.2719 L294.3193,52.4509 L294.5283,52.6409 L294.7473,52.8499 L294.9473,53.0599 L295.1563,53.2689 L295.3563,53.4979 L295.5453,53.7279 L295.7353,53.9669 L295.9243,54.2059 L296.1043,54.4549 L296.2433,54.7249 L296.3233,54.9539 L296.3533,55.1629 L296.3233,55.3529 L296.2533,55.5229 L296.1443,55.6719 L296.0143,55.8119 L295.8643,55.9509 L295.6953,56.0799 L295.5253,56.2209 L295.3563,56.3589 L295.1863,56.5099 L295.0473,56.6789 L294.9173,56.8589 L294.8273,57.0679 L294.7683,57.3069 L295.0273,57.4669 L295.3063,57.5959 L295.5953,57.6959 L295.8943,57.7759 L296.2033,57.8249 L296.5323,57.8749 L296.8613,57.8959 L297.2003,57.9149 L297.5393,57.9349 L297.8793,57.9549 L298.2273,57.9649 L298.5663,57.9949 L298.9063,58.0349 L299.2443,58.0849 L299.5833,58.1539 L299.9023,58.2539 L301.2393,56.7289 L301.2393,53.6879 L301.0893,53.3789 L300.9193,53.0889 L300.7303,52.8199 L300.5313,52.5709 L300.3223,52.3319 L300.1023,52.1029 L299.8633,51.8929 L299.6233,51.6929 L299.3643,51.5039 L299.1053,51.3149 L298.8363,51.1349 L298.5563,50.9649 L298.2773,50.7859 L297.9983,50.6159 L297.7193,50.4469 L297.4293,50.2679 Z M262.3853,36.9499 C261.2343,36.0289 259.7373,35.2239 258.3563,34.6479 C257.3203,35.1089 256.2833,34.3019 255.4783,35.1089 C254.0963,35.2239 253.0603,36.0289 251.9093,36.4899 C250.5283,36.2589 249.7223,37.5259 248.4563,36.9499 C248.3413,36.2589 249.2623,36.7199 249.3763,36.1449 C250.6433,35.7989 251.5643,34.9929 252.9453,34.8779 C253.2913,34.4169 253.9813,34.7629 254.2123,34.1879 C255.8233,33.6119 257.3203,32.8059 258.1263,31.3099 C258.0103,30.2739 256.9743,29.3529 256.0533,28.8919 C255.5943,28.7759 255.0183,29.0069 254.5573,28.7759 C253.6363,28.8919 253.1763,28.3169 252.3703,27.8559 C252.0253,27.3959 252.3703,26.8189 252.3703,26.3589 C252.7163,26.0139 252.1403,25.5539 252.2553,25.2079 C252.6003,24.7469 252.3703,23.9419 253.1763,24.2869 C254.3273,23.7119 255.4783,24.0569 256.5143,24.0569 C257.2053,23.9419 257.2053,23.2509 257.5503,23.0209 C257.7813,22.1009 256.8593,21.5249 256.1693,21.1789 C255.7083,21.0639 255.0183,21.0639 254.6723,21.0639 C254.2123,21.4089 253.5213,20.9489 252.9453,20.9489 C252.9453,20.6039 252.4853,20.4879 252.3703,20.1429 L251.1033,19.2219 C250.2983,19.3369 249.1473,19.1069 248.4563,19.5679 C248.9163,20.4879 248.4563,21.4089 248.6863,22.4449 C248.4563,23.1359 247.9953,23.7119 247.3043,23.9419 C246.6143,24.2869 246.1533,24.8619 245.4633,25.2079 C245.3473,25.4389 244.8873,25.5539 244.8873,25.8989 C244.1963,26.2439 243.7363,27.6249 242.8153,27.0499 C242.4693,25.4389 242.9303,24.0569 243.1603,22.5609 C242.8153,22.2149 242.5853,21.4089 241.8943,21.6389 C241.3183,22.2149 240.3973,22.6759 239.8223,23.2509 C239.5923,23.4819 239.2463,23.2509 239.2463,23.7119 C239.9373,23.9419 239.9373,24.6329 240.0523,25.2079 C239.9373,27.0499 239.9373,28.8919 239.9373,30.9639 C239.7073,32.8059 240.0523,34.6479 239.4773,36.2589 C239.9373,36.7199 238.9013,37.0659 239.4773,37.4099 C239.0163,38.4459 240.3973,39.0219 240.1673,39.9429 C239.0163,40.6339 237.7503,41.2089 236.4833,41.6699 C236.0233,41.7849 235.7933,42.5909 235.2173,42.4759 C233.7203,43.6269 231.9943,43.8579 230.6123,44.8939 C229.8063,45.1239 228.8863,45.4689 228.3103,46.0449 C226.9283,46.2759 225.8923,47.4259 224.5113,47.5409 C224.1653,47.8869 223.5903,47.6559 223.3603,48.0019 C223.7053,48.9229 223.8213,49.8429 224.0513,50.7649 C224.3963,51.1089 224.9723,51.1089 225.2013,51.5699 C226.6983,51.6849 227.6193,50.6499 228.6553,49.8429 C229.5763,49.4979 230.0373,48.4619 230.9583,48.0019 C231.8793,47.6559 232.1093,46.5049 233.1453,46.3899 C233.8353,45.4689 235.1023,45.2379 235.7933,44.4329 C237.1743,43.7419 238.5553,42.7059 240.0523,42.1309 C240.8583,41.3239 242.2403,41.0949 243.0453,40.2889 C243.6203,40.0579 244.0823,40.0579 244.7723,39.8279 C246.0383,39.3669 247.1893,39.0219 248.5713,38.7919 C248.8013,38.7919 248.9163,39.1379 249.0313,38.7919 C249.6073,39.1379 250.5283,38.5619 250.5283,39.4829 C249.3763,41.0949 247.6503,41.3239 246.3843,42.7059 C245.8083,43.3969 245.0023,43.0519 244.5423,43.7419 C244.8873,43.8579 245.2333,43.7419 245.5783,43.5119 C246.1533,43.9729 246.6143,43.1669 247.1893,43.1669 C247.9953,43.1669 247.5353,42.2459 248.3413,42.3599 L248.3413,42.7059 C248.5713,42.5909 249.1473,42.5909 249.3763,42.3599 C250.9893,42.2459 252.4853,41.2089 254.0963,41.4399 C254.9023,40.7489 256.1693,41.4399 257.0903,40.8639 C257.8963,40.8639 259.0473,40.7489 259.7373,40.2889 C260.6583,39.7129 262.1563,39.7129 262.6153,38.3309 C262.7313,37.8709 262.7313,37.2959 262.3853,36.9499 L262.3853,36.9499 Z M252.6003,28.8919 C253.4063,29.1209 254.4423,29.3529 254.7873,30.1579 C255.0183,31.5389 253.6363,32.4599 252.6003,33.0359 C251.6783,32.8059 252.2553,31.4249 251.9093,30.8489 C252.2553,30.2739 252.2553,29.4679 252.6003,28.8919 L252.6003,28.8919 Z M248.3413,28.4319 C247.9953,29.3529 247.3043,30.0429 246.3843,30.3889 C245.9233,31.0789 245.3473,31.6539 245.1173,32.5749 C245.4633,33.0359 245.2333,33.8419 245.9233,34.1879 C246.2683,34.9929 247.5353,35.5679 247.3043,36.4899 C246.7293,36.7199 246.3843,37.5259 245.6933,37.6409 C244.6573,37.8709 243.6203,38.3309 242.7003,38.6769 C242.5853,38.4459 242.1243,38.2169 242.3553,37.8709 C242.9303,37.0659 242.4693,35.9139 242.5853,34.8779 C242.7003,33.6119 242.5853,32.1149 243.0453,30.9639 C243.3903,30.7339 243.0453,30.2739 243.3903,30.0429 C244.3113,28.6609 245.1173,26.9349 246.6143,26.0139 C246.9593,25.7829 247.4203,25.6679 247.6503,25.3229 C247.8803,25.3229 248.1113,25.5539 248.3413,25.6679 C248.5713,26.8189 247.9953,27.5099 248.3413,28.4319 L248.3413,28.4319 Z M234.2973,31.0789 C234.1813,31.6539 234.4113,32.6909 234.1813,33.2669 C234.5263,33.8419 234.1813,34.6479 234.2973,35.2239 C233.8353,36.0289 234.1813,36.9499 234.1813,37.8709 C234.7573,38.3309 234.5263,39.1379 235.2173,39.2529 C235.7933,38.9069 235.9083,37.9859 235.9083,37.2959 C236.1383,36.2589 236.2533,35.5679 236.7143,34.6479 C236.4833,33.4959 236.0233,32.2309 236.3683,30.8489 C236.2533,30.6189 236.0233,30.3889 236.0233,30.0429 C235.5623,29.2369 234.5263,29.1209 233.7203,28.8919 C233.4903,29.3529 233.9503,29.4679 233.9503,29.9279 C234.1813,30.2739 233.9503,30.7339 234.2973,31.0789 L234.2973,31.0789 Z M257.2053,53.9869 C256.3993,53.6429 255.4783,53.2969 254.5573,53.1819 L250.4133,53.7579 C249.7223,53.7579 249.4913,52.9509 248.9163,52.7209 C248.3413,52.1459 247.1893,52.1459 246.7293,51.3399 C247.7653,50.4189 249.2623,49.4979 249.9523,48.3469 C250.8733,47.3109 252.2553,46.9649 252.4853,45.5839 C252.2553,44.8939 251.6783,44.4329 250.9893,44.0869 C250.2983,43.6269 249.3763,44.2019 248.6863,44.3179 C248.2253,44.4329 248.2253,45.0089 247.7653,44.7779 C247.4203,45.1239 246.8443,44.8939 246.6143,45.4689 L246.4983,45.2379 C245.9233,45.4689 245.2333,45.3539 244.6573,45.8139 C244.8873,46.1589 244.1963,46.2759 244.0823,46.3899 L244.3113,46.6199 C244.3113,46.7349 244.3113,46.9649 244.1963,46.9649 C243.5063,46.9649 243.9663,46.2759 243.8513,45.9289 C243.1603,45.9289 242.7003,46.0449 242.1243,46.0449 C241.7793,45.9289 241.4333,45.8139 241.5493,45.3539 C240.7433,45.6989 240.0523,45.9289 239.4773,46.3899 C239.1313,47.3109 238.5553,48.0019 238.9013,48.8079 C239.3623,48.6929 239.8223,49.2679 240.1673,48.9229 C241.2033,48.8079 242.0093,47.8869 243.1603,47.6559 C243.2763,47.1949 243.9663,47.1949 244.4273,46.9649 C245.0023,46.9649 245.5783,46.5049 246.1533,46.5049 C246.3843,46.5049 246.6143,46.0449 246.9593,46.3899 C246.8443,46.9649 246.8443,47.6559 246.1533,48.0019 C245.4633,48.9229 244.7723,49.8429 244.0823,50.6499 C243.6203,50.6499 243.3903,51.1089 243.0453,51.4549 C242.7003,52.1459 242.2403,52.8359 242.0093,53.5269 C241.8943,53.8719 242.3553,53.8719 242.5853,54.1039 C243.6203,54.1039 244.4273,53.2969 245.3473,52.8359 C246.2683,52.8359 246.8443,53.5269 247.6503,53.7579 C247.9953,54.1039 247.5353,54.3329 247.3043,54.5639 C246.6143,55.0239 245.5783,54.9079 244.8873,55.4839 C244.1963,55.8289 243.5063,56.2899 242.7003,56.4049 C241.5493,57.5569 239.7073,57.5569 238.5553,58.8219 C237.6353,59.0529 236.5993,59.9749 236.2533,60.8949 C235.9083,61.4709 236.3683,61.8159 236.4833,62.1619 C237.5193,63.3129 238.9013,63.4279 240.2823,63.6569 C241.4333,64.3489 242.9303,64.1179 244.1963,64.5789 C244.6573,64.4639 245.3473,64.4639 245.9233,64.4639 C246.9593,64.1179 248.2253,64.4639 249.2623,63.8889 C250.2983,63.8889 250.8733,62.7369 251.6783,62.1619 C252.8303,60.4349 251.9093,58.3619 251.5643,56.5209 C251.6783,56.2899 251.5643,55.9439 251.9093,55.7139 C252.9453,55.9439 253.9813,55.5999 254.9023,55.8289 C255.8233,55.7139 256.5143,56.0599 257.4353,55.9439 C257.8963,55.8289 258.2413,55.4839 258.2413,55.0239 C258.0103,54.5639 257.6653,54.3329 257.2053,53.9869 L257.2053,53.9869 Z M249.7223,59.6279 C249.7223,60.3189 249.0313,60.4349 248.6863,60.7789 C247.7653,60.8949 246.8443,60.7789 246.0383,61.1249 C245.1173,60.7789 244.1963,61.5859 243.2763,61.0099 C242.3553,60.8949 241.5493,60.7789 240.7433,60.3189 C240.2823,59.5139 241.4333,59.1679 241.4333,58.5919 C242.8153,58.0169 244.0823,57.5569 245.3473,56.8649 C246.0383,57.0959 246.8443,56.5209 247.5353,56.4049 C248.2253,56.1749 249.1473,55.9439 249.7223,56.6359 C250.1823,57.4419 250.1823,58.8219 249.7223,59.6279 L249.7223,59.6279 Z M243.9663,44.0869 C243.7363,44.0869 243.7363,44.2019 243.6203,44.3179 C243.7363,44.5479 243.8513,44.2019 243.9663,44.0869 L243.9663,44.0869 Z M242.0093,45.0089 L241.8943,45.1239 L242.1243,45.1239 L242.0093,45.0089 Z M182.3263,43.0829 C183.7983,41.2529 186.1633,41.8429 188.2403,40.7169 C187.8173,39.6559 188.9413,38.8889 188.1223,38.7069 C185.8663,38.5319 183.7983,38.5909 182.0903,38.2339 C179.8373,36.4629 182.1423,34.2169 181.9723,32.5569 C180.4283,31.0829 178.6553,31.2609 177.1223,31.6089 C175.4033,31.9719 177.5913,33.4489 177.1223,34.9199 C178.1813,35.5189 176.9993,36.5809 177.9503,38.1159 C177.0583,38.9469 178.2993,40.3059 177.7143,42.0179 C178.8323,44.4429 176.6453,47.8719 179.1343,50.6519 C179.4833,50.2979 179.8373,51.0659 180.6713,50.8889 C181.6103,51.5379 183.2663,52.0099 184.8103,52.3079 L185.7573,51.1239 C184.6843,48.7009 181.9063,49.1739 181.2633,47.3409 C181.4333,45.7439 179.8963,45.3309 180.6713,44.3839 C180.6643,43.3209 181.1963,42.6099 182.3263,43.0829 L182.3263,43.0829 Z M166.4783,34.3299 C165.2953,33.0929 164.0523,31.9719 163.0493,32.2019 C162.2193,32.2069 162.6353,32.7979 162.9303,33.6209 C162.3383,33.6859 161.8653,34.5709 161.5113,34.5669 C161.6883,35.4599 162.3383,36.6399 162.8113,38.3519 C162.7533,39.0659 163.3443,40.7799 162.3393,41.8999 C160.8613,41.3119 160.5663,42.4339 159.6183,42.7289 C158.4363,41.5479 157.8463,43.0849 157.0173,43.0829 C157.9643,43.7939 159.5023,43.1449 160.9203,43.1999 C163.8753,41.7839 164.4083,46.3939 167.3063,47.4589 C167.7773,46.9279 167.6593,46.1579 167.8983,45.9209 C168.9003,44.0889 167.7183,42.7319 168.4893,41.4279 C168.7233,39.7749 168.1333,38.8889 167.8983,37.9959 C167.9543,36.2269 167.2453,34.9839 166.4783,34.3299 L166.4783,34.3299 Z M163.0493,52.0709 C162.2793,52.3659 161.4523,52.3659 161.1563,53.3729 C158.3773,53.1929 156.1313,54.7309 153.9423,53.9629 C152.2303,53.8429 152.7613,55.2619 152.5233,56.4479 C153.0583,58.2189 155.4223,57.8649 157.3713,58.4579 C157.1363,57.5679 157.6103,57.2129 157.8443,57.0379 C158.0823,57.3899 159.1463,56.7999 159.7373,57.8669 C161.5713,54.8489 164.3493,51.7739 167.3063,50.0599 C165.3543,49.6469 164.3493,51.5969 163.0493,52.0709 L163.0493,52.0709 Z M124.1523,34.0389 C125.3153,34.4269 124.7343,35.9779 124.9273,36.7529 C125.3153,37.5279 125.0243,38.4009 125.6053,39.1769 C126.1873,40.0489 127.2533,40.4369 128.2223,40.5329 C129.0953,40.4369 129.6763,41.1149 130.4523,40.7279 C130.6453,40.6309 130.4523,40.3389 130.6453,40.2419 C130.3553,40.1459 130.2583,39.8549 130.0643,39.8549 C129.9683,39.3699 128.9013,39.0789 129.5793,38.4979 C130.3553,38.5949 130.9363,38.6919 131.7123,38.6919 C132.7783,38.7879 133.7473,38.5949 134.8133,38.4009 C135.1043,38.2069 135.4913,38.0139 135.8803,37.9159 C136.7523,38.1099 137.4303,37.4319 138.2063,36.9469 C138.0113,36.7529 137.8183,36.5599 138.0113,36.2689 C138.3993,35.5899 139.1753,35.0079 139.6603,34.3299 C140.5323,33.7479 141.2113,32.8759 141.4043,31.8099 C141.0163,31.2289 140.4353,30.5499 139.7573,30.6469 C139.0783,30.1619 138.3993,30.3569 137.7213,30.5499 C136.3643,31.7129 134.4263,31.5199 132.8753,32.2949 C132.2933,32.5849 131.6153,32.8759 131.0333,32.9729 C130.5493,33.0699 130.0643,33.1669 129.8703,33.5549 C130.9363,34.5239 132.4873,34.2339 133.7473,33.8459 C134.5223,33.8459 135.1043,33.1669 135.8803,33.0699 C136.1703,33.0699 136.1703,33.4579 136.3643,33.6509 C136.1703,34.1359 135.9763,34.6209 135.4913,34.9109 C135.2013,35.7839 134.3293,36.5599 133.4563,36.7529 C133.0693,36.9469 132.5843,37.0439 132.1963,37.1409 C131.3243,37.0439 130.8393,37.7229 130.0643,37.8189 C129.2883,38.0139 128.6103,37.6259 127.9323,37.3339 C127.6413,36.2689 126.6723,35.6879 126.4783,34.6209 C126.3813,34.2339 125.8963,34.1359 125.8963,33.6509 C126.3813,32.7789 127.2533,32.3919 128.1263,32.1009 C129.2883,31.0339 130.8393,30.4529 132.0993,29.5799 C132.4873,29.2899 132.9723,29.3869 133.2623,29.0959 C134.4263,28.9019 135.4913,28.7079 136.4613,28.2239 C137.2373,28.4179 137.9153,27.9329 138.5943,27.6419 C139.4663,27.8359 139.3693,26.8659 139.6603,26.3819 C139.8533,25.9939 139.4663,25.7029 139.1753,25.4129 C138.9813,25.4129 138.7883,25.6069 138.5943,25.4129 C138.4963,25.3159 138.4963,25.1219 138.5943,25.0259 L137.8183,24.6379 C136.3643,24.4429 135.4913,25.3159 134.3293,25.7029 C134.0383,25.5099 133.7473,25.6069 133.4563,25.6069 C132.1963,25.3159 133.7473,24.6379 133.3603,23.9589 C133.8443,23.2799 134.7173,22.6989 135.5893,22.5049 C136.4613,22.1169 137.3333,21.7299 138.3023,21.3419 C138.7883,20.7609 139.8533,20.2759 139.6603,19.3069 C139.1753,19.1119 138.6903,18.5309 138.1093,18.7249 C137.4303,18.0459 136.3643,18.6279 135.4913,18.9189 C135.1043,18.4349 135.5893,17.8539 135.8803,17.3679 C135.5893,16.9809 135.8803,16.7869 136.0733,16.4949 C136.3643,15.4299 136.5583,14.1689 135.7823,13.2969 C135.1043,12.5219 134.1353,12.3279 133.1663,12.2309 C132.5843,12.7159 131.9063,11.9409 131.3243,12.5219 C131.7123,13.1029 132.8753,13.0069 132.9723,13.9759 C134.0383,14.4599 133.3603,15.5259 133.6503,16.3989 C133.2623,17.9489 133.0693,20.1789 131.1303,20.6639 C129.9683,21.7299 128.4163,21.3419 127.1573,21.9229 C126.0903,22.6989 124.7343,22.8929 123.4733,23.1839 C122.8913,22.9889 122.4073,23.6679 121.9223,23.2799 C122.2133,23.8619 122.7953,23.8619 123.0853,24.2499 C123.6673,24.1529 123.8613,24.8309 124.3453,24.9279 C125.1213,25.0259 125.9933,25.3159 126.7683,25.5099 C127.6413,25.7029 128.5133,25.2189 129.1913,24.9279 C129.7733,25.0259 130.1603,23.9589 130.5493,24.7339 C129.9683,24.9279 130.3553,25.7029 130.0643,26.1879 C129.5793,26.4789 129.6763,27.0609 129.5793,27.5459 L130.1603,28.3199 C130.1603,29.1929 129.3863,29.4839 128.7073,30.0649 C128.5133,30.0649 128.2223,30.0649 128.1263,30.3569 C127.0593,30.6469 126.6723,32.0039 125.5093,32.0039 C125.2183,32.1969 125.0243,32.0039 124.7343,31.8099 C124.7343,32.1009 124.3453,32.1969 124.5393,32.4879 C123.0853,33.7479 121.3413,34.9109 119.9843,36.1719 C119.6933,36.4619 119.6933,37.2379 119.1113,37.0439 C119.1113,37.2379 118.8213,37.3339 118.9183,37.5279 C119.2083,37.3339 119.4023,37.1409 119.6933,37.1409 C120.3713,36.5599 121.3413,36.2689 122.0193,35.4929 C122.8913,35.2019 123.2793,34.2339 124.1523,34.0389 L124.1523,34.0389 Z M152.7443,41.6959 C151.5823,40.1459 149.7403,39.4669 147.8983,39.1769 C146.7353,38.5949 145.4753,38.6919 144.2153,38.5949 C142.3733,38.7879 140.7263,39.1769 138.9813,39.6609 C138.1093,40.0489 137.1403,40.4369 136.1703,40.7279 C135.4913,40.8239 134.9103,41.2119 134.3293,41.5029 C133.9413,41.4049 133.6503,41.8909 133.3603,41.6959 C132.2933,41.8909 131.3243,42.2769 130.4523,42.5689 C127.8353,43.0539 125.5093,44.7979 122.6983,44.1189 C121.9223,44.7979 120.7593,44.1189 119.9843,44.6039 C120.9523,45.1859 121.9223,45.7679 122.9893,46.3489 C123.6673,46.6399 124.3453,47.1239 125.1213,47.1239 C125.8963,47.1239 126.5743,47.4149 127.1573,47.0269 C127.9323,47.0269 128.5133,46.6399 129.1913,46.3489 C130.6453,45.3799 132.1963,44.7009 133.5533,43.4419 C134.5223,43.0539 135.2013,42.0839 136.2673,41.8909 C136.9453,41.1149 138.0113,41.1149 138.7883,40.4369 C139.5633,40.2419 140.2413,39.9509 141.0163,39.7579 C141.7923,39.9509 142.5673,39.3699 143.4403,39.4669 C144.0223,39.8549 144.7973,39.6609 145.6693,39.7579 C146.7353,39.9509 147.8983,40.1459 148.8683,40.7279 C148.5763,41.8909 147.3173,42.6659 146.4453,43.1509 C145.4753,43.8279 144.2153,44.2169 143.3433,44.9919 C142.3733,45.3799 141.3073,45.6699 140.3383,46.1549 C141.3073,46.0579 142.7613,45.9609 143.8273,45.8639 C144.3123,45.9609 144.6993,45.4769 145.0883,45.6699 C145.7653,45.6699 146.2503,45.1859 146.8323,45.3799 C147.6073,44.9919 148.1893,45.3799 148.8683,45.1859 C149.7403,44.5079 150.9033,44.7979 151.6783,44.0229 C152.3573,44.1189 152.5513,43.4419 152.9383,43.0539 C152.9383,42.5689 153.2293,41.8909 152.7443,41.6959 L152.7443,41.6959 Z M118.2393,44.8949 C117.8513,44.0229 117.7543,42.9569 116.7853,42.5689 C116.4943,42.5689 116.7853,42.9569 116.6883,43.1509 C115.9133,45.0889 115.6223,47.2209 114.3623,48.9659 C113.8773,49.2569 113.8773,49.9349 113.6833,50.4199 C114.3623,51.6799 114.5563,53.0369 115.5253,54.0059 C116.1063,53.9089 116.8823,54.2969 117.4643,53.9089 C117.8513,53.8119 117.8513,53.2309 117.9483,52.9399 L118.0453,53.1339 C118.5303,52.8429 118.3363,52.3589 118.6263,51.9709 C119.4023,50.5169 119.3053,48.2869 118.7243,46.7359 C118.7243,46.0579 118.2393,45.4769 118.2393,44.8949 L118.2393,44.8949 Z M139.9503,60.9849 C139.5633,60.4029 139.7573,59.7249 139.1753,59.1429 L139.0783,60.2089 C138.4963,60.6929 138.9813,61.4699 138.6903,62.1479 C138.4963,62.4389 138.3023,62.8259 137.8183,62.7299 C137.3333,63.3119 136.5583,63.1159 135.9763,63.5049 C134.8133,63.4079 133.9413,64.0859 132.8753,63.6979 C132.1963,62.9229 133.6503,62.8259 133.9413,62.2439 C133.5533,62.0509 133.9413,61.6619 134.1353,61.4699 L133.7473,61.1779 L133.7473,61.0809 C133.5533,60.5969 134.1353,60.4029 134.3293,60.1119 C134.3293,60.1119 134.4263,60.1119 134.4263,60.2089 C134.5223,60.2089 134.7173,60.3069 134.8133,60.1119 C134.7173,60.1119 134.7173,59.9189 134.6193,59.9189 C134.7173,59.6269 135.0073,59.6269 135.2013,59.7249 C135.0073,60.1119 135.0073,60.4999 134.5223,60.5969 C134.6193,60.9849 134.4263,60.7909 134.2323,60.9849 C134.3293,61.0809 134.8133,60.9849 134.8133,61.2759 L134.9103,61.1779 L134.7173,60.9849 C134.6193,60.6929 134.8133,60.5969 135.0073,60.4999 L135.2983,60.7909 L135.2013,60.9849 C135.1043,60.9849 135.1043,61.0809 135.2013,61.0809 C135.5893,60.8889 135.7823,60.4029 135.9763,60.1119 C136.1703,59.9189 136.3643,60.0159 136.3643,59.7249 C136.8493,59.5309 137.2373,58.9499 137.7213,58.5619 C138.7883,58.3679 138.2063,57.3009 138.3993,56.5259 C138.4963,56.2349 138.0113,56.0419 138.3993,55.7509 C138.1093,55.1689 137.7213,54.6849 137.4303,54.1039 C136.9453,54.1039 137.0433,53.4249 136.5583,53.4249 C136.1703,53.2309 135.6863,53.2309 135.3953,53.4249 C135.1043,52.9399 134.6193,53.3269 134.1353,53.2309 C133.8443,52.8429 133.4563,53.4249 133.1663,52.9399 C133.2623,52.5519 133.7473,52.3589 134.0383,52.0679 C135.4913,51.2919 136.3643,49.7409 138.0113,49.1589 C138.2063,48.7729 139.0783,48.5779 138.9813,47.9009 C139.4663,47.5119 139.3693,47.1239 139.3693,46.5419 C138.9813,46.4449 138.7883,46.2519 138.5943,45.9609 C137.5273,45.8639 136.6553,44.6039 135.5893,45.3799 C134.8133,45.4769 134.1353,45.9609 133.6503,46.6399 C133.0693,46.5419 132.9723,47.2209 132.4873,47.1239 C131.2273,48.2869 129.6763,48.6749 128.4163,49.7409 C126.9623,49.6449 125.5093,50.3229 124.0543,50.1289 C123.3763,50.3229 122.7953,49.8379 122.0193,49.9349 L122.0193,50.1289 C122.7953,50.7109 123.7643,51.3889 124.4423,52.1639 C125.0243,52.7459 125.5093,53.4249 126.2833,53.6179 C127.1573,54.1039 127.9323,53.4249 128.7073,53.3269 C128.8033,52.7459 129.3863,52.5519 129.5793,52.0679 C131.1303,51.1949 132.1963,49.4499 133.6503,48.6749 C133.8443,48.6749 133.8443,48.8689 133.9413,48.9659 C134.1353,49.9349 133.4563,50.8079 132.7783,51.2919 C132.6813,51.8729 132.0033,51.6799 131.8093,52.1639 C131.2273,52.7459 130.3553,53.2309 129.4833,53.3269 C128.4163,53.4249 129.2883,54.3939 128.9013,54.9759 C128.9013,55.2659 129.1913,55.4599 129.4833,55.4599 C130.9363,55.7509 131.5183,54.1999 132.8753,54.1999 C133.9413,54.1999 135.2983,54.2969 135.9763,55.3629 C136.5583,55.8479 136.1703,56.5259 135.9763,57.1089 C135.2013,57.6899 135.2983,56.3319 134.6193,56.6229 C134.0383,55.8479 133.0693,56.3319 132.2933,56.3319 C132.1963,56.3319 132.0033,56.7199 131.9063,56.4289 C131.6153,56.4289 131.3243,56.5259 131.2273,56.8169 C130.0643,57.2039 129.1913,58.1739 128.4163,58.9499 C128.2223,59.6269 127.3503,59.9189 127.1573,60.4999 C126.3813,61.9539 125.0243,63.2139 125.1213,64.8619 C125.4113,65.4429 125.7993,66.2199 125.5093,66.9929 C125.8963,67.1889 125.8963,67.5759 126.3813,67.5759 C126.7683,67.7699 127.0593,67.5759 127.3503,67.1889 C127.3503,67.8659 128.0293,67.2849 128.3193,67.3819 C129.5793,66.6069 131.3243,66.8969 132.6813,66.5089 C133.4563,66.4119 134.3293,66.3159 135.0073,66.3159 C136.1703,66.3159 137.3333,66.3159 138.4963,65.8309 C138.9813,65.9279 139.4663,65.4429 139.8533,65.7349 C140.3383,65.5399 140.8233,65.3469 141.2113,64.9589 C141.3073,64.5699 141.5013,64.1839 141.3073,63.7959 C140.7263,62.9229 140.1443,62.0509 139.9503,60.9849 L139.9503,60.9849 Z M130.0643,61.5669 C129.5793,61.6619 128.8033,61.9539 128.5133,61.4699 C128.5133,60.5969 128.9983,59.9189 129.4833,59.3369 C129.4833,59.0459 129.7733,59.3369 129.8703,59.1429 C130.9363,58.1739 132.0033,56.9139 133.4563,57.4959 L133.7473,57.8829 C133.7473,60.1119 131.3243,60.4029 130.0643,61.5669 L130.0643,61.5669 Z M144.6993,56.1389 C144.4093,56.0419 144.0223,55.9439 143.8273,55.6539 L142.9553,55.1689 C142.2773,55.2659 141.5983,55.2659 141.0163,55.2659 C141.0843,55.3999 141.1463,55.5789 141.1503,55.7419 C141.2583,55.5869 141.5283,55.4769 141.5983,55.2659 L141.7923,55.7509 C141.9863,55.6539 142.0833,55.5569 142.1803,55.4599 C142.3733,55.6539 142.0833,55.7509 142.0833,55.8479 C142.2773,55.8479 142.5673,56.0419 142.6643,56.1389 C143.3433,56.5259 143.7303,57.3989 143.5373,58.1739 C143.1493,58.6579 142.6643,59.3369 142.1803,59.4349 C142.1803,59.9189 141.5983,59.3369 141.5013,59.7249 L141.5983,59.7249 C141.7923,59.8209 141.7923,59.9189 141.7923,60.1119 C141.9863,60.1119 141.9863,59.9189 142.1803,59.8209 C142.2773,59.9189 142.2773,60.0159 142.2773,60.1119 C142.4703,60.1119 142.6643,60.1119 142.6643,59.8209 C142.6643,60.1119 142.9553,60.1119 142.9553,60.3069 C143.3433,60.2089 144.1183,60.5969 144.2153,60.1119 C144.3123,60.1119 144.4093,60.2089 144.3123,60.3069 C144.8943,60.4029 145.0883,59.8209 145.5733,59.7249 C145.9603,59.4349 145.1843,59.1429 145.7653,58.8529 C145.8633,58.6579 145.9603,58.3679 145.7653,58.1739 C145.7653,57.3989 145.0883,56.8169 144.6993,56.1389 L144.6993,56.1389 Z M141.1143,55.9439 C141.1433,55.8849 141.1513,55.8149 141.1503,55.7419 C141.1093,55.8009 141.0873,55.8639 141.1143,55.9439 L141.1143,55.9439 Z M140.3383,55.5569 C140.2413,55.6539 139.9503,55.8479 140.1443,55.9439 L140.2413,55.9439 C140.2413,55.8479 140.2413,55.6539 140.3383,55.5569 L140.3383,55.5569 Z M140.0473,56.2349 C140.0473,56.2349 139.8533,56.2349 139.8533,56.3319 C139.9503,56.4289 140.0473,56.4289 140.0473,56.4289 L140.0473,56.2349 Z M221.2453,36.4779 C220.8733,35.7949 220.1273,35.2979 219.3833,35.0499 C218.8863,34.4289 218.0163,34.4289 217.3333,33.9939 C217.0853,33.7459 217.0853,33.3729 217.0853,33.0009 C217.5823,32.6909 217.1473,32.1929 217.4583,31.7589 C217.2723,31.2619 217.2723,30.7029 217.0233,30.2069 C217.0853,29.8339 217.2093,29.4609 217.3953,29.0889 C217.7683,28.4059 218.0783,27.6609 218.1403,26.8539 C218.3273,26.2329 218.1403,25.6109 218.0783,24.9909 C217.6443,24.7419 218.0163,24.1209 217.5203,23.8729 C217.2093,22.9419 216.2163,22.8179 215.3463,22.7559 C215.9053,23.4389 216.2783,24.4939 215.9053,25.3629 C215.5333,26.1089 215.4083,26.8539 214.9743,27.5359 C214.6013,28.1569 214.2283,28.8399 213.8563,29.3999 C213.7323,30.2689 213.7323,31.1999 213.9803,32.0689 C213.7943,32.5669 213.9183,33.1879 213.4843,33.4969 C213.4223,34.6149 212.1803,34.5529 211.4973,35.0499 C210.7523,35.3599 210.1933,36.1059 209.4483,36.2909 C209.2613,36.2299 209.2613,36.0429 209.2613,35.8579 C209.6963,35.0499 210.1933,34.1179 210.6273,33.2489 C210.7523,32.8149 211.0623,32.4429 211.1243,32.0069 C210.9383,31.4479 211.6213,31.1999 211.4973,30.7029 C211.4343,31.0139 211.0623,31.1379 211.0623,31.3859 C210.6273,32.1319 210.6273,33.0629 209.9443,33.6209 C209.6343,34.9259 208.5163,35.9819 207.8963,37.1609 C207.3993,37.4089 207.3993,36.6639 206.9643,36.6019 C206.3433,36.0429 205.5983,36.8509 204.9153,36.4159 C204.9773,36.1059 205.4743,35.8579 205.7223,35.6699 C206.6543,35.5469 207.0883,34.5529 208.0193,34.4909 C208.2683,34.2419 208.0823,33.8079 208.1443,33.3729 C208.1443,33.0629 207.7713,32.8149 207.5853,32.6279 C206.9023,32.2559 206.0953,32.2559 205.4123,32.5039 L204.7283,33.0009 C204.4813,33.1249 204.2943,32.8769 204.1083,32.8149 C203.2393,32.9389 202.5553,33.4349 201.7483,33.4969 C201.3763,33.4969 200.8793,33.8699 200.5693,33.5599 C200.3203,32.9389 201.0033,32.6909 201.1893,32.2559 C201.9353,31.8209 202.3693,31.0139 202.9283,30.4549 C203.9843,29.8339 204.6663,28.7169 205.8463,28.3439 C206.4683,27.4749 207.8333,27.4119 208.1443,26.2329 C208.1443,25.9219 208.0193,25.6739 207.8963,25.4259 C207.5853,24.9909 207.0883,25.1149 206.6543,24.9909 C206.0953,24.8659 205.5983,24.9909 205.1643,25.3019 C204.2323,25.4259 203.4253,25.8599 202.4313,25.8599 C201.3763,26.1699 200.1963,26.3579 199.0163,26.3579 C198.7683,26.6669 198.2093,26.4189 197.8983,26.6049 C197.5883,26.6669 197.2783,26.4819 196.9683,26.6669 C196.8433,26.6669 196.7193,26.6049 196.5943,26.5429 C196.4083,26.5429 196.2223,26.5429 196.0983,26.6669 C196.0983,27.1019 196.7193,27.2259 196.9683,27.5359 L197.0303,27.5359 L197.1543,27.7849 C197.8373,28.3439 198.6443,28.7169 199.5753,28.9019 C200.5073,28.7779 201.5623,28.7779 202.3693,28.2809 C202.6793,28.2199 202.9903,28.0959 203.2393,28.3439 C203.3013,28.7169 202.9903,28.9019 202.7423,29.0889 C202.4313,29.7719 201.6243,30.2069 201.3763,30.9509 C200.7553,31.3239 200.3203,31.8829 199.8863,32.4429 C199.3893,33.4349 198.3343,32.5669 197.7133,33.0629 C197.7743,33.1249 197.8373,33.1879 197.9613,33.1249 C198.7683,33.1879 198.0853,33.9939 198.6443,34.2419 C198.7063,34.3659 198.6443,34.5529 198.4573,34.6149 C198.6443,34.9259 198.9543,35.1739 199.3263,35.2979 C199.7613,35.6089 200.1343,35.1109 200.6313,35.2359 C201.2523,35.1739 201.6863,35.7329 202.0593,36.1669 C201.9973,36.6019 201.6243,36.7879 201.4383,37.1609 C201.0653,37.2849 200.7553,37.5329 200.6313,37.9059 C200.3823,38.2169 200.6933,38.5269 200.4443,38.7759 C200.6933,39.3339 200.6313,40.1419 201.2523,40.5759 C201.6243,40.6379 202.0593,40.7629 202.4313,40.5759 C203.1143,39.9549 204.0463,39.9549 204.8533,39.5819 C205.0393,39.6449 205.2253,39.7689 205.2253,40.0169 C204.4183,40.8239 203.6123,41.6929 202.5553,41.9419 C202.3073,42.2519 201.9353,42.4389 201.6863,42.7489 C201.1273,42.8729 200.6313,43.2459 200.1963,43.6179 C199.3263,43.8669 198.6443,44.4869 197.7133,44.5499 C197.5883,44.4259 197.5263,44.3009 197.4643,44.1769 C197.5263,43.4939 197.2783,42.9979 197.5883,42.4389 C197.6513,41.5069 197.5263,40.6999 197.7743,39.7689 C197.6513,38.6509 197.6513,37.4089 197.4643,36.2299 C196.9683,35.4839 196.4703,34.5529 196.8433,33.6839 C196.7813,33.7459 196.7193,33.8079 196.7193,33.8079 C196.5943,34.2419 196.0983,34.6149 196.2223,35.1739 C195.8493,35.9819 195.9113,36.9749 195.7873,37.9059 C195.4153,38.5889 195.6013,39.4579 195.4153,40.0789 C195.6633,40.7629 194.8563,41.0719 195.2293,41.7559 C195.1673,42.6879 195.1043,43.5569 194.8563,44.4869 C194.8563,45.5429 195.7253,46.3509 196.5943,46.7849 C196.7193,46.7849 196.8433,46.7849 196.7813,46.6609 C196.9053,46.6609 196.7813,46.7849 196.9053,46.8469 C197.1543,46.9089 197.5263,47.1569 197.7133,46.9089 L197.9613,47.0329 C198.3343,46.7229 198.7683,46.4749 199.0783,46.0399 C200.3203,45.1709 201.3763,44.3009 202.5553,43.3089 C202.4933,42.7489 203.1773,42.9359 203.4253,42.6879 C204.4183,41.8799 205.1643,40.7629 206.2193,39.9549 C206.8403,39.2729 207.4613,38.6509 208.0193,37.9059 C208.2063,37.7809 208.5163,37.7809 208.7023,37.9059 C209.0133,38.8999 210.1313,38.7759 210.9383,38.8369 C211.0623,38.8999 211.1243,38.8369 211.1863,38.7129 C211.2483,38.5889 211.3113,38.7759 211.3733,38.7759 C211.5593,38.5889 211.8693,38.7759 211.9943,38.4019 C212.1803,38.4649 212.5523,38.2779 212.6773,38.5269 C212.6153,38.0919 213.2983,38.2169 213.4843,37.8439 C214.3533,37.5329 214.7883,36.5399 215.4703,35.9819 C215.5953,35.6089 215.8433,35.3599 216.0923,35.1109 C216.2783,35.0499 216.5263,35.0499 216.6513,35.2359 C217.2723,36.2909 216.3403,37.3469 215.9053,38.2779 C215.0983,39.2729 214.7263,40.4519 213.6703,41.2589 C211.3733,42.2519 209.1993,43.5569 206.9023,44.4869 C206.0953,44.9219 205.2253,45.2329 204.4183,45.6679 L204.3563,45.7919 C204.0463,45.7299 203.9223,46.1639 203.5493,46.0399 C202.6793,46.5359 201.7483,46.8469 200.8793,47.2199 C200.6313,47.3439 200.2583,47.2819 200.0723,47.5929 C200.3203,47.8409 200.6933,47.9029 201.0033,48.0259 C202.4313,48.5239 203.9223,47.7159 204.9773,46.8469 C205.5363,46.8469 205.9703,46.0399 206.5303,46.4129 C206.7163,46.7229 206.4053,46.9719 206.2813,47.2199 C205.7843,47.8409 205.6603,48.6479 205.1013,49.2689 C204.9153,49.8279 204.4813,49.6419 204.1083,49.8899 C203.8603,50.2629 204.3563,50.4479 204.2943,50.8199 C203.3633,52.3119 202.6793,53.8629 201.8723,55.4159 C201.4383,56.1609 201.1273,57.0299 200.8793,57.8379 C200.5693,58.8309 200.4443,59.6999 200.6313,60.7559 C200.7553,62.1219 201.2523,63.4259 202.1833,64.3579 C202.6173,64.3579 203.1143,64.5429 203.4253,64.1089 C203.6123,63.8599 203.4873,63.5499 203.4253,63.3019 C203.4873,63.0539 203.4253,62.7429 203.4253,62.4329 C203.7973,62.1839 203.7973,61.9359 203.8603,61.5009 C203.6733,61.1909 203.9843,60.7559 203.6123,60.5079 C203.6123,60.3209 203.7973,60.2589 203.8603,60.0729 C203.9843,59.0179 203.9223,57.8999 204.5433,56.9679 C204.6043,56.8439 204.4813,56.6579 204.6663,56.5959 C204.6043,56.0989 205.2873,56.0369 205.2253,55.5399 C205.5983,55.1059 205.7223,54.3599 206.2193,54.0499 C206.9023,54.1739 206.9023,54.9819 207.2753,55.4159 C207.5853,56.0369 206.7783,56.1609 206.5923,56.5329 C206.3433,56.8439 205.8463,57.0929 205.8463,57.4649 C205.9703,57.8999 206.4683,58.2099 206.8403,58.2729 C207.2753,58.2099 207.8963,58.2099 208.2063,57.8999 C208.3923,57.8379 208.5163,57.8379 208.7023,57.9619 C208.8273,58.5829 208.0193,58.5209 207.7713,58.8929 C207.1503,59.8239 206.0333,60.2589 205.2253,60.8179 C205.1013,61.1289 205.1013,61.4389 204.9773,61.7489 C205.1013,61.9969 205.0393,62.3699 205.3493,62.4939 C205.7223,62.5569 206.0953,62.4329 206.4053,62.1219 C207.7093,62.0599 208.4543,60.6319 209.6343,60.1969 C210.3793,59.6389 211.1863,59.2029 212.0553,58.9549 C212.2423,58.9549 212.3043,59.1419 212.2423,59.2659 C211.7453,59.6999 211.4973,60.3839 210.8143,60.5689 C210.4413,61.3769 209.6343,61.9969 209.3233,62.8049 C210.1933,62.4329 211.0623,61.9359 211.9313,61.6249 C212.3043,61.6879 212.6773,61.9359 212.9873,62.1839 C213.7943,62.4939 214.8493,62.3699 215.5953,61.9969 C216.2783,61.5629 216.7753,60.9429 217.3953,60.3839 C217.5203,59.9479 218.0163,59.6999 217.8303,59.1419 C218.2643,59.0179 218.0783,58.5209 218.2643,58.2099 C218.3893,57.6509 219.0103,57.0929 218.5133,56.5329 C218.4513,56.1609 219.0103,56.0989 218.7613,55.7269 C219.1343,55.4159 218.8863,54.9819 218.8243,54.6709 C219.0723,54.4229 218.8863,54.1119 219.0723,53.8019 C219.0103,53.4909 219.1343,53.0559 219.0103,52.7459 C219.0723,52.6219 219.1963,52.4979 219.3213,52.4359 C219.1343,51.9389 219.4453,51.4419 219.6933,51.0079 C219.4453,50.6969 218.8863,50.5719 218.7613,50.0759 C218.7613,49.0819 218.0163,48.0259 217.0853,47.7159 C216.8993,47.7159 216.8373,47.3439 216.5893,47.4679 C215.9683,47.1569 215.2223,46.9089 214.4773,47.0959 L213.2353,46.5359 C212.6153,46.1639 211.8073,46.3509 211.1863,46.5359 C210.7523,46.9719 209.8833,46.9719 209.8213,47.6539 C210.4413,47.7159 211.0623,47.5299 211.4343,48.1509 C211.6833,48.4619 211.4973,48.8969 211.2483,49.1449 C211.3733,49.3309 211.7453,49.5789 211.5593,49.8279 C211.1863,50.6349 210.7523,51.3799 210.3173,52.1249 C209.6963,52.5599 209.7593,53.4289 209.0753,53.8629 C208.8893,53.9879 208.7023,53.7389 208.5783,53.6149 C208.1443,52.9939 208.1443,52.1879 207.7093,51.5669 C207.6473,51.3179 207.2753,51.3179 207.3373,51.0079 C207.3373,50.4479 206.4053,50.4479 206.7163,49.7659 C206.9643,49.2069 207.2133,48.7099 207.5853,48.1509 C208.0193,47.7159 208.2683,47.0329 208.8893,46.7229 C210.4413,44.9839 212.6773,44.6109 214.5393,43.6809 C215.1603,43.7419 215.0983,42.9359 215.6573,42.8729 C215.6573,42.6879 215.4083,42.6879 215.4083,42.5009 C215.5333,42.1909 215.7813,42.5009 215.9053,42.3769 C216.0303,42.0039 216.1543,41.7559 216.0303,41.3839 C215.8433,41.1349 215.5953,41.3839 215.3463,41.3839 C214.7263,40.6999 215.9683,40.7629 215.9683,40.1419 C216.8373,39.8309 217.5823,39.3339 218.3893,38.8999 C219.1963,38.8369 220.0653,38.8999 220.8733,38.6509 C221.1213,38.3409 221.3693,37.9679 221.3693,37.5329 C221.7423,37.0989 220.9973,36.9749 221.2453,36.4779 L221.2453,36.4779 Z M205.4123,54.6089 C204.9773,54.7329 204.7913,55.4159 204.3563,55.0429 C203.9843,54.4839 204.6043,54.0499 204.7283,53.5539 C204.9773,53.2429 204.9153,52.4359 205.5363,52.5599 C205.7843,52.7459 205.9703,53.0559 206.0953,53.3049 C206.1573,53.9259 205.9083,54.2359 205.4123,54.6089 L205.4123,54.6089 Z M211.5593,52.9329 C211.6213,52.6219 211.9313,52.6839 212.0553,52.4359 C212.3043,52.1879 212.4283,51.8149 212.8013,51.6279 C213.3603,50.9449 213.6703,50.1379 214.2913,49.4549 C214.5393,49.2069 214.4153,48.7099 214.7883,48.5859 C215.5953,48.4619 216.0303,49.2689 216.6513,49.7029 C217.0233,50.3869 217.5823,51.1319 217.3333,52.0009 C216.5263,52.3729 217.5203,52.8089 217.5823,53.1809 C217.4583,54.6089 217.2093,55.8509 217.0853,57.2169 L217.0853,57.7759 C216.5893,58.1489 216.7133,58.8309 216.2783,59.1419 C215.9053,60.3209 214.6633,60.7559 213.6083,61.1289 C213.2983,61.0669 212.9253,61.2529 212.8013,60.9429 C212.9873,60.3209 213.7323,60.3209 214.1673,59.8869 C214.6013,59.5759 215.2843,59.3279 215.4703,58.7699 C215.2843,58.2099 214.8493,57.7129 214.2283,57.6509 C213.2983,57.8999 212.4283,58.3339 211.4973,58.5209 C211.3733,58.5829 211.2483,58.6449 211.0623,58.5209 C210.8763,58.4579 211.0003,58.2729 211.0623,58.1489 C212.2423,57.4019 213.4843,56.8439 214.6633,56.2239 C215.3463,55.5399 216.4023,55.0429 216.0923,53.9259 C215.9053,53.3669 215.4083,53.1179 214.8493,53.0559 C213.2983,52.9939 212.1173,53.9879 210.7523,54.2979 C210.3793,53.7389 211.2483,53.3669 211.5593,52.9329 L211.5593,52.9329 Z M36.9723,26.7769 L36.9713,26.7769 L36.9713,26.7779 C35.0883,27.2229 33.1313,27.3029 31.1623,26.8239 C29.4313,26.4009 27.7073,25.5499 26.0383,24.1379 L20.4653,30.0749 C22.2303,33.2889 22.7673,39.0819 22.2643,44.3319 C22.1603,45.4229 22.0123,46.4879 21.8243,47.4999 C21.6353,48.5139 21.4003,49.4859 21.1233,50.3889 L21.1233,50.3929 L21.1053,50.4519 C18.9723,57.3929 20.4133,65.1479 24.6193,71.5059 C25.4393,72.7459 26.3643,73.9329 27.3883,75.0489 C28.4203,76.1729 29.5443,77.2219 30.7533,78.1779 L30.7683,78.1879 L30.7703,78.1909 C40.5293,85.8909 48.5343,88.9469 50.1593,89.5229 C51.9003,88.8069 60.9713,84.9179 69.4453,78.1799 C77.9573,71.4089 80.4283,63.1619 80.3033,56.8799 C80.2803,55.6589 80.1563,54.5099 79.9593,53.4589 C79.7643,52.4199 79.4993,51.4849 79.1893,50.6809 L79.1883,50.6819 L79.1223,50.5149 L79.1233,50.5149 C77.3253,46.0349 77.1373,39.3169 78.2173,34.3739 C78.4283,33.4019 78.6923,32.4899 79.0033,31.6679 C79.2243,31.0859 79.4693,30.5489 79.7373,30.0699 L74.1733,24.1369 C72.7833,25.3149 71.3553,26.1009 69.9193,26.5719 L69.9193,26.5739 C68.2413,27.1259 66.5563,27.2489 64.9083,27.0649 C58.6073,26.3639 52.9183,21.1589 50.1033,18.4859 C47.5403,20.9179 42.5933,25.4549 36.9753,26.7769 L36.9723,26.7769 Z M36.2463,24.3499 L36.2473,24.3499 C41.7693,23.0489 46.7823,18.2779 49.1763,15.9999 L49.4703,15.7199 L50.1013,15.1199 L50.7313,15.7199 L51.0063,15.9829 C53.6043,18.4579 59.3443,23.9279 65.4573,24.6069 C66.8943,24.7679 68.3603,24.6619 69.8143,24.1839 L69.8183,24.1839 C71.2833,23.7019 72.7473,22.8399 74.1713,21.4899 L74.8393,20.8599 L75.4643,21.5259 L82.2473,28.7599 L82.7493,29.2949 L82.3413,29.8989 L82.3363,29.9049 C81.9863,30.4229 81.6723,31.0589 81.3973,31.7819 C81.1143,32.5299 80.8703,33.3779 80.6693,34.2939 C79.6303,39.0599 79.7973,45.5019 81.5093,49.7599 L81.5123,49.7669 L81.5793,49.9369 L81.5793,49.9399 C81.9383,50.8689 82.2413,51.9369 82.4613,53.1089 C82.6793,54.2719 82.8163,55.5489 82.8433,56.9129 C82.9813,63.7999 80.2943,72.8229 71.0393,80.1849 C61.1903,88.0159 50.5473,92.1799 50.5173,92.1919 L50.2133,92.3119 L49.9013,92.2089 C49.8743,92.1999 40.6333,89.2379 29.1633,80.1849 L29.1493,80.1739 L29.1473,80.1719 L29.1473,80.1709 C27.8223,79.1239 26.6043,77.9889 25.5023,76.7859 C24.3863,75.5709 23.3793,74.2799 22.4883,72.9309 C17.8863,65.9769 16.3193,57.4689 18.6683,49.8309 L18.6863,49.7709 L18.6873,49.7709 C18.9473,48.9259 19.1693,47.9949 19.3533,47.0089 C19.5393,46.0179 19.6823,44.9819 19.7833,43.9309 C20.2983,38.5479 19.7343,32.6569 17.8643,29.8989 L17.4533,29.2939 L17.9543,28.7599 L24.7443,21.5259 L25.3723,20.8589 L26.0403,21.4899 C27.7103,23.0719 29.4283,23.9859 31.1393,24.4019 C32.8483,24.8189 34.5713,24.7449 36.2423,24.3499 L36.2463,24.3499 Z M67.0443,33.4849 L52.6603,33.4849 L52.6603,27.7679 L47.6533,27.7679 L47.6533,33.4849 L33.2533,33.4849 L33.2533,37.9469 L47.6533,37.9469 L47.6533,47.0529 L52.6603,47.0529 L52.6603,37.9469 L67.0443,37.9469 L67.0443,33.4849 Z M45.0803,49.1749 L45.0803,40.0699 L33.2473,40.0699 L33.2473,44.5209 L40.0763,44.5209 L40.0763,53.6319 L43.9453,53.6319 L43.9453,56.8649 L39.5303,56.8649 L39.5303,61.3179 L43.9453,61.3179 L43.9453,64.5589 L36.5223,64.5589 L36.5223,56.8909 L31.5053,56.8909 L31.5053,69.0109 L48.9533,69.0109 L48.9533,49.1749 L45.0803,49.1749 Z M63.7773,56.8909 L63.7773,64.5569 L56.3603,64.5569 L56.3603,61.3179 L60.7703,61.3179 L60.7703,56.8649 L56.3603,56.8649 L56.3603,53.6309 L60.2303,53.6309 L60.2303,44.5209 L67.0453,44.5209 L67.0453,40.0699 L55.2253,40.0699 L55.2253,49.1749 L51.3433,49.1749 L51.3433,69.0109 L68.7963,69.0109 L68.7963,56.8909 L63.7773,56.8909 Z M54.9443,76.5099 C54.9443,75.5969 55.1193,74.9009 55.4923,74.4289 C55.8733,73.9449 56.3563,73.7199 56.9573,73.7199 C57.5413,73.7199 58.0283,73.9449 58.4123,74.4219 C58.7933,74.8899 58.9783,75.5689 58.9783,76.4639 C58.9783,77.4819 58.7933,78.2139 58.4223,78.6829 C58.0563,79.1649 57.5623,79.4019 56.9653,79.4019 C56.5333,79.4019 56.1523,79.2849 55.8393,79.0249 C55.5103,78.7589 55.2853,78.4359 55.1453,78.0509 C55.0033,77.6509 54.9443,77.1299 54.9443,76.5099 L54.9443,76.5099 Z M51.7223,77.5729 C51.7223,78.0579 51.7683,78.4019 51.8763,78.6259 C51.9763,78.8329 52.1363,78.9359 52.3563,78.9359 C52.5343,78.9359 52.6733,78.8519 52.7553,78.6829 C52.8503,78.5179 52.8993,78.2139 52.8993,77.7409 C52.8993,77.1179 52.8423,76.7169 52.7373,76.5279 C52.6373,76.3549 52.4853,76.2599 52.2883,76.2599 C52.1703,76.2599 52.0523,76.2979 51.9583,76.3819 C51.8613,76.4739 51.7973,76.5949 51.7573,76.7349 C51.7313,76.8759 51.7223,77.1579 51.7223,77.5729 L51.7223,77.5729 Z M48.1133,77.1489 C48.0203,77.2159 47.9003,77.2579 47.7703,77.3089 C47.6453,77.3279 47.5033,77.3689 47.3693,77.3689 C46.8883,77.3689 46.4703,77.1949 46.1243,76.8889 C45.7793,76.5679 45.6103,76.1369 45.6103,75.6109 C45.6103,74.9789 45.8203,74.5139 46.2193,74.1929 C46.6173,73.8709 47.0763,73.7199 47.5793,73.7199 C48.1713,73.7199 48.6483,73.9229 49.0273,74.3279 C49.3983,74.7399 49.5943,75.3539 49.5943,76.1609 C49.5943,77.1379 49.3553,77.9209 48.8483,78.5059 C48.3573,79.0939 47.7223,79.4019 46.9193,79.4019 C46.5263,79.4019 46.2373,79.3339 46.0283,79.2069 C45.8373,79.0939 45.7443,78.9359 45.7443,78.7589 C45.7443,78.6279 45.7893,78.5279 45.8833,78.4429 C45.9763,78.3579 46.0883,78.3179 46.2303,78.3179 C46.3293,78.3179 46.4233,78.3539 46.5083,78.3879 C46.5823,78.4429 46.6843,78.5349 46.7793,78.6759 C46.9123,78.8439 47.0653,78.9249 47.2433,78.9249 C47.4973,78.9249 47.6923,78.8079 47.8313,78.5279 C47.9633,78.2739 48.0563,77.8099 48.1133,77.1489 L48.1133,77.1489 Z M41.4063,79.2919 L41.4063,78.8439 L41.6183,78.8439 C41.7893,78.8439 41.9273,78.8149 42.0103,78.7589 C42.1013,78.6959 42.1453,78.5649 42.1453,78.3539 L42.1453,75.2789 C42.1453,74.9809 42.1013,74.7949 42.0193,74.7249 C41.9393,74.6649 41.7033,74.6249 41.3233,74.6249 L41.3233,74.1759 C42.0783,74.1579 42.6663,73.9879 43.0933,73.6979 L43.5393,73.6979 L43.5393,78.3239 C43.5393,78.5059 43.5723,78.6479 43.6343,78.7309 C43.7013,78.8079 43.8313,78.8439 44.0543,78.8439 L44.2603,78.8439 L44.2603,79.2919 L41.4063,79.2919 Z M54.9443,76.5099 C54.9443,75.5969 55.1193,74.9009 55.4923,74.4279 C55.8733,73.9439 56.3563,73.7199 56.9573,73.7199 C57.5413,73.7199 58.0293,73.9439 58.4133,74.4219 C58.7933,74.8899 58.9783,75.5689 58.9783,76.4639 C58.9783,77.4819 58.7933,78.2129 58.4213,78.6829 C58.0563,79.1659 57.5623,79.4019 56.9653,79.4019 C56.5333,79.4019 56.1523,79.2849 55.8393,79.0249 C55.5103,78.7589 55.2843,78.4359 55.1453,78.0509 C55.0033,77.6509 54.9443,77.1309 54.9443,76.5099 L54.9443,76.5099 Z M56.3673,76.5099 C56.3673,77.3979 56.3993,78.0139 56.4733,78.3799 C56.5563,78.7529 56.7203,78.9239 56.9833,78.9239 C57.2093,78.9239 57.3533,78.7749 57.4393,78.4889 C57.5053,78.1819 57.5413,77.5469 57.5413,76.5569 C57.5413,75.6119 57.5053,74.9709 57.4273,74.6549 C57.3363,74.3369 57.1793,74.1659 56.9463,74.1659 C56.7313,74.1659 56.5843,74.3279 56.4993,74.6249 C56.4063,74.9359 56.3673,75.5609 56.3673,76.5099 L56.3673,76.5099 Z M51.7973,75.9859 C52.0403,75.8599 52.2993,75.7929 52.5923,75.7929 C53.0503,75.7929 53.4563,75.9319 53.8033,76.2299 C54.1473,76.5279 54.3173,76.9559 54.3173,77.5179 C54.3173,78.1229 54.1113,78.5899 53.7003,78.9239 C53.3103,79.2459 52.8503,79.4019 52.3673,79.4019 C51.7973,79.4019 51.3223,79.1979 50.9303,78.7869 C50.5393,78.3619 50.3433,77.7719 50.3433,77.0089 C50.3433,76.4349 50.4353,75.8839 50.6403,75.3659 C50.8363,74.8459 51.1543,74.4379 51.6043,74.1579 C52.0403,73.8549 52.5273,73.7199 53.0263,73.7199 C53.3543,73.7199 53.6353,73.7759 53.8593,73.8989 C54.0723,74.0209 54.1903,74.1659 54.1903,74.3669 C54.1903,74.4819 54.1393,74.5789 54.0473,74.6869 C53.9523,74.7849 53.8303,74.8319 53.6913,74.8319 C53.5143,74.8319 53.3273,74.7059 53.1443,74.4619 C53.0263,74.2919 52.8643,74.2039 52.6733,74.2039 C52.4323,74.2039 52.2393,74.3559 52.0883,74.6549 C51.9453,74.9429 51.8423,75.3839 51.7973,75.9859 L51.7973,75.9859 Z M51.7223,77.5739 C51.7223,78.0579 51.7693,78.4019 51.8763,78.6259 C51.9763,78.8329 52.1363,78.9359 52.3563,78.9359 C52.5343,78.9359 52.6733,78.8519 52.7553,78.6829 C52.8503,78.5189 52.8993,78.2129 52.8993,77.7409 C52.8993,77.1179 52.8413,76.7179 52.7383,76.5279 C52.6373,76.3549 52.4853,76.2599 52.2883,76.2599 C52.1703,76.2599 52.0523,76.2979 51.9583,76.3819 C51.8613,76.4739 51.7973,76.5949 51.7583,76.7349 C51.7303,76.8759 51.7223,77.1579 51.7223,77.5739 L51.7223,77.5739 Z M48.1133,77.1489 C48.0213,77.2159 47.9003,77.2579 47.7703,77.3089 C47.6463,77.3279 47.5033,77.3689 47.3693,77.3689 C46.8883,77.3689 46.4703,77.1949 46.1243,76.8889 C45.7793,76.5679 45.6103,76.1369 45.6103,75.6109 C45.6103,74.9789 45.8203,74.5139 46.2193,74.1929 C46.6173,73.8709 47.0763,73.7199 47.5793,73.7199 C48.1713,73.7199 48.6483,73.9239 49.0273,74.3279 C49.3983,74.7399 49.5933,75.3539 49.5933,76.1619 C49.5933,77.1379 49.3553,77.9209 48.8483,78.5059 C48.3573,79.0939 47.7223,79.4019 46.9183,79.4019 C46.5263,79.4019 46.2373,79.3339 46.0283,79.2069 C45.8373,79.0939 45.7443,78.9359 45.7443,78.7589 C45.7443,78.6279 45.7883,78.5269 45.8833,78.4439 C45.9763,78.3579 46.0883,78.3179 46.2293,78.3179 C46.3293,78.3179 46.4233,78.3539 46.5073,78.3879 C46.5813,78.4439 46.6843,78.5349 46.7793,78.6749 C46.9123,78.8439 47.0653,78.9239 47.2433,78.9239 C47.4973,78.9239 47.6923,78.8079 47.8303,78.5269 C47.9633,78.2749 48.0553,77.8099 48.1133,77.1489 L48.1133,77.1489 Z M47.0403,75.5969 C47.0403,76.0649 47.0903,76.3899 47.1813,76.5949 C47.2643,76.7889 47.4093,76.8759 47.6313,76.8759 C47.8303,76.8759 47.9833,76.8009 48.0773,76.6249 C48.1713,76.4599 48.2133,76.1549 48.2133,75.7159 C48.2133,75.1089 48.1713,74.7019 48.0553,74.4979 C47.9543,74.2829 47.8063,74.1659 47.6013,74.1659 C47.4853,74.1659 47.3853,74.2169 47.2863,74.2919 C47.1903,74.3669 47.1233,74.4819 47.0903,74.6349 C47.0563,74.7909 47.0403,75.1179 47.0403,75.5969 L47.0403,75.5969 Z M41.4063,79.2929 L41.4063,78.8439 L41.6183,78.8439 C41.7893,78.8439 41.9263,78.8149 42.0103,78.7589 C42.1013,78.6959 42.1443,78.5649 42.1443,78.3539 L42.1443,75.2789 C42.1443,74.9809 42.1013,74.7949 42.0183,74.7249 C41.9393,74.6659 41.7033,74.6249 41.3223,74.6249 L41.3223,74.1759 C42.0783,74.1579 42.6673,73.9879 43.0933,73.6979 L43.5393,73.6979 L43.5393,78.3229 C43.5393,78.5059 43.5723,78.6479 43.6343,78.7309 C43.7013,78.8079 43.8323,78.8439 44.0543,78.8439 L44.2603,78.8439 L44.2603,79.2929 L41.4063,79.2929 Z M56.3673,76.5099 C56.3673,77.3979 56.3993,78.0139 56.4733,78.3799 C56.5553,78.7529 56.7203,78.9249 56.9833,78.9249 C57.2093,78.9249 57.3533,78.7749 57.4383,78.4889 C57.5053,78.1819 57.5413,77.5469 57.5413,76.5569 C57.5413,75.6119 57.5053,74.9709 57.4273,74.6549 C57.3363,74.3369 57.1793,74.1649 56.9463,74.1649 C56.7313,74.1649 56.5843,74.3279 56.4993,74.6249 C56.4053,74.9359 56.3673,75.5609 56.3673,76.5099 L56.3673,76.5099 Z M51.7973,75.9859 C52.0403,75.8599 52.2993,75.7929 52.5923,75.7929 C53.0503,75.7929 53.4563,75.9319 53.8023,76.2299 C54.1473,76.5279 54.3173,76.9559 54.3173,77.5179 C54.3173,78.1229 54.1113,78.5899 53.7013,78.9249 C53.3093,79.2469 52.8503,79.4019 52.3673,79.4019 C51.7973,79.4019 51.3223,79.1979 50.9303,78.7869 C50.5393,78.3629 50.3433,77.7719 50.3433,77.0089 C50.3433,76.4349 50.4353,75.8839 50.6403,75.3669 C50.8363,74.8459 51.1543,74.4379 51.6043,74.1579 C52.0403,73.8549 52.5273,73.7199 53.0273,73.7199 C53.3543,73.7199 53.6353,73.7759 53.8593,73.8989 C54.0733,74.0219 54.1903,74.1649 54.1903,74.3669 C54.1903,74.4819 54.1393,74.5789 54.0473,74.6869 C53.9523,74.7849 53.8303,74.8319 53.6913,74.8319 C53.5143,74.8319 53.3283,74.7059 53.1443,74.4609 C53.0273,74.2919 52.8643,74.2039 52.6733,74.2039 C52.4333,74.2039 52.2393,74.3559 52.0883,74.6549 C51.9453,74.9419 51.8423,75.3849 51.7973,75.9859 L51.7973,75.9859 Z M47.0403,75.5969 C47.0403,76.0649 47.0903,76.3899 47.1813,76.5949 C47.2643,76.7889 47.4093,76.8759 47.6303,76.8759 C47.8313,76.8759 47.9833,76.8019 48.0773,76.6249 C48.1713,76.4609 48.2133,76.1549 48.2133,75.7159 C48.2133,75.1089 48.1713,74.7019 48.0563,74.4989 C47.9543,74.2819 47.8063,74.1649 47.6013,74.1649 C47.4853,74.1649 47.3863,74.2169 47.2863,74.2919 C47.1893,74.3669 47.1233,74.4819 47.0903,74.6349 C47.0563,74.7909 47.0403,75.1189 47.0403,75.5969 L47.0403,75.5969 Z M89.5663,65.8719 C88.4863,63.5899 88.5353,60.4559 89.4423,58.7599 C90.0083,57.7779 89.6803,56.1759 89.6633,56.2019 C89.6633,55.9039 94.6843,60.5049 89.5663,65.8719 L89.5663,65.8719 Z M86.9233,60.6109 C86.8863,60.6279 86.4813,59.8239 86.9733,63.5129 C87.0543,63.6549 84.0463,68.6929 87.2983,71.2219 C87.2843,71.3319 90.3153,67.2399 87.7643,62.8919 L86.9233,60.6109 Z M93.4963,66.2239 C95.2403,60.3379 94.8013,61.6089 94.4293,61.7499 C94.4733,61.7839 93.0083,65.3079 92.5273,65.5379 C92.0303,65.8389 88.8843,67.4219 88.3333,71.5699 C88.2273,71.5099 91.0673,72.9359 93.4963,66.2239 L93.4963,66.2239 Z M83.9233,67.8709 C83.8983,67.8849 83.3833,68.0989 83.8303,70.7289 C83.9793,70.8259 81.0333,76.2079 84.8633,77.4879 C84.9063,77.5879 87.6623,73.0409 84.6213,69.9519 L83.9233,67.8709 Z M91.3873,73.8559 C94.2573,68.4429 93.2303,69.8579 92.8563,69.8809 C92.8893,69.9009 91.1103,72.7989 90.5923,72.9089 C90.0693,73.0749 86.7403,73.8679 85.3323,77.8149 C85.2453,77.7299 87.6573,79.8859 91.3873,73.8559 L91.3873,73.8559 Z M81.4293,74.3179 C81.4103,74.3179 80.8723,74.4289 80.8083,77.0679 C80.9483,77.1929 77.0003,81.8129 80.4463,83.8719 C80.4803,83.9969 84.1153,80.0859 81.7313,76.4639 L81.4293,74.3179 Z M87.7583,81.7259 C91.6743,76.9069 90.3713,78.0959 90.0083,78.0679 C90.0293,78.0899 87.7043,80.6329 87.1753,80.6329 C86.6023,80.6899 83.2383,80.8519 80.9843,84.4119 C80.9223,84.2969 82.8303,86.9779 87.7583,81.7259 L87.7583,81.7259 Z M76.9703,80.2089 C76.9563,80.2229 76.3643,80.2479 76.0903,82.7709 C76.2313,82.8399 71.6563,87.0409 75.2483,89.1509 C75.2973,89.2949 79.3023,85.7709 77.0883,82.2459 L76.9703,80.2089 Z M82.4773,88.8559 C87.4813,85.1989 85.9063,85.9839 85.5833,85.8369 C85.6093,85.9019 82.7233,87.7319 82.2493,87.5979 C81.7233,87.5049 78.5013,86.6269 75.4492096,89.5889 C75.4383,89.4559 76.4243,92.6099 82.4773,88.8559 L82.4773,88.8559 Z M72.1473,84.8299 C72.1233,84.8269 71.5623,84.7769 70.7393,87.1669 C70.8523,87.2609 65.4643,90.5079 68.6033,93.2909 C68.6193,93.3929 73.2293,90.7719 71.8273,86.8819 L72.1473,84.8299 Z M75.7223,94.4519 C81.3443,91.9569 79.6703,92.3969 79.3723,92.1909 C79.3923,92.2389 76.1773,93.3929 75.7733,93.1879 C75.2543,92.9639 72.2943,91.4379 68.7213,93.7529 C68.7353,93.6289 69.0933,96.8579 75.7223,94.4519 L75.7223,94.4519 Z M66.4043,88.4549 C66.3873,88.4549 65.7973,88.2579 64.5343,90.5019 C64.6113,90.5759 58.6463,92.9239 61.3273,96.1549 C61.3193,96.2249 66.3163,94.5239 65.6723,90.3919 L66.4043,88.4549 Z M68.1003,98.5759 C73.9973,97.2109 72.3003,97.3259 72.0523,97.0529 C72.0523,97.1229 68.7283,97.6139 68.3523,97.3259 C67.9173,97.0339 65.2813,94.9479 61.3673,96.6339 C61.4023,96.5399 61.2623,99.7149 68.1003,98.5759 L68.1003,98.5759 Z M60.0263,101.2759 C65.9613,100.8959 64.2993,100.8019 64.1033,100.4559 C64.0903,100.4629 60.7963,100.4999 60.4613,100.1059 C60.0803,99.7419 57.7933,97.2649 53.6913,98.4399 C53.7313,98.3799 53.2003,101.3989 60.0263,101.2759 L60.0263,101.2759 Z M10.7343,65.8719 C11.8143,63.5899 11.7653,60.4559 10.8593,58.7599 C10.2933,57.7779 10.6203,56.1759 10.6373,56.2019 C10.6373,55.9039 5.6153,60.5049 10.7343,65.8719 L10.7343,65.8719 Z M13.3783,60.6109 C13.4143,60.6279 13.8203,59.8239 13.3273,63.5129 C13.2463,63.6549 16.2553,68.6929 13.0023,71.2219 C13.0163,71.3319 9.9863,67.2399 12.5373,62.8919 L13.3783,60.6109 Z M6.8043,66.2239 C5.0603,60.3379 5.4993,61.6089 5.8713,61.7499 C5.8273,61.7839 7.2933,65.3079 7.7733,65.5379 C8.2703,65.8389 11.4163,67.4219 11.9683,71.5699 C12.0733,71.5099 9.2333,72.9359 6.8043,66.2239 L6.8043,66.2239 Z M16.3783,67.8709 C16.4023,67.8849 16.9173,68.0989 16.4703,70.7289 C16.3213,70.8259 19.2663,76.2079 15.4373,77.4879 C15.3943,77.5879 12.6383,73.0409 15.6793,69.9519 L16.3783,67.8709 Z M8.9133,73.8559 C6.0443,68.4429 7.0703,69.8579 7.4443,69.8809 C7.4113,69.9009 9.1913,72.7989 9.7093,72.9089 C10.2323,73.0749 13.5603,73.8679 14.9693,77.8149 C15.0553,77.7299 12.6433,79.8859 8.9133,73.8559 L8.9133,73.8559 Z M18.8713,74.3179 C18.8903,74.3179 19.4283,74.4289 19.4923,77.0679 C19.3523,77.1929 23.3003,81.8129 19.8553,83.8719 C19.8203,83.9969 16.1853,80.0859 18.5693,76.4639 L18.8713,74.3179 Z M12.5433,81.7259 C8.6263,76.9069 9.9303,78.0959 10.2933,78.0679 C10.2713,78.0899 12.5963,80.6329 13.1253,80.6329 C13.6983,80.6899 17.0633,80.8519 19.3163,84.4119 C19.3793,84.2969 17.4703,86.9779 12.5433,81.7259 L12.5433,81.7259 Z M23.3303,80.2089 C23.3443,80.2229 23.9363,80.2479 24.2103,82.7709 C24.0703,82.8399 28.6453,87.0409 25.0523,89.1509 C25.0043,89.2949 20.9983,85.7709 23.2133,82.2459 L23.3303,80.2089 Z M17.8233,88.8559 C12.8193,85.1989 14.3953,85.9839 14.7173,85.8369 C14.6913,85.9019 17.5773,87.7319 18.0513,87.5979 C18.5773,87.5049 21.8003,86.6269 24.8513,89.5889 C24.8633,89.4559 23.8773,92.6099 17.8233,88.8559 L17.8233,88.8559 Z M28.1533,84.8299 C28.1773,84.8269 28.7383,84.7769 29.5613,87.1669 C29.4483,87.2609 34.8373,90.5079 31.6973,93.2909 C31.6813,93.3929 27.0713,90.7719 28.4733,86.8819 L28.1533,84.8299 Z M24.5783,94.4519 C18.9563,91.9569 20.6313,92.3969 20.9283,92.1909 C20.9083,92.2389 24.1233,93.3929 24.5283,93.1879 C25.0473,92.9639 28.0073,91.4379 31.5793,93.7529 C31.5663,93.6289 31.2073,96.8579 24.5783,94.4519 L24.5783,94.4519 Z M33.8973,88.4549 C33.9133,88.4549 34.5043,88.2579 35.7663,90.5019 C35.6893,90.5759 41.6553,92.9239 38.9733,96.1549 C38.9813,96.2249 33.9853,94.5239 34.6283,90.3919 L33.8973,88.4549 Z M32.2003,98.5759 C26.3033,97.2109 28.0003,97.3259 28.2483,97.0529 C28.2483,97.1229 31.5723,97.6139 31.9483,97.3259 C32.3833,97.0339 35.0193,94.9479 38.9333,96.6339 C38.8983,96.5399 39.0383,99.7149 32.2003,98.5759 L32.2003,98.5759 Z M40.2753,101.2759 C34.3393,100.8959 36.0013,100.8019 36.1983,100.4559 C36.2103,100.4629 39.5053,100.4999 39.8403,100.1059 C40.2203,99.7419 42.5083,97.2649 46.6103,98.4399 C46.5693,98.3799 47.1003,101.3989 40.2753,101.2759 L40.2753,101.2759 Z M51.1943,99.1439 L51.4133,99.2529 L51.7873,99.4209 L51.9833,99.5019 C52.3983,99.7629 52.5443,100.1339 51.9833,100.3779 C51.7283,100.4309 51.4733,100.3549 51.2503,100.2289 L51.0833,100.1279 L50.9373,100.0469 L50.7883,99.9369 L50.6443,99.8309 L50.4913,99.7409 L50.3383,99.6509 L50.1763,99.5749 L50.1243,99.5749 L49.9633,99.6509 L49.8093,99.7409 L49.6563,99.8309 L49.5113,99.9369 L49.3633,100.0469 C48.9573,100.2729 48.6443,100.5199 48.1733,100.3149 C47.8093,99.9949 47.9363,99.7409 48.3173,99.5019 L48.5133,99.4209 L49.0993,99.1249 L48.7813,98.9389 L48.4673,98.7649 L48.1523,98.5819 L47.8513,98.3799 L47.5313,98.1949 L47.2313,98.0199 L46.7283,97.7249 C46.6853,97.8029 46.6383,97.8819 46.5883,97.9619 C46.6013,98.0059 41.4653,96.9799 41.4103,92.8539 L40.3653,91.0299 C40.3833,91.0039 40.9153,90.8039 42.5833,92.7739 C42.5303,92.8489 47.2893,93.9999 47.0743,96.6389 L47.2253,96.7939 L47.5163,97.0339 L47.8453,97.2719 L48.1573,97.4919 L48.4943,97.7159 L48.8433,97.9189 L49.1863,98.1219 L49.5563,98.3089 L49.9273,98.5199 L50.1583,98.6409 L50.3733,98.5199 L50.7443,98.3089 L51.1143,98.1219 L51.4583,97.9189 L51.8063,97.7159 L52.1433,97.4919 L52.4553,97.2719 L52.7833,97.0339 L53.2303,96.6829 C52.9593,94.0129 57.7713,92.8489 57.7173,92.7739 C59.3863,90.8039 59.9183,91.0039 59.9353,91.0299 L58.8903,92.8539 C58.8353,96.9799 53.6983,98.0059 53.7133,97.9619 C53.6633,97.8829 53.6173,97.8049 53.5753,97.7289 L53.0693,98.0199 L52.7693,98.1949 L52.4493,98.3799 L52.1483,98.5819 L51.8333,98.7649 L51.5183,98.9389 L51.1943,99.1439 Z M74.7893,14.4029 L73.6863,13.6679 L77.4273,8.0689 L78.5383,8.8089 L74.7893,14.4029 Z M83.2423,12.4609 L84.3083,13.3439 L78.3333,17.1289 L77.3653,16.3199 L79.9873,9.7639 L81.0923,10.6799 L78.9063,15.5029 L83.2423,12.4609 Z M88.0063,19.0389 L85.7803,16.5779 L84.7233,17.5369 L86.7573,19.7949 L85.9003,20.5689 L83.8553,18.3259 L82.5783,19.4869 L84.9073,22.0609 L84.0093,22.8779 L80.7883,19.3339 L85.7803,14.8109 L88.8913,18.2429 L88.0063,19.0389 Z M90.2333,21.9989 L88.7263,22.9949 L89.5223,24.2049 C89.6813,24.4399 89.8343,24.5979 89.9733,24.6849 C90.2173,24.8179 90.5063,24.7919 90.8183,24.5839 C91.1543,24.3499 91.3203,24.0919 91.2993,23.8139 C91.2863,23.6539 91.2043,23.4589 91.0533,23.2299 L90.2333,21.9989 Z M92.5983,23.7539 C92.6413,24.0099 92.6103,24.2659 92.5333,24.5139 C92.4723,24.7219 92.3773,24.9199 92.2433,25.0929 C92.1173,25.2759 91.9433,25.4329 91.7193,25.5949 C91.4593,25.7639 91.1483,25.8699 90.8133,25.9219 C90.4703,25.9649 90.1423,25.8699 89.8413,25.6499 C89.9043,25.9699 89.8783,26.2349 89.7523,26.4689 C89.6193,26.6969 89.3673,26.9429 88.9773,27.2049 L88.6063,27.4519 C88.3423,27.6239 88.1813,27.7509 88.0983,27.8349 C87.9733,27.9599 87.9173,28.0939 87.9233,28.2459 L87.7773,28.3419 L86.9553,27.1149 C87.0563,26.9999 87.1393,26.9019 87.2103,26.8459 C87.3423,26.7099 87.4983,26.5849 87.6563,26.4769 L88.1753,26.1149 C88.5303,25.8769 88.7333,25.6659 88.7773,25.4749 C88.8093,25.2709 88.7333,25.0229 88.5303,24.7079 L87.7983,23.6169 L85.6013,25.0839 L84.8803,23.9959 L90.4773,20.2639 L92.1803,22.8179 C92.4103,23.1879 92.5573,23.4889 92.5983,23.7539 L92.5983,23.7539 Z M90.7643,29.6189 C90.4973,29.7819 90.3313,29.9539 90.2453,30.1309 C90.0873,30.4539 90.1233,30.8559 90.3513,31.3369 C90.4843,31.6249 90.6293,31.8459 90.7833,32.0009 C91.0733,32.2929 91.3853,32.3499 91.7323,32.1819 C91.9263,32.0969 92.0473,31.9399 92.0753,31.7139 C92.1013,31.4899 92.0753,31.1789 91.9853,30.7709 L91.8313,30.0769 C91.6903,29.3979 91.6513,28.9039 91.7053,28.5869 C91.8033,28.0639 92.1533,27.6689 92.7433,27.3849 C93.2913,27.1339 93.8363,27.1149 94.3723,27.3239 C94.9173,27.5409 95.3623,28.0179 95.7063,28.7459 C95.9983,29.3749 96.0753,29.9749 95.9363,30.5769 C95.8033,31.1689 95.4193,31.6249 94.7863,31.9499 L94.2303,30.7909 C94.5883,30.5989 94.7763,30.3159 94.7903,29.9539 C94.8043,29.7209 94.7423,29.4529 94.6003,29.1679 C94.4553,28.8539 94.2673,28.6239 94.0513,28.4999 C93.8253,28.3719 93.5963,28.3629 93.3663,28.4689 C93.1483,28.5809 93.0343,28.7419 93.0093,28.9789 C92.9963,29.1319 93.0343,29.4329 93.1213,29.8619 L93.3443,31.0029 C93.4433,31.4899 93.4503,31.8989 93.3753,32.2119 C93.2473,32.6919 92.9213,33.0539 92.3773,33.3159 C91.8193,33.5699 91.2523,33.5849 90.7023,33.3479 C90.1423,33.1089 89.6813,32.6179 89.3343,31.8739 C88.9773,31.1119 88.8723,30.4179 89.0313,29.8149 C89.1863,29.2089 89.5853,28.7539 90.2173,28.4589 L90.7643,29.6189 Z M91.3443,36.4609 L90.9033,35.1999 L97.2663,32.9839 L97.7073,34.2379 L91.3443,36.4609 Z M99.4803,40.8509 L98.3213,41.1299 L97.8733,39.2539 L92.4883,40.5579 L92.1673,39.2509 L97.5533,37.9489 L97.1063,36.0759 L98.2573,35.7889 L99.4803,40.8509 Z M100.1563,46.4459 L100.3013,47.9539 L95.9123,46.2319 L93.3933,46.4869 L93.2633,45.1549 L95.7793,44.9099 L99.7393,42.2819 L99.8893,43.8519 L97.1063,45.4679 L100.1563,46.4459 Z M48.2723,4.2329 L49.9113,4.1929 L49.0383,1.5539 L48.2723,4.2329 Z M48.2553,0.0389 L49.7713,-0.0001 L52.1993,6.6759 L50.7473,6.7089 L50.2953,5.3499 L47.9283,5.3959 L47.5313,6.7849 L46.1243,6.8209 L48.2553,0.0389 Z M54.0773,0.1109 L55.4013,0.2599 L54.7553,5.7569 L57.9233,6.1289 L57.7733,7.3359 L53.2763,6.8009 L54.0773,0.1109 Z M63.7643,1.8099 L65.0523,2.2439 L63.7383,6.1649 C63.5913,6.6029 63.5263,6.9399 63.5633,7.1769 C63.5963,7.5919 63.8673,7.8809 64.3773,8.0579 C64.8933,8.2269 65.2783,8.1589 65.5593,7.8509 C65.7233,7.6839 65.8853,7.3749 66.0313,6.9399 L67.3503,3.0159 L68.6483,3.4529 L67.3233,7.3739 C67.0903,8.0579 66.8133,8.5459 66.4843,8.8579 C65.8853,9.4159 65.0523,9.5279 64.0083,9.1759 C62.9543,8.8229 62.3533,8.2309 62.2133,7.4159 C62.1363,6.9749 62.2133,6.4099 62.4523,5.7269 L63.7643,1.8099 Z M71.0303,4.4839 L72.2693,5.1249 L72.3593,10.4489 L74.5263,6.3059 L75.6343,6.8749 L72.5223,12.8529 L71.3343,12.2249 L71.2263,6.7919 L69.0263,11.0289 L67.9163,10.4429 L71.0303,4.4839 Z M39.5193,1.8289 C39.9303,1.1899 40.5323,0.8039 41.3223,0.6569 C42.3673,0.4799 43.1983,0.7049 43.8213,1.3519 C44.1553,1.6989 44.3713,2.0989 44.4683,2.5109 L43.1493,2.7419 C43.0113,2.4399 42.8523,2.2229 42.7023,2.0799 C42.4073,1.8339 42.0383,1.7559 41.5773,1.8339 C41.1113,1.9159 40.7773,2.1859 40.5823,2.6369 C40.3793,3.0939 40.3423,3.6999 40.4763,4.4339 C40.6093,5.1809 40.8543,5.7159 41.2003,6.0319 C41.5503,6.3419 41.9533,6.4639 42.3853,6.3959 C42.8403,6.3129 43.1623,6.0839 43.3453,5.7289 C43.4343,5.5269 43.5033,5.2549 43.5253,4.8949 L44.8373,4.6649 C44.8573,5.4059 44.6683,6.0399 44.2933,6.5829 C43.9093,7.1209 43.3523,7.4529 42.6253,7.5789 C41.7273,7.7349 40.9693,7.5619 40.3423,7.0379 C39.7213,6.5159 39.3103,5.7239 39.1233,4.6539 C38.9183,3.4989 39.0443,2.5599 39.5193,1.8289 L39.5193,1.8289 Z M0.4133,43.4239 L1.6023,43.5269 L1.4453,45.4359 L6.9733,45.8729 L6.8673,47.2269 L1.3383,46.7829 L1.1863,48.6989 L0.0003,48.6039 L0.4133,43.4239 Z M5.1993,40.6669 L5.5673,39.0749 L2.7983,39.2689 L5.1993,40.6669 Z M1.1353,39.6569 L1.4783,38.1829 L8.5353,37.4479 L8.2133,38.8689 L6.7763,38.9789 L6.2433,41.2809 L7.5053,42.0159 L7.1873,43.3759 L1.1353,39.6569 Z M9.3713,35.2889 L8.9323,36.5509 L2.5773,34.3369 L3.0113,33.0839 L9.3713,35.2889 Z M6.4273,28.5999 C6.2193,28.6929 6.0503,28.8789 5.9223,29.1589 L5.4093,30.2499 L7.2003,31.0889 L7.7123,29.9859 C7.8453,29.7209 7.8733,29.4589 7.7963,29.2449 C7.7253,29.0199 7.5293,28.8379 7.2083,28.6889 C6.8983,28.5459 6.6373,28.5149 6.4273,28.5999 L6.4273,28.5999 Z M9.0533,28.6989 C9.1913,29.1859 9.1073,29.7399 8.8213,30.3729 L8.2493,31.5739 L10.4463,32.6079 L9.8813,33.8099 L3.7833,30.9609 L4.9473,28.4639 C5.2213,27.8909 5.5943,27.5069 6.0623,27.3099 C6.5373,27.1219 7.1053,27.1699 7.7693,27.4829 C8.4773,27.8219 8.9123,28.2319 9.0533,28.6989 L9.0533,28.6989 Z M10.5403,21.3299 L8.7183,24.1139 L9.9033,24.8929 L11.5763,22.3409 L12.5523,22.9839 L10.8753,25.5329 L12.3313,26.4799 L14.2333,23.5709 L15.2463,24.2439 L12.6163,28.2389 L6.9973,24.5549 L9.5343,20.6729 L10.5403,21.3299 Z M16.9233,22.2309 L16.0863,23.2619 L10.8653,19.0089 L11.7033,17.9749 L16.9233,22.2309 Z M18.6263,11.1509 L20.0973,9.9019 L24.4543,15.0269 L23.5113,15.8299 L20.5593,12.3639 C20.4753,12.2639 20.3553,12.1159 20.2103,11.9349 C20.0583,11.7659 19.9453,11.6219 19.8553,11.5249 L22.5893,16.6159 L21.5893,17.4629 L17.0053,13.9389 C17.0933,14.0439 17.2073,14.1849 17.3683,14.3579 C17.5243,14.5389 17.6393,14.6819 17.7253,14.7749 L20.6723,18.2429 L19.7363,19.0409 L15.3743,13.9199 L16.8533,12.6639 L21.1723,15.9329 L18.6263,11.1509 Z M26.8523,7.0379 L24.0123,8.7569 L24.7513,9.9809 L27.3593,8.3969 L27.9653,9.3909 L25.3533,10.9809 L26.2613,12.4609 L29.2253,10.6539 L29.8543,11.6899 L25.7643,14.1689 L22.2663,8.4179 L26.2393,6.0149 L26.8523,7.0379 Z M30.1273,5.4269 L31.8233,9.4869 L32.9743,9.0109 C33.5543,8.7629 33.8333,8.2909 33.8083,7.5919 C33.7983,7.2039 33.7003,6.7849 33.5043,6.3249 C33.2443,5.6929 32.9483,5.2369 32.6113,4.9839 C32.2843,4.7259 31.8313,4.7129 31.2723,4.9529 L30.1273,5.4269 Z M32.0053,3.5349 C32.4793,3.5059 32.9223,3.6239 33.3353,3.8959 C33.6783,4.1259 33.9583,4.4009 34.1813,4.7339 C34.4113,5.0639 34.5933,5.3809 34.7253,5.7149 C35.0683,6.5369 35.2053,7.3049 35.1323,8.0069 C35.0243,8.9639 34.5223,9.6179 33.6303,9.9979 L31.0753,11.0619 L28.4783,4.8469 L31.0273,3.7859 C31.3983,3.6319 31.7243,3.5549 32.0053,3.5349 L32.0053,3.5349 Z M38.5013,8.3139 L37.2303,8.6899 L35.3313,2.2259 L36.6053,1.8539 L38.5013,8.3139 Z" id="Fill-1" fill="#8F2926" mask="url(#mask-2)"></path>
                    </g>
                </g>
            </g>
        </g>
    </g>
</svg>