<?xml version="1.0" encoding="UTF-8"?>
<svg viewBox="0 0 164 137" version="1.1" xmlns="http://www.w3.org/2000/svg" xmlns:xlink="http://www.w3.org/1999/xlink">
    <!-- Generator: Sketch 63.1 (92452) - https://sketch.com -->
    <title>logos/oeglobal-color-vert</title>
    <desc>Created with Sketch.</desc>
    <g id="Page-1" stroke="none" stroke-width="1" fill="none" fill-rule="evenodd">
        <g id="Home---Tablet-Landscape" transform="translate(-430.000000, -2770.000000)">
            <g id="home/desktop/section-left" transform="translate(48.000000, 2595.000000)">
                <g id="logos/oeglobal-color-vert" transform="translate(372.000000, 162.000000)">
                    <g id="oeg-mainV-RGB" transform="translate(9.000000, 12.000000)">
                        <g id="Icon-link" transform="translate(22.764000, 0.396000)" fill="#0D6AE5" fill-rule="nonzero">
                            <g id="Icon">
                                <path d="M60.44472,79.48344 C53.85996,79.48344 47.838,75.12576 43.48032,67.19832 C39.46032,59.96232 37.28148,50.35452 37.28148,40.22412 C37.28148,30.09372 39.48444,20.502 43.48032,13.24188 C47.838,5.32248 53.868,0.95676 60.44472,0.95676 C62.3673999,0.95676 63.92604,2.51540005 63.92604,4.43808 C63.92604,6.36075995 62.3673999,7.9194 60.44472,7.9194 C56.51316,7.9194 52.65396,10.99872 49.57464,16.59456 C46.13352,22.84968 44.22,31.2354 44.22,40.2 C44.22,49.1646 46.11744,57.5664 49.55856,63.82152 C52.63788,69.44952 56.49708,72.50472 60.42864,72.50472 C64.3602,72.50472 68.22744,69.41736 71.30676,63.82152 C74.772,57.59052 76.6614,49.2048 76.6614,40.2 C76.5997274,38.9177887 77.2486786,37.705681 78.349965,37.0461072 C79.4512514,36.3865333 80.8261486,36.3865333 81.927435,37.0461072 C83.0287214,37.705681 83.6776726,38.9177887 83.616,40.2 C83.616,50.3304 81.41304,59.91408 77.41716,67.1742 C73.05948,75.12576 67.03752,79.48344 60.44472,79.48344 Z" id="Path"></path>
                                <path d="M9.9294,57.99252 C9.90333319,57.9363724 9.90247725,57.871767 9.92704738,57.8149486 C9.95161752,57.7581302 9.99927627,57.7145041 10.05804,57.69504 C22.7431505,54.2171003 35.7542102,52.0616131 48.8832,51.26304 C52.75044,51.02184 56.67396,50.90928 60.55728,50.90928 C70.4719091,50.9117445 80.3716238,51.6778099 90.1686,53.20068 L93.60972,53.73132 L92.53236,60.61356 L89.09124,60.07488 C79.6501601,58.6145245 70.1106358,57.8834029 60.55728,57.888 C56.81868,57.888 53.03184,58.0086 49.30128,58.23372 C37.1006357,58.9836131 25.0050363,60.9470271 13.19364,64.09488 C13.0654948,64.131484 12.9296302,64.0703449 12.87204,63.95016 L9.9294,57.99252 Z" id="Path"></path>
                                <path d="M0.804,43.84212 C0.777140804,43.7914584 0.773197829,43.7317372 0.793163259,43.6779841 C0.81312869,43.624231 0.855101528,43.5815642 0.90852,43.56072 C3.51348,42.70848 6.18276,41.90448 8.86008,41.14872 L8.86008,41.14872 L9.94548,40.85124 C22.6915856,37.3647244 35.764845,35.2091994 48.95556,34.41924 C52.61376,34.2102 56.32824,34.09764 60.0186,34.09764 C65.26068,34.09764 70.58316,34.32276 75.84936,34.74888 L76.50864,34.80516 L78.0282,34.9338 L78.14076,34.9338 C81.45324,35.23932 84.87024,35.6574 88.31136,36.16392 L90.41784,36.4614 L90.41784,36.4614 C91.22184,36.582 92.02584,36.71064 92.82984,36.84732 L92.87808,36.84732 L96.5604,37.51464 L99.35832,37.93272 C99.6339579,37.9922505 99.8229891,38.2465834 99.80052,38.52768 L99.31812,45.11244 L95.24184,44.35668 C94.07604,44.13156 92.82984,43.90644 91.50324,43.68132 L89.17164,43.416 C88.0782,43.23912 86.92848,43.07028 85.52952,42.87732 C84.32352,42.70848 83.26224,42.5718 82.31352,42.45924 L79.97388,42.20196 C73.3860588,41.4919077 66.7651719,41.1322811 60.1392,41.1246 C41.2488114,41.1275605 22.4709219,44.0316933 4.4622,49.73544 C4.32010319,49.7848326 4.16319743,49.7234347 4.09236,49.59072 L0.804,43.84212 Z" id="Path"></path>
                                <path d="M69.33696,18.894 C69.3460167,18.8252468 69.3260195,18.7558288 69.2817748,18.70243 C69.2375301,18.6490312 69.1730385,18.6164801 69.1038,18.6126 C66.08076,18.46788 63.0336,18.39552 60.02664,18.39552 C56.32824,18.39552 52.5816,18.50808 48.90732,18.71712 C35.7629791,19.4922988 22.7335994,21.6207542 10.02588,25.06872 C9.99258468,25.0771517 9.96496101,25.1003237 9.95086648,25.1316449 C9.93677195,25.1629661 9.93774911,25.1990085 9.95352,25.22952 L13.03284,31.356 C13.0638615,31.4137591 13.1298372,31.4434482 13.19364,31.42836 C25.0131626,28.3114502 37.1144781,26.3829966 49.31736,25.67172 C52.85496,25.46268 56.45688,25.35816 60.02664,25.35816 C61.63464,25.35816 65.7672,25.43856 67.95408,25.4868 C68.3168791,25.4929121 68.6241152,25.2205891 68.6616,24.85968 L69.33696,18.894 Z" id="Path"></path>
                                <path d="M63.69288,79.54776 C47.1924449,80.940934 31.5791311,71.8776021 24.6059406,56.8582843 C17.6327501,41.8389666 20.7851126,24.0630794 32.49768,12.35748 C44.951485,-0.0955228612 64.1508831,-2.78580078 79.54776,5.76468 C85.0874189,8.84572248 89.8075339,13.2101746 93.31224,18.492 C93.4326751,18.6880452 93.3757309,18.9442939 93.1836,19.07088 L87.84504,22.52004 C87.7506806,22.5826736 87.6349478,22.6043458 87.524319,22.5800984 C87.4136902,22.555851 87.3176318,22.4877588 87.25812,22.3914 C81.155006,13.2140504 70.7932633,7.78256316 59.7736899,7.98442859 C48.7541166,8.18629402 38.5982558,13.9936393 32.83536,23.38836 C31.0493654,26.2306103 29.7555392,29.3537328 29.00832,32.62632 C26.3794935,43.5626105 29.6238331,55.0791918 37.5747732,63.0350531 C45.5257133,70.9909144 57.040285,74.2423792 67.9782,71.62032 C71.239393,70.8689502 74.3512621,69.5752824 77.184,67.79328 C86.7732603,61.9205208 92.6198893,51.4848971 92.6208,40.2402 L92.6208,38.08548 L97.90308,37.80408 L99.66384,38.06136 C99.7547251,38.0766859 99.8220828,38.1541472 99.8246413,38.24628 L99.8246413,40.2402 C99.8298632,60.7430314 84.123609,77.8297864 63.69288,79.54776 Z" id="Path"></path>
                            </g>
                        </g>
                        <g id="Type-link" transform="translate(0.396000, 89.136000)" fill="#333333" fill-rule="nonzero">
                            <g id="Type">
                                <g id="Type_2">
                                    <path d="M14.6328,48.3204 C10.9764476,48.4383318 7.42173027,47.1060353 4.7436,44.61396 C2.1306083,42.1830255 0.694504033,38.7422369 0.804,35.175 L0.804,35.10264 C0.736321139,31.5700857 2.15039554,28.1704759 4.7034,25.728 C7.30551622,23.1789358 10.8306891,21.794979 14.472,21.89292 C18.2478044,21.8117914 21.9198164,23.1322263 24.77928,25.59936 L20.65476,30.552 C18.9689321,29.0325344 16.7894961,28.1756133 14.52024,28.14 C12.7556155,28.1078244 11.065704,28.8513855 9.89724,30.17412 C8.6535425,31.5245745 7.98703101,33.3077092 8.04,35.14284 L8.04,35.2152 C7.97319059,37.0978664 8.6756606,38.9266107 9.98568,40.2804 C11.2877124,41.6026911 13.0836119,42.3198848 14.93832,42.25824 C16.3684231,42.3144475 17.7833975,41.9481201 19.00656,41.205 L19.00656,38.11764 L13.98156,38.11764 L13.98156,32.964 L25.66368,32.964 L25.66368,44.39688 C22.5752423,46.9835456 18.6609781,48.3757912 14.6328,48.3204 Z" id="Path"></path>
                                    <path d="M32.45748,44.92752 L32.45748,22.41552 L39.49248,22.41552 L39.49248,41.63916 L51.80172,41.63916 L51.80172,47.80584 L35.376,47.80584 C34.6056808,47.8165997 33.8631989,47.5181057 33.3146833,46.9771453 C32.7661677,46.436185 32.45748,45.6979143 32.45748,44.92752 Z" id="Path"></path>
                                    <path d="M78.0282,44.46924 C75.424832,47.0282536 71.8926921,48.4184713 68.24352,48.3204 C64.6131817,48.4227996 61.096706,47.0475442 58.49904,44.50944 C55.9481125,42.0822122 54.5333569,38.69555 54.59964,35.175 L54.59964,35.10264 C54.5354093,31.5626612 55.9655827,28.1594324 58.53924,25.728 C61.1486691,23.1699927 64.6874766,21.7852419 68.34,21.89292 C71.9683068,21.801316 75.4786378,23.1851407 78.0684,25.728 C80.6266532,28.1400232 82.0558036,31.5145681 82.008,35.03028 L82.008,35.10264 C82.0595688,38.6459636 80.6145923,42.0467668 78.0282,44.46924 Z M63.65268,39.95076 C64.861017,41.2291175 66.5401932,41.9568112 68.2992323,41.9644665 C70.0582714,41.9720016 71.7436689,41.2588353 72.963,39.99096 C74.1736861,38.6808854 74.8255736,36.9502107 74.78004,35.16696 L74.78004,35.0946 C74.8092515,33.3082186 74.14666,31.5797193 72.93084,30.2706 C71.738187,28.9455312 70.0257283,28.2082634 68.24352,28.25256 C66.486375,28.1984799 64.7948316,28.9221663 63.62052,30.2304 C62.4207896,31.5461184 61.7755785,33.2743625 61.81956,35.0544 L61.81956,35.12676 C61.7884849,36.9104925 62.4448641,38.6378061 63.65268,39.95076 L63.65268,39.95076 Z" id="Shape"></path>
                                    <path d="M87.29832,47.80584 L87.29832,22.39944 L100.33116,22.39944 C103.42656,22.39944 105.74208,23.16324 107.26164,24.69084 C108.341318,25.7766549 108.923392,27.260943 108.86964,28.79124 L108.86964,28.8636 C108.86964,31.50072 107.5618,33.37672 104.94612,34.4916 C106.380483,34.892065 107.678566,35.6759176 108.7008,36.75888 C109.606704,37.8656766 110.068149,39.2700733 109.99524,40.69848 L109.99524,40.77084 C110.065424,42.801473 109.110945,44.7315744 107.4546,45.9084 C105.76084,47.15192 103.39976,47.77368 100.37136,47.77368 L87.29832,47.80584 Z M94.16448,32.52984 L98.58648,32.52984 C100.81624,32.52984 101.93112,31.79016 101.93112,30.3108 L101.93112,30.23844 C101.93112,28.79124 100.8618,28.06764 98.71512,28.06764 L94.14036,28.06764 L94.16448,32.52984 Z M94.16448,42.17784 L99.60756,42.17784 C100.475923,42.2254026 101.339304,42.0186383 102.09192,41.58288 C102.675516,41.2062771 103.015293,40.5481512 102.98436,39.85428 L102.98436,39.78192 C102.98436,38.25968 101.83464,37.49856 99.5352,37.49856 L94.16448,37.49856 L94.16448,42.17784 Z" id="Shape"></path>
                                    <path d="M112.73688,47.80584 L123.55068,22.22256 L130.34448,22.22256 L141.15828,47.80584 L133.60872,47.80584 L131.75952,43.27128 L121.95876,43.27128 L120.14172,47.80584 L112.73688,47.80584 Z M123.99288,37.788 L129.69324,37.788 L126.86316,30.552 L123.99288,37.788 Z" id="Shape"></path>
                                    <path d="M144.88884,44.92752 L144.88884,22.41552 L151.956,22.41552 L151.956,41.63916 L164.2572,41.63916 L164.2572,47.80584 L147.76716,47.80584 C146.177508,47.80584 144.88884,46.5171722 144.88884,44.92752 Z" id="Path"></path>
                                    <path d="M14.7534,13.04088 C13.3019992,14.5198582 11.3014142,15.3294109 9.22992,15.276 C7.17060724,15.3404947 5.17664085,14.5487299 3.72252,13.08912 C2.27464168,11.6801098 1.48175295,9.72995338 1.53564,7.71036 L1.53564,7.67016 C1.49618687,5.65081327 2.29693083,3.70573339 3.74664,2.29944 C5.20378489,0.831771545 7.20273219,0.0316106866 9.27012,0.08844 C11.3284163,0.0297269491 13.3201726,0.820614128 14.77752,2.27532 C16.2118123,3.68352415 17.0028053,5.62029378 16.9644,7.62996 L16.9644,7.62996 C17.0121634,9.66263249 16.21099,11.6233222 14.7534,13.04088 Z M6.11844,10.94244 C6.92549158,11.8236752 8.07564291,12.3107291 9.27012,12.27708 C10.456169,12.3207962 11.6009193,11.8381765 12.39768,10.95852 C13.2108926,10.0876256 13.6522266,8.93381135 13.6278,7.74252 L13.6278,7.67016 C13.6554085,6.46095252 13.2080196,5.28908225 12.3816,4.40592 C11.5760128,3.52171271 10.4256602,3.03163904 9.22992,3.06324 C8.04311208,3.02805147 6.89932001,3.5090307 6.09432,4.3818 C5.28839236,5.2566594 4.85069286,6.40850018 4.87224,7.5978 L4.87224,7.5978 C4.82496451,8.83426206 5.27361142,10.0383725 6.11844,10.94244 L6.11844,10.94244 Z" id="Shape"></path>
                                    <path d="M19.40856,17.51916 L19.40856,3.08736 L22.56024,3.08736 L22.56024,4.69536 C23.3399238,3.55158509 24.6413705,2.87519516 26.02548,2.8944 C27.3768459,2.881091 28.6718274,3.43524976 29.59524,4.422 C30.6291987,5.5676317 31.16442,7.07782368 31.08264,8.61888 L31.08264,8.61888 C31.1778761,10.1749283 30.644965,11.7041515 29.60328,12.864 C28.6843821,13.8638154 27.3833084,14.4251775 26.02548,14.40768 C24.6740763,14.423619 23.3926084,13.8081576 22.56024,12.7434 L22.56024,17.51916 L19.40856,17.51916 Z M23.316,10.87008 C23.7955306,11.4253084 24.4959457,11.7402009 25.22952,11.73036 C25.9667113,11.7436665 26.6724255,11.4319761 27.15912,10.87812 C27.7096675,10.2736515 27.9987027,9.47591453 27.96312,8.65908 L27.96312,8.65908 C27.9944205,7.84773246 27.7056755,7.05657116 27.15912,6.45612 C26.6761179,5.89538128 25.9695275,5.57741561 25.22952,5.5878 C24.4980891,5.57170614 23.7972067,5.88091894 23.316,6.432 C22.7724217,7.03424853 22.4841345,7.82415534 22.512,8.63496 L22.512,8.63496 C22.4782417,9.45634377 22.7667546,10.2584098 23.316,10.87008 L23.316,10.87008 Z" id="Shape"></path>
                                    <path d="M38.592,14.472 C37.0405932,14.5239214 35.5346144,13.9435827 34.41924,12.864 C33.331223,11.7704564 32.748463,10.2727633 32.81124,8.73144 L32.81124,8.6832 C32.7747797,7.16499178 33.3347325,5.692951 34.371,4.5828 C35.3750597,3.47320372 36.8147849,2.85911685 38.3106,2.90244 C39.8512865,2.80472968 41.3456749,3.45030546 42.3306,4.63908 C43.2769849,5.86618277 43.7685504,7.38350046 43.72152,8.93244 C43.72152,9.10128 43.72152,9.37464 43.72152,9.73644 L35.9388,9.73644 C36.0509919,10.3654081 36.3812032,10.9347379 36.87144,11.34444 C37.3846104,11.729683 38.015184,11.9256721 38.65632,11.8992 C39.6693378,11.8877151 40.6370316,11.4775284 41.34972,10.75752 L43.15068,12.36552 C42.0566108,13.7577983 40.3613631,14.5411403 38.592,14.472 Z M35.8986,7.76664 L40.6422,7.76664 C40.5805653,7.12710694 40.3157063,6.52413005 39.88644,6.04608 C39.4680355,5.61017986 38.8820434,5.375783 38.27844,5.40288 C37.6772765,5.38085211 37.0942759,5.61113735 36.67044,6.03804 C36.2371008,6.51829319 35.9669141,7.12339882 35.8986,7.76664 Z" id="Shape"></path>
                                    <path d="M45.97272,14.19864 L45.97272,3.08736 L49.1244,3.08736 L49.1244,4.69536 C49.8535293,3.60471503 51.0689779,2.93846917 52.3806,2.91048 C53.4231799,2.85051238 54.4397367,3.25008383 55.16244,4.00392 C55.8638956,4.85307407 56.2198368,5.93525004 56.1594,7.035 L56.1594,14.271 L53.00772,14.271 L53.00772,8.04 C53.0475705,7.43832326 52.8707461,6.84225403 52.50924,6.35964 C52.1489343,5.96324365 51.6290251,5.75055353 51.0942,5.78076 C50.5530059,5.75455288 50.0273526,5.96598884 49.65504,6.35964 C49.272562,6.83278877 49.0830211,7.43300167 49.1244,8.04 L49.1244,14.23884 L45.97272,14.19864 Z" id="Path"></path>
                                    <polygon id="Path" points="63.84564 14.19864 63.84564 0.58692 74.11272 0.58692 74.11272 3.216 66.82044 3.216 66.82044 6.01392 73.25244 6.01392 73.25244 8.67516 66.82044 8.67516 66.82044 11.5374 74.2092 11.5374 74.2092 14.19864"></polygon>
                                    <path d="M80.9226,14.3916 C79.6529737,14.4051551 78.4372707,13.8791297 77.57796,12.9444 C76.601339,11.8719889 76.0946495,10.4532581 76.17096,9.0048 L76.17096,9.0048 C76.0965397,7.55950205 76.5965141,6.14338975 77.56188,5.0652 C78.4267537,4.12881974 79.6480071,3.60292113 80.9226,3.618 C82.1775454,3.6151519 83.3638519,4.19051059 84.1386,5.17776 L84.1386,0 L87.08928,0 L87.08928,14.19864 L84.1386,14.19864 L84.1386,12.7032 C83.41501,13.7668362 82.2090035,14.3999896 80.9226,14.3916 Z M79.86936,11.07912 C80.3271383,11.5955665 80.984211,11.8911853 81.67434,11.8911853 C82.364469,11.8911853 83.0215417,11.5955665 83.47932,11.07912 C83.9771193,10.5053015 84.238604,9.76394925 84.21096,9.0048 L84.21096,9.0048 C84.2389778,8.24802061 83.9773172,7.50904505 83.47932,6.93852 C83.0268104,6.41822176 82.3678273,6.12403287 81.67836,6.13452 C80.9867728,6.12494962 80.325691,6.41876376 79.86936,6.93852 C79.364569,7.51191567 79.0997166,8.25753295 79.12968,9.02088 L79.12968,9.02088 C79.1051228,9.77612332 79.3696774,10.5122753 79.86936,11.07912 L79.86936,11.07912 Z" id="Shape"></path>
                                    <path d="M93.5052,14.3916 C92.5274288,14.4505964 91.5736851,14.0738088 90.90024,13.36248 C90.2363301,12.5713661 89.9023662,11.5550792 89.9676,10.52436 L89.9676,3.77076 L92.91828,3.77076 L92.91828,9.59172 C92.8767389,10.1662054 93.0421509,10.7365917 93.3846,11.19972 C93.7223333,11.5710161 94.2102206,11.7691279 94.7112,11.7384 C95.2185605,11.7650637 95.7121524,11.5682146 96.06192,11.19972 C96.4275529,10.7471641 96.605935,10.171738 96.5604,9.59172 L96.5604,3.77076 L99.51912,3.77076 L99.51912,14.22276 L96.5604,14.22276 L96.5604,12.71928 C95.8721195,13.7377234 94.734021,14.3606825 93.5052,14.3916 Z" id="Path"></path>
                                    <path d="M107.35008,14.472 C105.909883,14.498154 104.520405,13.9403394 103.498085,12.9255915 C102.475764,11.9108436 101.907634,10.5255521 101.92308,9.0852 L101.92308,9.0048 C101.973008,6.73799686 103.391587,4.72752761 105.510484,3.92058085 C107.629381,3.11363409 110.025943,3.6711709 111.57108,5.33052 L109.746,7.2762 C109.15597,6.57170136 108.292751,6.15325941 107.3742,6.12648 C106.680335,6.10556339 106.014635,6.40142993 105.5652,6.93048 C105.08398,7.48491583 104.826074,8.1984574 104.8416,8.93244 L104.8416,8.93244 C104.815267,9.68411091 105.076974,10.417465 105.57324,10.98264 C106.057259,11.5254051 106.76033,11.8208132 107.48676,11.78664 C108.405549,11.7490668 109.272365,11.3503313 109.89876,10.67712 L111.62736,12.42984 C111.107785,13.0082273 110.489884,13.4900273 109.80228,13.85292 C109.044289,14.2475472 108.204554,14.459546 107.35008,14.472 L107.35008,14.472 Z" id="Path"></path>
                                    <path d="M116.76492,14.3916 C115.844363,14.4348021 114.93835,14.1498922 114.2082,13.5876 C113.518363,13.0085769 113.140303,12.1393369 113.18712,11.23992 L113.18712,11.23992 C113.12368,10.2698723 113.552804,9.33305231 114.3288,8.74752 C115.237927,8.15951382 116.311327,7.87778158 117.39204,7.94352 C118.2592,7.94506388 119.120219,8.08901981 119.94072,8.36964 L119.94072,8.19276 C119.94072,6.92244 119.193,6.28728 117.69756,6.28728 C116.712876,6.30778884 115.739128,6.49818635 114.81924,6.85008 L114.07956,4.59888 C115.34981,4.05662903 116.718464,3.78289818 118.09956,3.79488 C119.371842,3.64597255 120.650352,4.0170595 121.6452,4.824 C122.458629,5.73399523 122.867751,6.93524606 122.77884,8.15256 L122.77884,14.19864 L119.9166,14.19864 L119.9166,13.07304 C119.11435,13.9593103 117.959275,14.4425559 116.76492,14.3916 Z M117.65736,12.34944 C118.260173,12.377738 118.854112,12.1958621 119.33772,11.83488 C119.746461,11.5244449 119.982449,11.0375342 119.97288,10.52436 L119.97288,9.99372 C119.381605,9.72880561 118.739339,9.59705877 118.09152,9.6078 C117.564736,9.57885747 117.041283,9.70762124 116.58804,9.97764 C116.232975,10.2145901 116.028442,10.6206049 116.04936,11.04696 L116.04936,11.04696 C116.035663,11.4091422 116.201018,11.7548833 116.49156,11.97156 C116.827381,12.2235499 117.237569,12.3565071 117.65736,12.34944 L117.65736,12.34944 Z" id="Shape"></path>
                                    <path d="M129.01788,14.37552 C128.208218,14.4266244 127.408539,14.1743959 126.77472,13.668 C126.181674,13.0115405 125.890159,12.1369953 125.97072,11.256 L125.97072,6.30336 L124.72452,6.30336 L124.72452,3.77076 L125.97072,3.77076 L125.97072,1.10952 L128.92944,1.10952 L128.92944,3.77076 L131.38164,3.77076 L131.38164,6.30336 L128.92944,6.30336 L128.92944,10.75752 C128.92944,11.43288 129.243,11.77056 129.87816,11.77056 C130.389006,11.7702384 130.891789,11.6431613 131.34144,11.40072 L131.34144,13.77252 C130.636072,14.1808495 129.832795,14.3893126 129.01788,14.37552 Z" id="Path"></path>
                                    <path d="M134.268,2.62908 L134.268,0 L137.37948,0 L137.37948,2.62908 L134.268,2.62908 Z M134.3484,14.19864 L134.3484,3.74664 L137.29908,3.74664 L137.29908,14.19864 L134.3484,14.19864 Z" id="Shape"></path>
                                    <path d="M149.31888,12.864 C147.044307,14.9487477 143.553453,14.9487477 141.27888,12.864 C140.228835,11.8743547 139.644971,10.4876786 139.67088,9.045 L139.67088,9.0048 C139.639877,7.5517733 140.223832,6.15320105 141.27888,5.15364 C143.550462,3.06121608 147.047298,3.06121608 149.31888,5.15364 C150.367248,6.14444836 150.950785,7.53034806 150.92688,8.97264 L150.92688,8.97264 C150.966291,10.4389742 150.381895,11.8532135 149.31888,12.864 L149.31888,12.864 Z M145.29888,11.89116 C146.038909,11.9229336 146.755757,11.6291436 147.26064,11.08716 C147.756155,10.5306011 148.020699,9.80598103 148.00032,9.06108 L148.00032,9.0048 C148.006133,8.24817389 147.717868,7.51886301 147.19632,6.97068 C146.678726,6.43924492 145.96836,6.1394963 145.22652,6.1394963 C144.48468,6.1394963 143.774314,6.43924492 143.25672,6.97068 C142.760281,7.52348737 142.495443,8.24603516 142.51704,8.98872 L142.51704,8.98872 C142.509529,9.74566181 142.798037,10.4755877 143.32104,11.02284 C143.826645,11.5938429 144.56077,11.90931 145.323,11.88312 L145.29888,11.89116 Z" id="Shape"></path>
                                    <path d="M153.09768,14.19864 L153.09768,3.74664 L156.0564,3.74664 L156.0564,5.25012 C156.746525,4.23370399 157.883493,3.61136349 159.1116,3.5778 C160.088306,3.5254194 161.039371,3.90114884 161.71656,4.60692 C162.37379,5.40487713 162.706727,6.42090861 162.6492,7.45308 L162.6492,14.19864 L159.69048,14.19864 L159.69048,8.38572 C159.73948,7.81047231 159.573319,7.23750151 159.22416,6.77772 C158.894042,6.3996969 158.406355,6.19748514 157.9056,6.231 C157.39698,6.20639877 156.903191,6.40626574 156.55488,6.77772 C156.183957,7.22743655 156.004897,7.80505129 156.0564,8.38572 L156.0564,14.19864 L153.09768,14.19864 Z" id="Path"></path>
                                </g>
                            </g>
                        </g>
                    </g>
                </g>
            </g>
        </g>
    </g>
</svg>
