<svg width="254" height="131" viewBox="0 0 254 131" fill="none" xmlns="http://www.w3.org/2000/svg">
<path d="M11.0293 124.916C11.0293 125.639 10.8761 126.361 10.5697 127.084C10.2634 127.663 9.957 128.241 9.34428 128.675C8.88475 129.108 8.27203 129.542 7.50614 129.831C7.0466 129.976 6.2807 130.12 5.51481 130.12C4.74891 130.12 3.98302 129.976 3.3703 129.687C2.60441 129.398 1.99169 129.108 1.53216 128.675C1.07262 128.241 0.613082 127.663 0.306724 127.084C0.153545 126.361 0.000366211 125.639 0.000366211 124.916V114.506H1.68533V124.771C1.68533 125.494 1.83851 126.217 2.14487 126.795C2.45123 127.373 2.91077 127.807 3.52348 128.096C4.1362 128.53 4.74891 128.675 5.51481 128.675C6.2807 128.675 6.89342 128.53 7.50614 128.241C8.11885 127.952 8.57839 127.518 8.88475 126.795C9.1911 126.217 9.34428 125.494 9.34428 124.771V114.506H11.0293V124.916Z" fill="#183B6C"/>
<path d="M27.7257 129.976H26.0408L17.6159 117.398V129.976H15.931V114.361H17.6159L26.0408 126.795V114.361H27.7257V129.976Z" fill="#183B6C"/>
<path d="M34.4656 129.976H32.7807V114.361H34.4656V129.976Z" fill="#183B6C"/>
<path d="M49.324 114.361L44.1159 129.976H42.7373L37.5292 114.361H39.2142L43.35 126.94L47.4858 114.361H49.324Z" fill="#183B6C"/>
<path d="M62.191 129.976H52.2344V114.361H62.191V115.807H53.9194V121.301H60.9656V122.892H53.9194V128.53H62.191V129.976Z" fill="#183B6C"/>
<path d="M75.2113 118.699C75.2113 117.831 74.9049 117.108 74.2922 116.53C73.6795 116.096 72.9136 115.807 71.9945 115.807H67.7055V121.59H71.9945C72.6072 121.59 73.2199 121.446 73.6795 121.301C74.139 121.157 74.5985 120.723 74.7517 120.289C75.0581 119.855 75.2113 119.277 75.2113 118.699ZM77.2026 129.976H75.2113L71.535 123.036H67.7055V129.976H66.0205V114.361H72.1477C73.0667 114.361 73.8326 114.506 74.5985 114.94C75.3644 115.229 75.824 115.807 76.2835 116.386C76.743 117.108 76.8962 117.831 76.8962 118.699C76.8962 119.855 76.5899 120.723 75.9771 121.446C75.3644 122.169 74.4454 122.602 73.5263 122.892L77.2026 129.976Z" fill="#183B6C"/>
<path d="M90.8355 125.783C90.8355 126.651 90.6823 127.374 90.2228 128.096C89.7632 128.819 89.1505 129.253 88.2314 129.542C87.4655 129.831 86.3933 130.12 85.321 130.12C84.5551 130.12 83.7892 130.121 83.1765 129.976C82.5638 129.831 81.9511 129.687 81.4916 129.398C81.032 129.108 80.4193 128.675 79.9598 128.241L81.1852 127.084C81.6447 127.518 82.1043 127.807 82.4106 128.096C82.8702 128.386 83.3297 128.53 83.7893 128.675C84.2488 128.819 84.8615 128.819 85.4742 128.819C86.6996 128.819 87.6187 128.53 88.2314 128.096C88.8442 127.518 89.3037 126.94 89.3037 126.072C89.3037 125.639 89.3037 125.349 89.1505 124.916C88.9973 124.627 88.8442 124.337 88.5378 124.048C88.2314 123.904 88.0783 123.614 87.7719 123.614C87.4655 123.47 87.006 123.47 86.5465 123.325L84.5551 122.892C83.3297 122.747 82.2575 122.313 81.6447 121.735C80.8788 121.012 80.4193 120.145 80.4193 118.843C80.4193 117.976 80.5725 117.253 81.032 116.53C81.4916 115.807 82.1043 115.374 82.8702 114.94C83.6361 114.651 84.5551 114.361 85.6274 114.361C86.6997 114.361 87.4655 114.506 88.2314 114.795C88.9973 115.084 89.61 115.518 90.3759 116.096L89.3037 117.108C88.8442 116.675 88.2314 116.386 87.6187 116.096C87.006 115.807 86.3933 115.807 85.4742 115.807C84.7083 115.807 84.2488 115.952 83.6361 116.096C83.1765 116.386 82.717 116.675 82.4106 117.108C82.1043 117.542 81.9511 117.976 81.9511 118.554C81.9511 119.277 82.2575 120 82.717 120.289C83.1765 120.723 83.9424 121.012 84.8615 121.157L86.5465 121.446C87.3124 121.59 87.7719 121.735 88.2314 121.88C88.691 122.024 89.1505 122.313 89.4569 122.602C90.3759 123.47 90.8355 124.482 90.8355 125.783Z" fill="#183B6C"/>
<path d="M96.6563 129.976H94.9713V114.361H96.6563V129.976Z" fill="#183B6C"/>
<path d="M110.902 115.807H106.307V129.976H104.622V115.807H100.026V114.361H110.902V115.807Z" fill="#183B6C"/>
<path d="M121.931 110.892L119.48 113.494H117.948L119.94 110.892H121.931ZM124.229 129.976H114.425V114.361H124.229V115.807H116.11V121.301H123.003V122.747H116.11V128.386H124.229V129.976Z" fill="#183B6C"/>
<path d="M143.682 122.024C143.682 121.157 143.682 120.434 143.682 119.855C143.682 119.277 143.529 118.699 143.376 118.265C143.223 117.687 142.916 117.253 142.61 116.964C141.844 116.241 140.772 115.807 139.546 115.807H136.023V128.386H139.546C140.925 128.386 141.844 127.952 142.61 127.229C143.07 126.795 143.376 126.072 143.529 125.205C143.682 124.482 143.682 123.325 143.682 122.024ZM145.367 122.024V122.747C145.367 123.614 145.367 124.337 145.214 125.06C145.214 125.783 145.061 126.361 144.754 127.084C144.448 127.663 144.142 128.241 143.682 128.675C143.223 129.108 142.61 129.542 141.997 129.687C141.231 129.976 140.619 130.12 139.7 130.12H134.185V114.361H139.7C141.385 114.361 142.763 114.795 143.682 115.807C144.142 116.241 144.448 116.819 144.754 117.398C144.908 117.976 145.061 118.554 145.214 119.277C145.214 119.855 145.367 120.578 145.367 121.446V122.024Z" fill="#183B6C"/>
<path d="M159.766 129.976H149.809V114.361H159.766V115.807H151.648V121.301H158.541V122.892H151.648V128.53H159.766V129.976Z" fill="#183B6C"/>
<path d="M181.517 129.976H179.986L171.561 117.398V129.976H169.876V114.361H171.408L179.832 126.795V114.361H181.517V129.976Z" fill="#183B6C"/>
<path d="M194.078 125.06L191.168 116.819L188.104 125.06H194.078ZM197.754 129.976H195.916L194.691 126.506H187.798L186.572 129.976H184.734L190.555 114.361H191.934L197.754 129.976Z" fill="#183B6C"/>
<path d="M212.46 129.976H210.928L202.503 117.398V129.976H200.818V114.361H202.35L210.775 126.795V114.361H212.46V129.976Z" fill="#183B6C"/>
<path d="M226.858 115.807H222.263V129.976H220.578V115.807H215.983V114.361H226.858V115.807Z" fill="#183B6C"/>
<path d="M240.185 129.976H230.382V114.361H240.185V115.807H232.067V121.301H238.96V122.892H232.067V128.53H240.185V129.976Z" fill="#183B6C"/>
<path d="M253.818 125.783C253.818 126.651 253.665 127.373 253.205 128.096C252.746 128.819 252.133 129.253 251.214 129.542C250.448 129.831 249.376 130.12 248.303 130.12C247.538 130.12 246.772 130.12 246.159 129.976C245.546 129.831 244.934 129.687 244.474 129.398C244.014 129.108 243.402 128.675 242.942 128.241L244.168 127.084C244.627 127.518 245.087 127.807 245.393 128.096C245.853 128.385 246.312 128.53 246.772 128.675C247.231 128.819 247.844 128.819 248.457 128.819C249.682 128.819 250.601 128.53 251.214 128.096C251.827 127.518 252.133 126.94 252.133 126.072C252.133 125.639 252.133 125.349 251.98 124.916C251.827 124.626 251.673 124.337 251.367 124.048C251.061 123.904 250.907 123.614 250.601 123.614C250.295 123.47 249.835 123.47 249.376 123.325L247.538 123.036C246.312 122.892 245.24 122.458 244.627 121.879C243.861 121.157 243.402 120.289 243.402 118.988C243.402 118.12 243.555 117.398 244.014 116.675C244.474 115.952 245.087 115.518 245.853 115.084C246.618 114.795 247.538 114.506 248.61 114.506C249.682 114.506 250.448 114.651 251.214 114.94C251.98 115.229 252.592 115.663 253.358 116.241L252.286 117.253C251.827 116.819 251.214 116.53 250.601 116.241C249.988 115.952 249.376 115.952 248.457 115.952C247.691 115.952 247.231 116.096 246.618 116.241C246.159 116.53 245.699 116.819 245.393 117.253C245.087 117.687 244.934 118.12 244.934 118.699C244.934 119.422 245.24 120.145 245.699 120.434C246.159 120.867 246.925 121.157 247.844 121.301L249.529 121.59C250.295 121.735 250.754 121.879 251.214 122.024C251.673 122.169 252.133 122.458 252.439 122.747C253.358 123.47 253.818 124.482 253.818 125.783Z" fill="#183B6C"/>
<path d="M76.4367 95.2771H177.382V0H76.4367V95.2771Z" fill="#00386A"/>
<path d="M126.986 65.9277C124.535 68.0963 121.318 70.265 114.885 70.265C111.361 70.265 108.298 69.3975 105.234 66.6506C102.477 64.1927 100.639 58.9879 100.639 50.3132V41.7831C100.639 32.2409 100.639 30.6506 100.792 28.6265C100.945 26.4578 101.405 25.4457 103.09 25.1566C103.856 25.012 104.162 25.012 104.622 25.012C104.928 25.012 105.081 24.8674 105.081 24.5783C105.081 24.1445 104.775 24.1445 104.009 24.1445C102.171 24.1445 98.3413 24.2891 97.7285 24.2891C97.1158 24.2891 93.2863 24.1445 90.5291 24.1445C89.7632 24.1445 89.4569 24.2891 89.4569 24.5783C89.4569 24.8674 89.7632 25.012 89.9164 25.012C90.5291 25.012 91.6014 25.012 92.0609 25.1566C94.2054 25.5903 94.665 26.6024 94.8181 28.6265C94.9713 30.6506 94.9713 32.2409 94.9713 41.7831V50.6024C94.9713 59.4216 97.4222 63.759 100.486 66.506C104.928 70.5542 111.361 70.8433 113.506 70.8433C117.182 70.8433 121.931 70.265 126.526 66.3614C126.679 66.3614 126.833 66.2168 126.986 65.9277Z" fill="white"/>
<path d="M126.833 29.2048C129.283 27.0362 132.5 24.8675 138.934 24.8675C142.457 24.8675 145.52 25.735 148.584 28.482C151.341 30.9398 153.179 36.1446 153.179 44.8193V53.3494C153.179 62.8916 153.179 64.482 153.026 66.5061C152.873 68.6747 152.413 69.6868 150.728 69.9759C149.963 70.1205 149.656 70.1205 149.197 70.1205C148.89 70.1205 148.737 70.2651 148.737 70.5542C148.737 70.8434 149.044 70.988 149.809 70.988C151.648 70.988 155.477 70.8434 156.09 70.8434C156.702 70.8434 160.532 70.988 163.289 70.988C164.055 70.988 164.361 70.8434 164.361 70.5542C164.361 70.2651 164.055 70.1205 163.902 70.1205C163.289 70.1205 162.217 70.1205 161.757 69.9759C159.613 69.5422 159.153 68.5302 159 66.5061C158.847 64.6265 158.847 62.8916 158.847 53.3494V44.5301C158.847 35.7109 156.396 31.3735 153.333 28.6265C148.89 24.5783 142.457 24.2892 140.312 24.2892C136.636 24.2892 131.887 24.8675 127.292 28.7711C126.986 28.9157 126.833 29.0603 126.833 29.2048Z" fill="#CBDB2A"/>
</svg>
