<?xml version="1.0" encoding="UTF-8"?>
<svg width="300px" height="101px" viewBox="0 0 300 101" version="1.1" xmlns="http://www.w3.org/2000/svg" xmlns:xlink="http://www.w3.org/1999/xlink">
    <!-- Generator: Sketch 52.5 (67469) - http://www.bohemiancoding.com/sketch -->
    <title>logos/oeglobal19</title>
    <desc>Created with Sketch.</desc>
    <defs>
        <polygon id="path-1" points="0.449311545 0.31485 9.8036163 0.31485 9.8036163 14.6719202 0.449311545 14.6719202"></polygon>
    </defs>
    <g id="Symbols" stroke="none" stroke-width="1" fill="none" fill-rule="evenodd">
        <g id="logos/oeglobal19" transform="translate(-12.000000, -6.000000)">
            <g transform="translate(13.000000, 8.000000)">
                <path d="M48.466511,2 C50.2144737,2.614 51.9013328,3.3585 53.5145671,4.222" id="Stroke-1" stroke="#ED3E24" stroke-width="2.5" stroke-linecap="square"></path>
                <path d="M11.466511,10.629 C17.9985823,4.0645 27.0484211,0 37.048871,0" id="Stroke-3" stroke="#ED3E24" stroke-width="2.5" stroke-linecap="square"></path>
                <path d="M3.96443973,51.577 C1.72163837,46.8865 0.466511036,41.635 0.466511036,36.091 C0.466511036,29.9055 2.02915959,24.0845 4.78182513,19" id="Stroke-5" stroke="#ED3E24" stroke-width="2.5" stroke-linecap="square"></path>
                <path d="M37.048871,72.629 C27.0484211,72.629 17.9985823,68.5645 11.466511,62" id="Stroke-7" stroke="#ED3E24" stroke-width="2.5" stroke-linecap="square"></path>
                <path d="M68.7921817,53 C65.168039,59.779 59.4343209,65.264 52.466511,68.5825" id="Stroke-9" stroke="#ED3E24" stroke-width="2.5" stroke-linecap="square"></path>
                <path d="M62.466511,11 C65.3463922,13.856 67.7464601,17.1945 69.533489,20.884" id="Stroke-11" stroke="#ED3E24" stroke-width="2.5" stroke-linecap="square"></path>
                <path d="M64.0287691,49.775 C58.934635,59.8495 48.4744058,66.7585 36.3979372,66.7585 C19.3154839,66.7585 5.46651104,52.9335 5.46651104,35.8795 C5.46651104,18.8255 19.3154839,5 36.3979372,5 C48.4744058,5 58.934635,11.909 64.0287691,21.9835" id="Stroke-13" stroke="#231F20" stroke-width="2.5" stroke-linecap="square"></path>
                <path d="M58.466511,25 C59.1812224,26.4125 59.7597029,27.9045 60.1859253,29.46" id="Stroke-15" stroke="#0068B4" stroke-width="2.5" stroke-linecap="square"></path>
                <path d="M43.466511,13 C50.099253,14.7975 55.5935654,19.357 58.6322156,25.365" id="Stroke-17" stroke="#0068B4" stroke-width="2.5" stroke-linecap="square"></path>
                <path d="M13.466511,29.7045 C16.2402122,19.503 25.581545,12 36.678854,12" id="Stroke-19" stroke="#0068B4" stroke-width="2.5" stroke-linecap="square"></path>
                <path d="M19.6179372,52.703 C16.7140153,49.7745 14.5593633,46.103 13.466511,42" id="Stroke-21" stroke="#0068B4" stroke-width="2.5" stroke-linecap="square"></path>
                <path d="M36.6645161,59.805 C34.5218846,59.805 32.4438625,59.525 30.466511,59" id="Stroke-23" stroke="#0068B4" stroke-width="2.5" stroke-linecap="square"></path>
                <path d="M57.9111885,47 C54.8294652,53.092 49.2239643,57.695 42.466511,59.4385" id="Stroke-25" stroke="#0068B4" stroke-width="2.5" stroke-linecap="square"></path>
                <path d="M61.0348642,36 C61.0348642,39.8875 60.1092954,43.5595 58.466511,46.8075" id="Stroke-27" stroke="#0068B4" stroke-width="2.5" stroke-linecap="square"></path>
                <path d="M48.5082343,47.9925 C45.430017,51.066 41.1763073,52.967 36.4783447,52.967 C27.0834211,52.967 19.466511,45.363 19.466511,35.9835 C19.466511,26.6035 27.0834211,19 36.4783447,19 C41.1322326,19 45.3498812,20.8655 48.4215874,23.888" id="Stroke-29" stroke="#FFDC00" stroke-width="2.5" stroke-linecap="square"></path>
                <path d="M41.466511,25 C44.4811205,26.184 46.7494652,28.447 48.0020883,31.171" id="Stroke-31" stroke="#0068B4" stroke-width="2.5" stroke-linecap="square"></path>
                <path d="M25.466511,31.575 C26.6680475,28.525 28.9809677,26.24 31.7586757,25" id="Stroke-33" stroke="#0068B4" stroke-width="2.5" stroke-linecap="square"></path>
                <path d="M32.1007555,47.3905 C29.0055093,46.1745 26.6970968,43.8215 25.466511,41" id="Stroke-35" stroke="#0068B4" stroke-width="2.5" stroke-linecap="square"></path>
                <path d="M44.797657,45 C43.8094822,45.903 42.6810696,46.63 41.466511,47.158" id="Stroke-37" stroke="#0068B4" stroke-width="2.5" stroke-linecap="square"></path>
                <path d="M47.5362139,41 C46.8420374,42.7615 45.7772326,44.268 44.466511,45.465" id="Stroke-39" stroke="#0068B4" stroke-width="2.5" stroke-linecap="square"></path>
                <path d="M42.8394822,36.176 C42.8394822,39.5865 40.0697878,42.352 36.6524958,42.352 C33.2362054,42.352 30.466511,39.5865 30.466511,36.176 C30.466511,32.765 33.2362054,30 36.6524958,30 C40.0697878,30 42.8394822,32.765 42.8394822,36.176 Z" id="Stroke-41" stroke="#ED3E24" stroke-width="2.5" stroke-linecap="square"></path>
                <path d="M82.2879414,47.2246 C88.0637309,47.2246 92.8222963,42.5101 92.8222963,36.7441 C92.8222963,30.9786 88.0637309,26.1916 82.2879414,26.1916 C76.5126528,26.1916 71.7901486,30.9786 71.7901486,36.7441 C71.7901486,42.5101 76.5126528,47.2246 82.2879414,47.2246 M82.2879414,23.6531 C89.5532555,23.6531 95.3651061,29.4916 95.3651061,36.7441 C95.3651061,43.9971 89.5532555,49.7631 82.2879414,49.7631 C75.0226273,49.7631 69.2473387,43.9971 69.2473387,36.7441 C69.2473387,29.4916 75.0226273,23.6531 82.2879414,23.6531" id="Fill-43" fill="#231F20"></path>
                <path d="M102.191777,24.44215 C102.191777,24.07965 102.482269,23.75315 102.881947,23.75315 L118.707269,23.75315 C119.106947,23.75315 119.397439,24.07965 119.397439,24.44215 L119.397439,25.49365 C119.397439,25.85665 119.106947,26.18265 118.707269,26.18265 L104.988517,26.18265 L104.988517,35.03115 L115.413687,35.03115 C115.777303,35.03115 116.103857,35.35765 116.103857,35.72015 L116.103857,36.77165 C116.103857,37.17065 115.777303,37.46065 115.413687,37.46065 L104.988517,37.46065 L104.988517,46.70815 L119.211624,46.70815 C119.611301,46.70815 119.901794,47.03465 119.901794,47.39715 L119.901794,48.44865 C119.901794,48.81165 119.611301,49.13765 119.211624,49.13765 L102.881947,49.13765 C102.482269,49.13765 102.191777,48.81165 102.191777,48.44865 L102.191777,24.44215 Z" id="Fill-45" fill="#231F20"></path>
                <path d="M149.766061,23.8574 C153.434779,23.8574 156.086774,25.1269 158.556961,27.2299 C158.847453,27.5204 158.884015,27.9554 158.593523,28.2454 C158.266469,28.5719 157.866791,28.9344 157.576299,29.2609 C157.249244,29.6234 157.031375,29.5869 156.631698,29.2244 C154.779559,27.5924 152.163625,26.3959 149.73,26.3959 C143.990772,26.3959 139.631885,31.1829 139.631885,36.8039 C139.631885,42.3884 143.990772,47.2839 149.73,47.2839 C153.725772,47.2839 156.268081,45.7609 156.268081,45.7609 L156.268081,40.6839 L152.091503,40.6839 C151.691825,40.6839 151.400832,40.3939 151.400832,40.0309 L151.400832,38.6894 C151.400832,38.2904 151.691825,38.0004 152.091503,38.0004 L158.375153,38.0004 C158.738769,38.0004 159.029261,38.3264 159.029261,38.6894 L159.029261,46.9934 C159.029261,47.1749 158.884015,47.4649 158.738769,47.5739 C158.738769,47.5739 155.033489,49.9674 149.766061,49.9674 C142.501248,49.9674 136.652835,44.2014 136.652835,36.9484 C136.652835,29.6959 142.501248,23.8574 149.766061,23.8574" id="Fill-47" fill="#231F20"></path>
                <path d="M170.440252,24.7048 C170.440252,24.3418 170.730744,24.0158 171.130422,24.0158 L172.546823,24.0158 C172.910439,24.0158 173.236992,24.3418 173.236992,24.7048 L173.236992,46.9708 L185.212289,46.9708 C185.611967,46.9708 185.902459,47.2973 185.902459,47.6598 L185.902459,48.7113 C185.902459,49.0738 185.611967,49.4003 185.212289,49.4003 L171.130422,49.4003 C170.730744,49.4003 170.440252,49.0738 170.440252,48.7113 L170.440252,24.7048 Z" id="Fill-49" fill="#231F20"></path>
                <path d="M203.730076,47.2246 C209.505364,47.2246 214.26393,42.5101 214.26393,36.7441 C214.26393,30.9786 209.505364,26.1916 203.730076,26.1916 C197.954286,26.1916 193.231782,30.9786 193.231782,36.7441 C193.231782,42.5101 197.954286,47.2246 203.730076,47.2246 M203.730076,23.6531 C210.994889,23.6531 216.806739,29.4916 216.806739,36.7441 C216.806739,43.9971 210.994889,49.7631 203.730076,49.7631 C196.464761,49.7631 190.688972,43.9971 190.688972,36.7441 C190.688972,29.4916 196.464761,23.6531 203.730076,23.6531" id="Fill-51" fill="#231F20"></path>
                <path d="M235.018457,35.40255 C238.006521,35.40255 239.674849,33.40805 239.674849,30.86955 C239.674849,28.25855 238.006521,26.51755 235.018457,26.51755 L228.693236,26.51755 L228.693236,35.40255 L235.018457,35.40255 Z M235.678075,46.97055 C238.510876,46.97055 240.567362,44.97605 240.567362,42.36505 C240.567362,39.79055 238.045087,37.90455 235.018457,37.90455 L228.615604,37.90455 L228.615604,46.97055 L235.678075,46.97055 Z M225.783304,24.70455 C225.783304,24.34205 226.093329,24.01605 226.520053,24.01605 L235.018457,24.01605 C239.75248,24.01605 242.97344,26.88055 242.97344,30.68805 C242.97344,33.48055 240.994085,35.51105 239.169993,36.49055 C241.22698,37.28805 243.826886,39.06505 243.826886,42.40155 C243.826886,46.46305 240.373032,49.40055 235.367048,49.40055 L226.520053,49.40055 C226.093329,49.40055 225.783304,49.07405 225.783304,48.71155 L225.783304,24.70455 Z" id="Fill-53" fill="#231F20"></path>
                <path d="M268.084801,40.7695 C266.304784,36.817 264.561329,32.828 262.781312,28.875 L262.49082,28.875 L257.187331,40.7695 L268.084801,40.7695 Z M250.830557,48.4575 L261.873273,24.052 C261.981958,23.8345 262.163766,23.653 262.49082,23.653 L262.853935,23.653 C263.18099,23.653 263.362798,23.8345 263.471482,24.052 L274.441576,48.4575 C274.659946,48.929 274.368952,49.4005 273.824029,49.4005 L272.371567,49.4005 C272.044012,49.4005 271.826643,49.1825 271.75352,49.0015 L269.065463,43.018 L256.170107,43.018 L253.518613,49.0015 C253.445489,49.1825 253.228121,49.4005 252.901066,49.4005 L251.448104,49.4005 C250.90318,49.4005 250.612187,48.929 250.830557,48.4575 Z" id="Fill-55" fill="#231F20"></path>
                <path d="M283.096044,24.20115 C283.096044,23.83865 283.387037,23.51215 283.786715,23.51215 L285.202615,23.51215 C285.566732,23.51215 285.893285,23.83865 285.893285,24.20115 L285.893285,46.97065 L297.868081,46.97065 C298.267759,46.97065 298.558752,47.29715 298.558752,47.65965 L298.558752,48.71165 C298.558752,49.07415 298.267759,49.40015 297.868081,49.40015 L283.786715,49.40015 C283.387037,49.40015 283.096044,49.07415 283.096044,48.71165 L283.096044,24.20115 Z" id="Fill-57" fill="#231F20"></path>
                <path d="M76.9199431,59.83445 C78.9563947,59.83445 80.4283896,60.47845 81.7987122,61.70645 C81.9805204,61.86745 81.9805204,62.10895 81.819247,62.26995 L80.5891621,63.53795 C80.4484236,63.69895 80.2470823,63.69895 80.0853081,63.53795 C79.2388735,62.79295 78.1094593,62.35045 76.9805458,62.35045 C74.4001723,62.35045 72.4849261,64.50395 72.4849261,67.03995 C72.4849261,69.55545 74.4202063,71.68895 77.0005798,71.68895 C78.2101299,71.68895 79.2388735,71.22595 80.0853081,70.54195 C80.2470823,70.40095 80.4684576,70.42095 80.5891621,70.54195 L81.839281,71.82995 C82.0010552,71.97045 81.9599856,72.23245 81.819247,72.37345 C80.4484236,73.70145 78.7144847,74.32545 76.9199431,74.32545 C72.8881095,74.32545 69.6421078,71.12545 69.6421078,67.09995 C69.6421078,63.07495 72.8881095,59.83445 76.9199431,59.83445" id="Fill-59" fill="#231F20"></path>
                <path d="M93.5140187,71.70895 C96.0538234,71.70895 98.1508778,69.63595 98.1508778,67.09995 C98.1508778,64.56395 96.0538234,62.45095 93.5140187,62.45095 C90.9737131,62.45095 88.8971935,64.56395 88.8971935,67.09995 C88.8971935,69.63595 90.9737131,71.70895 93.5140187,71.70895 M93.5140187,59.83445 C97.5458523,59.83445 100.771319,63.07495 100.771319,67.09995 C100.771319,71.12545 97.5458523,74.32545 93.5140187,74.32545 C89.4816842,74.32545 86.2762513,71.12545 86.2762513,67.09995 C86.2762513,63.07495 89.4816842,59.83445 93.5140187,59.83445" id="Fill-61" fill="#231F20"></path>
                <path d="M105.289327,60.19675 C105.289327,59.99575 105.470634,59.83425 105.672476,59.83425 L106.17633,59.83425 L114.563045,68.73025 L114.583079,68.73025 L114.583079,60.41825 C114.583079,60.21725 114.744352,60.03575 114.966228,60.03575 L116.820872,60.03575 C117.022714,60.03575 117.204021,60.21725 117.204021,60.41825 L117.204021,73.96325 C117.204021,74.16475 117.022714,74.32525 116.820872,74.32525 L116.337553,74.32525 L107.909768,65.08775 L107.889734,65.08775 L107.889734,73.74175 C107.889734,73.94325 107.728461,74.12425 107.507086,74.12425 L105.672476,74.12425 C105.470634,74.12425 105.289327,73.94325 105.289327,73.74175 L105.289327,60.19675 Z" id="Fill-63" fill="#231F20"></path>
                <path d="M124.766188,60.4182 C124.766188,60.2172 124.926961,60.0357 125.149338,60.0357 L133.354244,60.0357 C133.576121,60.0357 133.737394,60.2172 133.737394,60.4182 L133.737394,62.0687 C133.737394,62.2697 133.576121,62.4507 133.354244,62.4507 L127.38663,62.4507 L127.38663,66.2347 L132.36657,66.2347 C132.567912,66.2347 132.749219,66.4157 132.749219,66.6172 L132.749219,68.2677 C132.749219,68.4687 132.567912,68.6497 132.36657,68.6497 L127.38663,68.6497 L127.38663,73.7417 C127.38663,73.9432 127.205323,74.1242 127.003981,74.1242 L125.149338,74.1242 C124.926961,74.1242 124.766188,73.9432 124.766188,73.7417 L124.766188,60.4182 Z" id="Fill-65" fill="#231F20"></path>
                <path d="M140.835875,60.4182 C140.835875,60.2172 140.996648,60.0357 141.219025,60.0357 L149.423931,60.0357 C149.645807,60.0357 149.807081,60.2172 149.807081,60.4182 L149.807081,62.0687 C149.807081,62.2697 149.645807,62.4507 149.423931,62.4507 L143.456317,62.4507 L143.456317,65.7517 L148.436257,65.7517 C148.637598,65.7517 148.818906,65.9327 148.818906,66.1342 L148.818906,67.8047 C148.818906,68.0257 148.637598,68.1872 148.436257,68.1872 L143.456317,68.1872 L143.456317,71.7092 L149.423931,71.7092 C149.645807,71.7092 149.807081,71.8902 149.807081,72.0917 L149.807081,73.7417 C149.807081,73.9432 149.645807,74.1242 149.423931,74.1242 L141.219025,74.1242 C140.996648,74.1242 140.835875,73.9432 140.835875,73.7417 L140.835875,60.4182 Z" id="Fill-67" fill="#231F20"></path>
                <path d="M162.711352,66.45605 C163.779663,66.45605 164.706734,65.53005 164.706734,64.40355 C164.706734,63.33655 163.779663,62.45105 162.711352,62.45105 L159.424782,62.45105 L159.424782,66.45605 L162.711352,66.45605 Z M156.784306,60.41805 C156.784306,60.21705 156.945079,60.03605 157.167456,60.03605 L162.932728,60.03605 C165.351828,60.03605 167.328177,61.96805 167.328177,64.36305 C167.328177,66.21455 166.098093,67.72405 164.34412,68.42855 L167.105801,73.54055 C167.247541,73.80205 167.105801,74.12405 166.763721,74.12405 L164.646632,74.12405 C164.465325,74.12405 164.364654,74.02355 164.324086,73.94305 L161.642541,68.60955 L159.404748,68.60955 L159.404748,73.74205 C159.404748,73.94305 159.223441,74.12405 159.022099,74.12405 L157.167456,74.12405 C156.945079,74.12405 156.784306,73.94305 156.784306,73.74205 L156.784306,60.41805 Z" id="Fill-69" fill="#231F20"></path>
                <path d="M173.901719,60.4182 C173.901719,60.2172 174.062992,60.0357 174.284868,60.0357 L182.489775,60.0357 C182.712152,60.0357 182.872924,60.2172 182.872924,60.4182 L182.872924,62.0687 C182.872924,62.2697 182.712152,62.4507 182.489775,62.4507 L176.52216,62.4507 L176.52216,65.7517 L181.502101,65.7517 C181.703943,65.7517 181.88525,65.9327 181.88525,66.1342 L181.88525,67.8047 C181.88525,68.0257 181.703943,68.1872 181.502101,68.1872 L176.52216,68.1872 L176.52216,71.7092 L182.489775,71.7092 C182.712152,71.7092 182.872924,71.8902 182.872924,72.0917 L182.872924,73.7417 C182.872924,73.9432 182.712152,74.1242 182.489775,74.1242 L174.284868,74.1242 C174.062992,74.1242 173.901719,73.9432 173.901719,73.7417 L173.901719,60.4182 Z" id="Fill-71" fill="#231F20"></path>
                <path d="M189.447117,60.19675 C189.447117,59.99575 189.628424,59.83425 189.830267,59.83425 L190.334121,59.83425 L198.721336,68.73025 L198.74137,68.73025 L198.74137,60.41825 C198.74137,60.21725 198.902643,60.03575 199.124019,60.03575 L200.978662,60.03575 C201.180504,60.03575 201.361812,60.21725 201.361812,60.41825 L201.361812,73.96325 C201.361812,74.16475 201.180504,74.32525 200.978662,74.32525 L200.495343,74.32525 L192.067559,65.08775 L192.047525,65.08775 L192.047525,73.74175 C192.047525,73.94325 191.886251,74.12425 191.664876,74.12425 L189.830267,74.12425 C189.628424,74.12425 189.447117,73.94325 189.447117,73.74175 L189.447117,60.19675 Z" id="Fill-73" fill="#231F20"></path>
                <path d="M214.770789,59.83445 C216.806739,59.83445 218.278734,60.47845 219.649558,61.70645 C219.831366,61.86745 219.831366,62.10895 219.669592,62.26995 L218.440008,63.53795 C218.298768,63.69895 218.097427,63.69895 217.935653,63.53795 C217.089218,62.79295 215.960305,62.35045 214.83089,62.35045 C212.250517,62.35045 210.335772,64.50395 210.335772,67.03995 C210.335772,69.55545 212.271052,71.68895 214.851425,71.68895 C216.060975,71.68895 217.089218,71.22595 217.935653,70.54195 C218.097427,70.40095 218.318802,70.42095 218.440008,70.54195 L219.689626,71.82995 C219.8514,71.97045 219.810831,72.23245 219.669592,72.37345 C218.298768,73.70145 216.564829,74.32545 214.770789,74.32545 C210.738454,74.32545 207.492953,71.12545 207.492953,67.09995 C207.492953,63.07495 210.738454,59.83445 214.770789,59.83445" id="Fill-75" fill="#231F20"></path>
                <path d="M226.001724,60.4182 C226.001724,60.2172 226.162997,60.0357 226.384874,60.0357 L234.58978,60.0357 C234.812157,60.0357 234.97293,60.2172 234.97293,60.4182 L234.97293,62.0687 C234.97293,62.2697 234.812157,62.4507 234.58978,62.4507 L228.622166,62.4507 L228.622166,65.7517 L233.602106,65.7517 C233.803948,65.7517 233.985256,65.9327 233.985256,66.1342 L233.985256,67.8047 C233.985256,68.0257 233.803948,68.1872 233.602106,68.1872 L228.622166,68.1872 L228.622166,71.7092 L234.58978,71.7092 C234.812157,71.7092 234.97293,71.8902 234.97293,72.0917 L234.97293,73.7417 C234.97293,73.9432 234.812157,74.1242 234.58978,74.1242 L226.384874,74.1242 C226.162997,74.1242 226.001724,73.9432 226.001724,73.7417 L226.001724,60.4182 Z" id="Fill-77" fill="#231F20"></path>
                <path d="M248.886211,73.27905 C250.216466,71.66905 252.757272,68.36805 254.107561,66.57705 C254.732621,65.81205 255.136305,65.02705 255.136305,64.34255 C255.136305,63.43705 254.450142,62.51155 252.998682,62.51155 C252.031042,62.51155 251.204641,63.19555 250.740855,63.69855 C250.579581,63.86005 250.357705,63.86005 250.196432,63.69855 L249.229293,62.73255 C249.107587,62.61205 249.067519,62.37055 249.208758,62.20955 C249.208758,62.20955 250.780923,60.23705 253.179989,60.23705 C256.063376,60.23705 257.67611,62.06855 257.67611,64.24205 C257.67611,65.55055 257.111653,66.37555 256.32532,67.50255 C255.458351,68.73055 253.926254,70.62255 252.857943,71.97055 L257.212323,71.97055 C257.413665,71.97055 257.595473,72.15205 257.595473,72.35305 L257.595473,73.74205 C257.595473,73.94305 257.413665,74.12405 257.212323,74.12405 L249.269361,74.12405 C249.047485,74.12405 248.886211,73.94305 248.886211,73.74205 L248.886211,73.27905 Z" id="Fill-79" fill="#231F20"></path>
                <path d="M270.539612,67.28125 C270.539612,64.30275 269.652609,62.61225 268.099977,62.61225 C266.547846,62.61225 265.660843,64.30275 265.660843,67.28125 C265.660843,70.28025 266.547846,71.95075 268.099977,71.95075 C269.652609,71.95075 270.539612,70.28025 270.539612,67.28125 M263.019366,67.28125 C263.019366,62.87375 264.874009,60.23725 268.099977,60.23725 C271.325444,60.23725 273.180588,62.87375 273.180588,67.28125 C273.180588,71.68875 271.325444,74.32525 268.099977,74.32525 C264.874009,74.32525 263.019366,71.68875 263.019366,67.28125" id="Fill-81" fill="#231F20"></path>
                <path d="M280.742455,64.1013 L278.968448,64.4838 C278.787141,64.5238 278.584798,64.4033 278.564764,64.2223 L278.444059,63.2358 C278.424025,63.0748 278.464093,62.9543 278.54473,62.8733 L281.44765,60.4383 L282.859543,60.4383 C283.060885,60.4383 283.222158,60.6193 283.222158,60.8208 L283.222158,73.7418 C283.222158,73.9433 283.060885,74.1243 282.859543,74.1243 L281.125604,74.1243 C280.903728,74.1243 280.742455,73.9433 280.742455,73.7418 L280.742455,64.1013 Z" id="Fill-83" fill="#231F20"></path>
                <g id="Group-87" transform="translate(288.983022, 59.801500)">
                    <mask id="mask-2" fill="white">
                        <use xlink:href="#path-1"></use>
                    </mask>
                    <g id="Clip-86"></g>
                    <path d="M7.38456621,5.56785 C7.38456621,4.19935 6.65883616,2.60935 5.02606876,2.60935 C3.75591596,2.60935 2.72767317,3.69585 2.72767317,4.96385 C2.72767317,6.25235 3.75591596,7.31885 5.04610272,7.31885 C6.37635739,7.31885 7.163191,6.29235 7.38456621,5.56785 M2.42516044,12.59185 C3.37276655,12.28985 6.23561885,10.94185 6.86067827,8.72735 C6.51809762,8.92885 5.50988879,9.29135 4.56228268,9.29135 C2.54636587,9.29135 0.449311545,7.80185 0.449311545,4.92385 C0.449311545,2.38785 2.52633192,0.31485 5.00553396,0.31485 C8.17089898,0.31485 9.80366638,2.85085 9.80366638,5.86985 C9.80366638,11.74635 4.82422666,14.08135 3.09078862,14.64485 C2.80830985,14.72535 2.60646774,14.62485 2.52633192,14.36285 L2.06204499,13.17535 C1.96137436,12.93385 2.04201104,12.71285 2.42516044,12.59185" id="Fill-85" fill="#231F20" mask="url(#mask-2)"></path>
                </g>
                <path d="M72.8720823,84.70385 C72.8921163,84.54385 73.0118192,84.40385 73.2326935,84.40385 L73.552736,84.40385 C73.7135085,84.40385 73.8332114,84.48385 73.8933132,84.60385 L78.3002827,94.04235 L78.3603846,94.04235 L82.7668531,84.60385 C82.826955,84.48385 82.9271248,84.40385 83.1079312,84.40385 L83.4279737,84.40385 C83.6483472,84.40385 83.7685509,84.54385 83.7885849,84.70385 L86.1520908,98.14135 C86.2121927,98.42185 86.0519211,98.60135 85.7914796,98.60135 L83.9688905,98.60135 C83.7885849,98.60135 83.6283132,98.44185 83.5882453,98.30135 L82.4062419,90.72285 L82.3461401,90.72285 L78.8411995,98.58135 C78.8011316,98.70185 78.6809278,98.80135 78.5001214,98.80135 L78.140011,98.80135 C77.9597054,98.80135 77.8595357,98.70185 77.7994338,98.58135 L74.2539244,90.72285 L74.1938226,90.72285 L73.0318531,98.30135 C73.0118192,98.44185 72.8520484,98.60135 72.6717428,98.60135 L70.8686868,98.60135 C70.6082453,98.60135 70.4479737,98.42185 70.4880416,98.14135 L72.8720823,84.70385 Z" id="Fill-88" fill="#0068B4"></path>
                <path d="M92.2843846,84.98385 C92.2843846,84.78385 92.4646902,84.60385 92.6655306,84.60385 L94.5276868,84.60385 C94.7285272,84.60385 94.9083319,84.78385 94.9083319,84.98385 L94.9083319,98.22185 C94.9083319,98.42135 94.7285272,98.60135 94.5276868,98.60135 L92.6655306,98.60135 C92.4646902,98.60135 92.2843846,98.42135 92.2843846,98.22185 L92.2843846,84.98385 Z" id="Fill-90" fill="#0068B4"></path>
                <path d="M100.999356,84.98385 C100.999356,84.78385 101.159627,84.60385 101.380001,84.60385 L103.222624,84.60385 C103.422963,84.60385 103.603269,84.78385 103.603269,84.98385 L103.603269,96.20185 L108.710926,96.20185 C108.9313,96.20185 109.091571,96.38185 109.091571,96.58185 L109.091571,98.22185 C109.091571,98.42135 108.9313,98.60135 108.710926,98.60135 L101.380001,98.60135 C101.159627,98.60135 100.999356,98.42135 100.999356,98.22185 L100.999356,84.98385 Z" id="Fill-92" fill="#0068B4"></path>
                <path d="M121.713164,93.82225 L119.709768,89.42325 L119.649666,89.42325 L117.68684,93.82225 L121.713164,93.82225 Z M113.059997,98.08175 L119.289055,84.62425 C119.349157,84.50375 119.449327,84.40425 119.629632,84.40425 L119.829972,84.40425 C120.030312,84.40425 120.110447,84.50375 120.170549,84.62425 L126.340006,98.08175 C126.46021,98.34175 126.299938,98.60175 125.999429,98.60175 L124.256975,98.60175 C123.956466,98.60175 123.816228,98.48175 123.675991,98.20175 L122.694327,96.04175 L116.705176,96.04175 L115.724013,98.20175 C115.643877,98.40175 115.46307,98.60175 115.143028,98.60175 L113.400074,98.60175 C113.100065,98.60175 112.939293,98.34175 113.059997,98.08175 Z" id="Fill-94" fill="#0068B4"></path>
                <path d="M131.250329,84.7639 C131.250329,84.5639 131.430634,84.4039 131.630974,84.4039 L132.131823,84.4039 L140.463945,93.2424 L140.48448,93.2424 L140.48448,84.9839 C140.48448,84.7839 140.644751,84.6039 140.864624,84.6039 L142.707748,84.6039 C142.908087,84.6039 143.088393,84.7839 143.088393,84.9839 L143.088393,98.4414 C143.088393,98.6414 142.908087,98.8014 142.707748,98.8014 L142.226933,98.8014 L133.854242,89.6229 L133.834208,89.6229 L133.834208,98.2219 C133.834208,98.4214 133.673936,98.6014 133.453563,98.6014 L131.630974,98.6014 C131.430634,98.6014 131.250329,98.4214 131.250329,98.2219 L131.250329,84.7639 Z" id="Fill-96" fill="#0068B4"></path>
                <path d="M158.65663,84.98385 C158.65663,84.78385 158.836435,84.60385 159.037275,84.60385 L160.899932,84.60385 C161.100272,84.60385 161.280577,84.78385 161.280577,84.98385 L161.280577,98.22185 C161.280577,98.42135 161.100272,98.60135 160.899932,98.60135 L159.037275,98.60135 C158.836435,98.60135 158.65663,98.42135 158.65663,98.22185 L158.65663,84.98385 Z" id="Fill-98" fill="#0068B4"></path>
                <path d="M169.09377,87.0034 L166.029576,87.0034 C165.808702,87.0034 165.64843,86.8234 165.64843,86.6234 L165.64843,84.9839 C165.64843,84.7839 165.808702,84.6039 166.029576,84.6039 L174.782412,84.6039 C175.002785,84.6039 175.163057,84.7839 175.163057,84.9839 L175.163057,86.6234 C175.163057,86.8234 175.002785,87.0034 174.782412,87.0034 L171.717717,87.0034 L171.717717,98.2219 C171.717717,98.4214 171.537913,98.6014 171.337072,98.6014 L169.474415,98.6014 C169.274076,98.6014 169.09377,98.4214 169.09377,98.2219 L169.09377,87.0034 Z" id="Fill-100" fill="#0068B4"></path>
                <path d="M186.161749,93.82225 L184.158353,89.42325 L184.098752,89.42325 L182.135424,93.82225 L186.161749,93.82225 Z M177.508582,98.08175 L183.73764,84.62425 C183.797742,84.50375 183.897912,84.40425 184.078718,84.40425 L184.278557,84.40425 C184.479397,84.40425 184.559032,84.50375 184.619134,84.62425 L190.788591,98.08175 C190.909295,98.34175 190.748523,98.60175 190.448514,98.60175 L188.70556,98.60175 C188.405051,98.60175 188.264813,98.48175 188.124576,98.20175 L187.142912,96.04175 L181.153761,96.04175 L180.172598,98.20175 C180.092462,98.40175 179.911655,98.60175 179.591613,98.60175 L177.848659,98.60175 C177.54865,98.60175 177.387878,98.34175 177.508582,98.08175 Z" id="Fill-102" fill="#0068B4"></path>
                <path d="M195.298334,84.98385 C195.298334,84.78385 195.458105,84.60385 195.67898,84.60385 L197.521603,84.60385 C197.721942,84.60385 197.902248,84.78385 197.902248,84.98385 L197.902248,96.20185 L203.009905,96.20185 C203.230278,96.20185 203.39055,96.38185 203.39055,96.58185 L203.39055,98.22185 C203.39055,98.42135 203.230278,98.60135 203.009905,98.60135 L195.67898,98.60135 C195.458105,98.60135 195.298334,98.42135 195.298334,98.22185 L195.298334,84.98385 Z" id="Fill-104" fill="#0068B4"></path>
                <path d="M209.220832,91.8628 L204.654092,85.1838 C204.49382,84.9238 204.654092,84.6038 204.974134,84.6038 L207.018098,84.6038 C207.177869,84.6038 207.278039,84.7038 207.338141,84.7838 L210.543073,89.3833 L213.748005,84.7838 C213.808107,84.7038 213.907776,84.6038 214.068548,84.6038 L216.131545,84.6038 C216.452088,84.6038 216.61236,84.9238 216.452088,85.1838 L211.824745,91.8428 L211.824745,98.2218 C211.824745,98.4218 211.644941,98.6018 211.4441,98.6018 L209.601978,98.6018 C209.381104,98.6018 209.220832,98.4218 209.220832,98.2218 L209.220832,91.8628 Z" id="Fill-106" fill="#0068B4"></path>
            </g>
        </g>
    </g>
</svg>