<?xml version="1.0" encoding="UTF-8"?>
<svg width="135px" height="45px" viewBox="0 0 135 45" version="1.1" xmlns="http://www.w3.org/2000/svg" xmlns:xlink="http://www.w3.org/1999/xlink">
    <!-- Generator: Sketch 52.5 (67469) - http://www.bohemiancoding.com/sketch -->
    <title>logos/mobile-oeglobal19</title>
    <desc>Created with Sketch.</desc>
    <g id="Symbols" stroke="none" stroke-width="1" fill="none" fill-rule="evenodd">
        <g id="logos/mobile-oeglobal19" transform="translate(-1.000000, 0.000000)">
            <g id="logos/oeglobal19">
                <g transform="translate(0.983084, 0.292063)">
                    <g id="Group-2">
                        <g id="Group-87" transform="translate(128.653772, 21.788813)"></g>
                    </g>
                    <g id="Group" transform="translate(25.000000, 36.000000)"></g>
                    <path d="M8.39333807,14.442306 C11.7538387,14.442306 14.5224926,11.6884394 14.5224926,8.32036317 C14.5224926,4.95257905 11.7538387,2.15636317 8.39333807,2.15636317 C5.03312883,2.15636317 2.28545622,4.95257905 2.28545622,8.32036317 C2.28545622,11.6884394 5.03312883,14.442306 8.39333807,14.442306 M8.39333807,0.673556825 C12.6204819,0.673556825 16.0019638,4.08398222 16.0019638,8.32036317 C16.0019638,12.5570362 12.6204819,15.9251124 8.39333807,15.9251124 C4.16619427,15.9251124 0.805985032,12.5570362 0.805985032,8.32036317 C0.805985032,4.08398222 4.16619427,0.673556825 8.39333807,0.673556825" id="Fill-43" fill="#231F20"></path>
                    <path d="M19.9738937,1.13446222 C19.9738937,0.92271619 20.1429095,0.73199873 20.375452,0.73199873 L29.5830256,0.73199873 C29.815568,0.73199873 29.9845838,0.92271619 29.9845838,1.13446222 L29.9845838,1.74867175 C29.9845838,1.96070984 29.815568,2.15113524 29.5830256,2.15113524 L21.601108,2.15113524 L21.601108,7.31978286 L27.6667359,7.31978286 C27.8782971,7.31978286 28.0682942,7.51050032 28.0682942,7.72224635 L28.0682942,8.33645587 C28.0682942,8.56952254 27.8782971,8.73891937 27.6667359,8.73891937 L21.601108,8.73891937 L21.601108,14.1406337 L29.876472,14.1406337 C30.1090144,14.1406337 30.2780303,14.3313511 30.2780303,14.5430971 L30.2780303,15.1573067 C30.2780303,15.3693448 30.1090144,15.5597702 29.876472,15.5597702 L20.375452,15.5597702 C20.1429095,15.5597702 19.9738937,15.3693448 19.9738937,15.1573067 L19.9738937,1.13446222 Z" id="Fill-45" fill="#231F20"></path>
                    <path d="M47.6538176,0.792893968 C49.7883708,0.792893968 51.3313686,1.53444317 52.7685859,2.76286222 C52.9376017,2.93255111 52.9588744,3.18664635 52.7898585,3.35604317 C52.59957,3.54676063 52.3670276,3.75850667 52.1980118,3.94922413 C52.0077233,4.16097016 51.8809614,4.13964952 51.648419,3.92790349 C50.5707975,2.97460825 49.0487809,2.27570032 47.6328363,2.27570032 C44.2936084,2.27570032 41.757497,5.07191619 41.757497,8.35529397 C41.757497,11.6173511 44.2936084,14.4769448 47.6328363,14.4769448 C49.957678,14.4769448 51.4368578,13.5873194 51.4368578,13.5873194 L51.4368578,10.6217067 L49.0068184,10.6217067 C48.7742759,10.6217067 48.6049687,10.4523098 48.6049687,10.2402717 L48.6049687,9.4566654 C48.6049687,9.22359873 48.7742759,9.0542019 49.0068184,9.0542019 L52.6628053,9.0542019 C52.8743664,9.0542019 53.0433823,9.2446273 53.0433823,9.4566654 L53.0433823,14.3072559 C53.0433823,14.4132749 52.9588744,14.5826717 52.8743664,14.6463416 C52.8743664,14.6463416 50.7185406,16.0444495 47.6538176,16.0444495 C43.4269652,16.0444495 40.0242106,12.6763733 40.0242106,8.43970032 C40.0242106,4.20331937 43.4269652,0.792893968 47.6538176,0.792893968" id="Fill-47" fill="#231F20"></path>
                    <path d="M59.6825857,1.28788317 C59.6825857,1.07584508 59.8516015,0.885419683 60.084144,0.885419683 L60.9082418,0.885419683 C61.119803,0.885419683 61.3098,1.07584508 61.3098,1.28788317 L61.3098,14.2940546 L68.2773313,14.2940546 C68.5098737,14.2940546 68.6788895,14.4847721 68.6788895,14.6965181 L68.6788895,15.3107276 C68.6788895,15.5224737 68.5098737,15.7131911 68.2773313,15.7131911 L60.084144,15.7131911 C59.8516015,15.7131911 59.6825857,15.5224737 59.6825857,15.3107276 L59.6825857,1.28788317 Z" id="Fill-49" fill="#231F20"></path>
                    <path d="M79.0514484,14.442306 C82.4116576,14.442306 85.1803115,11.6884394 85.1803115,8.32036317 C85.1803115,4.95257905 82.4116576,2.15636317 79.0514484,2.15636317 C75.6909477,2.15636317 72.9432751,4.95257905 72.9432751,8.32036317 C72.9432751,11.6884394 75.6909477,14.442306 79.0514484,14.442306 M79.0514484,0.673556825 C83.2783008,0.673556825 86.6597827,4.08398222 86.6597827,8.32036317 C86.6597827,12.5570362 83.2783008,15.9251124 79.0514484,15.9251124 C74.8243046,15.9251124 71.4638039,12.5570362 71.4638039,8.32036317 C71.4638039,4.08398222 74.8243046,0.673556825 79.0514484,0.673556825" id="Fill-51" fill="#231F20"></path>
                    <path d="M97.2558212,7.53672762 C98.9943528,7.53672762 99.9650281,6.37168635 99.9650281,4.88888 C99.9650281,3.36372444 98.9943528,2.34675937 97.2558212,2.34675937 L93.5756475,2.34675937 L93.5756475,7.53672762 L97.2558212,7.53672762 Z M97.6396037,14.2939086 C99.2877993,14.2939086 100.484315,13.1288673 100.484315,11.6037117 C100.484315,10.0998768 99.0167911,8.99821333 97.2558212,8.99821333 L93.5304795,8.99821333 L93.5304795,14.2939086 L97.6396037,14.2939086 Z M91.8825753,1.28773714 C91.8825753,1.07599111 92.062956,0.885565714 92.3112344,0.885565714 L97.2558212,0.885565714 C100.010196,0.885565714 101.884232,2.55879746 101.884232,4.78286095 C101.884232,6.41403556 100.732593,7.6001054 99.6712903,8.17225778 C100.868097,8.63809905 102.380789,9.6760927 102.380789,11.6250324 C102.380789,13.9974641 100.371249,15.7133371 97.4586402,15.7133371 L92.3112344,15.7133371 C92.062956,15.7133371 91.8825753,15.5226197 91.8825753,15.3108737 L91.8825753,1.28773714 Z" id="Fill-53" fill="#231F20"></path>
                    <path d="M116.494658,10.6717079 C115.458999,8.36294603 114.444613,6.03286349 113.408954,3.72380952 L113.239938,3.72380952 L110.154234,10.6717079 L116.494658,10.6717079 Z M106.455702,15.1624762 L112.880634,0.906565079 C112.943869,0.77951746 113.04965,0.673498413 113.239938,0.673498413 L113.451208,0.673498413 C113.641496,0.673498413 113.747277,0.77951746 113.810512,0.906565079 L120.19319,15.1624762 C120.320244,15.4378921 120.150937,15.7133079 119.833886,15.7133079 L118.988807,15.7133079 C118.798227,15.7133079 118.671757,15.5859683 118.629211,15.4802413 L117.065232,11.9851175 L109.562387,11.9851175 L108.019681,15.4802413 C107.977135,15.5859683 107.850665,15.7133079 107.660376,15.7133079 L106.815006,15.7133079 C106.497956,15.7133079 106.328648,15.4378921 106.455702,15.1624762 Z" id="Fill-55" fill="#231F20"></path>
                    <path d="M125.22858,0.993687619 C125.22858,0.781941587 125.397887,0.591224127 125.630429,0.591224127 L126.454236,0.591224127 C126.666088,0.591224127 126.856085,0.781941587 126.856085,0.993687619 L126.856085,14.293967 L133.823325,14.293967 C134.055868,14.293967 134.225175,14.4846844 134.225175,14.6964305 L134.225175,15.3109321 C134.225175,15.5226781 134.055868,15.7131035 133.823325,15.7131035 L125.630429,15.7131035 C125.397887,15.7131035 125.22858,15.5226781 125.22858,15.3109321 L125.22858,0.993687619 Z" id="Fill-57" fill="#231F20"></path>
                    <path d="M5.27010066,21.8080597 C6.4549598,21.8080597 7.31140373,22.1842375 8.10869212,22.9015454 C8.21447271,22.9955898 8.21447271,23.1366565 8.12063979,23.230701 L7.40494524,23.971374 C7.32305999,24.0654184 7.20591455,24.0654184 7.11179023,23.971374 C6.61931311,23.5361994 5.96219128,23.2777232 5.30536086,23.2777232 C3.80403417,23.2777232 2.68969542,24.5356406 2.68969542,26.0169867 C2.68969542,27.4863581 3.81569044,28.732593 5.31701712,28.732593 C6.020764,28.732593 6.61931311,28.4621422 7.11179023,28.0625994 C7.20591455,27.9802375 7.33471626,27.99192 7.40494524,28.0625994 L8.13229606,28.8149549 C8.22642038,28.8970248 8.20252504,29.050066 8.12063979,29.1324279 C7.32305999,29.9081486 6.31421043,30.2726438 5.27010066,30.2726438 C2.92427772,30.2726438 1.0356717,28.4034375 1.0356717,26.0520343 C1.0356717,23.7009232 2.92427772,21.8080597 5.27010066,21.8080597" id="Fill-59" fill="#231F20"></path>
                    <path d="M14.9249542,28.7442756 C16.402677,28.7442756 17.6227963,27.5333803 17.6227963,26.0520343 C17.6227963,24.5706883 16.402677,23.3364279 14.9249542,23.3364279 C13.4469401,23.3364279 12.2387684,24.5706883 12.2387684,26.0520343 C12.2387684,27.5333803 13.4469401,28.7442756 14.9249542,28.7442756 M14.9249542,21.8080597 C17.2707772,21.8080597 19.1474355,23.7009232 19.1474355,26.0520343 C19.1474355,28.4034375 17.2707772,30.2726438 14.9249542,30.2726438 C12.5788399,30.2726438 10.7138378,28.4034375 10.7138378,26.0520343 C10.7138378,23.7009232 12.5788399,21.8080597 14.9249542,21.8080597" id="Fill-61" fill="#231F20"></path>
                    <path d="M21.7761268,22.0196889 C21.7761268,21.9022794 21.881616,21.8079429 21.9990529,21.8079429 L22.2922079,21.8079429 L27.171811,27.0043365 L27.1834673,27.0043365 L27.1834673,22.149073 C27.1834673,22.0316635 27.2773002,21.9256444 27.4063933,21.9256444 L28.4854718,21.9256444 C28.6029087,21.9256444 28.7083979,22.0316635 28.7083979,22.149073 L28.7083979,30.061073 C28.7083979,30.1787746 28.6029087,30.272527 28.4854718,30.272527 L28.2042645,30.272527 L23.300766,24.876654 L23.2891098,24.876654 L23.2891098,29.9316889 C23.2891098,30.0493905 23.1952768,30.1551175 23.0664751,30.1551175 L21.9990529,30.1551175 C21.881616,30.1551175 21.7761268,30.0493905 21.7761268,29.9316889 L21.7761268,22.0196889 Z" id="Fill-63" fill="#231F20"></path>
                    <path d="M33.1082583,22.1490438 C33.1082583,22.0316343 33.2017999,21.9256152 33.3311844,21.9256152 L38.1050069,21.9256152 C38.2341,21.9256152 38.327933,22.0316343 38.327933,22.1490438 L38.327933,23.1131454 C38.327933,23.2305549 38.2341,23.3362819 38.1050069,23.3362819 L34.6328976,23.3362819 L34.6328976,25.5466184 L37.5303532,25.5466184 C37.6474986,25.5466184 37.7529878,25.6523454 37.7529878,25.770047 L37.7529878,26.7341486 C37.7529878,26.8515581 37.6474986,26.9572851 37.5303532,26.9572851 L34.6328976,26.9572851 L34.6328976,29.9316597 C34.6328976,30.0493613 34.5274084,30.1550883 34.4102629,30.1550883 L33.3311844,30.1550883 C33.2017999,30.1550883 33.1082583,30.0493613 33.1082583,29.9316597 L33.1082583,22.1490438 Z" id="Fill-65" fill="#231F20"></path>
                    <path d="M42.4580092,22.1490438 C42.4580092,22.0316343 42.5515507,21.9256152 42.6809353,21.9256152 L47.4547578,21.9256152 C47.5838509,21.9256152 47.6776838,22.0316343 47.6776838,22.1490438 L47.6776838,23.1131454 C47.6776838,23.2305549 47.5838509,23.3362819 47.4547578,23.3362819 L43.9826484,23.3362819 L43.9826484,25.2644851 L46.880104,25.2644851 C46.9972495,25.2644851 47.1027386,25.3702121 47.1027386,25.4879137 L47.1027386,26.4636978 C47.1027386,26.5927898 46.9972495,26.6871263 46.880104,26.6871263 L43.9826484,26.6871263 L43.9826484,28.7444216 L47.4547578,28.7444216 C47.5838509,28.7444216 47.6776838,28.8501486 47.6776838,28.9678502 L47.6776838,29.9316597 C47.6776838,30.0493613 47.5838509,30.1550883 47.4547578,30.1550883 L42.6809353,30.1550883 C42.5515507,30.1550883 42.4580092,30.0493613 42.4580092,29.9316597 L42.4580092,22.1490438 Z" id="Fill-67" fill="#231F20"></path>
                    <path d="M55.185716,25.6759149 C55.8072862,25.6759149 56.3466798,25.1350133 56.3466798,24.4769943 C56.3466798,23.8537308 55.8072862,23.3364863 55.185716,23.3364863 L53.273506,23.3364863 L53.273506,25.6759149 L55.185716,25.6759149 Z M51.7372106,22.1489562 C51.7372106,22.0315467 51.8307521,21.9258197 51.9601366,21.9258197 L55.3145177,21.9258197 C56.7220115,21.9258197 57.8719018,23.054353 57.8719018,24.4533371 C57.8719018,25.5348483 57.1562073,26.4165879 56.1357014,26.8281054 L57.7425173,29.8141625 C57.8249854,29.9669117 57.7425173,30.1550006 57.5434866,30.1550006 L56.311711,30.1550006 C56.2062218,30.1550006 56.1476491,30.0962959 56.1240452,30.0492737 L54.5638544,26.9338324 L53.2618498,26.9338324 L53.2618498,29.9318641 C53.2618498,30.0492737 53.1563606,30.1550006 53.0392151,30.1550006 L51.9601366,30.1550006 C51.8307521,30.1550006 51.7372106,30.0492737 51.7372106,29.9318641 L51.7372106,22.1489562 Z" id="Fill-69" fill="#231F20"></path>
                    <path d="M61.6965548,22.1490438 C61.6965548,22.0316343 61.7903878,21.9256152 61.9194809,21.9256152 L66.6933034,21.9256152 C66.8226879,21.9256152 66.9162294,22.0316343 66.9162294,22.1490438 L66.9162294,23.1131454 C66.9162294,23.2305549 66.8226879,23.3362819 66.6933034,23.3362819 L63.2211941,23.3362819 L63.2211941,25.2644851 L66.1186496,25.2644851 C66.2360865,25.2644851 66.3415757,25.3702121 66.3415757,25.4879137 L66.3415757,26.4636978 C66.3415757,26.5927898 66.2360865,26.6871263 66.1186496,26.6871263 L63.2211941,26.6871263 L63.2211941,28.7444216 L66.6933034,28.7444216 C66.8226879,28.7444216 66.9162294,28.8501486 66.9162294,28.9678502 L66.9162294,29.9316597 C66.9162294,30.0493613 66.8226879,30.1550883 66.6933034,30.1550883 L61.9194809,30.1550883 C61.7903878,30.1550883 61.6965548,30.0493613 61.6965548,29.9316597 L61.6965548,22.1490438 Z" id="Fill-71" fill="#231F20"></path>
                    <path d="M70.7412613,22.0196889 C70.7412613,21.9022794 70.8467505,21.8079429 70.9641873,21.8079429 L71.2573424,21.8079429 L76.1372369,27.0043365 L76.1488932,27.0043365 L76.1488932,22.149073 C76.1488932,22.0316635 76.2427261,21.9256444 76.3715278,21.9256444 L77.4506063,21.9256444 C77.5680432,21.9256444 77.6735324,22.0316635 77.6735324,22.149073 L77.6735324,30.061073 C77.6735324,30.1787746 77.5680432,30.272527 77.4506063,30.272527 L77.169399,30.272527 L72.2659005,24.876654 L72.2542443,24.876654 L72.2542443,29.9316889 C72.2542443,30.0493905 72.1604113,30.1551175 72.0316096,30.1551175 L70.9641873,30.1551175 C70.8467505,30.1551175 70.7412613,30.0493905 70.7412613,29.9316889 L70.7412613,22.0196889 Z" id="Fill-73" fill="#231F20"></path>
                    <path d="M85.4752149,21.8080597 C86.6597827,21.8080597 87.5162266,22.1842375 88.3138064,22.9015454 C88.419587,22.9955898 88.419587,23.1366565 88.3254627,23.230701 L87.6100595,23.971374 C87.5278829,24.0654184 87.4107374,24.0654184 87.3166131,23.971374 C86.824136,23.5361994 86.1673056,23.2777232 85.5101837,23.2777232 C84.008857,23.2777232 82.8948097,24.5356406 82.8948097,26.0169867 C82.8948097,27.4863581 84.0208047,28.732593 85.5221314,28.732593 C86.2258783,28.732593 86.824136,28.4621422 87.3166131,28.0625994 C87.4107374,27.9802375 87.5395391,27.99192 87.6100595,28.0625994 L88.3371189,28.8149549 C88.4312433,28.8970248 88.4076393,29.050066 88.3254627,29.1324279 C87.5278829,29.9081486 86.5190333,30.2726438 85.4752149,30.2726438 C83.1291006,30.2726438 81.240786,28.4034375 81.240786,26.0520343 C81.240786,23.7009232 83.1291006,21.8080597 85.4752149,21.8080597" id="Fill-75" fill="#231F20"></path>
                    <path d="M92.0096577,22.1490438 C92.0096577,22.0316343 92.1034907,21.9256152 92.2325838,21.9256152 L97.0064063,21.9256152 C97.1357908,21.9256152 97.2293323,22.0316343 97.2293323,22.1490438 L97.2293323,23.1131454 C97.2293323,23.2305549 97.1357908,23.3362819 97.0064063,23.3362819 L93.5342969,23.3362819 L93.5342969,25.2644851 L96.4317525,25.2644851 C96.5491894,25.2644851 96.6546786,25.3702121 96.6546786,25.4879137 L96.6546786,26.4636978 C96.6546786,26.5927898 96.5491894,26.6871263 96.4317525,26.6871263 L93.5342969,26.6871263 L93.5342969,28.7444216 L97.0064063,28.7444216 C97.1357908,28.7444216 97.2293323,28.8501486 97.2293323,28.9678502 L97.2293323,29.9316597 C97.2293323,30.0493613 97.1357908,30.1550883 97.0064063,30.1550883 L92.2325838,30.1550883 C92.1034907,30.1550883 92.0096577,30.0493613 92.0096577,29.9316597 L92.0096577,22.1490438 Z" id="Fill-77" fill="#231F20"></path>
                    <path d="M105.324432,29.6614133 C106.098408,28.7209689 107.576714,26.7927657 108.362346,25.7465943 C108.726021,25.2997371 108.960895,24.8411975 108.960895,24.4413625 C108.960895,23.9124356 108.561668,23.371826 107.717172,23.371826 C107.154174,23.371826 106.673353,23.7713689 106.403511,24.0651848 C106.309678,24.1595213 106.180585,24.1595213 106.086752,24.0651848 L105.524046,23.5009181 C105.453234,23.4305308 105.429921,23.2894641 105.512098,23.1954197 C105.512098,23.1954197 106.426823,22.0432292 107.822661,22.0432292 C109.500288,22.0432292 110.438618,23.1130578 110.438618,24.3826578 C110.438618,25.1469879 110.110202,25.6288927 109.652694,26.2872038 C109.148269,27.0045117 108.256857,28.10968 107.635286,28.8970832 L110.168775,28.8970832 C110.285921,28.8970832 110.391701,29.0031022 110.391701,29.1205117 L110.391701,29.9318641 C110.391701,30.0492737 110.285921,30.1550006 110.168775,30.1550006 L105.547358,30.1550006 C105.418265,30.1550006 105.324432,30.0492737 105.324432,29.9318641 L105.324432,29.6614133 Z" id="Fill-79" fill="#231F20"></path>
                    <path d="M117.922929,26.1579365 C117.922929,24.4181143 117.406848,23.4306476 116.503488,23.4306476 C115.600419,23.4306476 115.084338,24.4181143 115.084338,26.1579365 C115.084338,27.9097333 115.600419,28.8855175 116.503488,28.8855175 C117.406848,28.8855175 117.922929,27.9097333 117.922929,26.1579365 M113.54746,26.1579365 C113.54746,23.5833968 114.626538,22.043346 116.503488,22.043346 C118.380146,22.043346 119.459516,23.5833968 119.459516,26.1579365 C119.459516,28.7324762 118.380146,30.272527 116.503488,30.272527 C114.626538,30.272527 113.54746,28.7324762 113.54746,26.1579365" id="Fill-81" fill="#231F20"></path>
                    <path d="M123.859202,24.3004419 L122.82704,24.5238705 C122.721551,24.5472356 122.603822,24.4768483 122.592166,24.3711213 L122.521937,23.79488 C122.510281,23.7008356 122.533593,23.6304483 122.58051,23.583134 L124.269502,22.1607848 L125.090977,22.1607848 C125.208123,22.1607848 125.301956,22.2665117 125.301956,22.3842133 L125.301956,29.9317181 C125.301956,30.0494197 125.208123,30.1551467 125.090977,30.1551467 L124.082128,30.1551467 C123.953035,30.1551467 123.859202,30.0494197 123.859202,29.9317181 L123.859202,24.3004419 Z" id="Fill-83" fill="#231F20"></path>
                    <polygon id="Clip-86" points="128.915193 21.9727251 134.357765 21.9727251 134.357765 30.3590772 128.915193 30.3590772"></polygon>
                    <path d="M132.9503,25.0411441 C132.9503,24.2417663 132.528052,23.3130044 131.578067,23.3130044 C130.83906,23.3130044 130.240802,23.9476584 130.240802,24.6883314 C130.240802,25.440979 130.83906,26.0639505 131.589723,26.0639505 C132.363699,26.0639505 132.821498,25.4643441 132.9503,25.0411441 M130.064792,29.1440521 C130.616134,28.9676457 132.281813,28.1802425 132.645489,26.8866933 C132.446167,27.0043949 131.859565,27.216141 131.308224,27.216141 C130.135313,27.216141 128.915193,26.3460838 128.915193,24.6649663 C128.915193,23.1836203 130.123656,21.9727251 131.566119,21.9727251 C133.407809,21.9727251 134.357794,23.4540711 134.357794,25.2175505 C134.357794,28.6501727 131.46063,30.0141092 130.452072,30.3432648 C130.287718,30.390287 130.170281,30.3315822 130.123656,30.178541 L129.853522,29.4848902 C129.79495,29.3438235 129.841866,29.2147314 130.064792,29.1440521" id="Fill-85" fill="#231F20"></path>
                    <path d="M2.39065277,36.1752381 C2.40230903,36.0817778 2.4719552,36 2.6004655,36 L2.7866743,36 C2.88021582,36 2.94986199,36.0467302 2.98483078,36.1168254 L5.54891724,41.6301079 L5.58388603,41.6301079 L8.14768109,36.1168254 C8.18264988,36.0467302 8.2409312,36 8.34612897,36 L8.53233778,36 C8.66055667,36 8.73049425,36.0817778 8.74215051,36.1752381 L10.1172981,44.0244444 C10.1522669,44.1882921 10.0590168,44.2931429 9.90748541,44.2931429 L8.84705688,44.2931429 C8.74215051,44.2931429 8.64890041,44.1999746 8.62558788,44.1179048 L7.93786836,39.6910984 L7.90289957,39.6910984 L5.86363635,44.2814603 C5.84032382,44.3518476 5.77038624,44.4099683 5.66518847,44.4099683 L5.45566714,44.4099683 C5.35076077,44.4099683 5.29247946,44.3518476 5.25751067,44.2814603 L3.19464351,39.6910984 L3.15967472,39.6910984 L2.48361146,44.1179048 C2.4719552,44.1999746 2.3789965,44.2931429 2.27409014,44.2931429 L1.22502646,44.2931429 C1.07349504,44.2931429 0.980244936,44.1882921 1.00355746,44.0244444 L2.39065277,36.1752381 Z" id="Fill-88" fill="#0068B4"></path>
                    <path d="M14,36.2219683 C14,36.1051429 14.1049064,36 14.2217604,36 L15.3052101,36 C15.4220641,36 15.5266791,36.1051429 15.5266791,36.2219683 L15.5266791,43.9546413 C15.5266791,44.0711746 15.4220641,44.1763175 15.3052101,44.1763175 L14.2217604,44.1763175 C14.1049064,44.1763175 14,44.0711746 14,43.9546413 L14,36.2219683 Z" id="Fill-90" fill="#0068B4"></path>
                    <path d="M19,36.2219683 C19,36.1051429 19.0932501,36 19.221469,36 L20.2935538,36 C20.4101164,36 20.5150228,36.1051429 20.5150228,36.2219683 L20.5150228,42.7747048 L23.4867871,42.7747048 C23.615006,42.7747048 23.7082561,42.8798476 23.7082561,42.996673 L23.7082561,43.9546413 C23.7082561,44.0711746 23.615006,44.1763175 23.4867871,44.1763175 L19.221469,44.1763175 C19.0932501,44.1763175 19,44.0711746 19,43.9546413 L19,36.2219683 Z" id="Fill-92" fill="#0068B4"></path>
                    <path d="M31.0581087,41.5013079 L29.8924824,38.9317333 L29.8575136,38.9317333 L28.7154913,41.5013079 L31.0581087,41.5013079 Z M26.0234773,43.9893968 L29.6477009,36.1285079 C29.6826697,36.0581206 29.740951,36 29.8458574,36 L29.96242,36 C30.0789826,36 30.1256077,36.0581206 30.1605765,36.1285079 L33.7501227,43.9893968 C33.8200603,44.1412698 33.7268102,44.2931429 33.5519662,44.2931429 L32.5381627,44.2931429 C32.3633188,44.2931429 32.2817249,44.2230476 32.2001311,44.0594921 L31.6289742,42.7977778 L28.1443344,42.7977778 L27.5734689,44.0594921 C27.5268438,44.1763175 27.4216461,44.2931429 27.2354372,44.2931429 L26.2213424,44.2931429 C26.0467898,44.2931429 25.9532483,44.1412698 26.0234773,43.9893968 Z" id="Fill-94" fill="#0068B4"></path>
                    <path d="M37,36.2102857 C37,36.0934603 37.1049064,36 37.221469,36 L37.5128756,36 L42.3607154,41.1628063 L42.3726631,41.1628063 L42.3726631,36.3387937 C42.3726631,36.2219683 42.4659132,36.1168254 42.5938406,36.1168254 L43.6662168,36.1168254 C43.7827795,36.1168254 43.8876858,36.2219683 43.8876858,36.3387937 L43.8876858,44.1996825 C43.8876858,44.3165079 43.7827795,44.4099683 43.6662168,44.4099683 L43.3864665,44.4099683 L38.5150228,39.0485587 L38.5033665,39.0485587 L38.5033665,44.0714667 C38.5033665,44.188 38.4101164,44.2931429 38.2818975,44.2931429 L37.221469,44.2931429 C37.1049064,44.2931429 37,44.188 37,44.0714667 L37,36.2102857 Z" id="Fill-96" fill="#0068B4"></path>
                    <path d="M53,36.2219683 C53,36.1051429 53.104615,36 53.221469,36 L54.3052101,36 C54.4217727,36 54.5266791,36.1051429 54.5266791,36.2219683 L54.5266791,43.9546413 C54.5266791,44.0711746 54.4217727,44.1763175 54.3052101,44.1763175 L53.221469,44.1763175 C53.104615,44.1763175 53,44.0711746 53,43.9546413 L53,36.2219683 Z" id="Fill-98" fill="#0068B4"></path>
                    <path d="M59.0045858,37.4016127 L57.2217604,37.4016127 C57.0932501,37.4016127 57,37.2964698 57,37.1796444 L57,36.2219683 C57,36.1051429 57.0932501,36 57.2217604,36 L62.3143817,36 C62.4426006,36 62.5358507,36.1051429 62.5358507,36.2219683 L62.5358507,37.1796444 C62.5358507,37.2964698 62.4426006,37.4016127 62.3143817,37.4016127 L60.5312649,37.4016127 L60.5312649,43.9546413 C60.5312649,44.0711746 60.4266499,44.1763175 60.3097959,44.1763175 L59.2260548,44.1763175 C59.1094922,44.1763175 59.0045858,44.0711746 59.0045858,43.9546413 L59.0045858,37.4016127 Z" id="Fill-100" fill="#0068B4"></path>
                    <path d="M69.0581087,41.5013079 L67.8924824,38.9317333 L67.857805,38.9317333 L66.7154913,41.5013079 L69.0581087,41.5013079 Z M64.0234773,43.9893968 L67.6477009,36.1285079 C67.6826697,36.0581206 67.740951,36 67.8461488,36 L67.96242,36 C68.079274,36 68.1256077,36.0581206 68.1605765,36.1285079 L71.7501227,43.9893968 C71.8203517,44.1412698 71.7268102,44.2931429 71.5522576,44.2931429 L70.5381627,44.2931429 C70.3633188,44.2931429 70.2817249,44.2230476 70.2001311,44.0594921 L69.6289742,42.7977778 L66.1443344,42.7977778 L65.5734689,44.0594921 C65.5268438,44.1763175 65.4216461,44.2931429 65.2354372,44.2931429 L64.2213424,44.2931429 C64.0467898,44.2931429 63.9532483,44.1412698 64.0234773,43.9893968 Z" id="Fill-102" fill="#0068B4"></path>
                    <path d="M74,36.2219683 C74,36.1051429 74.0929587,36 74.221469,36 L75.2935538,36 C75.4101164,36 75.5150228,36.1051429 75.5150228,36.2219683 L75.5150228,42.7747048 L78.4867871,42.7747048 C78.615006,42.7747048 78.7082561,42.8798476 78.7082561,42.996673 L78.7082561,43.9546413 C78.7082561,44.0711746 78.615006,44.1763175 78.4867871,44.1763175 L74.221469,44.1763175 C74.0929587,44.1763175 74,44.0711746 74,43.9546413 L74,36.2219683 Z" id="Fill-104" fill="#0068B4"></path>
                    <path d="M81.6936332,40.2401778 L79.0365881,36.3387937 C78.943338,36.1869206 79.0365881,36 79.2227969,36 L80.4120271,36 C80.5049858,36 80.5632671,36.0584127 80.5982359,36.1051429 L82.4629466,38.7918349 L84.3276573,36.1051429 C84.3626261,36.0584127 84.420616,36 84.5141575,36 L85.7144612,36 C85.9009614,36 85.9942115,36.1869206 85.9009614,36.3387937 L83.208656,40.2284952 L83.208656,43.9546413 C83.208656,44.0714667 83.1040411,44.1766095 82.987187,44.1766095 L81.9153936,44.1766095 C81.7868833,44.1766095 81.6936332,44.0714667 81.6936332,43.9546413 L81.6936332,40.2401778 Z" id="Fill-106" fill="#0068B4"></path>
                </g>
            </g>
        </g>
    </g>
</svg>