<svg height="119" viewBox="0 0 205 119" width="205" xmlns="http://www.w3.org/2000/svg"><g fill="none" fill-rule="evenodd"><path d="m65.144799 65.201664c1.81713 0 3.28797-.52989 4.41354-1.59018 1.12506-1.05978 1.68759-2.45565 1.68759-4.1871v-1.62231c-1.42749-.60537-3.0294-.90882-4.80318-.90882-1.7748 0-3.15894.40086-4.15395 1.20054-.99603.80172-1.49277 1.85028-1.49277 3.14823v.13005c0 1.16841.39933 2.09916 1.20054 2.79072.80019.69309 1.85028 1.03887 3.14823 1.03887m-4.41354 7.72446c-3.4629 0-6.29646-.95166-8.50323-2.85651-2.20677-1.90383-3.31041-4.56501-3.31041-7.98354v-.13005c0-3.54756 1.23318-6.27402 3.70005-8.17836 2.46636-1.90332 5.8191-2.856 10.06077-2.856 3.07173 0 5.88438.45492 8.43795 1.36323v-.58446c0-3.80715-2.33682-5.71149-7.01046-5.71149-3.15894 0-6.38316.64923-9.67113 1.94718l-2.53113-8.69805c4.41354-1.81713 9.15195-2.72595 14.21472-2.72595 6.05778 0 10.51518 1.428 13.37067 4.284 2.5092 2.46636 3.76482 6.18834 3.76482 11.16441v20.18631h-12.20226v-3.63528c-2.64027 2.94372-6.08022 4.41456-10.32036 4.41456" stroke="#fff" stroke-width=".756"/><path d="m89.45247 72.14664h12.33231v-35.11503h-12.33231zm-.25959-42.83898c0-2.50971 2.03439-4.54359 4.54359-4.54359h3.76482c2.5092 0 4.54359 2.03388 4.54359 4.54359 0 2.5092-2.03439 4.54308-4.54359 4.54308h-3.76482c-2.5092 0-4.54359-2.03388-4.54359-4.54308z" stroke="#fff" stroke-width=".756"/><path d="m127.526877 62.605356c2.03337 0 3.74238-.74664 5.12754-2.23941 1.38465-1.49277 2.07723-3.40782 2.07723-5.74413v-.13005c0-2.29296-.69258-4.18659-2.07723-5.67936-1.38516-1.49328-3.09417-2.23941-5.12754-2.23941-1.99053 0-3.67863.74613-5.06277 2.23941-1.38567 1.49277-2.07723 3.3864-2.07723 5.67936v.13005c0 2.29398.69156 4.1973 2.07723 5.71149 1.38414 1.51521 3.07224 2.27205 5.06277 2.27205zm-19.21272 16.90191v-42.47586h12.33231v4.67364c2.98605-3.63477 6.53361-5.45241 10.64523-5.45241 4.32633 0 8.00496 1.66617 11.03436 4.998 3.02838 3.33285 4.5441 7.72395 4.5441 13.17636v.12954c0 5.53962-1.5045 9.9858-4.51197 13.33905-3.00747 3.35376-6.67539 5.03013-11.00172 5.03013-4.24167 0-7.81116-1.68759-10.71-5.06277v11.64432z" stroke="#fff" stroke-width=".756"/><path d="m161.713554 51.700638h12.20277c-.21726-1.94718-.86598-3.49401-1.94769-4.641-1.08171-1.14597-2.46636-1.72023-4.15395-1.72023-1.6014 0-2.93148.57426-3.99126 1.72023-1.06131 1.14699-1.76409 2.69382-2.10987 4.641m7.14 21.28995c-5.53962 0-10.06077-1.68759-13.566-5.06277-3.50472-3.37518-5.25759-7.76679-5.25759-13.17636v-.12954c0-5.19282 1.66566-9.55179 4.99851-13.07895 3.33132-3.52665 7.57146-5.29023 12.72144-5.29023 5.75484 0 10.14696 1.81713 13.17636 5.4519 3.02838 3.63477 4.54359 8.22222 4.54359 13.76082 0 1.12557-.02193 1.96962-.06477 2.53113h-23.49672c.99501 3.85203 3.52614 5.77728 7.5939 5.77728 2.7693 0 5.3652-1.18983 7.78923-3.57l6.81564 5.64672c-3.76482 4.76085-8.85003 7.14-15.25359 7.14" stroke="#fff" stroke-width=".756"/><path d="m83.963238 115.739502v-5.74209l11.02467-7.86471c1.37394-1.02255 2.34906-1.90026 2.92434-2.63517.57477-.73338.86241-1.50705.86241-2.31999 0-.86547-.30141-1.54683-.90423-2.04459-.60384-.49827-1.39587-.74766-2.37762-.74766-.95421 0-1.87272.26928-2.75604.80631-.88383.53805-1.91454 1.44891-3.09315 2.73309l-5.51208-4.28655c1.683-2.0451 3.4221-3.53889 5.21781-4.4829 1.79469-.94401 4.05348-1.41576 6.77433-1.41576 3.22575 0 5.84205.81243 7.84788 2.43831 2.00532 1.62537 3.00849 3.73575 3.00849 6.33114v.07854c0 2.07162-.53295 3.78879-1.59885 5.15202-1.06641 1.36323-2.80551 2.85753-5.21781 4.4829l-5.04951 3.30327h12.16095v6.21384z" fill="#ff5547"/><path d="m123.763893 107.422116c1.0098 1.4025 2.32815 2.10375 3.95556 2.10375 1.62639 0 2.93097-.69411 3.91323-2.08437.98175-1.38924 1.47288-3.18546 1.47288-5.38764v-.07854c0-2.20218-.51255-4.01115-1.53612-5.42691-1.02408-1.41576-2.33529-2.12364-3.93414-2.12364s-2.8968.69513-3.89232 2.08437c-.99603 1.38975-1.49379 3.18546-1.49379 5.38764v.07854c0 2.2287.5049 4.0443 1.5147 5.4468m13.78071 4.71903c-2.51073 2.76624-5.814 4.14885-9.9093 4.14885-4.09632 0-7.3848-1.36986-9.86748-4.10958-2.48268-2.73921-3.72402-6.1149-3.72402-10.12656v-.07854c0-4.01115 1.26225-7.39908 3.78726-10.16583 2.5245-2.76573 5.82063-4.14885 9.88839-4.14885 4.06674 0 7.3491 1.36986 9.84606 4.10958 2.49696 2.74023 3.74544 6.11541 3.74544 10.12656v.07854c0 4.01166-1.25613 7.4001-3.76635 10.16583" fill="#fb0"/><path d="m147.059571 115.739502v-5.74209l11.02467-7.86471c1.37445-1.02255 2.34957-1.90026 2.92485-2.63517.57477-.73338.86241-1.50705.86241-2.31999 0-.86547-.30141-1.54683-.90474-2.04459-.60333-.49827-1.39587-.74766-2.37762-.74766-.9537 0-1.87221.26928-2.75604.80631-.88383.53805-1.91454 1.44891-3.09264 2.73309l-5.51259-4.28655c1.683-2.0451 3.42261-3.53889 5.21781-4.4829s4.05348-1.41576 6.77484-1.41576c3.22575 0 5.84154.81243 7.84788 2.43831 2.00532 1.62537 3.00849 3.73575 3.00849 6.33114v.07854c0 2.07162-.53346 3.78879-1.59885 5.15202-1.06641 1.36323-2.80551 2.85753-5.21781 4.4829l-5.04951 3.30327h12.16044v6.21384z" fill="#007f00"/><path d="m186.860481 107.422116c1.0098 1.4025 2.32815 2.10375 3.95505 2.10375s2.93148-.69411 3.91374-2.08437c.98175-1.38924 1.47237-3.18546 1.47237-5.38764v-.07854c0-2.20218-.51204-4.01115-1.53561-5.42691-1.02459-1.41576-2.33529-2.12364-3.93465-2.12364-1.59834 0-2.89629.69513-3.89232 2.08437-.99552 1.38975-1.49379 3.18546-1.49379 5.38764v.07854c0 2.2287.50541 4.0443 1.51521 5.4468m13.78071 4.71903c-2.51073 2.76624-5.814 4.14885-9.90981 4.14885s-7.3848-1.36986-9.86697-4.10958c-2.48268-2.73921-3.72402-6.1149-3.72402-10.12656v-.07854c0-4.01115 1.26225-7.39908 3.78675-10.16583 2.52501-2.76573 5.82063-4.14885 9.88839-4.14885 4.06725 0 7.34961 1.36986 9.84657 4.10958 2.49696 2.74023 3.74544 6.11541 3.74544 10.12656v.07854c0 4.01166-1.25613 7.4001-3.76635 10.16583" fill="#0000c8"/><g fill="#fff"><path d="m24.457101 88.963992c.28305-.2601.43758-.51612.64821-.57528.78132-.22083 1.1526-.94707 1.76919-1.36884.29937-.20451.34272-.57222.07191-.92769-.49011-.64413-1.18116-.90423-1.92423-1.071-.17493-.03978-.38097-.03825-.55029.01479-.5304.16524-1.05264.35751-1.57284.55284-.47634.17799-.95166.36006-1.41678.56508-.5049.22236-.9792.53193-1.50093.69462-.51153.15963-1.08477.12036-1.59732.27744-1.20717.36873-2.39445.80274-3.65262 1.23216-.13056-.44013-.25092-.8823-.39831-1.3158-.0357-.10506-.15606-.24276-.24735-.25092-.0969-.00765-.25653.09792-.29937.1938-.14637.32742-.28509.66402-.36873 1.01133-.17493.72369-.17595 1.46982-.53856 2.17311-.4386.84966-.20145 1.7901-.00663 2.67801.0663.30039.2499.66759.49266.80733.20808.11985.67932.06477.85323-.102.32487-.31059.64311-.73134.73644-1.15617.14229-.6477.09741-1.33875.11985-2.01144.01275-.40035.00051-.80172.00306-1.20258.00255-.34782.18105-.57375.52683-.54978.54468.03825 1.11129-.36414 1.63812.0765.03621.03111.12036.00051.18105.00816.54162.06171 1.08477.10863 1.62231.19431.41769.06681.53346.35598.28866.69462-.16014.22083-.35598.41616-.5406.61914-.57783.63648-.28764 1.45248.26571 1.57437.67371.1479 1.37649.17238 2.06907.22593.3723.02856.75276-.03162 1.12251.0102.9129.10302 1.81356.21471 2.601-.43656.12189-.10098.2958-.17187.45339-.18921.63495-.0714 1.06284-.46308 1.14699-1.0863.05763-.42891-.14433-.62322-.85782-.87873-.34629-.12393-.67881-.28509-1.13781-.48144m-10.79211-5.07705c-.10812.24174-.23205.39831-.24378.56355-.051.7191.59313 1.36527 1.43055 1.28316.969-.09486 1.92423-.34119 2.88303-.5355 1.24746-.25194 2.52093-.35904 3.74595-.7395.88944-.27642 1.79265-.52683 2.70657-.69615.47175-.08721.90678-.0969 1.2393-.52581.31263-.40341.32334-.60996-.16116-.79968-.37281-.14586-.79917-.15606-1.17096-.30396-.70635-.27846-1.28418.16626-1.92219.2652-.35088.05457-.70992.05661-1.06539.08262.02346-.23562.04692-.47073.06834-.70635.00714-.0765-.00306-.15555.0102-.23103.13821-.76602.32283-.94452 1.06743-1.06947.25143-.04233.49725-.11679.74715-.16932.76449-.15963 1.52439-.36108 2.29704-.45747.51561-.06375.99144-.06834 1.42086-.46002.49011-.44778 1.01592-.87924.81855-1.59783-.18768-.67983-.45237-1.39842-1.41168-1.31835-.06885.00612-.14739-.12393-.22338-.18768-.10506-.0867-.19992-.2142-.31977-.24786-.30243-.08415-.63087-.21318-.92259-.16626-.66453.10761-1.31784.29325-1.96707.47889-.68136.19431-.73644.18105-.98685-.47583-.02142-.05559-.04896-.11067-.0816-.16065-.78234-1.20819-2.02317-1.75491-3.28848-2.25216-.15657-.0612-.39627.00918-.56814.08619-.22593.10149-.42279.26877-.66606.42993.25704.3417.51714.65688.74307.99552.39168.58548.80274 1.16433 1.12914 1.78602.29172.5559.03825 1.25307-.5304 1.51266-1.18932.54366-2.40108 1.03632-3.59652 1.56621-.4641.20553-.90831.45594-1.3617.68544.01683.05049.03417.10098.051.15096.39423 0 .78846-.00051 1.18269 0 1.2189.00051 2.43882.01377 3.65772-.00612.31161-.00459.57375.1785.45441.43452-.31926.68595-.35343 1.41117-.32283 2.14047.01632.38607-.16779.56406-.49113.65841-.78591.22899-1.49685.66759-2.35773.70329-.74409.03111-1.46727.16677-1.99359-.71604"/><path d="m15.076875 118.88814c-1.30764-.51714-2.62038-1.02255-3.92037-1.55805-.49929-.20553-.54621-.5049-.26265-.96798.48501-.79203 1.00011-.87261 2.00073-.68901.37995.06987.74001.25092 1.12047.31161.24072.03774.51255-.01887.75123-.09435.43044-.13566.82365-.24072 1.29846-.08874.65076.20757 1.64322-.4335 1.89108-1.08732.2397-.63036.51561-1.24848.79356-1.86354.18207-.4029.08925-.58905-.36312-.62322-.24531-.01836-.54672.07956-.72879-.03111-.71655-.43401-1.64577-.51459-2.20473-1.36833.16677-.06018.34323-.1938.4845-.1632.97257.21063 1.89108.03876 2.81112-.28254.3876-.13515.82314-.17289.94248-.64668.07242-.29019.17595-.64005.08007-.89148-.30906-.80835.18564-1.23267.68697-1.66872.18156-.15708.39117-.28764.60384-.40086.52224-.27846 1.02816-.59619 1.64322-.14382.21318.15657.53856.17697.81906.21981.36363.0561.59976-.09588.81498-.42789.28713-.4437.70023-.80274 1.03071-1.21992.22593-.28611.4029-.60996.63342-.96594-.17136-.03774-.24276-.07905-.28254-.05916-.7497.38148-1.58406.02499-2.34549.27438-.38607.12648-.76602.27132-1.15158.39882-1.06233.3519-2.14251.65892-3.18495 1.06233-.83742.32334-1.64118.74205-2.43576 1.16382-.22542.11934-.35751.40749-.54825.60231-.51051.52275-1.0302 1.03683-1.54632 1.55448-.15249.15249-.04233.55641-.41667.48246-.20451-.04029-.42279-.13821-.57834-.27387-.29223-.25602-.54468-.55743-.80937-.84354-.04998-.05355-.12495-.13515-.11322-.18717.07599-.33456.25857-.66912.24225-.99501-.02295-.44727.28764-.54468.53907-.73746.18666-.14331.37026-.29427.53346-.46257.23307-.24021.4437-.50286.66861-.75123.65025-.7191 1.32447-1.41831 1.94616-2.16138.35547-.42534.19788-.76347-.35955-.88791-.46971-.10557-.94299-.19584-1.41729-.27795-.50643-.08772-.84558-.78081-.58446-1.22196.03825-.06477.08772-.12648.14331-.17697.57579-.52122.58752-.52785 1.01796.13311.17187.26367.34833.27744.66045.28101 1.77021.01734 3.40935-.67575 5.13519-.89097.65535-.08211 1.27398-.43248 1.92117-.61863.54519-.15708 1.10262-.28866 1.66362-.36771.70074-.09843 1.41168-.1224 2.1165-.19788.38862-.04131.69462.05712.90321.43299-.49521.95472-1.37751 1.44891-2.32305 1.89465-.66555.31365-1.28469.72471-1.93239 1.07712-.18003.09792-.3876.14586-.58446.21114-.23409.07701-.32487.27795-.12036.38862.26163.14127.59007.19227.89403.21216.34425.02244.70686-.10404 1.03785-.0408.87822.1683 1.72533.11322 2.54796-.21624.64515-.25806 1.27194-.36669 1.91964-.01683.08874.04743.23154-.01683.3468-.0051.39882.03978.80427.05508 1.19085.1479.26877.06477.3213.30753.15249.53448-.32691.4386-.63495.90117-1.01796 1.28724-.49776.50184-1.05162.94962-1.59885 1.39995-.48348.39882-1.00725.75021-1.479 1.16178-.18156.15759-.26826.42381-.4233.68085.33813.04284.60639.08109.87618.10914.40749.04182.61608.32181.6732.67065.0255.15453-.13362.36975-.25908.51306-.63852.7293-1.56009.95574-2.40567 1.31019-.58089.24378-1.20717.39576-1.75491.69462-.29223.16014-.50388.52326-.67473.8364-.29631.54264-.53601 1.11639-.7905 1.68096-.02958.0663-.03366.18717.00612.22899.03876.04029.15249.02601.22899.01224.53193-.0969 1.0608-.21114 1.59426-.29835.95421-.15657 1.90893-.31722 2.86773-.44064 1.30458-.16728 2.60763-.16116 3.86835.27438.82926.28713 1.30305 1.10364 1.1577 1.95279-.04488.26163-.13413.52989-.52428.45135-.11424-.02346-.26316.051-.37689.11424-1.16994.65229-2.37609 1.20207-3.7536 1.15056-.34323-.01326-.67728-.19023-1.02255-.25653-.40137-.0765-.8109-.16473-1.21533-.15759-.6579.01275-1.31733.07752-1.97115.16065-.51918.06579-1.02918.1989-1.54479.29121-.84048.15045-1.69065.25653-2.5194.45237-.40902.09639-.77826.35751-1.16943.5355-.28968.13158-.58548.2499-.87873.37383z"/><path d="m0 103.617516c.33507-.51459.67116-1.02918 1.00521-1.54377.03264-.051.08466-.11016.07956-.16065-.07854-.74919.54111-1.1169.90219-1.60956.9129-1.24542 1.85946-2.46789 2.82132-3.67659.38454-.48348.87057-.88638 1.26072-1.3668.25245-.3111.59568-.43962.91443-.62271.08721-.05049.21777-.0255.32793-.0357 0 .1071.03366.22899-.0051.31926-.561 1.31121-.59415 2.69229-.55029 4.08306.0051.1785.06273.35445.08721.53295.05253.37995.31569.45747.60486.34833 1.64679-.62475 3.27267-1.30713 4.93068-1.89771 1.37292-.48909 2.78205-.87771 4.17435-1.31325.27081-.08517.58089-.31875.79866-.2499.59262.18768.96849-.17289 1.4127-.39117.1479-.07293.31824-.19023.45951-.1683.77775.12138 1.38312-.36975 2.07315-.55131 1.33773-.35292 2.6622-.75633 4.00095-1.10466.46512-.12189.96186-.1173 1.43412-.21777.49164-.10455.97053-.2703 1.45707-.40188.66402-.17901 1.3209-.41055 1.99665-.51.97614-.14382 1.95075-.09282 2.87793.33405.62781.28968 1.31784.45033 1.80999.99399.45492.50337.38658.90729-.20859 1.22553-.23052.12342-.41922.32385-.64668.45339-.13515.07752-.31059.12699-.46461.12036-1.08171-.04947-2.16189-.15147-3.2436-.16524-.63444-.00867-1.26888.12546-1.90536.17238-.32385.02448-.65229-.00153-.97818-.00255-.36159-.00102-.72318 0-1.24236-.07803.3264-.21777.6528-.43503.99501-.66351-.35394-.40647-.66402-.22389-.97512-.15606-.71859.15555-1.44636.27132-2.16036.44421-.48756.1173-.95472.31722-1.43769.45543-.3876.11067-.78897.17136-1.1781.27591-1.00011.2703-1.98237.64515-2.99829.80274-.99348.15351-1.72176.73134-2.54235 1.18626-.33252.18411-.74613.22338-1.12404.32487-.91188.2448-1.80744.51714-2.65557.95829-.44319.23052-.97614.28458-1.4637.43605-.22542.06987-.45186.1581-.65484.27744-.70329.41412-1.48614.52785-2.27001.53805-.8925.01071-.89658.06018-1.0353.86751-.19839 1.15668-.58293 2.23992-1.04907 3.30021-.21216.48297-.42024 1.02918-.79407 1.36374-.53346.47787-.91035 1.22604-1.8513 1.16076-1.48716-.10353-2.79123-1.4178-2.81265-2.9274-.00255-.17187-.11526-.34221-.17697-.51255z"/><path d="m13.665144 83.886891c.52581.88281 1.24899.74715 1.99308.71604.86139-.0357 1.57182-.4743 2.35773-.70329.32385-.09435.50745-.27234.49164-.65841-.0306-.7293.00306-1.45452.32232-2.14047.11934-.25602-.1428-.43911-.45441-.43401-1.2189.01938-2.43831.00612-3.65772.00561-.39372-.00051-.78795 0-1.18218 0-.01734-.04998-.03417-.10047-.051-.15096.45288-.2295.8976-.47991 1.36119-.68544 1.19544-.52989 2.40771-1.02255 3.59703-1.56621.56865-.25908.82212-.95676.5304-1.51215-.3264-.6222-.73797-1.20105-1.12914-1.78653-.22593-.33864-.48603-.65382-.74307-.99552.24327-.16116.44013-.32844.66606-.42993.17136-.07701.41157-.14739.56814-.08619 1.2648.49725 2.50563 1.04448 3.28797 2.25216.03264.04998.06069.10506.08211.16065.25041.65688.30549.67014.98634.47583.64923-.18564 1.30254-.37128 1.96707-.47889.29223-.04692.62067.08211.9231.16626.11985.03366.21471.16116.31926.24786.0765.06375.15453.1938.22338.18768.95982-.08007 1.22451.63852 1.41168 1.31835.19788.71859-.32793 1.15005-.81855 1.59783-.42942.39168-.90474.39627-1.42035.46002-.77316.09639-1.53255.29784-2.29755.45798-.2499.05202-.49521.12648-.74715.16881-.74409.12495-.92871.30345-1.06692 1.06947-.01377.07548-.00357.15453-.0102.23103-.02142.23562-.04539.47073-.06834.70635.35547-.02601.71451-.02805 1.06539-.08262.6375-.09894 1.21584-.54366 1.92168-.26469.3723.14739.79815.15759 1.17147.30345.48399.18972.47379.39627.16116.79968-.33303.42891-.76806.4386-1.23981.52581-.91392.16932-1.81713.41973-2.70606.69615-1.22502.38046-2.499.48756-3.74595.7395-.9588.19431-1.91403.44115-2.88303.5355-.83742.08211-1.48206-.56406-1.43106-1.28316.01173-.16524.13617-.32181.24429-.56355"/><path d="m24.457101 88.963992c.459.19635.79152.35751 1.13781.48144.71349.25551.91545.44982.85782.87873-.08415.62322-.51204 1.0149-1.14699 1.0863-.15759.01734-.3315.08823-.45339.18921-.78744.65127-1.6881.53958-2.601.43656-.36975-.04182-.75021.01836-1.12251-.0102-.69258-.05355-1.39536-.07803-2.06907-.22593-.55335-.12189-.84354-.93789-.26571-1.57437.18462-.20298.38046-.39831.5406-.61914.2448-.33864.12903-.62781-.28866-.69462-.53754-.08568-1.08069-.1326-1.62231-.19431-.06069-.00765-.14484.02295-.18105-.00816-.52683-.44064-1.09344-.03825-1.63812-.0765-.34578-.02397-.52428.20196-.52683.54978-.00255.40086.00969.80223-.00306 1.20258-.02244.67269.02244 1.36374-.11985 2.01144-.09333.42483-.41157.84558-.73644 1.15617-.17391.16677-.64515.22185-.85323.102-.24276-.13974-.42636-.50694-.49266-.80733-.19482-.88791-.43197-1.82835.00663-2.67801.36261-.70329.36363-1.44942.53856-2.17311.08364-.34731.22236-.68391.36873-1.01133.04284-.09588.20247-.20145.29937-.1938.09129.00816.21165.14586.24735.25092.14739.4335.26775.87567.39831 1.3158 1.25817-.42942 2.44545-.86343 3.65262-1.23216.51255-.15708 1.08579-.11781 1.59732-.27744.52173-.16269.99603-.47226 1.50093-.69462.46512-.20502.94044-.38709 1.41678-.56508.5202-.19533 1.04244-.3876 1.57284-.55284.16932-.05304.37536-.05457.55029-.01479.74307.16677 1.43412.42687 1.92423 1.071.27081.35547.22746.72318-.07191.92769-.61659.42177-.98787 1.14801-1.76919 1.36884-.21063.05916-.36516.31518-.64821.57528"/><path d="m41.389458 98.244105c1.04346-.22746 2.13078-.34017 3.11865-.714 1.06539-.4029 2.04204-1.04244 3.04776-1.59681.24837-.13719.48144-.32079.68034-.52377.40698-.4131.86955-.36057 1.35609-.22491.11628.03213.23103.08364.34935.09537.94656.0918 1.07253-.18921 1.08732-1.23114.00816-.57885.03927-1.15872.03213-1.73808-.00204-.18054-.18207-.39372-.12903-.53499.22287-.59364.18513-.99756-.4386-1.37343-.31824-.19176-.34119-.70278-.03009-1.10466.17034-.22032.26112-.50694.36363-.77265.28254-.72777.72471-.99756 1.46829-.80376.3417.08976.67065.26112.9792.44064.51306.29988 1.04601.58803 1.49481.97002.46614.39678.62526.93177.44013 1.57692-.10302.357-.03774.76398-.03621 1.14801.00102.37995-.11475.69309-.40953.95319-.09384.08262-.12954.26112-.1428.40086-.07956.86445-.13158 1.73145-.22083 2.59539-.051.49317-.17595.9792-.22083 1.47237-.01428.15657.11526.33048.19278.4896.14994.31008.36822.60129.44472.92769.04743.20145-.04896.59364-.19074.65841-.82467.37536-.97053 1.1526-1.20156 1.8768-.13107.41208-.25245.84405-.2703 1.27092-.03927.97155-.01224 1.94565-.01224 2.91873.06069.03009.12087.05967.18156.09027.28611-.19839.57936-.3876.85782-.59619.54111-.40647 1.12557-.77367 1.59936-1.24848.79356-.79611 1.4841-1.69371 2.27766-2.48982.43095-.43248.9843-.74205 1.581-1.04295-.05151.19635-.07089.40902-.15963.5865-.64821 1.29693-1.31682 2.57703-2.21646 3.7332-.48501.62271-.82569 1.35711-1.23165 2.04153-.00765.01275-.01326.02754-.02295.03876-.55182.59466-1.10721 1.18575-1.65342 1.78551-.21063.23154-.39729.4845-.60078.72369-.54213.63648-1.06947 1.28622-1.63506 1.90128-.73746.80223-1.49991 1.58049-2.26338 2.35722-.28815.29376-.59313.5763-.9231.81957-.16371.12036-.40188.14076-.60588.20655h-2.12772c-.16473-.05253-.32844-.10608-.49368-.15708-1.12863-.35139-1.99767-1.15566-2.99727-1.73196-.23256-.13464-.15351-.70635.08109-.88689.21573-.16575.4233-.34323.64005-.50898.4488-.34425.84558-.92973 1.51011-.34527.02958.02601.08874.0204.13464.02346.6681.0459 1.31172-.08364 1.87068-.43605.96849-.60945 1.90689-1.26786 2.85192-1.91454.57783-.39474.59313-.69768.3366-1.377-.16422-.43452-.21981-.94401-.19023-1.41117.05967-.93381.21165-1.8615.32589-2.79174.0459-.37536.06477-.75684.1428-1.12557.13158-.61659-.18513-.92208-.80376-.7854-.85068.18819-1.70646.35904-2.56683.4947-.23307.03672-.49062-.08058-.73695-.12801-.50643-.09792-1.04448-.11934-1.51368-.30906-1.31733-.53295-2.50971-1.2699-3.40119-2.41587z"/><path d="m63.643665 108.946608c.40188-.36057.7905-.73542 1.20768-1.07763.69513-.56967 1.4229-1.10109 2.10885-1.68198.55641-.47022.41514-1.27245-.25092-1.52898-.44778-.17289-.79764-.34935-.95166-.90219-.1173-.42024-.5712-.73542-.78744-1.14393-.16269-.306-.23205-.68238-.26265-1.03428-.06222-.71502-.11526-1.43616-.08619-2.15118.02091-.5049.19839-1.00215.27948-1.50705.12903-.80529.26367-1.61109.34476-2.42199.0765-.77112.04641-.76857-.7191-.95982-.13872-.03468-.26112-.1326-.39219-.20145.22797-.54519.40902-1.02153.93126-1.37343.33405-.22389.49317-.77316.62883-1.20819.11424-.36924.08109-.78285.11373-1.17759.03009-.36312.05763-.72675.0918-1.08987.04998-.53448-.06783-1.01847-.38403-1.45962-.25449-.35496-.48654-.72522-.72624-1.08528.9027-.79101 1.64475-.71247 2.70606.09588.37332.28458.74358.57171 1.11333.86037.39219.30498.54672 1.67688.24735 2.16801-.14892.2448-.29325.49215-.44574.74817.57579.46053 1.20513.23868 1.82631.18564.53448-.0459 1.08375-.11118 1.60701-.03366.30906.0459.60843.31977.86037.54825.49011.44472.97512.90372 1.39893 1.40913.20553.24531.26928.60996.41361.96084-.21981.10251-.40596.1887-.62781.29172.0357.08262.07191.16626.10404.24072-.7701.54111-1.60497.32436-2.44443.24378-.51-.04896-1.03326.04641-1.55091.07497-.55029.02958-1.1016.08619-1.65087.07344-.26775-.00612-.37842.03366-.41616.30957-.14127 1.03122-.37281 2.05632-.43605 3.09162-.0612 1.00674-.00357 2.02827.10047 3.03297.03213.30957.32487.69003.60588.85782.88587.52887 1.81815.90525 2.91108.88077.91749-.0204 1.84416.14127 2.7591.27387.67116.0969 1.03887.6783 1.50807 1.08885.42381.37179.62118.86394.81294 1.38771.20043.5457-.0612.87312-.43401 1.05978-.48756.2448-1.04499.47889-1.57488.4845-1.37802.01428-2.73156.16014-4.08714.38454-.83589.13872-1.69269.15708-2.52705.30243-.43452.07599-.84048.31161-1.26123.47073-.63342.2397-1.26225.49419-1.90587.70278-.20808.06732-.45645.01071-.68595.01071-.02397-.06732-.04845-.13464-.07242-.20145"/></g><path d="m48.618861 28.01328h.05457l.37485-1.50042v-.5049h-.97257c-.11628-.32742-.15504-.43911-.16779-.47838.00306-.00153.00816-.00306.01071-.00459-.05763-.16422-.09486-.2703-.12087-.34425.12648-.04029.22491-.07803.27897-.10914-.11577-.32895-.15453-.43911-.1683-.47736.00255-.00153.00816-.00306.0102-.00459-.05712-.1632-.09486-.26877-.12036-.34221.12648-.04233.2244-.08058.27846-.11271-.11628-.32589-.15504-.43656-.16881-.47481.00306-.00204.00816-.00357.01071-.0051-.0357-.10251-.06324-.1785-.08568-.24276.61047-.15861 1.1373-.31671 1.29999-.41361-.12087-.32742-.16218-.43911-.17697-.47838.00306-.00204.00816-.00408.01122-.00612-.18513-.49725-.18411-.49776-.18411-.49776s-2.23431.11475-3.7587.06171c-1.19187-.04641-1.83039-.23868-3.40731-.85221.21012.02805.36261.04284.42738.03927.35955-.02244 2.65047-.65586 2.98452-.89862-.09792-.30753-.13056-.41208-.14178-.44931.00255-.00102.00714-.00357.00918-.0051-.03978-.12699-.06834-.21777-.08925-.28509.10047-.04284.17799-.08109.22185-.11169-.09639-.30804-.12903-.41208-.14127-.44829.00204-.00153.00663-.00357.00867-.0051-.03978-.12444-.06834-.2142-.08976-.28152.10149-.04437.17901-.08466.22236-.11679-.0969-.30549-.12954-.40953-.14127-.44625.00204-.00153.00663-.00357.00867-.0051-.04029-.12699-.06885-.21675-.09027-.28356.10098-.04488.17901-.08466.22287-.11679-.07038-.22236-.1071-.33711-.12597-.39729.73287-.24225 1.47135-.51663 1.6575-.65535-.1071-.306-.1428-.41106-.15555-.44727.00306-.00204.00765-.00459.0102-.00663-.16218-.46665-.16065-.46665-.16065-.46665s-1.95177.23307-3.28491.24837c-1.33212.00714-1.8717-.25041-4.34877-1.27398-2.48472-1.02612-5.04084-2.99523-6.3393-4.11672-1.30611-1.12608-1.89924-1.89669-1.89924-1.89669s-.03111-.50337-.2142-.59313-.36669-.17901-.55131-.23511c-.18462-.05661.03009-.15453.2448-.35598.21573-.20247.306-.34272.12291-.47736-.1836-.13515.306-.37485.3978-1.06692.08925-.67422-.23154-1.2444-1.5453-1.37496v-1.46574h-.21624v1.46574c-1.31427.13056-1.63506.70074-1.54581 1.37496.0918.69207.5814.93177.39831 1.06692-.1836.13464-.0918.27285.12189.47736.21522.20145.42942.29937.24531.35598-.18462.0561-.36822.14535-.55131.23511-.18258.08976-.2142.59313-.2142.59313s-.59313.77061-1.89924 1.89669c-1.29795 1.12149-3.85458 3.0906-6.3393 4.11672-2.47707 1.02357-3.01665 1.28112-4.34877 1.27398-1.33263-.0153-3.28491-.24837-3.28491-.24837s.00153 0-.16014.46665c.00255.00204.00714.00459.00969.00663-.01224.03621-.04794.14127-.15504.44727.18615.13872.92412.4131 1.6575.65535-.01938.06018-.0561.17493-.12699.39729.04437.03213.1224.07191.22389.11679-.02142.06732-.05049.15708-.09027.28356.00204.00153.00663.00357.00816.0051-.01122.03672-.04386.14025-.14178.44625.04386.03213.12138.07242.22287.11679-.02142.06732-.04998.15708-.08925.28152.00204.00153.00612.00357.00816.0051-.01173.0357-.04488.13974-.14178.44829.04437.0306.12189.06885.22287.11169-.02142.06732-.04947.1581-.08925.28509.00204.00153.00663.00357.00867.0051-.01122.03672-.04386.14127-.14229.44931.33456.24276 2.62548.87618 2.98503.89862.06477.00357.21777-.01122.42789-.03927-1.57743.61353-2.21595.8058-3.40782.85221-1.52439.05304-3.75819-.06171-3.75819-.06171s.00051.00051-.18411.49776c.00255.00204.00816.00408.01071.00561-.01428.03927-.0561.15147-.17697.47889.1632.0969.68952.255 1.29999.41361-.02295.06426-.04998.14025-.08568.24276.00255.00153.00765.00306.01071.0051-.01377.03825-.05253.14892-.16881.47481.05406.03213.15249.07038.27846.11271-.0255.07344-.06324.17901-.12036.34221.00204.00153.00765.00306.01071.00459-.01377.03825-.05304.14841-.16881.47736.05406.03111.15249.06885.27897.10914-.02601.07395-.06324.18003-.12087.34425.00255.00153.00816.00306.01122.00459-.01326.03927-.05202.15096-.16881.47838h-.97206v.5049l.37536 1.50042h.03111l-1.1271 7.31238h14.38455v36.30384h13.28856v-36.30384h14.38455z" stroke="#fff" stroke-width=".756"/><path d="m195.343719 18.836748h.3978.9792l.71196-.59874h-1.01184l-.28509-3.40527-.15402-2.18127-.43911-.70533-.43911.70533-.15453 2.18127-.28509 3.40527h-1.01133l.71196.59874z" stroke="#fff" stroke-width=".756"/><path d="m200.694231 63.835017v-.06936-.39321-.06936h-.73593v-.06936-.39372-.06885h.15708l1.51368-4.34877h-.31824-.33915-.02397l.05661-.14586h-.7905l1.41525-4.19832h-.31824-.33915-.02397l.05661-.15045h-.80223l1.42698-4.23249h-.31824-.33915-.02397l.05661-.15096h-.81345l1.4382-4.26564h-.31824-.33915-.02397l.05661-.15045h-.80223l1.42698-4.23249h-.31824-.33915-.02397l.05661-.15045h-.80886l1.43361-4.25187h-.31824-.33915-.02397l.05661-.15045h-.80223l1.42698-4.23249h-.31824-.33915-.02397l.05661-.15045h-.80325l1.428-4.23606h-.31824-.33915-.02397l.05661-.15045h-1.8717v-.89505h.18105v-.18666h-.18105v-.27234-.18615h-1.10007l.78591-4.33041h-.17136-.04233l.21369-1.17861h-.17136-.18258-.01275l.0306-.15045h-1.64577v-1.35864h-.26214v-.17697h-2.06397v.17697h-.26163v1.35864h-1.6473l.03162.15045h-.01275-.18258-.17136l.22389 1.17861h-.05253-.17136l.8211 4.33041h-1.13526v.18615.27234h-.18105v.18666h.18105v.89505h-1.87425l.05916.15045h-.02448-.33864-.31875l1.49328 4.23606h-.87057l.05916.15045h-.02448-.33864-.31875l1.49175 4.23249h-.86904l.05916.15045h-.02448-.33864-.31875l1.49838 4.25187h-.87567l.05916.15045h-.02448-.33864-.31875l1.49175 4.23249h-.86904l.05916.15045h-.02448-.33864-.31875l1.50399 4.26564h-.88128l.05916.15096h-.02448-.33864-.31875l1.49175 4.23249h-.86904l.05916.15045h-.02448-.33864-.31875l1.48002 4.19832h-.85731l.05916.14586h-.02448-.33864-.31875l1.58253 4.34877h.08925v.06885.39372.06936h-.73644v.06936.39321.06936l-1.1628 9.42123v.26571h12.62964v-.26571z" stroke="#fff" stroke-width=".756"/><path d="m80.2179 4.701945c-.03723 0-.06783-.01173-.06783-.02499 0-.01377.0306-.02499.06783-.02499.03825 0 .06936.01122.06936.02499 0 .01326-.03111.02499-.06936.02499m-6.95997 2.52144c-.0867.05151-.86394.45492-.9129.46104-.06273.00765-.01938-.04182.09078-.10149.11067-.05865.68697-.33252.79815-.38964.11169-.05661.24123-.17952.26826-.14535.02805.03213-.15657.12495-.24429.17544m6.74934-2.72187c-.27183.12495-.40035.2142-.58854.31875-.18819.10404-.51867.29835-1.12149.32334-.60231.0255-.93993-.46665-1.60089-.32334-.39627-.88077-.51459-1.36476-.59925-1.92015-.08619-.55335-.33201-.79917-.33201-.79917s-.08874.06375-.04794.2703c-.15147-.63954-.23715-.74562-.27591-.83487-.03876-.09078-.3366-1.22094-.64821-1.53612-.00459.05253-.00459.49113.21522 1.06794-.26928-.59364-.42432-.9537-.49317-1.06794-.1173.1122-.20145.29274 0 .73338.20094.44064.3366.68595.4437.83589-.34017-.43401-.50235-.77163-.63444-.96543-.13362-.19482-.21165-.24633-.25551-.27285-.04641-.02499-.11016.23409 0 .46053.09384.19737.33252.57018.53295.79611-.34119-.35649-.64668-.69615-.76092-.81549-.05763.07803-.22644.3621.53193.99399-.7956-.47736-.71145-.408-.77826-.46206-.06732-.05457-.07089.30294.24021.50388-.11016.00102-.22797.21318-.05916.31467-.16116.06171-.12087.2856-.04335.29988-.0918.03417-.05814.25296.01581.26316-.04998.03009-.09843.28407-.0255.28611.07395.00306.0765.204.03876.21726-.03672.01224.01428.306.09027.37587.07446.07038-.29886-.0459-.4233-.12342-.12393-.07803-.15657.07038-.03366.1581.1224.08772.36669.1989.50031.21114-.41667.00612-.46818.07905-.6885 0 .17544.1224.20043.13005.31059.15198.11067.02244-.11016.05712-.21267.06834.13464.08415.04743.13005.19788.12954.15147-.00051-.07395.16626-.07395.16626l.13668.051-.02346.23358.14586.05967s-.13923.04335-.06069.05151c.07854.00765.14892 0 .14892 0s-.22695.17289-.12903.19125c.09741.01734.21369-.00816.12903.0663-.08313.07344-.16677.12444-.04335.1377.12138.01377.1326.09588.1326.09588s-.11271.06834-.05814.10659c.05457.03774.08619.09384.08619.09384s-.17034.07905-.05661.12444c.11424.04437.18819.06987.18819.09537s-.08925.09588.01428.13617c.10557.04233.18411.06222.18411.06222s-.14127.0918-.00816.0918c.13209 0 .14892.03366.14892.03366s-.7395.05406-.93432.30396c-.08364.08364.01326.16065.07293.15657-.07395.04131-.25959.18819 0 .19992-.15657.13566-.22389.21522-.12036.21114-.10353.0714-.19839.14994-.11679.1836-.24276.11373-.97665.50898-.97665.50898h-.30804l-.01632.06783s-.31773.15147-.48654.17748c.04947.03927.09843.02499.04488.07089-.05559.04692-.27642.15045-.27642.15045s.26418-.04743.30957-.04641c.04539.00051.1632.00969.1632.00969s-.27693.21522-.33456.24939c.07956.0204.5865-.17391.86394-.32079.27591-.14688 1.31682-.66351 1.44126-.75633.12393-.09486.09792.01377.26469-.06987.16626-.08262.49878-.21828.90831-.23154.40902-.01326.93636.07599 1.09701-.2193.16065-.2958.48246-.31008.88383-.55131.4029-.24123.5457-.39117 1.19493-.48807.64821-.09537.81651-.19482 1.38057-.40086.56202-.20604.87363-.2193 1.10211-.23868.22593-.01989.32844-.07548.75633-.07293l-.7446-.21522s-.25296-.26061-.5253-.13515" fill="#fff"/><path d="m70.782441 19.43712c-.03723 0-.06783-.01173-.06783-.02499 0-.01377.0306-.02499.06783-.02499.03825 0 .06885.01122.06885.02499 0 .01326-.0306.02499-.06885.02499m-6.95997 2.52144c-.0867.05151-.86394.45492-.91341.46104-.06222.00765-.01887-.04182.09129-.10149.11067-.05865.68697-.33303.79764-.39015.1122-.0561.24123-.17901.26826-.14484.02856.03213-.15606.12495-.24378.17544m6.74934-2.72187c-.27183.12495-.40035.2142-.58905.31875-.18768.10404-.51816.29835-1.12098.32334-.60282.0255-.93993-.46665-1.6014-.32334-.39576-.88077-.51408-1.36476-.59874-1.92015-.08619-.55335-.33252-.79917-.33252-.79917s-.08874.06324-.04794.26979c-.15096-.63903-.23715-.74511-.27591-.83436-.03825-.09078-.3366-1.22094-.64821-1.53612-.00459.05253-.00459.49113.21573 1.06794-.26928-.59364-.42432-.9537-.49317-1.06794-.1173.1122-.20145.29274 0 .73338.20094.44064.3366.68595.4437.83589-.34068-.43401-.50286-.77163-.63495-.96543-.13362-.19482-.21114-.24633-.25551-.27285-.04641-.02499-.10965.23409 0 .46053.09435.19737.33303.57018.53295.79611-.34068-.35649-.64668-.69615-.76041-.81549-.05763.07803-.22644.36159.53142.99348-.79509-.47685-.71094-.40749-.77826-.46155-.06732-.05457-.07038.30294.24072.50388-.11016.00102-.22797.21318-.05916.31416-.16116.06222-.12087.28611-.04335.30039-.0918.03417-.05814.25296.0153.26316-.04947.03009-.09792.28407-.02499.28611.07395.00306.0765.204.03876.21726-.03672.01224.01428.306.08976.37587.07446.07038-.29835-.0459-.42279-.12393-.12444-.07752-.15657.07089-.03417.15861.12291.08772.36669.1989.50031.21114-.41667.00612-.46767.07905-.68799 0 .17544.1224.20043.13005.31059.15198.11016.02244-.11016.05712-.21318.06834.13515.08415.04794.13005.19788.12954.15198-.00051-.07344.16626-.07344.16626l.13668.051-.02397.23358.14637.05967s-.13923.04335-.06069.05151c.07803.00765.14892 0 .14892 0s-.22695.17289-.12903.19125c.0969.01734.21369-.00867.12903.0663-.08313.07293-.16677.12444-.04335.1377.12138.01377.1326.09588.1326.09588s-.11271.06783-.05814.10659c.05457.03774.08619.09384.08619.09384s-.17034.07905-.05661.12444c.11424.04437.18819.06987.18819.09537s-.08976.09588.01428.13617c.10557.04233.18411.06222.18411.06222s-.14178.0918-.00867.0918c.1326 0 .14943.03366.14943.03366s-.7395.05355-.93483.30396c-.08313.08364.01377.16065.07293.15657-.07344.04131-.25908.18819 0 .19941-.15606.13617-.22389.21573-.11985.21165-.10404.0714-.19839.14994-.11679.1836-.24276.11373-.97665.50898-.97665.50898h-.30804l-.01683.06783s-.31773.15147-.48603.17748c.04947.03927.09843.02499.04437.07089-.05508.04692-.27591.15045-.27591.15045s.26418-.04743.30906-.04641c.0459.00051.1632.00969.1632.00969s-.27693.21522-.33405.24939c.07905.01989.5865-.17391.86343-.32079.27642-.14688 1.31733-.66351 1.44126-.75633.12444-.09486.09843.01377.2652-.06987.16626-.08262.49878-.21828.90831-.23154.40902-.01326.93585.07599 1.09701-.2193.16065-.2958.48195-.31008.88383-.55182.4029-.24072.54519-.39066 1.19442-.48756.64872-.09588.81651-.19482 1.38057-.40086.56253-.20604.87414-.2193 1.10262-.23868.22542-.01989.32844-.07548.75633-.07293l-.74511-.21522s-.25296-.26061-.52479-.13515" fill="#fff"/><path d="m60.658635 8.202942c-.03723 0-.06783-.01173-.06783-.02448 0-.01428.0306-.0255.06783-.0255.03825 0 .06885.01122.06885.0255 0 .01275-.0306.02448-.06885.02448m-6.96048 2.52144c-.08619.05151-.86343.45492-.9129.46104-.06222.00765-.01938-.04182.09129-.10149.11067-.05865.68697-.33252.79764-.38964.11169-.05661.24123-.17952.26826-.14535.02856.03213-.15657.12495-.24429.17544m6.74985-2.72187c-.27183.12546-.40035.2142-.58905.31875-.18768.10404-.51867.29835-1.12098.32334-.60282.0255-.93993-.46614-1.6014-.32334-.39576-.88077-.51408-1.36476-.59925-1.92015-.08568-.55335-.33201-.79866-.33201-.79866s-.08874.06324-.04794.26979c-.15096-.63954-.23715-.74562-.27591-.83436-.03825-.09078-.3366-1.22145-.64821-1.53663-.00459.05253-.00459.49113.21573 1.06794-.26928-.59313-.42432-.9537-.49317-1.06794-.1173.1122-.20145.29274 0 .73338.20094.44064.3366.68595.4437.83589-.34068-.43401-.50286-.77163-.63495-.96543-.13362-.19482-.21114-.24633-.25551-.27285-.04641-.02499-.10965.23409 0 .46053.09435.19737.33303.57018.53295.79662-.34068-.357-.64668-.69666-.76041-.816-.05763.07803-.22695.3621.53142.99399-.79509-.47736-.71094-.408-.77826-.46206-.06732-.05457-.07089.30294.24072.50388-.11016.00102-.22797.21318-.05916.31467-.16167.06171-.12087.28611-.04386.29988-.09129.03417-.05763.25347.01581.26367-.04947.02958-.09792.28356-.02499.2856.07395.00306.0765.204.03876.21726-.03672.01224.01428.306.08976.37587.07446.07038-.29835-.0459-.42279-.12342-.12444-.07803-.15657.07038-.03417.1581.12291.08772.36669.1989.50031.21114-.41667.00612-.46767.07905-.6885 0 .17595.1224.20094.13005.3111.15249.11016.02193-.11016.05712-.21318.06783.13515.08415.04794.13056.19788.12954.15198-.00051-.07344.16626-.07344.16626l.13668.051-.02397.23358.14637.05967s-.13923.04335-.06069.05151c.07803.00765.14892 0 .14892 0s-.22695.17289-.12903.19125c.0969.01734.21369-.00816.12903.0663-.08313.07344-.16677.12444-.04386.1377.12189.01377.13311.09588.13311.09588s-.11322.06834-.05814.10659c.05406.03774.08619.09384.08619.09384s-.17034.07905-.05661.12444c.11424.04437.18819.06987.18819.09537s-.08976.09588.01428.13617c.10557.04233.18411.06222.18411.06222s-.14178.0918-.00867.0918c.1326 0 .14943.03366.14943.03366s-.7395.05406-.93483.30396c-.08364.08364.01377.16065.07293.15657-.07344.04131-.25908.18819 0 .19992-.15657.13566-.22389.21522-.11985.21114-.10404.0714-.19839.14994-.1173.1836-.24225.11373-.97614.50898-.97614.50898h-.30804l-.01683.06783s-.31773.15147-.48603.17748c.04896.03927.09843.02499.04437.07089-.05508.04692-.27591.15096-.27591.15096s.26418-.04794.30906-.04692c.0459.00102.1632.00969.1632.00969s-.27693.21522-.33405.24939c.07905.0204.5865-.17391.86343-.32079.27642-.14688 1.31733-.66351 1.44126-.75633.12444-.09486.09843.01377.2652-.06987.16626-.08262.49878-.21828.90831-.23154.40902-.01326.93585.07599 1.0965-.2193.16116-.29529.48246-.31008.88434-.55131.4029-.24123.54519-.39117 1.19442-.48807.64872-.09537.81651-.19482 1.38057-.40086.56253-.20604.87414-.21879 1.10211-.23868.22593-.01989.32895-.07548.75684-.07293l-.74511-.21522s-.25296-.26061-.52479-.13515" fill="#fff"/></g></svg>