<?xml version="1.0" encoding="UTF-8"?>
<svg width="424px" height="117px" viewBox="0 0 424 117" version="1.1" xmlns="http://www.w3.org/2000/svg" xmlns:xlink="http://www.w3.org/1999/xlink">
    <!-- Generator: Sketch 52.6 (67491) - http://www.bohemiancoding.com/sketch -->
    <title>logo-oec</title>
    <desc>Created with Sketch.</desc>
    <g id="Symbols" stroke="none" stroke-width="1" fill="none" fill-rule="evenodd">
        <g id="logo/desktop/primary" transform="translate(-28.000000, -15.000000)">
            <g id="logo-oec" transform="translate(28.000000, 14.496552)">
                <path d="M57.0503265,3.87593388 C57.036898,3.8711405 57.0129184,3.86634711 57.0023673,3.8625124 C57.596102,3.9871405 57.596102,3.9871405 58.0910408,4.20092562 L57.8886531,4.12327273 C57.6383061,4.03699174 57.4723673,3.98330579 57.0503265,3.87593388" id="Fill-1" fill="#7FB041"></path>
                <path d="M35.5483061,2.02952066 C35.5176122,2.03910744 35.4763673,2.05061157 35.4456735,2.05828099 C40.0535918,0.702710744 40.2521429,0.702710744 42.1503673,0.695041322 L42.7584898,0.704628099 L42.6040612,0.704628099 C41.3580816,0.76214876 39.5442653,0.960595041 35.5483061,2.02952066 M47.6340204,1.13890909 C47.5054898,1.11590083 47.3337959,1.09385124 47.2023878,1.07276033 C47.8277755,1.17533884 48.666102,1.30092562 49.2895714,1.42171901 L49.9072857,1.55018182 C51.2789184,1.88667769 52.8347143,2.27014876 55.9232857,3.49438017 C54.8202245,3.06680992 51.4630816,1.77067769 47.6340204,1.13890909" id="Fill-2" fill="#7FB041"></path>
                <path d="M28.5894286,2.91533884 C28.5740816,2.92013223 28.5520204,2.92780165 28.5347551,2.9345124 C28.9788571,2.78687603 29.5697143,2.59322314 30.0176531,2.44942149 L30.0608163,2.43887603 C30.6344082,2.35834711 30.6344082,2.35834711 33.9205714,2.30657851 C32.7570816,2.36218182 30.0320408,2.48585124 28.5894286,2.91533884" id="Fill-3" fill="#7FB041"></path>
                <path d="M65.0978776,8.23312397 C66.4033265,9.23398347 69.3758367,11.6671074 69.3988571,11.6872397 C66.4704694,9.15633058 66.3572857,9.0566281 64.3266939,7.66558678 L64.2135102,7.58985124 C64.3669796,7.69530579 64.5962245,7.85157025 65.0978776,8.23312397" id="Fill-4" fill="#7FB041"></path>
                <path d="M56.4182245,3.72254545 C56.5333265,3.76472727 56.6513061,3.80978512 56.7683265,3.85580165 C56.6474694,3.82224793 56.5333265,3.76760331 56.4182245,3.72254545 M57.1922857,4.03986777 C57.0752653,3.99001653 56.9198776,3.92770248 56.8057347,3.8797686 C59.8684082,5.03785124 67.5553061,8.50155372 73.4581224,16.2956033 C78.8199592,23.3811901 81.2534082,29.9126612 82.0965306,38.0077355 C81.0913061,28.3538512 76.7625102,23.9103802 73.2221633,23.0389421 C70.7618571,22.4320992 68.5029796,23.3044959 65.424,23.8816198 C77.8646122,19.169719 66.1779184,8.43732231 58.9945918,4.872 C58.8478367,4.7991405 58.0785714,4.42046281 57.1922857,4.03986777" id="Fill-5" fill="#26548D"></path>
                <path d="M44.1627347,2.59801653 C45.0480612,3.8711405 49.7777959,4.48373554 50.1163878,3.36783471 C50.2995918,2.7581157 48.6891224,1.87996694 46.3304898,1.66330579 C44.310449,1.54442975 43.7905714,2.06499174 44.1627347,2.59801653" id="Fill-6" fill="#7FB041"></path>
                <path d="M34.3445306,2.3545124 C34.4433265,2.34300826 34.5402041,2.33629752 34.6380408,2.32479339 C34.5507551,2.34780165 34.5507551,2.34780165 34.3445306,2.3545124 M34.9670408,2.33629752 C34.8682449,2.33629752 34.7339592,2.34013223 34.6332449,2.34300826 C36.1334082,2.18195041 43.8471633,1.61153719 48.478102,5.96105785 C50.2497143,2.07553719 56.3194286,3.72254545 57.0052449,3.92482645 C52.9124082,2.9901157 50.8894898,6.15566942 54.3041837,11.7926942 C56.8920612,16.0626446 64.2221429,22.7580496 65.424,23.8816198 C53.5608163,14.5929917 50.8156327,11.7926942 49.5686939,10.2386777 C48.8560204,11.6987438 46.3803673,15.082876 34.7013469,21.7859504 C47.3491429,13.2728926 47.574551,4.7387438 38.7797959,2.73606612 C38.2397755,2.61335537 36.7885306,2.33054545 34.9670408,2.33629752" id="Fill-7" fill="#7FB041"></path>
                <path d="M20.1150408,7.86019835 C19.7889184,8.33570248 19.9567755,8.56866116 20.5639388,8.48429752 C22.4324286,8.21682645 26.2077755,5.47692562 25.4356327,4.95157025 C25.1325306,4.74066116 24.2011633,5.12892562 23.850102,5.27464463 C21.9921633,6.11061157 20.5639388,7.20733884 20.1150408,7.86019835" id="Fill-8" fill="#26548D"></path>
                <path d="M15.3152857,10.5655868 L15.4505306,10.4505455 L15.4668367,10.4380826 C15.6346939,10.3019504 19.5769388,7.14406612 20.6752041,10.4783471 C24.8745102,4.99183471 32.0520816,2.90191736 34.9411429,2.25960331 C25.5344286,4.84323967 18.3856327,12.9191405 27.7923469,18.7737851 C29.4066531,19.7784793 32.5393469,21.3085289 34.4203061,21.8856529 C22.4362653,19.2186116 20.3346939,16.3003967 19.6575102,15.0991736 C16.5046735,21.055438 11.7883673,27.2494545 8.33338776,32.9948099 C14.3167755,21.2337521 15.343102,19.315438 16.2073265,16.6349752 C18.5602041,9.33464463 15.9358776,10.1936198 15.9090204,10.2012893 C15.6481224,10.2961983 15.3968163,10.5003967 15.3152857,10.5655868" id="Fill-9" fill="#26548D"></path>
                <path d="M1.83779592,53.1222479 C-1.128,40.8214545 1.3687551,33.4367603 2.64063265,29.0776529 C2.38644898,30.7524628 1.81957143,33.8700826 7.64373469,33.1060165 C-1.12032653,32.1952727 6.34595918,20.9221818 8.84463265,17.489157 L8.62689796,17.780595 C6.63755102,20.6968926 6.03997959,21.5779174 4.11106122,25.4480992 C2.61953061,29.026843 2.60706122,29.9855207 1.56442857,33.9228099 C0.602367347,38.0710083 1.23063265,48.5273058 1.83779592,53.1222479 C1.83779592,53.1222479 1.21240816,47.3337521 1.20473469,47.2043306" id="Fill-10" fill="#7FB041"></path>
                <path d="M73.9003061,31.5213223 C74.0077347,34.8393058 76.3251224,37.929124 77.6564694,36.5265785 C78.8276327,35.2927603 78.2252653,31.1071736 76.1735714,29.264595 C74.516102,28.0585785 73.8465918,29.8599339 73.9003061,31.5213223" id="Fill-11" fill="#26548D"></path>
                <path d="M65.5266327,24.041719 C65.4076939,23.9353058 65.6839388,24.041719 65.5266327,24.041719 C66.2373878,24.041719 74.657102,29.2435041 75.142449,40.8157025 C78.782551,34.3733884 81.4471633,37.0404298 82.0936531,38.1755041 C82.087898,38.1678347 82.1013265,38.1831736 82.0936531,38.1755041 C81.8567347,37.9732231 80.1445918,36.6550413 77.011898,44.2017521 C76.1572653,46.2590744 75.9328163,47.0442314 71.3862857,65.5610909 C72.2332449,59.9441983 72.4883878,53.4635372 73.1204898,47.8293884 C71.8572449,49.4572231 69.1216531,52.833686 60.0381837,55.9752727 C78.0027347,46.8131901 72.7099592,30.4140496 65.6311837,24.0647273" id="Fill-12" fill="#26548D"></path>
                <path d="M47.4421837,24.3983471 C47.9889184,27.8160331 52.499,29.2444628 54.3396735,26.5870083 C55.8129796,24.4577851 54.3310408,20.9883306 50.9930816,20.5684298 C48.106898,20.4917355 47.1793673,22.7618843 47.4421837,24.3983471" id="Fill-13" fill="#7FB041"></path>
                <path d="M34.4222245,21.8856529 L34.4203061,21.8856529 C34.5584286,21.8894876 34.7013469,21.8981157 34.8413878,21.9115372 C34.8174082,21.9192066 34.7915102,21.9287934 34.7675306,21.9402975 C34.758898,21.9431736 34.7493061,21.9498843 34.7397143,21.9498843 C34.6821633,21.9470083 34.6313265,21.9259174 34.5756939,21.9124959 C34.5248571,21.9038678 34.472102,21.8933223 34.4222245,21.8856529 M35.3344082,22.0946446 C35.1876531,22.0553388 34.9929388,22.010281 34.8461837,21.9747867 C34.9670408,21.9719339 47.2100612,22.2192727 51.2530204,32.6266777 C55.1003061,23.2680661 65.1017143,24.0081653 65.5266327,24.041719 C59.1221633,24.8680992 49.2799796,34.5239008 59.8818367,55.8784463 C57.0129184,51.7618843 52.6332857,45.1661818 51.0621429,40.2644628 C50.1681837,42.3112397 48.0560612,46.6157025 39.3821633,54.3579835 C53.8178776,37.4200661 45.6811224,24.8949421 35.3344082,22.0946446" id="Fill-14" fill="#7FB041"></path>
                <path d="M17.0485306,31.0506116 C17.7947755,33.9400661 21.2507143,33.8087273 22.9196939,30.8243636 C24.5829184,27.8495868 22.8448776,24.594876 20.0565306,25.466314 C19.9558163,25.5008264 19.8157755,25.5564298 19.7169796,25.5947769 C17.2202245,26.8247603 16.6543061,29.5272727 17.0485306,31.0506116" id="Fill-15" fill="#26548D"></path>
                <path d="M8.64128571,33.318843 C8.54920408,33.324595 8.42642857,33.3408926 8.33338776,33.3523967 C8.40340816,33.3092562 16.121,29.6279339 21.6554898,37.435405 C22.805551,26.8803636 32.5086531,22.679438 34.5756939,21.9124959 C23.3129592,28.0911736 21.2238571,44.5497521 39.1500408,54.4270083 C36.1650612,53.2794711 27.8086531,49.7553719 23.735,44.7098512 C23.7043061,46.9675372 23.196898,47.8667769 20.6752041,62.324595 C21.6861837,35.9973884 12.7485102,32.9986446 8.64128571,33.318843" id="Fill-16" fill="#26548D"></path>
                <path d="M1.0925102,48.5110083 C1.43685714,49.8080992 2.00661224,50.1762314 2.44687755,49.3949091 C3.42908163,47.6481983 2.88618367,42.2930248 1.75434694,42.5758347 C1.5155102,42.634314 1.35628571,42.9583471 1.25940816,43.152 C0.604285714,44.8191405 0.769265306,47.2886942 1.0925102,48.5110083" id="Fill-17" fill="#7FB041"></path>
                <path d="M15.3383061,73.026314 C13.1456122,69.6479339 13.1676735,70.3918678 7.14687755,59.2740826 C8.05426531,60.9517686 12.3753878,62.2852893 20.6752041,62.5383802 C3.29383673,59.3498182 2.89577551,41.8951736 8.02069388,33.408 C7.34255102,34.2315041 0.808591837,48.6950744 3.75904082,53.9869752 C2.24065306,51.2585785 1.57018367,50.2720992 1.56634694,50.3046942 C1.54236735,50.4839669 1.97591837,56.1238678 4.3767551,61.0140826 C7.53726531,67.4535207 13.4563878,71.6534876 15.3383061,73.026314" id="Fill-18" fill="#7FB041"></path>
                <path d="M20.0881837,75.0050248 C20.972551,75.7681322 21.4818776,75.7844298 21.2986735,75.0443306 C20.8862245,73.395405 17.7055714,69.8674711 17.2442041,70.5490909 C17.144449,70.6948099 17.2317347,70.992 17.2864082,71.1664793 C17.8312245,72.6227107 19.2517755,74.2840992 20.0881837,75.0050248" id="Fill-19" fill="#7FB041"></path>
                <path d="M42.8371429,83.9878347 C39.939449,83.7395372 35.6355918,84.0932893 30.9566939,80.7407934 C32.2602245,81.6755041 39.114551,83.3857851 43.746449,80.0035702 C32.6141633,85.2254876 22.4784694,70.700562 20.6752041,62.5383802 C20.7519388,63.4069421 18.9716939,71.8950744 26.2691633,78.4831074 C21.714,76.7181818 17.0015306,75.6530909 17.0216735,75.6722645 C17.6317143,76.1659835 17.1645918,75.7527934 17.2739388,75.8745455 L18.0393673,76.4938512 C18.7242245,77.0633058 23.5911224,80.6688926 28.1482041,82.009124 C34.4366122,83.8632066 41.1374694,84.3013223 42.8371429,83.9878347" id="Fill-20" fill="#7FB041"></path>
                <path d="M46.2067551,83.4979504 C48.8166939,83.1231074 52.6515102,82.6476033 57.4483878,79.781157 C56.1084082,80.5787769 48.666102,82.4568264 45.239898,80.1607934 C54.0480816,83.4452231 68.1768571,72.2229421 71.3805306,65.8544463 C71.1426531,66.521686 69.7815714,72.2306116 62.0361633,77.752595 C66.4100408,76.1065455 70.1988163,71.7263471 70.1777143,72.1146116 C70.160449,72.4060496 70.2976122,72.0168264 70.1777143,72.1146116 C69.6252245,72.964 65.5266327,77.3135207 59.5585918,80.1675041 C53.464898,83.0818843 47.6445714,83.6302479 46.2067551,83.4979504" id="Fill-21" fill="#7FB041"></path>
                <path d="M71.3805306,70.786843 C73.6135102,68.5406612 74.7491837,67.4535207 78.6837551,58.8839008 C78.0967347,60.1646942 75.7141224,63.4539174 71.3862857,65.5610909 C79.5460612,61.5873719 83.2015102,44.7970909 82.0936531,38.1755041 C82.2193061,38.919438 83.9362449,48.0172893 79.0002857,59.338314 C77.0032653,63.918876 72.9065918,69.9259504 71.3805306,70.786843" id="Fill-22" fill="#7FB041"></path>
                <path d="M63.5756531,62.057124 C62.4725918,63.9207934 61.8769388,66.3884298 63.6945918,65.9733223 C66.092551,65.4220826 68.9806531,61.0946116 67.4248571,59.5329256 C66.1788776,58.7247603 64.4417959,60.5999339 63.5756531,62.057124" id="Fill-23" fill="#26548D"></path>
                <path d="M60.0468163,56.2341157 C59.9940612,56.141124 60.0468163,56.2341157 59.9902245,56.141124 C60.0535306,56.1871405 65.4796327,60.962314 59.6420408,69.3622479 C66.5011633,63.9648926 69.9475102,64.8344132 71.3862857,65.8362314 C71.3862857,65.8439008 71.3834082,65.8506116 71.3805306,65.8544463 C67.6876735,65.0203967 61.8587143,69.5309752 58.0047143,72.5210909 C53.4342041,76.0595702 49.4881224,79.112 44.6049184,80.325686 C44.7833265,80.2787107 45.0221633,80.2135207 45.2005714,80.1607934 C48.6584286,79.0353058 50.7446531,77.4726612 54.1123469,74.3895537 C50.9767755,76.4248264 47.5975714,78.0392397 44.6049184,80.325686 L44.7823673,80.185719 C47.6407347,77.9606281 50.7436939,76.098876 53.4936735,73.7184793 C56.4489184,71.161686 57.8147959,69.2270744 58.2684898,68.5119008 C61.8021224,62.9208926 61.3369184,58.6030083 60.0468163,56.2341157" id="Fill-24" fill="#26548D"></path>
                <path d="M47.2944694,57.6721322 C47.3002245,60.1167603 48.7879184,62.3150083 50.6055714,60.4110744 C52.4759796,58.4630413 52.8922653,53.9869752 50.1355714,53.5603636 C48.2843469,53.565157 47.2896735,55.6857521 47.2944694,57.6721322" id="Fill-25" fill="#7FB041"></path>
                <path d="M39.4857551,54.6312066 C39.3821633,54.579438 39.4857551,54.6312066 39.3821633,54.5813554 C39.4684898,54.5909421 47.9313673,55.7797025 48.3639592,65.4949421 C51.772898,56.9444959 58.5581633,56.1948099 59.8818367,56.1277025 C52.2227551,58.3681322 49.3643878,68.2233388 48.2872245,71.9343802 C47.2254082,75.5926942 46.4609388,78.2309752 44.6049184,80.325686 C44.6893265,80.2202314 44.8063469,80.0764298 44.8965102,79.9728926 C46.457102,77.7640992 46.6508571,75.8275702 47.0354898,71.9640992 C44.4744694,78.6403306 44.4744694,78.6403306 44.6049184,80.325686 C44.5982041,80.2767934 44.5876531,80.2116033 44.581898,80.1607934 C44.158898,74.7030413 47.1716939,69.5923306 46.0542449,64.0665124 C45.1679592,59.686314 42.9608776,56.3031405 39.4857551,54.6312066" id="Fill-26" fill="#7FB041"></path>
                <path d="M28.5894286,61.7676033 C29.9821633,63.8278017 32.534551,65.0510744 32.9287755,62.6141157 C33.3316327,60.1531901 31.1283878,56.1804298 28.6604082,57.012562 C27.1487347,57.8207273 27.4393673,60.0640331 28.5894286,61.7676033" id="Fill-27" fill="#26548D"></path>
                <path d="M21.6209592,62.4856529 C21.5212041,62.4808595 20.9610408,62.5441322 20.8603265,62.5383802 C20.9207551,62.5134545 27.4921224,60.2624793 34.3867347,67.7679669 C31.2665102,59.243405 37.9980612,55.2869421 39.3821633,54.5813554 C37.907898,55.7844959 34.6265306,59.2798347 35.9300612,65.7068099 C37.140551,71.6764959 42.2117551,75.1306116 44.6049184,80.325686 C44.5473673,80.2202314 44.4744694,80.0783471 44.4226735,79.9757686 C43.8836122,79.0937851 43.8836122,79.0937851 38.268551,73.3886942 C40.1466327,76.5149421 41.5048367,78.7755041 44.6049184,80.325686 L44.3900612,80.2288595 C35.7353469,75.8151074 32.8012041,63.3427107 21.6209592,62.4856529" id="Fill-28" fill="#26548D"></path>
                <path d="M15.112898,10.7458182 C15.1646939,10.7026777 15.2097755,10.6595372 15.2606122,10.615438 C15.2097755,10.6595372 15.159898,10.701719 15.112898,10.7458182 M15.3056939,10.5751736 L15.2164898,10.6528264 C15.296102,10.585719 15.3709184,10.5176529 15.4505306,10.4505455 C15.4073673,10.4888926 15.3498163,10.5377851 15.3056939,10.5751736" id="Fill-29" fill="#7FB041"></path>
                <path d="M7.73965306,20.7755041 C6.97326531,21.6248926 6.51765306,21.9604298 6.48983673,21.6987107 C6.36993878,20.5818512 10.4301633,15.3608926 10.9203061,16.0012893 C10.9999184,16.1057851 10.8924898,16.3713388 10.8263061,16.5333554 C10.141449,17.9780826 8.21732653,20.2472727 7.73965306,20.7755041" id="Fill-30" fill="#7FB041"></path>
                <path d="M9.69063265,24.0254215 C7.22073469,23.0561983 3.74657143,23.9650248 1.22391837,33.815438 C2.32697959,29.844595 2.52553061,29.1275041 4.11106122,25.4480992 C5.81457143,22.0735537 6.22126531,21.2711405 8.62689796,17.780595 L8.84463265,17.489157 C10.8454898,14.8307438 13.0324286,12.5078678 15.5330204,10.383438 C9.21679592,15.7625785 5.8807551,22.0601322 4.62806122,24.4319008 C5.49804082,23.0389421 6.815,20.9250579 9.73283673,24.0455537 C9.72228571,24.041719 9.70118367,24.0330909 9.69063265,24.0254215" id="Fill-31" fill="#7FB041"></path>
                <path d="M104.464694,26.4029421 C104.464694,29.4764628 105.496776,32.0035372 107.561898,33.9841653 C109.611673,35.9657521 111.984694,36.9570248 114.669449,36.9570248 C117.584408,36.9570248 120.045673,35.9475372 122.049408,33.931438 C124.051224,31.8904132 125.05549,29.404562 125.05549,26.474843 C125.05549,23.5086942 124.064653,21.0247603 122.085857,19.0192066 C120.117612,17.0021488 117.680327,15.9936198 114.777837,15.9936198 C111.884939,15.9936198 109.446694,17.0021488 107.452551,19.0192066 C105.459367,21.0132562 104.464694,23.4732231 104.464694,26.4029421 Z M100.234694,26.3578843 C100.234694,22.4397686 101.668673,19.0748099 104.535673,16.2639669 C107.392122,13.4512066 110.825041,12.0457851 114.83251,12.0457851 C118.791061,12.0457851 122.187531,13.4636694 125.02,16.299438 C127.86302,19.1361653 129.28549,22.5433058 129.28549,26.5208595 C129.28549,30.5214215 127.856306,33.9160992 125.002735,36.7048926 C122.132857,39.5042314 118.671163,40.9039008 114.616694,40.9039008 C111.029347,40.9039008 107.80649,39.6595372 104.950041,37.173686 C101.806796,34.422281 100.234694,30.8157355 100.234694,26.3578843 Z" id="Fill-32" fill="#3B5767"></path>
                <path d="M138.01502,25.204595 L139.581367,25.204595 C143.433449,25.204595 145.35949,23.720562 145.35949,20.7524959 C145.35949,17.8802975 143.37398,16.4441983 139.401041,16.4441983 L138.01502,16.4441983 L138.01502,25.204595 Z M138.01502,29.0977851 L138.01502,40.3986777 L133.823388,40.3986777 L133.823388,12.5701818 L138.571347,12.5701818 C140.900245,12.5701818 142.659388,12.7321983 143.846857,13.0562314 C145.046796,13.3802645 146.100939,13.9928595 147.014082,14.8940165 C148.609204,16.4557025 149.408204,18.4267438 149.408204,20.8061818 C149.408204,23.3543471 148.55549,25.3723636 146.85102,26.8631074 C145.14751,28.3528926 142.850265,29.0977851 139.960245,29.0977851 L138.01502,29.0977851 Z" id="Fill-33" fill="#3B5767"></path>
                <polyline id="Fill-34" fill="#3B5767" points="168.325224 16.5170579 157.184306 16.5170579 157.184306 23.2038347 167.999102 23.2038347 167.999102 27.1507107 157.184306 27.1507107 157.184306 36.4518017 168.325224 36.4518017 168.325224 40.3986777 152.989796 40.3986777 152.989796 12.5701818 168.325224 12.5701818 168.325224 16.5170579"></polyline>
                <polyline id="Fill-35" fill="#3B5767" points="173.093327 40.3986777 173.093327 10.6767934 193.359918 31.9095868 193.359918 12.5701818 197.554429 12.5701818 197.554429 42.0936198 177.287837 20.9145124 177.287837 40.3986777 173.093327 40.3986777"></polyline>
                <polyline id="Fill-36" fill="#3B5767" points="229.448245 16.5170579 218.309245 16.5170579 218.309245 23.2038347 229.125 23.2038347 229.125 27.1507107 218.309245 27.1507107 218.309245 36.4518017 229.448245 36.4518017 229.448245 40.3986777 214.115694 40.3986777 214.115694 12.5701818 229.448245 12.5701818 229.448245 16.5170579"></polyline>
                <path d="M238.411816,36.4518017 L240.303327,36.4518017 C242.185245,36.4518017 243.751592,36.2533554 245.000449,35.8564628 C246.248347,35.4356033 247.376347,34.7693223 248.384449,33.8557025 C250.447653,31.9690248 251.480694,29.5119339 251.480694,26.4844298 C251.480694,23.432 250.460122,20.9566942 248.420898,19.0575537 C246.584061,17.3635702 243.878204,16.5170579 240.303327,16.5170579 L238.411816,16.5170579 L238.411816,36.4518017 Z M234.220184,40.3986777 L234.220184,12.5701818 L240.05202,12.5701818 C242.845163,12.5701818 245.054163,12.8453223 246.674224,13.3984793 C248.413224,13.9391736 249.991082,14.8575868 251.406837,16.1575537 C254.276714,18.7757025 255.709735,22.218314 255.709735,26.4844298 C255.709735,30.7620496 254.215327,34.2219174 251.228429,36.8659504 C249.727306,38.1879669 248.158082,39.1073388 246.513082,39.6231074 C244.97551,40.1407934 242.797204,40.3986777 239.979122,40.3986777 L234.220184,40.3986777 Z" id="Fill-37" fill="#3B5767"></path>
                <path d="M264.438306,12.5701818 L264.438306,29.3192397 C264.438306,31.7082645 264.828694,33.4559339 265.60851,34.5612893 C266.772,36.1574876 268.409327,36.9570248 270.521449,36.9570248 C272.646041,36.9570248 274.290082,36.1574876 275.454531,34.5612893 C276.232429,33.491405 276.623776,31.7446942 276.623776,29.3192397 L276.623776,12.5701818 L280.817327,12.5701818 L280.817327,30.4849917 C280.817327,33.4175868 279.904184,35.8324959 278.080776,37.7316364 C276.028122,39.8455207 273.508347,40.9039008 270.521449,40.9039008 C267.534551,40.9039008 265.019571,39.8455207 262.981306,37.7316364 C261.157898,35.8324959 260.244755,33.4175868 260.244755,30.4849917 L260.244755,12.5701818 L264.438306,12.5701818" id="Fill-38" fill="#3B5767"></path>
                <path d="M307.278327,14.0561322 L307.278327,19.0220826 C304.85351,16.9906446 302.344286,15.9763636 299.752571,15.9763636 C296.896122,15.9763636 294.488571,17.0031074 292.534714,19.0575537 C290.568388,21.1004959 289.583306,23.5997686 289.583306,26.5553719 C289.583306,29.4764628 290.568388,31.9402645 292.534714,33.9467769 C294.502959,35.9523306 296.914347,36.9570248 299.768878,36.9570248 C301.245061,36.9570248 302.500633,36.715438 303.531755,36.2351405 C304.108224,35.9954711 304.704837,35.6704793 305.321592,35.2620826 C305.942184,34.853686 306.591551,34.3609256 307.278327,33.7838017 L307.278327,38.857124 C304.876531,40.2213223 302.356755,40.9039008 299.717082,40.9039008 C295.745102,40.9039008 292.352469,39.5147769 289.547816,36.739405 C286.750837,33.9400661 285.353306,30.5636033 285.353306,26.6100165 C285.353306,23.0657851 286.522551,19.9050248 288.865837,17.1296529 C291.741469,13.7282645 295.467898,12.0275702 300.042245,12.0275702 C302.536122,12.0275702 304.948469,12.7043967 307.278327,14.0561322" id="Fill-39" fill="#3B5767"></path>
                <path d="M327.10849,29.6921653 L322.989755,20.2300165 L318.670551,29.6921653 L327.10849,29.6921653 Z M328.820633,33.6390413 L316.921959,33.6390413 L313.829551,40.3986777 L309.311796,40.3986777 L323.060735,10.820595 L336.327204,40.3986777 L331.73751,40.3986777 L328.820633,33.6390413 Z" id="Fill-40" fill="#3B5767"></path>
                <polyline id="Fill-41" fill="#3B5767" points="345.184306 16.5170579 345.184306 40.3986777 340.987878 40.3986777 340.987878 16.5170579 334.599714 16.5170579 334.599714 12.5701818 351.554245 12.5701818 351.554245 16.5170579 345.184306 16.5170579"></polyline>
                <polygon id="Fill-42" fill="#3B5767" points="354.560327 40.3986777 358.752918 40.3986777 358.752918 12.5701818 354.560327 12.5701818"></polygon>
                <path d="M367.535204,26.4029421 C367.535204,29.4764628 368.570163,32.0035372 370.631449,33.9841653 C372.685061,35.9657521 375.054245,36.9570248 377.742837,36.9570248 C380.656837,36.9570248 383.117143,35.9475372 385.119918,33.931438 C387.125571,31.8904132 388.127918,29.404562 388.127918,26.474843 C388.127918,23.5086942 387.136122,21.0247603 385.155408,19.0192066 C383.188122,17.0021488 380.752755,15.9936198 377.850265,15.9936198 C374.958327,15.9936198 372.517204,17.0021488 370.52402,19.0192066 C368.532755,21.0132562 367.535204,23.4732231 367.535204,26.4029421 Z M363.307122,26.3578843 C363.307122,22.4397686 364.742061,19.0748099 367.61002,16.2639669 C370.462633,13.4512066 373.897469,12.0457851 377.90398,12.0457851 C381.86349,12.0457851 385.258041,13.4636694 388.09051,16.299438 C390.93449,19.1361653 392.356,22.5433058 392.356,26.5208595 C392.356,30.5214215 390.927776,33.9160992 388.072286,36.7048926 C385.206245,39.5042314 381.742633,40.9039008 377.688163,40.9039008 C374.100816,40.9039008 370.877,39.6595372 368.022469,37.173686 C364.880184,34.422281 363.307122,30.8157355 363.307122,26.3578843 Z" id="Fill-43" fill="#3B5767"></path>
                <polyline id="Fill-44" fill="#3B5767" points="396.892939 40.3986777 396.892939 10.6767934 417.158571 31.9095868 417.158571 12.5701818 421.351163 12.5701818 421.351163 42.0936198 401.08649 20.9145124 401.08649 40.3986777 396.892939 40.3986777"></polyline>
                <path d="M117.751306,49.7860496 L117.751306,53.6054215 C115.883776,52.0427769 113.957735,51.2633719 111.964551,51.2633719 C109.767061,51.2633719 107.916796,52.0523636 106.412796,53.6332231 C104.899204,55.2035372 104.144327,57.1266446 104.144327,59.3996694 C104.144327,61.6458512 104.899204,63.5392397 106.412796,65.0846281 C107.925429,66.6280992 109.78049,67.398876 111.97798,67.398876 C113.112694,67.398876 114.076673,67.2138512 114.871837,66.8438017 C115.312102,66.6597355 115.77251,66.4095207 116.248265,66.0960331 C116.722102,65.7825455 117.222796,65.4038678 117.751306,64.9590413 L117.751306,68.8618182 C115.903918,69.9106116 113.966367,70.4350083 111.935776,70.4350083 C108.883653,70.4350083 106.272755,69.3660826 104.117469,67.2339835 C101.964102,65.078876 100.888857,62.4837355 100.888857,59.4418512 C100.888857,56.7153719 101.788571,54.2860826 103.588,52.1491901 C105.803714,49.534876 108.668796,48.226281 112.186122,48.226281 C114.105449,48.226281 115.959551,48.746843 117.751306,49.7860496" id="Fill-45" fill="#3B5767"></path>
                <path d="M138.044755,59.2817521 C138.044755,61.6458512 138.838,63.5900496 140.422571,65.1133884 C142.004265,66.637686 143.824796,67.398876 145.893755,67.398876 C148.135367,67.398876 150.027837,66.6223471 151.568286,65.073124 C153.109694,63.5028099 153.879918,61.5912066 153.879918,59.338314 C153.879918,57.0566612 153.119286,55.1460165 151.597061,53.6035041 C150.08251,52.0523636 148.207306,51.2777521 145.977204,51.2777521 C143.74998,51.2777521 141.872857,52.0523636 140.342,53.6035041 C138.808265,55.1364298 138.044755,57.0307769 138.044755,59.2817521 Z M134.789286,59.2481983 C134.789286,56.2350744 135.895224,53.6466446 138.098469,51.4857851 C140.294041,49.3220496 142.933714,48.2397025 146.01749,48.2397025 C149.062898,48.2397025 151.672837,49.3316364 153.849224,51.5126281 C156.037122,53.6936198 157.133469,56.313686 157.133469,59.3728264 C157.133469,62.4482645 156.034245,65.0616198 153.838673,67.2052231 C151.63351,69.3584132 148.972735,70.4350083 145.851551,70.4350083 C143.092939,70.4350083 140.614408,69.4782479 138.419796,67.5637686 C135.998816,65.4498843 134.789286,62.6764298 134.789286,59.2481983 Z" id="Fill-46" fill="#3B5767"></path>
                <polyline id="Fill-47" fill="#3B5767" points="175.362755 70.0467438 175.362755 47.1880331 190.950449 63.5171901 190.950449 48.6433058 194.175224 48.6433058 194.175224 71.3505455 178.586571 55.0606942 178.586571 70.0467438 175.362755 70.0467438"></polyline>
                <path d="M225.557796,51.8174876 L222.941143,53.3695868 C222.451959,52.5201983 221.984837,51.965124 221.541694,51.7072397 C221.082245,51.4100496 220.484673,51.2633719 219.756653,51.2633719 C218.860776,51.2633719 218.119327,51.5174215 217.52751,52.0255207 C216.938571,52.5249917 216.641224,53.1529256 216.641224,53.9112397 C216.641224,54.9581157 217.416245,55.7979174 218.968204,56.4373554 L221.09951,57.3097521 C222.833714,58.0153388 224.102714,58.871438 224.90651,59.8838017 C225.710306,60.897124 226.112204,62.1386116 226.112204,63.6092231 C226.112204,65.5783471 225.457082,67.2080992 224.144918,68.4927273 C222.824122,69.7869421 221.187755,70.4350083 219.232939,70.4350083 C217.375,70.4350083 215.845102,69.8828099 214.636531,68.7774545 C213.445224,67.6759339 212.701857,66.122876 212.403551,64.1297851 L215.673408,63.4069421 C215.821122,64.6628099 216.077224,65.5304132 216.448429,66.0126281 C217.113143,66.9358347 218.081918,67.398876 219.354755,67.398876 C220.35998,67.398876 221.197347,67.0623802 221.858224,66.3884298 C222.525816,65.7144793 222.856735,64.8574215 222.856735,63.8249256 C222.856735,63.4088595 222.800143,63.0292231 222.682163,62.6831405 C222.569939,62.3360992 222.388653,62.0168595 222.143102,61.7263802 C221.899469,61.4349421 221.584857,61.161719 221.197347,60.9095868 C220.806959,60.6555372 220.346551,60.4120331 219.812286,60.1809917 L217.750041,59.3229752 C214.823571,58.086281 213.361776,56.2762975 213.361776,53.8911074 C213.361776,52.286281 213.973735,50.9412562 215.202449,49.8627438 C216.431163,48.7708099 217.957224,48.226281 219.785429,48.226281 C222.248612,48.226281 224.173694,49.4246281 225.557796,51.8174876" id="Fill-48" fill="#3B5767"></path>
                <path d="M246.360571,59.2817521 C246.360571,61.6458512 247.157653,63.5900496 248.743184,65.1133884 C250.322,66.637686 252.14349,67.398876 254.210531,67.398876 C256.453102,67.398876 258.346531,66.6223471 259.887939,65.073124 C261.42551,63.5028099 262.199571,61.5912066 262.199571,59.338314 C262.199571,57.0566612 261.43702,55.1460165 259.914796,53.6035041 C258.400245,52.0523636 256.526959,51.2777521 254.294939,51.2777521 C252.068673,51.2777521 250.19251,52.0523636 248.658776,53.6035041 C247.126,55.1364298 246.360571,57.0307769 246.360571,59.2817521 Z M243.108939,59.2481983 C243.108939,56.2350744 244.212,53.6466446 246.416204,51.4857851 C248.611776,49.3220496 251.253367,48.2397025 254.337143,48.2397025 C257.38351,48.2397025 259.991531,49.3316364 262.170796,51.5126281 C264.355816,53.6936198 265.451204,56.313686 265.451204,59.3728264 C265.451204,62.4482645 264.35198,65.0616198 262.157367,67.2052231 C259.952204,69.3584132 257.288551,70.4350083 254.169286,70.4350083 C251.408755,70.4350083 248.932143,69.4782479 246.734653,67.5637686 C244.318469,65.4498843 243.108939,62.6764298 243.108939,59.2481983 Z" id="Fill-49" fill="#3B5767"></path>
                <path d="M286.907184,58.4716694 L287.932551,58.4716694 C290.987551,58.4716694 292.513612,57.3020826 292.513612,54.9638678 C292.513612,52.7732893 291.028796,51.6784793 288.057245,51.6784793 L286.907184,51.6784793 L286.907184,58.4716694 Z M290.923286,60.9258843 L297.539735,70.0467438 L293.594612,70.0467438 L287.490367,61.2844298 L286.907184,61.2844298 L286.907184,70.0467438 L283.683367,70.0467438 L283.683367,48.6433058 L287.461592,48.6433058 C290.284469,48.6433058 292.324653,49.1734545 293.580224,50.2366281 C294.965286,51.420595 295.657816,52.9813223 295.657816,54.9226446 C295.657816,56.4373554 295.223306,57.7421157 294.356204,58.8321322 C293.488143,59.9240661 292.343837,60.6200661 290.923286,60.9258843 Z" id="Fill-50" fill="#3B5767"></path>
                <polyline id="Fill-51" fill="#3B5767" points="320.573571 51.6784793 320.573571 70.0467438 317.348796 70.0467438 317.348796 51.6784793 312.433939 51.6784793 312.433939 48.6433058 325.474041 48.6433058 325.474041 51.6784793 320.573571 51.6784793"></polyline>
                <polygon id="Fill-52" fill="#3B5767" points="342.527367 70.0467438 345.752143 70.0467438 345.752143 48.6433058 342.527367 48.6433058"></polygon>
                <path d="M368.289122,48.6433058 L368.289122,61.5260165 C368.289122,63.362843 368.588388,64.7088264 369.187878,65.5572562 C370.083755,66.7853223 371.343163,67.398876 372.967061,67.398876 C374.600551,67.398876 375.864755,66.7853223 376.758714,65.5572562 C377.360122,64.7347107 377.659388,63.392562 377.659388,61.5260165 L377.659388,48.6433058 L380.884163,48.6433058 L380.884163,62.4233388 C380.884163,64.6771901 380.183,66.5351074 378.781633,67.9961322 C377.203776,69.6220496 375.266224,70.4350083 372.967061,70.4350083 C370.667898,70.4350083 368.735143,69.6220496 367.167837,67.9961322 C365.766469,66.5351074 365.065306,64.6771901 365.065306,62.4233388 L365.065306,48.6433058 L368.289122,48.6433058" id="Fill-53" fill="#3B5767"></path>
                <polyline id="Fill-54" fill="#3B5767" points="399.434776 70.0467438 403.935265 47.033686 411.270143 63.6705785 418.869755 47.033686 422.912714 70.0467438 419.601612 70.0467438 417.539367 57.1266446 411.21451 71.0322645 405.068061 57.1122645 402.769857 70.0467438 399.434776 70.0467438"></polyline>
                <path d="M4.7734375,102.151886 L4.7734375,112.503448 L2.953125,112.503448 L2.953125,102.151886 L0.1796875,102.151886 L0.1796875,100.440948 L7.5390625,100.440948 L7.5390625,102.151886 L4.7734375,102.151886 Z M12.378125,99.3081358 L14.1359375,99.3081358 L14.1359375,105.526886 C14.7609406,104.964383 15.4510378,104.683136 16.20625,104.683136 C17.0656292,104.683136 17.7531224,104.961779 18.26875,105.519073 C18.7062521,106.003451 18.925,106.77688 18.925,107.839386 L18.925,112.503448 L17.1671875,112.503448 L17.1671875,108.003448 C17.1671875,107.39407 17.0591156,106.952668 16.8429687,106.67923 C16.6268218,106.405791 16.279169,106.269073 15.8,106.269073 C15.1854135,106.269073 14.7531262,106.459176 14.503125,106.839386 C14.2583321,107.224804 14.1359375,107.886256 14.1359375,108.823761 L14.1359375,112.503448 L12.378125,112.503448 L12.378125,99.3081358 Z M31.6312499,109.112823 L26.1781249,109.112823 C26.2250001,109.737826 26.4281231,110.235217 26.7874999,110.605011 C27.1468767,110.969596 27.6078096,111.151886 28.1703124,111.151886 C28.6078146,111.151886 28.9697901,111.04772 29.2562499,110.839386 C29.5375013,110.631051 29.8578106,110.245639 30.2171874,109.683136 L31.7015624,110.511261 C31.4723946,110.901888 31.2302095,111.23652 30.9749999,111.515167 C30.7197903,111.793814 30.4463555,112.022979 30.1546874,112.202667 C29.8630193,112.382355 29.5479183,112.513865 29.2093749,112.597198 C28.8708315,112.680532 28.5036477,112.722198 28.1078124,112.722198 C26.9723901,112.722198 26.0609408,112.357619 25.3734374,111.628448 C24.685934,110.89407 24.3421874,109.920121 24.3421874,108.706573 C24.3421874,107.503442 24.6755174,106.529494 25.3421874,105.784698 C26.0140658,105.05032 26.9046819,104.683136 28.0140624,104.683136 C29.1338597,104.683136 30.0192675,105.039903 30.6703124,105.753448 C31.316149,106.461785 31.6390624,107.443546 31.6390624,108.698761 L31.6312499,109.112823 Z M29.8265624,107.675323 C29.5817695,106.737819 28.9906296,106.269073 28.0531249,106.269073 C27.8395822,106.269073 27.6390633,106.301625 27.4515624,106.36673 C27.2640615,106.431834 27.0934903,106.525583 26.9398437,106.64798 C26.7861971,106.770376 26.654688,106.91751 26.5453124,107.089386 C26.4359369,107.261262 26.3526044,107.456572 26.2953124,107.675323 L29.8265624,107.675323 Z M52.1296873,106.222198 L57.1140623,106.222198 L57.1140623,106.620636 C57.1140623,107.52689 57.0072925,108.328966 56.7937498,109.026886 C56.5854154,109.672722 56.2338564,110.276883 55.7390623,110.839386 C54.619265,112.099809 53.1948001,112.730011 51.4656248,112.730011 C49.7781164,112.730011 48.3328183,112.120642 47.1296873,110.901886 C45.9265563,109.677921 45.3249998,108.209186 45.3249998,106.495636 C45.3249998,104.745627 45.9369729,103.261267 47.1609373,102.042511 C48.3849018,100.818546 49.8744702,100.206573 51.6296873,100.206573 C52.5724004,100.206573 53.4525999,100.39928 54.2703123,100.784698 C55.0515662,101.170117 55.8197877,101.795111 56.5749998,102.659698 L55.2781248,103.901886 C54.2885365,102.584171 53.0828194,101.925323 51.6609373,101.925323 C50.3848893,101.925323 49.3145875,102.365423 48.4499998,103.245636 C47.5854122,104.110223 47.1531248,105.193546 47.1531248,106.495636 C47.1531248,107.839392 47.6348908,108.946152 48.5984373,109.815948 C49.4994835,110.623244 50.4760362,111.026886 51.5281248,111.026886 C52.4239626,111.026886 53.2286421,110.724805 53.9421873,110.120636 C54.6557325,109.511258 55.0541661,108.782098 55.1374998,107.933136 L52.1296873,107.933136 L52.1296873,106.222198 Z M64.3749998,99.3081358 L64.3749998,112.503448 L62.6171873,112.503448 L62.6171873,99.3081358 L64.3749998,99.3081358 Z M69.7921872,108.644073 C69.7921872,107.545109 70.1854124,106.610223 70.9718747,105.839386 C71.758337,105.068549 72.7166607,104.683136 73.8468747,104.683136 C74.9822971,104.683136 75.9458291,105.071153 76.7374997,105.847198 C77.5187536,106.623244 77.9093747,107.576359 77.9093747,108.706573 C77.9093747,109.847204 77.5161495,110.802924 76.7296872,111.573761 C75.9380166,112.33939 74.9666721,112.722198 73.8156247,112.722198 C72.674994,112.722198 71.7192744,112.331577 70.9484372,111.550323 C70.1776,110.779486 69.7921872,109.810746 69.7921872,108.644073 Z M71.5890622,108.675323 C71.5890622,109.435744 71.7921852,110.0373 72.1984372,110.480011 C72.615106,110.92793 73.1645796,111.151886 73.8468747,111.151886 C74.5343782,111.151886 75.0838518,110.930534 75.4953122,110.487823 C75.9067726,110.045113 76.1124997,109.453973 76.1124997,108.714386 C76.1124997,107.974799 75.9067726,107.383659 75.4953122,106.940948 C75.0786435,106.493029 74.5291698,106.269073 73.8468747,106.269073 C73.1749964,106.269073 72.630731,106.493029 72.2140622,106.940948 C71.7973935,107.388867 71.5890622,107.966986 71.5890622,108.675323 Z M85.0765622,99.3081358 L85.0765622,105.776886 C85.7796907,105.047715 86.5765577,104.683136 87.4671872,104.683136 C88.493234,104.683136 89.3473921,105.065944 90.0296872,105.831573 C90.7119822,106.591994 91.0531247,107.539901 91.0531247,108.675323 C91.0531247,109.847204 90.7093781,110.815944 90.0218747,111.581573 C89.3395796,112.341994 88.477609,112.722198 87.4359372,112.722198 C86.5557244,112.722198 85.769274,112.38366 85.0765622,111.706573 L85.0765622,112.503448 L83.3187497,112.503448 L83.3187497,99.3081358 L85.0765622,99.3081358 Z M89.2562497,108.753448 C89.2562497,108.024278 89.058335,107.430534 88.6624997,106.972198 C88.261456,106.503446 87.7588569,106.269073 87.1546872,106.269073 C86.5088506,106.269073 85.9828142,106.495634 85.5765622,106.948761 C85.1755185,107.39668 84.9749997,107.980007 84.9749997,108.698761 C84.9749997,109.438348 85.1729144,110.029488 85.5687497,110.472198 C85.964585,110.925326 86.4854131,111.151886 87.1312497,111.151886 C87.7406277,111.151886 88.245831,110.925326 88.6468747,110.472198 C89.0531267,110.013863 89.2562497,109.440952 89.2562497,108.753448 Z M102.071875,104.894073 L103.8375,104.894073 L103.8375,112.503448 L102.071875,112.503448 L102.071875,111.706573 C101.347913,112.38366 100.569275,112.722198 99.7359371,112.722198 C98.6838485,112.722198 97.8140656,112.341994 97.1265621,111.581573 C96.444267,110.805528 96.1031246,109.836787 96.1031246,108.675323 C96.1031246,107.534693 96.444267,106.584181 97.1265621,105.823761 C97.8088572,105.06334 98.6630153,104.683136 99.6890621,104.683136 C100.574483,104.683136 101.368746,105.047715 102.071875,105.776886 L102.071875,104.894073 Z M97.8999996,108.675323 C97.8999996,109.404494 98.0953102,109.998238 98.4859371,110.456573 C98.8869808,110.920117 99.3921841,111.151886 100.001562,111.151886 C100.652607,111.151886 101.178643,110.92793 101.579687,110.480011 C101.980731,110.016467 102.18125,109.427931 102.18125,108.714386 C102.18125,108.000841 101.980731,107.412305 101.579687,106.948761 C101.178643,106.495634 100.657815,106.269073 100.017187,106.269073 C99.4130174,106.269073 98.9078141,106.498238 98.5015621,106.956573 C98.1005184,107.420117 97.8999996,107.993028 97.8999996,108.675323 Z M111.364062,99.3081358 L111.364062,112.503448 L109.60625,112.503448 L109.60625,99.3081358 L111.364062,99.3081358 Z M125.964062,112.503448 L125.964062,99.6206358 L134.760937,108.823761 L134.760937,100.440948 L136.581249,100.440948 L136.581249,113.237823 L127.784374,104.058136 L127.784374,112.503448 L125.964062,112.503448 Z M149.795312,109.112823 L144.342187,109.112823 C144.389062,109.737826 144.592185,110.235217 144.951562,110.605011 C145.310939,110.969596 145.771872,111.151886 146.334374,111.151886 C146.771877,111.151886 147.133852,111.04772 147.420312,110.839386 C147.701563,110.631051 148.021873,110.245639 148.381249,109.683136 L149.865624,110.511261 C149.636457,110.901888 149.394272,111.23652 149.139062,111.515167 C148.883852,111.793814 148.610418,112.022979 148.318749,112.202667 C148.027081,112.382355 147.71198,112.513865 147.373437,112.597198 C147.034894,112.680532 146.66771,112.722198 146.271874,112.722198 C145.136452,112.722198 144.225003,112.357619 143.537499,111.628448 C142.849996,110.89407 142.506249,109.920121 142.506249,108.706573 C142.506249,107.503442 142.839579,106.529494 143.506249,105.784698 C144.178128,105.05032 145.068744,104.683136 146.178124,104.683136 C147.297922,104.683136 148.18333,105.039903 148.834374,105.753448 C149.480211,106.461785 149.803124,107.443546 149.803124,108.698761 L149.795312,109.112823 Z M147.990624,107.675323 C147.745832,106.737819 147.154692,106.269073 146.217187,106.269073 C146.003644,106.269073 145.803125,106.301625 145.615624,106.36673 C145.428123,106.431834 145.257552,106.525583 145.103906,106.64798 C144.950259,106.770376 144.81875,106.91751 144.709374,107.089386 C144.599999,107.261262 144.516666,107.456572 144.459374,107.675323 L147.990624,107.675323 Z M157.220312,106.534698 L157.220312,112.503448 L155.462499,112.503448 L155.462499,106.534698 L154.712499,106.534698 L154.712499,104.894073 L155.462499,104.894073 L155.462499,102.105011 L157.220312,102.105011 L157.220312,104.894073 L158.587499,104.894073 L158.587499,106.534698 L157.220312,106.534698 Z M164.285937,104.894073 L166.278124,109.237823 L168.426562,104.198761 L170.590624,109.237823 L172.559374,104.894073 L174.528124,104.894073 L170.543749,113.073761 L168.426562,108.175323 L166.285937,113.073761 L162.309374,104.894073 L164.285937,104.894073 Z M178.617187,108.644073 C178.617187,107.545109 179.010412,106.610223 179.796874,105.839386 C180.583337,105.068549 181.54166,104.683136 182.671874,104.683136 C183.807297,104.683136 184.770829,105.071153 185.562499,105.847198 C186.343753,106.623244 186.734374,107.576359 186.734374,108.706573 C186.734374,109.847204 186.341149,110.802924 185.554687,111.573761 C184.763016,112.33939 183.791672,112.722198 182.640624,112.722198 C181.499994,112.722198 180.544274,112.331577 179.773437,111.550323 C179.0026,110.779486 178.617187,109.810746 178.617187,108.644073 Z M180.414062,108.675323 C180.414062,109.435744 180.617185,110.0373 181.023437,110.480011 C181.440106,110.92793 181.989579,111.151886 182.671874,111.151886 C183.359378,111.151886 183.908851,110.930534 184.320312,110.487823 C184.731772,110.045113 184.937499,109.453973 184.937499,108.714386 C184.937499,107.974799 184.731772,107.383659 184.320312,106.940948 C183.903643,106.493029 183.354169,106.269073 182.671874,106.269073 C181.999996,106.269073 181.455731,106.493029 181.039062,106.940948 C180.622393,107.388867 180.414062,107.966986 180.414062,108.675323 Z M192.143749,104.894073 L193.901562,104.894073 L193.901562,105.573761 C194.22448,105.235217 194.510935,105.003449 194.760937,104.878448 C195.016146,104.748239 195.318227,104.683136 195.667187,104.683136 C196.130731,104.683136 196.615101,104.834176 197.120312,105.136261 L196.315624,106.745636 C195.982289,106.506051 195.656772,106.386261 195.339062,106.386261 C194.380724,106.386261 193.901562,107.110212 193.901562,108.558136 L193.901562,112.503448 L192.143749,112.503448 L192.143749,104.894073 Z M203.678124,99.3081358 L203.678124,107.355011 L206.154687,104.894073 L208.514062,104.894073 L205.209374,108.089386 L208.756249,112.503448 L206.474999,112.503448 L203.959374,109.292511 L203.678124,109.573761 L203.678124,112.503448 L201.920312,112.503448 L201.920312,99.3081358 L203.678124,99.3081358 Z M223.746874,106.534698 L223.746874,112.503448 L221.981249,112.503448 L221.981249,106.534698 L221.356249,106.534698 L221.356249,104.894073 L221.981249,104.894073 L221.981249,101.956573 C221.981249,100.998235 222.147914,100.321159 222.481249,99.9253233 C222.939585,99.3732372 223.606245,99.0971983 224.481249,99.0971983 C224.793751,99.0971983 225.186976,99.1883432 225.660937,99.3706358 L225.660937,101.167511 L225.481249,101.073761 C225.101039,100.881051 224.788542,100.784698 224.543749,100.784698 C224.231248,100.784698 224.020312,100.896676 223.910937,101.120636 C223.801561,101.339387 223.746874,101.761258 223.746874,102.386261 L223.746874,104.894073 L225.660937,104.894073 L225.660937,106.534698 L223.746874,106.534698 Z M230.062499,108.644073 C230.062499,107.545109 230.455724,106.610223 231.242187,105.839386 C232.028649,105.068549 232.986973,104.683136 234.117187,104.683136 C235.252609,104.683136 236.216141,105.071153 237.007812,105.847198 C237.789065,106.623244 238.179687,107.576359 238.179687,108.706573 C238.179687,109.847204 237.786461,110.802924 236.999999,111.573761 C236.208328,112.33939 235.236984,112.722198 234.085937,112.722198 C232.945306,112.722198 231.989586,112.331577 231.218749,111.550323 C230.447912,110.779486 230.062499,109.810746 230.062499,108.644073 Z M231.859374,108.675323 C231.859374,109.435744 232.062497,110.0373 232.468749,110.480011 C232.885418,110.92793 233.434891,111.151886 234.117187,111.151886 C234.80469,111.151886 235.354164,110.930534 235.765624,110.487823 C236.177084,110.045113 236.382812,109.453973 236.382812,108.714386 C236.382812,107.974799 236.177084,107.383659 235.765624,106.940948 C235.348955,106.493029 234.799482,106.269073 234.117187,106.269073 C233.445308,106.269073 232.901043,106.493029 232.484374,106.940948 C232.067705,107.388867 231.859374,107.966986 231.859374,108.675323 Z M243.589061,104.894073 L245.346874,104.894073 L245.346874,105.573761 C245.669792,105.235217 245.956248,105.003449 246.206249,104.878448 C246.461459,104.748239 246.763539,104.683136 247.112499,104.683136 C247.576043,104.683136 248.060413,104.834176 248.565624,105.136261 L247.760936,106.745636 C247.427601,106.506051 247.102084,106.386261 246.784374,106.386261 C245.826036,106.386261 245.346874,107.110212 245.346874,108.558136 L245.346874,112.503448 L243.589061,112.503448 L243.589061,104.894073 Z M261.345311,106.417511 C261.345311,104.719586 261.967701,103.261267 263.212499,102.042511 C264.452088,100.823755 265.941657,100.214386 267.681249,100.214386 C269.400007,100.214386 270.873951,100.828963 272.103124,102.058136 C273.337505,103.287309 273.954686,104.763856 273.954686,106.487823 C273.954686,108.222207 273.334901,109.693546 272.095311,110.901886 C270.850514,112.115434 269.347924,112.722198 267.587499,112.722198 C266.030199,112.722198 264.631776,112.183141 263.392186,111.105011 C262.027596,109.912296 261.345311,108.349812 261.345311,106.417511 Z M263.181249,106.440948 C263.181249,107.774288 263.629161,108.870631 264.524999,109.730011 C265.415628,110.58939 266.444264,111.019073 267.610936,111.019073 C268.876568,111.019073 269.944265,110.581578 270.814061,109.706573 C271.683857,108.821152 272.118749,107.743038 272.118749,106.472198 C272.118749,105.185734 271.689066,104.107619 270.829686,103.237823 C269.975515,102.362819 268.918234,101.925323 267.657811,101.925323 C266.402597,101.925323 265.342712,102.362819 264.478124,103.237823 C263.613536,104.102411 263.181249,105.170109 263.181249,106.440948 Z M281.215624,116.644073 L279.457811,116.644073 L279.457811,104.894073 L281.215624,104.894073 L281.215624,105.722198 C281.908336,105.029486 282.694786,104.683136 283.574999,104.683136 C284.621879,104.683136 285.48385,105.068549 286.160936,105.839386 C286.84844,106.605015 287.192186,107.571151 287.192186,108.737823 C287.192186,109.878454 286.851044,110.828965 286.168749,111.589386 C285.491662,112.344598 284.637504,112.722198 283.606249,112.722198 C282.715619,112.722198 281.918752,112.365431 281.215624,111.651886 L281.215624,116.644073 Z M285.395311,108.745636 C285.395311,108.016465 285.197397,107.422721 284.801561,106.964386 C284.400518,106.500842 283.895314,106.269073 283.285936,106.269073 C282.6401,106.269073 282.116668,106.493029 281.715624,106.940948 C281.31458,107.388867 281.114061,107.977403 281.114061,108.706573 C281.114061,109.420119 281.31458,110.008654 281.715624,110.472198 C282.111459,110.925326 282.632287,111.151886 283.278124,111.151886 C283.887502,111.151886 284.390101,110.922721 284.785936,110.464386 C285.192188,110.00605 285.395311,109.433139 285.395311,108.745636 Z M299.531249,109.112823 L294.078124,109.112823 C294.124999,109.737826 294.328122,110.235217 294.687499,110.605011 C295.046876,110.969596 295.507808,111.151886 296.070311,111.151886 C296.507813,111.151886 296.869789,111.04772 297.156249,110.839386 C297.4375,110.631051 297.75781,110.245639 298.117186,109.683136 L299.601561,110.511261 C299.372393,110.901888 299.130208,111.23652 298.874999,111.515167 C298.619789,111.793814 298.346354,112.022979 298.054686,112.202667 C297.763018,112.382355 297.447917,112.513865 297.109374,112.597198 C296.77083,112.680532 296.403647,112.722198 296.007811,112.722198 C294.872389,112.722198 293.96094,112.357619 293.273436,111.628448 C292.585933,110.89407 292.242186,109.920121 292.242186,108.706573 C292.242186,107.503442 292.575516,106.529494 293.242186,105.784698 C293.914065,105.05032 294.804681,104.683136 295.914061,104.683136 C297.033859,104.683136 297.919266,105.039903 298.570311,105.753448 C299.216148,106.461785 299.539061,107.443546 299.539061,108.698761 L299.531249,109.112823 Z M297.726561,107.675323 C297.481768,106.737819 296.890628,106.269073 295.953124,106.269073 C295.739581,106.269073 295.539062,106.301625 295.351561,106.36673 C295.16406,106.431834 294.993489,106.525583 294.839843,106.64798 C294.686196,106.770376 294.554687,106.91751 294.445311,107.089386 C294.335936,107.261262 294.252603,107.456572 294.195311,107.675323 L297.726561,107.675323 Z M305.003124,104.894073 L306.768749,104.894073 L306.768749,105.597198 C307.383335,104.98782 308.076037,104.683136 308.846874,104.683136 C309.732295,104.683136 310.422392,104.961779 310.917186,105.519073 C311.344272,105.993034 311.557811,106.766464 311.557811,107.839386 L311.557811,112.503448 L309.792186,112.503448 L309.792186,108.253448 C309.792186,107.503445 309.688021,106.985221 309.479686,106.698761 C309.27656,106.407093 308.906772,106.261261 308.370311,106.261261 C307.786975,106.261261 307.372917,106.453967 307.128124,106.839386 C306.888539,107.219596 306.768749,107.883652 306.768749,108.831573 L306.768749,112.503448 L305.003124,112.503448 L305.003124,104.894073 Z M332.806249,102.151886 L327.970311,102.151886 L327.970311,105.050323 L332.665624,105.050323 L332.665624,106.761261 L327.970311,106.761261 L327.970311,110.792511 L332.806249,110.792511 L332.806249,112.503448 L326.149999,112.503448 L326.149999,100.440948 L332.806249,100.440948 L332.806249,102.151886 Z M344.020311,99.3081358 L345.785936,99.3081358 L345.785936,112.503448 L344.020311,112.503448 L344.020311,111.706573 C343.327599,112.38366 342.543753,112.722198 341.668749,112.722198 C340.627077,112.722198 339.762502,112.341994 339.074999,111.581573 C338.392704,110.805528 338.051561,109.836787 338.051561,108.675323 C338.051561,107.539901 338.392704,106.591994 339.074999,105.831573 C339.752085,105.065944 340.603639,104.683136 341.629686,104.683136 C342.520316,104.683136 343.317183,105.047715 344.020311,105.776886 L344.020311,99.3081358 Z M339.848436,108.675323 C339.848436,109.404494 340.043747,109.998238 340.434374,110.456573 C340.835417,110.920117 341.340621,111.151886 341.949999,111.151886 C342.601044,111.151886 343.12708,110.92793 343.528124,110.480011 C343.929167,110.016467 344.129686,109.427931 344.129686,108.714386 C344.129686,108.000841 343.929167,107.412305 343.528124,106.948761 C343.12708,106.495634 342.606252,106.269073 341.965624,106.269073 C341.361454,106.269073 340.856251,106.498238 340.449999,106.956573 C340.048955,107.420117 339.848436,107.993028 339.848436,108.675323 Z M353.312499,104.894073 L353.312499,109.261261 C353.312499,110.521684 353.809889,111.151886 354.804686,111.151886 C355.799483,111.151886 356.296874,110.521684 356.296874,109.261261 L356.296874,104.894073 L358.054686,104.894073 L358.054686,109.300323 C358.054686,109.909701 357.979166,110.435738 357.828124,110.878448 C357.68229,111.274284 357.429688,111.631051 357.070311,111.948761 C356.476558,112.464388 355.721357,112.722198 354.804686,112.722198 C353.893223,112.722198 353.140627,112.464388 352.546874,111.948761 C352.182288,111.631051 351.924478,111.274284 351.773436,110.878448 C351.627602,110.52428 351.554686,109.998243 351.554686,109.300323 L351.554686,104.894073 L353.312499,104.894073 Z M369.745311,105.222198 L369.745311,107.558136 C369.344267,107.06855 368.984896,106.732616 368.667186,106.550323 C368.354684,106.362822 367.987501,106.269073 367.565624,106.269073 C366.904162,106.269073 366.354688,106.500842 365.917186,106.964386 C365.479684,107.42793 365.260936,108.008653 365.260936,108.706573 C365.260936,109.420119 365.471871,110.00605 365.893749,110.464386 C366.320834,110.922721 366.865099,111.151886 367.526561,111.151886 C367.948438,111.151886 368.32083,111.060741 368.643749,110.878448 C368.95625,110.701364 369.323434,110.357617 369.745311,109.847198 L369.745311,112.167511 C369.031766,112.537304 368.318231,112.722198 367.604686,112.722198 C366.427597,112.722198 365.443232,112.341994 364.651561,111.581573 C363.85989,110.815944 363.464061,109.865433 363.464061,108.730011 C363.464061,107.594588 363.865099,106.636265 364.667186,105.855011 C365.469273,105.073757 366.453639,104.683136 367.620311,104.683136 C368.370315,104.683136 369.078641,104.862821 369.745311,105.222198 Z M380.607811,104.894073 L382.373436,104.894073 L382.373436,112.503448 L380.607811,112.503448 L380.607811,111.706573 C379.883849,112.38366 379.105211,112.722198 378.271873,112.722198 C377.219785,112.722198 376.350002,112.341994 375.662498,111.581573 C374.980203,110.805528 374.639061,109.836787 374.639061,108.675323 C374.639061,107.534693 374.980203,106.584181 375.662498,105.823761 C376.344794,105.06334 377.198952,104.683136 378.224998,104.683136 C379.11042,104.683136 379.904682,105.047715 380.607811,105.776886 L380.607811,104.894073 Z M376.435936,108.675323 C376.435936,109.404494 376.631247,109.998238 377.021873,110.456573 C377.422917,110.920117 377.92812,111.151886 378.537498,111.151886 C379.188543,111.151886 379.71458,110.92793 380.115623,110.480011 C380.516667,110.016467 380.717186,109.427931 380.717186,108.714386 C380.717186,108.000841 380.516667,107.412305 380.115623,106.948761 C379.71458,106.495634 379.193752,106.269073 378.553123,106.269073 C377.948954,106.269073 377.443751,106.498238 377.037498,106.956573 C376.636455,107.420117 376.435936,107.993028 376.435936,108.675323 Z M389.954686,106.534698 L389.954686,112.503448 L388.196873,112.503448 L388.196873,106.534698 L387.446873,106.534698 L387.446873,104.894073 L388.196873,104.894073 L388.196873,102.105011 L389.954686,102.105011 L389.954686,104.894073 L391.321873,104.894073 L391.321873,106.534698 L389.954686,106.534698 Z M397.824998,104.894073 L397.824998,112.503448 L396.067186,112.503448 L396.067186,104.894073 L397.824998,104.894073 Z M395.801561,101.730011 C395.801561,101.422718 395.913539,101.157095 396.137498,100.933136 C396.361458,100.709176 396.629684,100.597198 396.942186,100.597198 C397.259896,100.597198 397.530726,100.709176 397.754686,100.933136 C397.978645,101.151887 398.090623,101.420113 398.090623,101.737823 C398.090623,102.055533 397.978645,102.326364 397.754686,102.550323 C397.535935,102.774283 397.267708,102.886261 396.949998,102.886261 C396.632288,102.886261 396.361458,102.774283 396.137498,102.550323 C395.913539,102.326364 395.801561,102.052929 395.801561,101.730011 Z M403.242186,108.644073 C403.242186,107.545109 403.635411,106.610223 404.421873,105.839386 C405.208336,105.068549 406.166659,104.683136 407.296873,104.683136 C408.432296,104.683136 409.395828,105.071153 410.187498,105.847198 C410.968752,106.623244 411.359373,107.576359 411.359373,108.706573 C411.359373,109.847204 410.966148,110.802924 410.179686,111.573761 C409.388015,112.33939 408.416671,112.722198 407.265623,112.722198 C406.124993,112.722198 405.169273,112.331577 404.398436,111.550323 C403.627599,110.779486 403.242186,109.810746 403.242186,108.644073 Z M405.039061,108.675323 C405.039061,109.435744 405.242184,110.0373 405.648436,110.480011 C406.065105,110.92793 406.614578,111.151886 407.296873,111.151886 C407.984377,111.151886 408.53385,110.930534 408.945311,110.487823 C409.356771,110.045113 409.562498,109.453973 409.562498,108.714386 C409.562498,107.974799 409.356771,107.383659 408.945311,106.940948 C408.528642,106.493029 407.979168,106.269073 407.296873,106.269073 C406.624995,106.269073 406.08073,106.493029 405.664061,106.940948 C405.247392,107.388867 405.039061,107.966986 405.039061,108.675323 Z M416.768748,104.894073 L418.534373,104.894073 L418.534373,105.597198 C419.14896,104.98782 419.841661,104.683136 420.612498,104.683136 C421.497919,104.683136 422.188017,104.961779 422.682811,105.519073 C423.109896,105.993034 423.323436,106.766464 423.323436,107.839386 L423.323436,112.503448 L421.557811,112.503448 L421.557811,108.253448 C421.557811,107.503445 421.453645,106.985221 421.245311,106.698761 C421.042185,106.407093 420.672397,106.261261 420.135936,106.261261 C419.5526,106.261261 419.138541,106.453967 418.893748,106.839386 C418.654164,107.219596 418.534373,107.883652 418.534373,108.831573 L418.534373,112.503448 L416.768748,112.503448 L416.768748,104.894073 Z" id="The-Global-Network-f" fill="#3B5767"></path>
            </g>
        </g>
    </g>
</svg>