<?xml version="1.0" encoding="UTF-8"?>
<svg width="309px" height="86px" viewBox="0 0 309 86" version="1.1" xmlns="http://www.w3.org/2000/svg" xmlns:xlink="http://www.w3.org/1999/xlink">
    <!-- Generator: Sketch 52.5 (67469) - http://www.bohemiancoding.com/sketch -->
    <title>logo-oec</title>
    <desc>Created with Sketch.</desc>
    <g id="Final" stroke="none" stroke-width="1" fill="none" fill-rule="evenodd">
        <g id="Home---Tablet-Landscape" transform="translate(-534.000000, -2874.000000)">
            <g id="home/desktop/section-left" transform="translate(48.000000, 2711.000000)">
                <g id="logo/desktop/primary" transform="translate(466.000000, 153.000000)">
                    <g id="logo/fc/primary" transform="translate(20.412000, 10.062577)">
                        <path d="M41.589688,2.8255558 C41.5798986,2.82206142 41.5624175,2.81856704 41.5547258,2.81577154 C41.9875584,2.90662542 41.9875584,2.90662542 42.3483688,3.06247478 L42.2008281,3.00586582 C42.0183252,2.94296698 41.8973558,2.90382992 41.589688,2.8255558" id="Fill-1" fill="#7FB041"></path>
                        <path d="M25.9147152,1.47952056 C25.8923393,1.48650932 25.8622718,1.49489583 25.839896,1.50048684 C29.1990684,0.512276132 29.3438121,0.512276132 30.7276178,0.506685124 L31.1709391,0.513673884 L31.0583606,0.513673884 C30.1500415,0.555606446 28.8277694,0.700273785 25.9147152,1.47952056 M34.7252009,0.830264727 C34.6315021,0.813491702 34.5063372,0.797417554 34.4105407,0.782042281 C34.8664483,0.856822017 35.4775884,0.948374777 35.9320976,1.03643316 L36.3824113,1.13008255 C37.3823315,1.37538803 38.5165067,1.65493845 40.7680753,2.54740314 C39.9639437,2.23570443 37.5165865,1.29082403 34.7252009,0.830264727" id="Fill-2" fill="#7FB041"></path>
                        <path d="M20.8416934,2.12528202 C20.8305055,2.1287764 20.8144229,2.1343674 20.8018365,2.13925954 C21.1255869,2.03163263 21.5563217,1.89045967 21.8828691,1.78562826 L21.9143351,1.77794063 C22.3324836,1.71923504 22.3324836,1.71923504 24.7280966,1.68149574 C23.8799125,1.72203055 21.8933578,1.81218555 20.8416934,2.12528202" id="Fill-3" fill="#7FB041"></path>
                        <path d="M47.4563527,6.00194737 C48.408025,6.73157395 50.574985,8.50532132 50.5917669,8.51999772 C48.4569722,6.67496499 48.3744613,6.60228188 46.8941598,5.58821276 L46.8116489,5.53300155 C46.9235281,5.60987792 47.0906477,5.72379471 47.4563527,6.00194737" id="Fill-4" fill="#7FB041"></path>
                        <path d="M41.1288857,2.71373564 C41.212795,2.74448618 41.2988022,2.77733336 41.38411,2.8108794 C41.2960052,2.78641874 41.212795,2.74658281 41.1288857,2.71373564 M41.6931763,2.9450636 C41.6078684,2.90872205 41.4945907,2.86329511 41.4113806,2.82835131 C43.6440696,3.67259355 49.2478182,6.19763266 53.5509713,11.8794948 C57.4597502,17.0448876 59.2337346,21.80633 59.8483708,27.7076392 C59.1155622,20.6699576 55.9598699,17.4306671 53.378957,16.7953888 C51.5853939,16.3530003 49.9386721,16.9889775 47.694096,17.4097009 C56.7633023,13.9747252 48.2437025,6.15080797 43.0070574,3.551688 C42.900073,3.49857342 42.3392786,3.22251739 41.6931763,2.9450636" id="Fill-5" fill="#26548D"></path>
                        <path d="M32.1946336,1.89395405 C32.8400366,2.82206142 36.2880132,3.26864321 36.5348467,2.4551515 C36.6684024,2.01066635 35.4943703,1.3704959 33.7749271,1.21254992 C32.3023173,1.12588929 31.9233266,1.50537898 32.1946336,1.89395405" id="Fill-6" fill="#7FB041"></path>
                        <path d="M25.0371628,1.71643954 C25.109185,1.70805302 25.1798088,1.70316089 25.2511318,1.69477438 C25.1875005,1.7115474 25.1875005,1.7115474 25.0371628,1.71643954 M25.4909728,1.70316089 C25.4189505,1.70316089 25.3210562,1.7059564 25.2476355,1.70805302 C26.3412546,1.59064185 31.964582,1.17481061 35.3405364,4.34561117 C36.6320417,1.51306661 41.0568634,2.71373564 41.5568235,2.86119848 C38.5731456,2.17979435 37.0984381,4.48748301 39.5877499,8.59687408 C41.4743126,11.7096679 46.8179421,16.5906181 47.694096,17.4097009 C39.0458351,10.638291 37.0445962,8.59687408 36.1355778,7.46399603 C35.6160389,8.52838423 33.8112878,10.9954166 25.2972819,15.8819579 C34.5175251,9.67593868 34.6818477,3.45454423 28.2704712,1.9945922 C27.8767963,1.90513607 26.8188388,1.69896764 25.4909728,1.70316089" id="Fill-7" fill="#7FB041"></path>
                        <path d="M14.6638648,5.7300846 C14.4261215,6.07672711 14.5484893,6.24655398 14.9911114,6.18505289 C16.3532404,5.99006648 19.1054683,3.99267878 18.5425762,3.60969471 C18.3216148,3.45594198 17.642648,3.73898678 17.3867244,3.84521593 C16.032287,4.45463583 14.9911114,5.25415002 14.6638648,5.7300846" id="Fill-8" fill="#26548D"></path>
                        <path d="M11.1648433,7.70231276 L11.2634368,7.61844764 L11.275324,7.60936225 C11.3976918,7.51012185 14.2715884,5.2080242 15.0722238,7.63871504 C18.1335179,3.6390475 23.3659675,2.11549775 25.4720931,1.64725081 C18.6145984,3.53072172 13.4031262,9.41805342 20.2606209,13.6860894 C21.4374501,14.4185114 23.7211839,15.5339176 25.0924032,15.954641 C16.3560374,14.0103678 14.8239918,11.8829892 14.3303249,11.0072975 C12.031907,15.3494143 8.5937198,19.8648524 6.07503967,24.0532164 C10.4369293,15.4794053 11.1851214,14.0809543 11.815141,12.1268969 C13.5303888,6.80495593 11.6172547,7.43114886 11.5976759,7.43673987 C11.4074813,7.5059286 11.2242791,7.65478919 11.1648433,7.70231276" id="Fill-9" fill="#26548D"></path>
                        <path d="M1.33975322,38.7261187 C-0.822312,29.7588404 0.997822469,24.3753983 1.9250212,21.197609 C1.73972131,22.4185454 1.32646757,24.6912902 5.57228259,24.134286 C-0.816718041,23.4703538 4.62620424,15.2522705 6.4477372,12.7495955 L6.28900861,12.9620538 C4.83877469,15.0880347 4.40314512,15.7303018 2.99696363,18.5516643 C1.90963782,21.1605685 1.90054763,21.8594446 1.14046843,24.7297284 C0.439125796,27.753765 0.897131204,35.3764059 1.33975322,38.7261187 C1.33975322,38.7261187 0.883845551,34.5063053 0.878251592,34.411957" id="Fill-10" fill="#7FB041"></path>
                        <path d="M53.8733232,22.979044 C53.9516386,25.3978539 55.6410143,27.6503314 56.6115662,26.6278757 C57.4653442,25.7284223 57.0262184,22.6771295 55.5305336,21.3338898 C54.3222384,20.4547037 53.8341654,21.7678918 53.8733232,22.979044" id="Fill-11" fill="#26548D"></path>
                        <path d="M47.7689152,17.5264132 C47.6822088,17.4488379 47.8835914,17.5264132 47.7689152,17.5264132 C48.2870557,17.5264132 54.4250274,21.3185145 54.7788453,29.7546471 C57.4324797,25.0582002 59.374982,27.0024733 59.8462731,27.8299425 C59.8420776,27.8243515 59.851867,27.8355335 59.8462731,27.8299425 C59.6735596,27.6824797 58.4254074,26.7215251 56.1416736,32.2230773 C55.5186464,33.7228652 55.3550231,34.2952447 52.0406023,47.7940353 C52.6580355,43.6993206 52.8440347,38.9749186 53.3048371,34.8676242 C52.3839315,36.0543157 50.3896851,38.5157571 43.7678359,40.8059738 C56.8639936,34.1268156 53.0055602,22.1718421 47.8451329,17.5431862" id="Fill-12" fill="#26548D"></path>
                        <path d="M34.5853519,17.786395 C34.9839215,20.2778881 38.271771,21.3192134 39.613622,19.381929 C40.6876621,17.8297254 39.6073288,15.300493 37.1739565,14.9943853 C35.0699286,14.9384752 34.3937588,16.5934137 34.5853519,17.786395" id="Fill-13" fill="#7FB041"></path>
                        <path d="M25.0938017,15.954641 L25.0924032,15.954641 C25.1930944,15.9574365 25.2972819,15.9637263 25.3993717,15.9735106 C25.3818906,15.9791016 25.3630109,15.9860904 25.3455298,15.9944769 C25.3392366,15.9965735 25.3322442,16.0014657 25.3252517,16.0014657 C25.283297,15.999369 25.246237,15.9839938 25.2056808,15.9742095 C25.1686209,15.9679196 25.1301624,15.960232 25.0938017,15.954641 M25.7587836,16.1069959 C25.6517991,16.078342 25.5098524,16.0454948 25.4028679,16.0196195 C25.4909728,16.0175398 34.4161346,16.1978498 37.3634519,23.784848 C40.1681232,16.9624202 47.4591497,17.5019525 47.7689152,17.5264132 C43.100057,18.1288443 35.9251051,25.1679237 43.653859,40.7353873 C41.5624175,37.7344137 38.3696653,32.9261465 37.2243021,29.3527934 C36.5726059,30.8448937 35.0328686,33.9828471 28.709597,39.62697 C39.2332327,27.2792282 33.3015383,18.1484128 25.7587836,16.1069959" id="Fill-14" fill="#7FB041"></path>
                        <path d="M12.4283788,22.6358958 C12.9723913,24.7423082 15.4917707,24.6465622 16.7084568,22.4709611 C17.9209475,20.3023488 16.6539157,17.9296646 14.6212108,18.5649429 C14.5477901,18.5901025 14.4457003,18.6306373 14.3736781,18.6585923 C12.5535437,19.5552503 12.1409892,21.5253818 12.4283788,22.6358958" id="Fill-15" fill="#26548D"></path>
                        <path d="M6.29949729,24.2894365 C6.23236978,24.2936298 6.14286643,24.3055107 6.07503967,24.3138972 C6.12608455,24.2824478 11.752209,21.5987638 15.7868521,27.2904102 C16.6252467,19.5957851 23.6988081,16.5333103 25.2056808,15.9742095 C16.9951472,20.4784655 15.4721919,32.4767693 28.5403798,39.677289 C26.3643296,38.8407344 20.2725081,36.2716661 17.302815,32.5934816 C17.2804392,34.2393346 16.9105386,34.8948803 15.0722238,45.4346298 C15.8092279,26.2420962 9.29366394,24.0560119 6.29949729,24.2894365" id="Fill-16" fill="#26548D"></path>
                        <path d="M0.796439939,35.364525 C1.04746886,36.3101043 1.46282033,36.5784727 1.78377373,36.0088887 C2.49980051,34.7355366 2.1040279,30.8316151 1.27891892,31.0377835 C1.10480694,31.0804149 0.988732286,31.316635 0.918108551,31.457808 C0.440524286,32.6731534 0.560794408,34.4734581 0.796439939,35.364525" id="Fill-17" fill="#7FB041"></path>
                        <path d="M11.1816252,53.2361829 C9.58315133,50.7733438 9.59923396,51.3156716 5.21007373,43.2108062 C5.87155941,44.4338393 9.02165767,45.4059759 15.0722238,45.5904791 C2.40120698,43.2660175 2.11102035,30.5415815 5.84708584,24.354432 C5.35271969,24.9547665 0.589463449,35.4987092 2.74034076,39.3565049 C1.63343608,37.3675037 1.1446639,36.6483603 1.14186692,36.6721221 C1.1243858,36.8028119 1.44044449,40.9142996 3.19065447,44.4792662 C5.49466641,49.1736166 9.80970667,52.2353925 11.1816252,53.2361829" id="Fill-18" fill="#7FB041"></path>
                        <path d="M14.6442859,54.6786631 C15.2889897,55.2349684 15.6602887,55.2468493 15.526733,54.707317 C15.2260577,53.5052502 12.9073616,50.9333864 12.5710248,51.4302873 C12.4983033,51.5365164 12.5619346,51.753168 12.6017916,51.8803634 C12.9989627,52.9419561 14.0345443,54.1531083 14.6442859,54.6786631" id="Fill-19" fill="#7FB041"></path>
                        <path d="M31.2282771,61.2271315 C29.1158583,61.0461226 25.9783464,61.3040079 22.5674298,58.8600384 C23.5177037,59.5414425 28.5145077,60.7882374 31.8911613,58.3226027 C23.775725,62.1293805 16.3868042,51.5407097 15.0722238,45.5904791 C15.1281634,46.2236608 13.8303648,52.4115092 19.15022,57.2141853 C15.829506,55.9275545 12.3941158,55.1511033 12.4088,55.1650808 C12.8535197,55.525002 12.5129874,55.2237864 12.5927014,55.3125436 L13.1506988,55.7640176 C13.6499597,56.1791499 17.1979283,58.8076227 20.5200408,59.7846514 C25.1042903,61.1362776 29.9892152,61.455664 31.2282771,61.2271315" id="Fill-20" fill="#7FB041"></path>
                        <path d="M33.6847245,60.8700059 C35.5873698,60.5967453 38.3829509,60.2501028 41.8798747,58.1604635 C40.9030296,58.7419283 35.4775884,60.1110265 32.9798856,58.4372184 C39.4010515,60.8315677 49.7009289,52.6505248 52.0364068,48.0078913 C51.8629941,48.4943091 50.8707656,52.6561158 45.224363,56.6816418 C48.4129198,55.4816716 51.1749371,52.288507 51.1595537,52.5715518 C51.1469673,52.7840101 51.2469593,52.5002665 51.1595537,52.5715518 C50.7567887,53.190756 47.7689152,56.3615566 43.4182134,58.4421105 C38.9759106,60.5666937 34.7328926,60.9664507 33.6847245,60.8700059" id="Fill-21" fill="#7FB041"></path>
                        <path d="M52.0364068,51.6036085 C53.6642489,49.966142 54.4921549,49.1736166 57.3604575,42.9263637 C56.9325196,43.8600621 55.1955953,46.2579058 52.0406023,47.7940353 C57.9890786,44.8971941 60.6539009,32.6570793 59.8462731,27.8299425 C59.9378742,28.3722703 61.1895225,35.0046039 57.5912083,43.2576309 C56.1353804,46.5968606 53.1489054,50.9760179 52.0364068,51.6036085" id="Fill-22" fill="#7FB041"></path>
                        <path d="M46.3466511,45.2396434 C45.5425194,46.5982584 45.1082884,48.3971653 46.4333574,48.094552 C48.1814697,47.6926982 50.2868961,44.5379718 49.1527209,43.3995028 C48.2444017,42.8103503 46.9780692,44.1773518 46.3466511,45.2396434" id="Fill-23" fill="#26548D"></path>
                        <path d="M43.7741291,40.9946703 C43.7356706,40.9268794 43.7741291,40.9946703 43.7328737,40.9268794 C43.7790238,40.9604254 47.7346522,44.4415269 43.4790478,50.5650787 C48.479348,46.6304067 50.9917349,47.2642872 52.0406023,47.9946127 C52.0406023,48.0002037 52.0385046,48.0050958 52.0364068,48.0078913 C49.344314,47.3998692 45.0950027,50.6880809 42.2854367,52.8678753 C38.9535348,55.4474267 36.0768413,57.672648 32.5169855,58.5574251 C32.647045,58.5231801 32.821157,58.4756566 32.9512166,58.4372184 C35.4719944,57.6167379 36.9928521,56.47757 39.4479009,54.2299847 C37.1620693,55.7136985 34.6986296,56.8906057 32.5169855,58.5574251 L32.6463458,58.4553892 C34.7300956,56.8332979 36.9921528,55.4760806 38.996888,53.7407714 C41.1512615,51.8768691 42.1469862,50.4665372 42.4777291,49.9451757 C45.0537473,45.8693307 44.7146135,42.721593 43.7741291,40.9946703" id="Fill-24" fill="#26548D"></path>
                        <path d="M34.4776682,42.0429844 C34.4818637,43.8251183 35.5663925,45.427641 36.8914616,44.0396732 C38.2549891,42.6195571 38.5584614,39.3565049 36.5488316,39.0455051 C35.1992889,39.0489995 34.474172,40.5949133 34.4776682,42.0429844" id="Fill-25" fill="#7FB041"></path>
                        <path d="M28.7851155,39.8261496 C28.709597,39.7884103 28.7851155,39.8261496 28.709597,39.7898081 C28.7725291,39.7967968 34.9419668,40.6634031 35.2573262,47.7458128 C37.7424426,41.5125375 42.688901,40.9660164 43.653859,40.9170951 C38.0703885,42.5503684 35.9866387,49.734814 35.2013867,52.4401631 C34.4273226,55.1070741 33.8700244,57.0303809 32.5169855,58.5574251 C32.578519,58.4805487 32.6638269,58.3757173 32.7295559,58.3002387 C33.8672274,56.6900283 34.0084749,55.2782987 34.2888721,52.4618283 C32.4218882,57.328801 32.4218882,57.328801 32.5169855,58.5574251 C32.5120908,58.5217824 32.5043991,58.4742588 32.5002036,58.4372184 C32.1918366,54.4585171 34.3881648,50.732809 33.5735445,46.7044875 C32.9274422,43.5113229 31.3184797,41.0449894 28.7851155,39.8261496" id="Fill-26" fill="#7FB041"></path>
                        <path d="M20.8416934,45.0285828 C21.856997,46.5304674 23.7176877,47.4222332 24.0050773,45.6456903 C24.2987602,43.8516756 22.6925947,40.9555333 20.8934376,41.5621577 C19.7914276,42.1513102 20.0032988,43.7866801 20.8416934,45.0285828" id="Fill-27" fill="#26548D"></path>
                        <path d="M15.7616792,45.552041 C15.6889578,45.5485466 15.2805988,45.5946724 15.207178,45.5904791 C15.2512305,45.5723084 20.0417573,43.9313474 25.0679296,49.4028479 C22.7932859,43.1884422 27.7005866,40.3041808 28.709597,39.7898081 C27.6348576,40.6668975 25.2427408,43.2149995 26.1930146,47.9002644 C27.0754617,52.2521655 30.7723695,54.7702158 32.5169855,58.5574251 C32.4750308,58.4805487 32.4218882,58.377115 32.384129,58.3023353 C31.9911533,57.6593694 31.9911533,57.6593694 27.8977737,53.5003581 C29.2668952,55.7793928 30.257026,57.4273425 32.5169855,58.5574251 L32.3603546,58.4868386 C26.0510679,55.2692133 23.9120778,46.1768361 15.7616792,45.552041" id="Fill-28" fill="#26548D"></path>
                        <path d="M11.0173026,7.83370145 C11.0550618,7.80225203 11.0879263,7.77080261 11.1249863,7.73865431 C11.0879263,7.77080261 11.0515656,7.80155316 11.0173026,7.83370145 M11.1578508,7.70930152 L11.0928211,7.76591048 C11.1508584,7.71698916 11.2053995,7.66736896 11.2634368,7.61844764 C11.2319708,7.64640268 11.1900161,7.68204536 11.1578508,7.70930152" id="Fill-29" fill="#7FB041"></path>
                        <path d="M5.64220708,15.1453425 C5.08351041,15.7645467 4.75136908,16.0091533 4.73109098,15.8183601 C4.64368537,15.0041696 7.60358902,11.1980907 7.96090316,11.6649399 C8.01894049,11.7411174 7.94062506,11.934706 7.89237716,12.0528161 C7.39311631,13.1060222 5.99043104,14.7602618 5.64220708,15.1453425" id="Fill-30" fill="#7FB041"></path>
                        <path d="M7.0644712,17.5145323 C5.26391559,16.8079686 2.73125057,17.4705031 0.89223649,24.6514543 C1.69636812,21.7567098 1.84111182,21.2339505 2.99696363,18.5516643 C4.23882257,16.0916207 4.53530241,15.5066614 6.28900861,12.9620538 L6.4477372,12.7495955 C7.90636206,10.8116122 9.50064043,9.1182356 11.3235719,7.56952631 C6.71904422,11.4909197 4.28707047,16.0818364 3.37385663,17.8108557 C4.00807176,16.7953888 4.968135,15.2543672 7.09523798,17.5292087 C7.08754629,17.5264132 7.0721629,17.5201233 7.0644712,17.5145323" id="Fill-31" fill="#7FB041"></path>
                        <path d="M76.1547618,19.2477448 C76.1547618,21.4883414 76.9071493,23.3305786 78.4126236,24.7744565 C79.90691,26.2190333 81.6368418,26.9416711 83.5940283,26.9416711 C85.7190336,26.9416711 87.513296,26.2057546 88.9740186,24.7360183 C90.4333427,23.2481112 91.1654521,21.4359257 91.1654521,19.3001605 C91.1654521,17.1378381 90.4431321,15.3270503 89.0005899,13.8650016 C87.5657393,12.3945664 85.788958,11.6593489 83.673043,11.6593489 C81.5641204,11.6593489 79.7866398,12.3945664 78.3329097,13.8650016 C76.8798788,15.3186638 76.1547618,17.1119797 76.1547618,19.2477448 Z M73.0710918,19.2148977 C73.0710918,16.3585913 74.116463,13.9055364 76.206506,11.8564319 C78.2888573,9.80592962 80.7914548,8.78137736 83.7128999,8.78137736 C86.5986836,8.78137736 89.0747098,9.81501501 91.13958,11.8822903 C93.2121419,13.9502645 94.2491221,16.4340699 94.2491221,19.3337066 C94.2491221,22.2501163 93.2072472,24.7248363 91.1269936,26.7578667 C89.0348529,28.7985847 86.511278,29.8189437 83.5555698,29.8189437 C80.9403939,29.8189437 78.5909311,28.9118026 76.5085798,27.0996171 C74.2171542,25.0938428 73.0710918,22.4646712 73.0710918,19.2148977 Z" id="Fill-32" fill="#3B5767"></path>
                        <path d="M100.61295,18.3741498 L101.754817,18.3741498 C104.562984,18.3741498 105.967068,17.2922897 105.967068,15.1285695 C105.967068,13.0347369 104.519631,11.9878206 101.623359,11.9878206 L100.61295,11.9878206 L100.61295,18.3741498 Z M100.61295,21.2122854 L100.61295,29.450636 L97.5572497,29.450636 L97.5572497,9.16366255 L101.018512,9.16366255 C102.716279,9.16366255 103.998694,9.2817726 104.864359,9.51799269 C105.739114,9.75421279 106.507584,10.2007946 107.173266,10.857738 C108.33611,11.9962071 108.918581,13.4330962 108.918581,15.1677065 C108.918581,17.025319 108.296952,18.4964531 107.054394,19.5832053 C105.812535,20.6692587 104.137843,21.2122854 102.031019,21.2122854 L100.61295,21.2122854 Z" id="Fill-33" fill="#3B5767"></path>
                        <polyline id="Fill-34" fill="#3B5767" points="122.709089 12.0409352 114.587359 12.0409352 114.587359 16.9155955 122.471345 16.9155955 122.471345 19.7928681 114.587359 19.7928681 114.587359 26.5733634 122.709089 26.5733634 122.709089 29.450636 111.529561 29.450636 111.529561 9.16366255 122.709089 9.16366255 122.709089 12.0409352"></polyline>
                        <polyline id="Fill-35" fill="#3B5767" points="126.185035 29.450636 126.185035 7.78338238 140.95938 23.2620888 140.95938 9.16366255 144.017178 9.16366255 144.017178 30.6862489 129.242833 15.2466795 129.242833 29.450636 126.185035 29.450636"></polyline>
                        <polyline id="Fill-36" fill="#3B5767" points="167.267771 12.0409352 159.14744 12.0409352 159.14744 16.9155955 167.032125 16.9155955 167.032125 19.7928681 159.14744 19.7928681 159.14744 26.5733634 167.267771 26.5733634 167.267771 29.450636 156.090341 29.450636 156.090341 9.16366255 167.267771 9.16366255 167.267771 12.0409352"></polyline>
                        <path d="M173.802214,26.5733634 L175.181125,26.5733634 C176.553044,26.5733634 177.69491,26.4286961 178.605327,26.1393614 C179.515045,25.8325548 180.337357,25.346836 181.072263,24.6808071 C182.576339,23.3054191 183.329426,21.5141998 183.329426,19.3071493 C183.329426,17.081928 182.585429,15.2774301 181.098835,13.8929567 C179.759781,12.6580427 177.787211,12.0409352 175.181125,12.0409352 L173.802214,12.0409352 L173.802214,26.5733634 Z M170.746514,29.450636 L170.746514,9.16366255 L174.997923,9.16366255 C177.034124,9.16366255 178.644485,9.36423997 179.82551,9.76749144 C181.093241,10.1616575 182.243499,10.8311808 183.275584,11.7788567 C185.367725,13.6874871 186.412397,16.1971509 186.412397,19.3071493 C186.412397,22.4255341 185.322973,24.9477778 183.145524,26.8752779 C182.051206,27.8390279 180.907242,28.50925 179.708037,28.8852453 C178.587147,29.2626384 176.999162,29.450636 174.94478,29.450636 L170.746514,29.450636 Z" id="Fill-37" fill="#3B5767"></path>
                        <path d="M192.775525,9.16366255 L192.775525,21.3737257 C192.775525,23.1153248 193.060118,24.3893758 193.628604,25.1951799 C194.476788,26.3588085 195.670399,26.9416711 197.210136,26.9416711 C198.758964,26.9416711 199.95747,26.3588085 200.806353,25.1951799 C201.37344,24.4152342 201.658732,23.1418821 201.658732,21.3737257 L201.658732,9.16366255 L204.715831,9.16366255 L204.715831,22.223559 C204.715831,24.3614208 204.05015,26.1218895 202.720885,27.5063629 C201.224501,29.0473846 199.387585,29.8189437 197.210136,29.8189437 C195.032688,29.8189437 193.199268,29.0473846 191.713372,27.5063629 C190.384108,26.1218895 189.718426,24.3614208 189.718426,22.223559 L189.718426,9.16366255 L192.775525,9.16366255" id="Fill-38" fill="#3B5767"></path>
                        <path d="M224.0059,10.2469204 L224.0059,13.8670982 C222.238209,12.3861799 220.408984,11.6467691 218.519625,11.6467691 C216.437273,11.6467691 214.682169,12.3952653 213.257807,13.8929567 C211.824355,15.3822615 211.10623,17.2042313 211.10623,19.3588661 C211.10623,21.4883414 211.824355,23.2844528 213.257807,24.7472003 C214.692657,26.209249 216.450559,26.9416711 218.531512,26.9416711 C219.60765,26.9416711 220.522961,26.7655543 221.274649,26.4154174 C221.694896,26.2406984 222.129826,26.0037794 222.57944,25.7060582 C223.031852,25.4083371 223.505241,25.0491148 224.0059,24.6283914 L224.0059,28.3268434 C222.254991,29.321344 220.418074,29.8189437 218.493753,29.8189437 C215.598179,29.8189437 213.12495,28.8062723 211.080358,26.7830262 C209.04136,24.7423082 208.02256,22.2808668 208.02256,19.398702 C208.02256,16.8149574 208.87494,14.5107631 210.583195,12.487517 C212.679531,10.0079048 215.396098,8.76809871 218.730797,8.76809871 C220.548833,8.76809871 222.307434,9.26150519 224.0059,10.2469204" id="Fill-39" fill="#3B5767"></path>
                        <path d="M238.462089,21.6455885 L235.459531,14.747682 L232.310832,21.6455885 L238.462089,21.6455885 Z M239.710241,24.5228611 L231.036108,24.5228611 L228.781743,29.450636 L225.488299,29.450636 L235.511276,7.88821379 L245.182532,29.450636 L241.836645,29.450636 L239.710241,24.5228611 Z" id="Fill-40" fill="#3B5767"></path>
                        <polyline id="Fill-41" fill="#3B5767" points="251.639359 12.0409352 251.639359 29.450636 248.580163 29.450636 248.580163 12.0409352 243.923192 12.0409352 243.923192 9.16366255 256.283045 9.16366255 256.283045 12.0409352 251.639359 12.0409352"></polyline>
                        <polygon id="Fill-42" fill="#3B5767" points="258.474478 29.450636 261.530877 29.450636 261.530877 9.16366255 258.474478 9.16366255"></polygon>
                        <path d="M267.933164,19.2477448 C267.933164,21.4883414 268.687649,23.3305786 270.190326,24.7744565 C271.68741,26.2190333 273.414545,26.9416711 275.374528,26.9416711 C277.498834,26.9416711 279.292397,26.2057546 280.75242,24.7360183 C282.214542,23.2481112 282.945252,21.4359257 282.945252,19.3001605 C282.945252,17.1378381 282.222233,15.3270503 280.778293,13.8650016 C279.344141,12.3945664 277.568758,11.6593489 275.452843,11.6593489 C273.34462,11.6593489 271.565042,12.3945664 270.112011,13.8650016 C268.660378,15.3186638 267.933164,17.1119797 267.933164,19.2477448 Z M264.850892,19.2148977 C264.850892,16.3585913 265.896963,13.9055364 267.987705,11.8564319 C270.067259,9.80592962 272.571255,8.78137736 275.492001,8.78137736 C278.378484,8.78137736 280.853112,9.81501501 282.917982,11.8822903 C284.991243,13.9502645 286.027524,16.4340699 286.027524,19.3337066 C286.027524,22.2501163 284.986348,24.7248363 282.904696,26.7578667 C280.815353,28.7985847 278.290379,29.8189437 275.334671,29.8189437 C272.719495,29.8189437 270.369333,28.9118026 268.28838,27.0996171 C265.997654,25.0938428 264.850892,22.4646712 264.850892,19.2148977 Z" id="Fill-43" fill="#3B5767"></path>
                        <polyline id="Fill-44" fill="#3B5767" points="289.334952 29.450636 289.334952 7.78338238 304.108599 23.2620888 304.108599 9.16366255 307.164998 9.16366255 307.164998 30.6862489 292.392051 15.2466795 292.392051 29.450636 289.334952 29.450636"></polyline>
                        <path d="M85.8407022,36.2940301 L85.8407022,39.0783523 C84.4792723,37.9391843 83.0751886,37.3709981 81.6221577,37.3709981 C80.0201876,37.3709981 78.6713442,37.9461731 77.5749282,39.0986197 C76.4715198,40.2433786 75.921214,41.6453239 75.921214,43.302359 C75.921214,44.9398256 76.4715198,46.3201057 77.5749282,47.4466939 C78.6776374,48.5718843 80.0299771,49.1337806 81.6319471,49.1337806 C82.4591538,49.1337806 83.161895,48.9988976 83.741569,48.7291314 C84.0625224,48.5949472 84.3981599,48.4125406 84.7449854,48.1840081 C85.0904124,47.9554756 85.4554182,47.6794196 85.8407022,47.3551411 L85.8407022,50.2002655 C84.4939565,50.9648358 83.0814818,51.347121 81.6011803,51.347121 C79.3761831,51.347121 77.4728385,50.5678742 75.9016352,49.013574 C74.3318304,47.4425006 73.5479769,45.5506432 73.5479769,43.3331096 C73.5479769,41.3455061 74.2038686,39.5745542 75.515652,38.0167596 C77.1309077,36.1109246 79.2195522,35.1569588 81.7836833,35.1569588 C83.1828723,35.1569588 84.5345127,35.5364485 85.8407022,36.2940301" id="Fill-45" fill="#3B5767"></path>
                        <path d="M100.634626,43.2163973 C100.634626,44.9398256 101.212902,46.3571461 102.368055,47.4676602 C103.521109,48.5788731 104.848276,49.1337806 106.356547,49.1337806 C107.990683,49.1337806 109.370293,48.567691 110.49328,47.4383074 C111.616967,46.2935484 112.17846,44.8999896 112.17846,43.2576309 C112.17846,41.594306 111.623959,40.201446 110.514258,39.0769545 C109.41015,37.9461731 108.043126,37.3814813 106.417382,37.3814813 C104.793735,37.3814813 103.425313,37.9461731 102.309318,39.0769545 C101.191225,40.1944573 100.634626,41.5754363 100.634626,43.2163973 Z M98.2613893,43.1919366 C98.2613893,40.9953692 99.0676187,39.1084039 100.673784,37.5331374 C102.274356,35.9557741 104.198678,35.1667431 106.44675,35.1667431 C108.666853,35.1667431 110.569498,35.9627629 112.156085,37.5527059 C113.751062,39.1426489 114.550299,41.0526771 114.550299,43.2827905 C114.550299,45.5247848 113.748965,47.4299209 112.148393,48.9926077 C110.540829,50.5622832 108.601124,51.347121 106.325781,51.347121 C104.314752,51.347121 102.507904,50.6496427 100.908031,49.2539873 C99.1431371,47.7129657 98.2613893,45.6911173 98.2613893,43.1919366 Z" id="Fill-46" fill="#3B5767"></path>
                        <polyline id="Fill-47" fill="#3B5767" points="127.839448 51.0640762 127.839448 34.4000761 139.202877 46.3040316 139.202877 35.4609699 141.553739 35.4609699 141.553739 52.0145476 130.189611 40.1392461 130.189611 51.0640762 127.839448 51.0640762"></polyline>
                        <path d="M164.431633,37.7749485 L162.524093,38.9064288 C162.167478,38.2872246 161.826946,37.8825754 161.503895,37.6945777 C161.168957,37.4779261 160.733327,37.3709981 160.2026,37.3709981 C159.549505,37.3709981 159.008989,37.5562003 158.577555,37.9266046 C158.148219,38.290719 157.931453,38.7484828 157.931453,39.3012937 C157.931453,40.0644663 158.496443,40.6766818 159.627821,41.1428321 L161.181543,41.7788093 C162.445778,42.293182 163.370879,42.9172783 163.956846,43.6552914 C164.542813,44.3940034 164.835797,45.2990478 164.835797,46.3711237 C164.835797,47.806615 164.358213,48.9947043 163.401645,49.9311982 C162.438785,50.8746808 161.245873,51.347121 159.820812,51.347121 C158.466375,51.347121 157.351079,50.9445684 156.470031,50.1387644 C155.601569,49.3357558 155.059654,48.2035766 154.842189,46.7506134 L157.225915,46.2236608 C157.333598,47.1391884 157.520297,47.7716712 157.790904,48.1232059 C158.275481,48.7962235 158.981718,49.1337806 159.909616,49.1337806 C160.642425,49.1337806 161.252866,48.8884751 161.734646,48.3971653 C162.22132,47.9058554 162.46256,47.2810603 162.46256,46.5283708 C162.46256,46.2250586 162.421304,45.9483037 162.335297,45.6960094 C162.253485,45.4430163 162.121328,45.2102906 161.942321,44.9985311 C161.764713,44.7860728 161.535361,44.5868932 161.252866,44.4030888 C160.968273,44.2178866 160.632636,44.0403721 160.243156,43.871943 L158.73978,43.2464489 C156.606384,42.3448988 155.540734,41.0254209 155.540734,39.2866173 C155.540734,38.1166988 155.986853,37.1361758 156.882585,36.3499402 C157.778318,35.5539204 158.890817,35.1569588 160.223577,35.1569588 C162.019238,35.1569588 163.422623,36.0305539 164.431633,37.7749485" id="Fill-48" fill="#3B5767"></path>
                        <path d="M179.596857,43.2163973 C179.596857,44.9398256 180.177929,46.3571461 181.333781,47.4676602 C182.484738,48.5788731 183.812604,49.1337806 185.319477,49.1337806 C186.954311,49.1337806 188.334621,48.567691 189.458307,47.4383074 C190.579197,46.2935484 191.143488,44.8999896 191.143488,43.2576309 C191.143488,41.594306 190.587588,40.201446 189.477886,39.0769545 C188.373779,37.9461731 187.008153,37.3814813 185.38101,37.3814813 C183.758063,37.3814813 182.39034,37.9461731 181.272247,39.0769545 C180.154854,40.1944573 179.596857,41.5754363 179.596857,43.2163973 Z M177.226416,43.1919366 C177.226416,40.9953692 178.030548,39.1084039 179.637413,37.5331374 C181.237984,35.9557741 183.163705,35.1667431 185.411777,35.1667431 C187.632579,35.1667431 189.533826,35.9627629 191.12251,37.5527059 C192.71539,39.1426489 193.513928,41.0526771 193.513928,43.2827905 C193.513928,45.5247848 192.712593,47.4299209 191.112721,48.9926077 C189.505157,50.5622832 187.563354,51.347121 185.289409,51.347121 C183.276982,51.347121 181.471532,50.6496427 179.869562,49.2539873 C178.108164,47.7129657 177.226416,45.6911173 177.226416,43.1919366 Z" id="Fill-49" fill="#3B5767"></path>
                        <path d="M209.155337,42.625847 L209.90283,42.625847 C212.129925,42.625847 213.242423,41.7732182 213.242423,40.0686596 C213.242423,38.4717279 212.159992,37.6736114 209.993732,37.6736114 L209.155337,37.6736114 L209.155337,42.625847 Z M212.083075,44.4149697 L216.906467,51.0640762 L214.030472,51.0640762 L209.580478,44.6763493 L209.155337,44.6763493 L209.155337,51.0640762 L206.805175,51.0640762 L206.805175,35.4609699 L209.5595,35.4609699 C211.617378,35.4609699 213.104672,35.8474484 214.019984,36.6225019 C215.029693,37.4856138 215.534548,38.623384 215.534548,40.0386079 C215.534548,41.1428321 215.21779,42.0940023 214.585673,42.8886244 C213.952856,43.6846442 213.118657,44.1920282 212.083075,44.4149697 Z" id="Fill-50" fill="#3B5767"></path>
                        <polyline id="Fill-51" fill="#3B5767" points="233.698134 37.6736114 233.698134 51.0640762 231.347272 51.0640762 231.347272 37.6736114 227.764341 37.6736114 227.764341 35.4609699 237.270576 35.4609699 237.270576 37.6736114 233.698134 37.6736114"></polyline>
                        <polygon id="Fill-52" fill="#3B5767" points="249.702451 51.0640762 252.053312 51.0640762 252.053312 35.4609699 249.702451 35.4609699"></polygon>
                        <path d="M268.48277,35.4609699 L268.48277,44.852466 C268.48277,46.1915125 268.700935,47.1727345 269.137963,47.7912398 C269.791057,48.6865 270.709166,49.1337806 271.892988,49.1337806 C273.083802,49.1337806 274.005406,48.6865 274.657103,47.7912398 C275.095529,47.1916041 275.313694,46.2131777 275.313694,44.852466 L275.313694,35.4609699 L277.664555,35.4609699 L277.664555,45.506614 C277.664555,47.1496716 277.153407,48.5040933 276.13181,49.5691804 C274.981552,50.7544741 273.569078,51.347121 271.892988,51.347121 C270.216898,51.347121 268.807919,50.7544741 267.665353,49.5691804 C266.643756,48.5040933 266.132608,47.1496716 266.132608,45.506614 L266.132608,35.4609699 L268.48277,35.4609699" id="Fill-53" fill="#3B5767"></path>
                        <polyline id="Fill-54" fill="#3B5767" points="291.187951 51.0640762 294.468808 34.2875571 299.815934 46.4158517 305.356051 34.2875571 308.303369 51.0640762 305.889575 51.0640762 304.386199 41.6453239 299.775378 51.7825208 295.294617 41.6348408 293.619226 51.0640762 291.187951 51.0640762"></polyline>
                        <text id="The-Global-Network-f" font-family="Futura-Medium, Futura" font-size="11.664" font-weight="400" letter-spacing="2.58794997" fill="#3B5767">
                            <tspan x="0" y="81.6220138">The Global Network for Open Educatio</tspan>
                            <tspan x="303.015683" y="81.6220138">n</tspan>
                        </text>
                    </g>
                </g>
            </g>
        </g>
    </g>
</svg>