<svg xmlns="http://www.w3.org/2000/svg" viewBox="0 0 990.7 647.8"><defs><style>.cls-1{fill:#666565;}.cls-2{fill:#4d7fa3;}.cls-3{fill:none;}.cls-4{fill:#5dbdc5;}.cls-5{fill:#e07e8d;}.cls-6{fill:#efc976;}.cls-7{fill:#c3777c;}.cls-8{fill:#cdb972;}</style></defs><title>chineseoec</title><g id="Layer_2" data-name="Layer 2"><g id="圖層_1" data-name="圖層 1"><path class="cls-1" d="M29.93,594a18.18,18.18,0,0,1,10.45,2.83Q47,601.37,47,607.37H44.38q0-4.73-5.22-8.15a16.58,16.58,0,0,0-9.23-2.56,16.33,16.33,0,0,0-12.14,5.23q-4.87,5.11-4.87,13.32,0,9,4.51,13.58a16.85,16.85,0,0,0,12.5,5q6.81,0,10.87-4.15a12.27,12.27,0,0,0,3.58-9H47q0,6.66-4,10.71-4.92,5.12-13.12,5.12-8.71,0-13.68-5-6-5.88-6-16.24,0-9.69,6.21-15.88A18.44,18.44,0,0,1,29.93,594Z"/><path class="cls-1" d="M56.25,594.35v16.56a12.7,12.7,0,0,1,3.43-3.7,13.85,13.85,0,0,1,13.12-.66,10.19,10.19,0,0,1,3.64,3.28q1.64,2.46,1.64,7.53v18.7H75.41v-18.7q0-4.77-2.2-7-2.42-2.4-7.33-2.4a9.74,9.74,0,0,0-5.12,1.33,9.07,9.07,0,0,0-3.43,3.84,14.2,14.2,0,0,0-1.08,4.71v18.19H53.59V594.35Z"/><path class="cls-1" d="M89.74,594.35V598h-3v-3.69Zm-.16,11.33v30.38H86.92V605.68Z"/><path class="cls-1" d="M98.64,605.68h2.66v5.23a12.7,12.7,0,0,1,3.43-3.7,13.85,13.85,0,0,1,13.12-.66,10.11,10.11,0,0,1,3.64,3.28q1.64,2.46,1.64,7.53v18.7h-2.67v-18.7q0-4.77-2.2-7-2.42-2.4-7.33-2.4a9.74,9.74,0,0,0-5.12,1.33,9.07,9.07,0,0,0-3.43,3.84,14.2,14.2,0,0,0-1.08,4.71v18.19H98.64V605.68Z"/><path class="cls-1" d="M135,630.27a10.53,10.53,0,0,0,8.41,3.49,11.36,11.36,0,0,0,6.61-2.15,5.42,5.42,0,0,0,2.56-4.62h2.67a8.38,8.38,0,0,1-3.49,6.77,13,13,0,0,1-8.35,2.66q-7.07,0-11-4.71a15.54,15.54,0,0,1-3.28-10.25q0-8,4-12.3a12.81,12.81,0,0,1,9.64-3.89,11.88,11.88,0,0,1,9.32,3.84,14.28,14.28,0,0,1,3.43,9.79v2.66H131.82A13,13,0,0,0,135,630.27Zm17.94-11.37a11.46,11.46,0,0,0-2.51-7.48,9.42,9.42,0,0,0-7.58-3.49,10.37,10.37,0,0,0-8,3.34,12.65,12.65,0,0,0-3,7.63Z"/><path class="cls-1" d="M173.1,605.27a13.85,13.85,0,0,1,5.53,1.08,9.67,9.67,0,0,1,3.8,3,8.69,8.69,0,0,1,1.43,5.23h-2.67a6,6,0,0,0-2.4-5,9.32,9.32,0,0,0-5.69-1.79,11.28,11.28,0,0,0-6.56,1.74,4.73,4.73,0,0,0-2.41,4c0,1.51,1.25,2.68,3.64,3.54l10.15,3.48a14.49,14.49,0,0,1,5.74,3.23,6.16,6.16,0,0,1,1.58,4.45,6.3,6.3,0,0,1-1.53,4.31,10.8,10.8,0,0,1-4.05,2.81,15.41,15.41,0,0,1-6.56,1.13,16.84,16.84,0,0,1-7.18-1.28,10.2,10.2,0,0,1-3.84-3.12,10.81,10.81,0,0,1-1.69-6.46h2.66c0,3.11,1,5.22,2.93,6.35a13.92,13.92,0,0,0,7.12,1.7q4.77,0,7.27-2.06a4.85,4.85,0,0,0,2.21-3.74c0-1.53-1.5-2.86-4.41-4q-5.53-2.16-9.74-3.44a12.12,12.12,0,0,1-5.27-2.71,5.68,5.68,0,0,1-1.69-4.36,6.6,6.6,0,0,1,1.58-4.46,9.54,9.54,0,0,1,3.8-2.61A17.35,17.35,0,0,1,173.1,605.27Z"/><path class="cls-1" d="M195.62,630.27a10.53,10.53,0,0,0,8.41,3.49,11.36,11.36,0,0,0,6.61-2.15A5.42,5.42,0,0,0,213.2,627h2.67a8.38,8.38,0,0,1-3.49,6.77,13,13,0,0,1-8.35,2.66q-7.07,0-11-4.71a15.54,15.54,0,0,1-3.28-10.25q0-8,4.05-12.3a12.81,12.81,0,0,1,9.64-3.89,11.88,11.88,0,0,1,9.32,3.84,14.29,14.29,0,0,1,3.44,9.79v2.66H192.45A13,13,0,0,0,195.62,630.27Zm17.94-11.37a11.46,11.46,0,0,0-2.51-7.48,9.42,9.42,0,0,0-7.58-3.49,10.37,10.37,0,0,0-7.95,3.34,12.65,12.65,0,0,0-3,7.63Z"/><path class="cls-1" d="M248,597.07A20.88,20.88,0,0,1,259.43,594a21.19,21.19,0,0,1,10.24,2.36,17.76,17.76,0,0,1,6.77,6.61,24.69,24.69,0,0,1,3.18,12.61,24.08,24.08,0,0,1-2.36,11.22,16.77,16.77,0,0,1-6.66,7,25,25,0,0,1-22.45-.11,17.39,17.39,0,0,1-6.45-6.81,24,24,0,0,1-2.46-11.32,25.49,25.49,0,0,1,2.46-11.69A17.4,17.4,0,0,1,248,597.07Zm-3.74,7.79a22.07,22.07,0,0,0-2.31,10.71,21.17,21.17,0,0,0,2.31,10,14.37,14.37,0,0,0,5.84,5.88,18.51,18.51,0,0,0,9.38,2.26,19,19,0,0,0,9.73-2.36,14,14,0,0,0,5.53-5.69A20.88,20.88,0,0,0,277,615.57a23.14,23.14,0,0,0-2.15-9.84,15.79,15.79,0,0,0-6.3-6.92,17.62,17.62,0,0,0-9.07-2.15A18.24,18.24,0,0,0,250,599,15,15,0,0,0,244.21,604.86Z"/><path class="cls-1" d="M288.92,605.68v5.74a14,14,0,0,1,2.67-3.34c1.94-1.87,4.82-2.81,8.61-2.81a10.73,10.73,0,0,1,8.5,3.94q3.54,4.15,3.54,11.07-.06,8.46-3.95,12.35a11.86,11.86,0,0,1-8.81,3.79,12.2,12.2,0,0,1-9-3.64,10.86,10.86,0,0,1-1.59-2V647.8h-2.66V605.68Zm3.49,4.82c-2.19,2.45-3.28,6-3.28,10.5q0,6.4,3,9.94a8.42,8.42,0,0,0,6.77,2.82,10.18,10.18,0,0,0,7.58-3.23q3.08-3.12,3.07-10.25a14.12,14.12,0,0,0-3.23-9.33c-1.67-2-4.19-3-7.58-3A8.44,8.44,0,0,0,292.41,610.5Z"/><path class="cls-1" d="M322,630.27a10.53,10.53,0,0,0,8.41,3.49,11.36,11.36,0,0,0,6.61-2.15,5.42,5.42,0,0,0,2.56-4.62h2.66a8.34,8.34,0,0,1-3.48,6.77,13,13,0,0,1-8.35,2.66q-7.07,0-11-4.71a15.54,15.54,0,0,1-3.28-10.25q0-8,4.05-12.3a12.79,12.79,0,0,1,9.64-3.89,11.88,11.88,0,0,1,9.32,3.84,14.28,14.28,0,0,1,3.43,9.79v2.66H318.78A13,13,0,0,0,322,630.27Zm17.94-11.37a11.46,11.46,0,0,0-2.51-7.48,9.42,9.42,0,0,0-7.58-3.49,10.37,10.37,0,0,0-7.95,3.34,12.65,12.65,0,0,0-3,7.63Z"/><path class="cls-1" d="M348.88,605.68h2.66v5.23a12.72,12.72,0,0,1,3.44-3.7,13.85,13.85,0,0,1,13.12-.66,10.16,10.16,0,0,1,3.63,3.28c1.1,1.64,1.64,4.15,1.64,7.53v18.7h-2.66v-18.7c0-3.18-.73-5.5-2.21-7s-4-2.4-7.32-2.4a9.76,9.76,0,0,0-5.13,1.33,9.07,9.07,0,0,0-3.43,3.84,14.2,14.2,0,0,0-1.08,4.71v18.19h-2.66V605.68Z"/><path class="cls-1" d="M429,594.35V597H401.67v16.5h25.57v2.66H401.67V633.4h27.72v2.66H399V594.35Z"/><path class="cls-1" d="M439,609.72a11,11,0,0,1,9.08-4.45q6.39,0,9.22,4a14.52,14.52,0,0,1,1.59,2.71V594.35h2.66v41.71h-2.66v-6.35a25.31,25.31,0,0,1-1.64,2.77c-1.92,2.63-5,3.94-9.33,3.94a11,11,0,0,1-8.2-3.58q-4.05-4.3-4.05-11.74Q435.68,613.93,439,609.72Zm2.21,1.55q-2.88,3.63-2.87,9.83t3.23,9.64a9.73,9.73,0,0,0,7.47,3,8.27,8.27,0,0,0,6.77-3.18q2.67-3.48,2.67-9.69t-2.57-9.62a8.4,8.4,0,0,0-7.07-3.34A9.6,9.6,0,0,0,441.16,611.27Z"/><path class="cls-1" d="M490.79,636.06v-4.87a13.09,13.09,0,0,1-3.79,3.44,14.93,14.93,0,0,1-7.79,1.79c-3.42,0-5.95-.83-7.59-2.51q-2.65-2.77-2.66-8.29V605.68h2.66v19.94a8.12,8.12,0,0,0,2.06,6q2,2.14,6.5,2.15a10.83,10.83,0,0,0,7-2.41,10.09,10.09,0,0,0,3.59-8V605.68h2.66v30.38Z"/><path class="cls-1" d="M501.17,612.75a12.16,12.16,0,0,1,4.92-5.54,14.4,14.4,0,0,1,7.27-1.94,14,14,0,0,1,6.56,1.49,12.46,12.46,0,0,1,4.51,4.09,9.54,9.54,0,0,1,1.54,5.44H523.3a7.9,7.9,0,0,0-3.12-6.15,10,10,0,0,0-6.82-2.21,11.79,11.79,0,0,0-5.84,1.49,8.62,8.62,0,0,0-3.84,4.2,19.48,19.48,0,0,0-1.49,7.89,16.07,16.07,0,0,0,1.18,6,10.23,10.23,0,0,0,10,6.25,13,13,0,0,0,6.91-2q3-1.84,3-6.61H526c0,2.91-.58,5.09-1.64,6.56a10.79,10.79,0,0,1-4.25,3.49,16.42,16.42,0,0,1-6.66,1.17,14.33,14.33,0,0,1-7.64-1.89,11.76,11.76,0,0,1-4.41-4.71,17.57,17.57,0,0,1-1.84-8.31A21.76,21.76,0,0,1,501.17,612.75Z"/><path class="cls-1" d="M555.88,632c.37.95,1.35,1.43,2.92,1.43v2.66H556c-1.47,0-2.37-.88-2.72-2.56a7.85,7.85,0,0,1-.35-2,14.36,14.36,0,0,1-1.64,2q-3,2.93-11.07,2.92a9.4,9.4,0,0,1-6.71-2.41,8.49,8.49,0,0,1-2.41-6.3,7.88,7.88,0,0,1,1.9-5.33c1.39-1.64,3.6-2.81,6.6-3.53a98.85,98.85,0,0,1,13.07-2.11v-1.22c0-2.6-.73-4.48-2.1-5.64s-3.84-2-7-2-5.43.64-7.07,1.9-2.31,3.18-2.31,5.84h-2.66a9.75,9.75,0,0,1,3.43-8q3-2.41,8.61-2.41c4.06,0,7,.79,8.86,2.36s2.93,4.27,2.93,7.89v11A19.59,19.59,0,0,0,555.88,632Zm-3.18-12.56q-11.58,1.55-15.11,3.12c-2.54,1.17-3.8,2.89-3.8,5.18a5.63,5.63,0,0,0,1.49,4q2,2,6.5,2c4.11,0,7-.84,8.66-2.51a8.34,8.34,0,0,0,2.26-4.57v-7.27Z"/><path class="cls-1" d="M570,628.63c0,2.15.41,3.61,1.23,4.36q1.49,1.38,8.25.41v2.66a40.7,40.7,0,0,1-4.41.36q-4.31,0-6-1.74t-1.75-6V609.78h-6.19v-2.67h6.19v-9H570v9h9.33v2.67H570Z"/><path class="cls-1" d="M588.78,594.35V598h-3v-3.69Zm-.15,11.33v30.38H586V605.68Z"/><path class="cls-1" d="M598,611.93a14,14,0,0,1,4.92-5,13.61,13.61,0,0,1,7.23-1.64,14.12,14.12,0,0,1,6.87,1.64,11.81,11.81,0,0,1,4.66,4.61,22,22,0,0,1,.71,17.32,11.65,11.65,0,0,1-4.35,5.33,14.68,14.68,0,0,1-8.15,2.25,13.78,13.78,0,0,1-7.43-2,11.63,11.63,0,0,1-4.61-5.07,19.8,19.8,0,0,1-1.74-8.86A17.57,17.57,0,0,1,598,611.93Zm.77,8.56a15.38,15.38,0,0,0,1.54,7.42,11.23,11.23,0,0,0,3.79,4.26,10.62,10.62,0,0,0,5.79,1.59,11.28,11.28,0,0,0,6.56-1.74,9.37,9.37,0,0,0,3.54-4.26,17.91,17.91,0,0,0,1.18-7c0-3.25-.53-5.71-1.49-7.38a10.5,10.5,0,0,0-3.59-3.85,12.41,12.41,0,0,0-11.88-.25,10.16,10.16,0,0,0-3.74,3.79A14,14,0,0,0,598.8,620.49Z"/><path class="cls-1" d="M629.73,605.68h2.66v5.23a12.86,12.86,0,0,1,3.44-3.7,13.85,13.85,0,0,1,13.12-.66,10.16,10.16,0,0,1,3.63,3.28c1.1,1.64,1.64,4.15,1.64,7.53v18.7h-2.66v-18.7q0-4.77-2.2-7Q646.94,608,642,608a9.76,9.76,0,0,0-5.13,1.33,9.07,9.07,0,0,0-3.43,3.84,14.2,14.2,0,0,0-1.08,4.71v18.19h-2.66V605.68Z"/><path class="cls-1" d="M698.15,594a18.18,18.18,0,0,1,10.45,2.83q6.66,4.54,6.66,10.55H712.6q0-4.73-5.23-8.15a16.52,16.52,0,0,0-9.22-2.56A16.33,16.33,0,0,0,686,601.89q-4.87,5.11-4.87,13.32,0,9,4.51,13.58a16.83,16.83,0,0,0,12.5,5q6.81,0,10.86-4.15a12.24,12.24,0,0,0,3.59-9h2.66q0,6.66-4,10.71-4.92,5.12-13.12,5.12-8.71,0-13.69-5-6-5.88-6-16.24,0-9.69,6.2-15.88A18.46,18.46,0,0,1,698.15,594Z"/><path class="cls-1" d="M722.16,611.93a13.79,13.79,0,0,1,4.92-5,13.57,13.57,0,0,1,7.22-1.64,14.12,14.12,0,0,1,6.87,1.64,11.81,11.81,0,0,1,4.66,4.61,22,22,0,0,1,.72,17.32,11.65,11.65,0,0,1-4.35,5.33,14.73,14.73,0,0,1-8.15,2.25,13.76,13.76,0,0,1-7.43-2,11.52,11.52,0,0,1-4.61-5.07,19.66,19.66,0,0,1-1.75-8.86A17.46,17.46,0,0,1,722.16,611.93Zm.77,8.56a15.38,15.38,0,0,0,1.54,7.42,11.14,11.14,0,0,0,3.79,4.26,10.57,10.57,0,0,0,5.79,1.59,11.3,11.3,0,0,0,6.56-1.74,9.28,9.28,0,0,0,3.53-4.26,17.73,17.73,0,0,0,1.18-7c0-3.25-.53-5.71-1.48-7.38a10.59,10.59,0,0,0-3.59-3.85,12.43,12.43,0,0,0-11.89-.25,10.23,10.23,0,0,0-3.74,3.79A14,14,0,0,0,722.93,620.49Z"/><path class="cls-1" d="M753.86,605.68h2.66v5.23a12.7,12.7,0,0,1,3.43-3.7,13.85,13.85,0,0,1,13.12-.66,10.11,10.11,0,0,1,3.64,3.28q1.63,2.46,1.64,7.53v18.7h-2.67v-18.7q0-4.77-2.2-7c-1.6-1.6-4.05-2.4-7.33-2.4a9.74,9.74,0,0,0-5.12,1.33,9.07,9.07,0,0,0-3.43,3.84,14.2,14.2,0,0,0-1.08,4.71v18.19h-2.66V605.68Z"/><path class="cls-1" d="M797.09,605.27a13.85,13.85,0,0,1,5.53,1.08,9.67,9.67,0,0,1,3.8,3,8.69,8.69,0,0,1,1.43,5.23h-2.67a6,6,0,0,0-2.4-5,9.32,9.32,0,0,0-5.69-1.79,11.28,11.28,0,0,0-6.56,1.74,4.73,4.73,0,0,0-2.41,4c0,1.51,1.25,2.68,3.64,3.54l10.15,3.48a14.37,14.37,0,0,1,5.73,3.23,6.12,6.12,0,0,1,1.59,4.45,6.3,6.3,0,0,1-1.53,4.31,10.88,10.88,0,0,1-4.05,2.81,15.41,15.41,0,0,1-6.56,1.13,16.84,16.84,0,0,1-7.18-1.28,10.2,10.2,0,0,1-3.84-3.12,10.81,10.81,0,0,1-1.69-6.46H787c0,3.11,1,5.22,2.93,6.35a13.92,13.92,0,0,0,7.12,1.7q4.77,0,7.27-2.06a4.85,4.85,0,0,0,2.21-3.74c0-1.53-1.5-2.86-4.41-4q-5.53-2.16-9.74-3.44-3.84-1.17-5.27-2.71a5.68,5.68,0,0,1-1.69-4.36,6.6,6.6,0,0,1,1.58-4.46,9.47,9.47,0,0,1,3.8-2.61A17.35,17.35,0,0,1,797.09,605.27Z"/><path class="cls-1" d="M815.66,611.93a14,14,0,0,1,4.92-5,13.59,13.59,0,0,1,7.22-1.64,14.07,14.07,0,0,1,6.87,1.64,11.81,11.81,0,0,1,4.66,4.61,22,22,0,0,1,.72,17.32,11.65,11.65,0,0,1-4.35,5.33,14.68,14.68,0,0,1-8.15,2.25,13.78,13.78,0,0,1-7.43-2,11.63,11.63,0,0,1-4.61-5.07,19.8,19.8,0,0,1-1.74-8.86A17.57,17.57,0,0,1,815.66,611.93Zm.77,8.56a15.38,15.38,0,0,0,1.54,7.42,11.14,11.14,0,0,0,3.79,4.26,10.57,10.57,0,0,0,5.79,1.59,11.28,11.28,0,0,0,6.56-1.74,9.37,9.37,0,0,0,3.54-4.26,17.93,17.93,0,0,0,1.17-7q0-4.87-1.48-7.38a10.59,10.59,0,0,0-3.59-3.85,12.43,12.43,0,0,0-11.89-.25,10.21,10.21,0,0,0-3.73,3.79A13.9,13.9,0,0,0,816.43,620.49Z"/><path class="cls-1" d="M847.41,605.68h2.67v7.07l1.28-1.9q3.84-5.58,9.69-5.58,5,0,7,2.72l-1.85,2q-1.8-2.15-5.53-2.15-4.05,0-7.33,3.95a12.31,12.31,0,0,0-3.28,6.3v18h-2.67V605.68Z"/><path class="cls-1" d="M877.83,628.63c0,2.15.41,3.61,1.23,4.36q1.49,1.38,8.25.41v2.66a40.7,40.7,0,0,1-4.41.36q-4.3,0-6-1.74t-1.75-6V609.78H869v-2.67h6.19v-9h2.67v9h9.32v2.67h-9.32Z"/><path class="cls-1" d="M896.67,594.35V598h-3v-3.69Zm-.16,11.33v30.38h-2.66V605.68Z"/><path class="cls-1" d="M927.39,636.06v-4.87a13,13,0,0,1-3.79,3.44,14.9,14.9,0,0,1-7.79,1.79c-3.42,0-5.94-.83-7.59-2.51q-2.65-2.77-2.66-8.29V605.68h2.66v19.94a8.12,8.12,0,0,0,2.06,6q2,2.14,6.5,2.15a10.86,10.86,0,0,0,7-2.41,10.11,10.11,0,0,0,3.58-8V605.68h2.67v30.38Z"/><path class="cls-1" d="M956.27,617.36c0-3.18-.64-5.5-1.9-7a7.58,7.58,0,0,0-6.1-2.4,7.23,7.23,0,0,0-4.3,1.33,8.72,8.72,0,0,0-2.92,3.84,17.57,17.57,0,0,0-.92,4.66v18.24h-2.67V605.68h2.67V611a10.76,10.76,0,0,1,3-3.84,9.89,9.89,0,0,1,6.2-1.9,10.29,10.29,0,0,1,5,1.34,8.56,8.56,0,0,1,3.18,3.28c.24.51.48,1.09.71,1.74a12.9,12.9,0,0,1,3.39-4.36,10.89,10.89,0,0,1,11.53-.66,8.7,8.7,0,0,1,3.18,3.28q1.43,2.46,1.43,7.53v18.7h-2.66v-18.7q0-4.77-1.85-7a7.73,7.73,0,0,0-6.15-2.4,7.23,7.23,0,0,0-4.3,1.33,8.67,8.67,0,0,0-2.93,3.84,18,18,0,0,0-.92,4.66v18.24h-2.66v-18.7Z"/><path class="cls-1" d="M100.8,531.91a11.28,11.28,0,0,1-9.2,4.44H57.54V573H45.8V536.35H10.35a9.51,9.51,0,0,1-7.7-4.28A15.53,15.53,0,0,1,0,523.68V478.93a13.41,13.41,0,0,1,3.92-10.07,12.32,12.32,0,0,1,8.45-3.35H45.8V439.08H57.54v26.43H92a11,11,0,0,1,9,4.73A17.33,17.33,0,0,1,103.7,480v42.11A16,16,0,0,1,100.8,531.91Zm-55-55.41H15.66c-1.9,0-3.68,2-3.68,4.42v40.15c0,2.44,1.15,4.11,3.27,4.11H45.8Zm45.91,4.28c0-2.29-1.49-4.28-3.27-4.28H57.54v48.68H88.69c1.53,0,3-1.5,3-3.8Z"/><path class="cls-1" d="M204,460.35V469H192.56v-8.66h-29.4V469H151.69v-8.66H123v-10h28.65V439.08h11.47V450.4h29.4V439.08H204V450.4h29v10Zm9,49.29V524h15.9v9.61H184.1v11.9h40.62v10.09H184.1v17.7h-12v-17.7H131.87V545.49h40.24v-11.9H127.82V524h15.4V509.64H123V499.56h20.18v-16H127.7V473.29H228.76v10.23H213v16h20.19v10.08Zm-40.88-26.12H154.45v16h17.66Zm0,26.12H154.45V524h17.66Zm29.4-26.12H184.1v16h17.41Zm0,26.12H184.1V524h17.41Z"/><path class="cls-1" d="M295.91,487.2a10.59,10.59,0,0,1-7.83,4.28H262.35v80.74h-11V455.13c0-4.29,1-7.78,3-10.23a10.66,10.66,0,0,1,8.72-4h24.71a9.73,9.73,0,0,1,7.7,4,14,14,0,0,1,3,8.86v25.63A13.55,13.55,0,0,1,295.91,487.2ZM287.32,455a3.08,3.08,0,0,0-3-3.2H265.24a3,3,0,0,0-2.89,3.06v6.1h25Zm0,16.35h-25v9.6H284c2,0,3.29-1.07,3.29-3.5Zm37.24,63.2v33H313.32v-33H294.77a73.62,73.62,0,0,1-14.64,33H266c10.85-13,14.76-21.39,17.41-33h-14.9V524.13H284.3a155.39,155.39,0,0,0,.39-16.95H272.32V497.12h63.59v10.06H324.56v16.95H340.2v10.39Zm-11.24-27.34H296.16c0,4.42-.12,11.89-.38,16.95h17.54Zm41.13,60.76a11.73,11.73,0,0,1-8.45,4.28H330.23L327,561.69h16.14c1.89,0,3.15-1.39,3.15-3.82V491.48H319.75c-2.27,0-4.54-1.38-6.32-3.53a14.86,14.86,0,0,1-3.13-8.85V452.69a12,12,0,0,1,3-8.54,10.17,10.17,0,0,1,7.44-3.21H348c2.27,0,4.8,1.51,6.69,4.11a14.13,14.13,0,0,1,2.52,8.4v106.7A12.32,12.32,0,0,1,354.45,567.94Zm-8.21-113a3,3,0,0,0-2.76-3.2H324.05c-1.77,0-2.79,1.07-2.79,3.06v6.1h25Zm0,16.35h-25V477c0,2.13,1.38,3.95,2.9,3.95h22.08Z"/><path class="cls-1" d="M399,469.8c0,5.17-.28,16.16-.52,20.3h11c3.78,0,6.69.76,8.72,2.58,2.9,2.29,4.15,6.41,4.15,11.9v54.34a13.65,13.65,0,0,1-3.79,9.92,11.48,11.48,0,0,1-8.2,3.53H399l-3.92-10.55h13.24c1.9,0,3.16-1.67,3.16-3.64V503.82a3.44,3.44,0,0,0-3.28-3.51h-10c-.63,25.51-3.9,50.08-11.47,72.06H374.91c9.83-27.79,13-59.09,12.87-102.57H375.92V459.25h22.82A203.8,203.8,0,0,1,393,439.08h11.37a91.92,91.92,0,0,0,6.42,20.17h17.41V469.8Zm71.66,102.57a233.26,233.26,0,0,1-15-25,183.55,183.55,0,0,1-17.4,25H421.84c10.1-10.84,21-24.11,28.13-37.85a206.32,206.32,0,0,1-11.21-38.78,74.07,74.07,0,0,1-3.17,6.71h-12.1c10-19.4,15.64-41.23,20.06-63.37h11c-1.51,8.27-4.29,20.17-5.55,25.21h36.59V474.8h-7.32c-2.16,20.94-7.33,42-16,60.32a157,157,0,0,0,23.6,37.25ZM446.21,474.8c-1.27,3.81-3.42,10.54-4.44,13.3h6.7a217.16,217.16,0,0,0,7.94,32.67,169.55,169.55,0,0,0,10.72-46Z"/><path class="cls-1" d="M597.62,572.51c-4.29-5.94-11.61-17.08-14.9-23.78C579.2,555,570.87,566,565.57,572.51H549a166.59,166.59,0,0,0,28-36.46c-3.67-10.23-7.59-27.19-9.09-37.55a15.17,15.17,0,0,1-1.52,3.47H554.21a94,94,0,0,0,5-12.51H541.61c-1.4,2.45-3.92,6.43-5.7,8.86H548c2.65,0,4.41,1.85,5.17,4.13a8.62,8.62,0,0,1-1.38,8.09,166.88,166.88,0,0,1-12.62,14.19v4.43c5-.28,15.53-2,20.95-2.9v10.4c-5.31.75-16.53,2.28-20.95,2.75V560.3a12.83,12.83,0,0,1-2.9,8.54,11.55,11.55,0,0,1-8.45,3.67H517.51l-4-10.37h12.23c1.52,0,2.53-1.22,2.53-3V540.93c-6.18.6-19.17,1.83-26,2.28V532.52c6.93-.14,19.81-1.23,26-2v-9.79a124.85,124.85,0,0,0,10.47-12.06h-9.94c-3.06,4.28-8.74,10.83-12.63,15.12H500.21a195.48,195.48,0,0,0,28.54-34.37h-26.9V479.25h20.31V463.51H504.39V453.45h17.77V439.08h10.62v14.37h8.32v10.06h-8.32v15.74h1.88c5.69-9.63,12-25,15.64-36.93h11.86a264.09,264.09,0,0,1-14.9,36.93H560v8.25c4.94-13.59,8.84-33.92,10.86-48.42H582.1a246,246,0,0,1-4.29,24.6h33.43v10.68h-6c-2.4,18.32-6.57,41.84-15.77,61.37,4.42,12,14.39,24.89,23.85,36.78Zm-22.07-98.15c-.91,3.66-2.8,10.09-3.93,13.74h6.55a186.31,186.31,0,0,0,5.94,32c4.17-11.14,8.35-32.95,9.59-45.79Z"/><path class="cls-1" d="M672,459.41l-20.83,16.94h55.26c-2.39-3.2-6.67-8.87-9.2-12.84h15.27a98.15,98.15,0,0,0,23.84,23.06h-20c-2.54-2.58-6.58-6.72-8.59-9l-3.16,9H638.39a5.82,5.82,0,0,1-5.68-4.57,7.5,7.5,0,0,1,2.4-7.95L653,459.41h-24.6v-10.1h49.31c-.88-2.44-2.51-7.17-3.53-10.36h13.5a72.86,72.86,0,0,0,4.17,10.36h45.92v10.1Zm57.26,109.32c-2.13,2.57-5.4,3.78-10.21,3.78H702l-4.4-10.69h19.66c1.51,0,3.28-1.67,3.28-4.12v-9.92H645.59v24.73H634.23V509.64c0-4.6.74-8.1,2.78-10.39,1.74-2.13,4.39-3.21,8.33-3.21H719.9c4.54,0,7.56,1.23,9.57,3.8,1.78,2.47,2.68,6.27,2.68,11.48V558C732.15,562.6,731.25,566.25,729.22,568.73Zm-8.7-58.05c0-2.73-1.25-4.72-3.52-4.72H648.72c-1.86,0-3.13,1.67-3.13,4.13v6.42h74.93Zm0,15.43H645.59V538h74.93Z"/><path class="cls-1" d="M792.21,452.22v80.92c1-.31,3.15-.76,4.53-1.23v10.24c-.87.3-3,1.06-4.53,1.52v28.84H780.86V546.57c-7.83,1.69-17.55,3.65-26.36,5.18V541.07a29.53,29.53,0,0,0,4.8-.78V452.22h-5.06V441.84H797.9v10.38Zm-11.35,0H769.75v20h11.11Zm0,30.21H769.75v21.25h11.11Zm0,31.78H769.75V538a60.45,60.45,0,0,0,11.11-2.27Zm39.23-9.93c-.61-2-1.5-5.78-1.88-7.64l-3.67,7.64H803.19a7.06,7.06,0,0,1-6.18-3.65c-1.39-2.45-1.65-5.66.38-9.15l9.7-17.12h-4.78A6.5,6.5,0,0,1,796.5,470a9.41,9.41,0,0,1,.75-8.1L810,439.25h12.26l-13.76,24.43h4.67l4.15-7h12.38L808.6,493.74h9c-.26-3.05-.88-9-1.14-12.36h9.32a147.88,147.88,0,0,0,4.07,22.9Zm-6.67,68.23H797.5c9.84-8.7,15.3-18.44,17.8-27.93h-6.81c-2.9,0-5.3-.78-6.94-2.74S799,537.26,799,533V512.83h10.59v18.64a2.71,2.71,0,0,0,2.53,2.73h4.54V509h10.6v21.08C827.29,547.34,823.76,561.09,813.42,572.51Zm42.14-68.23a76,76,0,0,1-2.16-8.84l-3.3,8.84H837.89a6.81,6.81,0,0,1-6.56-4.58,8.76,8.76,0,0,1,.62-7.48l10.21-18.17h-5.55a6.38,6.38,0,0,1-6.16-4.56,9.32,9.32,0,0,1,1-7.64l12.76-22.6h12.48l-14,24.26h5.41l3.93-6.86h12.49l-21.2,36.94h9.83a89.31,89.31,0,0,1-1.74-12.36h9.19a118.53,118.53,0,0,0,4.81,23Zm4.66,36.48a8.82,8.82,0,0,1-7.32,3.82h-8.09v27.93H834.09V509h10.72V534.2h4.56a2.92,2.92,0,0,0,2.52-3.05V512.83h10.59v19.08C862.48,535.73,861.6,538.8,860.22,540.76Z"/><path class="cls-1" d="M880.43,572.51V562.3h5.79V533.75a11.2,11.2,0,0,1,3.28-8.24,10.34,10.34,0,0,1,7.08-2.77h78.35a8.9,8.9,0,0,1,6.68,3.52,13.41,13.41,0,0,1,3,8.26V562.3h6.05v10.21ZM925,506a8.65,8.65,0,0,1-7.32,3.37h-25.1a8.85,8.85,0,0,1-8.21-4.45,17.26,17.26,0,0,1-1.88-8.67V453.15a12.42,12.42,0,0,1,3.13-8.1,9.5,9.5,0,0,1,6.56-3.07h25.73a8.66,8.66,0,0,1,7.09,4,14.87,14.87,0,0,1,2.26,8.55v43.36A13.74,13.74,0,0,1,925,506Zm-8.59-50.69a2.91,2.91,0,0,0-2.53-3h-17.4c-1.64,0-3,2-3,3.82v14.81h23Zm0,25.65h-23v15.29c0,1.06.88,3,2.28,3h18.77c1.15,0,1.9-1.23,1.9-2.74Zm-1.13,52.37H900.37a3.18,3.18,0,0,0-2.67,3.2V562.3h17.55Zm69.14-19.08a12.36,12.36,0,0,1-7.7,2.3H964.84l-4.68-10.4h14.39a2.8,2.8,0,0,0,2.39-2.58V493.44H946.67a81.94,81.94,0,0,1-8.35,23.07H924.59c11-14.54,12.49-32.06,12.49-53.6V451.6a11.25,11.25,0,0,1,3.15-7.78,9.42,9.42,0,0,1,6.69-3.18h30.9a9.48,9.48,0,0,1,7.45,3.95,14.43,14.43,0,0,1,2.91,8.86v51.78C988.18,509.64,986.65,512.52,984.39,514.21Zm-40,19.08h-18v29h18Zm32.54-60.76H948a83.88,83.88,0,0,1-.37,11h29.27Zm0-18.32c0-1.67-1.52-3.37-2.9-3.37h-22.7c-1.65,0-3.16,1.85-3.16,4v7.46h28.76Zm-3.77,81.84a2.55,2.55,0,0,0-2.28-2.76H955.62v29h17.55Z"/><path class="cls-2" d="M495.31,130.36a51.15,51.15,0,1,0,51.2,51.14A51.19,51.19,0,0,0,495.31,130.36Z"/><path class="cls-3" d="M495.31,43.76c-75.93,0-137.71,61.79-137.71,137.74s61.78,137.75,137.71,137.75S633.08,257.46,633.08,181.5,571.3,43.76,495.31,43.76Z"/><path class="cls-4" d="M495.31,319.25c-75.93,0-137.71-61.79-137.71-137.75a180.29,180.29,0,0,1-21.87,86.33,181.45,181.45,0,0,0,319.22,0,180.52,180.52,0,0,1-21.87-86.33C633.08,257.46,571.3,319.25,495.31,319.25Z"/><path class="cls-4" d="M495.31,43.76c76,0,137.77,61.79,137.77,137.74A180.45,180.45,0,0,1,655,95.18a181.42,181.42,0,0,0-319.22,0A180.22,180.22,0,0,1,357.6,181.5C357.6,105.55,419.38,43.76,495.31,43.76Z"/><path class="cls-5" d="M176.1,319.25A138,138,0,0,1,56.57,249.87L18.65,271.56a181.4,181.4,0,0,0,317.08-3.73,180.43,180.43,0,0,1-21.9-86.33C313.83,257.46,252.09,319.25,176.1,319.25Z"/><path class="cls-5" d="M176.1,0A181.46,181.46,0,0,0,18.65,91.42l38,21.74A137.82,137.82,0,0,1,176.1,43.76c76,0,137.73,61.79,137.73,137.74a180.36,180.36,0,0,1,21.9-86.32A181.6,181.6,0,0,0,176.1,0Z"/><path class="cls-6" d="M814.58,43.76a137.77,137.77,0,0,1,119.49,69.4l38-21.74A181.39,181.39,0,0,0,655,95.18a180.24,180.24,0,0,1,21.9,86.32C676.85,105.55,738.66,43.76,814.58,43.76Z"/><path class="cls-6" d="M814.58,319.25c-75.92,0-137.73-61.79-137.73-137.75A180.31,180.31,0,0,1,655,267.83a181.41,181.41,0,0,0,317.1,3.73l-37.94-21.69A137.91,137.91,0,0,1,814.58,319.25Z"/><path class="cls-7" d="M335.73,95.18a181.09,181.09,0,0,0,0,172.65,181.31,181.31,0,0,0,0-172.65Z"/><path class="cls-8" d="M655,95.18a181.31,181.31,0,0,0,0,172.65,181.09,181.09,0,0,0,0-172.65Z"/></g></g></svg>