<svg height="65" viewBox="0 0 197 65" width="197" xmlns="http://www.w3.org/2000/svg"><g fill="none" fill-rule="nonzero" transform="translate(2 2)"><g fill="#fff"><path d="m82.992 26.7018919c-2.126161 2.1860884-5.3751036 2.8708708-8.2114127 1.7307263-2.8363092-1.1401445-4.6920458-3.8769146-4.6902385-6.9169425v-.0418919c-.007502-2.6760158 1.4223866-5.1527487 3.7510701-6.4972373s5.2023796-1.3524732 7.5385946-.020946c2.3362151 1.3315272 3.7800225 3.8002756 3.7875541 6.4762914v.0418919c.024465 1.9648987-.7616858 3.8540982-2.1755676 5.2281081zm-8.8624865-1.6254054c.9150766.9399175 2.1748788 1.4706172 3.491027 1.4706172 1.3161483 0 2.5759505-.5306997 3.4910271-1.4706172.9103334-.9714947 1.4008128-2.2590226 1.366054-3.585946v-.0418919c.0292277-1.3340873-.4669824-2.6267858-1.3829189-3.6027027-.9067722-.9645491-2.1886503-1.4929505-3.5163243-1.4494594-1.3161018-.0379942-2.5838937.4940003-3.4741622 1.4578378-.9121874.9669784-1.4031449 2.2527501-1.366054 3.5775676v.0418919c-.0370445 1.3369884.4636736 2.6335254 1.3913513 3.6027027z"/><path d="m88.8441081 28.6205405v-14.2432432h10.6585946v2.2454054h-8.1372973v3.7116216h7.2097297v2.2035135h-7.2097297v3.8372973h8.2384865v2.2454054z"/><path d="m111.527351 28.9054054c-2.071013.0607446-4.082702-.6918132-5.599135-2.0945946-1.465617-1.3692586-2.270008-3.2971824-2.209297-5.2951351v-.0418919c-.043306-1.9922942.758456-3.9108768 2.209297-5.2867568 1.475571-1.4286955 3.472348-2.1999061 5.531676-2.1364865 2.137524-.0528757 4.218102.687985 5.835243 2.0778379l-2.344216 2.7983784c-.960936-.8472307-2.197935-1.3204078-3.482595-1.3321622-.999234-.0166552-1.956377.3992193-2.622486 1.1394595-.702789.7552782-1.080996 1.7533569-1.054054 2.7816216v.0418919c-.039373 1.0581062.356396 2.0865592 1.096216 2.8486486.74049.7405866 1.75794 1.1413149 2.808 1.105946.806078.0340545 1.604231-.1700357 2.293622-.5864865v-1.7594595h-2.833298v-2.8905405h6.61946v6.4262162c-1.751294 1.4520686-3.967664 2.233673-6.248433 2.2035135z"/><path d="m120.583784 28.6205405v-14.2432432h3.980108v10.7578378h6.982054v3.4686487z"/><path d="m146.648432 26.7437838c-3.117803 2.872834-7.937115 2.872834-11.054918 0-1.446929-1.3611591-2.249079-3.2654613-2.209298-5.2448649v-.0418919c-.034931-1.9867453.77304-3.8964175 2.226162-5.2616216 3.120999-2.8647323 7.933921-2.8647323 11.054919 0 1.44429 1.362969 2.245929 3.2660587 2.209298 5.2448649v.0418919c.031798 1.9861445-.775665 3.8946134-2.226163 5.2616216zm-8.137297-2.5135135c.686161.7177671 1.638804 1.1241736 2.635135 1.1241736s1.948974-.4064065 2.635135-1.1241736c.682035-.7360695 1.050728-1.7059423 1.028757-2.7062162v-.0418919c.017743-1.0091986-.360254-1.9856905-1.054054-2.722973-.665795-.7581964-1.635272-1.1846084-2.647784-1.1645946-.996993-.0321316-1.957167.3758574-2.622486 1.1143243-.673115.7370127-1.035389 1.7028824-1.011892 2.6978379v.0418918c-.026676 1.017629.345157 2.0058316 1.037189 2.7564865z"/><path d="m151.564541 28.6205405v-14.2432432h7.378378c1.427041-.1115084 2.839484.3502516 3.921081 1.2818919.615129.608466.950667 1.4419333.927568 2.304054v.0418919c.037402 1.4304402-.863927 2.719491-2.226163 3.1837838.813051.2260156 1.548072.6694181 2.124973 1.2818919.513959.6204013.775661 1.4094387.733622 2.2118919v.0418919c.047393 1.1406022-.492819 2.2267288-1.433514 2.8821622-1.190589.7677723-2.596867 1.1376361-4.013837 1.0556756zm3.878918-8.5962162h2.52973c1.256433 0 1.888865-.4105405 1.888865-1.24v-.0418919c0-.8378378-.607135-1.2232432-1.812973-1.2232432h-2.588757zm0 5.4124325h3.086271c.492244.0270118.981705-.0894729 1.408216-.3351352.324931-.2157155.513421-.5839304.497513-.9718919v-.0418919c0-.8545946-.649297-1.2818919-1.947891-1.2818919h-3.044109z"/><path d="m165.722595 28.6205405 6.121946-14.3772973h3.836756l6.121946 14.3940541h-4.275243l-1.045622-2.5135135h-5.54854l-1.020324 2.5135135zm6.383351-5.6302702h3.229622l-1.62746-4.0635135z"/><path d="m183.827027 28.6205405v-14.2432432h3.980108v10.7578378h6.982054v3.4686487z"/><path d="m76.5496216 47.1702703c-1.4509423.0358403-2.8509984-.532134-3.862054-1.5667568-1.0223575-1.0255332-1.5822417-2.4192945-1.5515676-3.8624324-.0304238-1.4480392.5290825-2.8469024 1.5515676-3.8791892 1.0294627-1.0564736 2.4585654-1.6341801 3.9379459-1.5918919.8055734-.0214641 1.6068123.1240601 2.3526487.4272973.6706105.3011517 1.2839236.7149643 1.8129729 1.2232432l-1.1974054 1.3740541c-.7859341-.8061611-1.856115-1.2777469-2.9850811-1.3154054-.9626481-.0293351-1.8889468.3664202-2.5297297 1.0808108-.6676823.7196511-1.0275289 1.6690849-1.0034594 2.6475676-.0251168.998307.344159 1.9667052 1.0287567 2.6978378.6369147.7215696 1.5641405 1.1238628 2.5297297 1.0975676.5563088.0100861 1.1074618-.1074658 1.6105946-.3435135.532521-.2696556 1.021401-.6170206 1.4503784-1.0305406l1.1974054 1.2064865c-.5399973.581054-1.1831783 1.0582173-1.8972973 1.4075676-.7737112.3189692-1.6085907.4648516-2.4454054.4272973z"/><path d="m91.9135135 45.57c-1.5704727 1.6206315-3.9744908 2.1305292-6.0740976 1.28833-2.0996068-.8421993-3.4735304-2.8675139-3.4714183-5.1172489.0517972-2.2263726 1.4271141-4.210394 3.5021572-5.0521808 2.075043-.8417869 4.4549288-.3811461 6.0602236 1.1729916 1.0270082 1.0162564 1.5906952 2.4058445 1.56 3.8456757.0269317 1.4473459-.5427446 2.8427325-1.5768649 3.8624324zm-6.5267027-1.1645946c.6769506.6967979 1.6098229 1.0903535 2.5845406 1.0903535.9747176 0 1.9075899-.3935556 2.5845405-1.0903535.6738536-.7164219 1.037281-1.6673126 1.0118919-2.6475676.0216588-.9877296-.3477501-1.9444427-1.0287568-2.6643243-.6769506-.6967978-1.6098229-1.0903535-2.5845405-1.0903535-.9747177 0-1.9075899.3935557-2.5845406 1.0903535-.6738535.7164219-1.0372809 1.6673126-1.0118918 2.6475676-.0216589.9877296.34775 1.9444427 1.0287567 2.6643243z"/><path d="m96.2393514 46.9943243v-10.5735135h1.7286486l5.700324 7.305946v-7.305946h1.838271v10.5735135h-1.56l-5.9027031-7.5405405v7.5405405z"/><path d="m108.778378 46.9943243v-10.5735135h7.918054v1.6756757h-6.046054v2.8821621h5.363027v1.6756757h-5.363027v4.3064865z"/><path d="m119.040649 46.9943243v-10.5735135h7.892756v1.6756757h-6.020756v2.7481081h5.337729v1.6756757h-5.337729v2.8402702h6.096648v1.6756757z"/><path d="m129.724541 46.9943243v-10.5735135h4.747459c1.123971-.0695193 2.229223.3106153 3.069405 1.0556757.574632.6181646.878037 1.4381374.843244 2.2789189.031203.7465637-.211516 1.4789842-.683027 2.0610811-.486392.5595652-1.133935.9572984-1.855136 1.1394594l2.87546 4.0048649h-2.200865l-2.614054-3.6864865h-2.344216v3.6864865zm1.872-5.3286486h2.732108c.574712.0283337 1.141355-.1435326 1.602162-.485946.387885-.3119178.606342-.7863416.59027-1.2818919.026889-.4987265-.185864-.9805712-.573405-1.2986486-.475993-.3280491-1.049239-.4874111-1.62746-.4524324h-2.723675z"/><path d="m141.184216 46.9943243v-10.5735135h7.884325v1.6756757h-6.020757v2.7481081h5.363027v1.6756757h-5.33773v2.8402702h6.096649v1.6756757z"/><path d="m151.859676 46.9943243v-10.5735135h1.737081l5.700324 7.305946v-7.305946h1.83827v10.5735135h-1.568432l-5.860541-7.5405405v7.5405405z"/><path d="m169.264216 47.1702703c-1.450942.0358403-2.850998-.532134-3.862054-1.5667568-1.020098-1.0263854-1.577016-2.4203381-1.543135-3.8624324-.033627-1.4469995.522914-2.8460515 1.543135-3.8791892 1.030059-1.0555968 2.458755-1.6331391 3.937946-1.5918919.805631-.0222047 1.607022.1233472 2.352649.4272973.67061.3011517 1.283923.7149643 1.812973 1.2232432l-1.197406 1.3740541c-.785934-.8061611-1.856115-1.2777469-2.985081-1.3154054-.962204-.0270203-1.887561.3683327-2.529729 1.0808108-.667683.7196511-1.027529 1.6690849-1.00346 2.6475676-.025117.998307.344159 1.9667052 1.028757 2.6978378.637625.7206039 1.564371 1.1226888 2.52973 1.0975676.558999.0098751 1.112844-.1076358 1.619027-.3435135.528514-.2720377 1.014274-.6192045 1.441946-1.0305406l1.197405 1.2064865c-.539997.581054-1.183178 1.0582173-1.897297 1.4075676-.773477.3197665-1.608537.4656805-2.445406.4272973z"/><path d="m175.900541 46.9943243v-10.5735135h7.926486v1.6756757h-6.012324v2.7481081h5.329297v1.6756757h-5.329297v2.8402702h6.012324v1.6756757z"/></g><g><rect fill="#e5e5e5" height="62.62973" rx="2.21" stroke="#f2f2f2" stroke-width="1.3" width="62.882054" x="-.65" y="-.65"/><path d="m0 52.7251351h61.5567568v7.2724325c0 .7357328-.6002773 1.3321621-1.3407568 1.3321621h-58.87524324c-.7371989 0-1.33612029-.591325-1.34075676-1.3237838z" fill="#ff5547"/><g fill="#0d6ae5"><path d="m31.6131892 58.59c-4.6547027 0-8.9130811-3.0581081-11.9909189-8.6213514-2.8248649-5.1024324-4.3848649-11.8302702-4.3848649-18.9435135 0-7.1132432 1.56-13.841081 4.3848649-18.9351351 3.0778378-5.56324324 7.3615135-8.62972973 11.9909189-8.62972973 1.3016966.07578509 2.3182385 1.14672645 2.3182385 2.4422973s-1.0165419 2.36651221-2.3182385 2.44229729c-2.7827027 0-5.5063784 2.17000004-7.681946 6.09945944-2.4369729 4.3902703-3.7777297 10.2802703-3.7777297 16.5556757s1.3407568 12.1989189 3.7777297 16.5891892c2.1755676 3.9294594 4.8992433 6.0910811 7.681946 6.0910811s5.4895135-2.1364865 7.6819459-6.065946c2.4285406-4.3902702 3.7692973-10.2802702 3.7692973-16.5891892.0762741-1.2933524 1.1541247-2.303378 2.4580541-2.303378s2.38178 1.0100256 2.458054 2.303378c0 7.1132433-1.56 13.8410811-4.3764324 18.9435135-3.0862703 5.5632433-7.3446486 8.6213514-11.9909189 8.6213514z"/><path d="m0 42.2689189c7.69555051-1.8482681 15.5398527-3.0201745 23.4421622-3.5021621 2.7236756-.1675676 5.5063783-.2513514 8.2469189-.2513514 7.0047838.0033331 13.9989677.5411304 20.9208648 1.6086487l2.4285406.377027-.7589189 4.8343243-2.4285406-.377027c-6.6705021-1.0313116-13.4111704-1.5495173-20.1619459-1.55-2.6477838 0-5.3208649.0754054-7.9517838.2345946-8.0092906.489131-15.95571224 1.7148241-23.7372973 3.6613513"/><path d="m0 30.4386486c7.71980726-1.8318112 15.5865318-2.9868737 23.5096216-3.4518918 2.5803243-.1424325 5.2112433-.2262163 7.8084325-.2262163 3.7102702 0 7.4711351.1591892 11.1898378.4608109h.4722162l1.0709189.0837837h.0758919c2.3357838.2178379 4.7558919.5027027 7.1928649.8378379l1.4841081.2094594 1.6864865.2681081 2.6056216.4691892 1.9816216.2932433c.1920405.0450802.3214498.2236632.3035676.4189189l-.3372973 4.6248649-2.8838919-.5362163c-.8432432-.1591891-1.6864865-.31-2.6393514-.4775675l-1.6864864-.2597298-2.5297298-.377027-2.2936216-.2932432-1.6864865-.175946c-9.3523879-1.0053446-18.7866391-1.0053446-28.139027 0-5.7942461.6702383-11.53592059 1.7311536-17.1852973 3.1754054"/><path d="m0 24.4062162c7.78724181-1.9206773 15.7361289-3.123878 23.7457297-3.5943243 2.5297298-.1424324 5.0594595-.2178378 7.5891892-.2178378 1.1636757 0 4.056.0586486 5.5991352.0921621.2579092.0017493.4758618-.1895413.5059459-.444054l.4806486-4.1891892c.0046738-.0480674-.0107419-.0959306-.042634-.1323714s-.0774568-.0582555-.1260146-.0603313c-2.1334054-.1005406-4.2921081-.1508108-6.4170811-.1508108-2.614054 0-5.2534054.0754054-7.8505946.2262162-7.9148388.4537924-15.77366151 1.6033302-23.4843243 3.4351351"/><path d="m33.8983784 58.6486486c-11.6754639 1.0191139-22.7420133-5.3397593-27.67617661-15.9028158-4.93416331-10.5630566-2.67807046-23.0656083 5.64223061-31.2674544 8.7999802-8.73666236 22.3579138-10.62985037 33.2406487-4.64162164 3.9081901 2.17321726 7.236132 5.24425554 9.7057297 8.95648644.0440458.0639821.0599469.1430358.0440349.2189237-.015912.075888-.0622627.1420557-.1283592.1832385l-3.7777297 2.4297297c-.1401169.0855598-.3233249.0446951-.4131892-.0921621-4.3111-6.4434258-11.6317173-10.25750677-19.4176453-10.11669767s-14.9620007 4.21706387-19.0342466 10.81210307c-1.2630334 1.9949201-2.17815471 4.1873298-2.70681084 6.4848648-1.85037254 7.677653.44743741 15.7590969 6.06757734 21.3397918 5.62014 5.5806949 13.7551278 7.8588261 21.4811794 6.0156136 2.3133992-.5220216 4.5204884-1.4314972 6.5267027-2.6894594 6.7687335-4.1238665 10.892144-11.4482863 10.8862703-19.3372973v-1.5081081l3.7355676-.2094595 1.248.1843243c.0632011.0084457.1096895.0623169.1096895.1256757v1.3991892c.0316979 14.4096247-11.0801933 26.4274645-25.5334733 27.6151351z"/></g></g></g></svg>