<?xml version="1.0" encoding="UTF-8"?>
<svg viewBox="0 0 150 48" version="1.1" xmlns="http://www.w3.org/2000/svg" xmlns:xlink="http://www.w3.org/1999/xlink">
    <!-- Generator: Sketch 63.1 (92452) - https://sketch.com -->
    <title>logos/oeglobalconf</title>
    <desc>Created with Sketch.</desc>
    <g id="Page-1" stroke="none" stroke-width="1" fill="none" fill-rule="evenodd">
        <g id="Home---Tablet-Landscape" transform="translate(-49.000000, -24.000000)">
            <g id="logos/oeglobalconf" transform="translate(49.000000, 24.000000)">
                <g id="oeglobal">
                    <path d="M63.84,20.6724324 C62.2044915,22.364888 59.705305,22.8950421 57.5235287,22.0123496 C55.3417524,21.1296571 53.9142627,19.0108673 53.9156529,16.6572973 L53.9156529,16.6248649 C53.9098822,14.5531107 55.0097965,12.6356401 56.8010915,11.5947457 C58.5923865,10.5538512 60.8029219,10.5476697 62.6000104,11.5785294 C64.3970989,12.6093892 65.50772,14.5206782 65.5135135,16.5924324 L65.5135135,16.6248649 C65.5323327,18.1460768 64.9276014,19.6086829 63.84,20.6724324 L63.84,20.6724324 Z M57.0227027,19.4140541 C57.7266077,20.1417322 58.6956864,20.5525964 59.7081081,20.5525964 C60.7205298,20.5525964 61.6896085,20.1417322 62.3935135,19.4140541 C63.09377,18.6619292 63.4710619,17.6651334 63.4443243,16.6378378 L63.4443243,16.6054054 C63.4668071,15.5725636 63.0851071,14.5717647 62.3805405,13.8162162 C61.6830235,13.0694685 60.6969634,12.6603836 59.6756757,12.6940541 C58.6632897,12.6646392 57.6880651,13.0765059 57.0032432,13.8227027 C56.3015606,14.5713312 55.923901,15.5667673 55.9524324,16.5924324 L55.9524324,16.6248649 C55.9239367,17.6599527 56.3091045,18.6637232 57.0227027,19.4140541 Z" id="Shape" fill="#1A1A1A" fill-rule="nonzero"></path>
                    <polygon id="Path" fill="#1A1A1A" fill-rule="nonzero" points="68.3416216 22.1578378 68.3416216 11.1308108 76.5405405 11.1308108 76.5405405 12.8691892 70.2810811 12.8691892 70.2810811 15.7427027 75.827027 15.7427027 75.827027 17.4486486 70.2810811 17.4486486 70.2810811 20.4194595 76.6183784 20.4194595 76.6183784 22.1578378"></polygon>
                    <path d="M85.7902703,22.3783784 C84.1971827,22.4254065 82.6497297,21.8427811 81.4832432,20.7567568 C80.3558451,19.6966855 79.7370831,18.2040994 79.7837838,16.6572973 L79.7837838,16.6248649 C79.7504714,15.0824436 80.3672112,13.5970893 81.4832432,12.5318919 C82.618298,11.425805 84.1542803,10.8287387 85.7383784,10.8778378 C87.382628,10.8369018 88.9830721,11.4104713 90.227027,12.4864865 L88.4237838,14.652973 C87.6846024,13.9970524 86.7330643,13.6307218 85.7448649,13.6216216 C84.976223,13.6087273 84.2399595,13.9306946 83.7275676,14.5037838 C83.1869611,15.0885153 82.8960326,15.8612214 82.9167568,16.6572973 L82.9167568,16.6897297 C82.8864701,17.5089087 83.1909078,18.3051304 83.76,18.8951351 C84.3296074,19.4684925 85.1122616,19.7787338 85.92,19.7513514 C86.54006,19.7777161 87.1540235,19.6197108 87.6843243,19.2972973 L87.6843243,17.9351351 L85.5048649,17.9351351 L85.5048649,15.6972973 L90.5967568,15.6972973 L90.5967568,20.6724324 C89.249608,21.7966145 87.5447075,22.4017277 85.7902703,22.3783784 L85.7902703,22.3783784 Z" id="Path" fill="#1A1A1A" fill-rule="nonzero"></path>
                    <polygon id="Path" fill="#1A1A1A" fill-rule="nonzero" points="92.7567568 22.1578378 92.7567568 11.1308108 95.8183784 11.1308108 95.8183784 19.4594595 101.189189 19.4594595 101.189189 22.1448649"></polygon>
                    <path d="M112.806486,20.7048649 C110.408176,22.9289944 106.701013,22.9289944 104.302703,20.7048649 C103.189681,19.6510643 102.572642,18.1767658 102.603243,16.6443243 L102.603243,16.6118919 C102.576373,15.0737665 103.197889,13.5953106 104.315676,12.5383784 C106.716444,10.3205211 110.418692,10.3205211 112.819459,12.5383784 C113.930451,13.5935802 114.547097,15.0669399 114.518919,16.5989189 L114.518919,16.6313514 C114.543379,18.1690116 113.922254,19.646536 112.806486,20.7048649 L112.806486,20.7048649 Z M106.547027,18.7589189 C107.074843,19.3146096 107.807645,19.6292469 108.574054,19.6292469 C109.340463,19.6292469 110.073265,19.3146096 110.601081,18.7589189 C111.125723,18.1890587 111.409333,17.4381894 111.392432,16.6637838 L111.392432,16.6313514 C111.406081,15.8500363 111.115314,15.0940426 110.581622,14.5232432 C110.069471,13.9362525 109.32372,13.6061271 108.544865,13.6216216 C107.777947,13.5967456 107.039351,13.912608 106.527568,14.4843243 C106.009787,15.0549148 105.731115,15.8026848 105.749189,16.572973 L105.749189,16.6054054 C105.728669,17.3932472 106.014695,18.1583072 106.547027,18.7394595 L106.547027,18.7589189 Z" id="Shape" fill="#1A1A1A" fill-rule="nonzero"></path>
                    <path d="M116.588108,22.1578378 L116.588108,11.1308108 L122.263784,11.1308108 C123.361508,11.0444817 124.448002,11.4019733 125.28,12.1232432 C125.753176,12.5943137 126.011282,13.2395787 125.993514,13.907027 L125.993514,13.9394595 C126.022285,15.046897 125.328955,16.0448718 124.281081,16.4043243 C124.906504,16.5793041 125.471906,16.9225835 125.915676,17.3967568 C126.311029,17.8770674 126.512337,18.4879351 126.48,19.1091892 L126.48,19.1416216 C126.516456,20.0246685 126.100909,20.8655407 125.377297,21.372973 C124.461459,21.9673774 123.379707,22.2537235 122.28973,22.1902703 L116.588108,22.1578378 Z M119.571892,15.5027027 L121.517838,15.5027027 C122.484324,15.5027027 122.970811,15.1848649 122.970811,14.5427027 L122.970811,14.5102703 C122.970811,13.8616216 122.503784,13.5632432 121.576216,13.5632432 L119.584865,13.5632432 L119.571892,15.5027027 Z M119.571892,19.692973 L121.945946,19.692973 C122.324595,19.7138854 122.701104,19.6237037 123.029189,19.4335135 C123.279136,19.266508 123.424128,18.9814383 123.411892,18.6810811 L123.411892,18.6486486 C123.411892,17.987027 122.912432,17.6562162 121.913514,17.6562162 L119.571892,17.6562162 L119.571892,19.692973 Z" id="Shape" fill="#1A1A1A" fill-rule="nonzero"></path>
                    <path d="M127.478919,22.1578378 L132.188108,11.027027 L135.139459,11.027027 L139.848649,22.1708108 L136.56,22.1708108 L135.755676,20.2248649 L131.487568,20.2248649 L130.702703,22.1708108 L127.478919,22.1578378 Z M132.389189,17.7989189 L134.873514,17.7989189 L133.621622,14.652973 L132.389189,17.7989189 Z" id="Shape" fill="#1A1A1A" fill-rule="nonzero"></path>
                    <polygon id="Path" fill="#1A1A1A" fill-rule="nonzero" points="141.405405 22.1578378 141.405405 11.1308108 144.467027 11.1308108 144.467027 19.4594595 149.837838 19.4594595 149.837838 22.1448649"></polygon>
                    <path d="M58.8843243,36.5189189 C57.7682149,36.5466663 56.6912486,36.1069443 55.9135135,35.3059459 C55.1270847,34.5119848 54.6964046,33.4329437 54.72,32.3156757 L54.72,32.3156757 C54.6965971,31.1946131 55.1269865,30.1116222 55.9135135,29.3124324 C56.705408,28.4945174 57.8047177,28.0472608 58.9427027,28.08 C59.5623745,28.0633826 60.1787121,28.1760465 60.7524324,28.4108108 C61.2682867,28.6439605 61.740066,28.9643316 62.147027,29.3578378 L61.2259459,30.4216216 C60.6213813,29.7974969 59.7981652,29.4323982 58.9297297,29.4032432 C58.1892312,29.3805322 57.4766937,29.6869234 56.9837838,30.24 C56.470182,30.7971492 56.1933769,31.5321947 56.2118919,32.2897297 L56.2118919,32.2897297 C56.1925713,33.0626126 56.4766296,33.8123402 57.0032432,34.3783784 C57.4931776,34.9370129 58.2064283,35.2484657 58.9491892,35.2281081 C59.377119,35.2359167 59.8010828,35.1449088 60.1881081,34.9621622 C60.5977396,34.7533966 60.9738012,34.4844689 61.3037838,34.1643243 L62.2248649,35.0983784 C61.8094823,35.5482266 61.3147277,35.9176434 60.7654054,36.1881081 C60.1702429,36.435052 59.5280279,36.5479933 58.8843243,36.5189189 Z" id="Path" fill="#1A1A1A" fill-rule="nonzero"></path>
                    <path d="M70.7027027,35.28 C69.4946467,36.5346824 67.6454021,36.9294419 66.0303199,36.2774167 C64.4152378,35.6253915 63.3583734,34.057406 63.3599981,32.3156757 L63.3599981,32.3156757 C63.3998421,30.5920324 64.4577782,29.0560158 66.0539652,28.4043099 C67.6501522,27.7526039 69.4808335,28.109229 70.7156757,29.3124324 C71.505682,30.0992116 71.9392874,31.1750218 71.9156757,32.2897297 L71.9156757,32.2897297 C71.9363924,33.4102556 71.4981799,34.4905549 70.7027027,35.28 L70.7027027,35.28 Z M65.6821622,34.3783784 C66.2028934,34.9178348 66.9204875,35.222523 67.6702703,35.222523 C68.4200531,35.222523 69.1376471,34.9178348 69.6583784,34.3783784 C70.1767273,33.8237292 70.4562868,33.0875557 70.4367568,32.3286486 L70.4367568,32.3286486 C70.4534174,31.5639547 70.1692567,30.8232736 69.6454054,30.2659459 C69.1246742,29.7264895 68.4070801,29.4218013 67.6572973,29.4218013 C66.9075145,29.4218013 66.1899204,29.7264895 65.6691892,30.2659459 C65.1508403,30.8205952 64.8712807,31.5567686 64.8908108,32.3156757 L64.8908108,32.3156757 C64.8741502,33.0803696 65.1583109,33.8210507 65.6821622,34.3783784 L65.6821622,34.3783784 Z" id="Shape" fill="#1A1A1A" fill-rule="nonzero"></path>
                    <polygon id="Path" fill="#1A1A1A" fill-rule="nonzero" points="74.0302703 36.3827027 74.0302703 28.1967568 75.36 28.1967568 79.7448649 33.852973 79.7448649 28.1967568 81.1589189 28.1967568 81.1589189 36.3827027 79.9589189 36.3827027 75.4183784 30.5448649 75.4183784 36.3827027"></polygon>
                    <polygon id="Path" fill="#1A1A1A" fill-rule="nonzero" points="83.6756757 36.3827027 83.6756757 28.1967568 89.7664865 28.1967568 89.7664865 29.4940541 85.1156757 29.4940541 85.1156757 31.7254054 89.2410811 31.7254054 89.2410811 33.0227027 85.1156757 33.0227027 85.1156757 36.3567568"></polygon>
                    <polygon id="Path" fill="#1A1A1A" fill-rule="nonzero" points="91.5697297 36.3827027 91.5697297 28.1967568 97.6410811 28.1967568 97.6410811 29.4940541 93.0097297 29.4940541 93.0097297 31.6216216 97.1156757 31.6216216 97.1156757 32.9189189 93.0097297 32.9189189 93.0097297 35.1178378 97.6994595 35.1178378 97.6994595 36.4151351"></polygon>
                    <path d="M99.7881081,36.3827027 L99.7881081,28.1967568 L103.44,28.1967568 C104.304593,28.1429353 105.154787,28.4372331 105.801081,29.0140541 C106.243105,29.4926331 106.476494,30.1274508 106.44973,30.7783784 L106.44973,30.7783784 C106.473732,31.3563632 106.287025,31.9233984 105.924324,32.3740541 C105.550177,32.8072658 105.052067,33.1151883 104.497297,33.2562162 L106.709189,36.3567568 L105.016216,36.3567568 L103.005405,33.5027027 L101.202162,33.5027027 L101.202162,36.3567568 L99.7881081,36.3827027 Z M101.228108,32.2572973 L103.32973,32.2572973 C103.771816,32.2792331 104.207695,32.1461753 104.562162,31.8810811 C104.860536,31.6395963 105.028579,31.2723004 105.016216,30.8886486 L105.016216,30.8886486 C105.0369,30.5025378 104.873244,30.1294968 104.575135,29.8832432 C104.208987,29.6292698 103.768028,29.5058927 103.323243,29.532973 L101.228108,29.532973 L101.228108,32.2572973 Z" id="Shape" fill="#1A1A1A" fill-rule="nonzero"></path>
                    <polygon id="Path" fill="#1A1A1A" fill-rule="nonzero" points="108.603243 36.3827027 108.603243 28.1967568 114.668108 28.1967568 114.668108 29.4940541 110.036757 29.4940541 110.036757 31.6216216 114.162162 31.6216216 114.162162 32.9189189 110.056216 32.9189189 110.056216 35.1178378 114.745946 35.1178378 114.745946 36.4151351"></polygon>
                    <polygon id="Path" fill="#1A1A1A" fill-rule="nonzero" points="116.815135 36.3827027 116.815135 28.1967568 118.151351 28.1967568 122.536216 33.852973 122.536216 28.1967568 123.95027 28.1967568 123.95027 36.3827027 122.743784 36.3827027 118.235676 30.5448649 118.235676 36.3827027"></polygon>
                    <path d="M130.203243,36.5189189 C129.087134,36.5466663 128.010168,36.1069443 127.232432,35.3059459 C126.447741,34.511325 126.019343,33.4321358 126.045405,32.3156757 L126.045405,32.3156757 C126.019539,31.195418 126.447647,30.112281 127.232432,29.3124324 C128.024785,28.4951962 129.123782,28.0480667 130.261622,28.08 C130.881338,28.0628093 131.497793,28.1754946 132.071351,28.4108108 C132.587206,28.6439605 133.058985,28.9643316 133.465946,29.3578378 L132.544865,30.4216216 C131.9403,29.7974969 131.117084,29.4323982 130.248649,29.4032432 C129.508492,29.3823243 128.796678,29.688404 128.302703,30.24 C127.789101,30.7971492 127.512296,31.5321947 127.530811,32.2897297 L127.530811,32.2897297 C127.51149,33.0626126 127.795549,33.8123402 128.322162,34.3783784 C128.812643,34.9362653 129.525524,35.2475568 130.268108,35.2281081 C130.698108,35.2357534 131.124143,35.1447772 131.513514,34.9621622 C131.920063,34.7515523 132.293725,34.4827781 132.622703,34.1643243 L133.543784,35.0983784 C133.128401,35.5482266 132.633647,35.9176434 132.084324,36.1881081 C131.489342,36.4356693 130.846988,36.5486349 130.203243,36.5189189 L130.203243,36.5189189 Z" id="Path" fill="#1A1A1A" fill-rule="nonzero"></path>
                    <polygon id="Path" fill="#1A1A1A" fill-rule="nonzero" points="135.308108 36.3827027 135.308108 28.1967568 141.405405 28.1967568 141.405405 29.4940541 136.780541 29.4940541 136.780541 31.6216216 140.88 31.6216216 140.88 32.9189189 136.780541 32.9189189 136.780541 35.1178378 141.405405 35.1178378 141.405405 36.4151351"></polygon>
                    <rect id="Rectangle" fill="#E5E5E5" fill-rule="nonzero" x="0" y="0" width="47.3708108" height="47.4810811" rx="1.7"></rect>
                    <path d="M0,40.8194595 L47.3513514,40.8194595 L47.3513514,46.4497297 C47.3513514,47.0193294 46.8895996,47.4810811 46.32,47.4810811 L1.03135135,47.4810811 C0.464275273,47.4810811 0.0035665161,47.0232811 0,46.4562162 L0,40.8194595 Z" id="Path" fill="#FF5547" fill-rule="nonzero"></path>
                    <path d="M24.3178378,45.36 C20.7372973,45.36 17.4616216,42.9924324 15.0940541,38.6854054 C12.9210811,34.7351351 11.7210811,29.5264865 11.7210811,24.0194595 C11.7210811,18.5124324 12.9210811,13.3037838 15.0940541,9.36 C17.4616216,5.05297297 20.7567568,2.67891892 24.3178378,2.67891892 C25.3191429,2.73759124 26.1010982,3.56670714 26.1010982,4.56972973 C26.1010982,5.57275232 25.3191429,6.40186822 24.3178378,6.46054054 C22.1772973,6.46054054 20.0821622,8.14054054 18.4086486,11.1827027 C16.5340541,14.5816216 15.5027027,19.1416216 15.5027027,24 C15.5027027,28.8583784 16.5340541,33.4443243 18.4086486,36.8432432 C20.0821622,39.8854054 22.1772973,41.5589189 24.3178378,41.5589189 C26.4583784,41.5589189 28.5405405,39.9048649 30.227027,36.8627027 C32.0951351,33.4637838 33.1264865,28.9037838 33.1264865,24.0194595 C33.1851588,23.0181544 34.0142747,22.2361991 35.0172973,22.2361991 C36.0203199,22.2361991 36.8494358,23.0181544 36.9081081,24.0194595 C36.9081081,29.5264865 35.7081081,34.7351351 33.5416216,38.6854054 C31.1675676,42.9924324 27.8918919,45.36 24.3178378,45.36 Z" id="Path" fill="#0D6AE5" fill-rule="nonzero"></path>
                    <path d="M-4.60892585e-15,32.7243243 C5.91965424,31.2934071 11.9537329,30.3861247 18.0324324,30.012973 C20.1275676,29.8832432 22.2681081,29.8183784 24.3762162,29.8183784 C29.7645114,29.8209589 35.1446529,30.2373181 40.4691892,31.0637838 L42.3372973,31.3556757 L41.7535135,35.0983784 L39.8854054,34.8064865 C34.7542499,34.0080517 29.5691204,33.6068602 24.3762162,33.6064865 C22.3394595,33.6064865 20.2832432,33.6648649 18.2594595,33.7881081 C12.0984667,34.1667902 5.98583466,35.1157139 -4.60892585e-15,36.6227027" id="Path" fill="#0D6AE5" fill-rule="nonzero"></path>
                    <path d="M0,23.5654054 C5.93831328,22.147229 11.9896399,21.252987 18.0843243,20.892973 C20.0691892,20.7827027 22.092973,20.7178378 24.0908108,20.7178378 C26.9448649,20.7178378 29.8378378,20.8410811 32.6983784,21.0745946 L33.0616216,21.0745946 L33.8854054,21.1394595 L33.9437838,21.1394595 C35.7405405,21.3081081 37.6021622,21.5286486 39.4767568,21.7881081 L40.6183784,21.9502703 L40.6183784,21.9502703 L41.9156757,22.1578378 L41.9156757,22.1578378 L43.92,22.5210811 L45.4443243,22.7481081 C45.5920477,22.7830089 45.6915934,22.9212668 45.6778378,23.0724324 L45.4183784,26.652973 L43.2,26.2378378 C42.5513514,26.1145946 41.9027027,25.9978378 41.1697297,25.8681081 L39.8724324,25.667027 L37.9264865,25.3751351 L36.1621622,25.1481081 L34.8648649,25.0118919 C27.6707203,24.2335606 20.413604,24.2335606 13.2194595,25.0118919 C8.76234711,25.5307861 4.34567439,26.3521398 0,27.4702703" id="Path" fill="#0D6AE5" fill-rule="nonzero"></path>
                    <path d="M0,18.8951351 C5.99018601,17.4081592 12.1047146,16.476649 18.2659459,16.1124324 C20.2118919,16.0021622 22.1578378,15.9437838 24.1037838,15.9437838 C24.9989189,15.9437838 27.2237838,15.9891892 28.4108108,16.0151351 C28.6092026,16.0164894 28.7768584,15.8683934 28.8,15.6713514 L29.1697297,12.4281081 C29.1733249,12.3908947 29.1614667,12.3538393 29.1369343,12.3256271 C29.1124019,12.2974148 29.0773522,12.280526 29.04,12.2789189 C27.3989189,12.2010811 25.7383784,12.1621622 24.1037838,12.1621622 C22.092973,12.1621622 20.0627027,12.2205405 18.0648649,12.3372973 C11.9765273,12.6886205 5.93127907,13.5785852 0,14.9967568" id="Path" fill="#0D6AE5" fill-rule="nonzero"></path>
                    <path d="M26.0756757,45.4054054 C17.0945496,46.1943968 8.58181931,41.2713982 4.78630907,33.0935479 C0.990798831,24.9156977 2.72625487,15.2363028 9.12648649,8.88648649 C15.895702,2.12261887 26.3248817,0.656924925 34.6962162,5.29297297 C37.7025163,6.97546376 40.2624717,9.35304177 42.1621622,12.227027 C42.1960435,12.2765615 42.2082751,12.3377644 42.1960351,12.3965163 C42.1837952,12.4552683 42.1481407,12.5064949 42.0972973,12.5383784 L39.1913514,14.4194595 C39.0835692,14.4856993 38.9426399,14.4540621 38.8735135,14.3481081 C35.5572828,9.35964947 29.9260387,6.40681256 23.9368633,6.51582606 C17.9476879,6.62483956 12.427632,9.78064969 9.29513514,14.8864865 C8.32357103,16.4309408 7.61963153,18.1282902 7.21297297,19.907027 C5.78960947,25.8510164 7.55715559,32.1076181 11.8803402,36.4281561 C16.2035247,40.7486941 22.4612077,42.5124086 28.4043243,41.0854054 C30.1838621,40.6812596 31.8816231,39.9771495 33.4248649,39.0032432 C38.6315829,35.8105724 41.8034371,30.1400539 41.7989189,24.0324324 L41.7989189,22.8648649 L44.6724324,22.7027027 L45.6324324,22.8454054 C45.6810487,22.851944 45.716809,22.8936507 45.716809,22.9427027 L45.716809,24.0259459 C45.741192,35.1817844 37.1935834,44.4859184 26.0756757,45.4054054 Z" id="Path" fill="#0D6AE5" fill-rule="nonzero"></path>
                </g>
            </g>
        </g>
    </g>
</svg>
