<svg id="Livello_1" data-name="Livello 1" xmlns="http://www.w3.org/2000/svg" xmlns:xlink="http://www.w3.org/1999/xlink" viewBox="0 0 434 119.5"><defs><style>.cls-1{fill:url(#Sfumatura_senza_nome);}.cls-2{fill:url(#Sfumatura_senza_nome_2);}.cls-3{fill:url(#Sfumatura_senza_nome_3);}.cls-4{fill:url(#Sfumatura_senza_nome_4);}.cls-5{fill:url(#Sfumatura_senza_nome_5);}.cls-6{fill:url(#Sfumatura_senza_nome_6);}.cls-7{isolation:isolate;font-size:12.57px;fill:#ff6601;font-family:CenturyGothic-Bold, Century Gothic;font-weight:700;}</style><linearGradient id="Sfumatura_senza_nome" x1="11.37" y1="38.61" x2="405.51" y2="91.26" gradientTransform="matrix(1, 0, 0, -1, 0, 119.89)" gradientUnits="userSpaceOnUse"><stop offset="0" stop-color="#3867b8"/><stop offset="1" stop-color="#fa7e1d"/></linearGradient><linearGradient id="Sfumatura_senza_nome_2" x1="11.69" y1="36.24" x2="405.82" y2="88.89" xlink:href="#Sfumatura_senza_nome"/><linearGradient id="Sfumatura_senza_nome_3" x1="14.26" y1="17.01" x2="408.39" y2="69.65" xlink:href="#Sfumatura_senza_nome"/><linearGradient id="Sfumatura_senza_nome_4" x1="13.8" y1="20.44" x2="407.93" y2="73.09" xlink:href="#Sfumatura_senza_nome"/><linearGradient id="Sfumatura_senza_nome_5" x1="16.64" y1="-0.81" x2="410.77" y2="51.83" xlink:href="#Sfumatura_senza_nome"/><linearGradient id="Sfumatura_senza_nome_6" x1="15.96" y1="4.22" x2="410.1" y2="56.86" xlink:href="#Sfumatura_senza_nome"/></defs><title>edulai</title><g id="Livello_1-2" data-name="Livello 1"><path class="cls-1" d="M74.3,81.9H22.9a17.08,17.08,0,0,0,5.9,10.8c3.2,2.7,7.3,4,12.3,4a21.22,21.22,0,0,0,15.4-6.3L70,96.7a32,32,0,0,1-12.1,10.6,37.72,37.72,0,0,1-16.7,3.4c-10,0-18.1-3.2-24.4-9.5S7.4,87.1,7.4,77.7c0-9.7,3.1-17.8,9.4-24.2s14.1-9.6,23.6-9.6c10,0,18.2,3.2,24.5,9.6S74.3,68.4,74.3,79Zm-16-12.6A16.07,16.07,0,0,0,52,60.6a18.18,18.18,0,0,0-10.8-3.3,18.86,18.86,0,0,0-11.7,3.8c-2.1,1.6-4.1,4.3-5.9,8.3H58.3Z"/><path class="cls-2" d="M143.3,20.8h16v88.4h-16v-6.7a30.82,30.82,0,0,1-9.4,6.4,26.13,26.13,0,0,1-10.2,2c-8.2,0-15.4-3.2-21.4-9.6s-9-14.3-9-23.8c0-9.8,2.9-17.9,8.7-24.2a27.74,27.74,0,0,1,21.2-9.4A26.42,26.42,0,0,1,134,46.1a27.56,27.56,0,0,1,9.3,6.5V20.8ZM126.5,58.5a16,16,0,0,0-12.3,5.2c-3.3,3.5-4.9,8-4.9,13.4a19.33,19.33,0,0,0,5,13.6A15.92,15.92,0,0,0,126.6,96a16.45,16.45,0,0,0,12.5-5.2c3.3-3.5,5-8.1,5-13.7a18.92,18.92,0,0,0-5-13.5A17.51,17.51,0,0,0,126.5,58.5Z"/><path class="cls-3" d="M184.4,45.4h16.2V76.1c0,6,.4,10.1,1.2,12.5a10.45,10.45,0,0,0,4,5.4,11.26,11.26,0,0,0,6.7,1.9,11.58,11.58,0,0,0,6.8-1.9,10.86,10.86,0,0,0,4.1-5.6c.7-1.8,1-5.8,1-11.8V45.4h16v27c0,11.1-.9,18.8-2.6,22.9a24.62,24.62,0,0,1-9.5,11.5c-4.2,2.7-9.5,4-15.9,4-7,0-12.6-1.6-17-4.7A24.46,24.46,0,0,1,186.3,93c-1.3-3.9-1.9-10.9-1.9-21.1Z"/><path class="cls-4" d="M263.7,20.8h16v88.4h-16Z"/><path class="cls-5" d="M350.3,45.4h16v63.8h-16v-6.7a30.82,30.82,0,0,1-9.4,6.4,26.13,26.13,0,0,1-10.2,2c-8.2,0-15.4-3.2-21.4-9.6s-9-14.3-9-23.8c0-9.8,2.9-17.9,8.7-24.2a27.74,27.74,0,0,1,21.2-9.4A26.42,26.42,0,0,1,341,46.1a27.56,27.56,0,0,1,9.3,6.5ZM333.5,58.5a16,16,0,0,0-12.3,5.2c-3.3,3.5-4.9,8-4.9,13.4a19.33,19.33,0,0,0,5,13.6A15.92,15.92,0,0,0,333.6,96a16.45,16.45,0,0,0,12.5-5.2c3.3-3.5,5-8.1,5-13.7a18.92,18.92,0,0,0-5-13.5A17.51,17.51,0,0,0,333.5,58.5Z"/><path class="cls-6" d="M397.7,19.2a9.82,9.82,0,0,1,7.2,3,10.11,10.11,0,0,1,3,7.4,9.88,9.88,0,0,1-3,7.3,10,10,0,0,1-14.4-.1,10.34,10.34,0,0,1-3-7.5,9.82,9.82,0,0,1,3-7.2A10.13,10.13,0,0,1,397.7,19.2Zm-8,26.2h16v63.8h-16Z"/></g><g id="Livello_2" data-name="Livello 2"><text class="cls-7" transform="translate(413.24 12.18) scale(0.95 1)">TM</text></g></svg>