<?xml version="1.0" encoding="utf-8"?>
<!-- Generator: Adobe Illustrator 24.1.2, SVG Export Plug-In . SVG Version: 6.00 Build 0)  -->
<svg version="1.1" id="Layer_1" xmlns="http://www.w3.org/2000/svg" xmlns:xlink="http://www.w3.org/1999/xlink" x="0px" y="0px"
	 viewBox="0 0 589.38 475.38" style="enable-background:new 0 0 589.38 475.38;" xml:space="preserve">
<style type="text/css">
	.st0{opacity:0.88;}
	.st1{fill:#02262B;}
	.st2{opacity:0.88;fill:#02262B;}
</style>
<g>
	<g>
		<g class="st0">
			<path class="st1" d="M514.61,108.78c0-2.64,0.66-5.11,1.98-7.42c1.32-2.31,3.13-4.13,5.44-5.46c2.31-1.33,4.8-2,7.46-2
				c2.64,0,5.11,0.66,7.42,1.98c2.31,1.32,4.13,3.13,5.46,5.44c1.33,2.31,2,4.8,2,7.46c0,2.6-0.64,5.04-1.92,7.32
				c-1.28,2.28-3.08,4.11-5.38,5.48c-2.31,1.37-4.84,2.06-7.58,2.06c-2.73,0-5.25-0.68-7.56-2.05s-4.11-3.19-5.39-5.47
				C515.26,113.84,514.61,111.39,514.61,108.78z M516.69,108.78c0,2.28,0.57,4.42,1.72,6.4c1.15,1.99,2.71,3.55,4.7,4.69
				c1.99,1.14,4.11,1.71,6.38,1.71c2.3,0,4.43-0.57,6.39-1.72c1.97-1.15,3.53-2.7,4.68-4.66c1.16-1.96,1.73-4.1,1.73-6.42
				c0-2.3-0.57-4.43-1.72-6.39c-1.15-1.97-2.7-3.53-4.66-4.68c-1.96-1.15-4.1-1.73-6.42-1.73c-2.3,0-4.43,0.57-6.39,1.72
				c-1.97,1.15-3.53,2.7-4.68,4.66S516.69,106.45,516.69,108.78z M535.53,105.17c0,1.06-0.28,1.99-0.84,2.8s-1.35,1.42-2.37,1.81
				l4.71,7.82h-3.33l-4.1-7.01h-2.67v7.01h-2.93V99.97h5.17c2.19,0,3.8,0.43,4.82,1.29C535.02,102.11,535.53,103.42,535.53,105.17z
				 M526.94,108.16h2.14c1.06,0,1.9-0.27,2.54-0.82c0.64-0.55,0.96-1.24,0.96-2.09c0-0.99-0.28-1.7-0.85-2.13
				c-0.57-0.43-1.46-0.64-2.69-0.64h-2.1V108.16z"/>
		</g>
		<polygon class="st2" points="499.71,122.71 499.71,92.69 424.89,92.69 424.89,122.71 441.9,122.71 411.59,160.1 381.25,122.71 
			398.32,122.71 398.32,92.69 342.43,92.69 342.43,126.3 390.73,185.83 342.43,245.41 342.43,251.41 365.46,251.41 365.46,282.17 
			398.32,282.17 398.32,251.41 379.31,251.41 411.61,211.55 411.61,211.55 443.95,251.41 424.89,251.41 424.89,282.17 
			499.71,282.17 499.71,251.41 485.67,251.41 432.46,185.83 483.63,122.71 		"/>
		<polygon class="st1" points="323.16,92.69 323.16,122.71 339.52,122.71 342.43,126.3 342.43,92.69 		"/>
		<polygon class="st1" points="342.43,251.41 342.43,245.41 337.57,251.41 323.16,251.41 323.16,282.17 365.46,282.17 
			365.46,251.41 		"/>
		<path class="st1" d="M203.07,237.3h26.56c-3.15,7.8-7.57,14.91-13.03,21.05C210.96,252.21,206.36,245.09,203.07,237.3"/>
		<path class="st1" d="M216.6,159.15c-7.6,8.29-13.33,18.33-16.49,29.44c1.23,2.4,2.24,4.93,3.01,7.57h26.27
			c0.79-2.6,1.83-5.1,3.09-7.46C229.47,177.54,223.98,167.46,216.6,159.15z M203.13,196.17c1.17,3.98,1.79,8.2,1.79,12.58
			c0,4.12-0.55,8.11-1.59,11.89h25.87c-1.09-3.77-1.67-7.76-1.67-11.89c0-4.38,0.66-8.6,1.88-12.58H203.13z M203.13,196.17h-4.74
			c-0.71,4.09-1.08,8.29-1.08,12.58c0,4.05,0.33,8.02,0.96,11.89h5.06c1.04-3.77,1.59-7.76,1.59-11.89
			C204.91,204.37,204.29,200.14,203.13,196.17z"/>
		<path class="st2" d="M339.52,122.71h-16.36V92.69h-30.9v30.02h19.96v25.88c-11.61-8.35-25.86-13.24-41.51-13.24
			c-21.42,0-40.7,9.17-54.12,23.81c7.38,8.31,12.87,18.39,15.89,29.56c7.19-13.56,21.45-22.8,37.88-22.8
			c23.66,0,41.86,19.18,41.86,42.85v0.23c-0.12,23.56-18.27,42.61-41.86,42.61c-16.42,0-30.69-9.24-37.88-22.8l0,0
			c-1.37-2.57-2.48-5.31-3.3-8.16h-30.92c0.46,2.82,1.08,5.58,1.85,8.27c0.82,2.88,1.81,5.68,2.95,8.39h26.56
			c-3.15,7.8-7.57,14.91-13.03,21.05c13.42,14.63,32.7,23.81,54.12,23.81c15.65,0,29.9-4.9,41.51-13.24
			c3.97-2.86,7.63-6.12,10.94-9.73v-7.78h14.41l4.86-6V126.3L339.52,122.71z M312.22,268.91v13.26h10.94v-22.99
			C319.86,262.79,316.19,266.06,312.22,268.91z M200.11,188.59c-0.71,2.47-1.28,5-1.73,7.57h4.74
			C202.35,193.52,201.34,190.99,200.11,188.59z"/>
		<path class="st2" d="M234.1,196.17c-0.42-2.53-0.96-5.02-1.62-7.46c-1.26,2.36-2.3,4.86-3.09,7.46c-1.22,3.98-1.88,8.2-1.88,12.58
			c0,4.12,0.58,8.11,1.67,11.89h5.02c0.6-3.87,0.91-7.84,0.91-11.89C235.12,204.46,234.77,200.25,234.1,196.17z M163.41,135.34
			c-36.26,0-66.37,26.28-72.33,60.82h31.01c5.37-17.52,21.68-30.26,40.97-30.26c16.38,0,30.13,9.19,37.05,22.69
			c3.16-11.12,8.89-21.16,16.49-29.44C203.63,144.51,184.83,135.34,163.41,135.34z M194.46,237.3c-7.58,8.77-18.7,14.3-31.4,14.3
			c-19.54,0-36.02-13.08-41.18-30.96h76.38c-0.63-3.87-0.96-7.84-0.96-11.89c0-4.29,0.37-8.5,1.08-12.58H91.08
			c-0.71,4.09-1.08,8.29-1.08,12.58c0,4.05,0.33,8.02,0.96,11.89l0,0c5.68,34.89,35.96,61.52,72.45,61.52
			c21.42,0,40.22-9.17,53.19-23.81c-5.64-6.14-10.24-13.26-13.53-21.05H194.46z"/>
	</g>
	<g>
		<path class="st1" d="M128.52,352.77c0,4.4-0.82,8.17-2.46,11.3c-1.64,3.13-3.88,5.53-6.7,7.19c-2.83,1.66-6.03,2.49-9.61,2.49
			c-3.58,0-6.78-0.83-9.61-2.5c-2.83-1.67-5.06-4.07-6.7-7.2c-1.64-3.13-2.46-6.89-2.46-11.28c0-4.4,0.82-8.17,2.46-11.3
			s3.88-5.53,6.7-7.19c2.82-1.66,6.03-2.49,9.61-2.49c3.57,0,6.78,0.83,9.61,2.49c2.82,1.66,5.06,4.06,6.7,7.19
			S128.52,348.37,128.52,352.77z M121.08,352.77c0-3.1-0.48-5.71-1.45-7.85c-0.97-2.13-2.3-3.75-4-4.85
			c-1.7-1.1-3.66-1.64-5.88-1.64c-2.22,0-4.19,0.55-5.89,1.64c-1.7,1.1-3.04,2.72-4,4.85c-0.97,2.14-1.45,4.75-1.45,7.85
			s0.48,5.71,1.45,7.85c0.96,2.14,2.3,3.75,4,4.85c1.7,1.1,3.66,1.65,5.89,1.65c2.22,0,4.18-0.55,5.88-1.65
			c1.7-1.1,3.04-2.71,4-4.85C120.59,358.49,121.08,355.87,121.08,352.77z"/>
		<path class="st1" d="M142.44,355.25v17.95h-7.22v-30.64h6.9v5.21h0.36c0.7-1.72,1.83-3.08,3.38-4.09
			c1.55-1.01,3.47-1.52,5.76-1.52c2.11,0,3.96,0.45,5.53,1.36c1.58,0.9,2.8,2.21,3.67,3.93c0.87,1.72,1.3,3.8,1.29,6.24v19.51h-7.22
			v-18.39c0-2.05-0.53-3.65-1.59-4.81c-1.06-1.16-2.52-1.74-4.38-1.74c-1.27,0-2.38,0.28-3.36,0.83s-1.74,1.35-2.3,2.38
			C142.72,352.51,142.44,353.77,142.44,355.25z"/>
		<path class="st1" d="M176.69,332.35v40.85h-7.22v-40.85H176.69z"/>
		<path class="st1" d="M187.74,338.21c-1.16,0-2.14-0.38-2.96-1.15c-0.82-0.76-1.23-1.68-1.23-2.76c0-1.09,0.41-2.02,1.24-2.78
			s1.81-1.15,2.95-1.15c1.14,0,2.12,0.38,2.94,1.15c0.82,0.76,1.23,1.69,1.23,2.78c0,1.08-0.41,2-1.23,2.76
			C189.87,337.83,188.89,338.21,187.74,338.21z M184.11,373.2v-30.64h7.22v30.64H184.11z"/>
		<path class="st1" d="M205.98,355.25v17.95h-7.22v-30.64h6.9v5.21h0.36c0.7-1.72,1.83-3.08,3.38-4.09
			c1.55-1.01,3.47-1.52,5.76-1.52c2.11,0,3.96,0.45,5.53,1.36c1.58,0.9,2.8,2.21,3.67,3.93c0.87,1.72,1.3,3.8,1.29,6.24v19.51h-7.22
			v-18.39c0-2.05-0.53-3.65-1.59-4.81c-1.06-1.16-2.52-1.74-4.38-1.74c-1.27,0-2.38,0.28-3.36,0.83s-1.74,1.35-2.3,2.38
			C206.25,352.51,205.98,353.77,205.98,355.25z"/>
		<path class="st1" d="M246.57,373.8c-3.07,0-5.72-0.64-7.95-1.93c-2.23-1.28-3.94-3.11-5.14-5.46c-1.2-2.36-1.8-5.14-1.8-8.35
			c0-3.16,0.6-5.92,1.8-8.31s2.89-4.25,5.06-5.58c2.17-1.34,4.72-2,7.64-2c1.89,0,3.67,0.3,5.36,0.9c1.68,0.61,3.17,1.54,4.47,2.81
			c1.3,1.26,2.32,2.87,3.06,4.81c0.74,1.95,1.11,4.27,1.11,6.96v2.21h-25.11v-4.87h18.2c-0.02-1.38-0.32-2.62-0.9-3.7
			c-0.58-1.08-1.4-1.94-2.44-2.56s-2.26-0.94-3.64-0.94c-1.47,0-2.77,0.36-3.89,1.07s-1.98,1.64-2.6,2.79
			c-0.62,1.15-0.94,2.41-0.95,3.78v4.25c0,1.78,0.32,3.31,0.98,4.58c0.65,1.27,1.56,2.24,2.73,2.91c1.17,0.67,2.54,1.01,4.11,1.01
			c1.05,0,2-0.15,2.86-0.45c0.85-0.3,1.59-0.74,2.21-1.33c0.62-0.58,1.1-1.31,1.41-2.17l6.75,0.76c-0.43,1.78-1.24,3.34-2.42,4.66
			c-1.19,1.32-2.71,2.35-4.56,3.07C251.06,373.43,248.95,373.8,246.57,373.8z"/>
		<path class="st1" d="M315.54,346.13h-7.46c-0.21-1.22-0.61-2.31-1.18-3.26s-1.28-1.76-2.13-2.42c-0.85-0.67-1.82-1.17-2.9-1.51
			c-1.08-0.34-2.25-0.51-3.5-0.51c-2.22,0-4.19,0.55-5.9,1.66c-1.72,1.11-3.06,2.73-4.03,4.87c-0.97,2.13-1.45,4.74-1.45,7.81
			c0,3.13,0.48,5.76,1.46,7.89c0.98,2.14,2.32,3.74,4.03,4.83c1.71,1.08,3.67,1.63,5.87,1.63c1.22,0,2.37-0.16,3.44-0.49
			c1.07-0.32,2.03-0.81,2.89-1.45c0.86-0.64,1.58-1.42,2.17-2.35c0.59-0.93,1-2,1.23-3.19l7.46,0.04c-0.28,1.94-0.88,3.76-1.81,5.46
			c-0.92,1.7-2.13,3.2-3.62,4.5c-1.49,1.3-3.23,2.31-5.23,3.03c-2,0.73-4.21,1.09-6.64,1.09c-3.59,0-6.8-0.83-9.61-2.49
			c-2.82-1.66-5.04-4.06-6.66-7.2c-1.62-3.14-2.44-6.9-2.44-11.29c0-4.4,0.82-8.17,2.46-11.3c1.64-3.13,3.86-5.53,6.68-7.19
			c2.82-1.66,6.01-2.49,9.58-2.49c2.28,0,4.39,0.32,6.34,0.96c1.96,0.64,3.7,1.57,5.23,2.8c1.53,1.23,2.79,2.73,3.78,4.51
			C314.58,341.83,315.23,343.85,315.54,346.13z"/>
		<path class="st1" d="M330.83,373.82c-1.94,0-3.69-0.35-5.23-1.05c-1.55-0.7-2.77-1.73-3.67-3.1c-0.9-1.37-1.34-3.06-1.34-5.07
			c0-1.73,0.32-3.16,0.96-4.29c0.64-1.13,1.51-2.03,2.61-2.71c1.1-0.68,2.35-1.2,3.74-1.54c1.39-0.35,2.83-0.61,4.32-0.77
			c1.8-0.19,3.25-0.36,4.37-0.51c1.12-0.15,1.93-0.39,2.44-0.72c0.51-0.32,0.77-0.83,0.77-1.52v-0.12c0-1.5-0.45-2.67-1.34-3.49
			c-0.89-0.83-2.17-1.24-3.85-1.24c-1.77,0-3.17,0.39-4.2,1.15c-1.03,0.77-1.73,1.68-2.08,2.73l-6.75-0.96
			c0.53-1.86,1.41-3.42,2.63-4.68c1.22-1.26,2.72-2.2,4.49-2.83c1.77-0.63,3.72-0.94,5.86-0.94c1.48,0,2.95,0.17,4.41,0.52
			c1.47,0.35,2.8,0.91,4.01,1.7c1.21,0.79,2.19,1.87,2.93,3.22c0.74,1.36,1.11,3.05,1.11,5.09v20.51h-6.94v-4.21h-0.24
			c-0.44,0.85-1.05,1.65-1.84,2.39c-0.79,0.74-1.78,1.33-2.97,1.77C333.82,373.59,332.43,373.82,330.83,373.82z M332.71,368.51
			c1.45,0,2.71-0.29,3.77-0.87c1.06-0.58,1.88-1.35,2.46-2.3s0.87-2,0.87-3.13v-3.61c-0.23,0.18-0.61,0.36-1.15,0.52
			c-0.54,0.16-1.14,0.3-1.8,0.42c-0.67,0.12-1.32,0.23-1.98,0.32c-0.65,0.09-1.22,0.17-1.7,0.24c-1.08,0.14-2.04,0.39-2.89,0.72
			c-0.85,0.33-1.52,0.79-2.01,1.38c-0.49,0.59-0.74,1.36-0.74,2.28c0,1.33,0.48,2.33,1.46,3.01
			C329.97,368.17,331.2,368.51,332.71,368.51z"/>
		<path class="st1" d="M354.29,373.2v-30.64h6.9v5.21h0.36c0.64-1.75,1.69-3.13,3.17-4.12c1.47-0.99,3.24-1.48,5.28-1.48
			c2.07,0,3.83,0.5,5.26,1.5c1.43,1.01,2.44,2.37,3.02,4.1h0.32c0.68-1.7,1.83-3.06,3.44-4.08c1.61-1.02,3.53-1.52,5.76-1.52
			c2.82,0,5.12,0.89,6.9,2.67c1.78,1.78,2.67,4.38,2.67,7.8v20.57h-7.24v-19.45c0-1.9-0.51-3.29-1.52-4.18
			c-1.01-0.88-2.25-1.32-3.71-1.32c-1.74,0-3.1,0.54-4.08,1.62c-0.98,1.08-1.47,2.49-1.47,4.22v19.11h-7.08v-19.75
			c0-1.58-0.48-2.85-1.43-3.79c-0.95-0.94-2.19-1.41-3.72-1.41c-1.04,0-1.98,0.26-2.83,0.78c-0.85,0.53-1.53,1.27-2.04,2.21
			c-0.51,0.95-0.76,2.06-0.76,3.32v18.63H354.29z"/>
		<path class="st1" d="M404.72,384.69v-42.13h7.1v5.07h0.42c0.37-0.74,0.9-1.54,1.57-2.38c0.68-0.85,1.6-1.57,2.75-2.18
			c1.16-0.6,2.63-0.9,4.43-0.9c2.37,0,4.51,0.6,6.41,1.8c1.91,1.2,3.43,2.98,4.55,5.32c1.12,2.35,1.68,5.23,1.68,8.63
			c0,3.36-0.55,6.22-1.66,8.57c-1.11,2.35-2.61,4.15-4.51,5.39c-1.9,1.24-4.05,1.85-6.46,1.85c-1.75,0-3.21-0.29-4.37-0.88
			c-1.16-0.58-2.09-1.29-2.79-2.12c-0.69-0.83-1.24-1.62-1.62-2.36h-0.3v16.32H404.72z M411.8,357.88c0,1.98,0.28,3.72,0.85,5.21
			c0.57,1.49,1.38,2.65,2.46,3.48c1.07,0.83,2.37,1.25,3.9,1.25c1.59,0,2.93-0.43,4.01-1.29c1.08-0.86,1.89-2.04,2.44-3.53
			c0.55-1.5,0.83-3.2,0.83-5.11c0-1.9-0.27-3.59-0.82-5.07c-0.55-1.47-1.36-2.63-2.43-3.47c-1.08-0.84-2.42-1.26-4.03-1.26
			c-1.54,0-2.86,0.4-3.93,1.22c-1.08,0.81-1.89,1.95-2.44,3.41C412.08,354.17,411.8,355.9,411.8,357.88z"/>
		<path class="st1" d="M459.34,360.31v-17.75h7.22v30.64h-7v-5.45h-0.32c-0.69,1.72-1.83,3.12-3.4,4.21
			c-1.58,1.09-3.52,1.64-5.82,1.64c-2.01,0-3.78-0.45-5.32-1.35c-1.54-0.9-2.74-2.21-3.6-3.93c-0.87-1.72-1.3-3.81-1.3-6.25v-19.51
			h7.22v18.39c0,1.94,0.53,3.48,1.59,4.63c1.06,1.15,2.46,1.72,4.19,1.72c1.06,0,2.1-0.26,3.09-0.78c0.99-0.52,1.82-1.29,2.46-2.32
			C459.02,363.16,459.34,361.87,459.34,360.31z"/>
		<path class="st1" d="M498.2,350.66l-6.58,0.72c-0.19-0.67-0.51-1.29-0.97-1.88c-0.46-0.58-1.07-1.06-1.84-1.41
			c-0.77-0.36-1.72-0.54-2.83-0.54c-1.5,0-2.76,0.32-3.78,0.98c-1.01,0.65-1.52,1.5-1.5,2.53c-0.02,0.89,0.32,1.62,0.99,2.17
			c0.67,0.56,1.79,1.02,3.34,1.38l5.23,1.11c2.9,0.63,5.05,1.62,6.47,2.97c1.42,1.36,2.13,3.13,2.14,5.32
			c-0.01,1.93-0.58,3.63-1.68,5.1s-2.65,2.62-4.62,3.44c-1.97,0.82-4.23,1.24-6.78,1.24c-3.75,0-6.77-0.79-9.06-2.37
			c-2.28-1.57-3.65-3.77-4.09-6.59l7.04-0.68c0.32,1.38,1,2.43,2.03,3.13c1.04,0.7,2.39,1.06,4.05,1.06c1.72,0,3.09-0.35,4.14-1.06
			c1.04-0.71,1.57-1.58,1.57-2.61c0-0.88-0.34-1.6-1.01-2.18c-0.67-0.57-1.71-1.01-3.12-1.31l-5.23-1.1
			c-2.94-0.61-5.11-1.65-6.52-3.1c-1.41-1.46-2.11-3.3-2.1-5.54c-0.01-1.89,0.5-3.52,1.54-4.92c1.04-1.39,2.5-2.46,4.37-3.23
			c1.87-0.76,4.03-1.15,6.47-1.15c3.59,0,6.42,0.76,8.49,2.29C496.43,345.98,497.71,348.05,498.2,350.66z"/>
	</g>
</g>
</svg>
