<?xml version="1.0" encoding="UTF-8"?>
<svg width="474px" height="108px" viewBox="0 0 474 108" version="1.1" xmlns="http://www.w3.org/2000/svg" xmlns:xlink="http://www.w3.org/1999/xlink">
    <title>OE Global 2020 Online Conference</title>
    <g id="Page-1" stroke="none" stroke-width="1" fill="none" fill-rule="evenodd">
        <g id="Home---Tablet-Landscape" transform="translate(-99.000000, -176.000000)">
            <g id="Group-5" transform="translate(99.000000, 176.000000)">
                <g id="Group-3" transform="translate(0.000000, 55.000000)" fill-rule="nonzero">
                    <path d="M18.2297435,42.6033485 C21.4188712,42.6033485 24.2847765,41.9281728 26.8274593,40.5778214 C29.3701422,39.2274701 31.3669384,37.3599629 32.8178479,34.9752998 C34.2687573,32.5906367 34.994212,29.9042995 34.994212,26.9162879 C34.994212,23.9282764 34.2687573,21.2419391 32.8178479,18.857276 C31.3669384,16.472613 29.3701422,14.6051058 26.8274593,13.2547544 C24.2847765,11.904403 21.4188712,11.2292274 18.2297435,11.2292274 C15.0406158,11.2292274 12.1747105,11.904403 9.63202757,13.2547544 C7.08934468,14.6051058 5.09254851,16.472613 3.64163906,18.857276 C2.19072961,21.2419391 1.46527489,23.9282764 1.46527489,26.9162879 C1.46527489,29.9042995 2.19072961,32.5906367 3.64163906,34.9752998 C5.09254851,37.3599629 7.08934468,39.2274701 9.63202757,40.5778214 C12.1747105,41.9281728 15.0406158,42.6033485 18.2297435,42.6033485 Z M18.2297435,35.535552 C16.7070068,35.535552 15.3279246,35.176416 14.0924967,34.458144 C12.8570689,33.739872 11.8802189,32.7271084 11.1619469,31.4198534 C10.4436749,30.1125983 10.0845389,28.6114098 10.0845389,26.9162879 C10.0845389,25.221166 10.4436749,23.7199775 11.1619469,22.4127225 C11.8802189,21.1054674 12.8570689,20.0927039 14.0924967,19.3744319 C15.3279246,18.6561599 16.7070068,18.2970239 18.2297435,18.2970239 C19.7524801,18.2970239 21.1315624,18.6561599 22.3669902,19.3744319 C23.602418,20.0927039 24.579268,21.1054674 25.29754,22.4127225 C26.015812,23.7199775 26.374948,25.221166 26.374948,26.9162879 C26.374948,28.6114098 26.015812,30.1125983 25.29754,31.4198534 C24.579268,32.7271084 23.602418,33.739872 22.3669902,34.458144 C21.1315624,35.176416 19.7524801,35.535552 18.2297435,35.535552 Z M67.8723611,42 L67.8723611,35.406263 L52.0991079,35.406263 L52.0991079,29.889934 L65.5020635,29.889934 L65.5020635,23.5116786 L52.0991079,23.5116786 L52.0991079,18.4263128 L67.312109,18.4263128 L67.312109,11.8325758 L43.6522292,11.8325758 L43.6522292,42 L67.8723611,42 Z M96.0486681,42.6895411 C98.3184076,42.6895411 100.631243,42.359136 102.987176,41.6983258 C105.343108,41.0375155 107.411731,40.0893965 109.193046,38.8539686 L109.193046,38.8539686 L109.193046,26.0974578 L100.3583,26.0974578 L100.3583,33.7255065 C99.1803341,34.2139315 97.9449062,34.458144 96.6520166,34.458144 C94.4684697,34.458144 92.7230687,33.7686028 91.4158137,32.3895206 C90.1085586,31.0104383 89.4549311,29.1860274 89.4549311,26.9162879 C89.4549311,24.5890866 90.1157414,22.7503103 91.4373618,21.3999589 C92.7589823,20.0496076 94.5402969,19.3744319 96.7813056,19.3744319 C99.3958157,19.3744319 101.65119,20.4805708 103.547428,22.6928485 L103.547428,22.6928485 L110.054972,16.9610379 C108.503505,15.0647999 106.556988,13.6210731 104.215421,12.6298578 C101.873854,11.6386424 99.2234304,11.1430347 96.2641497,11.1430347 C92.9888294,11.1430347 90.0510969,11.8110277 87.4509522,13.1470136 C84.8508076,14.4829995 82.8252805,16.3505067 81.3743711,18.7495352 C79.9234616,21.1485637 79.1980069,23.8708146 79.1980069,26.9162879 C79.1980069,29.9617612 79.9234616,32.6840121 81.3743711,35.0830406 C82.8252805,37.4820691 84.8292594,39.3495763 87.3863077,40.6855622 C89.9433561,42.0215482 92.8308095,42.6895411 96.0486681,42.6895411 Z M141.510943,42 L141.510943,34.1133734 L127.892506,34.1133734 L127.892506,11.8325758 L117.721774,11.8325758 L117.721774,42 L141.510943,42 Z M163.87359,42.6895411 C167.120179,42.6895411 170.036363,42.0143654 172.622143,40.6640141 C175.207922,39.3136627 177.233449,37.4389728 178.698724,35.0399443 C180.163999,32.6409158 180.896636,29.9330303 180.896636,26.9162879 C180.896636,23.8995455 180.163999,21.19166 178.698724,18.7926316 C177.233449,16.3936031 175.207922,14.5189131 172.622143,13.1685618 C170.036363,11.8182104 167.120179,11.1430347 163.87359,11.1430347 C160.627,11.1430347 157.710816,11.8182104 155.125037,13.1685618 C152.539257,14.5189131 150.51373,16.3936031 149.048456,18.7926316 C147.583181,21.19166 146.850543,23.8995455 146.850543,26.9162879 C146.850543,29.9330303 147.583181,32.6409158 149.048456,35.0399443 C150.51373,37.4389728 152.539257,39.3136627 155.125037,40.6640141 C157.710816,42.0143654 160.627,42.6895411 163.87359,42.6895411 Z M163.87359,34.458144 C162.609431,34.458144 161.467378,34.149287 160.447432,33.5315731 C159.427486,32.9138592 158.615839,32.0375673 158.01249,30.9026975 C157.409142,29.7678278 157.107467,28.4390246 157.107467,26.9162879 C157.107467,25.3935513 157.409142,24.0647481 158.01249,22.9298783 C158.615839,21.7950085 159.427486,20.9187167 160.447432,20.3010028 C161.467378,19.6832888 162.609431,19.3744319 163.87359,19.3744319 C165.137748,19.3744319 166.279801,19.6832888 167.299747,20.3010028 C168.319693,20.9187167 169.131341,21.7950085 169.734689,22.9298783 C170.338038,24.0647481 170.639712,25.3935513 170.639712,26.9162879 C170.639712,28.4390246 170.338038,29.7678278 169.734689,30.9026975 C169.131341,32.0375673 168.319693,32.9138592 167.299747,33.5315731 C166.279801,34.149287 165.137748,34.458144 163.87359,34.458144 Z M205.75887,42 C209.896116,42 213.056513,41.2745453 215.24006,39.8236358 C217.423607,38.3727264 218.515381,36.3256512 218.515381,33.6824102 C218.515381,31.9010956 218.026956,30.378359 217.050106,29.1142002 C216.073256,27.8500415 214.694173,26.887557 212.912859,26.2267468 C214.291941,25.5372057 215.333436,24.6321829 216.037342,23.5116786 C216.741249,22.3911743 217.093202,21.1270156 217.093202,19.7192024 C217.093202,17.3345394 216.066073,15.4239359 214.011815,13.9873918 C211.957557,12.5508478 208.919267,11.8325758 204.896943,11.8325758 L204.896943,11.8325758 L188.77892,11.8325758 L188.77892,42 L205.75887,42 Z M203.517861,23.425486 L198.777266,23.425486 L198.777266,18.9434687 L203.517861,18.9434687 C205.730139,18.9434687 206.836278,19.6904716 206.836278,21.1844773 C206.836278,22.6784831 205.730139,23.425486 203.517861,23.425486 L203.517861,23.425486 Z M204.896943,34.8891072 L198.777266,34.8891072 L198.777266,30.1485119 L204.896943,30.1485119 C207.137952,30.1485119 208.258456,30.9386111 208.258456,32.5188095 C208.258456,34.099008 207.137952,34.8891072 204.896943,34.8891072 L204.896943,34.8891072 Z M233.336171,42 L235.361699,36.7422489 L246.82532,36.7422489 L248.850847,42 L259.366349,42 L246.178875,11.8325758 L236.180529,11.8325758 L222.993055,42 L233.336171,42 Z M244.024059,29.4158745 L238.162959,29.4158745 L241.093509,21.8309221 L244.024059,29.4158745 Z M288.969178,42 L288.969178,34.1133734 L275.35074,34.1133734 L275.35074,11.8325758 L265.180009,11.8325758 L265.180009,42 L288.969178,42 Z" id="OEGLOBAL" fill="#FFFFFF"></path>
                    <g id="2020" transform="translate(310.134150, 11.143035)" stroke="#FFFFFF" stroke-width="2">
                        <path d="M25.9439848,30.8569653 L25.9439848,22.9703387 L15.7732532,22.9703387 L20.0828852,19.0485735 C22.1227777,17.2097972 23.4946772,15.5649543 24.1985838,14.1140449 C24.9024904,12.6631354 25.2544437,11.1044852 25.2544437,9.43809413 C25.2544437,7.57058692 24.7372878,5.91856131 23.7029761,4.4820173 C22.6686644,3.0454733 21.2321204,1.93933441 19.3933441,1.16360065 C17.5545678,0.387866882 15.4428481,-1.13686838e-13 13.058185,-1.13686838e-13 C9.92651909,-1.13686838e-13 7.25454724,0.624896643 5.04226947,1.87468993 C2.8299917,3.12448322 1.14923521,4.82678787 2.84217094e-14,6.98160388 L2.84217094e-14,6.98160388 L7.671145,10.8171764 C8.1021082,9.92651909 8.71982213,9.23697797 9.52428677,8.74855301 C10.3287514,8.26012805 11.1906778,8.01591556 12.110066,8.01591556 C13.058185,8.01591556 13.7836398,8.22421445 14.2864302,8.64081221 C14.7892206,9.05740997 15.0406158,9.63921029 15.0406158,10.3862132 C15.0406158,10.9895617 14.8825959,11.6072756 14.5665562,12.2393549 C14.2505166,12.8714343 13.6184372,13.6328026 12.6703181,14.5234599 L12.6703181,14.5234599 L1.76694913,24.6079989 L1.76694913,30.8569653 L25.9439848,30.8569653 Z" id="2" fill="#FF5547"></path>
                        <path d="M45.8501415,31.5465064 C48.5221134,31.5465064 50.8852282,30.9216098 52.9394862,29.6718165 C54.9937441,28.4220232 56.6026734,26.6119777 57.766274,24.2416801 C58.9298747,21.8713825 59.511675,19.0485735 59.511675,15.7732532 C59.511675,12.4979329 58.9298747,9.67512389 57.766274,7.30482628 C56.6026734,4.93452867 54.9937441,3.12448322 52.9394862,1.87468993 C50.8852282,0.624896643 48.5221134,8.52651283e-14 45.8501415,8.52651283e-14 C43.1781696,8.52651283e-14 40.8150548,0.624896643 38.7607968,1.87468993 C36.7065389,3.12448322 35.0976096,4.93452867 33.934009,7.30482628 C32.7704083,9.67512389 32.188608,12.4979329 32.188608,15.7732532 C32.188608,19.0485735 32.7704083,21.8713825 33.934009,24.2416801 C35.0976096,26.6119777 36.7065389,28.4220232 38.7607968,29.6718165 C40.8150548,30.9216098 43.1781696,31.5465064 45.8501415,31.5465064 Z M45.8501415,23.4013019 C43.5516711,23.4013019 42.4024359,20.858619 42.4024359,15.7732532 C42.4024359,10.6878874 43.5516711,8.14520452 45.8501415,8.14520452 C48.1486119,8.14520452 49.2978471,10.6878874 49.2978471,15.7732532 C49.2978471,20.858619 48.1486119,23.4013019 45.8501415,23.4013019 Z" id="0" fill="#FFE525"></path>
                        <path d="M89.8902376,30.8569653 L89.8902376,22.9703387 L79.719506,22.9703387 L84.029138,19.0485735 C86.0690305,17.2097972 87.44093,15.5649543 88.1448366,14.1140449 C88.8487431,12.6631354 89.2006964,11.1044852 89.2006964,9.43809413 C89.2006964,7.57058692 88.6835406,5.91856131 87.6492289,4.4820173 C86.6149172,3.0454733 85.1783732,1.93933441 83.3395969,1.16360065 C81.5008205,0.387866882 79.3891009,-1.13686838e-13 77.0044378,-1.13686838e-13 C73.8727719,-1.13686838e-13 71.2008,0.624896643 68.9885222,1.87468993 C66.7762445,3.12448322 65.095488,4.82678787 63.9462528,6.98160388 L63.9462528,6.98160388 L71.6173978,10.8171764 C72.048361,9.92651909 72.6660749,9.23697797 73.4705395,8.74855301 C74.2750042,8.26012805 75.1369306,8.01591556 76.0563188,8.01591556 C77.0044378,8.01591556 77.7298925,8.22421445 78.2326829,8.64081221 C78.7354733,9.05740997 78.9868685,9.63921029 78.9868685,10.3862132 C78.9868685,10.9895617 78.8288487,11.6072756 78.512809,12.2393549 C78.1967693,12.8714343 77.56469,13.6328026 76.6165709,14.5234599 L76.6165709,14.5234599 L65.7132019,24.6079989 L65.7132019,30.8569653 L89.8902376,30.8569653 Z" id="2" fill="#00D100"></path>
                        <path d="M109.796394,31.5465064 C112.468366,31.5465064 114.831481,30.9216098 116.885739,29.6718165 C118.939997,28.4220232 120.548926,26.6119777 121.712527,24.2416801 C122.876127,21.8713825 123.457928,19.0485735 123.457928,15.7732532 C123.457928,12.4979329 122.876127,9.67512389 121.712527,7.30482628 C120.548926,4.93452867 118.939997,3.12448322 116.885739,1.87468993 C114.831481,0.624896643 112.468366,8.52651283e-14 109.796394,8.52651283e-14 C107.124422,8.52651283e-14 104.761308,0.624896643 102.70705,1.87468993 C100.652792,3.12448322 99.0438624,4.93452867 97.8802617,7.30482628 C96.7166611,9.67512389 96.1348608,12.4979329 96.1348608,15.7732532 C96.1348608,19.0485735 96.7166611,21.8713825 97.8802617,24.2416801 C99.0438624,26.6119777 100.652792,28.4220232 102.70705,29.6718165 C104.761308,30.9216098 107.124422,31.5465064 109.796394,31.5465064 Z M109.796394,23.4013019 C107.497924,23.4013019 106.348689,20.858619 106.348689,15.7732532 C106.348689,10.6878874 107.497924,8.14520452 109.796394,8.14520452 C112.094865,8.14520452 113.2441,10.6878874 113.2441,15.7732532 C113.2441,20.858619 112.094865,23.4013019 109.796394,23.4013019 Z" id="0" fill="#3D7AF5"></path>
                    </g>
                </g>
                <g id="online" transform="translate(295.000000, 0.000000)">
                    <rect id="Background" stroke="#FFFFFF" stroke-width="1.68" x="0" y="15.12" width="178.08" height="36.12"></rect>
                    <path d="M19.12512,38.20416 C20.11968,38.20416 21.01344,37.9936 21.8064,37.57248 C22.59936,37.15136 23.22208,36.56896 23.67456,35.82528 C24.12704,35.0816 24.35328,34.24384 24.35328,33.312 C24.35328,32.38016 24.12704,31.5424 23.67456,30.79872 C23.22208,30.05504 22.59936,29.47264 21.8064,29.05152 C21.01344,28.6304 20.11968,28.41984 19.12512,28.41984 C18.13056,28.41984 17.2368,28.6304 16.44384,29.05152 C15.65088,29.47264 15.02816,30.05504 14.57568,30.79872 C14.1232,31.5424 13.89696,32.38016 13.89696,33.312 C13.89696,34.24384 14.1232,35.0816 14.57568,35.82528 C15.02816,36.56896 15.65088,37.15136 16.44384,37.57248 C17.2368,37.9936 18.13056,38.20416 19.12512,38.20416 Z M19.12512,36 C18.65024,36 18.22016,35.888 17.83488,35.664 C17.4496,35.44 17.14496,35.12416 16.92096,34.71648 C16.69696,34.3088 16.58496,33.84064 16.58496,33.312 C16.58496,32.78336 16.69696,32.3152 16.92096,31.90752 C17.14496,31.49984 17.4496,31.184 17.83488,30.96 C18.22016,30.736 18.65024,30.624 19.12512,30.624 C19.6,30.624 20.03008,30.736 20.41536,30.96 C20.80064,31.184 21.10528,31.49984 21.32928,31.90752 C21.55328,32.3152 21.66528,32.78336 21.66528,33.312 C21.66528,33.84064 21.55328,34.3088 21.32928,34.71648 C21.10528,35.12416 20.80064,35.44 20.41536,35.664 C20.03008,35.888 19.6,36 19.12512,36 Z M29.19168,38.016 L29.19168,34.49472 C29.19168,33.92128 29.32384,33.4912 29.58816,33.20448 C29.85248,32.91776 30.20416,32.7744 30.6432,32.7744 C31.44064,32.7744 31.83936,33.27168 31.83936,34.26624 L31.83936,34.26624 L31.83936,38.016 L34.39296,38.016 L34.39296,33.8496 C34.39296,32.76544 34.11744,31.95456 33.5664,31.41696 C33.01536,30.87936 32.28736,30.61056 31.3824,30.61056 C30.91648,30.61056 30.4864,30.68896 30.09216,30.84576 C29.69792,31.00256 29.35744,31.2288 29.07072,31.52448 L29.07072,31.52448 L29.07072,30.73152 L26.63808,30.73152 L26.63808,38.016 L29.19168,38.016 Z M39.5539201,38.016 L39.5539201,28.04352 L37.0003201,28.04352 L37.0003201,38.016 L39.5539201,38.016 Z M43.4918401,29.92512 C43.9577601,29.92512 44.3340801,29.79296 44.6208001,29.52864 C44.9075201,29.26432 45.0508801,28.93056 45.0508801,28.52736 C45.0508801,28.14208 44.9075201,27.82624 44.6208001,27.57984 C44.3340801,27.33344 43.9577601,27.21024 43.4918401,27.21024 C43.0259201,27.21024 42.6496001,27.34016 42.3628801,27.6 C42.0761601,27.85984 41.9328001,28.1824 41.9328001,28.56768 C41.9328001,28.95296 42.0761601,29.27552 42.3628801,29.53536 C42.6496001,29.7952 43.0259201,29.92512 43.4918401,29.92512 Z M44.7686401,38.016 L44.7686401,30.73152 L42.2150401,30.73152 L42.2150401,38.016 L44.7686401,38.016 Z M49.9833602,38.016 L49.9833602,34.49472 C49.9833602,33.92128 50.1155202,33.4912 50.3798402,33.20448 C50.6441602,32.91776 50.9958402,32.7744 51.4348802,32.7744 C52.2323202,32.7744 52.6310402,33.27168 52.6310402,34.26624 L52.6310402,34.26624 L52.6310402,38.016 L55.1846402,38.016 L55.1846402,33.8496 C55.1846402,32.76544 54.9091202,31.95456 54.3580802,31.41696 C53.8070402,30.87936 53.0790402,30.61056 52.1740802,30.61056 C51.7081602,30.61056 51.2780802,30.68896 50.8838402,30.84576 C50.4896002,31.00256 50.1491202,31.2288 49.8624002,31.52448 L49.8624002,31.52448 L49.8624002,30.73152 L47.4297602,30.73152 L47.4297602,38.016 L49.9833602,38.016 Z M61.7164802,38.13696 C63.0784002,38.13696 64.1132802,37.74272 64.8211202,36.95424 L64.8211202,36.95424 L63.4771202,35.55648 C63.2172802,35.78048 62.9596802,35.94176 62.7043202,36.04032 C62.4489602,36.13888 62.1465602,36.18816 61.7971202,36.18816 C61.3312002,36.18816 60.9436802,36.08736 60.6345602,35.88576 C60.3254402,35.68416 60.1171202,35.3952 60.0096002,35.01888 L60.0096002,35.01888 L65.3049602,35.01888 C65.3318402,34.61568 65.3452802,34.40512 65.3452802,34.3872 C65.3452802,33.60768 65.1728002,32.93344 64.8278402,32.36448 C64.4828802,31.79552 64.0147202,31.36096 63.4233602,31.0608 C62.8320002,30.76064 62.1734402,30.61056 61.4476802,30.61056 C60.6860802,30.61056 60.0006402,30.77184 59.3913602,31.0944 C58.7820802,31.41696 58.3049602,31.86272 57.9600002,32.43168 C57.6150402,33.00064 57.4425602,33.64352 57.4425602,34.36032 C57.4425602,35.08608 57.6195202,35.73568 57.9734402,36.30912 C58.3273602,36.88256 58.8268802,37.33056 59.4720002,37.65312 C60.1171202,37.97568 60.8652802,38.13696 61.7164802,38.13696 Z M62.9529602,33.67488 L59.9692802,33.67488 C60.0409602,33.2896 60.2089602,32.98496 60.4732802,32.76096 C60.7376002,32.53696 61.0668802,32.42496 61.4611202,32.42496 C61.8553602,32.42496 62.1846402,32.53696 62.4489602,32.76096 C62.7132802,32.98496 62.8812802,33.2896 62.9529602,33.67488 L62.9529602,33.67488 Z M77.2665603,38.20416 C78.1267203,38.20416 78.9017603,38.05184 79.5916803,37.7472 C80.2816003,37.44256 80.8550403,37.00352 81.3120003,36.43008 L81.3120003,36.43008 L79.6185603,34.89792 C79.0092803,35.63264 78.2700803,36 77.4009603,36 C76.8902403,36 76.4355203,35.888 76.0368003,35.664 C75.6380803,35.44 75.3289603,35.12416 75.1094403,34.71648 C74.8899203,34.3088 74.7801603,33.84064 74.7801603,33.312 C74.7801603,32.78336 74.8899203,32.3152 75.1094403,31.90752 C75.3289603,31.49984 75.6380803,31.184 76.0368003,30.96 C76.4355203,30.736 76.8902403,30.624 77.4009603,30.624 C78.2700803,30.624 79.0092803,30.99136 79.6185603,31.72608 L79.6185603,31.72608 L81.3120003,30.19392 C80.8550403,29.62048 80.2816003,29.18144 79.5916803,28.8768 C78.9017603,28.57216 78.1267203,28.41984 77.2665603,28.41984 C76.2809603,28.41984 75.3961603,28.62816 74.6121603,29.0448 C73.8281603,29.46144 73.2121603,30.0416 72.7641603,30.78528 C72.3161603,31.52896 72.0921603,32.3712 72.0921603,33.312 C72.0921603,34.2528 72.3161603,35.09504 72.7641603,35.83872 C73.2121603,36.5824 73.8281603,37.16256 74.6121603,37.5792 C75.3961603,37.99584 76.2809603,38.20416 77.2665603,38.20416 Z M86.8089603,38.13696 C87.5974403,38.13696 88.3052803,37.97568 88.9324803,37.65312 C89.5596803,37.33056 90.0480003,36.88256 90.3974403,36.30912 C90.7468803,35.73568 90.9216003,35.08608 90.9216003,34.36032 C90.9216003,33.63456 90.7468803,32.9872 90.3974403,32.41824 C90.0480003,31.84928 89.5596803,31.40576 88.9324803,31.08768 C88.3052803,30.7696 87.5974403,30.61056 86.8089603,30.61056 C86.0204803,30.61056 85.3148803,30.7696 84.6921603,31.08768 C84.0694403,31.40576 83.5811203,31.85152 83.2272003,32.42496 C82.8732803,32.9984 82.6963203,33.64352 82.6963203,34.36032 C82.6963203,35.08608 82.8732803,35.73568 83.2272003,36.30912 C83.5811203,36.88256 84.0716803,37.33056 84.6988803,37.65312 C85.3260803,37.97568 86.0294403,38.13696 86.8089603,38.13696 Z M86.8089603,36.10752 C86.3609603,36.10752 85.9936003,35.95296 85.7068803,35.64384 C85.4201603,35.33472 85.2768003,34.90688 85.2768003,34.36032 C85.2768003,33.82272 85.4201603,33.4016 85.7068803,33.09696 C85.9936003,32.79232 86.3609603,32.64 86.8089603,32.64 C87.2569603,32.64 87.6243203,32.79232 87.9110403,33.09696 C88.1977603,33.4016 88.3411203,33.82272 88.3411203,34.36032 C88.3411203,34.90688 88.1977603,35.33472 87.9110403,35.64384 C87.6243203,35.95296 87.2569603,36.10752 86.8089603,36.10752 Z M95.6659204,38.016 L95.6659204,34.49472 C95.6659204,33.92128 95.7980804,33.4912 96.0624004,33.20448 C96.3267204,32.91776 96.6784004,32.7744 97.1174404,32.7744 C97.9148804,32.7744 98.3136004,33.27168 98.3136004,34.26624 L98.3136004,34.26624 L98.3136004,38.016 L100.8672,38.016 L100.8672,33.8496 C100.8672,32.76544 100.59168,31.95456 100.04064,31.41696 C99.4896004,30.87936 98.7616004,30.61056 97.8566404,30.61056 C97.3907204,30.61056 96.9606404,30.68896 96.5664004,30.84576 C96.1721604,31.00256 95.8316804,31.2288 95.5449604,31.52448 L95.5449604,31.52448 L95.5449604,30.73152 L93.1123204,30.73152 L93.1123204,38.016 L95.6659204,38.016 Z M106.32384,38.016 L106.32384,32.9088 L107.9904,32.9088 L107.9904,31.00032 L106.25664,31.00032 L106.25664,30.83904 C106.25664,30.52544 106.33056,30.288 106.4784,30.12672 C106.62624,29.96544 106.83456,29.8848 107.10336,29.8848 C107.3632,29.8848 107.61856,29.95648 107.86944,30.09984 L107.86944,30.09984 L108.50112,28.29888 C108.304,28.17344 108.05312,28.07936 107.74848,28.01664 C107.44384,27.95392 107.13024,27.92256 106.80768,27.92256 C105.84896,27.92256 105.10304,28.1824 104.56992,28.70208 C104.0368,29.22176 103.77024,29.92512 103.77024,30.81216 L103.77024,30.81216 L103.77024,31.00032 L102.70848,31.00032 L102.70848,32.9088 L103.77024,32.9088 L103.77024,38.016 L106.32384,38.016 Z M113.67552,38.13696 C115.03744,38.13696 116.07232,37.74272 116.78016,36.95424 L116.78016,36.95424 L115.43616,35.55648 C115.17632,35.78048 114.91872,35.94176 114.66336,36.04032 C114.408,36.13888 114.1056,36.18816 113.75616,36.18816 C113.29024,36.18816 112.90272,36.08736 112.5936,35.88576 C112.28448,35.68416 112.07616,35.3952 111.96864,35.01888 L111.96864,35.01888 L117.264,35.01888 C117.29088,34.61568 117.30432,34.40512 117.30432,34.3872 C117.30432,33.60768 117.13184,32.93344 116.78688,32.36448 C116.44192,31.79552 115.97376,31.36096 115.3824,31.0608 C114.79104,30.76064 114.13248,30.61056 113.40672,30.61056 C112.64512,30.61056 111.95968,30.77184 111.3504,31.0944 C110.74112,31.41696 110.264,31.86272 109.91904,32.43168 C109.57408,33.00064 109.4016,33.64352 109.4016,34.36032 C109.4016,35.08608 109.57856,35.73568 109.93248,36.30912 C110.2864,36.88256 110.78592,37.33056 111.43104,37.65312 C112.07616,37.97568 112.82432,38.13696 113.67552,38.13696 Z M114.912,33.67488 L111.92832,33.67488 C112,33.2896 112.168,32.98496 112.43232,32.76096 C112.69664,32.53696 113.02592,32.42496 113.42016,32.42496 C113.8144,32.42496 114.14368,32.53696 114.408,32.76096 C114.67232,32.98496 114.84032,33.2896 114.912,33.67488 L114.912,33.67488 Z M122.04864,38.016 L122.04864,34.66944 C122.04864,34.06016 122.2032,33.60768 122.51232,33.312 C122.82144,33.01632 123.24928,32.86848 123.79584,32.86848 C123.94816,32.86848 124.1408,32.88192 124.37376,32.9088 L124.37376,32.9088 L124.37376,30.61056 C123.83616,30.61056 123.35904,30.69344 122.9424,30.8592 C122.52576,31.02496 122.18752,31.2736 121.92768,31.60512 L121.92768,31.60512 L121.92768,30.73152 L119.49504,30.73152 L119.49504,38.016 L122.04864,38.016 Z M130.179841,38.13696 C131.541761,38.13696 132.576641,37.74272 133.284481,36.95424 L133.284481,36.95424 L131.940481,35.55648 C131.680641,35.78048 131.423041,35.94176 131.167681,36.04032 C130.912321,36.13888 130.609921,36.18816 130.260481,36.18816 C129.794561,36.18816 129.407041,36.08736 129.097921,35.88576 C128.788801,35.68416 128.580481,35.3952 128.472961,35.01888 L128.472961,35.01888 L133.768321,35.01888 C133.795201,34.61568 133.808641,34.40512 133.808641,34.3872 C133.808641,33.60768 133.636161,32.93344 133.291201,32.36448 C132.946241,31.79552 132.478081,31.36096 131.886721,31.0608 C131.295361,30.76064 130.636801,30.61056 129.911041,30.61056 C129.149441,30.61056 128.464001,30.77184 127.854721,31.0944 C127.245441,31.41696 126.768321,31.86272 126.423361,32.43168 C126.078401,33.00064 125.905921,33.64352 125.905921,34.36032 C125.905921,35.08608 126.082881,35.73568 126.436801,36.30912 C126.790721,36.88256 127.290241,37.33056 127.935361,37.65312 C128.580481,37.97568 129.328641,38.13696 130.179841,38.13696 Z M131.416321,33.67488 L128.432641,33.67488 C128.504321,33.2896 128.672321,32.98496 128.936641,32.76096 C129.200961,32.53696 129.530241,32.42496 129.924481,32.42496 C130.318721,32.42496 130.648001,32.53696 130.912321,32.76096 C131.176641,32.98496 131.344641,33.2896 131.416321,33.67488 L131.416321,33.67488 Z M138.552961,38.016 L138.552961,34.49472 C138.552961,33.92128 138.685121,33.4912 138.949441,33.20448 C139.213761,32.91776 139.565441,32.7744 140.004481,32.7744 C140.801921,32.7744 141.200641,33.27168 141.200641,34.26624 L141.200641,34.26624 L141.200641,38.016 L143.754241,38.016 L143.754241,33.8496 C143.754241,32.76544 143.478721,31.95456 142.927681,31.41696 C142.376641,30.87936 141.648641,30.61056 140.743681,30.61056 C140.277761,30.61056 139.847681,30.68896 139.453441,30.84576 C139.059201,31.00256 138.718721,31.2288 138.432001,31.52448 L138.432001,31.52448 L138.432001,30.73152 L135.999361,30.73152 L135.999361,38.016 L138.552961,38.016 Z M150.192001,38.13696 C151.016321,38.13696 151.728641,37.96 152.328961,37.60608 C152.929281,37.25216 153.354881,36.7616 153.605761,36.1344 L153.605761,36.1344 L151.630081,35.1264 C151.298561,35.78048 150.814721,36.10752 150.178561,36.10752 C149.721601,36.10752 149.343041,35.95296 149.042881,35.64384 C148.742721,35.33472 148.592641,34.90688 148.592641,34.36032 C148.592641,33.82272 148.742721,33.4016 149.042881,33.09696 C149.343041,32.79232 149.721601,32.64 150.178561,32.64 C150.814721,32.64 151.298561,32.96704 151.630081,33.62112 L151.630081,33.62112 L153.605761,32.61312 C153.354881,31.98592 152.929281,31.49536 152.328961,31.14144 C151.728641,30.78752 151.016321,30.61056 150.192001,30.61056 C149.385601,30.61056 148.664321,30.7696 148.028161,31.08768 C147.392001,31.40576 146.896961,31.84928 146.543041,32.41824 C146.189121,32.9872 146.012161,33.63456 146.012161,34.36032 C146.012161,35.08608 146.189121,35.73568 146.543041,36.30912 C146.896961,36.88256 147.392001,37.33056 148.028161,37.65312 C148.664321,37.97568 149.385601,38.13696 150.192001,38.13696 Z M159.317761,38.13696 C160.679681,38.13696 161.714561,37.74272 162.422401,36.95424 L162.422401,36.95424 L161.078401,35.55648 C160.818561,35.78048 160.560961,35.94176 160.305601,36.04032 C160.050241,36.13888 159.747841,36.18816 159.398401,36.18816 C158.932481,36.18816 158.544961,36.08736 158.235841,35.88576 C157.926721,35.68416 157.718401,35.3952 157.610881,35.01888 L157.610881,35.01888 L162.906241,35.01888 C162.933121,34.61568 162.946561,34.40512 162.946561,34.3872 C162.946561,33.60768 162.774081,32.93344 162.429121,32.36448 C162.084161,31.79552 161.616001,31.36096 161.024641,31.0608 C160.433281,30.76064 159.774721,30.61056 159.048961,30.61056 C158.287361,30.61056 157.601921,30.77184 156.992641,31.0944 C156.383361,31.41696 155.906241,31.86272 155.561281,32.43168 C155.216321,33.00064 155.043841,33.64352 155.043841,34.36032 C155.043841,35.08608 155.220801,35.73568 155.574721,36.30912 C155.928641,36.88256 156.428161,37.33056 157.073281,37.65312 C157.718401,37.97568 158.466561,38.13696 159.317761,38.13696 Z M160.554241,33.67488 L157.570561,33.67488 C157.642241,33.2896 157.810241,32.98496 158.074561,32.76096 C158.338881,32.53696 158.668161,32.42496 159.062401,32.42496 C159.456641,32.42496 159.785921,32.53696 160.050241,32.76096 C160.314561,32.98496 160.482561,33.2896 160.554241,33.67488 L160.554241,33.67488 Z" id="OnlineConference" fill="#FFFFFF" fill-rule="nonzero"></path>
                    <polygon id="Path-2" stroke="#FFFFFF" stroke-width="1.68" stroke-linejoin="bevel" points="177.81627 51.576 157.08 66.4216055 157.08 51.576"></polygon>
                </g>
            </g>
        </g>
    </g>
</svg>
