<svg xmlns="http://www.w3.org/2000/svg" xmlns:xlink="http://www.w3.org/1999/xlink" viewBox="0 0 121.26 63.87"><defs><style>.a{fill:none;}.b{clip-path:url(#a);}.c{fill:#184780;}.d{clip-path:url(#f);}.e{fill:url(#g);}.f{clip-path:url(#h);}.g{fill:url(#i);}.h{clip-path:url(#j);}.i{fill:url(#k);}.j{clip-path:url(#l);}.k{fill:url(#m);}.l{clip-path:url(#n);}.m{fill:url(#o);}.n{isolation:isolate;}</style><clipPath id="a" transform="translate(0 -2.24)"><rect class="a" y="26.33" width="122.6" height="39.78"/></clipPath><clipPath id="f" transform="translate(0 -2.24)"><path class="a" d="M7.84,58.23a18.18,18.18,0,0,1-1.31-1.46h5.14a30.54,30.54,0,0,0,3.64,5.85,17.12,17.12,0,0,1-7.47-4.39m6.62-1.46H18.8v6.11a29.18,29.18,0,0,1-4.34-6.11m6.81,0H25.9a33.65,33.65,0,0,1-4.63,6.15Zm7.38,0h4.88a17.26,17.26,0,0,1-8.69,5.83,26.93,26.93,0,0,0,3.81-5.83M2.84,47.28H9.32a23.75,23.75,0,0,0,1.34,7H4.9a16.83,16.83,0,0,1-2.06-7m2.06-9.5h5.76a23.75,23.75,0,0,0-1.34,7H2.84a16.83,16.83,0,0,1,2.06-7m19.94-8.3a17.19,17.19,0,0,1,8.69,5.83H28.65a26.93,26.93,0,0,0-3.81-5.83m-17,4.37a17.24,17.24,0,0,1,7.47-4.4,31,31,0,0,0-3.64,5.86H6.53a18.18,18.18,0,0,1,1.31-1.46m11-4.65v6.11H14.46A29.18,29.18,0,0,1,18.8,29.2m2.47,0a33.65,33.65,0,0,1,4.63,6.15H21.27ZM.32,46a19.71,19.71,0,0,0,36.33,10.6l.15-.22h0a11.54,11.54,0,0,0,.91-1.78l.12-.35H13.32a21.17,21.17,0,0,1-1.53-7,1.23,1.23,0,0,0,0-.26l0-1,0-1V44.8h0a21.22,21.22,0,0,1,1.53-7H37.8l-.12-.34a13.2,13.2,0,0,0-2.27-3.72A19.71,19.71,0,0,0,.32,46"/></clipPath><linearGradient id="g" x1="-1108.93" y1="110.25" x2="-1108.31" y2="110.25" gradientTransform="translate(-7015.95 -70698.25) rotate(-90) scale(63.81)" gradientUnits="userSpaceOnUse"><stop offset="0" stop-color="#fff"/><stop offset="0.03" stop-color="#ececf2"/><stop offset="0.25" stop-color="#8c92b5"/><stop offset="0.43" stop-color="#536596"/><stop offset="0.56" stop-color="#2b4f86"/><stop offset="0.62" stop-color="#184780"/><stop offset="1" stop-color="#184780"/></linearGradient><clipPath id="h" transform="translate(0 -2.24)"><polygon class="a" points="18.07 38.23 16.11 38.23 15.9 38.23 15.86 38.44 15.45 40.4 15.39 40.71 17.88 40.71 17.92 40.5 18.33 38.55 18.39 38.23 18.07 38.23"/></clipPath><linearGradient id="i" x1="-1262.73" y1="318.3" x2="-1262.12" y2="318.3" gradientTransform="translate(-1259.2 -5023.96) rotate(-90) scale(4.01)" gradientUnits="userSpaceOnUse"><stop offset="0" stop-color="#fff"/><stop offset="0" stop-color="#ececf2"/><stop offset="0.01" stop-color="#8c92b5"/><stop offset="0.03" stop-color="#536596"/><stop offset="0.03" stop-color="#2b4f86"/><stop offset="0.04" stop-color="#184780"/><stop offset="1" stop-color="#184780"/></linearGradient><clipPath id="j" transform="translate(0 -2.24)"><polygon class="a" points="17.09 42.29 15.36 42.29 15.15 42.29 15.1 42.5 13.11 51.91 13.04 52.23 15.31 52.23 15.35 52.02 17.35 42.61 17.41 42.29 17.09 42.29"/></clipPath><linearGradient id="k" x1="-1139.3" y1="151.75" x2="-1138.69" y2="151.75" gradientTransform="translate(-2424.75 -18268.88) rotate(-90) scale(16.08)" gradientUnits="userSpaceOnUse"><stop offset="0" stop-color="#a5b1cf"/><stop offset="0.07" stop-color="#919dc0"/><stop offset="0.22" stop-color="#6e7da8"/><stop offset="0.38" stop-color="#526898"/><stop offset="0.53" stop-color="#3b598d"/><stop offset="0.69" stop-color="#284f86"/><stop offset="0.84" stop-color="#1c4982"/><stop offset="1" stop-color="#184780"/></linearGradient><clipPath id="l" transform="translate(0 -2.24)"><path class="a" d="M36.46,43.92a1.17,1.17,0,0,1,.92.4,2,2,0,0,1,.27,1.46H34.29c.43-1.31,1.14-1.93,2.17-1.86M33.8,42.7a6.87,6.87,0,0,0-2.22,5c0,1.84.46,3.07,1.39,3.77,1.11.83,2.85.88,5.32.16l.15,0,0-.16.3-1.65.09-.47-.44.19c-.74.3-2.87.92-3.88.13a2.06,2.06,0,0,1-.56-2l5.36,0h.21l0-.2a5.57,5.57,0,0,0-.38-4.24A3.24,3.24,0,0,0,37,41.86a4.08,4.08,0,0,0-.77-.07,3.83,3.83,0,0,0-2.47.91"/></clipPath><linearGradient id="m" x1="-1137.54" y1="148.59" x2="-1136.93" y2="148.59" gradientTransform="translate(-2460.33 -19058.98) rotate(-90) scale(16.8)" xlink:href="#k"/><clipPath id="n" transform="translate(0 -2.24)"><path class="a" d="M19.79,49.76a2,2,0,0,1-.72-1.71,4.12,4.12,0,0,1,1.32-3.35,2.94,2.94,0,0,1,2.83-.12l.19.06a6.21,6.21,0,0,0-.6,3.44A8.35,8.35,0,0,0,23,49.52l-.44.18a5,5,0,0,1-1.69.34,2,2,0,0,1-1.12-.28m6.93.5c-1,0-1.59-.88-1.59-2.24,0-2.34.73-3.64,2.21-4a1.26,1.26,0,0,1,1.1.28,2.53,2.53,0,0,1,.86,1.94,5.31,5.31,0,0,1-1.36,3.47,1.69,1.69,0,0,1-1.16.53h-.06M32.85,38h-2l0,.21L30,43a3.31,3.31,0,0,0-2.85-1,4.9,4.9,0,0,0-3.59,2.36l.38-1.5L24,42.6l-.25-.06c-2.16-.58-3.89-.38-5.13.6a6.23,6.23,0,0,0-1.93,5.18,3.92,3.92,0,0,0,1.5,3.33,5,5,0,0,0,4.08.39l.13,0,0-.13L23,50l.11-.42a3.44,3.44,0,0,0,1.68,2.36,4.38,4.38,0,0,0,3.66-.35c0,.06,0,.14,0,.24l-.07.32h2.14l0-.23c.13-1,2.62-13.51,2.65-13.63l.06-.32h-.32Z"/></clipPath><linearGradient id="o" x1="-1126.91" y1="134.5" x2="-1126.29" y2="134.5" gradientTransform="translate(-3092.21 -26066.1) rotate(-90) scale(23.17)" xlink:href="#k"/></defs><title>op-outlined</title><g class="b"><path class="c" d="M35.51,54.65H13a21.24,21.24,0,0,1-1.54-7,1.21,1.21,0,0,0,0-.26l0-1,0-1v-.27h0a21.13,21.13,0,0,1,1.54-7H37.49l-.12-.34a14,14,0,0,0-2.27-3.73A19.72,19.72,0,0,0,0,46.39,19.73,19.73,0,0,0,19.71,66.11,19.65,19.65,0,0,0,36.34,57l.14-.22h0A10.68,10.68,0,0,0,37.38,55l.13-.35h-2ZM21,63.28V57.12h4.63A33,33,0,0,1,21,63.28M24.53,63a27.22,27.22,0,0,0,3.8-5.84h4.88A17.25,17.25,0,0,1,24.53,63M21,29.51a33,33,0,0,1,4.63,6.16H21Zm7.38,6.16a26.64,26.64,0,0,0-3.81-5.84,17.17,17.17,0,0,1,8.69,5.84ZM18.48,63.23a29,29,0,0,1-4.33-6.11h4.33ZM15,29.81a30.19,30.19,0,0,0-3.63,5.86H6.21A18.53,18.53,0,0,1,7.52,34.2,17.22,17.22,0,0,1,15,29.81m-.84,5.86a29,29,0,0,1,4.33-6.11v6.11Zm-9.57,19a17.09,17.09,0,0,1-2.06-7H9a23.45,23.45,0,0,0,1.35,7Zm0-16.51h5.77a23.45,23.45,0,0,0-1.35,7H2.52a17,17,0,0,1,2.06-7m6.78,19A30.19,30.19,0,0,0,15,63a17.32,17.32,0,0,1-7.47-4.39c-.46-.46-.89-1-1.31-1.47Z" transform="translate(0 -2.24)"/></g><g class="b"><polygon class="c" points="17.56 38.82 17.6 38.62 18.01 36.66 18.07 36.35 17.75 36.35 15.8 36.35 15.59 36.35 15.54 36.55 15.14 38.51 15.07 38.82 15.39 38.82 17.35 38.82 17.56 38.82"/></g><g class="b"><polygon class="c" points="14.83 40.41 14.79 40.62 12.79 50.03 12.72 50.34 13.05 50.34 14.78 50.34 14.99 50.34 15.04 50.14 17.03 40.72 17.1 40.41 16.77 40.41 15.04 40.41 14.83 40.41"/></g><g class="b"><path class="c" d="M38.89,43.55a3.17,3.17,0,0,0-2.16-1.33,3.83,3.83,0,0,0-3.25.83,6.85,6.85,0,0,0-2.21,5c0,1.84.45,3.07,1.39,3.78,1.1.82,2.84.88,5.31.16l.15-.05,0-.16.31-1.64.08-.47-.44.18c-.74.3-2.87.92-3.88.14a2.09,2.09,0,0,1-.56-2L39,48h.21l0-.21a5.61,5.61,0,0,0-.39-4.24m-1.56,2.58H34c.42-1.31,1.14-1.92,2.17-1.86a1.2,1.2,0,0,1,.91.4,1.9,1.9,0,0,1,.27,1.46" transform="translate(0 -2.24)"/></g><g class="b"><path class="c" d="M28,52.5h2.14l0-.22c.12-1,2.62-13.51,2.64-13.63l.06-.32H30.58l0,.22-.84,4.76a3.3,3.3,0,0,0-2.84-1,4.89,4.89,0,0,0-3.6,2.36l.38-1.5L23.7,43l-.24-.07c-2.17-.58-3.9-.37-5.14.61a6.24,6.24,0,0,0-1.93,5.17A3.9,3.9,0,0,0,17.9,52a5,5,0,0,0,4.08.39l.13,0,0-.14.49-1.85.11-.43a3.41,3.41,0,0,0,1.69,2.36A4.35,4.35,0,0,0,28.09,52c0,.06,0,.13-.05.24Zm1-5.88a5.26,5.26,0,0,1-1.36,3.47,1.63,1.63,0,0,1-1.22.53c-1,0-1.58-.88-1.58-2.24,0-2.34.72-3.64,2.2-4a1.32,1.32,0,0,1,1.11.27A2.55,2.55,0,0,1,29,46.62m-6.69,3.43a3.45,3.45,0,0,1-2.82.06,2,2,0,0,1-.71-1.71,4.09,4.09,0,0,1,1.31-3.34,3,3,0,0,1,2.84-.13l.19.07a6.28,6.28,0,0,0-.61,3.43,9.74,9.74,0,0,0,.24,1.45Z" transform="translate(0 -2.24)"/></g><g class="d"><rect class="e" x="0.32" y="24.09" width="37.51" height="39.43"/></g><g class="f"><rect class="g" x="15.39" y="35.99" width="3" height="2.48"/></g><g class="h"><rect class="i" x="13.04" y="40.06" width="4.37" height="9.94"/></g><g class="j"><rect class="k" x="31.58" y="39.55" width="8.4" height="10.6"/></g><g class="l"><rect class="m" x="16.64" y="35.74" width="16.53" height="14.66"/></g><g class="n"><path class="c" d="M44,35.61h.67v4.66H44Z" transform="translate(0 -2.24)"/><path class="c" d="M45.88,35.61h.91l2.05,3.75h0V35.61h.66v4.66h-.85l-2.11-3.83h0v3.83h-.67Z" transform="translate(0 -2.24)"/><path class="c" d="M51.63,36.2H50.19v-.59h3.56v.59H52.3v4.07h-.67Z" transform="translate(0 -2.24)"/><path class="c" d="M54.45,35.61h2.61v.59H55.12v1.36h1.76v.59H55.12v1.53h1.94v.59H54.45Z" transform="translate(0 -2.24)"/><path class="c" d="M58.09,35.61h1.14c.92,0,1.81.15,1.81,1.26a1.09,1.09,0,0,1-1,1.06v0a.81.81,0,0,1,.45.46l.88,1.86h-.76l-.72-1.62c-.2-.45-.42-.45-.78-.45h-.4v2.07h-.66Zm.66,2h.57c.63,0,1-.28,1-.72s-.32-.69-.94-.69h-.64Z" transform="translate(0 -2.24)"/><path class="c" d="M62.2,35.61h.91l2,3.75h0V35.61h.67v4.66H65l-2.11-3.83h0v3.83H62.2Z" transform="translate(0 -2.24)"/><path class="c" d="M68.5,35.61h.7l2,4.66h-.72L70,39.09H67.68l-.47,1.18h-.7Zm.32.63-.92,2.31h1.85Z" transform="translate(0 -2.24)"/><path class="c" d="M72.27,36.2H70.83v-.59h3.56v.59H72.94v4.07h-.67Z" transform="translate(0 -2.24)"/><path class="c" d="M75.06,35.61h.66v4.66h-.66Z" transform="translate(0 -2.24)"/><path class="c" d="M78.91,35.53a2.19,2.19,0,0,1,2.24,2.41,2.25,2.25,0,1,1-4.48,0A2.2,2.2,0,0,1,78.91,35.53Zm0,4.23c1.08,0,1.54-.89,1.54-1.82s-.51-1.83-1.54-1.82-1.53.87-1.53,1.82S77.84,39.76,78.91,39.76Z" transform="translate(0 -2.24)"/><path class="c" d="M82.1,35.61H83l2.06,3.75h0V35.61h.67v4.66h-.85l-2.11-3.83h0v3.83H82.1Z" transform="translate(0 -2.24)"/><path class="c" d="M88.4,35.61h.7l2,4.66h-.72l-.48-1.18H87.58l-.47,1.18h-.7Zm.32.63-.92,2.31h1.85Z" transform="translate(0 -2.24)"/><path class="c" d="M91.73,35.61h.67v4.07h1.95v.59H91.73Z" transform="translate(0 -2.24)"/></g><g class="n"><path class="c" d="M47.25,44.39a1.82,1.82,0,0,0-1-.26,1.82,1.82,0,0,0,0,3.64,2.32,2.32,0,0,0,1-.23l0,.65a3.07,3.07,0,0,1-1.06.16,2.29,2.29,0,0,1-2.46-2.42,2.32,2.32,0,0,1,2.46-2.39,2.52,2.52,0,0,1,1,.2Z" transform="translate(0 -2.24)"/><path class="c" d="M50.11,43.54A2.2,2.2,0,0,1,52.35,46a2.25,2.25,0,1,1-4.48,0A2.2,2.2,0,0,1,50.11,43.54Zm0,4.23c1.08,0,1.54-.9,1.54-1.82s-.51-1.83-1.54-1.82S48.58,45,48.58,46,49,47.77,50.11,47.77Z" transform="translate(0 -2.24)"/><path class="c" d="M56.92,46.35c0,1.3-.66,2-1.8,2s-1.81-.7-1.81-2V43.62H54v2.64c0,.89.28,1.51,1.14,1.51s1.14-.62,1.14-1.51V43.62h.66Z" transform="translate(0 -2.24)"/><path class="c" d="M58.11,43.62H59l2.06,3.75h0V43.62h.66v4.65H60.9l-2.11-3.82h0v3.82h-.67Z" transform="translate(0 -2.24)"/><path class="c" d="M66.15,44.39a1.8,1.8,0,0,0-1-.26,1.82,1.82,0,0,0,0,3.64,2.28,2.28,0,0,0,1-.23l0,.65a3,3,0,0,1-1.06.16,2.29,2.29,0,0,1-2.45-2.42,2.32,2.32,0,0,1,2.46-2.39,2.55,2.55,0,0,1,1,.2Z" transform="translate(0 -2.24)"/><path class="c" d="M67,43.62h.66v4.65H67Z" transform="translate(0 -2.24)"/><path class="c" d="M68.87,43.62h.66v4.07h2v.58H68.87Z" transform="translate(0 -2.24)"/><path class="c" d="M74,43.62H76.5v.59H74.69v1.36h1.73v.58H74.69v2.12H74Z" transform="translate(0 -2.24)"/><path class="c" d="M79.4,43.54A2.2,2.2,0,0,1,81.64,46a2.25,2.25,0,1,1-4.48,0A2.2,2.2,0,0,1,79.4,43.54Zm0,4.23c1.07,0,1.53-.9,1.53-1.82s-.5-1.83-1.53-1.82S77.87,45,77.87,46,78.33,47.77,79.4,47.77Z" transform="translate(0 -2.24)"/><path class="c" d="M82.55,43.62h1.14c.92,0,1.81.15,1.81,1.26a1.08,1.08,0,0,1-1,1.06h0c.21.08.31.18.45.47l.88,1.85h-.76l-.71-1.61c-.21-.45-.43-.45-.78-.45h-.4v2.06h-.67Zm.67,2h.57c.63,0,1-.28,1-.73s-.32-.68-.93-.68h-.64Z" transform="translate(0 -2.24)"/><path class="c" d="M90.52,43.54A2.19,2.19,0,0,1,92.76,46a2.25,2.25,0,1,1-4.48,0A2.2,2.2,0,0,1,90.52,43.54Zm0,4.23c1.08,0,1.54-.9,1.54-1.82s-.51-1.83-1.54-1.82S89,45,89,46,89.45,47.77,90.52,47.77Z" transform="translate(0 -2.24)"/><path class="c" d="M93.68,43.62H94.9c.95,0,1.74.33,1.74,1.39s-.8,1.4-1.64,1.4h-.66v1.86h-.66Zm.66,2.21H95a.84.84,0,0,0,.94-.82c0-.59-.62-.8-1-.8h-.57Z" transform="translate(0 -2.24)"/><path class="c" d="M97.46,43.62h2.61v.59H98.13v1.36h1.76v.58H98.13v1.54h1.94v.58H97.46Z" transform="translate(0 -2.24)"/><path class="c" d="M101.13,43.62H102l2,3.75h0V43.62h.67v4.65h-.85l-2.11-3.82h0v3.82h-.67Z" transform="translate(0 -2.24)"/><path class="c" d="M109.28,43.62h.7l2,4.65h-.73l-.47-1.17h-2.28L108,48.27h-.7Zm.33.63-.93,2.3h1.86Z" transform="translate(0 -2.24)"/><path class="c" d="M112.62,43.62h.91l2,3.75h0V43.62h.67v4.65h-.85l-2.11-3.82h0v3.82h-.67Z" transform="translate(0 -2.24)"/><path class="c" d="M117.41,43.62h1.37a2.28,2.28,0,0,1,2.48,2.29,2.2,2.2,0,0,1-2.48,2.36h-1.37Zm.66,4.07h.7a1.57,1.57,0,0,0,1.78-1.76,1.62,1.62,0,0,0-1.7-1.72h-.78Z" transform="translate(0 -2.24)"/></g><g class="n"><path class="c" d="M44,51.63h1.38a2.28,2.28,0,0,1,2.48,2.29,2.2,2.2,0,0,1-2.48,2.36H44Zm.67,4.07h.7a1.57,1.57,0,0,0,1.78-1.76,1.62,1.62,0,0,0-1.7-1.73h-.78Z" transform="translate(0 -2.24)"/><path class="c" d="M48.85,51.63h.67v4.65h-.67Z" transform="translate(0 -2.24)"/><path class="c" d="M52.82,52.33a2,2,0,0,0-.87-.2c-.38,0-.82.14-.82.62,0,.9,2,.69,2,2.23,0,1-.76,1.38-1.7,1.38a3.15,3.15,0,0,1-1-.19l.07-.62a2.82,2.82,0,0,0,1,.23c.38,0,.92-.22.92-.76,0-1.05-2-.76-2-2.21,0-.82.65-1.26,1.49-1.26a3.15,3.15,0,0,1,1,.16Z" transform="translate(0 -2.24)"/><path class="c" d="M55,52.21H53.52v-.58h3.56v.58H55.64v4.07H55Z" transform="translate(0 -2.24)"/><path class="c" d="M58.86,51.63h.7l2,4.65H60.8l-.47-1.17H58.05l-.48,1.17h-.7Zm.33.62-.93,2.31h1.85Z" transform="translate(0 -2.24)"/><path class="c" d="M62.2,51.63h.91l2,3.75h0V51.63h.67v4.65H65l-2.11-3.82h0v3.82H62.2Z" transform="translate(0 -2.24)"/><path class="c" d="M70.24,52.39a1.92,1.92,0,0,0-1-.26,1.83,1.83,0,0,0,0,3.65,2.32,2.32,0,0,0,1-.23l0,.65a3.07,3.07,0,0,1-1.06.16,2.29,2.29,0,0,1-2.46-2.43,2.32,2.32,0,0,1,2.46-2.38,2.52,2.52,0,0,1,1.05.2Z" transform="translate(0 -2.24)"/><path class="c" d="M71.13,51.63h2.61v.58H71.8v1.37h1.77v.58H71.8V55.7h1.94v.58H71.13Z" transform="translate(0 -2.24)"/><path class="c" d="M76.7,51.63h2.61v.58H77.37v1.37h1.76v.58H77.37V55.7h1.94v.58H76.7Z" transform="translate(0 -2.24)"/><path class="c" d="M80.34,51.63h1.37a2.28,2.28,0,0,1,2.48,2.29,2.2,2.2,0,0,1-2.48,2.36H80.34ZM81,55.7h.7a1.57,1.57,0,0,0,1.78-1.76,1.62,1.62,0,0,0-1.7-1.73H81Z" transform="translate(0 -2.24)"/><path class="c" d="M88.82,54.36c0,1.3-.66,2-1.81,2s-1.81-.7-1.81-2V51.63h.67v2.64c0,.89.28,1.51,1.14,1.51s1.14-.62,1.14-1.51V51.63h.67Z" transform="translate(0 -2.24)"/><path class="c" d="M93.23,52.39a1.92,1.92,0,0,0-1-.26,1.83,1.83,0,0,0,0,3.65,2.32,2.32,0,0,0,1-.23l0,.65a3.07,3.07,0,0,1-1.06.16,2.29,2.29,0,0,1-2.46-2.43,2.32,2.32,0,0,1,2.46-2.38,2.52,2.52,0,0,1,1,.2Z" transform="translate(0 -2.24)"/><path class="c" d="M95.56,51.63h.7l2,4.65H97.5L97,55.11H94.75l-.47,1.17h-.7Zm.33.62L95,54.56h1.86Z" transform="translate(0 -2.24)"/><path class="c" d="M99.34,52.21H97.89v-.58h3.56v.58H100v4.07h-.67Z" transform="translate(0 -2.24)"/><path class="c" d="M102.12,51.63h.67v4.65h-.67Z" transform="translate(0 -2.24)"/><path class="c" d="M106,51.55A2.2,2.2,0,0,1,108.22,54a2.25,2.25,0,1,1-4.48,0A2.2,2.2,0,0,1,106,51.55Zm0,4.23c1.07,0,1.53-.9,1.53-1.82s-.5-1.83-1.53-1.83-1.53.88-1.53,1.83S104.91,55.78,106,55.78Z" transform="translate(0 -2.24)"/><path class="c" d="M109.17,51.63h.9l2.05,3.75h0V51.63h.67v4.65H112l-2.11-3.82h0v3.82h-.66Z" transform="translate(0 -2.24)"/></g><g class="n"><g class="n"><path class="c" d="M.68,8.54A7,7,0,0,1,2.12,4.07,4.7,4.7,0,0,1,6,2.24,5,5,0,0,1,10.08,3.9a6.94,6.94,0,0,1,1.41,4.64A7.11,7.11,0,0,1,10,13.29a5.15,5.15,0,0,1-4.18,1.76A4.51,4.51,0,0,1,2,13.31,7.66,7.66,0,0,1,.68,8.54ZM3,8.54a6.4,6.4,0,0,0,.73,3.36,2.35,2.35,0,0,0,2.14,1.19,2.92,2.92,0,0,0,2.51-1.16,5.62,5.62,0,0,0,.87-3.39Q9.21,4.19,6,4.19A2.55,2.55,0,0,0,3.74,5.37,5.68,5.68,0,0,0,3,8.54Z" transform="translate(0 -2.24)"/><path class="c" d="M15.63,10.28v4.55h-2.2V2.47L16,2.38a8,8,0,0,1,4.29.89,3.14,3.14,0,0,1,1.35,2.81q0,4.26-5,4.26C16.38,10.34,16,10.32,15.63,10.28Zm0-5.91v4a8.59,8.59,0,0,0,.88.06,3.81,3.81,0,0,0,2.19-.5,1.9,1.9,0,0,0,.7-1.64c0-1.28-1-1.92-3.1-1.92A4.73,4.73,0,0,0,15.63,4.37Z" transform="translate(0 -2.24)"/><path class="c" d="M25.78,4.41v2.9h4.09V9.17H25.78v3.71h5.61v1.95h-7.8V2.46h7.89v2Z" transform="translate(0 -2.24)"/><path class="c" d="M41.54,15l-6-7.83v7.67H33.43V2.46h1l5.85,7.47V2.46h2.11V15Z" transform="translate(0 -2.24)"/></g><g class="n"><path class="c" d="M52.38,10.28v4.55H50.19V2.47l2.56-.09A7.93,7.93,0,0,1,57,3.27,3.13,3.13,0,0,1,58.4,6.08q0,4.26-5,4.26C53.13,10.34,52.8,10.32,52.38,10.28Zm0-5.91v4a8.77,8.77,0,0,0,.88.06,3.84,3.84,0,0,0,2.2-.5,1.9,1.9,0,0,0,.69-1.64c0-1.28-1-1.92-3.1-1.92A4.92,4.92,0,0,0,52.38,4.37Z" transform="translate(0 -2.24)"/><path class="c" d="M67.32,14.83,64,9.72c-.34,0-.8,0-1.4-.05v5.16H60.34V2.46l1.43-.06c.83,0,1.49-.07,2-.07q4.71,0,4.71,3.65a3.3,3.3,0,0,1-.65,2A3.49,3.49,0,0,1,66.2,9.26l3.65,5.57ZM62.62,4.37V7.81c.41,0,.72.05.93.05a4,4,0,0,0,2-.39A1.63,1.63,0,0,0,66.2,6a1.31,1.31,0,0,0-.68-1.28,6.33,6.33,0,0,0-2.9-.31Z" transform="translate(0 -2.24)"/></g><g class="n"><path class="c" d="M79,14.83l-.91-2.5H73.85L73,14.83H70.55L75.48,2.29h1l5,12.54ZM76,6.08l-1.48,4.56h3Z" transform="translate(0 -2.24)"/></g><g class="n"><path class="c" d="M89.84,14.83l-2.93-4.45-2.7,4.45H81.92l3.71-6.41-3.41-6h2.24L87,6.64l2.77-4.18H92l-3.92,6,4.12,6.37Z" transform="translate(0 -2.24)"/></g><g class="n"><path class="c" d="M94,14.83V2.46h2.2V14.83Z" transform="translate(0 -2.24)"/></g><g class="n"><path class="c" d="M98.61,14.15l.81-2a4.45,4.45,0,0,0,2.56.91c1.29,0,1.93-.45,1.93-1.35a1.91,1.91,0,0,0-.45-1.2,5.7,5.7,0,0,0-1.88-1.29,9.06,9.06,0,0,1-1.92-1.18A3.11,3.11,0,0,1,98.9,7a3.53,3.53,0,0,1-.27-1.4,3.07,3.07,0,0,1,1.06-2.39,3.87,3.87,0,0,1,2.69-.94,5.08,5.08,0,0,1,3.16.8l-.67,1.89a4.14,4.14,0,0,0-2.44-.82,1.62,1.62,0,0,0-1.18.4,1.36,1.36,0,0,0-.42,1c0,.71.79,1.45,2.36,2.21A8.14,8.14,0,0,1,105,8.89a3.51,3.51,0,0,1,.83,1.19,3.75,3.75,0,0,1,.29,1.52,3,3,0,0,1-1.18,2.47,4.9,4.9,0,0,1-3.19,1A5.63,5.63,0,0,1,98.61,14.15Z" transform="translate(0 -2.24)"/></g></g></svg>