<svg xmlns="http://www.w3.org/2000/svg" xmlns:xlink="http://www.w3.org/1999/xlink" viewBox="0 0 230.38 143.99"><defs><style>.cls-1{fill:url(#linear-gradient);}.cls-2{fill:#fff;}</style><linearGradient id="linear-gradient" x1="8.04" y1="6.84" x2="222.89" y2="137.48" gradientUnits="userSpaceOnUse"><stop offset="0" stop-color="#4498e6"/><stop offset="1" stop-color="#56d0ac"/></linearGradient></defs><title>grasple-color</title><g id="Layer_2" data-name="Layer 2"><g id="Layer_1-2" data-name="Layer 1"><rect class="cls-1" width="230.38" height="143.99" rx="6.88"/><path class="cls-2" d="M64.28,48.9V59.62a18.24,18.24,0,0,1-11,3.88A15.1,15.1,0,0,1,37.9,48.56c0-8.31,6.88-14.85,15.58-14.85a16.74,16.74,0,0,1,10.89,4l-1.94,2.53a13.61,13.61,0,0,0-9-3.42,11.72,11.72,0,1,0,0,23.42,14.07,14.07,0,0,0,7.77-2.49V48.9Z"/><path class="cls-2" d="M75.3,46a8.33,8.33,0,0,1,8-5.07V44.3c-4.69-.09-7.6,2.83-8,7.22V63.33H72V41.09H75.3Z"/><path class="cls-2" d="M101.81,59.91c-1.77,2.41-4.6,3.59-8.15,3.59-4.6,0-7.55-3-7.55-6.79s3.08-6.33,8.31-6.38h7.31V49c0-3.25-2-5.2-6-5.2a12.28,12.28,0,0,0-7,2.54L87.33,44a14.93,14.93,0,0,1,9.08-3c5.48,0,8.52,2.92,8.56,7.69l0,14.68h-3.21Zm0-4.26V53H94.85c-3.72,0-5.66,1.14-5.66,3.59s2,4.05,5.11,4.05C98.05,60.63,100.92,58.73,101.77,55.65Z"/><path class="cls-2" d="M127,43l-1.38,2.62a13.62,13.62,0,0,0-6.58-1.82c-2.71,0-4.78.89-4.78,3,0,4.94,13.52,2.4,13.52,10.38,0,4.39-4.23,6.33-8.88,6.33a14.45,14.45,0,0,1-9.29-3.12L111,57.85a12.94,12.94,0,0,0,8,2.82c2.85,0,5.15-1,5.2-3.16.14-5.36-13.43-2.62-13.39-10.51,0-4.26,4-6,8.42-6A14.9,14.9,0,0,1,127,43Z"/><path class="cls-2" d="M155.71,52.28c0,6.58-4.3,11.18-10.59,11.18a9.29,9.29,0,0,1-8.65-4.9v13h-3.3V41.09h3.3V45.9A9.23,9.23,0,0,1,145,41C151.32,41,155.71,45.61,155.71,52.28Zm-3.33-.09c0-4.77-3.29-8.27-7.94-8.27s-8,3.46-8,8.27,3.29,8.27,8,8.27S152.38,57,152.38,52.19Z"/><path class="cls-2" d="M161.37,63.33V32h3.29V63.33Z"/><path class="cls-2" d="M192.06,53.5H173.91A7.78,7.78,0,0,0,182,60.59a9.27,9.27,0,0,0,6.88-2.79l1.81,2a11.68,11.68,0,0,1-8.94,3.71c-6.55,0-11.06-4.6-11.06-11.23S175.22,41,181.67,41C188.85,41,192.39,46,192.06,53.5Zm-3-2.7c-.21-4.26-3.08-7-7.43-7a7.5,7.5,0,0,0-7.76,7Z"/><path class="cls-2" d="M58.34,87.14a4.76,4.76,0,1,1-4.76-4.72A4.56,4.56,0,0,1,58.34,87.14Zm-8.12,0a3.37,3.37,0,1,0,3.36-3.48A3.28,3.28,0,0,0,50.22,87.16Z"/><path class="cls-2" d="M70.74,87.18a4.39,4.39,0,0,1-4.47,4.72,4,4,0,0,1-3.66-2.07V95.3H61.22V82.45h1.39v2a3.91,3.91,0,0,1,3.62-2.09A4.44,4.44,0,0,1,70.74,87.18Zm-1.41,0A3.36,3.36,0,1,0,66,90.63,3.31,3.31,0,0,0,69.33,87.14Z"/><path class="cls-2" d="M81.77,87.69H74.11a3.29,3.29,0,0,0,3.4,3,3.89,3.89,0,0,0,2.9-1.18l.77.82A4.93,4.93,0,0,1,77.4,91.9a4.74,4.74,0,0,1,0-9.48C80.41,82.4,81.91,84.5,81.77,87.69Zm-1.25-1.14a2.93,2.93,0,0,0-3.14-2.94,3.16,3.16,0,0,0-3.27,2.94Z"/><path class="cls-2" d="M93.37,86.05v5.8H92V86.43a2.43,2.43,0,0,0-2.66-2.64,3.05,3.05,0,0,0-3.15,3v5H84.78v-9.4h1.39v2.07A3.7,3.7,0,0,1,89.8,82.4,3.32,3.32,0,0,1,93.37,86.05Z"/><path class="cls-2" d="M109.69,87.69H102a3.3,3.3,0,0,0,3.41,3,3.91,3.91,0,0,0,2.9-1.18l.77.82a4.93,4.93,0,0,1-3.78,1.57,4.74,4.74,0,0,1,0-9.48C108.33,82.4,109.83,84.5,109.69,87.69Zm-1.25-1.14a2.93,2.93,0,0,0-3.14-2.94A3.18,3.18,0,0,0,102,86.55Z"/><path class="cls-2" d="M118,82.45h1.53L116.35,87l3.37,4.83h-1.63L115.42,88l-2.76,3.84h-1.57L114.51,87l-3.19-4.57h1.6l2.5,3.57Z"/><path class="cls-2" d="M129.91,87.69h-7.67a3.3,3.3,0,0,0,3.41,3,3.89,3.89,0,0,0,2.9-1.18l.77.82a4.93,4.93,0,0,1-3.78,1.57,4.74,4.74,0,0,1,0-9.48C128.55,82.4,130.05,84.5,129.91,87.69Zm-1.25-1.14a2.93,2.93,0,0,0-3.14-2.94,3.18,3.18,0,0,0-3.28,2.94Z"/><path class="cls-2" d="M134,84.54a3.51,3.51,0,0,1,3.36-2.14v1.41a3.11,3.11,0,0,0-3.36,3v5h-1.39v-9.4H134Z"/><path class="cls-2" d="M147.24,83.81l-.77,1a3.93,3.93,0,0,0-2.79-1.09,3.47,3.47,0,0,0,0,6.93,3.65,3.65,0,0,0,2.9-1.21l.8.86a4.74,4.74,0,0,1-3.76,1.62,4.74,4.74,0,0,1,0-9.48A4.81,4.81,0,0,1,147.24,83.81Z"/><path class="cls-2" d="M151.64,79.76a.91.91,0,1,1-.91-1A.91.91,0,0,1,151.64,79.76Zm-1.59,12.09v-9.4h1.37v9.4Z"/><path class="cls-2" d="M161.15,83.25l-.58,1.11a6,6,0,0,0-2.81-.77c-1.15,0-2,.38-2,1.25,0,2.09,5.76,1,5.76,4.39,0,1.85-1.81,2.67-3.78,2.67a6.16,6.16,0,0,1-4-1.32l.59-1a5.5,5.5,0,0,0,3.42,1.19c1.22,0,2.2-.41,2.22-1.33.06-2.27-5.72-1.11-5.7-4.44,0-1.8,1.7-2.55,3.58-2.55A6.43,6.43,0,0,1,161.15,83.25Z"/><path class="cls-2" d="M172.11,87.69h-7.66a3.3,3.3,0,0,0,3.41,3,3.91,3.91,0,0,0,2.9-1.18l.77.82a4.93,4.93,0,0,1-3.78,1.57,4.74,4.74,0,0,1,0-9.48C170.76,82.4,172.26,84.5,172.11,87.69Zm-1.24-1.14a2.93,2.93,0,0,0-3.14-2.94,3.18,3.18,0,0,0-3.28,2.94Z"/><path class="cls-2" d="M181.13,83.25l-.59,1.11a5.88,5.88,0,0,0-2.8-.77c-1.16,0-2,.38-2,1.25,0,2.09,5.76,1,5.76,4.39,0,1.85-1.8,2.67-3.78,2.67a6.16,6.16,0,0,1-4-1.32l.59-1a5.53,5.53,0,0,0,3.43,1.19c1.21,0,2.19-.41,2.21-1.33.06-2.27-5.72-1.11-5.7-4.44,0-1.8,1.71-2.55,3.59-2.55A6.45,6.45,0,0,1,181.13,83.25Z"/><path class="cls-2" d="M52.25,100.89V102h2.48v1H52.25v7.34H51v-7.34H49.87v-1H51v-1a2.72,2.72,0,0,1,2.77-2.9,3.25,3.25,0,0,1,1.86.6l-.53,1a2.33,2.33,0,0,0-1.31-.45A1.46,1.46,0,0,0,52.25,100.89Z"/><path class="cls-2" d="M64.3,106.06a4.38,4.38,0,1,1-4.38-4.35A4.19,4.19,0,0,1,64.3,106.06Zm-7.48,0a3.1,3.1,0,1,0,3.1-3.21A3,3,0,0,0,56.82,106.08Z"/><path class="cls-2" d="M68,103.66a3.26,3.26,0,0,1,3.11-2V103A2.88,2.88,0,0,0,68,105.8v4.59H66.75v-8.65H68Z"/><path class="cls-2" d="M92.09,105.06v5.33H90.81v-5a2.22,2.22,0,0,0-2.4-2.44c-1.79,0-2.82,1.33-2.82,3.18v4.25h-1.3v-5a2.21,2.21,0,0,0-2.4-2.44,2.87,2.87,0,0,0-2.84,3.18v4.25H77.79v-8.65h1.26v2a3.34,3.34,0,0,1,3.3-2,2.94,2.94,0,0,1,3.1,2.27,3.35,3.35,0,0,1,3.42-2.27A3,3,0,0,1,92.09,105.06Z"/><path class="cls-2" d="M100.52,109.06a3.72,3.72,0,0,1-3.17,1.4,2.68,2.68,0,0,1-2.93-2.64c0-1.51,1.19-2.47,3.23-2.48h2.84v-.51c0-1.27-.79-2-2.32-2a4.83,4.83,0,0,0-2.74,1l-.54-.93a5.8,5.8,0,0,1,3.53-1.17c2.14,0,3.32,1.13,3.33,3l0,5.71h-1.25Zm0-1.65v-1h-2.7c-1.44,0-2.2.44-2.2,1.4s.78,1.57,2,1.57A2.81,2.81,0,0,0,100.51,107.41Z"/><path class="cls-2" d="M109.31,109.8a3.68,3.68,0,0,1-2,.66c-1.26,0-2.2-.76-2.2-2.46v-5h-1.24v-1h1.24V99.74h1.27V102l2.74,0v1h-2.74v4.72c0,1,.41,1.44,1.15,1.44a2.69,2.69,0,0,0,1.38-.44Z"/><path class="cls-2" d="M119.78,105.06v5.33H118.5v-5a2.24,2.24,0,0,0-2.44-2.43,2.88,2.88,0,0,0-2.93,3.17v4.25h-1.28V98.21h1.28v5.47a3.4,3.4,0,0,1,3.37-2A3.06,3.06,0,0,1,119.78,105.06Z"/><path class="cls-2" d="M133.86,108.7a5,5,0,0,1-3.57,1.76,3.24,3.24,0,0,1-3.41-3.15c0-1.68,1.26-2.55,2.61-3.27a4.52,4.52,0,0,1-1.18-2.71,2.54,2.54,0,0,1,2.8-2.48,2.38,2.38,0,0,1,2.66,2.32c0,1.56-1.41,2.36-2.84,3.12.71.82,1.64,1.77,2.79,2.9a10.85,10.85,0,0,0,1.19-2.23l.87.67a11.71,11.71,0,0,1-1.3,2.3l2,1.95-.69.73Zm-.74-.74c-1.27-1.26-2.3-2.31-3.07-3.21-1.14.62-2.09,1.31-2.09,2.46a2.23,2.23,0,0,0,2.38,2.2A3.85,3.85,0,0,0,133.12,108Zm-2.76-4.36c1.26-.66,2.36-1.28,2.36-2.43a1.43,1.43,0,0,0-1.61-1.43,1.6,1.6,0,0,0-1.75,1.57A4,4,0,0,0,130.36,103.6Z"/><path class="cls-2" d="M148.74,102.48l-.54,1a5.38,5.38,0,0,0-2.59-.71c-1.06,0-1.88.35-1.88,1.15,0,1.92,5.32.94,5.32,4,0,1.71-1.67,2.46-3.49,2.46a5.67,5.67,0,0,1-3.65-1.21l.54-1a5.09,5.09,0,0,0,3.16,1.1c1.12,0,2-.38,2-1.23.06-2.09-5.27-1-5.25-4.09,0-1.66,1.57-2.35,3.3-2.35A6,6,0,0,1,148.74,102.48Z"/><path class="cls-2" d="M155.67,109.8a3.68,3.68,0,0,1-2,.66c-1.26,0-2.2-.76-2.2-2.46v-5h-1.25v-1h1.25V99.74h1.27V102l2.74,0v1h-2.74v4.72c0,1,.41,1.44,1.15,1.44a2.63,2.63,0,0,0,1.37-.44Z"/><path class="cls-2" d="M163.42,109.06a3.72,3.72,0,0,1-3.17,1.4,2.68,2.68,0,0,1-2.94-2.64c0-1.51,1.2-2.47,3.23-2.48h2.84v-.51c0-1.27-.79-2-2.31-2a4.8,4.8,0,0,0-2.74,1l-.55-.93a5.82,5.82,0,0,1,3.53-1.17c2.14,0,3.32,1.13,3.34,3v5.71h-1.24Zm0-1.65v-1h-2.69c-1.45,0-2.2.44-2.2,1.4s.77,1.57,2,1.57A2.81,2.81,0,0,0,163.4,107.41Z"/><path class="cls-2" d="M172.28,109.8a3.65,3.65,0,0,1-1.95.66c-1.27,0-2.2-.76-2.2-2.46v-5h-1.25v-1h1.25V99.74h1.26V102l2.74,0v1h-2.74v4.72c0,1,.41,1.44,1.15,1.44a2.66,2.66,0,0,0,1.38-.44Z"/><path class="cls-2" d="M180.25,102.48l-.54,1a5.37,5.37,0,0,0-2.58-.71c-1.07,0-1.88.35-1.88,1.15,0,1.92,5.31.94,5.31,4,0,1.71-1.66,2.46-3.49,2.46a5.71,5.71,0,0,1-3.65-1.21l.55-1a5.09,5.09,0,0,0,3.16,1.1c1.12,0,2-.38,2-1.23.05-2.09-5.28-1-5.26-4.09,0-1.66,1.57-2.35,3.31-2.35A5.9,5.9,0,0,1,180.25,102.48Z"/></g></g></svg>