<svg xmlns="http://www.w3.org/2000/svg" viewBox="0 0 512.32 144.16"><defs><style>.cls-1{fill:#99999a;}.cls-2{fill:#a18f61;}.cls-3{fill:#044274;}</style></defs><title>taiwanoec</title><g id="Layer_2" data-name="Layer 2"><g id="圖層_1" data-name="圖層 1"><path class="cls-1" d="M154.41,112l-.76,1a15.26,15.26,0,0,0-3.19-3.19v10h-1.22v-9.22c-1.12,1.09-2,1.88-2.59,2.36l-1-1a20.17,20.17,0,0,0,6.42-7.43h-6.26v-1.21h7.69v1.11a24.67,24.67,0,0,1-2.61,4.14A20.59,20.59,0,0,1,154.41,112Zm-3.6-9.65-1.18.41a13.46,13.46,0,0,0-1.73-2.84l1.2-.46A18.91,18.91,0,0,1,150.81,102.32Zm15.06,17H153.65v-1.2h5.63V106.42h-5V105.2h5V99.68h1.23v5.52h4.83v1.22h-4.83V118.1h5.36Z"/><path class="cls-1" d="M188,120h-1.19v-1.62H171.07v1.5h-1.18V100.26H188Zm-1.19-2.71v-16H171.07v16Zm-1.1-13.4h-6.17v1h5.25v5h-1.29a16.57,16.57,0,0,1,1.59,2l-.86.53a6.76,6.76,0,0,0-.46-.7c-3.59.3-7.37.51-11.31.63l-.26-1q2.28,0,6.17-.22v-1.24h-5.18v-5h5.18v-1h-6.11v-.92h6.11v-.88h1.17v.88h6.17Zm0,10.38h-2.8v.93a1.11,1.11,0,0,1-.52,1,4,4,0,0,1-2,.33,10.17,10.17,0,0,1-1.25-.06l-.31-.94c.28,0,.69,0,1.23,0a4.5,4.5,0,0,0,1.47-.12.36.36,0,0,0,.19-.33v-.88H172.2v-.92h9.52v-1h1.15v1h2.8Zm-7.32-7.4v-1.08h-4v1.08Zm0,2v-1.14h-4v1.14ZM177.22,116l-.9.51a7.76,7.76,0,0,0-1.44-1.47l.88-.58A4.25,4.25,0,0,1,177.22,116Zm6.37-9.19v-1.08h-4.07v1.08Zm0,2v-1.14h-4.07v1.14Zm-.64,1.84-.56-.6.41-.29h-3.28V111Z"/><path class="cls-1" d="M196.93,112.11a42.64,42.64,0,0,1-4.1,7.74l-1-.74a37.72,37.72,0,0,0,4.14-7.67Zm0-3.67-.86.93a17,17,0,0,0-3.82-3l.74-1A19.61,19.61,0,0,1,196.91,108.44Zm.42-5.73-.84.86a19.41,19.41,0,0,0-3.75-3l.76-.9A19.54,19.54,0,0,1,197.33,102.71Zm14.77,7.39h-7.25a40,40,0,0,1-5,7.91,78.9,78.9,0,0,0,9.28-1.58,32.19,32.19,0,0,0-2.49-3.62l1-.61a39.63,39.63,0,0,1,4.41,7.1l-1,.72a16,16,0,0,0-1.32-2.57,115,115,0,0,1-11.4,1.87l-.48-1.24a7.79,7.79,0,0,0,2.66-2.78,38.25,38.25,0,0,0,3-5.2h-5.67V109h6.64v-4.56h-5.56v-1.15h5.56V99.65h1.18v3.59h5.47v1.15h-5.47V109h6.51Z"/><path class="cls-1" d="M235.25,119l-.9.91a22.64,22.64,0,0,1-9.26-14q-1.47,8.1-9.2,13.91l-.83-1a22.45,22.45,0,0,0,4.8-4.48,20,20,0,0,0,3.32-5.94,28.78,28.78,0,0,0,1.22-8.78h1.28A23.41,23.41,0,0,0,228.23,111,22.35,22.35,0,0,0,235.25,119Z"/><path class="cls-1" d="M258,119.71H238.44v-1h9.22v-1.37h-7.87v-.94h7.87v-1.27c-1.11,0-3.38,0-6.84,0l-.19-1a6.39,6.39,0,0,0,3.86-1.63h-3.11v-.92h13.77v.92h-1.51a26.93,26.93,0,0,1,2.33,2.6l-.88.69a6.28,6.28,0,0,0-.82-1c-2.5.13-4.3.21-5.42.25v1.32h7.85v.94h-7.85v1.37H258Zm0-17.88h-9.09V103H257v1H239.55v-1h8.13v-1.18h-9.17v-1h9.17V99.78h1.23v1.06H258Zm-.33,10.74h-1.21v-2.16H240.12v2.09H239v-3.06h18.72Zm-2.18-4.25h-14.4v-3.21h14.4Zm-1.22-1v-1.24h-12v1.24Zm-1,6.61a8.59,8.59,0,0,0-.81-.84l.53-.51H246.2a7.93,7.93,0,0,1-2.56,1.7C245.48,114.29,248.67,114.17,253.23,113.94Z"/><path class="cls-1" d="M265.25,112.5a46.62,46.62,0,0,1-3.11,7.37l-.92-.69a50,50,0,0,0,3.08-7.34Zm-.17-4.45-.71.9a20.11,20.11,0,0,0-3.11-2.75l.77-.93A23.57,23.57,0,0,1,265.08,108.05Zm.51-5.57-.78.87a21.32,21.32,0,0,0-3.13-2.77l.77-.88A20.75,20.75,0,0,1,265.59,102.48Zm1.23,5.64a19.18,19.18,0,0,1-.79,2.49l-.95-.33a11.72,11.72,0,0,0,.81-2.45Zm3.83-1.21-.88.33a1.73,1.73,0,0,0-.21-.53c-1.24.27-2.49.49-3.76.64l-.37-.73a37.87,37.87,0,0,0,2.58-2.78q-1.49.16-2,.18l-.33-.82a16.92,16.92,0,0,0,2.59-3.7l.95.48a19,19,0,0,1-2.08,3,12.83,12.83,0,0,0,1.69-.23c.15-.21.37-.57.66-1.06l.93.49a20.76,20.76,0,0,1-3.19,4,17.56,17.56,0,0,0,1.95-.35,1.88,1.88,0,0,0-.29-.66l.88-.35A10,10,0,0,1,270.65,106.91Zm9.72,9.25-.3,2.14a1.9,1.9,0,0,1-.58,1.14,1.81,1.81,0,0,1-1.31.48H273l-.44-1.09h5.58a.73.73,0,0,0,.77-.71l.16-1H266l1.23-3.37h11.16v-1.34H266.05v-1h13.51v3.3h-11.4l-.51,1.39Zm-11.85-5.71-.87.14a15,15,0,0,0-.37-2.43l.92-.14A18.31,18.31,0,0,1,268.52,110.45Zm1.87-.48-.9.24A13.87,13.87,0,0,0,269,108l.88-.28A11.1,11.1,0,0,1,270.39,110Zm5.41-7.83h-5.1v-1h2.16a4.37,4.37,0,0,0-.55-1.28l.95-.39a13.82,13.82,0,0,1,.74,1.67h1.8Zm-.65,1.88h-3.92v-.94h3.92Zm0,1.92h-3.92v-1h3.92Zm.05,4.38h-4v-3.46h4Zm-.95-1v-1.51h-2v1.51Zm2.91-1.22a12.15,12.15,0,0,1-.51,2.65l-.95-.23a13.59,13.59,0,0,0,.56-2.6Zm4-1-.95.33a3.23,3.23,0,0,0-.24-.7c-1.53.28-2.83.48-3.88.6l-.29-.78a26.19,26.19,0,0,0,2.6-2.64l-2.26.15-.25-.73a20.53,20.53,0,0,0,2.82-3.76l1,.41a18.27,18.27,0,0,1-2.29,3,12.14,12.14,0,0,0,1.88-.25c.36-.53.6-.92.73-1.16l.95.56a23.51,23.51,0,0,1-3.29,4,9.21,9.21,0,0,0,1.85-.3,2.55,2.55,0,0,0-.31-.65l1-.34A23.64,23.64,0,0,1,281.19,107.12Zm-2,3.33-1,.18a7.81,7.81,0,0,0-.29-2.47l.9-.16A11.68,11.68,0,0,1,279.22,110.45Zm2.08-.13-.9.24c-.36-1.12-.64-1.91-.84-2.35l.88-.25A9.11,9.11,0,0,1,281.3,110.32Z"/><path class="cls-1" d="M293.34,107.21h-6.82v12.57h-1.18V100.29h8Zm-1.21-4.08v-1.74h-5.61v1.74Zm0,3v-1.9h-5.61v1.9Zm9,7.76h-3.66v5.43h-1.19v-5.43h-3.51a7.54,7.54,0,0,1-2.87,5.54l-1.16-.67a6.88,6.88,0,0,0,2.84-4.87h-3.74v-1.15h3.83v-2.66h-3V109h11.6v1.11h-2.76v2.66h3.66Zm-4.85-1.15v-2.66h-3.4v2.66Zm7.23,5.36a1.4,1.4,0,0,1-.55,1.3,3.8,3.8,0,0,1-2,.36l-1.28,0-.46-1.22a21.37,21.37,0,0,0,2.53.09.44.44,0,0,0,.51-.5V107.21h-6.74v-6.92h8Zm-1.21-15v-1.74h-5.51v1.74Zm0,3v-1.9h-5.51v1.9Z"/><path class="cls-1" d="M317.06,104.37h-5.82c0,1,0,2.1-.05,3.33h4.63q0,4.2-.21,7.3a15.23,15.23,0,0,1-.48,3.65,1.87,1.87,0,0,1-.79.81,4.49,4.49,0,0,1-1.9.28l-1.15,0-.4-1.22c.56.05,1.09.07,1.61.07a2.48,2.48,0,0,0,1.31-.21,1,1,0,0,0,.36-.56,33.08,33.08,0,0,0,.29-3.5c.12-2.1.17-3.9.13-5.41h-3.46a25.91,25.91,0,0,1-2.71,11l-1-.78a22.79,22.79,0,0,0,1.74-4.33,22.1,22.1,0,0,0,.78-5c.09-1.81.15-3.63.17-5.47H307.5v-1.15H312a17.16,17.16,0,0,0-1.34-3.1l1.15-.44a24,24,0,0,1,1.48,3.54h3.81Zm10.58,14.46-.75,1.06a16.84,16.84,0,0,1-5-3.8,20.6,20.6,0,0,1-4.65,3.8l-.83-.91a17.14,17.14,0,0,0,4.74-3.91A17.67,17.67,0,0,1,319,109.8l1.19-.32a15.6,15.6,0,0,0,1.7,4.52q2.1-3.34,2.4-9.61h-4a25.53,25.53,0,0,1-2.75,6.26l-1-.68a25.42,25.42,0,0,0,3.61-10.47l1.18.3c-.24,1.43-.47,2.58-.71,3.44h6.88v1.15h-2q-.43,6.77-2.91,10.7A13.61,13.61,0,0,0,327.64,118.83Z"/><path class="cls-1" d="M350.68,114.93c-.69,3.47-1.67,5.2-3,5.2a1.62,1.62,0,0,1-.89-.29,5.69,5.69,0,0,1-1.24-1.41,12.81,12.81,0,0,1-1.42-2.8,19.15,19.15,0,0,1-.94-4.71q-.32-3.06-.45-6.06H330.7v-1.25h12c-.06-1.71-.08-3-.07-4h1.21c0,1.83,0,3.16.07,4h6.72v1.25h-6.68c.06,1.6.26,3.75.58,6.46a14,14,0,0,0,1.65,5.82c.78,1.16,1.3,1.75,1.57,1.75s.75-.55,1.1-1.65a14.72,14.72,0,0,0,.68-2.95Zm-8.55.9q-5.61,1.42-10.54,2.31l-.29-1.2c1.25-.21,2.83-.49,4.74-.85v-6.7h-4.1v-1.25h9.55v1.25h-4.28v6.42c1.8-.38,3.44-.78,4.92-1.17Zm7.47-13.33-1,.7a14.18,14.18,0,0,0-2.59-2.45l1-.79A12.85,12.85,0,0,1,349.6,102.5Z"/><path class="cls-1" d="M360.82,103.22h-7.09v-1.14h3.12a10.67,10.67,0,0,0-1.08-2.08l1.08-.53a13.25,13.25,0,0,1,1.3,2.61h2.67Zm-.46,3.2h-6.05v-1.19h6.05Zm0,3.45h-6.05v-1.2h6.05Zm-.25,9.47H359v-1.2h-3.28v1.73h-1.2v-7.64h5.64ZM359,117v-3.6h-3.28V117Zm14.92.93-.71.94a16.62,16.62,0,0,1-5.15-6.11v7.13h-1.2v-7.13a19.61,19.61,0,0,1-5.32,6.11l-.76-.85a19.37,19.37,0,0,0,5.38-6.31h-4.8V110.5h5.5v-2h-4.62v-8.31h10.56v8.31H368v2h5.55v1.17h-4.83A16.28,16.28,0,0,0,373.87,117.89Zm-7.06-14.12v-2.42h-3.5v2.42Zm0,3.62V104.9h-3.5v2.49Zm4.73-3.62v-2.42H368v2.42Zm0,3.62V104.9H368v2.49Z"/><path class="cls-1" d="M384.65,111.16l-.84.93a16.43,16.43,0,0,0-2-2.89v10.69h-1.21V109.15a32.44,32.44,0,0,1-3.11,5.71l-.82-1a31,31,0,0,0,3.86-7.39h-3.74v-1.16h3.81v-3.42l-2.82.54-.62-1.16a24.36,24.36,0,0,0,6.68-1.59l.71,1.06c-1.13.39-2,.68-2.74.88v3.69h2.74v1.16h-2.74v1A22,22,0,0,1,384.65,111.16Zm12.24,8.18h-13v-1.13h5.93v-3.53h-5.12v-1.16h5.12v-3.35c-2.46.16-4,.24-4.57.26l-.55-1.19a51.24,51.24,0,0,0,11-1.22l.78,1c-1.55.36-3.36.69-5.43,1v3.49h5v1.16h-5v3.53h5.85Zm-1.48-12.66h-9.92v-6.3h9.92Zm-1.23-1.17v-4h-7.46v4Z"/><path class="cls-1" d="M420,119.27H400v-1.06h20Zm-10.91-10-1,.65-.6-1L401,110.28l-.39-1c.29-.08.44-.32.44-.73V100.2h7.74v5.86h-6.63V109c1.44-.22,3-.53,4.64-.93a5.77,5.77,0,0,0-.7-.9l1-.64A21.73,21.73,0,0,1,409.08,109.29Zm-1.45-6.72V101.3h-5.47v1.27Zm0,2.38v-1.31h-5.47V105Zm9.75,11.9H402.69v-6h14.69Zm-1.18-3.6V112H403.87v1.3Zm0,2.51v-1.5H403.87v1.5Zm3.63-10.86H416v3.17a.55.55,0,0,0,.22.47,2,2,0,0,0,1,.16,2.43,2.43,0,0,0,1-.13,1,1,0,0,0,.34-.64,4.84,4.84,0,0,0,.08-1.34l1.16.35a4.73,4.73,0,0,1-.24,1.82,1.6,1.6,0,0,1-.64.75,4.28,4.28,0,0,1-1.75.23,6.52,6.52,0,0,1-1.5-.1,1.23,1.23,0,0,1-.6-.44,1.28,1.28,0,0,1-.27-.84v-3a18.28,18.28,0,0,1-4.3,4.78l-.8-.81a15.25,15.25,0,0,0,4.08-4.41h-3.3l.81-3.64h-1.34v-1.1h9.36v1.1h-2.91c-.35,1.19-.63,2-.83,2.56h4.27Zm-4.67-3.64h-2.68l-.58,2.56h2.4A12.83,12.83,0,0,0,415.16,101.26Z"/><path class="cls-1" d="M434.61,101.13a29.37,29.37,0,0,1-3.23,4.49h2.5v1.13h-3.59c-.84.87-1.62,1.61-2.32,2.22h4.45v1q-1.44,1.44-3,2.73v1.13c1.38-.23,2.76-.51,4.15-.86l0,1.21c-1.28.3-2.65.57-4.11.82v3.17a1.69,1.69,0,0,1-.42,1.2,2.94,2.94,0,0,1-2,.45c-.39,0-.79,0-1.21-.06l-.37-1.22c.4,0,.89.06,1.46.06a2.67,2.67,0,0,0,1.19-.15.57.57,0,0,0,.21-.51v-2.7c-2,.32-3.67.56-4.94.71l-.28-1.11q3-.39,5.22-.81v-1.81c.81-.68,1.61-1.41,2.38-2.18h-4.21c-1,.74-1.92,1.37-2.78,1.89l-.79-1a29,29,0,0,0,5.84-4.23h-5.4v-1.13h4.23V103H424V101.9h3.54V99.65h1.17v2.25h2.71V103h-2.71v2.64h1.14a24.19,24.19,0,0,0,3.69-5Zm8.69,17.75-.74,1.09a17.29,17.29,0,0,1-4.38-3.88,21.39,21.39,0,0,1-5.09,3.86l-.78-1a17.88,17.88,0,0,0,5.19-3.9,20.92,20.92,0,0,1-2-5.91l1.16-.42a18.16,18.16,0,0,0,1.59,5.31,16.24,16.24,0,0,0,2.22-9.44H437a26.59,26.59,0,0,1-2.93,5.43l-.93-.86A20.62,20.62,0,0,0,437,99.59l1.18.3a33.61,33.61,0,0,1-.86,3.46h5.78v1.19h-1.43c0,4.53-.94,8-2.76,10.58A14.46,14.46,0,0,0,443.3,118.88Z"/><path class="cls-1" d="M466.11,102.38H454.34a22.4,22.4,0,0,1-3.92,3.4q6.66-.36,10.46-.9c-.82-.48-1.48-.84-2-1.08l1-.84a26.2,26.2,0,0,1,5.38,3.54l-.88.87c-.86-.7-1.51-1.2-1.94-1.5q-6.77.84-14.69,1.25l-.35-1.29a10.6,10.6,0,0,0,5.27-3.45h-6.4v-1.19h7.53a16.59,16.59,0,0,0,1.32-1.69l1.32.39c-.2.27-.54.71-1,1.3h10.72Zm-2.52,15.67c0,1.19-.87,1.79-2.63,1.79-.71,0-1.48,0-2.3-.1l-.38-1.16c.35,0,1.46,0,3.32,0,.51,0,.76-.28.76-.84v-3.68q-6.32,1.64-12.19,2.64l-.46-.9a8.69,8.69,0,0,1-2.43,4.14l-.95-.83a6.83,6.83,0,0,0,2-3,17.64,17.64,0,0,0,.45-4.59v-3.42h14.81ZM462.36,113v-3.7H450v1.67a84.29,84.29,0,0,1,9.23.88l-.47,1.12a66,66,0,0,0-8.76-.85c0,.66-.08,1.8-.23,3.44A109.38,109.38,0,0,0,462.36,113Z"/><path class="cls-1" d="M476.92,101.37h-1.37V120h-1.08v-4.4l-4.83,1.76-.46-1c.64-.22,1.14-.39,1.5-.53V101.37h-1.24v-1h7.48ZM474.47,105v-3.62h-2.65V105Zm0,4.84v-3.72h-2.65v3.72Zm0,4.55v-3.44h-2.65v4.41C472.53,115.1,473.41,114.78,474.47,114.38Zm8-4.79-1,.51c-.11-.36-.21-.67-.31-.92-1.22.33-2.8.65-4.71,1l-.32-.86a20.82,20.82,0,0,0,3.35-4c-.85.18-1.74.34-2.66.46l-.33-.83a17.11,17.11,0,0,0,2.69-5.27l1,.4a19.43,19.43,0,0,1-2.4,4.53c1.12-.18,1.92-.33,2.4-.46l1.14-2,1,.51a34.67,34.67,0,0,1-4.49,6.32,28.35,28.35,0,0,0,2.93-.68,7.48,7.48,0,0,0-.49-1l.93-.49A13.23,13.23,0,0,1,482.47,109.59Zm-.47,4a7.46,7.46,0,0,1-1,4.24,6.18,6.18,0,0,1-3.08,2.21l-.64-1q3.07-.88,3.44-3.57h-3.6v-4.32h1.13v3.22h2.64v-3.75H482Zm7.28-4-.95.46c-.08-.32-.16-.58-.22-.79-1.84.4-3.5.7-5,.88l-.33-1a18.17,18.17,0,0,0,3.22-3.83c-1.21.23-2.2.4-3,.51l-.33-.91a17.48,17.48,0,0,0,3-5.29l1.06.35a19,19,0,0,1-2.7,4.67c1-.16,1.86-.32,2.61-.51a11,11,0,0,0,1.15-2.06l1,.37a22.41,22.41,0,0,1-4.46,6.48,29.61,29.61,0,0,0,3.38-.68,8.42,8.42,0,0,0-.53-1.2l.92-.39A9.21,9.21,0,0,1,489.28,109.57Zm-.77,6.54h-3.6V120h-1.12v-9.3h1.12V115h2.5v-3.86h1.1Z"/><path class="cls-1" d="M512.32,119.38h-20v-1.12h2.16v-5.6h15.77v5.6h2.11Zm-12-9.58h-6.56v-9.51h6.56Zm-1.21-5.38v-3h-4.15v3Zm0,4.25v-3.09h-4.15v3.09Zm.24,9.59v-4.48h-3.7v4.48ZM511,110.21a1.33,1.33,0,0,1-.47,1,1.6,1.6,0,0,1-1.08.41c-1.27,0-2.17,0-2.7-.05l-.51-1.19,2.91.09c.48,0,.72-.2.72-.58V108h-6.43a10,10,0,0,1-2.37,4.18l-.95-.67q2.61-2.57,2.61-7.8v-3.47H511Zm-6.82,8.05v-4.48h-3.67v4.48Zm5.69-11.37v-2.26h-6c0,.9-.1,1.65-.18,2.26Zm0-3.42v-2.06h-5.95v2.06Zm-.83,14.79v-4.48h-3.68v4.48Z"/><path class="cls-2" d="M164.34,86.48V84.74a26.5,26.5,0,0,0,4.95-.32,5,5,0,0,0,2.53-1.25A6.58,6.58,0,0,0,173,79.6c.22-1.81.37-3.41.42-4.8V33.6q0-4.37-1-5.14t-5.65-.8Q160,27.66,156,30c-2.67,1.55-5.21,4.26-7.65,8.14l-1.49-.43,2.55-9,.51-2c.4-1.69.92-2.6,1.57-2.71l.77.34a10.58,10.58,0,0,0,6,1.57H183q1.49,0,4.29-.09c1.84,0,3.2-.08,4.08-.08s1.83,0,2.68-.09a37.47,37.47,0,0,0,4.12-.34,19.2,19.2,0,0,0,4.67-1l2.55-.68c.62,0,1.31,1.27,2.08,3.82l.34,1.23,2.59,8.54-1.28.59q-3.94-6-7.68-8.17c-2.5-1.46-5.82-2.19-10-2.19s-6.69.27-7.49.83-1.21,2-1.21,4.48V77.69c0,2.78.52,4.6,1.57,5.48A7.31,7.31,0,0,0,187,84.32a21.08,21.08,0,0,0,4.72.42v1.74Z"/><path class="cls-2" d="M243.18,88.14a32.64,32.64,0,0,1-12.36-2.38,29.47,29.47,0,0,1-10.37-6.67A29.16,29.16,0,0,1,213.91,69a34.5,34.5,0,0,1-2.16-12.27,34,34,0,0,1,2-11.72,28.4,28.4,0,0,1,5.74-9.56,33.51,33.51,0,0,1,11.25-8.2,32.73,32.73,0,0,1,13.21-2.76,36.38,36.38,0,0,1,12.45,2.08,30.23,30.23,0,0,1,10.15,6.25,28.89,28.89,0,0,1,7,9.77,32,32,0,0,1,2.33,12.31,35.86,35.86,0,0,1-2.27,13,30.17,30.17,0,0,1-6.94,10.6,33,33,0,0,1-5,4.12,29.59,29.59,0,0,1-5.74,3A33.72,33.72,0,0,1,243.18,88.14ZM222.45,56q0,14,5.48,22a17.28,17.28,0,0,0,15.12,8.11,19.28,19.28,0,0,0,16.18-7.85q6-7.82,6-21.33,0-14.22-5.47-22.42a17.29,17.29,0,0,0-15.08-8.07q-10.32,0-16.29,7.9T222.45,56Z"/><path class="cls-2" d="M332.89,82.28a46.28,46.28,0,0,1-10.37,4.16,46.94,46.94,0,0,1-11.21,1.32q-14.26,0-23-8.56t-8.71-22.83a33.36,33.36,0,0,1,2.55-13,30.75,30.75,0,0,1,7.73-10.79,28.07,28.07,0,0,1,9.56-5.73,32.76,32.76,0,0,1,11.6-2.08,45.08,45.08,0,0,1,8,.76,72.34,72.34,0,0,1,8.54,2.42l3.18-.42.55-.09h.77c.76,0,1.15,1.08,1.15,3.23v.51l.85,11.6-1.66.17q-2.69-7.95-7.9-12.11a19.85,19.85,0,0,0-12.45-4.08A19.21,19.21,0,0,0,296,34.54q-6,7.82-6,21.24,0,14.52,5.48,22.08t15.92,7.65A19.32,19.32,0,0,0,323,81.94q4.88-3.48,9.21-11.72l1.66.25Z"/><path class="cls-2" d="M337.22,86.48V84.74a25.2,25.2,0,0,0,5.4-.42,4.37,4.37,0,0,0,2.25-1,3.4,3.4,0,0,0,.59-2.34,48,48,0,0,0,.26-5.94V33.31q0-3.92-1.28-4.93c-.93-.65-3.23-1-6.88-1V25.66h20.18q5,0,7.9-.08,12-.34,12.82-.34l1.7-.09a4.23,4.23,0,0,1,2.28.51,3.69,3.69,0,0,1,1.29,1.83l3.87,10.36-1.32.68q-6.12-7.56-9-9.39a13.45,13.45,0,0,0-7.05-1.74h-8q-3.94,0-5.39,1a3.08,3.08,0,0,0-1.49,3V52.46a4,4,0,0,0,.51,2.51,3.05,3.05,0,0,0,2.34.64h2.89q5.48,0,7.81-2.64A10.66,10.66,0,0,0,371,49.09a19.16,19.16,0,0,0,.83-5.93h1.65V56.37l.09,6.37.25,5.48h-1.57Q371,62,368.86,59.85c-1.38-1.55-3.58-2.33-6.58-2.33h-4.8c-1,0-1.57.11-1.74.34a3.48,3.48,0,0,0-.42,1.82V80.45c0,1.64.36,2.75,1.1,3.32s3,1,6.63,1h13.21a9.54,9.54,0,0,0,6.11-2.08,22.28,22.28,0,0,0,3.31-3.31,65.13,65.13,0,0,0,4.25-5.82l1.4.34-2,8.15a24.31,24.31,0,0,1-1.4,4.21,1.63,1.63,0,0,1-1.07.81,7.16,7.16,0,0,1-2.16.25l-1-.08L375.58,87l-15.76-.26-8.88-.3Z"/><path class="cls-2" d="M445,82.28a46.2,46.2,0,0,1-10.36,4.16,47,47,0,0,1-11.21,1.32q-14.28,0-23-8.56t-8.71-22.83a33.36,33.36,0,0,1,2.55-13A30.75,30.75,0,0,1,402,32.54a28.07,28.07,0,0,1,9.56-5.73,32.75,32.75,0,0,1,11.59-2.08,45.19,45.19,0,0,1,8,.76,71.67,71.67,0,0,1,8.53,2.42l3.19-.42.55-.09h.77c.76,0,1.14,1.08,1.14,3.23v.51l.85,11.6-1.65.17q-2.69-7.95-7.9-12.11a19.85,19.85,0,0,0-12.45-4.08,19.23,19.23,0,0,0-16.12,7.82q-6,7.82-6,21.24,0,14.52,5.47,22.08t15.93,7.65a19.32,19.32,0,0,0,11.56-3.57q4.88-3.48,9.21-11.72l1.66.25Z"/><path class="cls-1" d="M152.39,128.86h-3.23v10h-1.31v-10h-3.23v-1.19h7.77Z"/><path class="cls-1" d="M159.7,138.87h-1.28v-1.25h0a2.69,2.69,0,0,1-2.46,1.44,2.63,2.63,0,0,1-1.87-.64,2.19,2.19,0,0,1-.68-1.68c0-1.49.88-2.36,2.64-2.6l2.4-.34q0-2-1.65-2a3.9,3.9,0,0,0-2.6,1v-1.32a4.93,4.93,0,0,1,2.71-.75c1.88,0,2.82,1,2.82,3Zm-1.28-4.05-1.93.27a3.09,3.09,0,0,0-1.34.44,1.27,1.27,0,0,0-.45,1.12,1.25,1.25,0,0,0,.41,1,1.66,1.66,0,0,0,1.12.37,2.07,2.07,0,0,0,1.57-.67,2.41,2.41,0,0,0,.62-1.69Z"/><path class="cls-1" d="M162.77,128.84a.82.82,0,0,1-.58-.23.84.84,0,0,1,0-1.2.82.82,0,0,1,.58-.23.85.85,0,0,1,.6.23.84.84,0,0,1-.6,1.43Zm.63,10h-1.28v-8h1.28Z"/><path class="cls-1" d="M176.06,130.87l-2.39,8h-1.33l-1.65-5.73a3.81,3.81,0,0,1-.12-.74h0a4.27,4.27,0,0,1-.17.73l-1.79,5.74H167.3l-2.42-8h1.34l1.66,6a3.92,3.92,0,0,1,.11.72h.06a3.46,3.46,0,0,1,.14-.73l1.85-6h1.17l1.65,6a4.87,4.87,0,0,1,.12.72H173a4,4,0,0,1,.13-.72l1.63-6Z"/><path class="cls-1" d="M183.27,138.87H182v-1.25h0a2.69,2.69,0,0,1-2.46,1.44,2.63,2.63,0,0,1-1.87-.64,2.19,2.19,0,0,1-.68-1.68c0-1.49.88-2.36,2.64-2.6l2.4-.34q0-2-1.65-2a3.9,3.9,0,0,0-2.6,1v-1.32a4.93,4.93,0,0,1,2.71-.75c1.88,0,2.82,1,2.82,3ZM182,134.82l-1.93.27a3.09,3.09,0,0,0-1.34.44,1.27,1.27,0,0,0-.45,1.12,1.25,1.25,0,0,0,.41,1,1.66,1.66,0,0,0,1.12.37,2.07,2.07,0,0,0,1.57-.67,2.37,2.37,0,0,0,.62-1.69Z"/><path class="cls-1" d="M192.33,138.87H191v-4.56c0-1.7-.62-2.55-1.85-2.55a2,2,0,0,0-1.59.72,2.7,2.7,0,0,0-.63,1.83v4.56h-1.28v-8H187v1.33h0a2.89,2.89,0,0,1,2.62-1.52,2.46,2.46,0,0,1,2,.85,3.78,3.78,0,0,1,.7,2.45Z"/><path class="cls-1" d="M203.81,139.06a5,5,0,0,1-3.82-1.57,5.81,5.81,0,0,1-1.43-4.09,6.13,6.13,0,0,1,1.46-4.31,5.1,5.1,0,0,1,4-1.61,4.8,4.8,0,0,1,3.74,1.56,5.84,5.84,0,0,1,1.42,4.09,6.21,6.21,0,0,1-1.45,4.33A5,5,0,0,1,203.81,139.06Zm.09-10.39a3.62,3.62,0,0,0-2.87,1.27,5.65,5.65,0,0,0,0,6.67,3.46,3.46,0,0,0,2.8,1.27,3.66,3.66,0,0,0,2.9-1.21,4.89,4.89,0,0,0,1.06-3.36,5.13,5.13,0,0,0-1-3.43A3.52,3.52,0,0,0,203.9,128.67Z"/><path class="cls-1" d="M212.49,137.71h0v4.84h-1.28V130.87h1.28v1.41h0a3,3,0,0,1,2.77-1.6,2.92,2.92,0,0,1,2.41,1.08,4.41,4.41,0,0,1,.87,2.87,5,5,0,0,1-1,3.22,3.26,3.26,0,0,1-2.67,1.21A2.67,2.67,0,0,1,212.49,137.71Zm0-3.22v1.11a2.39,2.39,0,0,0,.64,1.69,2.3,2.3,0,0,0,3.46-.2,4.11,4.11,0,0,0,.66-2.48,3.21,3.21,0,0,0-.61-2.09,2,2,0,0,0-1.67-.76,2.26,2.26,0,0,0-1.8.78A2.88,2.88,0,0,0,212.46,134.49Z"/><path class="cls-1" d="M227,135.19h-5.65a3,3,0,0,0,.72,2.06A2.46,2.46,0,0,0,224,138a4,4,0,0,0,2.49-.89v1.2a4.68,4.68,0,0,1-2.79.77A3.42,3.42,0,0,1,221,138a4.5,4.5,0,0,1-1-3.07,4.39,4.39,0,0,1,1.05-3,3.4,3.4,0,0,1,2.63-1.18,3,3,0,0,1,2.43,1,4.24,4.24,0,0,1,.86,2.82Zm-1.31-1.09a2.62,2.62,0,0,0-.54-1.72,1.82,1.82,0,0,0-1.46-.62,2.07,2.07,0,0,0-1.54.65,3,3,0,0,0-.78,1.69Z"/><path class="cls-1" d="M235.58,138.87H234.3v-4.56c0-1.7-.62-2.55-1.85-2.55a2,2,0,0,0-1.59.72,2.7,2.7,0,0,0-.63,1.83v4.56H229v-8h1.28v1.33h0a2.89,2.89,0,0,1,2.62-1.52,2.46,2.46,0,0,1,2,.85,3.78,3.78,0,0,1,.69,2.45Z"/><path class="cls-1" d="M250.17,138.4a6.49,6.49,0,0,1-3.09.66,5,5,0,0,1-3.83-1.54,5.72,5.72,0,0,1-1.43-4,6,6,0,0,1,1.61-4.34,5.48,5.48,0,0,1,4.1-1.66,6.48,6.48,0,0,1,2.64.46v1.4a5.3,5.3,0,0,0-2.65-.67,4.07,4.07,0,0,0-3.13,1.29,4.84,4.84,0,0,0-1.2,3.44,4.66,4.66,0,0,0,1.12,3.26,3.82,3.82,0,0,0,2.94,1.22,5.49,5.49,0,0,0,2.92-.75Z"/><path class="cls-1" d="M255.62,139.06a3.71,3.71,0,0,1-2.83-1.13,4.14,4.14,0,0,1-1-3,4.28,4.28,0,0,1,1.1-3.14,3.92,3.92,0,0,1,3-1.14,3.59,3.59,0,0,1,2.79,1.1,4.39,4.39,0,0,1,1,3.06,4.28,4.28,0,0,1-1.08,3.06A3.8,3.8,0,0,1,255.62,139.06Zm.1-7.3a2.44,2.44,0,0,0-1.95.84,3.45,3.45,0,0,0-.72,2.32,3.29,3.29,0,0,0,.72,2.24,2.51,2.51,0,0,0,1.95.82,2.34,2.34,0,0,0,1.91-.81,3.5,3.5,0,0,0,.67-2.28,3.58,3.58,0,0,0-.67-2.32A2.34,2.34,0,0,0,255.72,131.76Z"/><path class="cls-1" d="M268.12,138.87h-1.28V137.6h0a2.63,2.63,0,0,1-2.47,1.46c-1.9,0-2.86-1.14-2.86-3.41v-4.78h1.28v4.58c0,1.68.64,2.53,1.93,2.53a2,2,0,0,0,1.55-.69,2.67,2.67,0,0,0,.6-1.81v-4.61h1.28Z"/><path class="cls-1" d="M274.88,132.17a1.6,1.6,0,0,0-1-.26,1.64,1.64,0,0,0-1.37.77,3.57,3.57,0,0,0-.55,2.11v4.08h-1.28v-8H272v1.65h0a2.86,2.86,0,0,1,.83-1.32,2,2,0,0,1,1.26-.47,2.17,2.17,0,0,1,.77.11Z"/><path class="cls-1" d="M275.78,138.58V137.2a3.79,3.79,0,0,0,2.31.78c1.12,0,1.68-.38,1.68-1.13a1,1,0,0,0-.14-.54,1.45,1.45,0,0,0-.39-.39,2.64,2.64,0,0,0-.58-.31l-.71-.29a9.6,9.6,0,0,1-.94-.42,3.22,3.22,0,0,1-.67-.49,1.75,1.75,0,0,1-.4-.61,2,2,0,0,1-.14-.81,1.83,1.83,0,0,1,.26-1,2.37,2.37,0,0,1,.68-.73,3.49,3.49,0,0,1,1-.44,4.35,4.35,0,0,1,1.14-.15,4.61,4.61,0,0,1,1.86.36v1.3a3.6,3.6,0,0,0-2-.58,2.57,2.57,0,0,0-.65.08,1.77,1.77,0,0,0-.5.23,1.22,1.22,0,0,0-.32.36,1,1,0,0,0-.11.46,1,1,0,0,0,.45.89,2.38,2.38,0,0,0,.53.3l.71.29a9.59,9.59,0,0,1,.95.42,3.22,3.22,0,0,1,.72.48,2,2,0,0,1,.46.62,2.17,2.17,0,0,1,.16.84,1.93,1.93,0,0,1-.27,1,2.28,2.28,0,0,1-.69.73,3.26,3.26,0,0,1-1,.42,4.7,4.7,0,0,1-1.2.15A4.53,4.53,0,0,1,275.78,138.58Z"/><path class="cls-1" d="M289.48,135.19h-5.65a3.06,3.06,0,0,0,.72,2.06,2.46,2.46,0,0,0,1.89.73,4,4,0,0,0,2.49-.89v1.2a4.68,4.68,0,0,1-2.79.77,3.39,3.39,0,0,1-2.66-1.09,4.45,4.45,0,0,1-1-3.07,4.35,4.35,0,0,1,1.06-3,3.36,3.36,0,0,1,2.62-1.18,3,3,0,0,1,2.43,1,4.19,4.19,0,0,1,.86,2.82Zm-1.31-1.09a2.62,2.62,0,0,0-.53-1.72,1.86,1.86,0,0,0-1.47-.62,2.09,2.09,0,0,0-1.54.65,3,3,0,0,0-.78,1.69Z"/><path class="cls-1" d="M301.52,138.87h-1.28v-1.25h0a2.91,2.91,0,0,1-4.33.8,2.19,2.19,0,0,1-.67-1.68c0-1.49.88-2.36,2.64-2.6l2.39-.34c0-1.36-.55-2-1.64-2a3.9,3.9,0,0,0-2.61,1v-1.32a4.94,4.94,0,0,1,2.72-.75c1.87,0,2.81,1,2.81,3Zm-1.28-4.05-1.92.27a3.09,3.09,0,0,0-1.35.44,1.27,1.27,0,0,0-.45,1.12,1.23,1.23,0,0,0,.42,1,1.63,1.63,0,0,0,1.11.37,2.07,2.07,0,0,0,1.57-.67,2.37,2.37,0,0,0,.62-1.69Z"/><path class="cls-1" d="M310.58,138.87H309.3v-4.56q0-2.55-1.86-2.55a2,2,0,0,0-1.59.72,2.7,2.7,0,0,0-.63,1.83v4.56h-1.28v-8h1.28v1.33h0a2.89,2.89,0,0,1,2.62-1.52,2.46,2.46,0,0,1,2,.85,3.73,3.73,0,0,1,.7,2.45Z"/><path class="cls-1" d="M319.82,138.87h-1.28v-1.36h0a3.21,3.21,0,0,1-5.15.47,4.34,4.34,0,0,1-.91-2.92,4.81,4.81,0,0,1,1-3.18,3.31,3.31,0,0,1,2.67-1.2,2.55,2.55,0,0,1,2.39,1.3h0V127h1.28Zm-1.28-3.62v-1.18a2.3,2.3,0,0,0-.65-1.64,2.15,2.15,0,0,0-1.62-.67,2.21,2.21,0,0,0-1.84.86,3.73,3.73,0,0,0-.67,2.37,3.4,3.4,0,0,0,.64,2.19,2.12,2.12,0,0,0,1.73.8,2.2,2.2,0,0,0,1.74-.78A2.88,2.88,0,0,0,318.54,135.25Z"/><path class="cls-1" d="M332.9,138.87H327v-11.2h5.69v1.19h-4.38v3.72h4.05v1.18h-4.05v3.92h4.63Z"/><path class="cls-1" d="M341.71,138.87h-1.28v-1.36h0a3.22,3.22,0,0,1-5.16.47,4.39,4.39,0,0,1-.9-2.92,4.8,4.8,0,0,1,1-3.18,3.31,3.31,0,0,1,2.67-1.2,2.56,2.56,0,0,1,2.4,1.3h0V127h1.28Zm-1.28-3.62v-1.18a2.33,2.33,0,0,0-.64-1.64,2.19,2.19,0,0,0-1.63-.67,2.22,2.22,0,0,0-1.84.86,3.73,3.73,0,0,0-.67,2.37,3.4,3.4,0,0,0,.64,2.19,2.12,2.12,0,0,0,1.73.8,2.2,2.2,0,0,0,1.74-.78A2.88,2.88,0,0,0,340.43,135.25Z"/><path class="cls-1" d="M350.77,138.87h-1.28V137.6h0a2.65,2.65,0,0,1-2.47,1.46q-2.87,0-2.86-3.41v-4.78h1.27v4.58c0,1.68.65,2.53,1.94,2.53a2,2,0,0,0,1.54-.69,2.68,2.68,0,0,0,.61-1.81v-4.61h1.28Z"/><path class="cls-1" d="M358.8,138.5a4.13,4.13,0,0,1-2.18.56,3.63,3.63,0,0,1-2.76-1.12,4,4,0,0,1-1.05-2.88,4.42,4.42,0,0,1,1.13-3.18,4,4,0,0,1,3-1.2,4.24,4.24,0,0,1,1.86.39v1.32a3.24,3.24,0,0,0-1.91-.63,2.58,2.58,0,0,0-2,.88,3.35,3.35,0,0,0-.78,2.31,3.13,3.13,0,0,0,.74,2.21,2.52,2.52,0,0,0,2,.82,3.16,3.16,0,0,0,2-.7Z"/><path class="cls-1" d="M366.46,138.87h-1.28v-1.25h0a2.91,2.91,0,0,1-4.33.8,2.19,2.19,0,0,1-.67-1.68c0-1.49.88-2.36,2.64-2.6l2.39-.34c0-1.36-.54-2-1.64-2a3.9,3.9,0,0,0-2.61,1v-1.32a4.94,4.94,0,0,1,2.72-.75c1.87,0,2.81,1,2.81,3Zm-1.28-4.05-1.92.27a3.09,3.09,0,0,0-1.35.44,1.27,1.27,0,0,0-.45,1.12,1.23,1.23,0,0,0,.42,1A1.65,1.65,0,0,0,363,138a2.05,2.05,0,0,0,1.57-.67,2.37,2.37,0,0,0,.62-1.69Z"/><path class="cls-1" d="M372.59,138.79a2.43,2.43,0,0,1-1.2.25q-2.1,0-2.1-2.34V132h-1.37v-1.09h1.37v-2l1.28-.42v2.37h2V132h-2v4.51a1.81,1.81,0,0,0,.28,1.15,1.07,1.07,0,0,0,.9.34,1.4,1.4,0,0,0,.84-.26Z"/><path class="cls-1" d="M375,128.84a.83.83,0,0,1-.58-.23.87.87,0,0,1,0-1.2.83.83,0,0,1,.58-.23.85.85,0,0,1,.6.23.83.83,0,0,1,0,1.19A.81.81,0,0,1,375,128.84Zm.63,10H374.3v-8h1.28Z"/><path class="cls-1" d="M381.52,139.06a3.72,3.72,0,0,1-2.84-1.13,4.14,4.14,0,0,1-1.05-3,4.28,4.28,0,0,1,1.1-3.14,3.92,3.92,0,0,1,3-1.14,3.59,3.59,0,0,1,2.79,1.1,4.39,4.39,0,0,1,1,3.06,4.28,4.28,0,0,1-1.08,3.06A3.79,3.79,0,0,1,381.52,139.06Zm.09-7.3a2.44,2.44,0,0,0-1.95.84,3.45,3.45,0,0,0-.72,2.32,3.29,3.29,0,0,0,.72,2.24,2.51,2.51,0,0,0,1.95.82,2.34,2.34,0,0,0,1.91-.81,3.5,3.5,0,0,0,.67-2.28,3.58,3.58,0,0,0-.67-2.32A2.34,2.34,0,0,0,381.61,131.76Z"/><path class="cls-1" d="M394.18,138.87H392.9v-4.56q0-2.55-1.86-2.55a2,2,0,0,0-1.59.72,2.74,2.74,0,0,0-.62,1.83v4.56h-1.29v-8h1.29v1.33h0a2.88,2.88,0,0,1,2.62-1.52,2.47,2.47,0,0,1,2,.85,3.78,3.78,0,0,1,.69,2.45Z"/><path class="cls-1" d="M408.77,138.4a6.54,6.54,0,0,1-3.09.66,5,5,0,0,1-3.83-1.54,5.67,5.67,0,0,1-1.43-4,5.93,5.93,0,0,1,1.61-4.34,5.48,5.48,0,0,1,4.1-1.66,6.54,6.54,0,0,1,2.64.46v1.4a5.3,5.3,0,0,0-2.65-.67A4.07,4.07,0,0,0,403,130a4.84,4.84,0,0,0-1.2,3.44,4.61,4.61,0,0,0,1.12,3.26,3.82,3.82,0,0,0,2.94,1.22,5.49,5.49,0,0,0,2.92-.75Z"/><path class="cls-1" d="M414.22,139.06a3.71,3.71,0,0,1-2.83-1.13,4.15,4.15,0,0,1-1.06-3,4.28,4.28,0,0,1,1.11-3.14,3.92,3.92,0,0,1,3-1.14,3.6,3.6,0,0,1,2.79,1.1,4.39,4.39,0,0,1,1,3.06,4.28,4.28,0,0,1-1.08,3.06A3.81,3.81,0,0,1,414.22,139.06Zm.1-7.3a2.44,2.44,0,0,0-2,.84,3.5,3.5,0,0,0-.71,2.32,3.29,3.29,0,0,0,.72,2.24,2.51,2.51,0,0,0,1.95.82,2.34,2.34,0,0,0,1.91-.81,3.5,3.5,0,0,0,.67-2.28,3.58,3.58,0,0,0-.67-2.32A2.34,2.34,0,0,0,414.32,131.76Z"/><path class="cls-1" d="M426.89,138.87h-1.28v-4.56q0-2.55-1.86-2.55a2,2,0,0,0-1.59.72,2.7,2.7,0,0,0-.63,1.83v4.56h-1.28v-8h1.28v1.33h0a2.88,2.88,0,0,1,2.62-1.52,2.48,2.48,0,0,1,2,.85,3.78,3.78,0,0,1,.69,2.45Z"/><path class="cls-1" d="M428.82,138.58V137.2a3.78,3.78,0,0,0,2.3.78c1.13,0,1.69-.38,1.69-1.13a1,1,0,0,0-.14-.54,1.45,1.45,0,0,0-.39-.39,2.89,2.89,0,0,0-.58-.31l-.72-.29q-.53-.21-.93-.42a3,3,0,0,1-.67-.49,1.77,1.77,0,0,1-.41-.61,2.22,2.22,0,0,1-.13-.81,1.92,1.92,0,0,1,.25-1,2.4,2.4,0,0,1,.69-.73,3.37,3.37,0,0,1,1-.44,4.35,4.35,0,0,1,1.14-.15,4.61,4.61,0,0,1,1.86.36v1.3a3.6,3.6,0,0,0-2-.58,2.57,2.57,0,0,0-.65.08,1.77,1.77,0,0,0-.5.23,1.1,1.1,0,0,0-.32.36,1,1,0,0,0-.11.46,1.17,1.17,0,0,0,.11.52,1.28,1.28,0,0,0,.33.37,2.94,2.94,0,0,0,.53.3l.72.29a9.59,9.59,0,0,1,1,.42,3.22,3.22,0,0,1,.72.48,1.93,1.93,0,0,1,.45.62,2,2,0,0,1,.16.84,1.93,1.93,0,0,1-.26,1,2.32,2.32,0,0,1-.7.73,3.11,3.11,0,0,1-1,.42,4.7,4.7,0,0,1-1.2.15A4.51,4.51,0,0,1,428.82,138.58Z"/><path class="cls-1" d="M439.43,139.06a3.71,3.71,0,0,1-2.83-1.13,4.14,4.14,0,0,1-1.05-3,4.28,4.28,0,0,1,1.1-3.14,3.92,3.92,0,0,1,3-1.14,3.6,3.6,0,0,1,2.79,1.1,4.39,4.39,0,0,1,1,3.06,4.28,4.28,0,0,1-1.08,3.06A3.81,3.81,0,0,1,439.43,139.06Zm.1-7.3a2.42,2.42,0,0,0-1.95.84,3.45,3.45,0,0,0-.72,2.32,3.29,3.29,0,0,0,.72,2.24,2.51,2.51,0,0,0,1.95.82,2.34,2.34,0,0,0,1.91-.81,3.5,3.5,0,0,0,.67-2.28,3.58,3.58,0,0,0-.67-2.32A2.34,2.34,0,0,0,439.53,131.76Z"/><path class="cls-1" d="M449.63,132.17a1.55,1.55,0,0,0-1-.26,1.63,1.63,0,0,0-1.37.77,3.57,3.57,0,0,0-.56,2.11v4.08h-1.28v-8h1.28v1.65h0a2.86,2.86,0,0,1,.83-1.32,2,2,0,0,1,1.26-.47,2.11,2.11,0,0,1,.76.11Z"/><path class="cls-1" d="M454.73,138.79a2.42,2.42,0,0,1-1.19.25q-2.1,0-2.1-2.34V132h-1.38v-1.09h1.38v-2l1.28-.42v2.37h2V132h-2v4.51a1.89,1.89,0,0,0,.27,1.15,1.11,1.11,0,0,0,.91.34,1.37,1.37,0,0,0,.83-.26Z"/><path class="cls-1" d="M457.1,128.84a.82.82,0,0,1-.58-.23.85.85,0,0,1,0-1.2.82.82,0,0,1,.58-.23.86.86,0,0,1,.6.23.86.86,0,0,1,0,1.19A.83.83,0,0,1,457.1,128.84Zm.63,10h-1.29v-8h1.29Z"/><path class="cls-1" d="M466.79,138.87H465.5V137.6h0a2.63,2.63,0,0,1-2.47,1.46q-2.85,0-2.85-3.41v-4.78h1.27v4.58c0,1.68.64,2.53,1.94,2.53a2,2,0,0,0,1.54-.69,2.67,2.67,0,0,0,.6-1.81v-4.61h1.29Z"/><path class="cls-1" d="M480.73,138.87h-1.28v-4.59a3.53,3.53,0,0,0-.41-1.93,1.58,1.58,0,0,0-1.38-.59,1.71,1.71,0,0,0-1.4.75,2.89,2.89,0,0,0-.57,1.8v4.56h-1.28v-4.75c0-1.57-.61-2.36-1.82-2.36a1.69,1.69,0,0,0-1.39.71,2.88,2.88,0,0,0-.55,1.84v4.56h-1.28v-8h1.28v1.27h0a2.73,2.73,0,0,1,2.49-1.46,2.37,2.37,0,0,1,1.43.46,2.28,2.28,0,0,1,.83,1.2,2.86,2.86,0,0,1,2.66-1.66c1.76,0,2.64,1.09,2.64,3.26Z"/><path class="cls-3" d="M62.86,71.23c3.27-15,16.56-25.54,34.78-21.64C94.23,65.75,78.38,76.39,62.86,71.23Z"/><path class="cls-3" d="M61.2,96.86c-2.38-16.54,15-33.45,32.61-29.43C93.16,85.36,78.78,99.49,61.2,96.86Z"/><path class="cls-3" d="M69.42,131.3C57,102.4,67.51,93.42,91,85.09,86.15,102.75,72.14,104.07,69.42,131.3Z"/><path class="cls-3" d="M60.94,82.24C65,66,64.3,52.69,49.05,45.78,40.71,60.79,44.53,78.18,60.94,82.24Z"/><path class="cls-3" d="M62.87,110.33c-1.67-21-5.24-41.68-24.54-45.25C30,92.71,41.63,112.86,62.87,110.33Z"/><path class="cls-3" d="M73.23,144.16c-2.15-26.44-18.82-40.26-33.94-40.26C49.17,119.32,62.48,119,73.23,144.16Z"/><polyline class="cls-2" points="9.97 73.46 6.19 76.69 0 76.81 3.29 79.97 0.65 84.13 6.95 82.49 11.84 84.9 12.05 80.61 17.13 78.1 11.45 77.09 9.97 73.46"/><polyline class="cls-2" points="21.37 80.45 18.73 84.36 12.47 85.32 17.01 88.21 15.86 92.96 21.63 90.35 27.41 92.18 26.06 87.67 30.22 84.36 24.18 84.07 21.37 80.45"/><polyline class="cls-2" points="35.34 86.21 34.15 90.63 28.3 92.51 33.81 94.86 34.39 99.93 39.11 96.39 45.35 97.45 42.48 93.02 45.33 89.05 39.39 89.57 35.34 86.21"/><polyline class="cls-2" points="50.83 90.17 51.21 94.83 46.27 97.58 52.36 99.18 54.64 104.23 57.89 99.97 64.08 100.13 59.9 96.08 61.23 91.69 55.82 93.03 50.83 90.17"/><polyline class="cls-2" points="66.7 92.01 68.59 96.63 64.94 100.07 71.08 100.8 74.82 105.47 76.39 100.8 82.02 100.08 76.96 96.68 76.74 92.13 72.23 94.2 66.7 92.01"/><polyline class="cls-2" points="81.67 91.77 84.85 96.07 82.67 99.96 88.39 99.81 93.17 103.85 93.07 99.07 97.79 97.6 92.28 94.97 90.64 90.55 87.31 93.18 81.67 91.77"/><polyline class="cls-2" points="102.3 87.22 100.22 90.19 94.86 89.56 98.97 93.33 98.28 97.4 103.19 96.48 108.51 99.72 106.99 95.13 110.57 93.1 105.05 91.29 102.3 87.22"/><polyline class="cls-2" points="111.38 82.63 110.52 85.77 105.72 85.82 110.4 88.94 111.05 92.96 114.93 91.44 120.36 93.85 117.72 89.67 120.11 87.27 114.94 86.22 111.38 82.63"/><polyline class="cls-2" points="117.67 77.12 117.88 80.23 113.87 80.86 118.74 83.3 120.47 87.06 123.25 85.12 128.43 86.74 125.04 83.1 126.3 80.53 121.72 80.14 117.67 77.12"/><polyline class="cls-2" points="121.37 71.07 122.47 74.04 119.31 75.1 124.07 76.87 126.62 80.25 128.34 78.09 133.05 79.02 129.22 75.95 129.5 73.36 125.61 73.51 121.37 71.07"/><polyline class="cls-2" points="122.61 64.83 124.4 67.56 122.09 68.93 126.56 70.1 129.63 73.04 130.41 70.79 134.51 71.15 130.51 68.66 129.99 66.16 126.84 66.72 122.61 64.83"/><polyline class="cls-2" points="121.74 58.65 124.04 61.09 122.52 62.64 126.56 63.3 129.94 65.79 129.93 63.56 133.38 63.48 129.39 61.52 128.23 59.18 125.8 60.03 121.74 58.65"/><polyline class="cls-2" points="119.14 52.77 121.78 54.92 120.97 56.56 124.53 56.8 128.06 58.85 127.39 56.71 130.2 56.3 126.35 54.8 124.71 52.66 122.94 53.72 119.14 52.77"/><polyline class="cls-2" points="115.17 47.3 118.03 49.15 117.85 50.82 120.9 50.72 124.43 52.36 123.26 50.36 125.46 49.7 121.82 48.61 119.82 46.69 118.65 47.87 115.17 47.3"/><polyline class="cls-2" points="113.97 41.33 113.34 42.6 110.21 42.35 113.21 43.9 113.56 45.56 116.1 45.17 119.56 46.46 117.98 44.62 119.64 43.77 116.25 43.04 113.97 41.33"/><polyline class="cls-2" points="107.37 36.56 107.22 37.87 104.43 37.89 107.5 39.17 108.3 40.78 110.37 40.18 113.7 41.14 111.8 39.47 112.95 38.49 109.84 38.05 107.37 36.56"/><polyline class="cls-2" points="100.25 32.35 100.53 33.67 98.11 33.92 101.17 34.95 102.37 36.48 103.97 35.71 107.14 36.38 104.98 34.88 105.68 33.82 102.86 33.64 100.25 32.35"/><polyline class="cls-2" points="92.67 28.7 93.33 30.01 91.26 30.45 94.3 31.24 95.84 32.68 97 31.77 99.98 32.19 97.63 30.87 97.9 29.75 95.37 29.79 92.67 28.7"/><polyline class="cls-2" points="84.7 25.57 85.71 26.84 84 27.45 86.98 28.01 88.81 29.34 89.55 28.34 92.33 28.53 89.83 27.38 89.71 26.23 87.48 26.47 84.7 25.57"/><polyline class="cls-2" points="76.44 22.98 77.78 24.21 76.43 24.96 79.32 25.3 81.42 26.53 81.76 25.45 84.32 25.42 81.69 24.44 81.22 23.28 79.26 23.69 76.44 22.98"/><polyline class="cls-2" points="67.95 20.93 69.61 22.1 68.6 22.98 71.38 23.11 73.71 24.21 73.67 23.08 76.01 22.86 73.29 22.05 72.46 20.89 70.8 21.45 67.95 20.93"/><polyline class="cls-2" points="63.57 19.07 62.21 19.78 59.36 19.44 61.3 20.54 60.65 21.53 63.31 21.46 65.85 22.43 65.44 21.26 67.54 20.86 64.73 20.22 63.57 19.07"/><polyline class="cls-2" points="54.58 17.82 53.52 18.67 50.67 18.52 52.92 19.53 52.64 20.63 55.15 20.36 57.89 21.18 57.1 19.98 58.95 19.41 56.08 18.95 54.58 17.82"/><polyline class="cls-2" points="45.57 17.15 44.85 18.13 42.03 18.18 44.57 19.09 44.68 20.26 47.02 19.79 49.93 20.45 48.76 19.25 50.34 18.51 47.41 18.23 45.57 17.15"/><path class="cls-3" d="M90.35,17.31c8.23,2.17,14.06-.42,18.08-7.13C99.24,8.86,94.57,8.68,90.35,17.31Z"/><path class="cls-3" d="M78.83,31c3.81-9.06,11-13.82,23.82-10.72C101,29.35,88.83,35.54,78.83,31Z"/><path class="cls-3" d="M69.54,49.59c4.52-13.7,18.34-21,35-18.1C99.79,46.26,83.54,55.93,69.54,49.59Z"/><path class="cls-3" d="M85.07,20.6C81.35,13,84.49,6,91.4,0,94.47,8.76,92.72,14.79,85.07,20.6Z"/><path class="cls-3" d="M75.49,36.73c6.43-7.38,11.67-18.34,3.34-28.58C67.39,14.82,66.74,30.1,75.49,36.73Z"/><path class="cls-3" d="M65.49,60.31C72.79,47.87,76.21,33.4,65,20.06,50.24,34.59,51.48,54,65.49,60.31Z"/></g></g></svg>