<?xml version="1.0" encoding="UTF-8"?>
<svg width="191px" height="89px" viewBox="0 0 191 89" version="1.1" xmlns="http://www.w3.org/2000/svg" xmlns:xlink="http://www.w3.org/1999/xlink">
    <!-- Generator: Sketch 63.1 (92452) - https://sketch.com -->
    <title>logos/taipei20-inverted</title>
    <desc>Created with Sketch.</desc>
    <g id="Page-1" stroke="none" stroke-width="1" fill="none" fill-rule="evenodd">
        <g id="Home---Tablet-Landscape" transform="translate(-53.000000, -4046.000000)">
            <g id="footer" transform="translate(0.000000, 3921.000000)">
                <g id="logos/taipei20-inverted" transform="translate(48.000000, 125.000000)">
                    <g id="Group-31" transform="translate(5.309434, 0.000000)">
                        <path d="M27.1912679,0.719928 C27.1912679,0.719928 28.2405334,1.592568 31.0570212,1.592568 C33.8749654,1.592568 36.4613575,1.648728 37.8412036,1.493928 C39.2210496,1.339128 40.3001693,0.725688 40.3001693,0.725688 L40.0271127,1.508328 L39.9542976,1.655928 L40.1120674,3.32049459 C40.6223208,3.2944783 41.0843824,3.26133762 41.4913514,3.219336 C44.1214326,2.948616 46.1777309,1.875096 46.1777309,1.875096 L45.657103,3.244536 L45.5180261,3.503016 L45.6268375,4.560928 L46.764208,4.56147491 C46.9323806,4.54282854 47.0958158,4.52323955 47.2543749,4.502664 C51.7645418,3.917304 55.291705,1.598184 55.291705,1.598184 L54.3989919,4.555944 L54.1608866,5.114664 L55.291705,15.078024 L39.9568375,15.077928 L39.9577927,46.851408 L28.1049517,46.851408 L28.1048375,15.077928 L12.4378375,15.078024 L13.5184135,4.662504 L12.4378375,1.575144 L12.4486249,1.58522349 C12.6225948,1.74540502 14.9160238,3.77163579 20.4326292,4.56207852 L21.6998375,4.560928 L21.8210818,3.293496 L21.1912313,1.865016 L21.2032006,1.87379746 C21.3615018,1.98759256 23.1056237,3.17226187 27.3613566,3.36554221 L27.5218484,1.536408 L27.1912679,0.719928 Z" id="Combined-Shape" stroke="#FFFFFF" stroke-width="0.756"></path>
                        <g id="Group-30" transform="translate(0.000000, 1.442640)">
                            <path d="M66.5234333,39.739488 C68.1450254,39.739488 69.4556971,39.272208 70.4605454,38.336928 C71.4632093,37.401648 71.9656334,36.171168 71.9656334,34.644048 L71.9656334,33.213408 C70.6920974,32.679168 69.2641934,32.411328 67.6811933,32.411328 C66.0981931,32.411328 64.8639773,32.764848 63.9763613,33.470448 C63.087289,34.177488 62.6445732,35.101968 62.6445732,36.246768 L62.6445732,36.361968 C62.6445732,37.392288 63.000639,38.213088 63.7156833,38.823648 C64.4292712,39.434208 65.3656733,39.739488 66.5234333,39.739488 M62.5870493,46.551408 C59.498233,46.551408 56.9708211,45.712608 55.0026291,44.032848 C53.0337089,42.353808 52.0492488,40.006608 52.0492488,36.991248 L52.0492488,36.876768 C52.0492488,33.748368 53.1494849,31.343568 55.3492289,29.663808 C57.5497011,27.984768 60.540217,27.144528 64.3236893,27.144528 C67.0637213,27.144528 69.5722013,27.545568 71.8498574,28.346928 L71.8498574,27.831408 C71.8498574,24.473328 69.7658894,22.793568 65.5972253,22.793568 C62.7792811,22.793568 59.9030849,23.366688 56.9708211,24.511488 L54.712825,16.839888 C58.6499371,15.237168 62.8761252,14.435808 67.3913892,14.435808 C72.7949974,14.435808 76.7707015,15.695088 79.3185017,18.214368 C81.5568377,20.389488 82.6767338,23.672688 82.6767338,28.060368 L82.6767338,45.864528 L71.7916054,45.864528 L71.7916054,42.659088 C69.4374934,45.254688 66.3690653,46.551408 62.5870493,46.551408" id="Fill-2" stroke="#FFFFFF" stroke-width="0.756"></path>
                            <path d="M88.2060208,45.86496 L99.205469,45.86496 L99.205469,14.89416 L88.2060208,14.89416 L88.2060208,45.86496 Z M87.9737407,8.08152 L87.9737407,8.08152 C87.9737407,5.86824 89.7882928,4.074 92.0266288,4.074 L95.3841328,4.074 C97.6224688,4.074 99.4377491,5.86824 99.4377491,8.08152 C99.4377491,10.29408 97.6224688,12.08832 95.3841328,12.08832 L92.0266288,12.08832 C89.7882928,12.08832 87.9737407,10.29408 87.9737407,8.08152 L87.9737407,8.08152 Z" id="Fill-4" stroke="#FFFFFF" stroke-width="0.756"></path>
                            <path d="M122.166544,37.449384 C123.97964,37.449384 125.505116,36.790584 126.74006,35.474424 C127.975732,34.157544 128.593204,32.469144 128.593204,30.407784 L128.593204,30.293304 C128.593204,28.270824 127.975732,26.601144 126.74006,25.284264 C125.505116,23.967384 123.97964,23.309304 122.166544,23.309304 C120.391312,23.309304 118.885496,23.967384 117.650552,25.284264 C116.41488,26.601144 115.798136,28.270824 115.798136,30.293304 L115.798136,30.407784 C115.798136,32.430984 116.41488,34.110024 117.650552,35.445624 C118.885496,36.781944 120.391312,37.449384 122.166544,37.449384 L122.166544,37.449384 Z M105.029511,52.356264 L105.029511,14.893944 L116.02896,14.893944 L116.02896,19.015224 C118.692536,15.809784 121.85708,14.207064 125.524776,14.207064 C129.383248,14.207064 132.664296,15.676584 135.366464,18.614904 C138.067904,21.553944 139.419352,25.427544 139.419352,30.236424 L139.419352,30.350904 C139.419352,35.236104 138.078098,39.157944 135.39559,42.114984 C132.712354,45.072744 129.4415,46.551624 125.5823,46.551624 C121.798828,46.551624 118.614624,45.063384 116.02896,42.086184 L116.02896,52.356264 L105.029511,52.356264 Z" id="Fill-6" stroke="#FFFFFF" stroke-width="0.756"></path>
                            <path d="M152.659976,27.831696 L163.544377,27.831696 C163.350688,26.114496 162.771808,24.750096 161.807737,23.738496 C160.842208,22.727616 159.607264,22.221456 158.102176,22.221456 C156.673544,22.221456 155.486658,22.727616 154.541518,23.738496 C153.594922,24.750096 152.968712,26.114496 152.659976,27.831696 M159.028384,46.609296 C154.087152,46.609296 150.054652,45.120336 146.927972,42.143856 C143.80202,39.166656 142.237952,35.293776 142.237952,30.522336 L142.237952,30.407856 C142.237952,25.827936 143.724108,21.983136 146.697148,18.872736 C149.668732,15.762336 153.450748,14.207136 158.044653,14.207136 C163.17666,14.207136 167.094841,15.809856 169.797009,19.015296 C172.497721,22.221456 173.849897,26.267136 173.849897,31.152336 C173.849897,32.145216 173.829509,32.888976 173.791645,33.384336 L152.833276,33.384336 C153.720892,36.782016 155.978888,38.479776 159.607264,38.479776 C162.077152,38.479776 164.392672,37.430736 166.554553,35.331216 L172.633885,40.311456 C169.275653,44.510496 164.74,46.609296 159.028384,46.609296" id="Fill-7" stroke="#FFFFFF" stroke-width="0.756"></path>
                            <path d="M76.0469923,80.817072 L76.0469923,75.753312 L85.8806708,68.816112 C87.1061488,67.914672 87.9762892,67.139952 88.4889075,66.491952 C89.0015257,65.845392 89.2592912,65.162832 89.2592912,64.445712 C89.2592912,63.683232 88.9891472,63.082032 88.4517718,62.642112 C87.9136682,62.202912 87.2066337,61.983312 86.3313962,61.983312 C85.4801878,61.983312 84.661018,62.220912 83.8724305,62.694672 C83.0845712,63.168432 82.1649165,63.971952 81.1141947,65.105232 L76.1969914,61.324512 C77.6984386,59.520912 79.2494002,58.202592 80.8513322,57.370272 C82.4525362,56.537952 84.4666017,56.121792 86.8935288,56.121792 C89.7711813,56.121792 92.1049051,56.838192 93.8939719,58.272432 C95.6830388,59.705952 96.5772082,61.567152 96.5772082,63.856032 L96.5772082,63.925872 C96.5772082,65.752512 96.1017256,67.267392 95.1507605,68.469072 C94.2005235,69.672192 92.6488338,70.989792 90.4971478,72.423312 L85.992806,75.337152 L96.8407988,75.337152 L96.8407988,80.817072 L76.0469923,80.817072 Z" id="Fill-8" fill="#FF5547"></path>
                            <path d="M113.514072,73.481352 C114.414066,74.718312 115.590758,75.336792 117.041963,75.336792 C118.49244,75.336792 119.656753,74.724792 120.532719,73.498632 C121.407956,72.273192 121.845575,70.689192 121.845575,68.746632 L121.845575,68.677512 C121.845575,66.734952 121.389024,65.139432 120.476651,63.890952 C119.562822,62.642472 118.392683,62.018232 116.966964,62.018232 C115.540516,62.018232 114.382756,62.630952 113.49514,63.856392 C112.606796,65.081832 112.162624,66.665832 112.162624,68.607672 L112.162624,68.677512 C112.162624,70.643112 112.613349,72.244392 113.514072,73.481352 M125.805988,77.643672 C123.566196,80.083032 120.620097,81.302712 116.966964,81.302712 C113.313102,81.302712 110.379382,80.094552 108.165075,77.678232 C105.950768,75.261912 104.843979,72.284712 104.843979,68.746632 L104.843979,68.677512 C104.843979,65.139432 105.9697,62.151432 108.221143,59.711352 C110.473314,57.271992 113.413587,56.052312 117.041963,56.052312 C120.669611,56.052312 123.597506,57.260472 125.824192,59.676792 C128.051605,62.093112 129.164948,65.070312 129.164948,68.607672 L129.164948,68.677512 C129.164948,72.215592 128.045052,75.204312 125.805988,77.643672" id="Fill-9" fill="#FFBB00"></path>
                            <path d="M137.168274,80.817072 L137.168274,75.753312 L147.001952,68.816112 C148.22743,67.914672 149.097571,67.139952 149.610917,66.491952 C150.122807,65.845392 150.380573,65.162832 150.380573,64.445712 C150.380573,63.683232 150.110429,63.082032 149.573053,62.642112 C149.03495,62.202912 148.327915,61.983312 147.452678,61.983312 C146.601469,61.983312 145.782299,62.220912 144.993712,62.694672 C144.205853,63.168432 143.286198,63.971952 142.235476,65.105232 L137.318273,61.324512 C138.81972,59.520912 140.370682,58.202592 141.972614,57.370272 C143.573818,56.537952 145.587883,56.121792 148.01481,56.121792 C150.892463,56.121792 153.226187,56.838192 155.015253,58.272432 C156.80432,59.705952 157.69849,61.567152 157.69849,63.856032 L157.69849,63.925872 C157.69849,65.752512 157.223007,67.267392 156.27277,68.469072 C155.321805,69.672192 153.770115,70.989792 151.619157,72.423312 L147.114816,75.337152 L157.96208,75.337152 L157.96208,80.817072 L137.168274,80.817072 Z" id="Fill-10" fill="#007F00"></path>
                            <path d="M174.635353,73.481352 C175.535348,74.718312 176.71204,75.336792 178.163245,75.336792 C179.613721,75.336792 180.778035,74.724792 181.654,73.498632 C182.529238,72.273192 182.966856,70.689192 182.966856,68.746632 L182.966856,68.677512 C182.966856,66.734952 182.510306,65.139432 181.597933,63.890952 C180.684103,62.642472 179.513965,62.018232 178.088245,62.018232 C176.661797,62.018232 175.504037,62.630952 174.616421,63.856392 C173.728077,65.081832 173.283905,66.665832 173.283905,68.607672 L173.283905,68.677512 C173.283905,70.643112 173.734631,72.244392 174.635353,73.481352 M186.927269,77.643672 C184.687477,80.083032 181.741378,81.302712 178.088245,81.302712 C174.434384,81.302712 171.500664,80.094552 169.286357,77.678232 C167.07205,75.261912 165.96526,72.284712 165.96526,68.746632 L165.96526,68.677512 C165.96526,65.139432 167.090981,62.151432 169.342424,59.711352 C171.594595,57.271992 174.53414,56.052312 178.163245,56.052312 C181.790893,56.052312 184.718788,57.260472 186.945473,59.676792 C189.172887,62.093112 190.28623,65.070312 190.28623,68.607672 L190.28623,68.677512 C190.28623,72.215592 189.166334,75.204312 186.927269,77.643672" id="Fill-11" fill="#0000C8"></path>
                            <path d="M176.872524,33.561888 C176.872524,33.561888 177.249898,33.3919987 178.105976,33.262512 L176.872743,27.703464 C176.872743,27.703464 177.243608,27.536505 178.084058,27.4074616 L176.872743,21.95016 C176.872743,21.95016 177.243608,21.783201 178.084058,21.6541576 L176.872743,16.196856 C176.872743,16.196856 177.243608,16.030168 178.084058,15.9013341 L176.872743,10.443552 C176.872743,10.443552 177.857931,10.000752 180.255732,10.000752 C180.43451,10.000752 180.604193,10.0145482 180.765088,10.0399186 L180.456629,4.995744 L182.687608,4.99528 L182.687975,0.11328 L183.89889,0.11328 L183.898608,4.99528 L186.130381,4.995744 L185.823167,10.0328539 C185.961211,10.0119977 186.105351,10.000752 186.255696,10.000752 C188.322916,10.000752 189.714413,10.443552 189.714413,10.443552 L189.714413,10.443552 L188.495841,15.9300948 C189.264332,16.053632 189.714413,16.196856 189.714413,16.196856 L189.714413,16.196856 L188.495841,21.6829651 C189.264332,21.8067031 189.714413,21.95016 189.714413,21.95016 L189.714413,21.95016 L188.495841,27.4362691 C189.264332,27.5600071 189.714413,27.703464 189.714413,27.703464 L189.714413,27.703464 L188.47335,33.2910596 C189.255733,33.4156045 189.714923,33.561888 189.714923,33.561888 L189.714923,33.561888 L188.244786,40.174368 L188.247917,40.17444 L189.903732,48.27084 L176.685608,48.27084 L178.341423,40.17444 Z" id="Combined-Shape" stroke="#FFFFFF" stroke-width="0.756"></path>
                            <path d="M21.8154023,60.697464 C22.0680706,60.467784 22.2056912,60.242424 22.3935541,60.189864 C23.0903946,59.994744 23.4217032,59.354664 23.9714572,58.983144 C24.2386886,58.802424 24.2772806,58.477704 24.0355345,58.164504 C23.5979158,57.596424 22.9826282,57.366744 22.3192827,57.219144 C22.1634584,57.185304 21.9799644,57.186024 21.828509,57.232824 C21.3552109,57.378984 20.8899224,57.548184 20.4253621,57.720264 C20.0008501,57.877224 19.5770663,58.037784 19.1612921,58.218504 C18.7112948,58.415064 18.2875109,58.687944 17.8229506,58.831224 C17.3671282,58.972344 16.855238,58.937784 16.3986874,59.076024 C15.321024,59.401464 14.2622925,59.783784 13.1402119,60.162504 C13.0237078,59.774424 12.9159414,59.384184 12.7848743,59.002584 C12.7535638,58.909704 12.6450693,58.788024 12.5642445,58.781544 C12.4775946,58.774344 12.334877,58.867224 12.2970131,58.952184 C12.1666741,59.240904 12.0428885,59.537544 11.9686171,59.843544 C11.8127928,60.482904 11.8120646,61.140264 11.4873093,61.760904 C11.0962922,62.510424 11.3081842,63.339144 11.4822122,64.122504 C11.5411925,64.387464 11.7050264,64.711464 11.9212872,64.834584 C12.1069657,64.940424 12.5271088,64.892184 12.6829331,64.745304 C12.9720091,64.470984 13.2559879,64.100184 13.3389971,63.725064 C13.4664235,63.153384 13.4263752,62.544264 13.4460353,61.950984 C13.4576857,61.597464 13.4467635,61.243944 13.4489479,60.890424 C13.4511324,60.582984 13.6105974,60.383544 13.9186053,60.405144 C14.404282,60.438984 14.9103469,60.084024 15.3800042,60.472824 C15.412771,60.500184 15.4877706,60.473544 15.5416537,60.479304 C16.0244178,60.534024 16.5093663,60.576504 16.9884897,60.652104 C17.3613029,60.710424 17.4639722,60.965304 17.2462551,61.264104 C17.1035375,61.459224 16.9287813,61.631304 16.7642192,61.809864 C16.2479602,62.371464 16.5071819,63.091464 17.0008682,63.198744 C17.6015928,63.329064 18.2285307,63.351384 18.8467309,63.397464 C19.1787677,63.422664 19.518086,63.370104 19.8479384,63.406824 C20.6620112,63.497544 21.4658898,63.596184 22.1678273,63.021624 C22.2763218,62.932344 22.4321461,62.870424 22.5719511,62.855304 C23.1377244,62.791944 23.5207318,62.446344 23.5950032,61.896984 C23.6467019,61.518984 23.4668486,61.346904 22.8304447,61.121544 C22.5217087,61.012104 22.2246231,60.870264 21.8154023,60.697464 M12.1892468,56.219064 C12.0924027,56.432184 11.9817238,56.571144 11.9708015,56.716584 C11.9256562,57.350904 12.5001672,57.920424 13.2472501,57.848424 C14.1122934,57.764904 14.96423,57.547464 15.8198074,57.376104 C16.9316939,57.153624 18.0683375,57.059304 19.1605639,56.723064 C19.9535203,56.479704 20.7595834,56.258664 21.5743843,56.109624 C21.9952555,56.032584 22.38336,56.023944 22.6797174,55.645944 C22.9585992,55.289544 22.9680652,55.108104 22.5362717,54.940344 C22.2035067,54.812184 21.8234119,54.802104 21.4913751,54.672504 C20.8615245,54.426984 20.3459937,54.818664 19.7773078,54.906504 C19.4642029,54.954744 19.1438165,54.956184 18.8270708,54.979224 C18.847459,54.771864 18.8693035,54.563784 18.8875073,54.356424 C18.8940607,54.288744 18.8853229,54.218904 18.8969733,54.152664 C19.0200308,53.476584 19.1853211,53.319624 19.8493947,53.208744 C20.0729371,53.171304 20.2921105,53.106504 20.5156528,53.060424 C21.1972021,52.919304 21.8751106,52.741464 22.5639414,52.656504 C23.0241328,52.599624 23.4486448,52.596744 23.8316522,52.250424 C24.2692709,51.855864 24.7382002,51.474984 24.5612595,50.841384 C24.3945129,50.241624 24.158592,49.608024 23.3022865,49.678584 C23.2411218,49.683624 23.1712193,49.569144 23.1035013,49.512984 C23.010298,49.436664 22.9251043,49.324344 22.8180661,49.294824 C22.5486503,49.220664 22.2552054,49.106184 21.9952555,49.147944 C21.4025407,49.242984 20.8200199,49.407144 20.2404118,49.569864 C19.6331339,49.741224 19.5843478,49.730424 19.3608054,49.150824 C19.3418735,49.101144 19.3163882,49.052904 19.2872622,49.008264 C18.5896936,47.943384 17.4829042,47.460984 16.3542702,47.022504 C16.2151934,46.968504 16.001117,47.031144 15.8482053,47.098104 C15.6457793,47.188104 15.4702949,47.335704 15.253306,47.478264 C15.4834017,47.779224 15.7149537,48.057144 15.9159233,48.355224 C16.2661639,48.872184 16.6324238,49.382664 16.9236842,49.931304 C17.1843623,50.421624 16.9579073,51.036504 16.4503861,51.265464 C15.3901983,51.744264 14.308166,52.178424 13.2428812,52.646424 C12.8285633,52.827864 12.4317211,53.048184 12.0283254,53.251224 C12.0428885,53.295864 12.0581796,53.339784 12.0734708,53.384424 C12.4251677,53.384424 12.7768646,53.383704 13.1278334,53.384424 C14.2156909,53.385144 15.3035484,53.395944 16.3906777,53.378664 C16.6688314,53.375064 16.9025678,53.536344 16.7955297,53.762424 C16.5115508,54.367224 16.4809685,55.006584 16.5086382,55.650264 C16.5224731,55.990104 16.3586391,56.147784 16.0695632,56.230584 C15.3683538,56.432904 14.7348625,56.819544 13.9673914,56.851224 C13.3033177,56.877864 12.658176,56.998104 12.1892468,56.219064" id="Fill-23" fill="#FFFFFF"></path>
                            <path d="M13.4480741,87.09 C12.2815763,86.63352 11.1114378,86.18856 9.95149331,85.71552 C9.50659309,85.5348 9.46436033,85.27056 9.71775686,84.8616 C10.1502785,84.16392 10.6097418,84.09192 11.5017267,84.25464 C11.841045,84.31584 12.1621596,84.47568 12.5014779,84.52896 C12.7155543,84.5628 12.9580286,84.5124 13.1713768,84.44616 C13.5551123,84.32664 13.9060811,84.23376 14.3298649,84.36768 C14.9102012,84.55056 15.7956328,83.98536 16.0162625,83.40864 C16.2296107,82.8528 16.4757258,82.30776 16.7240252,81.76488 C16.8864029,81.40992 16.8033937,81.24576 16.4007262,81.21552 C16.1815528,81.19896 15.9128651,81.28536 15.7497593,81.18816 C15.1111709,80.80512 14.2825351,80.73384 13.7837517,79.98072 C13.9322945,79.92816 14.0903033,79.81008 14.2155452,79.83744 C15.0835012,80.0232 15.902671,79.87128 16.7232971,79.58832 C17.0691688,79.4688 17.4580014,79.43568 17.5635833,79.01736 C17.6283887,78.76176 17.7208639,78.45288 17.6349421,78.23112 C17.359701,77.51832 17.8009605,77.14392 18.2480452,76.75944 C18.4096947,76.62048 18.5968295,76.506 18.7868769,76.40592 C19.2521653,76.1604 19.704347,75.88032 20.2526447,76.2792 C20.441964,76.41744 20.7332243,76.43544 20.9829801,76.47288 C21.3077354,76.52256 21.518171,76.38864 21.7104029,76.09488 C21.9652557,75.70464 22.3344283,75.38784 22.6286012,75.0192 C22.8310272,74.7672 22.989036,74.48136 23.1943745,74.16816 C23.0414628,74.13432 22.9781137,74.09832 22.9417061,74.1156 C22.2732636,74.45256 21.5298215,74.13792 20.8497285,74.35752 C20.5053131,74.46912 20.1667229,74.59656 19.8230357,74.7096 C18.8749831,75.01992 17.9123676,75.28992 16.9825188,75.6456 C16.2347078,75.93144 15.5182073,76.3008 14.8089883,76.67232 C14.6087467,76.77816 14.4907863,77.03232 14.320399,77.2044 C13.8645765,77.6652 13.4014725,78.1188 12.9412811,78.57456 C12.8051169,78.70992 12.9034172,79.0656 12.5699241,79.0008 C12.3871582,78.9648 12.1920138,78.8784 12.0536651,78.75816 C11.7937152,78.5328 11.5679884,78.26712 11.3313394,78.01512 C11.2869221,77.9676 11.2199323,77.8956 11.2308545,77.85024 C11.2985726,77.55504 11.4609502,77.25984 11.4463872,76.97184 C11.4267271,76.578 11.7034245,76.4916 11.927695,76.32168 C12.0944415,76.19568 12.2575474,76.06248 12.4031775,75.91416 C12.6114287,75.70176 12.7985635,75.47064 12.9995332,75.25104 C13.5798695,74.61672 14.1813221,74.0004 14.7361732,73.3452 C15.0529188,72.97008 14.9123857,72.672 14.4150586,72.56184 C13.9963718,72.46896 13.5740443,72.38976 13.1509886,72.31704 C12.699535,72.24 12.3973523,71.628 12.6296325,71.23848 C12.6638556,71.1816 12.7075446,71.1276 12.757787,71.08296 C13.2711335,70.62288 13.2813276,70.61712 13.6657913,71.20032 C13.818703,71.43288 13.9767117,71.44512 14.2541372,71.448 C15.8327685,71.46312 17.2948956,70.85256 18.8349348,70.66248 C19.41964,70.58976 19.9708503,70.28088 20.548274,70.11672 C21.0346788,69.97776 21.5320059,69.86256 22.0322456,69.79272 C22.6569991,69.7056 23.2919467,69.684 23.920341,69.61776 C24.2669409,69.58176 24.5399975,69.66816 24.725676,69.99936 C24.2844165,70.84176 23.4972853,71.27736 22.6540865,71.67048 C22.0599154,71.94696 21.5079769,72.30984 20.9298251,72.62088 C20.7696319,72.70728 20.5846815,72.74976 20.4091972,72.80664 C20.2002178,72.87504 20.1186649,73.05216 20.3014308,73.15008 C20.5344391,73.27464 20.827884,73.31928 21.0987561,73.33656 C21.4060358,73.35672 21.7293348,73.24512 22.024236,73.30128 C22.8077264,73.44888 23.563547,73.40064 24.2975232,73.10976 C24.8720343,72.88296 25.4319824,72.78648 26.0094061,73.09536 C26.0880464,73.13784 26.2162009,73.08024 26.3195984,73.09104 C26.6742079,73.1256 27.0360989,73.14 27.3812424,73.22136 C27.6208041,73.27824 27.6674058,73.4928 27.5166785,73.69224 C27.2254181,74.0796 26.9509052,74.48784 26.6086743,74.8284 C26.1652304,75.27048 25.6708159,75.66576 25.1829547,76.0632 C24.7511612,76.41456 24.2844165,76.72488 23.8635452,77.08704 C23.7018957,77.22672 23.6247117,77.46072 23.486363,77.68752 C23.7878175,77.72568 24.026651,77.75952 24.267669,77.784 C24.6310163,77.82072 24.817423,78.0684 24.8683935,78.37512 C24.8909662,78.5112 24.7497049,78.702 24.6368415,78.828 C24.0674275,79.47096 23.2453451,79.67112 22.4917089,79.9836 C21.9732654,80.19888 21.4140455,80.33208 20.9261843,80.59632 C20.6655063,80.73744 20.476187,81.05784 20.3240035,81.3336 C20.0596847,81.8124 19.8463365,82.31856 19.6191534,82.8168 C19.5922118,82.87512 19.5892992,82.98168 19.6242504,83.0184 C19.6592017,83.0544 19.7604147,83.04144 19.8288609,83.0292 C20.3028871,82.94424 20.7754571,82.84344 21.2509397,82.7664 C22.1021481,82.62816 22.9533566,82.48632 23.8089339,82.37832 C24.9725191,82.23 26.134648,82.23504 27.2596412,82.62024 C27.9987144,82.87296 28.421042,83.59296 28.2921593,84.34176 C28.2513828,84.57288 28.1727425,84.80976 27.8239582,84.73992 C27.7227452,84.71976 27.5894936,84.78456 27.4875525,84.84072 C26.4448403,85.41672 25.3686332,85.90128 24.1402426,85.8552 C23.8344192,85.8444 23.5358773,85.68744 23.2278695,85.62912 C22.8696192,85.56144 22.5048156,85.48368 22.1436527,85.49016 C21.556763,85.50096 20.9684171,85.55856 20.3851682,85.632 C19.9227923,85.69032 19.467698,85.80768 19.0075066,85.88904 C18.2575111,86.02152 17.499506,86.11512 16.7604328,86.28792 C16.3956292,86.37288 16.0665049,86.60328 15.7169925,86.76024 C15.459227,86.87616 15.1949083,86.98056 14.9335021,87.09 L13.4480741,87.09 Z" id="Fill-24" fill="#FFFFFF"></path>
                            <path d="M0,73.62132 C0.299270038,73.16772 0.598540075,72.71412 0.896353811,72.2598 C0.925479849,72.21516 0.972081509,72.1626 0.967712604,72.11868 C0.897081962,71.45772 1.45047668,71.133 1.77304755,70.69812 C2.5871203,69.60012 3.43104725,68.52156 4.28880906,67.45596 C4.63176815,67.029 5.06574611,66.67404 5.41380226,66.25068 C5.63807275,65.97636 5.9446243,65.8626 6.22933132,65.70132 C6.30724347,65.65668 6.42301947,65.67828 6.522048,65.67036 C6.52131985,65.76396 6.55117404,65.87124 6.51695094,65.95116 C6.01671125,67.10748 5.98758521,68.32572 6.02544906,69.5526 C6.03054611,69.70956 6.08297298,69.86508 6.10481751,70.02276 C6.15069102,70.35756 6.38588377,70.42668 6.64364921,70.32948 C8.11232966,69.77868 9.56280634,69.17676 11.0416809,68.6562 C12.2664308,68.2242 13.5232193,67.8822 14.7647167,67.49772 C15.0064628,67.42284 15.2831602,67.2162 15.4775765,67.2774 C16.0054859,67.44228 16.3411635,67.12476 16.7372776,66.9318 C16.8690729,66.86844 17.0212565,66.76476 17.1472266,66.78348 C17.8411544,66.89076 18.3814424,66.45804 18.99673,66.29748 C20.1901694,65.98644 21.3712302,65.63076 22.5653977,65.32332 C22.9804438,65.21604 23.4231595,65.21964 23.8440308,65.13108 C24.2831058,65.03892 24.7105304,64.89276 25.1437802,64.77684 C25.7364951,64.61916 26.3219285,64.41468 26.9255656,64.32684 C27.795706,64.20012 28.6651182,64.24548 29.4915695,64.62132 C30.0515176,64.87692 30.6675333,65.01876 31.1066083,65.49828 C31.5121884,65.9418 31.4510237,66.29892 30.9209298,66.579 C30.7148631,66.68844 30.5466602,66.86484 30.3435061,66.97932 C30.2233612,67.04772 30.0668088,67.09164 29.9299164,67.08516 C28.9643882,67.04124 28.0010445,66.95196 27.0362445,66.939 C26.4704712,66.9318 25.9039698,67.04988 25.3367402,67.09164 C25.0469362,67.11324 24.7549476,67.0902 24.4644154,67.08948 C24.1411164,67.08804 23.8192737,67.08876 23.3554415,67.02108 C23.64743,66.82884 23.9379623,66.6366 24.2430575,66.43572 C23.92704,66.07644 23.6510708,66.23772 23.3736453,66.29748 C22.7328725,66.435 22.0833618,66.53724 21.4462297,66.68916 C21.0115236,66.79356 20.5950213,66.96924 20.1639559,67.09092 C19.8188124,67.18884 19.4605621,67.24212 19.1132341,67.335 C18.2212492,67.5726 17.3452836,67.9038 16.4387357,68.04204 C15.552576,68.17812 14.9030654,68.68716 14.1712737,69.08892 C13.8749162,69.25164 13.5057437,69.2862 13.1686098,69.37548 C12.3552652,69.59076 11.5564836,69.83124 10.7999348,70.22004 C10.4045488,70.4238 9.92906626,70.47132 9.49436015,70.60524 C9.29339049,70.66644 9.09096453,70.7442 8.91038309,70.84932 C8.28344513,71.21508 7.58514838,71.31516 6.88539532,71.3238 C6.08952634,71.33388 6.08588558,71.37708 5.96209992,72.08916 C5.78515925,73.11012 5.44220015,74.06556 5.02642596,75.00084 C4.83783487,75.42636 4.65142823,75.90804 4.31866325,76.20324 C3.84172438,76.62372 3.50604679,77.28396 2.66648875,77.22636 C1.34052589,77.13564 0.176940679,75.97644 0.158008755,74.64444 C0.155824302,74.49324 0.0553394717,74.34348 0,74.19228 L0,73.62132 Z" id="Fill-25" fill="#FFFFFF"></path>
                            <path d="M12.1893924,56.21928 C12.6583216,56.99832 13.3027352,56.87808 13.9668089,56.85072 C14.7350081,56.81904 15.3684994,56.4324 16.0697088,56.2308 C16.3587847,56.14728 16.5226187,55.99032 16.5087838,55.64976 C16.4811141,55.0068 16.5116964,54.36672 16.7956753,53.76192 C16.9027135,53.53584 16.6682489,53.37456 16.3908234,53.37888 C15.3029659,53.39616 14.2158365,53.38464 13.127979,53.38392 C12.7770102,53.38392 12.4245852,53.38392 12.0736164,53.38392 C12.0575971,53.34 12.0430341,53.29536 12.0277429,53.25144 C12.4318667,53.0484 12.828709,52.82808 13.2422987,52.64664 C14.3083117,52.17864 15.390344,51.74448 16.4505317,51.26568 C16.958053,51.036 17.1837797,50.42184 16.9238299,49.93152 C16.6325695,49.38288 16.2663096,48.8724 15.916069,48.35544 C15.7150993,48.05736 15.4828191,47.77944 15.2534516,47.47776 C15.4704406,47.33592 15.645925,47.18832 15.8476228,47.09832 C16.0005345,47.03064 16.2146108,46.968 16.3544158,47.02272 C17.4830498,47.4612 18.5898392,47.9436 19.2874078,49.00848 C19.3165339,49.05312 19.341291,49.10136 19.3609511,49.15104 C19.5837653,49.72992 19.6332795,49.74144 20.2405574,49.57008 C20.8201656,49.40736 21.4019582,49.2432 21.9954012,49.14816 C22.2553511,49.1064 22.5487959,49.22016 22.8182117,49.29504 C22.9252499,49.32456 23.0097154,49.43688 23.1029188,49.5132 C23.171365,49.56936 23.2412674,49.68384 23.3024321,49.6788 C24.1580095,49.60752 24.3946585,50.24184 24.5614051,50.8416 C24.7376176,51.4752 24.2694166,51.85536 23.8310697,52.25064 C23.4487905,52.59624 23.0242785,52.59984 22.5640871,52.65672 C21.8752563,52.74096 21.1973477,52.91952 20.5157985,53.05992 C20.2922561,53.106 20.0730827,53.17152 19.8495403,53.20896 C19.1847385,53.31984 19.0201764,53.4768 18.8971189,54.15288 C18.8847403,54.21912 18.8942063,54.28824 18.887653,54.35664 C18.8694492,54.564 18.8476046,54.77136 18.8264883,54.97944 C19.1439621,54.9564 19.4643485,54.95496 19.7774534,54.90672 C20.3461393,54.81888 20.8616702,54.42648 21.4907926,54.67272 C21.8228294,54.80232 22.2036523,54.81168 22.5364173,54.94056 C22.9682108,55.10832 22.9587449,55.28976 22.6798631,55.64616 C22.3835056,56.02416 21.9954012,56.0328 21.5745299,56.10984 C20.759729,56.25888 19.9536659,56.47992 19.1599814,56.72328 C18.067755,57.05952 16.9318395,57.15312 15.8192249,57.3756 C14.9643757,57.54696 14.1124391,57.7644 13.2473957,57.84864 C12.5003129,57.92064 11.9258018,57.3504 11.9709471,56.71608 C11.9818694,56.57064 12.0925483,56.4324 12.1893924,56.21928" id="Fill-26" fill="#FFFFFF"></path>
                            <path d="M21.8154023,60.697464 C22.2246231,60.870264 22.5217087,61.012104 22.8304447,61.121544 C23.4668486,61.346904 23.6467019,61.518984 23.5950032,61.896984 C23.5207318,62.446344 23.1377244,62.791944 22.5719511,62.855304 C22.4321461,62.870424 22.2763218,62.932344 22.1678273,63.021624 C21.4658898,63.596184 20.6620112,63.497544 19.8479384,63.406824 C19.518086,63.370104 19.1787677,63.422664 18.8467309,63.397464 C18.2285307,63.351384 17.6015928,63.329064 17.0008682,63.198744 C16.5071819,63.091464 16.2479602,62.371464 16.7642192,61.809864 C16.9287813,61.631304 17.1035375,61.459224 17.2462551,61.264104 C17.4639722,60.965304 17.3613029,60.710424 16.9884897,60.652104 C16.5093663,60.576504 16.0244178,60.534024 15.5416537,60.479304 C15.4877706,60.473544 15.412771,60.500184 15.3800042,60.472824 C14.9103469,60.084024 14.404282,60.438984 13.9186053,60.405144 C13.6105974,60.383544 13.4511324,60.582984 13.4489479,60.890424 C13.4467635,61.243944 13.4576857,61.597464 13.4460353,61.950984 C13.4263752,62.544264 13.4664235,63.153384 13.3389971,63.725064 C13.2559879,64.100184 12.9720091,64.470984 12.6829331,64.745304 C12.5271088,64.892184 12.1069657,64.940424 11.9212872,64.834584 C11.7050264,64.711464 11.5411925,64.387464 11.4822122,64.122504 C11.3081842,63.339144 11.0962922,62.510424 11.4873093,61.760904 C11.8120646,61.140264 11.8127928,60.482904 11.9686171,59.843544 C12.0428885,59.537544 12.1666741,59.240904 12.2970131,58.952184 C12.334877,58.867224 12.4775946,58.774344 12.5642445,58.781544 C12.6450693,58.788024 12.7535638,58.909704 12.7848743,59.002584 C12.9159414,59.384184 13.0237078,59.774424 13.1402119,60.162504 C14.2622925,59.783784 15.321024,59.401464 16.3986874,59.076024 C16.855238,58.937784 17.3671282,58.972344 17.8229506,58.831224 C18.2875109,58.687944 18.7112948,58.415064 19.1612921,58.218504 C19.5770663,58.037784 20.0008501,57.877224 20.4253621,57.720264 C20.8899224,57.548184 21.3552109,57.378984 21.828509,57.232824 C21.9799644,57.186024 22.1634584,57.185304 22.3192827,57.219144 C22.9826282,57.366744 23.5979158,57.596424 24.0355345,58.164504 C24.2772806,58.477704 24.2386886,58.802424 23.9714572,58.983144 C23.4217032,59.354664 23.0903946,59.994744 22.3935541,60.189864 C22.2056912,60.242424 22.0680706,60.467784 21.8154023,60.697464" id="Fill-27" fill="#FFFFFF"></path>
                            <path d="M36.9181266,68.881848 C37.8487035,68.680968 38.8186006,68.581608 39.6996632,68.252568 C40.6499002,67.896888 41.5214969,67.333128 42.4185788,66.843528 C42.6399367,66.722568 42.8481879,66.560568 43.0258567,66.382008 C43.3884759,66.017688 43.8006093,66.063768 44.2353154,66.183288 C44.3387129,66.212088 44.440654,66.257448 44.5462359,66.267528 C45.390891,66.348888 45.5030262,66.101208 45.5168611,65.182488 C45.5234145,64.671288 45.5510842,64.160088 45.545259,63.648888 C45.5430745,63.489768 45.3828813,63.301848 45.429483,63.177288 C45.6289963,62.653848 45.5947733,62.297448 45.0384659,61.966248 C44.7552152,61.797048 44.7340988,61.346328 45.0122525,60.991368 C45.1637079,60.797688 45.2452608,60.544248 45.3370078,60.310248 C45.5874917,59.668008 45.9821496,59.430408 46.6454951,59.601048 C46.9505903,59.680248 47.2447633,59.831448 47.5192762,59.989848 C47.9772831,60.254088 48.4527657,60.508968 48.8532487,60.845208 C49.2682948,61.195128 49.4102842,61.666728 49.2449939,62.236248 C49.1532469,62.550888 49.211499,62.909448 49.2129553,63.248568 C49.2144116,63.584088 49.110286,63.859848 48.8474235,64.089528 C48.7644143,64.162248 48.7323757,64.319928 48.7207253,64.442328 C48.6493665,65.205528 48.6027648,65.970168 48.5233963,66.731928 C48.478251,67.166808 48.3668439,67.595208 48.3260674,68.030808 C48.3129607,68.168328 48.4294649,68.321688 48.4979111,68.462088 C48.632619,68.735688 48.8263071,68.992728 48.8947533,69.280728 C48.9377142,69.458568 48.8517924,69.804168 48.7250942,69.861048 C47.9889336,70.192248 47.8585945,70.877688 47.653256,71.517048 C47.5360237,71.879928 47.4282573,72.260808 47.412238,72.637368 C47.3765586,73.494168 47.4005876,74.353848 47.4005876,75.212088 L47.5629653,75.291288 C47.8185462,75.117048 48.0799524,74.950008 48.3282519,74.765688 C48.811016,74.407128 49.332372,74.083848 49.7546996,73.664808 C50.4624623,72.962088 51.078478,72.170088 51.7862407,71.468808 C52.1707044,71.087208 52.6643908,70.814328 53.195941,70.548648 C53.1507956,70.722168 53.13332,70.909368 53.0539515,71.066328 C52.4757997,72.210408 51.879444,73.338648 51.0770217,74.358168 C50.6452282,74.907528 50.3408611,75.555528 49.9789701,76.158888 C49.9716886,76.170408 49.9665915,76.183368 49.9578537,76.193448 C49.4656237,76.717608 48.970481,77.238888 48.483348,77.768088 C48.2954851,77.971848 48.1287385,78.195768 47.9467008,78.406728 C47.4632086,78.967608 46.9935512,79.541448 46.4889426,80.083608 C45.8314223,80.790648 45.1513293,81.477528 44.46978,82.162248 C44.2134709,82.421448 43.9411425,82.670568 43.6462413,82.885128 C43.5006111,82.991688 43.2879911,83.009688 43.1059533,83.067288 L41.208392,83.067288 C41.0613055,83.021208 40.9149471,82.973688 40.7685888,82.928328 C39.7608279,82.618728 38.9868034,81.909528 38.0948185,81.401208 C37.8872955,81.283128 37.9579262,80.778408 38.1669055,80.619288 C38.3591373,80.472408 38.5440877,80.316168 38.7377758,80.170008 C39.1382588,79.866168 39.4921402,79.350648 40.0855832,79.865448 C40.1110685,79.888488 40.1642235,79.883448 40.205,79.886328 C40.8006274,79.926648 41.3751385,79.812168 41.8739219,79.501848 C42.737509,78.964008 43.5748825,78.383688 44.4173532,77.813448 C44.932884,77.464968 44.9459908,77.197848 44.7173514,76.598808 C44.5717212,76.215048 44.5207506,75.765768 44.5484203,75.353928 C44.6015754,74.530248 44.7370114,73.711608 44.8382244,72.891528 C44.879729,72.560328 44.8957483,72.224088 44.966379,71.898648 C45.0836113,71.355048 44.8003606,71.085768 44.2484222,71.206728 C43.4896889,71.372328 42.7273148,71.522808 41.9598437,71.642328 C41.7515926,71.674728 41.5214969,71.571768 41.3023234,71.530008 C40.8501417,71.443608 40.3702902,71.424888 39.9523316,71.257128 C38.777096,70.786968 37.7132674,70.136808 36.9181266,69.126648 L36.9181266,68.881848 Z" id="Fill-28" fill="#FFFFFF"></path>
                            <path d="M56.768031,78.321336 C57.1262813,78.003816 57.4736093,77.672616 57.8449663,77.370936 C58.4653509,76.868376 59.1148615,76.399656 59.7265083,75.887736 C60.2223791,75.473016 60.096409,74.765256 59.502966,74.539176 C59.1032111,74.387256 58.7908344,74.231016 58.653942,73.743576 C58.5490882,73.372776 58.1449645,73.094856 57.9512763,72.734856 C57.8063743,72.464136 57.7452096,72.132936 57.7175399,71.821896 C57.6622004,71.191896 57.6141424,70.555416 57.6403559,69.925416 C57.6592878,69.479736 57.8172965,69.041256 57.8893835,68.596296 C58.0044313,67.885656 58.1245762,67.175016 58.1966632,66.459336 C58.2658375,65.779656 58.2388959,65.781816 57.5558904,65.613336 C57.4321047,65.582376 57.3228821,65.496696 57.2063779,65.435496 C57.409532,64.954536 57.5711815,64.534056 58.03647,64.224456 C58.3342837,64.026456 58.4770013,63.542616 58.5971462,63.158136 C58.6990873,62.833416 58.6699613,62.467656 58.6990873,62.120616 C58.7253008,61.799496 58.7507861,61.478376 58.7813684,61.158696 C58.8257856,60.687096 58.7202037,60.260136 58.4384093,59.871336 C58.2112262,59.558136 58.0037032,59.231256 57.790355,58.913736 C58.5956899,58.216056 59.2575791,58.285176 60.2041753,58.998696 C60.5369403,59.249256 60.8675208,59.502696 61.1973732,59.756856 C61.5468857,60.026856 61.6845062,61.236456 61.418003,61.669896 C61.2854795,61.885896 61.1558686,62.104056 61.0204325,62.329416 C61.533779,62.735496 62.0951833,62.540376 62.6493062,62.492856 C63.1255169,62.452536 63.6155625,62.394936 64.0823073,62.463336 C64.3582765,62.503656 64.6255079,62.745576 64.8505065,62.947176 C65.2873971,63.339576 65.7199187,63.743496 66.0978291,64.189896 C66.2813231,64.406616 66.3381189,64.727736 66.4662734,65.037336 C66.2704008,65.127336 66.1051106,65.203656 65.9070535,65.294376 C65.9390922,65.367816 65.9711308,65.441256 65.9995287,65.506776 C65.3121542,65.984136 64.5687121,65.793336 63.8201729,65.722056 C63.3650786,65.678856 62.8976057,65.763096 62.435958,65.787576 C61.9444561,65.814216 61.4536824,65.863896 60.9636368,65.853096 C60.7248033,65.847336 60.6265029,65.882616 60.5922798,66.125976 C60.4663097,67.035336 60.2595148,67.939656 60.2034472,68.852616 C60.1488359,69.740376 60.2005346,70.641096 60.2930098,71.527416 C60.3214076,71.801016 60.5820857,72.136536 60.8332978,72.284136 C61.6233415,72.751416 62.4556181,73.082616 63.429884,73.061016 C64.2483257,73.043016 65.074777,73.185576 65.8910342,73.302936 C66.4903024,73.387896 66.8179704,73.900536 67.235929,74.262696 C67.6145675,74.591016 67.79078,75.025176 67.9611673,75.486696 C68.1395643,75.968376 67.9072842,76.257096 67.5745192,76.421976 C67.1390849,76.637256 66.642486,76.843896 66.1691879,76.848936 C64.9407972,76.861896 63.7320667,76.990056 62.5233361,77.188056 C61.7784377,77.310456 61.0138792,77.327016 60.2704371,77.454456 C59.8816045,77.521416 59.5197134,77.729496 59.1447157,77.869896 C58.5796706,78.081576 58.0189944,78.306216 57.4452114,78.489816 C57.2595329,78.548856 57.0374469,78.499176 56.8328365,78.499176 C56.8117201,78.440136 56.7898756,78.381096 56.768031,78.321336" id="Fill-29" fill="#FFFFFF"></path>
                        </g>
                    </g>
                </g>
            </g>
        </g>
    </g>
</svg>