<?xml version="1.0" encoding="UTF-8"?>
<svg width="142px" height="142px" viewBox="0 0 142 142" version="1.1" xmlns="http://www.w3.org/2000/svg" xmlns:xlink="http://www.w3.org/1999/xlink">
    <title>icons/call for proposals</title>
    <g id="Icons" stroke="none" stroke-width="1" fill="none" fill-rule="evenodd">
        <g id="icons-list" transform="translate(-288.000000, -502.000000)" fill-rule="nonzero">
            <g id="Group" transform="translate(287.000000, 501.000000)">
                <g>
                    <circle id="Background" fill="#F2F2F2" cx="72" cy="72" r="69"></circle>
                    <circle id="Outline" stroke="#EE3E24" stroke-width="4" stroke-linejoin="round" cx="72" cy="72" r="69"></circle>
                </g>
                <g id="icon" transform="translate(21.000000, 36.000000)">
                    <path d="M14.9172154,74 L14.917,69.724 L9.78645343,69.724847 L9.78645343,64.5077111 L14.917,64.507 L14.9172154,60.2325581 L24.5961897,60.2324871 C24.3795354,58.2109523 23.9763545,56.0402063 23.3866471,53.7202489 C21.7474873,47.2716597 14.4470877,38.6828882 10.4361495,27.8231059 C9.37364203,24.9463226 8.586992,20.2611012 8.07619944,13.7674419 L5.13076199,13.7674419 L5.13,9.465 L1.42108547e-14,9.46511628 L1.42108547e-14,4.30232558 L5.13,4.302 L5.13076199,7.37188088e-14 L83.042333,7.37188088e-14 L83.042,4.302 L88.3631232,4.30232558 L88.3631232,9.46511628 L83.042,9.465 L83.042333,13.7674419 L78.1966134,13.7674419 C78.4329928,19.4593848 78.9546425,23.5950513 79.7615626,26.1744413 C83.3967231,37.7945476 89.4940646,46.9848681 91.2061236,53.7202489 C91.7955631,56.0391523 92.1871172,58.2100814 92.380786,60.2330361 L95.6792098,60.2325581 L95.679,64.507 L101,64.5077111 L101,69.724847 L95.679,69.724 L95.6792098,74 L14.9172154,74 Z" id="roll" fill="#CCCCCC"></path>
                    <g id="Group-2" transform="translate(51.696101, 35.991410) rotate(-12.000000) translate(-51.696101, -35.991410) translate(27.696101, 16.991410)" fill="#333333">
                        <path d="M33.4211203,3.55851634 C34.6020786,3.30183339 35.7162033,4.2122844 35.7162033,5.43403405 L35.7162033,5.43403405 L35.7162033,27.70454 C35.7162033,28.9262897 34.6020786,29.8367407 33.4211203,29.5800577 L33.4211203,29.5800577 L14.8376573,25.5408153 C16.8005829,29.4329147 16.5335544,33.0015568 14.2611312,36.659969 C13.8749949,37.2816162 13.1719472,37.6258413 12.4503505,37.5465605 L12.4503505,37.5465605 L8.72196131,37.1369279 C7.82076704,37.037915 7.11482913,36.3077235 7.03713929,35.3942212 L7.03713929,35.3942212 L6.03613694,23.6273329 L2.08728312,22.7696039 C1.26472981,22.5908208 0.663434555,21.8881206 0.595540142,21.0522726 L0.589136937,20.8940862 L0.589136937,12.2444879 C0.589136937,11.3403375 1.21332023,10.5589273 2.08728312,10.3689702 L2.08728312,10.3689702 Z M9.95272314,24.9144064 L10.6822876,33.4925514 L11.6160541,33.595502 L11.6912697,33.4387537 C12.9214382,30.7767134 12.5036525,28.3084021 10.0283286,25.0128876 L10.0283286,25.0128876 L9.95272314,24.9144064 Z M39.7450408,25.1067608 L39.8325024,25.1758988 L43.0755327,27.8971243 C43.8779423,28.5704258 43.9763548,29.7741748 43.2953432,30.5857728 C42.6386534,31.3683852 41.4970123,31.5005821 40.6968331,30.9053187 L40.6093715,30.8361807 L37.3663413,28.1149552 C36.5639317,27.4416536 36.4655192,26.2379047 37.1465308,25.4263066 C37.8032206,24.6436943 38.9448616,24.5114974 39.7450408,25.1067608 Z M31.9224743,7.80799295 L4.38236611,13.7944703 L4.38236611,19.3435678 L31.9224743,25.3300452 L31.9224743,7.80799295 Z M46.0142007,13.7427163 C47.061672,13.7427163 47.9108153,14.6015831 47.9108153,15.6610491 C47.9108153,16.682677 47.121242,17.5177784 46.1256412,17.5761254 L46.0142007,17.5793819 L41.7807254,17.5793819 C40.733254,17.5793819 39.8841108,16.7205151 39.8841108,15.6610491 C39.8841108,14.6394212 40.673684,13.8043197 41.6692848,13.7459727 L41.7807254,13.7427163 L46.0142007,13.7427163 Z M42.9601126,1.272652 C43.6168024,2.05526438 43.548747,3.20251712 42.8235773,3.88717337 L42.7403021,3.96130057 L39.4972719,6.68252605 C38.6948623,7.35582763 37.4923118,7.24371622 36.8113002,6.43211819 C36.1546105,5.64950581 36.2226658,4.50225308 36.9478356,3.81759682 L37.0311107,3.74346962 L40.2741409,1.02224414 C41.0765505,0.348942559 42.279101,0.461053978 42.9601126,1.272652 Z" id="Combined-Shape"></path>
                    </g>
                </g>
            </g>
        </g>
    </g>
</svg>