<?xml version="1.0" encoding="UTF-8"?>
<svg width="142px" height="142px" viewBox="0 0 142 142" version="1.1" xmlns="http://www.w3.org/2000/svg" xmlns:xlink="http://www.w3.org/1999/xlink">
    <title>icons/comitee</title>
    <g id="Icons" stroke="none" stroke-width="1" fill="none" fill-rule="evenodd">
        <g id="icons-list" transform="translate(-452.000000, -502.000000)" fill-rule="nonzero">
            <g id="Group" transform="translate(451.000000, 501.000000)">
                <g>
                    <circle id="Background" fill="#F2F2F2" cx="72" cy="72" r="69"></circle>
                    <circle id="Outline" stroke="#EE3E24" stroke-width="4" stroke-linejoin="round" cx="72" cy="72" r="69"></circle>
                </g>
                <path d="M105.6,67.4888699 C98.97,67.4888699 93.6,72.8728542 93.6,79.5201199 C93.6,86.1673855 98.97,91.5513699 105.6,91.5513699 C112.23,91.5513699 117.6,86.1673855 117.6,79.5201199 C117.6,72.8728542 112.23,67.4888699 105.6,67.4888699 Z M105.6,86.7388699 C101.625,86.7388699 98.4,83.5054714 98.4,79.5201199 C98.4,75.5347683 101.625,72.3013699 105.6,72.3013699 C109.575,72.3013699 112.8,75.5347683 112.8,79.5201199 C112.8,83.5054714 109.575,86.7388699 105.6,86.7388699 Z M60,79.5201199 C60,86.1673855 65.37,91.5513699 72,91.5513699 C78.63,91.5513699 84,86.1673855 84,79.5201199 C84,72.8728542 78.63,67.4888699 72,67.4888699 C65.37,67.4888699 60,72.8728542 60,79.5201199 Z M79.2,79.5201199 C79.2,83.5054714 75.975,86.7388699 72,86.7388699 C68.025,86.7388699 64.8,83.5054714 64.8,79.5201199 C64.8,75.5347683 68.025,72.3013699 72,72.3013699 C75.975,72.3013699 79.2,75.5347683 79.2,79.5201199 Z M38.4,91.5513699 C45.03,91.5513699 50.4,86.1673855 50.4,79.5201199 C50.4,72.8728542 45.03,67.4888699 38.4,67.4888699 C31.77,67.4888699 26.4,72.8728542 26.4,79.5201199 C26.4,86.1673855 31.77,91.5513699 38.4,91.5513699 Z M38.4,72.3013699 C42.375,72.3013699 45.6,75.5347683 45.6,79.5201199 C45.6,83.5054714 42.375,86.7388699 38.4,86.7388699 C34.425,86.7388699 31.2,83.5054714 31.2,79.5201199 C31.2,75.5347683 34.425,72.3013699 38.4,72.3013699 Z M108.6,96.3638699 L102.6,96.3638699 C96.315,96.3638699 91.2,101.762893 91.2,108.39512 C91.2,109.718557 92.28,110.80137 93.6,110.80137 C94.92,110.80137 96,109.718557 96,108.39512 C96,104.409768 98.97,101.17637 102.6,101.17637 L108.6,101.17637 C112.23,101.17637 115.2,104.409768 115.2,108.39512 C115.2,109.718557 116.28,110.80137 117.6,110.80137 C118.92,110.80137 120,109.718557 120,108.39512 C120,101.762893 114.885,96.3638699 108.6,96.3638699 Z M41.4,96.3638699 L35.4,96.3638699 C29.115,96.3638699 24,101.762893 24,108.39512 C24,109.718557 25.08,110.80137 26.4,110.80137 C27.72,110.80137 28.8,109.718557 28.8,108.39512 C28.8,104.409768 31.77,101.17637 35.4,101.17637 L41.4,101.17637 C45.03,101.17637 48,104.409768 48,108.39512 C48,109.718557 49.08,110.80137 50.4,110.80137 C51.72,110.80137 52.8,109.718557 52.8,108.39512 C52.8,101.762893 47.685,96.3638699 41.4,96.3638699 Z M75,96.3638699 L69,96.3638699 C62.715,96.3638699 57.6,101.762893 57.6,108.39512 C57.6,109.718557 58.68,110.80137 60,110.80137 C61.32,110.80137 62.4,109.718557 62.4,108.39512 C62.4,104.409768 65.37,101.17637 69,101.17637 L75,101.17637 C78.63,101.17637 81.6,104.409768 81.6,108.39512 C81.6,109.718557 82.68,110.80137 84,110.80137 C85.32,110.80137 86.4,109.718557 86.4,108.39512 C86.4,101.762893 81.285,96.3638699 75,96.3638699 Z M33.6,41.0201199 C33.6,39.6921706 34.6785,38.6138699 36,38.6138699 L108,38.6138699 C109.3215,38.6138699 110.4,39.6921706 110.4,41.0201199 L110.4,63.4614089 C112.1265,63.9817605 113.7555,64.7186746 115.2,65.7338113 L115.2,41.0201199 C115.2,37.03928 111.9705,33.8013699 108,33.8013699 L36,33.8013699 C32.0295,33.8013699 28.8,37.03928 28.8,41.0201199 L28.8,65.7338113 C30.2445,64.7186746 31.8735,63.9832644 33.6,63.4614089 L33.6,41.0201199 Z" id="icon" fill="#333333"></path>
            </g>
        </g>
    </g>
</svg>