<?xml version="1.0" encoding="UTF-8"?>
<svg width="142px" height="142px" viewBox="0 0 142 142" version="1.1" xmlns="http://www.w3.org/2000/svg" xmlns:xlink="http://www.w3.org/1999/xlink">
    <title>icons/donate</title>
    <g id="Icons" stroke="none" stroke-width="1" fill="none" fill-rule="evenodd">
        <g id="icons-list" transform="translate(-780.000000, -502.000000)" fill-rule="nonzero">
            <g id="Group" transform="translate(779.000000, 501.000000)">
                <g>
                    <circle id="Background" fill="#F2F2F2" cx="72" cy="72" r="69"></circle>
                    <circle id="Outline" stroke="#EE3E24" stroke-width="4" stroke-linejoin="round" cx="72" cy="72" r="69"></circle>
                </g>
                <g id="icon" transform="translate(34.813840, 36.000000)">
                    <path d="M58.685827,15.9656303 C56.2032475,15.9726779 54.1924472,18.0108571 54.1854942,20.5272389 L54.1854942,30.7908584 C54.1854942,31.4206851 53.6817773,31.9312606 53.060411,31.9312606 L50.8102446,31.9312606 C50.1888783,31.9312606 49.6851614,31.4206851 49.6851614,30.7908584 L49.6851614,9.12321731 C49.6851614,6.60391042 47.6702937,4.56160866 45.1848285,4.56160866 C42.6993634,4.56160866 40.6844957,6.60391042 40.6844957,9.12321731 L40.6844957,30.7908584 C40.6844957,31.4206851 40.1807788,31.9312606 39.5594125,31.9312606 L37.3092461,31.9312606 C36.6878798,31.9312606 36.1841629,31.4206851 36.1841629,30.7908584 L36.1841629,4.56160866 C36.1841629,2.04230176 34.1692953,0 31.6838301,0 C29.1983649,0 27.1834972,2.04230176 27.1834972,4.56160866 L27.1834972,30.7908584 C27.1834972,31.4206851 26.6797803,31.9312606 26.058414,31.9312606 L23.8082476,31.9312606 C23.1868813,31.9312606 22.6831644,31.4206851 22.6831644,30.7908584 L22.6831644,9.12321731 C22.6831644,6.60391042 20.6682968,4.56160866 18.1828316,4.56160866 C15.6973664,4.56160866 13.6824988,6.60391042 13.6824988,9.12321731 L13.6824988,43.4778325 L10.3635033,38.8449487 C8.53435627,36.2980869 5.01463436,35.7364539 2.5019844,37.5905063 C-0.010665565,39.4445587 -0.564754165,43.0122046 1.26439287,45.5590664 L18.9281992,70.1774982 C20.1981783,71.9474352 22.2257064,72.9961894 24.3848528,73 L52.174408,73 C55.3067308,73.0021714 58.027784,70.8169509 58.7420812,67.7256335 L62.4689193,51.660218 C62.9177593,49.6816348 63.1581857,47.6603584 63.1861598,45.6303416 L63.1861598,20.5272389 C63.1792069,18.0108571 61.1684065,15.9726779 58.685827,15.9656303 Z" id="Shape" fill="#CCCCCC"></path>
                    <path d="M27.8053976,42.5755953 C30.687913,40.1751167 34.9905947,40.6063404 37.6481334,43.2655532 L38.6886511,44.3148642 L39.7291689,43.2655532 C42.3726465,40.6063404 46.6753282,40.1751167 49.5719047,42.5755953 C51.1296177,43.852584 52.0780393,45.7501854 52.1774829,47.7888346 C52.2769265,49.8274837 51.5178773,51.8121243 50.0921636,53.2411947 L39.8838405,63.5043186 C39.2181921,64.1652271 38.1591102,64.1652271 37.4934618,63.5043186 L27.2851387,53.2411947 C25.8564448,51.8136916 25.0953284,49.8283083 25.1948246,47.78858 C25.2943209,45.7488516 26.2448717,43.8507214 27.8053976,42.5755953 L27.8053976,42.5755953 Z" id="Path" stroke="#333333" stroke-width="4"></path>
                </g>
            </g>
        </g>
    </g>
</svg>