<?xml version="1.0" encoding="UTF-8"?>
<svg width="142px" height="143px" viewBox="0 0 142 143" version="1.1" xmlns="http://www.w3.org/2000/svg" xmlns:xlink="http://www.w3.org/1999/xlink">
    <!-- Generator: Sketch 52.5 (67469) - http://www.bohemiancoding.com/sketch -->
    <title>icons/milan-active</title>
    <desc>Created with Sketch.</desc>
    <defs>
        <filter x="-25.0%" y="-22.4%" width="150.0%" height="144.9%" filterUnits="objectBoundingBox" id="filter-1">
            <feOffset dx="0" dy="8" in="SourceAlpha" result="shadowOffsetOuter1"></feOffset>
            <feGaussianBlur stdDeviation="1" in="shadowOffsetOuter1" result="shadowBlurOuter1"></feGaussianBlur>
            <feColorMatrix values="0 0 0 0 0   0 0 0 0 0   0 0 0 0 0  0 0 0 0.2 0" type="matrix" in="shadowBlurOuter1" result="shadowMatrixOuter1"></feColorMatrix>
            <feMerge>
                <feMergeNode in="shadowMatrixOuter1"></feMergeNode>
                <feMergeNode in="SourceGraphic"></feMergeNode>
            </feMerge>
        </filter>
    </defs>
    <g id="Symbols" stroke="none" stroke-width="1" fill="none" fill-rule="evenodd">
        <g id="UI-Elements" transform="translate(-766.000000, -1651.000000)">
            <g id="icons/milan-active" transform="translate(765.000000, 1650.000000)">
                <g id="graph-elemets/outter-circle" fill="#FFFFFF" fill-rule="nonzero" stroke="#EE3E24" stroke-linecap="round" stroke-linejoin="round" stroke-width="4">
                    <ellipse id="Oval" cx="72" cy="72.5" rx="69" ry="69.4791667"></ellipse>
                </g>
                <g id="icon" filter="url(#filter-1)" transform="translate(29.000000, 14.000000)">
                    <g id="Group-23">
                        <path d="M47.2202858,43.5457857 L44.0906913,41.3442001 C43.4390022,40.8852666 42.5609978,40.8852666 41.9084827,41.3442001 L38.7797142,43.5457857 C38.2899149,43.8905928 38,44.4450362 38,45.0350936 L38,67.1666944 C38,68.1792619 38.837532,69 39.8708185,69 L46.1291815,69 C47.162468,69 48,68.1792619 48,67.1666944 L48,45.0350936 C48,44.4442268 47.7100851,43.8897834 47.2202858,43.5457857 Z" id="Stroke-1" stroke="#0069B5" stroke-width="3"></path>
                        <path d="M26.2202858,58.5096748 L23.0906913,56.3393178 C22.4390022,55.8868941 21.5609978,55.8868941 20.9084827,56.3393178 L17.7797142,58.5096748 C17.2899149,58.8487931 17,59.395372 17,59.9778576 L17,67.192699 C17,68.1909037 17.837532,69 18.8708185,69 L25.1291815,69 C26.162468,69 27,68.1909037 27,67.192699 L27,59.9778576 C27,59.395372 26.7100851,58.8487931 26.2202858,58.5096748 Z" id="Stroke-3" stroke="#0069B5" stroke-width="3"></path>
                        <path d="M28.2202858,77.5092794 L25.0906913,75.3390056 C24.4390022,74.8865993 23.5609978,74.8873972 22.9084827,75.3390056 L19.7797142,77.5092794 C19.2899149,77.8491826 19,78.3949426 19,78.9782037 L19,86.1927683 C19,87.1909347 19.837532,88 20.8708185,88 L27.1291815,88 C28.162468,88 29,87.1909347 29,86.1927683 L29,78.9782037 C29,78.3949426 28.7100851,77.8491826 28.2202858,77.5092794 Z" id="Stroke-5" stroke="#0069B5" stroke-width="3"></path>
                        <path d="M59,59.9771981 L59,67.1919288 C59,68.1901182 59.837532,69 60.8716445,69 L67.1291815,69 C68.162468,69 69,68.1901182 69,67.1919288 L69,59.9771981 C69,59.3955194 68.7100851,58.848151 68.2202858,58.5090379 L65.0915173,56.3387141 C64.4390022,55.8870953 63.5609978,55.8870953 62.9084827,56.3387141 L59.7797142,58.5090379 C59.2907409,58.848151 59,59.3955194 59,59.9771981 Z" id="Stroke-7" stroke="#0069B5" stroke-width="3"></path>
                        <path d="M70.2202858,77.5092794 L67.0915173,75.3390056 C66.4390022,74.8865993 65.5609978,74.8873972 64.9084827,75.3390056 L61.7797142,77.5092794 C61.2899149,77.8491826 61,78.3949426 61,78.9782037 L61,86.1927683 C61,87.1909347 61.837532,88 62.8716445,88 L69.1291815,88 C70.162468,88 71,87.1909347 71,86.1927683 L71,78.9782037 C71,78.3949426 70.7100851,77.8491826 70.2202858,77.5092794 Z" id="Stroke-9" stroke="#0069B5" stroke-width="3"></path>
                        <path d="M58.9995586,6 C60.1039506,6 61,5.21007531 61,4.23474422 L61,1.76447676 C61,0.789924695 60.1039506,0 58.9995586,0 C57.8951666,0 57,0.789924695 57,1.76447676 L57,4.23474422 C57,5.21007531 57.8951666,6 58.9995586,6 Z" id="Stroke-11" stroke="#FFDD00" stroke-width="3"></path>
                        <path d="M27,6 C28.1046358,6 29,5.21007531 29,4.23474422 L29,1.76447676 C29,0.789924695 28.1046358,0 27,0 C25.8953642,0 25,0.789924695 25,1.76447676 L25,4.23474422 C25,5.21007531 25.8953642,6 27,6 Z" id="Stroke-13" stroke="#FFDD00" stroke-width="3"></path>
                        <path d="M82,29 C83.1046358,29 84,28.2100753 84,27.2347442 L84,24.7644768 C84,23.7899247 83.1046358,23 82,23 C80.8953642,23 80,23.7899247 80,24.7644768 L80,27.2347442 C80,28.2100753 80.8953642,29 82,29 Z" id="Stroke-15" stroke="#FFDD00" stroke-width="3"></path>
                        <path d="M87,61.3192277 L87,40.6722805 C87,40.2391954 86.84456,39.8190142 86.5605362,39.4891598 L83.4777789,35.8978604 C83.1270217,35.4889701 82.6135001,35.2542815 82.0731224,35.2542815 C81.5327446,35.2542815 81.019223,35.4889701 80.6692796,35.8978604 L77.5865224,39.4891598 C77.3024985,39.8190142 77.1470585,40.2391954 77.1470585,40.6722805 L77.1470585,51.8268419 L64.3326193,42.5473694 L64.3326193,18.4188054 C64.3326193,17.9849139 64.1771793,17.5655392 63.8939693,17.2348783 L60.8103982,13.6427724 C60.4604548,13.2346886 59.9469332,13 59.4065555,13 C58.8661777,13 58.3526561,13.2346886 58.0018989,13.6427724 L54.9191417,17.2348783 C54.6351178,17.5655392 54.4796778,17.9849139 54.4796778,18.4188054 L54.4796778,35.411547 L44.5876729,28.2474975 C43.9398707,27.7789269 43.0601293,27.7789269 42.4123271,28.2474975 L32.543923,35.3946108 L32.543923,18.4188054 C32.543923,17.9849139 32.388483,17.5655392 32.1044592,17.2348783 L29.0217019,13.6427724 C28.6709447,13.2346886 28.1582369,13 27.6170454,13 C27.0766676,13 26.563146,13.2346886 26.2132026,13.6427724 L23.1304454,17.2348783 C22.8464215,17.5655392 22.6909815,17.9849139 22.6909815,18.4188054 L22.6909815,42.5304331 L9.85375527,51.8268419 L9.85375527,40.6722805 C9.85375527,40.2391954 9.69750147,39.8190142 9.41429146,39.4891598 L6.33072037,35.8978604 C5.98077697,35.4889701 5.46725536,35.2542815 4.92687764,35.2542815 C4.38649991,35.2542815 3.87297831,35.4889701 3.52222108,35.8978604 L0.439463813,39.4891598 C0.1562538,39.8190142 0,40.2391954 0,40.6722805 L0,96.172494 C0,97.1814128 0.825215382,98 1.84412037,98 L39.9602818,97.9991935 L39.9602818,83.1146164 L43.4995931,80.5967551 L47.0397182,83.1154229 L47.0397182,97.9991935 L85.1566935,98 C86.1747846,98 87,97.1814128 87,96.172494 L87,81.8710091" id="Stroke-17" stroke="#0069B5" stroke-width="4" stroke-linejoin="round"></path>
                        <path d="M4,29 C5.10463576,29 6,28.2100753 6,27.2347442 L6,24.7644768 C6,23.7899247 5.10463576,23 4,23 C2.89536424,23 2,23.7899247 2,24.7644768 L2,27.2347442 C2,28.2100753 2.89536424,29 4,29 Z" id="Stroke-19" stroke="#FFDD00" stroke-width="3"></path>
                        <path d="M76,3 C82.0738747,6.43460892 86.2003633,11.8948171 88,18" id="Stroke-21" stroke="#000000" stroke-width="3" stroke-linejoin="round"></path>
                    </g>
                </g>
            </g>
        </g>
    </g>
</svg>