<?xml version="1.0" encoding="UTF-8"?>
<svg width="144px" height="145px" viewBox="0 0 144 145" version="1.1" xmlns="http://www.w3.org/2000/svg" xmlns:xlink="http://www.w3.org/1999/xlink">
    <!-- Generator: Sketch 57.1 (83088) - https://sketch.com -->
    <title>icons/program</title>
    <desc>Created with Sketch.</desc>
    <g id="icons/program" stroke="none" stroke-width="1" fill="none" fill-rule="evenodd">
        <g id="graph-elemets/outter-circle" fill="#FFFFFF" fill-rule="nonzero" stroke="#EE3E24" stroke-linecap="round" stroke-linejoin="round" stroke-width="4">
            <ellipse id="Oval" cx="72" cy="72.5" rx="69" ry="69.4791667"></ellipse>
        </g>
        <g id="icon" transform="translate(32.000000, 23.000000)">
            <g id="Group-25" transform="translate(76.000000, 0.000000)" stroke="#000000" stroke-width="4">
                <path d="M1,1 C6.56845859,4.43460892 10.350333,9.89481707 12,16" id="Stroke-7" transform="translate(6.500000, 8.500000) rotate(-5.000000) translate(-6.500000, -8.500000) "></path>
            </g>
            <path d="M80,73.5842285 L80,95 L26.5629883,95 M11.5944824,95 L0,95 L0,14 L0,14 L80,14 L80,55.9753418" id="Shape" stroke="#FFDD00" stroke-width="4" fill-rule="nonzero"></path>
            <path d="M13,6.5 L13,18.5" id="Line-4" stroke="#363636" stroke-width="4" stroke-linecap="square" stroke-linejoin="round" fill-rule="nonzero"></path>
            <path d="M67,6.5 L67,18.5" id="Line-4" stroke="#363636" stroke-width="4" stroke-linecap="square" stroke-linejoin="round" fill-rule="nonzero"></path>
            <path d="M0.5,26 L79.5,26" id="Line-5" stroke="#FFDD00" stroke-width="4" stroke-linecap="square" stroke-linejoin="round" fill-rule="nonzero"></path>
            <polyline id="Path" stroke="#EE3E24" stroke-width="5" stroke-linecap="square" fill-rule="nonzero" points="13 80.5 13 80.5 24 80.5"></polyline>
            <polyline id="Path" stroke="#0069B4" stroke-width="5" stroke-linecap="square" fill-rule="nonzero" points="36 80.5 36 80.5 65 80.5"></polyline>
            <polyline id="Path" stroke="#EE3E24" stroke-width="5" stroke-linecap="square" fill-rule="nonzero" points="32 38 32 38 60 38"></polyline>
            <polyline id="Path" stroke="#0069B4" stroke-width="5" stroke-linecap="square" fill-rule="nonzero" points="13 51.5 13 51.5 33 51.5"></polyline>
            <polyline id="Path" stroke="#231F20" stroke-width="5" stroke-linecap="square" fill-rule="nonzero" points="19 65.5 19 65.5 58 65.5"></polyline>
        </g>
    </g>
</svg>