<?xml version="1.0" encoding="UTF-8"?>
<svg width="142px" height="143px" viewBox="0 0 142 143" version="1.1" xmlns="http://www.w3.org/2000/svg" xmlns:xlink="http://www.w3.org/1999/xlink">
    <!-- Generator: Sketch 58 (84663) - https://sketch.com -->
    <title>icons/program-hover</title>
    <desc>Created with Sketch.</desc>
    <defs>
        <filter x="-24.7%" y="-24.7%" width="149.4%" height="149.4%" filterUnits="objectBoundingBox" id="filter-1">
            <feOffset dx="0" dy="8" in="SourceAlpha" result="shadowOffsetOuter1"></feOffset>
            <feGaussianBlur stdDeviation="1" in="shadowOffsetOuter1" result="shadowBlurOuter1"></feGaussianBlur>
            <feColorMatrix values="0 0 0 0 0   0 0 0 0 0   0 0 0 0 0  0 0 0 0.2 0" type="matrix" in="shadowBlurOuter1" result="shadowMatrixOuter1"></feColorMatrix>
            <feMerge>
                <feMergeNode in="shadowMatrixOuter1"></feMergeNode>
                <feMergeNode in="SourceGraphic"></feMergeNode>
            </feMerge>
        </filter>
    </defs>
    <g id="Symbols" stroke="none" stroke-width="1" fill="none" fill-rule="evenodd">
        <g id="UI-Elements" transform="translate(-32.000000, -2162.000000)">
            <g id="icons/program-hover" transform="translate(31.000000, 2161.000000)">
                <g id="graph-elemets/outter-circle" fill="#FFFFFF" fill-rule="nonzero" stroke="#EE3E24" stroke-linecap="round" stroke-linejoin="round" stroke-width="4">
                    <ellipse id="Oval" cx="72" cy="72.5" rx="69" ry="69.4791667"></ellipse>
                </g>
                <g id="icon" filter="url(#filter-1)" transform="translate(32.000000, 21.000000)">
                    <g id="Group-25" transform="translate(76.000000, 2.000000)"></g>
                    <path d="M80,67.5842285 L80,89 L26.5629883,89 M11.5944824,89 L0,89 L0,8 L0,8 L80,8 L80,49.9753418" id="Shape" stroke="#FFDD00" stroke-width="4" fill-rule="nonzero"></path>
                    <path d="M13,0.5 L13,12.5" id="Line-4" stroke="#363636" stroke-width="4" stroke-linecap="square" stroke-linejoin="round" fill-rule="nonzero"></path>
                    <path d="M67,0.5 L67,12.5" id="Line-4" stroke="#363636" stroke-width="4" stroke-linecap="square" stroke-linejoin="round" fill-rule="nonzero"></path>
                    <path d="M0.5,20 L79.5,20" id="Line-5" stroke="#FFDD00" stroke-width="4" stroke-linecap="square" stroke-linejoin="round" fill-rule="nonzero"></path>
                    <polyline id="Path" stroke="#EE3E24" stroke-width="5" stroke-linecap="square" fill-rule="nonzero" points="13 74.5 13 74.5 24 74.5"></polyline>
                    <polyline id="Path" stroke="#0069B4" stroke-width="5" stroke-linecap="square" fill-rule="nonzero" points="36 74.5 36 74.5 65 74.5"></polyline>
                    <polyline id="Path" stroke="#EE3E24" stroke-width="5" stroke-linecap="square" fill-rule="nonzero" points="32 32 32 32 60 32"></polyline>
                    <polyline id="Path" stroke="#0069B4" stroke-width="5" stroke-linecap="square" fill-rule="nonzero" points="13 45.5 13 45.5 33 45.5"></polyline>
                    <polyline id="Path" stroke="#231F20" stroke-width="5" stroke-linecap="square" fill-rule="nonzero" points="19 59.5 19 59.5 58 59.5"></polyline>
                    <path d="M77,3 C82.5684586,6.43460892 86.350333,11.8948171 88,18" id="Stroke-7" stroke="#000000" stroke-width="4" transform="translate(82.500000, 10.500000) rotate(-5.000000) translate(-82.500000, -10.500000) "></path>
                </g>
            </g>
        </g>
    </g>
</svg>