<?xml version="1.0" encoding="UTF-8"?>
<svg width="142px" height="142px" viewBox="0 0 142 142" version="1.1" xmlns="http://www.w3.org/2000/svg" xmlns:xlink="http://www.w3.org/1999/xlink">
    <title>icons/program</title>
    <g id="Icons" stroke="none" stroke-width="1" fill="none" fill-rule="evenodd">
        <g id="icons-list" transform="translate(-944.000000, -692.000000)" fill-rule="nonzero">
            <g id="Group" transform="translate(943.000000, 691.000000)">
                <g>
                    <circle id="Background" fill="#F2F2F2" cx="72" cy="72" r="69"></circle>
                    <circle id="Outline" stroke="#EE3E24" stroke-width="4" stroke-linejoin="round" cx="72" cy="72" r="69"></circle>
                </g>
                <path d="M97.1428571,45.1851852 L90.2857143,45.1851852 L90.2857143,37.7222222 C90.2857143,36.771125 89.5181429,36 88.5714286,36 L87.4285714,36 C86.4818571,36 85.7142857,36.771125 85.7142857,37.7222222 L85.7142857,45.1851852 L58.2857143,45.1851852 L58.2857143,37.7222222 C58.2857143,36.771125 57.5181429,36 56.5714286,36 L55.4285714,36 C54.4818571,36 53.7142857,36.771125 53.7142857,37.7222222 L53.7142857,45.1851852 L46.8571429,45.1851852 C43.07,45.1851852 40,48.2693981 40,52.0740741 L40,102.592593 C40,106.397269 43.07,109.481481 46.8571429,109.481481 L97.1428571,109.481481 C100.93,109.481481 104,106.397269 104,102.592593 L104,52.0740741 C104,48.2693981 100.93,45.1851852 97.1428571,45.1851852 Z M46.8571429,49.7777778 L97.1428571,49.7777778 C98.4031429,49.7777778 99.4285714,50.8079537 99.4285714,52.0740741 L99.4285714,58.962963 L44.5714286,58.962963 L44.5714286,52.0740741 C44.5714286,50.8079537 45.5968571,49.7777778 46.8571429,49.7777778 Z M97.1428571,104.888889 L46.8571429,104.888889 C45.5968571,104.888889 44.5714286,103.858713 44.5714286,102.592593 L44.5714286,63.5555556 L99.4285714,63.5555556 L99.4285714,102.592593 C99.4285714,103.858713 98.4031429,104.888889 97.1428571,104.888889 Z M87.6475714,76.9118194 L68.3917143,96.1016806 C67.7202857,96.7709074 66.6362857,96.7678935 65.9684286,96.0950787 L56.3458571,86.4001157 C55.6768571,85.7260093 55.6784286,84.6346944 56.3492857,83.9624537 L57.5642857,82.7454167 C58.2352857,82.0733194 59.3215714,82.0748981 59.9905714,82.7488611 L67.1965714,90.0090324 L84.0225714,73.2407593 C84.6952857,72.5703843 85.7815714,72.5746898 86.449,73.2505185 L87.6572857,74.4743009 C88.3247143,75.1501296 88.3202857,76.2414444 87.6475714,76.9118194 L87.6475714,76.9118194 Z" id="icon" fill="#333333"></path>
            </g>
        </g>
    </g>
</svg>