<?xml version="1.0" encoding="UTF-8"?>
<svg width="142px" height="143px" viewBox="0 0 142 143" version="1.1" xmlns="http://www.w3.org/2000/svg" xmlns:xlink="http://www.w3.org/1999/xlink">
    <!-- Generator: Sketch 52.5 (67469) - http://www.bohemiancoding.com/sketch -->
    <title>icons/question-active</title>
    <desc>Created with Sketch.</desc>
    <defs>
        <filter x="-32.8%" y="-22.7%" width="165.7%" height="147.4%" filterUnits="objectBoundingBox" id="filter-1">
            <feOffset dx="0" dy="8" in="SourceAlpha" result="shadowOffsetOuter1"></feOffset>
            <feGaussianBlur stdDeviation="1" in="shadowOffsetOuter1" result="shadowBlurOuter1"></feGaussianBlur>
            <feColorMatrix values="0 0 0 0 0   0 0 0 0 0   0 0 0 0 0  0 0 0 0.2 0" type="matrix" in="shadowBlurOuter1" result="shadowMatrixOuter1"></feColorMatrix>
            <feMerge>
                <feMergeNode in="shadowMatrixOuter1"></feMergeNode>
                <feMergeNode in="SourceGraphic"></feMergeNode>
            </feMerge>
        </filter>
    </defs>
    <g id="Symbols" stroke="none" stroke-width="1" fill="none" fill-rule="evenodd">
        <g id="UI-Elements" transform="translate(-769.000000, -1404.000000)">
            <g id="icons/question-active" transform="translate(768.000000, 1403.000000)">
                <g id="graph-elemets/outter-circle" fill="#FFFFFF" fill-rule="nonzero" stroke="#EE3E24" stroke-linecap="round" stroke-linejoin="round" stroke-width="4">
                    <ellipse id="Oval" cx="72" cy="72.5" rx="69" ry="69.4791667"></ellipse>
                </g>
                <g id="icon" filter="url(#filter-1)" transform="translate(43.000000, 16.000000)">
                    <path d="M56,0 C61.5677185,3.20563499 65.350333,8.30182927 67,14" id="Stroke-1" stroke="#000000" stroke-width="4" stroke-linejoin="round"></path>
                    <path d="M35,93.5 C35,96.5379695 32.5379695,99 29.5,99 C26.4620305,99 24,96.5379695 24,93.5 C24,90.4620305 26.4620305,88 29.5,88 C32.5379695,88 35,90.4620305 35,93.5 Z" id="Stroke-3" stroke="#FFDD00" stroke-width="4" stroke-linejoin="round"></path>
                    <path d="M28.9970444,4 C13.0076678,4 0,16.8791944 0,32.7106481 C0,34.731 1.65338562,36.3680556 3.69389101,36.3680556 C5.7343964,36.3680556 7.38778202,34.731 7.38778202,32.7106481 C7.38778202,20.9133148 17.0820296,11.3148148 28.9970444,11.3148148 C40.9120592,11.3148148 50.6063068,20.9133148 50.6063068,32.7106481 C50.6063068,32.77575 50.6077844,32.8408519 50.6114783,32.9052222 C50.5368617,41.4196667 45.3979205,49.0614537 37.4760018,52.4101759 C30.080832,55.5357963 25.3031534,62.774537 25.3031534,70.8508241 L25.3031534,79.3425926 C25.3031534,81.3629444 26.956539,83 28.9970444,83 C31.0375498,83 32.6909354,81.3629444 32.6909354,79.3425926 L32.6909354,70.8508241 C32.6909354,65.7085093 35.7073668,61.1111481 40.3764451,59.1376111 C51.0850351,54.6104722 58.0029542,44.2373333 57.9999991,32.7099167 C57.9999991,32.6345741 57.9977827,32.5606944 57.99335,32.4868148" id="Stroke-5" stroke="#0069B5" stroke-width="4"></path>
                    <g id="Group-7"></g>
                </g>
            </g>
        </g>
    </g>
</svg>