<?xml version="1.0" encoding="UTF-8"?>
<svg width="142px" height="142px" viewBox="0 0 142 142" version="1.1" xmlns="http://www.w3.org/2000/svg" xmlns:xlink="http://www.w3.org/1999/xlink">
    <title>icons/register</title>
    <g id="Icons" stroke="none" stroke-width="1" fill="none" fill-rule="evenodd">
        <g id="icons-list" transform="translate(-944.000000, -508.000000)" fill-rule="nonzero">
            <g id="Group" transform="translate(943.000000, 507.000000)">
                <g>
                    <circle id="Background" fill="#F2F2F2" cx="72" cy="72" r="69"></circle>
                    <circle id="Outline" stroke="#EE3E24" stroke-width="4" stroke-linejoin="round" cx="72" cy="72" r="69"></circle>
                </g>
                <g id="icon" transform="translate(41.769006, 33.000000)">
                    <path d="M55.2976608,0.49762179 L49.3976608,7.40521707 L41.0393275,0.49762179 C40.1669825,-0.16587393 38.9616724,-0.16587393 38.0893275,0.49762179 L29.7309942,7.40521707 L21.3726608,0.49762179 C20.5003159,-0.16587393 19.2950058,-0.16587393 18.4226608,0.49762179 L10.0643275,7.40521707 L4.16432749,0.49762179 C3.42007322,-0.062914303 2.4244787,-0.153537599 1.59198591,0.263476193 C0.759493109,0.680489985 0.232737276,1.53369176 0.230994152,2.46791421 L0.230994152,76.5274571 C0.230994152,77.4625133 0.757083327,78.3173162 1.5899274,78.735486 C2.42277147,79.1536559 3.4194091,79.0634119 4.16432749,78.5023782 L10.0643275,71.5901542 L18.4226608,78.5023782 C19.2950058,79.1658739 20.5003159,79.1658739 21.3726608,78.5023782 L29.7309942,71.5901542 L38.0893275,78.5023782 C38.9616724,79.1658739 40.1669825,79.1658739 41.0393275,78.5023782 L49.3976608,71.5901542 L55.2976608,78.5023782 C56.0425792,79.0634119 57.0392168,79.1536559 57.8720609,78.735486 C58.704905,78.3173162 59.2309942,77.4625133 59.2309942,76.5274571 L59.2309942,2.46791421 C59.229251,1.53369176 58.7024952,0.680489985 57.8700024,0.263476193 C57.0375096,-0.153537599 56.0419151,-0.062914303 55.2976608,0.49762179 Z" id="Shape" fill="#CCCCCC"></path>
                    <path d="M48.9809942,22 L11.4809942,22 C10.7906382,22 10.2309942,22.5596441 10.2309942,23.25 L10.2309942,25.75 C10.2309942,26.4403559 10.7906382,27 11.4809942,27 L48.9809942,27 C49.6713501,27 50.2309942,26.4403559 50.2309942,25.75 L50.2309942,23.25 C50.2309942,22.5596441 49.6713501,22 48.9809942,22 Z M48.9809942,37 L11.4809942,37 C10.7906382,37 10.2309942,37.5596441 10.2309942,38.25 L10.2309942,40.75 C10.2309942,41.4403559 10.7906382,42 11.4809942,42 L48.9809942,42 C49.6713501,42 50.2309942,41.4403559 50.2309942,40.75 L50.2309942,38.25 C50.2309942,37.5596441 49.6713501,37 48.9809942,37 Z M48.9809942,52 L11.4809942,52 C10.7906382,52 10.2309942,52.5596441 10.2309942,53.25 L10.2309942,55.75 C10.2309942,56.4403559 10.7906382,57 11.4809942,57 L48.9809942,57 C49.6713501,57 50.2309942,56.4403559 50.2309942,55.75 L50.2309942,53.25 C50.2309942,52.5596441 49.6713501,52 48.9809942,52 Z" id="Shape" fill="#333333"></path>
                </g>
            </g>
        </g>
    </g>
</svg>