<?xml version="1.0" encoding="UTF-8"?>
<svg width="142px" height="143px" viewBox="0 0 142 143" version="1.1" xmlns="http://www.w3.org/2000/svg" xmlns:xlink="http://www.w3.org/1999/xlink">
    <!-- Generator: Sketch 52.5 (67469) - http://www.bohemiancoding.com/sketch -->
    <title>icons/registration</title>
    <desc>Created with Sketch.</desc>
    <g id="Symbols" stroke="none" stroke-width="1" fill="none" fill-rule="evenodd">
        <g id="UI-Elements" transform="translate(-517.000000, -1919.000000)">
            <g id="icons/registration" transform="translate(516.000000, 1918.000000)">
                <g id="graph-elemets/outter-circle" fill="#FFFFFF" fill-rule="nonzero" stroke="#EE3E24" stroke-linecap="round" stroke-linejoin="round" stroke-width="4">
                    <ellipse id="Oval" cx="72" cy="72.5" rx="69" ry="69.4791667"></ellipse>
                </g>
                <g stroke-width="1" fill-rule="evenodd" transform="translate(38.000000, 23.000000)">
                    <g id="Group-25" transform="translate(70.000000, 0.000000)" stroke="#000000" stroke-width="4">
                        <path d="M1,1 C6.56845859,4.43460892 10.350333,9.89481707 12,16" id="Stroke-7" transform="translate(6.500000, 8.500000) rotate(-5.000000) translate(-6.500000, -8.500000) "></path>
                    </g>
                    <path d="M35,67.5 L60.9919434,67.5" id="Line-2" stroke="#FFDD00" stroke-width="4" stroke-linecap="square" stroke-linejoin="round" fill-rule="nonzero"></path>
                    <path d="M35,75.5 L60.9919434,75.5" id="Line-2" stroke="#FFDD00" stroke-width="4" stroke-linecap="square" stroke-linejoin="round" fill-rule="nonzero"></path>
                    <path d="M35,83.5 L60.9919434,83.5" id="Line-2" stroke="#FFDD00" stroke-width="4" stroke-linecap="square" stroke-linejoin="round" fill-rule="nonzero"></path>
                    <path d="M35,91.5 L60.9919434,91.5" id="Line-2" stroke="#FFDD00" stroke-width="4" stroke-linecap="square" stroke-linejoin="round" fill-rule="nonzero"></path>
                    <rect id="Rectangle" stroke="#FFDD00" stroke-width="4" fill-rule="nonzero" x="12" y="28" width="26" height="26"></rect>
                    <path d="M0.5,101 L0.5,83 M0,64 L0,16 L60.9960938,16 L73,16 L73,26.1701745 M73.5,39 L73.5,53.1691208 L73.5,72.1141914 L73.5,101" id="Shape" stroke="#0069B4" stroke-width="4" fill-rule="nonzero"></path>
                </g>
            </g>
        </g>
    </g>
</svg>