<?xml version="1.0" encoding="UTF-8"?>
<svg width="142px" height="142px" viewBox="0 0 142 142" version="1.1" xmlns="http://www.w3.org/2000/svg" xmlns:xlink="http://www.w3.org/1999/xlink">
    <title>icons/resources</title>
    <g id="Icons" stroke="none" stroke-width="1" fill="none" fill-rule="evenodd">
        <g id="icons-list" transform="translate(-616.000000, -681.000000)" fill-rule="nonzero">
            <g id="Group" transform="translate(615.000000, 680.000000)">
                <g>
                    <circle id="Background" fill="#F2F2F2" cx="72" cy="72" r="69"></circle>
                    <circle id="Outline" stroke="#EE3E24" stroke-width="4" stroke-linejoin="round" cx="72" cy="72" r="69"></circle>
                </g>
                <path d="M104.755547,62.459375 L98.7457812,56.3977679 C97.9489062,55.5941964 96.8678125,55.1428571 95.7402344,55.1428571 L89,55.1428571 L89,44.4285714 C89,40.8834821 86.1405469,38 82.625,38 L61.375,38 C57.8594531,38 55,40.8834821 55,44.4285714 L55,55.1428571 L48.2597656,55.1428571 C47.1321875,55.1428571 46.0524219,55.5941964 45.2542187,56.3977679 L39.2444531,62.459375 C38.4475781,63.2629464 38,64.353125 38,65.4901786 L38,93.7142857 C38,96.0808036 39.9032031,98 42.25,98 L101.75,98 C104.096797,98 106,96.0808036 106,93.7142857 L106,65.4888393 C106,64.353125 105.552422,63.2629464 104.755547,62.459375 Z M59,44.1666667 C59,42.9709375 59.9736458,42 61.1666667,42 L82.8333333,42 C84.0263542,42 85,42.9709375 85,44.1666667 L85,55 L59,55 L59,44.1666667 Z M102,94 L42,94 L42,81 L54.8571429,81 L54.8571429,84.25 C54.8571429,84.8485417 55.3366071,85.3333333 55.9285714,85.3333333 L58.0714286,85.3333333 C58.6633929,85.3333333 59.1428571,84.8485417 59.1428571,84.25 L59.1428571,81 L84.8571429,81 L84.8571429,84.25 C84.8571429,84.8485417 85.3366071,85.3333333 85.9285714,85.3333333 L88.0714286,85.3333333 C88.6633929,85.3333333 89.1428571,84.8485417 89.1428571,84.25 L89.1428571,81 L102,81 L102,94 Z M89.1428571,77 L89.1428571,73.8125 C89.1428571,73.2254688 88.6633929,72.75 88.0714286,72.75 L85.9285714,72.75 C85.3366071,72.75 84.8571429,73.2254688 84.8571429,73.8125 L84.8571429,77 L59.1428571,77 L59.1428571,73.8125 C59.1428571,73.2254688 58.6633929,72.75 58.0714286,72.75 L55.9285714,72.75 C55.3366071,72.75 54.8571429,73.2254688 54.8571429,73.8125 L54.8571429,77 L42,77 L42,66.0097656 L48.0602679,60 L95.9383929,60 L102,66.0097656 L102,77 L89.1428571,77 Z" id="icon" fill="#333333"></path>
            </g>
        </g>
    </g>
</svg>