<?xml version="1.0" encoding="UTF-8"?>
<svg width="142px" height="143px" viewBox="0 0 142 143" version="1.1" xmlns="http://www.w3.org/2000/svg" xmlns:xlink="http://www.w3.org/1999/xlink">
    <!-- Generator: Sketch 58 (84663) - https://sketch.com -->
    <title>icons/sched-hover</title>
    <desc>Created with Sketch.</desc>
    <defs>
        <filter x="-28.6%" y="-22.2%" width="157.1%" height="145.5%" filterUnits="objectBoundingBox" id="filter-1">
            <feOffset dx="0" dy="8" in="SourceAlpha" result="shadowOffsetOuter1"></feOffset>
            <feGaussianBlur stdDeviation="1" in="shadowOffsetOuter1" result="shadowBlurOuter1"></feGaussianBlur>
            <feColorMatrix values="0 0 0 0 0   0 0 0 0 0   0 0 0 0 0  0 0 0 0.2 0" type="matrix" in="shadowBlurOuter1" result="shadowMatrixOuter1"></feColorMatrix>
            <feMerge>
                <feMergeNode in="shadowMatrixOuter1"></feMergeNode>
                <feMergeNode in="SourceGraphic"></feMergeNode>
            </feMerge>
        </filter>
    </defs>
    <g id="Symbols" stroke="none" stroke-width="1" fill="none" fill-rule="evenodd">
        <g id="UI-Elements" transform="translate(-276.000000, -2162.000000)">
            <g id="icons/sched-hover" transform="translate(275.000000, 2161.000000)">
                <g id="graph-elemets/outter-circle" fill="#FFFFFF" fill-rule="nonzero" stroke="#EE3E24" stroke-linecap="round" stroke-linejoin="round" stroke-width="4">
                    <ellipse id="Oval" cx="72" cy="72.5" rx="69" ry="69.4791667"></ellipse>
                </g>
                <g id="icon" filter="url(#filter-1)" transform="translate(44.000000, 17.000000)">
                    <g id="Group-25" transform="translate(64.000000, 6.000000)"></g>
                    <g id="Group" fill-rule="nonzero">
                        <path d="M32.6450195,92 L8.1161377,92 M8.1161377,92 L0,92 L0,82.3413086 M0,70.6464844 L0,0 L56,0 L56,67.0986328" id="Shape" stroke="#231F20" stroke-width="4" stroke-linejoin="round"></path>
                        <path d="M20,6 L28,6" id="Line-5" stroke="#231F20" stroke-width="4" stroke-linecap="square" stroke-linejoin="round"></path>
                        <path d="M34,6 L35,6" id="Line-5" stroke="#231F20" stroke-width="4" stroke-linecap="square" stroke-linejoin="round"></path>
                        <path d="M0,6 L11,6" id="Line-5" stroke="#231F20" stroke-width="4" stroke-linecap="square" stroke-linejoin="round"></path>
                        <polyline id="Path" stroke="#EE3E24" stroke-width="5" stroke-linecap="square" points="8 64.375 8 64.375 16 64.375"></polyline>
                        <polyline id="Path" stroke="#0069B4" stroke-width="5" stroke-linecap="square" points="24 64.375 24 64.375 34 64.375"></polyline>
                        <polyline id="Path" stroke="#EE3E24" stroke-width="5" stroke-linecap="square" points="22 21.875 22 21.875 42 21.875"></polyline>
                        <polyline id="Path" stroke="#0069B4" stroke-width="5" stroke-linecap="square" points="8 35.375 8 35.375 22 35.375"></polyline>
                        <polyline id="Path" stroke="#231F20" stroke-width="5" stroke-linecap="square" points="13 47.875 13 47.875 31 47.875"></polyline>
                    </g>
                    <path d="M45.6241982,98.9343021 L45.3958504,98.8046198 L28.3238766,88.4860632 C26.0575668,87.1162716 25.3237017,84.1728996 26.6816563,81.8994774 C27.9896187,79.7097497 30.7787696,78.9502433 33.0056356,80.1361164 L33.2339834,80.2657987 L40.3308262,84.5550342 L32.0173075,51.2107898 C31.3492586,48.5313922 32.979779,45.8177506 35.6591766,45.1497017 L35.6591766,45.1497017 C38.3385743,44.4816529 41.0522159,46.1121732 41.7202647,48.7915709 L46.8004974,69.1678129 L63.2956519,65.0551089 C67.0468086,64.1198405 70.8459068,66.402569 71.7811752,70.1537257 L75.6519256,85.6784574" id="Path" stroke="#FFDD00" stroke-width="4" stroke-linecap="square" stroke-linejoin="round" fill-rule="nonzero"></path>
                </g>
                <path d="M109,24 C114.568459,27.4346089 118.350333,32.8948171 120,39" id="Stroke-7" stroke="#000000" stroke-width="4" transform="translate(114.500000, 31.500000) rotate(-5.000000) translate(-114.500000, -31.500000) "></path>
            </g>
        </g>
    </g>
</svg>