<?xml version="1.0" encoding="UTF-8"?>
<svg width="144px" height="145px" viewBox="0 0 144 145" version="1.1" xmlns="http://www.w3.org/2000/svg" xmlns:xlink="http://www.w3.org/1999/xlink">
    <!-- Generator: Sketch 63.1 (92452) - https://sketch.com -->
    <title>icons/travel</title>
    <desc>Created with Sketch.</desc>
    <g id="icons/travel" stroke="none" stroke-width="1" fill="none" fill-rule="evenodd" stroke-linecap="round" stroke-linejoin="round">
        <g id="graph-elemets/outtercircle" fill="#F2F2F2" fill-rule="nonzero" stroke="#FF5547" stroke-width="4">
            <ellipse id="Oval" cx="72" cy="72.5" rx="69" ry="69.4791667"></ellipse>
        </g>
        <g id="journey" transform="translate(18.000000, 43.864502)" fill-rule="nonzero" stroke="#333333" stroke-width="2">
            <circle id="Oval" fill="#FFFFFF" cx="20" cy="39.135498" r="20"></circle>
            <circle id="Oval" fill="#FFFFFF" cx="88" cy="39.135498" r="20"></circle>
            <path d="M90.4780273,39.135498 L75.6079102,6.51977539 C82.0498047,2.17325846 79.855957,0 69.0263672,0" id="Path-2"></path>
            <polygon id="Path-4" points="78.1544189 12.2839355 35.5634766 12.2839355 46.8125 39.135498 79.8468018 15.9665527"></polygon>
            <polyline id="Path-5" points="35.5634766 12.2839355 20 39.135498 46.8125 39.135498"></polyline>
            <polygon id="Rectangle" fill="#FFFFFF" points="29 4.48291016 42 6.13549805 42 9.13549805 29 9.13549805"></polygon>
            <line x1="3.6875" y1="61.3986816" x2="38.2946777" y2="61.3986816" id="Path-7"></line>
            <line x1="17" y1="67.135498" x2="51.6071777" y2="67.135498" id="Path-7"></line>
            <line x1="66" y1="61.135498" x2="100.607178" y2="61.135498" id="Path-7"></line>
            <line x1="59" y1="65.135498" x2="93.6071777" y2="65.135498" id="Path-7"></line>
        </g>
    </g>
</svg>