<?xml version="1.0" encoding="UTF-8"?>
<svg width="142px" height="143px" viewBox="0 0 142 143" version="1.1" xmlns="http://www.w3.org/2000/svg" xmlns:xlink="http://www.w3.org/1999/xlink">
    <!-- Generator: Sketch 52.5 (67469) - http://www.bohemiancoding.com/sketch -->
    <title>icon/travel</title>
    <desc>Created with Sketch.</desc>
    <g id="Symbols" stroke="none" stroke-width="1" fill="none" fill-rule="evenodd" stroke-linejoin="round">
        <g id="UI-Elements" transform="translate(-31.000000, -1405.000000)">
            <g id="icons/travel" transform="translate(30.000000, 1404.000000)">
                <g id="graph-elemets/outter-circle" fill="#FFFFFF" fill-rule="nonzero" stroke="#EE3E24" stroke-linecap="round" stroke-width="4">
                    <ellipse id="Oval" cx="72" cy="72.5" rx="69" ry="69.4791667"></ellipse>
                </g>
                <g stroke-width="1" fill-rule="evenodd" transform="translate(33.000000, 32.000000)" id="Group-5">
                    <g stroke-width="4">
                        <path d="M69,0 C74.0615623,2.74768713 77.5003028,7.11585366 79,12" id="Stroke-1" stroke="#000000" stroke-linecap="square"></path>
                        <path d="M53.5338478,46.1983356 L52.810432,41.031179 C52.5215908,39.049203 52.2327497,36.9257492 51.9432521,34.9437733 C51.7988315,33.9527853 52.0876727,33.3862308 52.810432,32.8203195 L55.8452334,30.2717891 C58.3023526,28.2898131 60.6150512,26.3078372 63.0715139,24.3252181 C65.0947148,22.6268409 66.3951565,21.0692985 67.551834,19.3702783 C68.4183574,18.0963346 69.2855373,16.5387922 69.7194555,14.8397719 C70.4415584,12.9992738 69.7194555,11.0172978 68.1295163,9.88483202 C66.9734952,9.1774428 65.6730536,8.89384404 64.0831143,9.03532188 C61.337154,9.46039849 59.0251119,10.4513865 56.8568339,12.0082858 C54.97871,13.4243504 52.810432,15.1233707 50.3539693,17.1053466 C49.1979482,18.0963346 48.0412707,19.0873226 46.8852497,20.0783105 C46.1624903,20.7863428 45.439731,21.3522542 44.7176281,22.0602865 C43.9948688,22.6268409 43.41653,22.9097966 42.5500066,22.7683188 C42.1160884,22.6268409 41.5384061,22.48472 40.9600673,22.3432422 L13.935039,12.4333624 C13.0678591,12.1504067 12.2006792,11.866808 11.1890787,11.5838523 C9.16587773,11.0172978 7.72035906,11.5838523 6.85383561,12.2918846 C5.26389637,13.4243504 3.96345473,14.8397719 3.09627483,16.3973143 C2.08401788,17.9548568 2.37351549,19.653877 3.81903416,20.9278207 C4.39671646,21.493732 4.97505522,21.9188087 5.40831694,22.2024074 C10.3218988,25.5998049 15.3799012,28.8557245 20.2941395,32.253765 C22.1729199,33.5277087 23.9066233,34.6608176 25.2077213,36.2177169 C25.4965625,36.6427935 25.7854036,36.9257492 26.0742448,37.3501828 L16.6809993,46.1282398 C15.6693988,47.1192278 14.6577983,47.9680948 13.6461978,48.9590828 C13.5017773,48.9590828 13.3567002,48.8176049 13.2122797,48.8176049 L11.6229969,48.1102157 C10.3218988,47.5436613 9.16587773,46.835629 7.86543609,46.2697176 C6.27549685,45.5616853 4.54113703,45.7031632 3.2406954,46.835629 C2.51793607,47.4021834 1.79583319,48.1102157 1.0724174,48.818248 C-0.227367775,50.0921917 -0.372444808,51.6497341 0.784232708,53.0651556 C1.0724174,53.4895891 1.36191501,53.7731879 1.65075616,54.0561436 L4.39671646,57.453541 C7.57593848,61.5596139 10.9002375,65.6650436 14.2238801,69.6289955 C14.6577983,70.19555 15.0910601,70.6206266 15.6693988,70.9035823 C16.2470811,71.186538 17.4031022,71.8945703 18.8486208,71.4694936 C20.5829806,70.9035823 21.8834223,69.7711165 22.461761,68.0720962 C23.0394433,66.6560316 23.1845204,65.0991323 22.6061816,63.400112 L22.3173405,62.1255252 C22.0278429,60.9930594 21.7390017,59.8612367 21.4501606,58.7281278 C25.3521419,55.7551639 29.2541233,52.9236778 33.0116841,49.9500708 L34.8904644,48.5346493 L35.3237262,49.2426816 C36.3353267,50.800224 37.2025066,52.3571233 37.7801889,54.0561436 L44.4281305,70.7621044 C44.8620487,71.7530924 45.1508899,72.7440804 45.584808,73.5935905 C46.3075674,75.1504899 47.4635884,76 48.9084506,76 C49.4867894,76 50.0644717,75.8591652 50.6428105,75.5755665 C51.0760722,75.4334456 51.5099904,75.2926108 51.7988315,75.009012 C54.1108736,73.8765462 55.5563923,72.3196469 56.1347311,70.19555 C56.5679928,68.4965297 56.4235722,66.9389873 56.2791516,65.8071646 L55.5773989,60.7956335" id="Stroke-3" stroke="#0069B5"></path>
                    </g>
                </g>
            </g>
        </g>
    </g>
</svg>