<?xml version="1.0" encoding="UTF-8"?>
<svg width="142px" height="142px" viewBox="0 0 142 142" version="1.1" xmlns="http://www.w3.org/2000/svg" xmlns:xlink="http://www.w3.org/1999/xlink">
    <title>icons/updates</title>
    <g id="Icons" stroke="none" stroke-width="1" fill="none" fill-rule="evenodd">
        <g id="icons-list" transform="translate(-288.000000, -692.000000)" fill-rule="nonzero">
            <g id="Group" transform="translate(287.000000, 691.000000)">
                <g>
                    <circle id="Background" fill="#F2F2F2" cx="72" cy="72" r="69"></circle>
                    <circle id="Outline" stroke="#EE3E24" stroke-width="4" stroke-linejoin="round" cx="72" cy="72" r="69"></circle>
                </g>
                <path d="M102,48 L44,48 C42.34575,48 41,49.345875 41,51 L41,52 L36,52 C34.343125,52 33,53.343125 33,55 L33,90 C33,93.31375 35.68625,96 39,96 L102,96 C103.654125,96 105,94.654125 105,93 L105,51 C105,49.345875 103.654125,48 102,48 Z M37,90 L37,56 L41,56 L41,90 C41,91.10275 40.10275,92 39,92 C37.89725,92 37,91.10275 37,90 Z M101,92 L45,92 C45.2258318,91.3576913 45.3410411,90.6813124 45.3406649,90 L45.3406649,52 L101,52 L101,92 Z M50.5,80 L71.5,80 C72.328375,80 73,79.328375 73,78.5 L73,57.5 C73,56.671625 72.328375,56 71.5,56 L50.5,56 C49.671625,56 49,56.671625 49,57.5 L49,78.5 C49,79.328375 49.671625,80 50.5,80 Z M53,60 L69,60 L69,76 L53,76 L53,60 Z M49,86.5 L49,85.5 C49,84.671625 49.671625,84 50.5,84 L71.5,84 C72.328375,84 73,84.671625 73,85.5 L73,86.5 C73,87.328375 72.328375,88 71.5,88 L50.5,88 C49.671625,88 49,87.328375 49,86.5 Z M77,86.5 L77,85.5 C77,84.671625 77.671625,84 78.5,84 L95.5,84 C96.328375,84 97,84.671625 97,85.5 L97,86.5 C97,87.328375 96.328375,88 95.5,88 L78.5,88 C77.671625,88 77,87.328375 77,86.5 Z M77,78.5 L77,77.5 C77,76.671625 77.671625,76 78.5,76 L95.5,76 C96.328375,76 97,76.671625 97,77.5 L97,78.5 C97,79.328375 96.328375,80 95.5,80 L78.5,80 C77.671625,80 77,79.328375 77,78.5 Z M77,62.5 L77,61.5 C77,60.671625 77.671625,60 78.5,60 L95.5,60 C96.328375,60 97,60.671625 97,61.5 L97,62.5 C97,63.328375 96.328375,64 95.5,64 L78.5,64 C77.671625,64 77,63.328375 77,62.5 Z M77,70.5 L77,69.5 C77,68.671625 77.671625,68 78.5,68 L95.5,68 C96.328375,68 97,68.671625 97,69.5 L97,70.5 C97,71.328375 96.328375,72 95.5,72 L78.5,72 C77.671625,72 77,71.328375 77,70.5 Z" id="icon" fill="#333333"></path>
            </g>
        </g>
    </g>
</svg>