<?xml version="1.0" encoding="UTF-8"?>
<svg width="144px" height="145px" viewBox="0 0 144 145" version="1.1" xmlns="http://www.w3.org/2000/svg" xmlns:xlink="http://www.w3.org/1999/xlink">
    <!-- Generator: Sketch 63.1 (92452) - https://sketch.com -->
    <title>icons/venue</title>
    <desc>Created with Sketch.</desc>
    <g id="icons/venue" stroke="none" stroke-width="1" fill="none" fill-rule="evenodd">
        <g id="graph-elemets/outtercircle" fill="#F2F2F2" fill-rule="nonzero" stroke="#FF5547" stroke-linecap="round" stroke-linejoin="round" stroke-width="4">
            <ellipse id="Oval" cx="72" cy="72.4675325" rx="69" ry="69.4480519"></ellipse>
        </g>
        <g id="venue" transform="translate(31.000000, 14.000000)" stroke="#333333" stroke-width="2">
            <path d="M54.8198407,21.5242192 C55.0011112,22.1909823 55.2127301,22.9862881 55.4341917,23.779106 C55.6318667,24.4906517 55.6523725,25.1341942 55.0035719,25.6707561 C54.5639295,26.0339927 54.4704234,26.5066979 55.129887,26.7148541 C56.5218145,27.1535577 56.9343893,28.4796202 57.0951541,29.5494267 C57.2485368,30.5686455 57.8185954,31.1566244 58.309092,31.8275341 C58.754476,32.437075 59.4631532,32.863339 60.0980099,33.311165 C60.3645841,33.4994178 60.7369678,33.5367366 60.9846767,33.6180087 C60.9297215,34.3942404 60.8690246,35.2475977 60.8083277,36.1167119 C61.3332738,36.2452545 61.7007361,36.3348197 62.0681984,36.4243849 C61.732725,37.7396664 60.7935636,38.518386 59.8880315,38.2488611 C59.7904243,38.4064295 59.6690305,38.5639979 59.5878279,38.7398111 C58.8094312,40.4307688 58.0408773,42.1267024 57.2624806,43.8184895 C57.0073896,44.3716375 58.0154502,46.1637708 58.7380714,46.3470477 C59.7789411,46.6107674 60.8559009,46.7459445 61.8746245,47.0760089 C63.0032586,47.4417334 64.0834993,47.9617092 65.1801446,48.4269506 C65.2916956,48.4742211 65.3983253,48.5894948 65.4541009,48.7014513 C66.2538235,50.2962094 67.5046717,51.2673284 69.2533984,51.609003 C69.3961182,51.6371995 69.6085573,52.078391 69.553602,52.2508869 C69.1869599,53.4086 69.7389736,54.3200088 70.2024026,55.2894692 C70.404999,55.7149039 70.4394486,56.2373675 70.4829207,56.721683 C70.5108084,57.0384784 70.423044,57.3668842 70.3730101,57.6878261 C70.3393807,57.9042753 70.347583,58.1738002 70.2220881,58.3222463 C68.8309808,59.9775438 68.824419,59.9717386 68.5939349,61.9811504 C67.5538853,62.0408605 67.4669411,62.1428654 67.7384367,63.2458442 C67.8704935,63.7807474 67.8262012,64.1157876 67.3455474,64.518831 C66.6590163,65.0960289 66.1275083,65.8614796 65.4311345,66.6601026 C67.0338606,67.3260365 68.0673483,68.2075902 68.4503949,69.4100859 C68.1017979,69.9458185 67.9000217,70.2966155 67.6588746,70.6175575 C67.322581,71.0662128 67.038782,71.6458986 66.5851957,71.8938615 C65.8543723,72.2927584 65.7083716,72.785367 65.8797994,73.5168161 C66.3530711,75.5303744 67.5005705,77.1259618 68.9868242,78.470269 C69.3567472,78.8036506 69.9924241,78.8227247 70.491123,79.0225878 C71.321194,79.35514 72.1578269,79.6254942 73.023988,79.8610175 C74.3035442,80.2084973 75.4124929,81.165518 76.6231499,81.8065726 C77.7386604,82.3978688 78.7221141,83.3640119 80.1066595,83.2653243 C81.0843717,83.1956625 82.1998822,83.6385126 82.924964,82.4783116 C83.0701444,82.2436176 83.5540792,82.1291732 83.8846312,82.1266853 C84.6285783,82.1192215 85.3741658,82.2154212 86,82.2618624 C85.9376626,82.8730619 85.8466173,83.477627 85.8220105,84.0838507 C85.7801788,85.1146798 85.3905704,85.4497199 84.401375,85.3402514 C82.8987167,85.1735606 81.3935978,85.0159922 79.8860181,84.9355494 C79.5612077,84.9181339 79.1625767,85.1810244 78.8968228,85.4248407 C78.3029775,85.9688664 77.8592339,86.1612657 77.3556138,85.2904929 C77.2046917,85.0309197 76.674004,84.9065236 76.3065417,84.883303 C75.7569888,84.8484721 75.1828289,84.8891082 74.6488603,85.0217973 C73.8639018,85.2166846 73.3053263,84.8874495 72.7016383,84.4603562 C72.1594674,84.0772162 71.7936455,84.4910406 71.7099822,84.9894543 C71.490161,86.2956135 70.6486068,87.1232622 69.6208607,87.7344618 C69.1853195,87.994035 68.533238,87.9973522 67.9951682,87.9434472 C66.2382391,87.7684634 64.6084455,86.7061206 62.7457069,87.1838017 C62.5111216,87.2443411 62.2314238,87.1257502 61.9730519,87.0925779 C61.1396999,86.9872558 60.4507081,87.2940996 60.3473593,88.1433103 C60.2194037,89.1981893 59.6559069,89.3549284 58.801229,89.2645339 C58.5469582,89.2379961 58.2844851,89.294389 58.0416975,89.3118044 C57.8095729,90.1170619 57.5725269,90.8742195 57.3781328,91.6413288 C57.2829863,92.0153465 57.2575593,92.4092675 57.2157276,92.7957247 C57.1296037,93.605958 57.2608402,94.1325682 58.241013,94.4078983 C59.3081301,94.7081075 59.4713555,96.7614726 58.639644,97.855329 C58.0334953,98.6522934 58.3082717,99.8630822 59.2293881,100.273589 C59.9626723,100.601166 60.0734031,100.94367 59.5607604,101.623702 C59.2548152,102.030892 59.0612413,102.622188 59.0481177,103.136358 C59.0251513,104.070988 59.6952778,105.036302 58.8455213,105.944393 C58.7897458,106.005762 59.1465451,106.659256 59.4295239,106.811849 C60.5515962,107.418902 61.6236346,108.084006 63.0680567,107.695061 C64.0055776,107.442122 64.8807613,108.057468 65.5976408,108.757404 C65.8658555,109.019465 66.2103514,109.226792 66.554027,109.38436 C67.2659852,109.709449 67.4538175,110.226107 67.1413105,110.913603 C67.0666697,111.079465 66.7377582,111.30006 66.629488,111.25279 C65.3113811,110.67725 63.9842517,111.327427 63.3215072,112.068828 C62.3347726,113.175124 60.9198787,112.825986 59.9167395,113.692612 C59.4360857,114.108095 58.4403285,113.992821 57.684078,113.961308 C57.3863351,113.949697 56.926187,113.554118 56.8515463,113.253908 C56.6087587,112.28196 55.8155979,112.199029 55.2586629,112.462749 C54.1931863,112.966139 53.3869018,112.793643 52.3698187,112.286936 C51.2551284,111.7313 49.9583475,111.548852 48.6484428,111.178152 C48.5204872,112.377331 47.8667653,112.576364 46.856244,112.434553 C45.9072398,112.299376 44.927067,112.392258 43.960838,112.380648 C42.6008995,112.36572 42.1817628,111.379674 41.8208623,110.296598 C41.4632428,109.222645 41.3344669,107.857605 40.6003626,107.17011 C39.3011209,105.953516 39.7743927,104.741068 39.894146,103.401737 C39.9367979,102.916592 39.5176612,102.389152 39.204334,101.624531 C38.9213552,102.103871 38.7441859,102.263098 38.7523882,102.413202 C38.7933996,103.167872 38.3463752,103.519498 37.7254623,103.647212 C37.2407074,103.746729 36.7280647,103.704434 36.2277254,103.725996 C36.2252647,103.283975 36.1432419,102.825368 36.2383884,102.407397 C36.3753665,101.801174 36.1489835,101.599652 35.608453,101.60131 C35.4796772,101.60131 35.3509013,101.646922 35.220485,101.665167 C33.2273302,101.940497 33.2560382,101.938009 33.1198803,99.9203044 C33.086251,99.4252079 32.7926092,98.9483562 32.5416194,98.2509087 C32.0289767,99.209588 31.6729976,99.8755218 31.3178387,100.540626 C31.1956247,100.522382 31.0734107,100.505795 30.9511966,100.487551 C30.7674655,99.1789036 30.539442,97.8744031 30.4360933,96.5591216 C30.417228,96.3086708 30.8421063,95.9296773 31.1447705,95.7638158 C32.0904938,95.246328 32.1470895,95.0796372 31.5794915,94.1848146 C31.3555692,93.8323589 31.0307588,93.3978019 31.078332,93.0453462 C31.2013663,92.1123754 30.7264541,91.7789939 29.9816868,91.6131324 C28.6274898,91.3112645 27.8326886,90.3675127 27.3315291,89.1633584 C26.4891546,87.1365312 24.8331136,86.4888421 22.8596443,86.3229806 C21.8606062,86.2400499 21.1617717,86.6563622 20.5080497,87.4541559 C19.3851571,88.8258303 18.1999272,90.1726255 16.8777192,91.3436075 C15.4726681,92.5900565 13.9330995,92.0543239 13.4278389,90.2099443 C13.1776692,89.3018527 13.1038487,88.3066839 13.1547028,87.3621028 C13.2252425,86.054285 12.9250389,84.9023771 12.3558004,83.7438347 C11.8480791,82.7130056 11.4108974,81.6199785 11.1336602,80.507048 C10.6644896,78.6245202 11.6134938,77.3672902 13.5057605,77.0488362 C14.4063712,76.8962436 15.3135438,76.692234 16.1715026,76.3820731 C19.2104485,75.2824115 20.5851512,73.0043041 20.3751727,69.7525899 C20.3103747,68.7541038 20.4637574,67.7282506 20.6163198,66.7305938 C20.8779727,65.009781 20.6540503,63.3486783 20.0790703,61.7423099 C19.5442814,60.247898 18.9898071,58.7485102 18.28195,57.3353705 C17.8677347,56.5077217 17.178743,55.8011518 16.535684,55.1144853 C15.6605003,54.1790266 14.7205187,53.303278 13.7903798,52.4225536 C12.2442494,50.958826 10.2929262,50.3633833 8.29156912,49.9736089 C7.30811537,49.7812096 6.26724563,49.8160405 5.25508389,49.8500421 C3.24388405,49.917216 1.76091125,48.9154126 0.423118866,47.561983 C-0.0640967546,47.0693744 -0.138737532,46.5212022 0.241848408,45.9464922 C0.642119827,45.3427565 1.01450348,44.696726 1.51976413,44.1916778 C2.09392395,43.6169678 2.11442966,43.0804059 1.76173148,42.4227652 C1.40575239,41.7568313 1.07191947,41.0801165 0.711019006,40.3752053 C1.35161732,40.1828059 1.91839509,39.9754791 2.50157743,39.8469365 C3.27095159,39.6777577 3.42023314,39.2191508 3.236502,38.5233619 C3.11018684,38.0440222 2.94450072,37.5539015 2.94368049,37.0687567 C2.94286026,36.675665 3.05605177,36.1830565 3.30458095,35.9077264 C4.02966278,35.1049569 4.90238571,34.4381937 5.61598435,33.6271311 C6.50265116,32.617864 7.28678943,31.5165438 8.11932118,30.4591769 C8.28090616,30.2551673 8.4588957,30.0635973 8.6385257,29.8761738 C9.26271945,29.2268262 9.89019412,28.5807957 10.5176688,27.9355946 C10.6546469,27.7954416 10.7776812,27.5839682 10.942547,27.537527 C12.9594885,26.9711101 13.4073331,25.087753 14.301382,23.5560223 C14.6302936,22.9920933 15.1224306,22.4538728 15.6654217,22.1039051 C16.6070438,21.4968521 17.4781263,20.8997508 17.667599,19.6848154 C17.678262,19.6201295 17.6864643,19.5231005 17.7274757,19.4998799 C18.6748394,18.9583422 18.5796929,17.7906774 19.2022462,16.9539062 C19.4712811,17.0832782 19.7608217,17.1620624 19.9724406,17.3362169 C20.4727799,17.749212 20.9025795,18.2559188 21.4299863,18.6249606 C21.6448861,18.7750652 22.1624502,18.8065789 22.3273161,18.6539864 C23.2960058,17.7641396 24.309808,18.1655243 25.2866999,18.5055403 C26.0421302,18.7692601 26.2873784,18.6050572 26.4842332,17.8097515 C26.7655715,16.672771 27.324147,15.6054524 26.7893582,14.3888585 C26.7393242,14.2727555 27.0378873,13.9708876 27.2109555,13.7909279 C27.5521705,13.4368136 27.8983068,13.0826994 28.2821737,12.7800022 C28.4937926,12.6124821 28.7767714,12.4955498 29.0433456,12.4524258 C29.5125162,12.3744709 29.9964509,12.3272004 30.4713631,12.3437865 C31.3875581,12.3761295 32.0142125,12.0916771 32.3890569,11.1529011 C32.4997877,10.8750831 33.1576108,10.688489 33.5636238,10.6893183 C34.5257517,10.6918062 35.1647095,10.2025149 35.2467323,9.34998688 C35.4165196,7.59848969 36.2252647,6.34208901 37.4941579,5.62307952 C38.1577227,5.62307952 38.8229278,5.82708913 39.1124684,5.57995553 C39.714516,5.06578496 39.6054256,4.3741426 39.0468501,3.74635692 C38.9320182,3.61698496 39.0640749,3.16252452 39.1985924,2.92700122 C39.5357062,2.33487576 39.9195731,1.76597089 40.3264063,1.22028664 C40.4994745,0.986421957 40.7578464,0.801486411 41.0088363,0.647235239 C41.3115005,0.461470386 41.6633785,0.356148348 41.966863,0.171212803 C42.6181242,-0.226854739 43.4170266,0.100721675 43.6097803,0.828024247 C43.9116243,1.97246843 44.2019851,3.12437638 44.603897,4.23398965 C44.726111,4.56985914 45.1665736,4.85514088 45.5266539,5.02183167 C46.2189266,5.3402857 46.9399073,5.565028 47.2105826,6.40926291 C47.2614368,6.56766062 47.4812579,6.77498747 47.628899,6.77996331 C48.631218,6.81811145 49.6351775,6.80733045 50.6383167,6.81147699 C51.0779591,6.81396491 51.515961,6.8123063 51.8366703,6.8123063 C51.9695473,7.3629664 52.104885,7.74361848 52.1450762,8.13339295 C52.1901887,8.58038963 52.2672902,9.07797406 52.12293,9.47770022 C51.8637378,10.1983683 51.2198586,10.8137144 51.7103552,11.6761941 C51.7357822,11.721806 51.7234788,11.8412262 51.6898494,11.8627882 C50.3848662,12.6945835 51.4363989,13.5852597 51.7267597,14.3349535 C52.0909411,15.269583 51.8096028,15.9628839 51.3084433,16.6296471 C50.9155539,17.1521107 50.412754,17.5933022 49.9337406,18.0436161 C49.134018,18.79331 49.1602653,19.4368525 50.0813817,20.0256608 C50.3783044,20.2155722 50.7769353,20.4618765 51.0697568,20.3996784 C52.0745365,20.1832292 52.7241574,20.7712081 53.4730258,21.2356202 C53.807679,21.4429471 54.2817709,21.4188972 54.8198407,21.5242192" id="Fill-1" fill="#FFFFFF"></path>
            <path d="M52.296875,83.8212891 C56.500087,80.0286037 54.1872149,81.0035716 58.9165039,80.2324219" id="Path" stroke-linecap="round" stroke-linejoin="round" fill-rule="nonzero"></path>
            <path d="M24.6274414,80.1791992 C25.2789714,81.0169271 25.9305013,81.8546549 26.5820312,82.6923828" id="Path-2" stroke-linecap="round" stroke-linejoin="round" fill-rule="nonzero"></path>
            <path d="M42.8105469,96.5961914 C44.3198242,96.8164062 45.8291016,97.0366211 47.3383789,97.2568359" id="Path-3" stroke-linecap="round" stroke-linejoin="round" fill-rule="nonzero"></path>
            <path d="M36.6069336,15.4536133 C43.3046863,16.8986413 40.2450439,17.6440957 45.53125,12.3535156" id="Path-4" stroke-linecap="round" stroke-linejoin="round" fill-rule="nonzero"></path>
            <path d="M8.18701172,35.8383789 C8.53393331,41.9257124 9.38659507,39.4149655 6.57666016,43.628418" id="Path-5" stroke-linecap="round" stroke-linejoin="round" fill-rule="nonzero"></path>
            <path d="M61.8461914,60.46875 C62.3800456,58.7815755 62.9138997,57.094401 63.4477539,55.4072266" id="Path-6" stroke-linecap="round" stroke-linejoin="round" fill-rule="nonzero"></path>
            <path d="M24.2163086,28.5170898 C26.3201497,28.8188477 28.4239909,29.1206055 30.527832,29.4223633" id="Path-7" stroke-linecap="round" stroke-linejoin="round" fill-rule="nonzero"></path>
            <path d="M24.6435547,74.8857422 C26.1671549,74.9070638 27.6907552,74.9283854 29.2143555,74.949707" id="Path-8" stroke-linecap="round" stroke-linejoin="round" fill-rule="nonzero"></path>
            <path d="M41.5791016,91.1025391 C38.172156,92.9264298 39.4971018,91.4787234 38.480957,96.1088867" id="Path-9" stroke-linecap="round" stroke-linejoin="round" fill-rule="nonzero"></path>
            <path d="M50.3999023,108.693848 C51.9978841,107.726074 53.5958659,106.758301 55.1938477,105.790527" id="Path-10" stroke-linecap="round" stroke-linejoin="round" fill-rule="nonzero"></path>
            <path d="M49.4111328,68.09375 C50.9467773,67.2726237 52.4824219,66.4514974 54.0180664,65.6303711" id="Path-11" stroke-linecap="round" stroke-linejoin="round" fill-rule="nonzero"></path>
            <path d="M39.5,33 C46.9558441,33 53,38.7915882 53,45.9358744 C53,50.6987318 48.5,58.720107 39.5,70 C30.5,58.720107 26,50.6987318 26,45.9358744 C26,38.7915882 32.0441559,33 39.5,33 Z M39.5,40.4 C36.7780252,40.4 34.5714286,42.5166982 34.5714286,45.1277778 C34.5714286,47.7388573 36.7780252,49.8555556 39.5,49.8555556 C42.2219748,49.8555556 44.4285714,47.7388573 44.4285714,45.1277778 C44.4285714,42.5166982 42.2219748,40.4 39.5,40.4 Z" id="Oval-2" fill="#FFFFFF" fill-rule="nonzero" stroke-linecap="round" stroke-linejoin="round"></path>
        </g>
        <path d="M74.9306641,40.8457031 C78.8279328,43.97955 76.6672128,43.5015508 81.3422852,42.5678711" id="Path-12" stroke="#333333" stroke-width="2" stroke-linecap="round" stroke-linejoin="round" fill-rule="nonzero"></path>
        <polyline id="Path-13" stroke="#333333" stroke-width="2" stroke-linecap="round" stroke-linejoin="round" fill-rule="nonzero" points="44.6982422 58.8369141 46.1679688 58.8369141 47.5581055 58.8369141"></polyline>
    </g>
</svg>