<?xml version="1.0" encoding="UTF-8"?>
<svg width="142px" height="142px" viewBox="0 0 142 142" version="1.1" xmlns="http://www.w3.org/2000/svg" xmlns:xlink="http://www.w3.org/1999/xlink">
    <title>icons/welcome</title>
    <g id="Icons" stroke="none" stroke-width="1" fill="none" fill-rule="evenodd">
        <g id="icons-list" transform="translate(-452.000000, -692.000000)" fill-rule="nonzero">
            <g id="Group" transform="translate(451.000000, 691.000000)">
                <g>
                    <circle id="Background" fill="#F2F2F2" cx="72" cy="72" r="69"></circle>
                    <circle id="Outline" stroke="#EE3E24" stroke-width="4" stroke-linejoin="round" cx="72" cy="72" r="69"></circle>
                </g>
                <path d="M46.1207402,112.192265 C47.0639601,111.687283 48.1805868,112.205073 49.2790128,112.80489 L49.6656249,113.018464 C50.2434733,113.339338 50.8099025,113.652183 51.3364813,113.817409 C52.3069055,114.1219 55.4323666,114.417482 56.4481573,114.377126 C65.744329,114.007807 69.4256922,110.569897 76.8036276,116.958807 C78.4287367,118.210469 79.1664296,118.862922 79.0167062,118.916167 C78.3739402,119.144752 76.9823189,119.064369 76.3195247,119.199303 C70.3157243,120.421578 65.1431104,122.539253 59.0649864,122.978007 C55.6882453,123.22176 52.3161895,121.41147 49.7407079,118.930909 C48.9070882,118.128013 45.2333718,112.667345 46.1207402,112.192265 Z M111.977161,24.7972795 C120.198049,29.2595565 123.845415,37.8312992 121.067227,45.3883221 L120.964009,45.6610166 L120.874855,45.8832631 L121.09103,45.9524458 C130.180679,48.9232932 136.612736,58.9788457 134.644183,67.8967688 L134.579219,68.1779997 L134.503723,68.4770808 C134.004461,70.3709201 132.780806,71.4704326 130.266427,72.8535755 L129.70767,73.1546974 L128.969594,73.5387891 L128.456424,73.8041124 L128.000352,74.0446787 L127.596565,74.2651749 L127.241761,74.4678084 C127.131289,74.532621 127.028431,74.5948244 126.932636,74.6547866 L126.665888,74.8283169 C126.378117,75.0237829 126.170123,75.1962996 126.018307,75.3616411 L125.453949,75.9731578 L124.922129,76.5423378 L124.419668,77.0716472 L123.943388,77.5635518 C123.866014,77.6425558 123.789598,77.720104 123.714074,77.7962479 L123.27111,78.2366691 L122.846384,78.6458505 C122.776939,78.7115811 122.708122,78.7761128 122.639867,78.8394969 L122.236539,79.2064424 C122.103989,79.3244414 121.973154,79.4382612 121.843506,79.548313 L121.457589,79.8675747 C120.754655,80.43367 120.07158,80.8982116 119.32025,81.3295788 C117.398936,82.432679 115.40728,82.9507797 113.303093,82.8228849 L112.969911,82.7973137 L112.760877,82.7747249 L112.755896,82.8983512 C112.344038,90.9458866 105.49464,96.4168768 96.2031494,97.0573321 L95.874207,97.077927 L95.5544625,97.093996 C87.1045648,97.4676411 79.9268959,94.126127 77.285867,87.8901273 L77.1706547,87.6089718 L77.0779409,87.3689769 L76.9720472,87.3731902 C75.7620813,87.4007592 74.5305569,87.1876439 73.1122515,86.7334862 C72.6068001,87.7843927 71.9801477,88.738877 71.2535333,89.5876939 C71.3360962,89.8002429 71.3904971,90.0281398 71.4125051,90.2667686 C71.4381415,90.5447396 71.4656002,90.8192907 71.4949522,91.0905453 L71.5887587,91.8945428 L71.6943506,92.6795009 C72.8478238,100.694913 75.9571083,105.779345 83.1363474,111.606074 L83.8438888,112.172392 C84.0840184,112.362019 84.328454,112.552541 84.5772668,112.744083 L85.336907,113.321889 C85.4657259,113.418741 85.5956568,113.515878 85.7267086,113.613316 C86.857573,114.454124 87.0900978,116.04898 86.2460674,117.175527 C85.402037,118.302074 83.8010685,118.533711 82.6702042,117.692903 C82.4004038,117.492304 82.1346336,117.292465 81.8728423,117.093291 L81.0993541,116.497667 L80.349433,115.905461 C72.2287938,109.407889 68.32988,103.4268 66.8151583,94.5391727 L66.6839732,93.7231043 C66.650108,93.4992904 66.6176617,93.2736423 66.5866065,93.0461085 C64.1373581,94.1286603 61.3184482,94.5055857 58.4217143,94.0533489 L58.1067162,94.0003109 L58.0974131,94.243729 C57.7601665,101.055033 51.7711974,105.994342 44.0540661,106.602236 L43.7402724,106.624501 L43.4516573,106.640679 C36.8665563,106.962945 30.4892732,103.296545 28.0310745,97.7138627 L27.9152035,97.4422461 L27.8864707,97.3711259 L27.8367336,97.3791349 C20.849326,98.4220752 12.9606741,94.2838606 10.1671429,87.9483602 L10.0505571,87.6755022 L9.94994674,87.4248362 C7.62258979,81.4432139 9.70321404,75.1693426 14.7535155,71.554175 L15.0001965,71.3813349 L15.1691496,71.2674599 L15.1426875,71.228207 C10.87834,64.8996692 11.0423451,56.0874464 16.2941237,51.4146061 L16.5190595,51.2196441 L16.7348775,51.0418976 C17.6929436,50.2721423 19.1657093,49.6421312 21.1989286,49.0444969 L21.8596813,48.8567213 L22.5580143,48.6703469 L23.2942477,48.4846221 C23.4201294,48.4536804 23.5476037,48.4227345 23.6766772,48.3917686 L24.5355385,48.1911936 C24.6817947,48.1579168 24.8298422,48.124653 24.9800337,48.091308 L25.9097293,47.8895069 L28.6652866,47.324645 C33.2752737,46.3851318 36.2778608,46.8214316 38.7967131,48.9840765 L38.9895358,49.1538447 L39.1107926,49.2659562 L39.2424055,49.1006631 C41.602865,46.1872571 44.6559308,44.1730508 48.130233,43.5278471 L48.4790573,43.4679075 L48.7994995,43.4212993 C50.6347811,43.1773426 52.7244083,43.8191264 55.2321005,45.1166846 C55.9872883,45.5074423 56.7686747,45.9534681 57.5971584,46.4604974 L58.1549468,46.8068699 L58.8597347,47.2600463 L59.5045956,47.6824488 C57.647344,41.3142401 60.581619,33.8991234 66.7665203,28.6936535 L67.0242015,28.4796039 L67.2855663,28.268126 C73.5694852,23.2507793 82.7685628,22.8341766 89.2870737,27.1443692 L89.6019301,27.3577798 L89.7179028,27.2288321 C95.1314299,21.2785123 103.73029,20.3208985 111.977161,24.7972795 Z M49.3627307,47.6261837 C46.0907512,48.0611149 43.1614779,50.3556777 41.1505519,53.8111942 C40.3726281,55.1479556 38.4669527,55.2340827 37.5707169,53.9729849 L37.4415773,53.7935602 L37.1863549,53.4534123 C35.4536032,51.2135753 33.9155095,50.6967392 30.3377865,51.3247089 L29.7993978,51.4247122 L27.492829,51.8926412 L26.8019937,52.0374974 L25.9121055,52.2306105 C25.7687329,52.2624319 25.6276126,52.2941292 25.488417,52.3257898 L24.6737168,52.5160083 L24.3756579,52.5883661 L23.7997115,52.7332957 L23.2516619,52.8781524 L22.7327115,53.0225072 L22.2440627,53.1659305 C22.1652131,53.1897329 22.0876763,53.2134786 22.0114771,53.2371587 L21.5705349,53.37838 C21.4997867,53.4017618 21.4304264,53.42506 21.3624789,53.4482657 L20.9719485,53.586319 C20.8475567,53.6319192 20.7290167,53.6770779 20.6165289,53.7217236 L20.2974224,53.8540503 L20.0158313,53.9828696 C19.7533987,54.1097922 19.5490426,54.2308098 19.4081736,54.3439906 C15.1739458,57.7456232 15.4441432,65.6639123 19.9537763,70.4641475 C20.9560472,71.5310051 20.6006302,73.2642753 19.2586483,73.854094 C14.2846835,76.0402168 12.0429617,81.0661014 13.9205197,85.8916795 C15.9490603,91.1050159 23.2133109,94.5906065 28.6801253,92.8428371 C29.8343675,92.4738197 31.0537619,93.1378268 31.3788769,94.2822853 L31.4123669,94.416439 C32.4371893,99.1629275 37.7255039,102.67364 43.2426563,102.403638 C49.9965595,102.072942 54.6980945,97.7097657 53.7164541,92.0959121 L53.6741736,91.8664295 L53.6099525,91.5641752 C53.2689151,89.9590948 54.8013848,88.6113607 56.3373885,89.1030749 L56.4653569,89.148343 L56.6341535,89.2138949 C61.6430899,91.1029764 66.5766922,89.4934788 68.8970104,85.5944138 L69.0187987,85.3833519 L69.0619065,85.3038967 L66.3987608,84.045179 L65.9016948,83.8196763 L65.5487417,83.6649639 L65.2932945,83.5563279 L64.7556114,83.3378947 L64.1690437,83.1121284 L62.8892126,82.6465818 L62.2340643,82.4135177 C62.0049884,82.3318829 61.7816119,82.251048 61.5637619,82.1708023 L60.9266189,81.9316214 L60.3215993,81.6947099 L59.7476669,81.4588028 C56.3021402,80.0045388 54.5707857,78.5354022 53.4602849,75.7163689 C50.468601,68.1219064 53.3192427,59.2370097 59.8046289,54.5156891 C60.1358002,54.2707944 60.4757852,54.0370862 60.824897,53.815033 L60.7285374,53.7230082 C60.4956586,53.5101921 60.2458485,53.3046789 59.9790322,53.1068904 L59.7065443,52.9116924 L57.0516328,51.1515363 L55.8498174,50.3738509 L55.7536548,50.3134597 C54.8585429,49.7544959 54.0378084,49.2789916 53.269213,48.8812964 C51.4821739,47.9566266 50.0910458,47.5293716 49.3627307,47.6261837 Z M91.7141561,31.5489362 C90.9814678,32.6221322 89.4617199,32.7940119 88.5061758,31.9117507 C83.5872497,27.3700688 75.3355403,27.2772768 69.9489192,31.5781831 C62.9503306,37.1668488 60.9491199,45.68035 66.2665281,50.8189988 C66.4855114,51.0306203 66.7119081,51.2367044 66.9390963,51.4320406 L67.2796443,51.7163327 L67.6888992,52.0387952 C69.0306955,53.0960311 68.6286664,55.1958528 67.0409542,55.7151251 L66.8977991,55.7567747 L66.7556871,55.7930566 C66.2322965,55.9319141 65.7244702,56.1016937 65.2333808,56.2998405 C65.1336034,56.3655367 65.0263223,56.4223358 64.9124608,56.4705766 C63.9438788,56.8809458 63.0441269,57.4015779 62.2213898,58.0122151 C57.457805,61.6240163 55.2933563,68.2841469 57.5540744,74.0135982 C58.1615327,75.5531104 59.2367828,76.444671 61.8022863,77.5019799 L62.3177188,77.7089086 L62.8720162,77.9212877 L63.466826,78.1404283 L65.0463616,78.7055618 L65.6289913,78.9193914 L66.1577905,79.1197593 C66.2423007,79.1523942 66.3252152,79.1847396 66.4068575,79.2169313 L66.8840337,79.4093237 C66.9618816,79.4414437 67.0391045,79.4736816 67.116026,79.506173 L67.4836028,79.6642295 L68.1785778,79.9755789 L69.426758,80.5619722 L70.4944078,81.0699608 L71.1311706,81.3657222 L71.7336575,81.6372353 L72.3037409,81.8847874 C72.3961585,81.9240653 72.487304,81.9623568 72.5772163,81.9996678 L73.1022048,82.2118171 C75.2306003,83.0471508 76.6370432,83.2772058 77.9309863,82.9955128 L78.0857584,82.9592593 C79.2569028,82.6655591 80.4385358,83.3999537 80.6886091,84.5769522 C81.8416068,90.0036679 87.7362722,93.1933773 95.3656244,92.8560157 C103.70128,92.4874222 109.183045,87.7120239 108.449386,80.8678905 L108.420156,80.6196154 L108.379382,80.3290246 C108.16097,78.7724019 109.651924,77.5454367 111.126006,78.0115185 L111.255985,78.0570718 L111.361326,78.0978058 C114.363994,79.2141599 116.456855,78.6753054 119.626665,75.7964919 L120.046389,75.4076681 C120.188442,75.2735993 120.332694,75.1350509 120.479308,74.9919665 L120.926402,74.5490494 L121.388649,74.078579 L122.112578,73.3204725 L122.616997,72.7796418 C122.702588,72.6871182 122.788954,72.5933972 122.876114,72.4984719 C123.558723,71.7550509 124.352621,71.1999013 125.648995,70.4891107 L126.19527,70.1956785 L127.4453,69.5471816 L127.882724,69.3156474 L128.280551,69.0971426 L128.639974,68.891129 L128.96219,68.6970681 C129.114195,68.6029362 129.252696,68.5130848 129.378363,68.427211 L129.612788,68.2606773 C130.0845,67.9109567 130.32366,67.6321376 130.384967,67.3995828 C132.331252,60.0163554 126.048702,50.9280246 117.90719,49.5176036 L117.643923,49.4747809 L117.429944,49.4449897 C115.892289,49.2309097 115.09426,47.5021758 115.931942,46.1999347 C119.736702,40.2851406 117.308826,32.6811778 110.211437,28.6728266 L109.939674,28.5223498 C102.695218,24.5900773 95.6260509,25.8190373 91.7141561,31.5489362 Z M41.7139095,67.1064336 C47.1248203,67.1064336 51.502847,71.5100897 51.502847,76.9320825 C51.502847,79.7238853 50.3331036,81.750578 48.1389539,82.8523439 C46.542196,83.6541366 44.6290128,83.9142219 41.8147338,83.9142219 C38.9973944,83.9142219 37.0453716,83.654275 35.4172829,82.8659512 C33.1572519,81.7716398 31.924972,79.7382499 31.924972,76.9320825 C31.924972,71.5100897 36.3029988,67.1064336 41.7139095,67.1064336 Z M41.7139095,71.3485869 C38.6641144,71.3485869 36.1833839,73.8438398 36.1833839,76.9320825 C36.1833839,78.5185217 36.9091405,79.2665443 39.1034271,79.5414032 L39.4828664,79.5828945 C39.548415,79.5891004 39.6151285,79.5949568 39.683023,79.6004717 L40.1046876,79.6295241 C40.1773692,79.6337039 40.2512636,79.6375576 40.3263867,79.6410933 L40.791996,79.6585523 L41.287857,79.6687522 L41.8147338,79.6720687 L42.3320891,79.6689565 L42.8179493,79.659334 L43.2731571,79.6427722 L43.6985555,79.6188418 L44.0949871,79.5871139 C46.5157722,79.3605723 47.2444352,78.6390622 47.2444352,76.9320825 C47.2444352,73.8438398 44.7637046,71.3485869 41.7139095,71.3485869 Z M92.5589986,47.9232923 C99.0988316,47.9232923 105.001465,53.8147571 105.001465,60.3352767 C105.001465,65.6986932 101.53509,68.3320927 95.8056286,68.975035 L95.2251834,69.0327218 C94.4413171,69.100864 93.6179313,69.1340587 92.757878,69.1340587 C85.1606248,69.1340587 80.3026759,66.5897209 80.3026759,60.3352767 C80.3026759,53.7928268 86.0398909,47.9232923 92.5589986,47.9232923 Z M92.5589986,52.1654456 C88.4174967,52.1654456 84.5610878,56.1107963 84.5610878,60.3352767 C84.5610878,63.5084959 87.2024559,64.8919054 92.757878,64.8919054 C93.2658271,64.8919054 93.7481716,64.8803632 94.2052981,64.8568677 L94.7417702,64.8229092 C98.849703,64.511545 100.743053,63.1294639 100.743053,60.3352767 C100.743053,56.1558015 96.7451325,52.1654456 92.5589986,52.1654456 Z" id="icon" fill="#333333"></path>
            </g>
        </g>
    </g>
</svg>