<?xml version="1.0" encoding="UTF-8"?>
<svg width="142px" height="143px" viewBox="0 0 142 143" version="1.1" xmlns="http://www.w3.org/2000/svg" xmlns:xlink="http://www.w3.org/1999/xlink">
    <!-- Generator: Sketch 52.6 (67491) - http://www.bohemiancoding.com/sketch -->
    <title>icons/welcome</title>
    <desc>Created with Sketch.</desc>
    <g id="Symbols" stroke="none" stroke-width="1" fill="none" fill-rule="evenodd">
        <g id="UI-Elements" transform="translate(-521.000000, -1166.000000)">
            <g id="icons/welcome" transform="translate(520.000000, 1165.000000)">
                <g id="graph-elemets/outter-circle" fill="#FFFFFF" fill-rule="nonzero" stroke="#EE3E24" stroke-linecap="round" stroke-linejoin="round" stroke-width="4">
                    <ellipse id="Oval" cx="72" cy="72.5" rx="69" ry="69.4791667"></ellipse>
                </g>
                <g stroke-width="1" fill-rule="evenodd" transform="translate(24.000000, 21.000000)" id="Group-17">
                    <g>
                        <path d="M13,65 L13,17.2548042 C13,14.9052542 14.901435,13 17.2462752,13 L77.7529358,13 C80.098565,13 82,14.9052542 82,17.2548042 L82,27.1218073" id="Stroke-5" stroke="#4F4C4D" stroke-width="4" stroke-linejoin="round"></path>
                        <path d="M30.5,46 C31.3285868,46 32,46.6543327 32,47.4610551 L32,63.5389449 C32,64.3456673 31.3285868,65 30.5,65 C29.6722192,65 29,64.3456673 29,63.5389449 L29,47.4610551 C29,46.6543327 29.6722192,46 30.5,46" id="Fill-1" fill="#4F4C4D"></path>
                        <path d="M64.5004031,46 C65.3284063,46 66,46.6543327 66,47.4610551 L66,63.5389449 C66,64.3456673 65.3284063,65 64.5004031,65 C63.6715937,65 63,64.3456673 63,63.5389449 L63,47.4610551 C63,46.6543327 63.6715937,46 64.5004031,46" id="Fill-3" fill="#4F4C4D"></path>
                        <path d="M82,46 L82,98.4268871 C82,99.8879796 82.2441427,101.652491 81.079,102 M14,101.333229 C12.7494352,100.833267 13,99.7894153 13,98.2462228 L13,83" id="Shape" stroke="#4F4C4D" stroke-width="4" stroke-linejoin="round"></path>
                        <path d="M15.488817,15.4076503 C24.0569622,20.3103553 31.4318548,24.8061969 40,29.708902 L40,83.057194 C30.9994816,89.3714627 22.7370488,94.9983065 13.737308,101.312575" id="Stroke-9" stroke="#0069B5" stroke-width="4" stroke-linecap="round" stroke-linejoin="round"></path>
                        <path d="M79.5407296,15.342623 C71.2001956,20.2479429 62.3397563,24.8114267 54,29.7175334 L54,83.0600364 L81,102" id="Stroke-11" stroke="#0069B5" stroke-width="4" stroke-linecap="round" stroke-linejoin="round"></path>
                        <path d="M17.0890722,0.564655588 C10.4504991,4.56279605 4.6491669,9.80980244 0.0102850781,15.9804652" id="Path" stroke="#4F4C4D" stroke-width="4" stroke-linecap="round" stroke-linejoin="round" fill-rule="nonzero"></path>
                    </g>
                </g>
            </g>
        </g>
    </g>
</svg>