<?xml version="1.0" encoding="UTF-8"?>
<svg width="144px" height="145px" viewBox="0 0 144 145" version="1.1" xmlns="http://www.w3.org/2000/svg" xmlns:xlink="http://www.w3.org/1999/xlink">
    <!-- Generator: Sketch 63.1 (92452) - https://sketch.com -->
    <title>icons/welcome</title>
    <desc>Created with Sketch.</desc>
    <g id="icons/welcome" stroke="none" stroke-width="1" fill="none" fill-rule="evenodd" stroke-linejoin="round">
        <g id="graph-elemets/outtercircle" fill="#F2F2F2" fill-rule="nonzero" stroke="#FF5547" stroke-linecap="round" stroke-width="4">
            <ellipse id="Oval" cx="72" cy="72.5" rx="69" ry="69.4791667"></ellipse>
        </g>
        <g id="welcome" transform="translate(11.000000, 24.000000)" fill-rule="nonzero" stroke="#333333">
            <path d="M58,66 C59.0483729,77.5467302 63.2644988,83.6473222 73,91" id="Path-3" stroke-width="3" stroke-linecap="square"></path>
            <g id="Group-2" transform="translate(-0.000000, 20.239491)" stroke-linecap="round" stroke-width="2">
                <path d="M50.1509615,6.24846633 C55.5617003,9.76224121 56.115,15.7226809 52.7869652,21.086893 C59.9044759,22.7422826 63.33759,32.3090298 61.570725,38.9968808 C59.7694887,45.8142485 52.6612549,49.0998401 45.5993957,46.4419739 L45.3703508,46.3526046 L45.4345783,46.6544217 C45.4548147,46.7555286 45.4739576,46.8570867 45.4919871,46.9590888 C46.8262507,54.5077103 40.2876403,59.3635709 33.097204,59.6998571 C26.8647073,59.9913418 20.4191953,56.0502369 19.1072193,50.0248081 C12.5031826,52.1267497 4.15909355,47.9592594 1.75260205,41.7945266 C-0.576758312,35.8264058 2.26302324,29.6751884 8.1601861,27.0890599 C3.04261089,21.6323689 2.37466435,12.2537212 7.79068777,7.89913695 C9.67759934,6.3819358 15.736644,5.2512098 18.7657048,4.63939187 C24.1694645,3.5479258 26.5021923,4.55042249 28.9543935,8.00150629 C31.0253889,4.42767556 34.367465,1.37649339 38.6770467,0.812244275 C41.9213489,0.387471109 47.6783253,4.64271759 50.1509615,6.24846633 Z M31.3993749,24.4661961 C27.1773783,24.4661961 23.7547739,27.9048378 23.7547739,32.1466174 C23.7547739,36.3068243 27.1437976,36.9678647 31.2572186,36.9917508 L31.5,36.9924426 C35.7219965,36.9924426 39.0439758,36.3883969 39.0439758,32.1466174 C39.0439758,27.9048378 35.6213714,24.4661961 31.3993749,24.4661961 Z" id="Combined-Shape" fill="#FFFFFF"></path>
                <path d="M42.8246457,10.1333093 C45.7033886,11.6697694 48.4904849,11.6774361 49.8103713,13.5412764 C50.6668921,14.7507879 51.3962962,19.7798191 51.1267717,22.0243989 L44.8256704,25.7389763 C47.5355644,25.063432 51.3655597,23.8129251 53.5376501,25.0431326 C58.0656721,27.6076695 59.6518417,34.8986552 58.7634148,38.1940666 C58.3435687,39.7513457 51.545664,40.8607042 50.4419138,42.0459823 L49.8026909,42.7261707 C47.7293016,44.9000395 45.8791167,43.1190841 42.8246457,42.0459823 C41.9237374,47.0169551 40.9881165,49.6867358 40.017783,50.0553243 C38.0207155,50.8139255 36.4382517,49.9199715 33.5,50.0553243 C31.4960575,50.1476375 29.5853998,54.4825791 27.675532,54.751874 C25.3136047,55.0849102 21.6552129,45.6867245 21.1856209,43.4805135 C18.9551308,44.0379644 16.4590611,44.4099423 14.2695262,43.4805135 C11.7725613,42.4205847 11.6557174,42.0856824 10.7058942,39.6985623 C9.77006148,37.3461116 6.85395163,33.8753923 8.48794151,31.7711314 C10.0848462,29.714629 13.4334102,30.5112839 15.993358,29.8038012 L8.48794151,26.9089117 C8.17226872,26.6715124 12.1032816,25.3160792 11.8169208,25.0431326 C7.84109218,21.2535454 7.80849716,18.3590093 11.8169208,15.1980606 C13.3268152,14.0074611 14.7875599,7.94457958 17.2726473,8.20245585 C20.5104796,8.53844408 27.5952685,8.42588006 29.4706489,10.1333093 C30.8263122,8.17774804 35.7630117,7.2614464 38.4628517,5.97666982 C40.992715,4.77278034 40.581349,8.93600343 42.8246457,10.1333093 Z" id="Path"></path>
                <path d="M16.9589844,15.9963488 C20.0763337,20.4100376 20.777399,14.2637368 23.8730469,21.1530871" id="Path-6"></path>
                <path d="M19.4570313,49.6023059 C20.2772283,42.8164364 19.1547909,46.0199088 22.9873047,40.050548" id="Path-5"></path>
            </g>
            <g id="Group" transform="translate(43.000000, 0.000000)" stroke-linecap="round" stroke-width="2">
                <path d="M57.2117468,2.64612872 C65.4943669,7.1570577 68.4873985,16.2325141 63.9283924,23.3461044 L64.1417948,23.3751509 C73.6900458,24.8234509 80.8501322,35.2870449 78.5694825,43.9452814 C77.8410994,46.7103906 72.5171663,47.8500579 70.5953659,49.9528063 L70.1795675,50.4067832 C66.304642,54.625237 62.5683857,58.2595562 56.8380031,56.1409395 L56.6818307,56.0806987 L56.7252044,56.3990287 C57.8426813,65.3626651 50.4463557,70.6551935 41.6925158,71.0542568 C33.8784937,71.4104764 26.4051135,68.1932068 24.9131214,61.1058578 C21.0242214,62.087505 16.6750714,59.3040438 12.8550912,57.6481235 C8.498563,55.7596153 3.63945995,55.134904 1.97743922,50.892644 C-1.27711108,42.5827573 3.44481506,32.2816459 12.5660666,29.8194714 L12.7568307,29.7686987 L12.3500487,29.4475819 C11.9459492,29.1191722 11.5555334,28.7731119 11.1807566,28.4091967 C4.23889303,21.6685185 8.04356239,11.5671672 15.0254931,5.96189735 C21.081921,1.1000821 30.4933978,1.0022182 36.280738,6.37012392 C40.8523399,-0.351637684 49.1202365,-1.76071697 57.2117468,2.64612872 Z M38.8629035,27.6602795 C34.5151158,27.6602795 30.6549943,31.6853152 30.6549943,36.0411994 C30.6549943,40.3970837 34.6763052,41.4795257 39.0240929,41.4795257 C43.3718807,41.4795257 47.2216797,40.3970837 47.2216797,36.0411994 C47.2216797,31.6853152 43.2106912,27.6602795 38.8629035,27.6602795 Z" id="Combined-Shape" fill="#FFFFFF"></path>
                <path d="M52.896163,10.1231102 C56.2586439,11.9410451 59.442106,11.8742696 60.9837834,14.0795598 C61.9842322,15.5106503 62.0985383,18.6592009 61.7837234,21.314981 L54.4237981,25.7100577 C57.5890571,24.9107558 62.0626368,23.4311598 64.5997209,24.8867375 C69.8886222,27.9210899 71.7413285,36.5477621 70.7036122,40.4468829 C70.213216,42.2894509 62.2730055,43.6020405 60.9837834,45.0044579 L60.2371469,45.8092548 C57.8153494,48.3813698 55.4004251,50.4337951 51.8326871,49.1641044 L52.896163,50.1821085 C53.269567,52.7529232 52.3521649,55.6860399 50.6520853,56.3402092 C48.3194347,57.2377838 44.566182,55.2942862 41.1341926,55.4544353 C38.7935117,55.56366 36.5299289,57.7249064 34.2991309,58.0435353 C31.5403102,58.4375827 29.0013942,56.7871746 28.4528929,54.1767924 C25.847596,54.8363666 19.6359263,52.8476216 17.0784664,51.7479242 C14.1619168,50.4938197 15.6800351,45.051431 14.5706055,42.2269977 C13.4775174,39.4435851 10.7282927,38.4581102 12.6368549,35.968355 C14.5021,33.5351077 17.7564477,31.3566377 20.7465638,30.5195462 L13.5987608,29.7820803 C13.230043,29.5011902 16.2028069,25.2096871 15.8683267,24.8867375 C11.2244081,20.4029095 11.1863359,16.9781031 15.8683267,13.2380782 C17.6319407,11.8293644 21.1991946,5.92868459 24.1018709,6.23380301 C27.8837818,6.63134327 34.7649385,6.21838569 36.955454,8.2386108 C38.5389201,5.92479664 41.5010643,5.84479061 44.6545798,4.32464685 C47.6095561,2.90020845 50.2759075,8.70646151 52.896163,10.1231102 Z" id="Path"></path>
                <path d="M46.9316406,44.9667969 C48.3395182,46.1158854 49.7473958,47.264974 51.1552734,48.4140625" id="Path-2"></path>
                <path d="M47.2216797,28.0058594 C49.202474,27.5188802 51.1832682,27.031901 53.1640625,26.5449219" id="Path-4"></path>
            </g>
            <path d="M37.4384604,90.8043235 C45.4985432,85.3828936 48.716035,89.2277934 57.8497662,90.7198757 C58.847807,90.8829153 61.9696038,90.969616 62.9647099,90.7862514 C64.6446224,90.4767001 66.8787971,88.8014353 68.3117242,89.8119983 C69.1302003,90.3892235 64.8401426,95.3420904 63.9196135,96.0347465 C61.0756236,98.1747187 57.5264957,99.5555135 54.2220628,98.9051813 C48.2740937,97.7345853 43.423967,95.0140396 37.6444855,93.077892 C37.0064551,92.8641495 35.6226833,92.774905 35.0157951,92.471011 C34.8744289,92.4002232 35.681984,91.8446607 37.4384604,90.8043235 Z" id="Path-11" stroke-width="2" fill="#FFFFFF" stroke-linecap="round" transform="translate(51.707468, 93.533503) scale(-1, 1) rotate(-7.000000) translate(-51.707468, -93.533503) "></path>
        </g>
        <path d="M74.8779297,54.6494141 C76.1686198,54.6904297 77.4593099,54.7314453 78.75,54.7724609" id="Path-14" stroke="#333333" stroke-width="2" stroke-linecap="round" fill-rule="nonzero"></path>
        <path d="M43.199707,83.6352539 C45.9306641,82.605306 48.6616211,81.5753581 51.3925781,80.5454102" id="Path-15" stroke="#333333" stroke-width="2" stroke-linecap="round" fill-rule="nonzero"></path>
        <path d="M81.1953125,61.1220703 C89.0422769,65.2707293 86.9730165,62.2929272 89.2724609,68.4091797" id="Path-16" stroke="#333333" stroke-width="2" stroke-linecap="round" fill-rule="nonzero"></path>
    </g>
</svg>